<?xml version="1.0" encoding="utf-8" standalone="no"?>
<!DOCTYPE svg PUBLIC "-//W3C//DTD SVG 1.1//EN"
  "http://www.w3.org/Graphics/SVG/1.1/DTD/svg11.dtd">
<svg xmlns:xlink="http://www.w3.org/1999/xlink" width="720pt" height="540pt" viewBox="0 0 720 540" xmlns="http://www.w3.org/2000/svg" version="1.1">
 <metadata>
  <rdf:RDF xmlns:dc="http://purl.org/dc/elements/1.1/" xmlns:cc="http://creativecommons.org/ns#" xmlns:rdf="http://www.w3.org/1999/02/22-rdf-syntax-ns#">
   <cc:Work>
    <dc:type rdf:resource="http://purl.org/dc/dcmitype/StillImage"/>
    <dc:date>2024-09-24T15:58:13.983558</dc:date>
    <dc:format>image/svg+xml</dc:format>
    <dc:creator>
     <cc:Agent>
      <dc:title>Matplotlib v3.9.2, https://matplotlib.org/</dc:title>
     </cc:Agent>
    </dc:creator>
   </cc:Work>
  </rdf:RDF>
 </metadata>
 <defs>
  <style type="text/css">*{stroke-linejoin: round; stroke-linecap: butt}</style>
 </defs>
 <g id="figure_1">
  <g id="patch_1">
   <path d="M 0 540 
L 720 540 
L 720 0 
L 0 0 
z
" style="fill: #ffffff"/>
  </g>
  <g id="axes_1">
   <g id="patch_2">
    <path d="M 67.48 441.226046 
L 704.748479 441.226046 
L 704.748479 10.8 
L 67.48 10.8 
z
" style="fill: #ffffff"/>
   </g>
   <g id="matplotlib.axis_1">
    <g id="xtick_1">
     <g id="line2d_1">
      <defs>
       <path id="ma17736627f" d="M 0 0 
L 0 3.5 
" style="stroke: #000000; stroke-width: 0.8"/>
      </defs>
      <g>
       <use xlink:href="#ma17736627f" x="96.446749" y="441.226046" style="stroke: #000000; stroke-width: 0.8"/>
      </g>
     </g>
     <g id="text_1">
      <!-- 5.0 min -->
      <g transform="translate(79.941816 494.592275) rotate(-45) scale(0.144 -0.144)">
       <defs>
        <path id="DejaVuSans-35" d="M 691 4666 
L 3169 4666 
L 3169 4134 
L 1269 4134 
L 1269 2991 
Q 1406 3038 1543 3061 
Q 1681 3084 1819 3084 
Q 2600 3084 3056 2656 
Q 3513 2228 3513 1497 
Q 3513 744 3044 326 
Q 2575 -91 1722 -91 
Q 1428 -91 1123 -41 
Q 819 9 494 109 
L 494 744 
Q 775 591 1075 516 
Q 1375 441 1709 441 
Q 2250 441 2565 725 
Q 2881 1009 2881 1497 
Q 2881 1984 2565 2268 
Q 2250 2553 1709 2553 
Q 1456 2553 1204 2497 
Q 953 2441 691 2322 
L 691 4666 
z
" transform="scale(0.015625)"/>
        <path id="DejaVuSans-2e" d="M 684 794 
L 1344 794 
L 1344 0 
L 684 0 
L 684 794 
z
" transform="scale(0.015625)"/>
        <path id="DejaVuSans-30" d="M 2034 4250 
Q 1547 4250 1301 3770 
Q 1056 3291 1056 2328 
Q 1056 1369 1301 889 
Q 1547 409 2034 409 
Q 2525 409 2770 889 
Q 3016 1369 3016 2328 
Q 3016 3291 2770 3770 
Q 2525 4250 2034 4250 
z
M 2034 4750 
Q 2819 4750 3233 4129 
Q 3647 3509 3647 2328 
Q 3647 1150 3233 529 
Q 2819 -91 2034 -91 
Q 1250 -91 836 529 
Q 422 1150 422 2328 
Q 422 3509 836 4129 
Q 1250 4750 2034 4750 
z
" transform="scale(0.015625)"/>
        <path id="DejaVuSans-20" transform="scale(0.015625)"/>
        <path id="DejaVuSans-6d" d="M 3328 2828 
Q 3544 3216 3844 3400 
Q 4144 3584 4550 3584 
Q 5097 3584 5394 3201 
Q 5691 2819 5691 2113 
L 5691 0 
L 5113 0 
L 5113 2094 
Q 5113 2597 4934 2840 
Q 4756 3084 4391 3084 
Q 3944 3084 3684 2787 
Q 3425 2491 3425 1978 
L 3425 0 
L 2847 0 
L 2847 2094 
Q 2847 2600 2669 2842 
Q 2491 3084 2119 3084 
Q 1678 3084 1418 2786 
Q 1159 2488 1159 1978 
L 1159 0 
L 581 0 
L 581 3500 
L 1159 3500 
L 1159 2956 
Q 1356 3278 1631 3431 
Q 1906 3584 2284 3584 
Q 2666 3584 2933 3390 
Q 3200 3197 3328 2828 
z
" transform="scale(0.015625)"/>
        <path id="DejaVuSans-69" d="M 603 3500 
L 1178 3500 
L 1178 0 
L 603 0 
L 603 3500 
z
M 603 4863 
L 1178 4863 
L 1178 4134 
L 603 4134 
L 603 4863 
z
" transform="scale(0.015625)"/>
        <path id="DejaVuSans-6e" d="M 3513 2113 
L 3513 0 
L 2938 0 
L 2938 2094 
Q 2938 2591 2744 2837 
Q 2550 3084 2163 3084 
Q 1697 3084 1428 2787 
Q 1159 2491 1159 1978 
L 1159 0 
L 581 0 
L 581 3500 
L 1159 3500 
L 1159 2956 
Q 1366 3272 1645 3428 
Q 1925 3584 2291 3584 
Q 2894 3584 3203 3211 
Q 3513 2838 3513 2113 
z
" transform="scale(0.015625)"/>
       </defs>
       <use xlink:href="#DejaVuSans-35"/>
       <use xlink:href="#DejaVuSans-2e" x="63.623047"/>
       <use xlink:href="#DejaVuSans-30" x="95.410156"/>
       <use xlink:href="#DejaVuSans-20" x="159.033203"/>
       <use xlink:href="#DejaVuSans-6d" x="190.820312"/>
       <use xlink:href="#DejaVuSans-69" x="288.232422"/>
       <use xlink:href="#DejaVuSans-6e" x="316.015625"/>
      </g>
     </g>
    </g>
    <g id="xtick_2">
     <g id="line2d_2">
      <g>
       <use xlink:href="#ma17736627f" x="144.724664" y="441.226046" style="stroke: #000000; stroke-width: 0.8"/>
      </g>
     </g>
     <g id="text_2">
      <!-- 6.2 min -->
      <g transform="translate(128.219731 494.592275) rotate(-45) scale(0.144 -0.144)">
       <defs>
        <path id="DejaVuSans-36" d="M 2113 2584 
Q 1688 2584 1439 2293 
Q 1191 2003 1191 1497 
Q 1191 994 1439 701 
Q 1688 409 2113 409 
Q 2538 409 2786 701 
Q 3034 994 3034 1497 
Q 3034 2003 2786 2293 
Q 2538 2584 2113 2584 
z
M 3366 4563 
L 3366 3988 
Q 3128 4100 2886 4159 
Q 2644 4219 2406 4219 
Q 1781 4219 1451 3797 
Q 1122 3375 1075 2522 
Q 1259 2794 1537 2939 
Q 1816 3084 2150 3084 
Q 2853 3084 3261 2657 
Q 3669 2231 3669 1497 
Q 3669 778 3244 343 
Q 2819 -91 2113 -91 
Q 1303 -91 875 529 
Q 447 1150 447 2328 
Q 447 3434 972 4092 
Q 1497 4750 2381 4750 
Q 2619 4750 2861 4703 
Q 3103 4656 3366 4563 
z
" transform="scale(0.015625)"/>
        <path id="DejaVuSans-32" d="M 1228 531 
L 3431 531 
L 3431 0 
L 469 0 
L 469 531 
Q 828 903 1448 1529 
Q 2069 2156 2228 2338 
Q 2531 2678 2651 2914 
Q 2772 3150 2772 3378 
Q 2772 3750 2511 3984 
Q 2250 4219 1831 4219 
Q 1534 4219 1204 4116 
Q 875 4013 500 3803 
L 500 4441 
Q 881 4594 1212 4672 
Q 1544 4750 1819 4750 
Q 2544 4750 2975 4387 
Q 3406 4025 3406 3419 
Q 3406 3131 3298 2873 
Q 3191 2616 2906 2266 
Q 2828 2175 2409 1742 
Q 1991 1309 1228 531 
z
" transform="scale(0.015625)"/>
       </defs>
       <use xlink:href="#DejaVuSans-36"/>
       <use xlink:href="#DejaVuSans-2e" x="63.623047"/>
       <use xlink:href="#DejaVuSans-32" x="95.410156"/>
       <use xlink:href="#DejaVuSans-20" x="159.033203"/>
       <use xlink:href="#DejaVuSans-6d" x="190.820312"/>
       <use xlink:href="#DejaVuSans-69" x="288.232422"/>
       <use xlink:href="#DejaVuSans-6e" x="316.015625"/>
      </g>
     </g>
    </g>
    <g id="xtick_3">
     <g id="line2d_3">
      <g>
       <use xlink:href="#ma17736627f" x="193.002579" y="441.226046" style="stroke: #000000; stroke-width: 0.8"/>
      </g>
     </g>
     <g id="text_3">
      <!-- 10.0 min -->
      <g transform="translate(173.25839 501.070787) rotate(-45) scale(0.144 -0.144)">
       <defs>
        <path id="DejaVuSans-31" d="M 794 531 
L 1825 531 
L 1825 4091 
L 703 3866 
L 703 4441 
L 1819 4666 
L 2450 4666 
L 2450 531 
L 3481 531 
L 3481 0 
L 794 0 
L 794 531 
z
" transform="scale(0.015625)"/>
       </defs>
       <use xlink:href="#DejaVuSans-31"/>
       <use xlink:href="#DejaVuSans-30" x="63.623047"/>
       <use xlink:href="#DejaVuSans-2e" x="127.246094"/>
       <use xlink:href="#DejaVuSans-30" x="159.033203"/>
       <use xlink:href="#DejaVuSans-20" x="222.65625"/>
       <use xlink:href="#DejaVuSans-6d" x="254.443359"/>
       <use xlink:href="#DejaVuSans-69" x="351.855469"/>
       <use xlink:href="#DejaVuSans-6e" x="379.638672"/>
      </g>
     </g>
    </g>
    <g id="xtick_4">
     <g id="line2d_4">
      <g>
       <use xlink:href="#ma17736627f" x="241.280494" y="441.226046" style="stroke: #000000; stroke-width: 0.8"/>
      </g>
     </g>
     <g id="text_4">
      <!-- 25.0 min -->
      <g transform="translate(221.536305 501.070787) rotate(-45) scale(0.144 -0.144)">
       <use xlink:href="#DejaVuSans-32"/>
       <use xlink:href="#DejaVuSans-35" x="63.623047"/>
       <use xlink:href="#DejaVuSans-2e" x="127.246094"/>
       <use xlink:href="#DejaVuSans-30" x="159.033203"/>
       <use xlink:href="#DejaVuSans-20" x="222.65625"/>
       <use xlink:href="#DejaVuSans-6d" x="254.443359"/>
       <use xlink:href="#DejaVuSans-69" x="351.855469"/>
       <use xlink:href="#DejaVuSans-6e" x="379.638672"/>
      </g>
     </g>
    </g>
    <g id="xtick_5">
     <g id="line2d_5">
      <g>
       <use xlink:href="#ma17736627f" x="289.558409" y="441.226046" style="stroke: #000000; stroke-width: 0.8"/>
      </g>
     </g>
     <g id="text_5">
      <!-- 50.0 min -->
      <g transform="translate(269.81422 501.070787) rotate(-45) scale(0.144 -0.144)">
       <use xlink:href="#DejaVuSans-35"/>
       <use xlink:href="#DejaVuSans-30" x="63.623047"/>
       <use xlink:href="#DejaVuSans-2e" x="127.246094"/>
       <use xlink:href="#DejaVuSans-30" x="159.033203"/>
       <use xlink:href="#DejaVuSans-20" x="222.65625"/>
       <use xlink:href="#DejaVuSans-6d" x="254.443359"/>
       <use xlink:href="#DejaVuSans-69" x="351.855469"/>
       <use xlink:href="#DejaVuSans-6e" x="379.638672"/>
      </g>
     </g>
    </g>
    <g id="xtick_6">
     <g id="line2d_6">
      <g>
       <use xlink:href="#ma17736627f" x="337.836324" y="441.226046" style="stroke: #000000; stroke-width: 0.8"/>
      </g>
     </g>
     <g id="text_6">
      <!-- 1.7 hours -->
      <g transform="translate(316.618083 504.018892) rotate(-45) scale(0.144 -0.144)">
       <defs>
        <path id="DejaVuSans-37" d="M 525 4666 
L 3525 4666 
L 3525 4397 
L 1831 0 
L 1172 0 
L 2766 4134 
L 525 4134 
L 525 4666 
z
" transform="scale(0.015625)"/>
        <path id="DejaVuSans-68" d="M 3513 2113 
L 3513 0 
L 2938 0 
L 2938 2094 
Q 2938 2591 2744 2837 
Q 2550 3084 2163 3084 
Q 1697 3084 1428 2787 
Q 1159 2491 1159 1978 
L 1159 0 
L 581 0 
L 581 4863 
L 1159 4863 
L 1159 2956 
Q 1366 3272 1645 3428 
Q 1925 3584 2291 3584 
Q 2894 3584 3203 3211 
Q 3513 2838 3513 2113 
z
" transform="scale(0.015625)"/>
        <path id="DejaVuSans-6f" d="M 1959 3097 
Q 1497 3097 1228 2736 
Q 959 2375 959 1747 
Q 959 1119 1226 758 
Q 1494 397 1959 397 
Q 2419 397 2687 759 
Q 2956 1122 2956 1747 
Q 2956 2369 2687 2733 
Q 2419 3097 1959 3097 
z
M 1959 3584 
Q 2709 3584 3137 3096 
Q 3566 2609 3566 1747 
Q 3566 888 3137 398 
Q 2709 -91 1959 -91 
Q 1206 -91 779 398 
Q 353 888 353 1747 
Q 353 2609 779 3096 
Q 1206 3584 1959 3584 
z
" transform="scale(0.015625)"/>
        <path id="DejaVuSans-75" d="M 544 1381 
L 544 3500 
L 1119 3500 
L 1119 1403 
Q 1119 906 1312 657 
Q 1506 409 1894 409 
Q 2359 409 2629 706 
Q 2900 1003 2900 1516 
L 2900 3500 
L 3475 3500 
L 3475 0 
L 2900 0 
L 2900 538 
Q 2691 219 2414 64 
Q 2138 -91 1772 -91 
Q 1169 -91 856 284 
Q 544 659 544 1381 
z
M 1991 3584 
L 1991 3584 
z
" transform="scale(0.015625)"/>
        <path id="DejaVuSans-72" d="M 2631 2963 
Q 2534 3019 2420 3045 
Q 2306 3072 2169 3072 
Q 1681 3072 1420 2755 
Q 1159 2438 1159 1844 
L 1159 0 
L 581 0 
L 581 3500 
L 1159 3500 
L 1159 2956 
Q 1341 3275 1631 3429 
Q 1922 3584 2338 3584 
Q 2397 3584 2469 3576 
Q 2541 3569 2628 3553 
L 2631 2963 
z
" transform="scale(0.015625)"/>
        <path id="DejaVuSans-73" d="M 2834 3397 
L 2834 2853 
Q 2591 2978 2328 3040 
Q 2066 3103 1784 3103 
Q 1356 3103 1142 2972 
Q 928 2841 928 2578 
Q 928 2378 1081 2264 
Q 1234 2150 1697 2047 
L 1894 2003 
Q 2506 1872 2764 1633 
Q 3022 1394 3022 966 
Q 3022 478 2636 193 
Q 2250 -91 1575 -91 
Q 1294 -91 989 -36 
Q 684 19 347 128 
L 347 722 
Q 666 556 975 473 
Q 1284 391 1588 391 
Q 1994 391 2212 530 
Q 2431 669 2431 922 
Q 2431 1156 2273 1281 
Q 2116 1406 1581 1522 
L 1381 1569 
Q 847 1681 609 1914 
Q 372 2147 372 2553 
Q 372 3047 722 3315 
Q 1072 3584 1716 3584 
Q 2034 3584 2315 3537 
Q 2597 3491 2834 3397 
z
" transform="scale(0.015625)"/>
       </defs>
       <use xlink:href="#DejaVuSans-31"/>
       <use xlink:href="#DejaVuSans-2e" x="63.623047"/>
       <use xlink:href="#DejaVuSans-37" x="95.410156"/>
       <use xlink:href="#DejaVuSans-20" x="159.033203"/>
       <use xlink:href="#DejaVuSans-68" x="190.820312"/>
       <use xlink:href="#DejaVuSans-6f" x="254.199219"/>
       <use xlink:href="#DejaVuSans-75" x="315.380859"/>
       <use xlink:href="#DejaVuSans-72" x="378.759766"/>
       <use xlink:href="#DejaVuSans-73" x="419.873047"/>
      </g>
     </g>
    </g>
    <g id="xtick_7">
     <g id="line2d_7">
      <g>
       <use xlink:href="#ma17736627f" x="386.114239" y="441.226046" style="stroke: #000000; stroke-width: 0.8"/>
      </g>
     </g>
     <g id="text_7">
      <!-- 4.2 hours -->
      <g transform="translate(364.895998 504.018892) rotate(-45) scale(0.144 -0.144)">
       <defs>
        <path id="DejaVuSans-34" d="M 2419 4116 
L 825 1625 
L 2419 1625 
L 2419 4116 
z
M 2253 4666 
L 3047 4666 
L 3047 1625 
L 3713 1625 
L 3713 1100 
L 3047 1100 
L 3047 0 
L 2419 0 
L 2419 1100 
L 313 1100 
L 313 1709 
L 2253 4666 
z
" transform="scale(0.015625)"/>
       </defs>
       <use xlink:href="#DejaVuSans-34"/>
       <use xlink:href="#DejaVuSans-2e" x="63.623047"/>
       <use xlink:href="#DejaVuSans-32" x="95.410156"/>
       <use xlink:href="#DejaVuSans-20" x="159.033203"/>
       <use xlink:href="#DejaVuSans-68" x="190.820312"/>
       <use xlink:href="#DejaVuSans-6f" x="254.199219"/>
       <use xlink:href="#DejaVuSans-75" x="315.380859"/>
       <use xlink:href="#DejaVuSans-72" x="378.759766"/>
       <use xlink:href="#DejaVuSans-73" x="419.873047"/>
      </g>
     </g>
    </g>
    <g id="xtick_8">
     <g id="line2d_8">
      <g>
       <use xlink:href="#ma17736627f" x="434.392155" y="441.226046" style="stroke: #000000; stroke-width: 0.8"/>
      </g>
     </g>
     <g id="text_8">
      <!-- 8.3 hours -->
      <g transform="translate(413.173913 504.018892) rotate(-45) scale(0.144 -0.144)">
       <defs>
        <path id="DejaVuSans-38" d="M 2034 2216 
Q 1584 2216 1326 1975 
Q 1069 1734 1069 1313 
Q 1069 891 1326 650 
Q 1584 409 2034 409 
Q 2484 409 2743 651 
Q 3003 894 3003 1313 
Q 3003 1734 2745 1975 
Q 2488 2216 2034 2216 
z
M 1403 2484 
Q 997 2584 770 2862 
Q 544 3141 544 3541 
Q 544 4100 942 4425 
Q 1341 4750 2034 4750 
Q 2731 4750 3128 4425 
Q 3525 4100 3525 3541 
Q 3525 3141 3298 2862 
Q 3072 2584 2669 2484 
Q 3125 2378 3379 2068 
Q 3634 1759 3634 1313 
Q 3634 634 3220 271 
Q 2806 -91 2034 -91 
Q 1263 -91 848 271 
Q 434 634 434 1313 
Q 434 1759 690 2068 
Q 947 2378 1403 2484 
z
M 1172 3481 
Q 1172 3119 1398 2916 
Q 1625 2713 2034 2713 
Q 2441 2713 2670 2916 
Q 2900 3119 2900 3481 
Q 2900 3844 2670 4047 
Q 2441 4250 2034 4250 
Q 1625 4250 1398 4047 
Q 1172 3844 1172 3481 
z
" transform="scale(0.015625)"/>
        <path id="DejaVuSans-33" d="M 2597 2516 
Q 3050 2419 3304 2112 
Q 3559 1806 3559 1356 
Q 3559 666 3084 287 
Q 2609 -91 1734 -91 
Q 1441 -91 1130 -33 
Q 819 25 488 141 
L 488 750 
Q 750 597 1062 519 
Q 1375 441 1716 441 
Q 2309 441 2620 675 
Q 2931 909 2931 1356 
Q 2931 1769 2642 2001 
Q 2353 2234 1838 2234 
L 1294 2234 
L 1294 2753 
L 1863 2753 
Q 2328 2753 2575 2939 
Q 2822 3125 2822 3475 
Q 2822 3834 2567 4026 
Q 2313 4219 1838 4219 
Q 1578 4219 1281 4162 
Q 984 4106 628 3988 
L 628 4550 
Q 988 4650 1302 4700 
Q 1616 4750 1894 4750 
Q 2613 4750 3031 4423 
Q 3450 4097 3450 3541 
Q 3450 3153 3228 2886 
Q 3006 2619 2597 2516 
z
" transform="scale(0.015625)"/>
       </defs>
       <use xlink:href="#DejaVuSans-38"/>
       <use xlink:href="#DejaVuSans-2e" x="63.623047"/>
       <use xlink:href="#DejaVuSans-33" x="95.410156"/>
       <use xlink:href="#DejaVuSans-20" x="159.033203"/>
       <use xlink:href="#DejaVuSans-68" x="190.820312"/>
       <use xlink:href="#DejaVuSans-6f" x="254.199219"/>
       <use xlink:href="#DejaVuSans-75" x="315.380859"/>
       <use xlink:href="#DejaVuSans-72" x="378.759766"/>
       <use xlink:href="#DejaVuSans-73" x="419.873047"/>
      </g>
     </g>
    </g>
    <g id="xtick_9">
     <g id="line2d_9">
      <g>
       <use xlink:href="#ma17736627f" x="482.67007" y="441.226046" style="stroke: #000000; stroke-width: 0.8"/>
      </g>
     </g>
     <g id="text_9">
      <!-- 3.5 days -->
      <g transform="translate(463.747627 499.427294) rotate(-45) scale(0.144 -0.144)">
       <defs>
        <path id="DejaVuSans-64" d="M 2906 2969 
L 2906 4863 
L 3481 4863 
L 3481 0 
L 2906 0 
L 2906 525 
Q 2725 213 2448 61 
Q 2172 -91 1784 -91 
Q 1150 -91 751 415 
Q 353 922 353 1747 
Q 353 2572 751 3078 
Q 1150 3584 1784 3584 
Q 2172 3584 2448 3432 
Q 2725 3281 2906 2969 
z
M 947 1747 
Q 947 1113 1208 752 
Q 1469 391 1925 391 
Q 2381 391 2643 752 
Q 2906 1113 2906 1747 
Q 2906 2381 2643 2742 
Q 2381 3103 1925 3103 
Q 1469 3103 1208 2742 
Q 947 2381 947 1747 
z
" transform="scale(0.015625)"/>
        <path id="DejaVuSans-61" d="M 2194 1759 
Q 1497 1759 1228 1600 
Q 959 1441 959 1056 
Q 959 750 1161 570 
Q 1363 391 1709 391 
Q 2188 391 2477 730 
Q 2766 1069 2766 1631 
L 2766 1759 
L 2194 1759 
z
M 3341 1997 
L 3341 0 
L 2766 0 
L 2766 531 
Q 2569 213 2275 61 
Q 1981 -91 1556 -91 
Q 1019 -91 701 211 
Q 384 513 384 1019 
Q 384 1609 779 1909 
Q 1175 2209 1959 2209 
L 2766 2209 
L 2766 2266 
Q 2766 2663 2505 2880 
Q 2244 3097 1772 3097 
Q 1472 3097 1187 3025 
Q 903 2953 641 2809 
L 641 3341 
Q 956 3463 1253 3523 
Q 1550 3584 1831 3584 
Q 2591 3584 2966 3190 
Q 3341 2797 3341 1997 
z
" transform="scale(0.015625)"/>
        <path id="DejaVuSans-79" d="M 2059 -325 
Q 1816 -950 1584 -1140 
Q 1353 -1331 966 -1331 
L 506 -1331 
L 506 -850 
L 844 -850 
Q 1081 -850 1212 -737 
Q 1344 -625 1503 -206 
L 1606 56 
L 191 3500 
L 800 3500 
L 1894 763 
L 2988 3500 
L 3597 3500 
L 2059 -325 
z
" transform="scale(0.015625)"/>
       </defs>
       <use xlink:href="#DejaVuSans-33"/>
       <use xlink:href="#DejaVuSans-2e" x="63.623047"/>
       <use xlink:href="#DejaVuSans-35" x="95.410156"/>
       <use xlink:href="#DejaVuSans-20" x="159.033203"/>
       <use xlink:href="#DejaVuSans-64" x="190.820312"/>
       <use xlink:href="#DejaVuSans-61" x="254.296875"/>
       <use xlink:href="#DejaVuSans-79" x="315.576172"/>
       <use xlink:href="#DejaVuSans-73" x="374.755859"/>
      </g>
     </g>
    </g>
    <g id="xtick_10">
     <g id="line2d_10">
      <g>
       <use xlink:href="#ma17736627f" x="530.947985" y="441.226046" style="stroke: #000000; stroke-width: 0.8"/>
      </g>
     </g>
     <g id="text_10">
      <!-- 5.0 days -->
      <g transform="translate(512.025542 499.427294) rotate(-45) scale(0.144 -0.144)">
       <use xlink:href="#DejaVuSans-35"/>
       <use xlink:href="#DejaVuSans-2e" x="63.623047"/>
       <use xlink:href="#DejaVuSans-30" x="95.410156"/>
       <use xlink:href="#DejaVuSans-20" x="159.033203"/>
       <use xlink:href="#DejaVuSans-64" x="190.820312"/>
       <use xlink:href="#DejaVuSans-61" x="254.296875"/>
       <use xlink:href="#DejaVuSans-79" x="315.576172"/>
       <use xlink:href="#DejaVuSans-73" x="374.755859"/>
      </g>
     </g>
    </g>
    <g id="xtick_11">
     <g id="line2d_11">
      <g>
       <use xlink:href="#ma17736627f" x="579.2259" y="441.226046" style="stroke: #000000; stroke-width: 0.8"/>
      </g>
     </g>
     <g id="text_11">
      <!-- 6.9 days -->
      <g transform="translate(560.303457 499.427294) rotate(-45) scale(0.144 -0.144)">
       <defs>
        <path id="DejaVuSans-39" d="M 703 97 
L 703 672 
Q 941 559 1184 500 
Q 1428 441 1663 441 
Q 2288 441 2617 861 
Q 2947 1281 2994 2138 
Q 2813 1869 2534 1725 
Q 2256 1581 1919 1581 
Q 1219 1581 811 2004 
Q 403 2428 403 3163 
Q 403 3881 828 4315 
Q 1253 4750 1959 4750 
Q 2769 4750 3195 4129 
Q 3622 3509 3622 2328 
Q 3622 1225 3098 567 
Q 2575 -91 1691 -91 
Q 1453 -91 1209 -44 
Q 966 3 703 97 
z
M 1959 2075 
Q 2384 2075 2632 2365 
Q 2881 2656 2881 3163 
Q 2881 3666 2632 3958 
Q 2384 4250 1959 4250 
Q 1534 4250 1286 3958 
Q 1038 3666 1038 3163 
Q 1038 2656 1286 2365 
Q 1534 2075 1959 2075 
z
" transform="scale(0.015625)"/>
       </defs>
       <use xlink:href="#DejaVuSans-36"/>
       <use xlink:href="#DejaVuSans-2e" x="63.623047"/>
       <use xlink:href="#DejaVuSans-39" x="95.410156"/>
       <use xlink:href="#DejaVuSans-20" x="159.033203"/>
       <use xlink:href="#DejaVuSans-64" x="190.820312"/>
       <use xlink:href="#DejaVuSans-61" x="254.296875"/>
       <use xlink:href="#DejaVuSans-79" x="315.576172"/>
       <use xlink:href="#DejaVuSans-73" x="374.755859"/>
      </g>
     </g>
    </g>
    <g id="xtick_12">
     <g id="line2d_12">
      <g>
       <use xlink:href="#ma17736627f" x="627.503815" y="441.226046" style="stroke: #000000; stroke-width: 0.8"/>
      </g>
     </g>
     <g id="text_12">
      <!-- 11.6 days -->
      <g transform="translate(605.342116 505.905806) rotate(-45) scale(0.144 -0.144)">
       <use xlink:href="#DejaVuSans-31"/>
       <use xlink:href="#DejaVuSans-31" x="63.623047"/>
       <use xlink:href="#DejaVuSans-2e" x="127.246094"/>
       <use xlink:href="#DejaVuSans-36" x="159.033203"/>
       <use xlink:href="#DejaVuSans-20" x="222.65625"/>
       <use xlink:href="#DejaVuSans-64" x="254.443359"/>
       <use xlink:href="#DejaVuSans-61" x="317.919922"/>
       <use xlink:href="#DejaVuSans-79" x="379.199219"/>
       <use xlink:href="#DejaVuSans-73" x="438.378906"/>
      </g>
     </g>
    </g>
    <g id="xtick_13">
     <g id="line2d_13">
      <g>
       <use xlink:href="#ma17736627f" x="675.78173" y="441.226046" style="stroke: #000000; stroke-width: 0.8"/>
      </g>
     </g>
     <g id="text_13">
      <!-- 34.7 days -->
      <g transform="translate(653.620031 505.905806) rotate(-45) scale(0.144 -0.144)">
       <use xlink:href="#DejaVuSans-33"/>
       <use xlink:href="#DejaVuSans-34" x="63.623047"/>
       <use xlink:href="#DejaVuSans-2e" x="127.246094"/>
       <use xlink:href="#DejaVuSans-37" x="159.033203"/>
       <use xlink:href="#DejaVuSans-20" x="222.65625"/>
       <use xlink:href="#DejaVuSans-64" x="254.443359"/>
       <use xlink:href="#DejaVuSans-61" x="317.919922"/>
       <use xlink:href="#DejaVuSans-79" x="379.199219"/>
       <use xlink:href="#DejaVuSans-73" x="438.378906"/>
      </g>
     </g>
    </g>
    <g id="text_14">
     <!-- Expected Report Frequency -->
     <g transform="translate(267.033439 525.153514) scale(0.1728 -0.1728)">
      <defs>
       <path id="DejaVuSans-45" d="M 628 4666 
L 3578 4666 
L 3578 4134 
L 1259 4134 
L 1259 2753 
L 3481 2753 
L 3481 2222 
L 1259 2222 
L 1259 531 
L 3634 531 
L 3634 0 
L 628 0 
L 628 4666 
z
" transform="scale(0.015625)"/>
       <path id="DejaVuSans-78" d="M 3513 3500 
L 2247 1797 
L 3578 0 
L 2900 0 
L 1881 1375 
L 863 0 
L 184 0 
L 1544 1831 
L 300 3500 
L 978 3500 
L 1906 2253 
L 2834 3500 
L 3513 3500 
z
" transform="scale(0.015625)"/>
       <path id="DejaVuSans-70" d="M 1159 525 
L 1159 -1331 
L 581 -1331 
L 581 3500 
L 1159 3500 
L 1159 2969 
Q 1341 3281 1617 3432 
Q 1894 3584 2278 3584 
Q 2916 3584 3314 3078 
Q 3713 2572 3713 1747 
Q 3713 922 3314 415 
Q 2916 -91 2278 -91 
Q 1894 -91 1617 61 
Q 1341 213 1159 525 
z
M 3116 1747 
Q 3116 2381 2855 2742 
Q 2594 3103 2138 3103 
Q 1681 3103 1420 2742 
Q 1159 2381 1159 1747 
Q 1159 1113 1420 752 
Q 1681 391 2138 391 
Q 2594 391 2855 752 
Q 3116 1113 3116 1747 
z
" transform="scale(0.015625)"/>
       <path id="DejaVuSans-65" d="M 3597 1894 
L 3597 1613 
L 953 1613 
Q 991 1019 1311 708 
Q 1631 397 2203 397 
Q 2534 397 2845 478 
Q 3156 559 3463 722 
L 3463 178 
Q 3153 47 2828 -22 
Q 2503 -91 2169 -91 
Q 1331 -91 842 396 
Q 353 884 353 1716 
Q 353 2575 817 3079 
Q 1281 3584 2069 3584 
Q 2775 3584 3186 3129 
Q 3597 2675 3597 1894 
z
M 3022 2063 
Q 3016 2534 2758 2815 
Q 2500 3097 2075 3097 
Q 1594 3097 1305 2825 
Q 1016 2553 972 2059 
L 3022 2063 
z
" transform="scale(0.015625)"/>
       <path id="DejaVuSans-63" d="M 3122 3366 
L 3122 2828 
Q 2878 2963 2633 3030 
Q 2388 3097 2138 3097 
Q 1578 3097 1268 2742 
Q 959 2388 959 1747 
Q 959 1106 1268 751 
Q 1578 397 2138 397 
Q 2388 397 2633 464 
Q 2878 531 3122 666 
L 3122 134 
Q 2881 22 2623 -34 
Q 2366 -91 2075 -91 
Q 1284 -91 818 406 
Q 353 903 353 1747 
Q 353 2603 823 3093 
Q 1294 3584 2113 3584 
Q 2378 3584 2631 3529 
Q 2884 3475 3122 3366 
z
" transform="scale(0.015625)"/>
       <path id="DejaVuSans-74" d="M 1172 4494 
L 1172 3500 
L 2356 3500 
L 2356 3053 
L 1172 3053 
L 1172 1153 
Q 1172 725 1289 603 
Q 1406 481 1766 481 
L 2356 481 
L 2356 0 
L 1766 0 
Q 1100 0 847 248 
Q 594 497 594 1153 
L 594 3053 
L 172 3053 
L 172 3500 
L 594 3500 
L 594 4494 
L 1172 4494 
z
" transform="scale(0.015625)"/>
       <path id="DejaVuSans-52" d="M 2841 2188 
Q 3044 2119 3236 1894 
Q 3428 1669 3622 1275 
L 4263 0 
L 3584 0 
L 2988 1197 
Q 2756 1666 2539 1819 
Q 2322 1972 1947 1972 
L 1259 1972 
L 1259 0 
L 628 0 
L 628 4666 
L 2053 4666 
Q 2853 4666 3247 4331 
Q 3641 3997 3641 3322 
Q 3641 2881 3436 2590 
Q 3231 2300 2841 2188 
z
M 1259 4147 
L 1259 2491 
L 2053 2491 
Q 2509 2491 2742 2702 
Q 2975 2913 2975 3322 
Q 2975 3731 2742 3939 
Q 2509 4147 2053 4147 
L 1259 4147 
z
" transform="scale(0.015625)"/>
       <path id="DejaVuSans-46" d="M 628 4666 
L 3309 4666 
L 3309 4134 
L 1259 4134 
L 1259 2759 
L 3109 2759 
L 3109 2228 
L 1259 2228 
L 1259 0 
L 628 0 
L 628 4666 
z
" transform="scale(0.015625)"/>
       <path id="DejaVuSans-71" d="M 947 1747 
Q 947 1113 1208 752 
Q 1469 391 1925 391 
Q 2381 391 2643 752 
Q 2906 1113 2906 1747 
Q 2906 2381 2643 2742 
Q 2381 3103 1925 3103 
Q 1469 3103 1208 2742 
Q 947 2381 947 1747 
z
M 2906 525 
Q 2725 213 2448 61 
Q 2172 -91 1784 -91 
Q 1150 -91 751 415 
Q 353 922 353 1747 
Q 353 2572 751 3078 
Q 1150 3584 1784 3584 
Q 2172 3584 2448 3432 
Q 2725 3281 2906 2969 
L 2906 3500 
L 3481 3500 
L 3481 -1331 
L 2906 -1331 
L 2906 525 
z
" transform="scale(0.015625)"/>
      </defs>
      <use xlink:href="#DejaVuSans-45"/>
      <use xlink:href="#DejaVuSans-78" x="63.183594"/>
      <use xlink:href="#DejaVuSans-70" x="122.363281"/>
      <use xlink:href="#DejaVuSans-65" x="185.839844"/>
      <use xlink:href="#DejaVuSans-63" x="247.363281"/>
      <use xlink:href="#DejaVuSans-74" x="302.34375"/>
      <use xlink:href="#DejaVuSans-65" x="341.552734"/>
      <use xlink:href="#DejaVuSans-64" x="403.076172"/>
      <use xlink:href="#DejaVuSans-20" x="466.552734"/>
      <use xlink:href="#DejaVuSans-52" x="498.339844"/>
      <use xlink:href="#DejaVuSans-65" x="563.322266"/>
      <use xlink:href="#DejaVuSans-70" x="624.845703"/>
      <use xlink:href="#DejaVuSans-6f" x="688.322266"/>
      <use xlink:href="#DejaVuSans-72" x="749.503906"/>
      <use xlink:href="#DejaVuSans-74" x="790.617188"/>
      <use xlink:href="#DejaVuSans-20" x="829.826172"/>
      <use xlink:href="#DejaVuSans-46" x="861.613281"/>
      <use xlink:href="#DejaVuSans-72" x="911.882812"/>
      <use xlink:href="#DejaVuSans-65" x="950.746094"/>
      <use xlink:href="#DejaVuSans-71" x="1012.269531"/>
      <use xlink:href="#DejaVuSans-75" x="1075.746094"/>
      <use xlink:href="#DejaVuSans-65" x="1139.125"/>
      <use xlink:href="#DejaVuSans-6e" x="1200.648438"/>
      <use xlink:href="#DejaVuSans-63" x="1264.027344"/>
      <use xlink:href="#DejaVuSans-79" x="1319.007812"/>
     </g>
    </g>
   </g>
   <g id="matplotlib.axis_2">
    <g id="ytick_1">
     <g id="line2d_14">
      <defs>
       <path id="m6d61eabc0b" d="M 0 0 
L -3.5 0 
" style="stroke: #000000; stroke-width: 0.8"/>
      </defs>
      <g>
       <use xlink:href="#m6d61eabc0b" x="67.48" y="441.226046" style="stroke: #000000; stroke-width: 0.8"/>
      </g>
     </g>
     <g id="text_15">
      <!-- 0% -->
      <g transform="translate(33.0669 447.791096) scale(0.1728 -0.1728)">
       <defs>
        <path id="DejaVuSans-25" d="M 4653 2053 
Q 4381 2053 4226 1822 
Q 4072 1591 4072 1178 
Q 4072 772 4226 539 
Q 4381 306 4653 306 
Q 4919 306 5073 539 
Q 5228 772 5228 1178 
Q 5228 1588 5073 1820 
Q 4919 2053 4653 2053 
z
M 4653 2450 
Q 5147 2450 5437 2106 
Q 5728 1763 5728 1178 
Q 5728 594 5436 251 
Q 5144 -91 4653 -91 
Q 4153 -91 3862 251 
Q 3572 594 3572 1178 
Q 3572 1766 3864 2108 
Q 4156 2450 4653 2450 
z
M 1428 4353 
Q 1159 4353 1004 4120 
Q 850 3888 850 3481 
Q 850 3069 1003 2837 
Q 1156 2606 1428 2606 
Q 1700 2606 1854 2837 
Q 2009 3069 2009 3481 
Q 2009 3884 1853 4118 
Q 1697 4353 1428 4353 
z
M 4250 4750 
L 4750 4750 
L 1831 -91 
L 1331 -91 
L 4250 4750 
z
M 1428 4750 
Q 1922 4750 2215 4408 
Q 2509 4066 2509 3481 
Q 2509 2891 2217 2550 
Q 1925 2209 1428 2209 
Q 931 2209 642 2551 
Q 353 2894 353 3481 
Q 353 4063 643 4406 
Q 934 4750 1428 4750 
z
" transform="scale(0.015625)"/>
       </defs>
       <use xlink:href="#DejaVuSans-30"/>
       <use xlink:href="#DejaVuSans-25" x="63.623047"/>
      </g>
     </g>
    </g>
    <g id="ytick_2">
     <g id="line2d_15">
      <g>
       <use xlink:href="#m6d61eabc0b" x="67.48" y="357.902461" style="stroke: #000000; stroke-width: 0.8"/>
      </g>
     </g>
     <g id="text_16">
      <!-- 20% -->
      <g transform="translate(22.0725 364.467511) scale(0.1728 -0.1728)">
       <use xlink:href="#DejaVuSans-32"/>
       <use xlink:href="#DejaVuSans-30" x="63.623047"/>
       <use xlink:href="#DejaVuSans-25" x="127.246094"/>
      </g>
     </g>
    </g>
    <g id="ytick_3">
     <g id="line2d_16">
      <g>
       <use xlink:href="#m6d61eabc0b" x="67.48" y="274.578876" style="stroke: #000000; stroke-width: 0.8"/>
      </g>
     </g>
     <g id="text_17">
      <!-- 40% -->
      <g transform="translate(22.0725 281.143926) scale(0.1728 -0.1728)">
       <use xlink:href="#DejaVuSans-34"/>
       <use xlink:href="#DejaVuSans-30" x="63.623047"/>
       <use xlink:href="#DejaVuSans-25" x="127.246094"/>
      </g>
     </g>
    </g>
    <g id="ytick_4">
     <g id="line2d_17">
      <g>
       <use xlink:href="#m6d61eabc0b" x="67.48" y="191.255291" style="stroke: #000000; stroke-width: 0.8"/>
      </g>
     </g>
     <g id="text_18">
      <!-- 60% -->
      <g transform="translate(22.0725 197.820341) scale(0.1728 -0.1728)">
       <use xlink:href="#DejaVuSans-36"/>
       <use xlink:href="#DejaVuSans-30" x="63.623047"/>
       <use xlink:href="#DejaVuSans-25" x="127.246094"/>
      </g>
     </g>
    </g>
    <g id="ytick_5">
     <g id="line2d_18">
      <g>
       <use xlink:href="#m6d61eabc0b" x="67.48" y="107.931707" style="stroke: #000000; stroke-width: 0.8"/>
      </g>
     </g>
     <g id="text_19">
      <!-- 80% -->
      <g transform="translate(22.0725 114.496757) scale(0.1728 -0.1728)">
       <use xlink:href="#DejaVuSans-38"/>
       <use xlink:href="#DejaVuSans-30" x="63.623047"/>
       <use xlink:href="#DejaVuSans-25" x="127.246094"/>
      </g>
     </g>
    </g>
    <g id="ytick_6">
     <g id="line2d_19">
      <g>
       <use xlink:href="#m6d61eabc0b" x="67.48" y="24.608122" style="stroke: #000000; stroke-width: 0.8"/>
      </g>
     </g>
     <g id="text_20">
      <!-- 100% -->
      <g transform="translate(11.0781 31.173172) scale(0.1728 -0.1728)">
       <use xlink:href="#DejaVuSans-31"/>
       <use xlink:href="#DejaVuSans-30" x="63.623047"/>
       <use xlink:href="#DejaVuSans-30" x="127.246094"/>
       <use xlink:href="#DejaVuSans-25" x="190.869141"/>
      </g>
     </g>
    </g>
    <g id="text_21">
     <!-- Cost -->
     <g transform="translate(111.8703 164.369863) scale(0.1728 -0.1728)">
      <defs>
       <path id="DejaVuSans-43" d="M 4122 4306 
L 4122 3641 
Q 3803 3938 3442 4084 
Q 3081 4231 2675 4231 
Q 1875 4231 1450 3742 
Q 1025 3253 1025 2328 
Q 1025 1406 1450 917 
Q 1875 428 2675 428 
Q 3081 428 3442 575 
Q 3803 722 4122 1019 
L 4122 359 
Q 3791 134 3420 21 
Q 3050 -91 2638 -91 
Q 1578 -91 968 557 
Q 359 1206 359 2328 
Q 359 3453 968 4101 
Q 1578 4750 2638 4750 
Q 3056 4750 3426 4639 
Q 3797 4528 4122 4306 
z
" transform="scale(0.015625)"/>
      </defs>
      <use xlink:href="#DejaVuSans-43"/>
      <use xlink:href="#DejaVuSans-6f" x="69.824219"/>
      <use xlink:href="#DejaVuSans-73" x="131.005859"/>
      <use xlink:href="#DejaVuSans-74" x="183.105469"/>
     </g>
     <!-- Reduction -->
     <g transform="translate(87.8862 183.719683) scale(0.1728 -0.1728)">
      <use xlink:href="#DejaVuSans-52"/>
      <use xlink:href="#DejaVuSans-65" x="64.982422"/>
      <use xlink:href="#DejaVuSans-64" x="126.505859"/>
      <use xlink:href="#DejaVuSans-75" x="189.982422"/>
      <use xlink:href="#DejaVuSans-63" x="253.361328"/>
      <use xlink:href="#DejaVuSans-74" x="308.341797"/>
      <use xlink:href="#DejaVuSans-69" x="347.550781"/>
      <use xlink:href="#DejaVuSans-6f" x="375.333984"/>
      <use xlink:href="#DejaVuSans-6e" x="436.515625"/>
     </g>
     <!-- from -->
     <g transform="translate(110.9766 203.069503) scale(0.1728 -0.1728)">
      <defs>
       <path id="DejaVuSans-66" d="M 2375 4863 
L 2375 4384 
L 1825 4384 
Q 1516 4384 1395 4259 
Q 1275 4134 1275 3809 
L 1275 3500 
L 2222 3500 
L 2222 3053 
L 1275 3053 
L 1275 0 
L 697 0 
L 697 3053 
L 147 3053 
L 147 3500 
L 697 3500 
L 697 3744 
Q 697 4328 969 4595 
Q 1241 4863 1831 4863 
L 2375 4863 
z
" transform="scale(0.015625)"/>
      </defs>
      <use xlink:href="#DejaVuSans-66"/>
      <use xlink:href="#DejaVuSans-72" x="35.205078"/>
      <use xlink:href="#DejaVuSans-6f" x="74.068359"/>
      <use xlink:href="#DejaVuSans-6d" x="135.25"/>
     </g>
     <!-- Uncontrolled -->
     <g transform="translate(76.1331 222.419323) scale(0.1728 -0.1728)">
      <defs>
       <path id="DejaVuSans-55" d="M 556 4666 
L 1191 4666 
L 1191 1831 
Q 1191 1081 1462 751 
Q 1734 422 2344 422 
Q 2950 422 3222 751 
Q 3494 1081 3494 1831 
L 3494 4666 
L 4128 4666 
L 4128 1753 
Q 4128 841 3676 375 
Q 3225 -91 2344 -91 
Q 1459 -91 1007 375 
Q 556 841 556 1753 
L 556 4666 
z
" transform="scale(0.015625)"/>
       <path id="DejaVuSans-6c" d="M 603 4863 
L 1178 4863 
L 1178 0 
L 603 0 
L 603 4863 
z
" transform="scale(0.015625)"/>
      </defs>
      <use xlink:href="#DejaVuSans-55"/>
      <use xlink:href="#DejaVuSans-6e" x="73.193359"/>
      <use xlink:href="#DejaVuSans-63" x="136.572266"/>
      <use xlink:href="#DejaVuSans-6f" x="191.552734"/>
      <use xlink:href="#DejaVuSans-6e" x="252.734375"/>
      <use xlink:href="#DejaVuSans-74" x="316.113281"/>
      <use xlink:href="#DejaVuSans-72" x="355.322266"/>
      <use xlink:href="#DejaVuSans-6f" x="394.185547"/>
      <use xlink:href="#DejaVuSans-6c" x="455.367188"/>
      <use xlink:href="#DejaVuSans-6c" x="483.150391"/>
      <use xlink:href="#DejaVuSans-65" x="510.933594"/>
      <use xlink:href="#DejaVuSans-64" x="572.457031"/>
     </g>
    </g>
   </g>
   <g id="line2d_20">
    <path d="M 96.446749 28.184362 
L 144.724664 28.183147 
L 193.002579 28.182236 
L 241.280494 28.178084 
L 289.558409 28.176818 
L 337.836324 28.16011 
L 386.114239 28.131707 
L 434.392155 28.071356 
L 482.67007 28.163098 
L 530.947985 28.531126 
L 579.2259 43.197888 
L 627.503815 87.622045 
L 675.78173 373.498483 
" clip-path="url(#pbc59aa79c0)" style="fill: none; stroke-dasharray: 25.9,11.2; stroke-dashoffset: 0; stroke: #0000ff; stroke-width: 7"/>
    <defs>
     <path id="mc2a797c501" d="M 0 10.5 
C 2.784633 10.5 5.455589 9.393654 7.424621 7.424621 
C 9.393654 5.455589 10.5 2.784633 10.5 0 
C 10.5 -2.784633 9.393654 -5.455589 7.424621 -7.424621 
C 5.455589 -9.393654 2.784633 -10.5 0 -10.5 
C -2.784633 -10.5 -5.455589 -9.393654 -7.424621 -7.424621 
C -9.393654 -5.455589 -10.5 -2.784633 -10.5 0 
C -10.5 2.784633 -9.393654 5.455589 -7.424621 7.424621 
C -5.455589 9.393654 -2.784633 10.5 0 10.5 
z
" style="stroke: #0000ff"/>
    </defs>
    <g clip-path="url(#pbc59aa79c0)">
     <use xlink:href="#mc2a797c501" x="96.446749" y="28.184362" style="fill: #0000ff; stroke: #0000ff"/>
     <use xlink:href="#mc2a797c501" x="144.724664" y="28.183147" style="fill: #0000ff; stroke: #0000ff"/>
     <use xlink:href="#mc2a797c501" x="193.002579" y="28.182236" style="fill: #0000ff; stroke: #0000ff"/>
     <use xlink:href="#mc2a797c501" x="241.280494" y="28.178084" style="fill: #0000ff; stroke: #0000ff"/>
     <use xlink:href="#mc2a797c501" x="289.558409" y="28.176818" style="fill: #0000ff; stroke: #0000ff"/>
     <use xlink:href="#mc2a797c501" x="337.836324" y="28.16011" style="fill: #0000ff; stroke: #0000ff"/>
     <use xlink:href="#mc2a797c501" x="386.114239" y="28.131707" style="fill: #0000ff; stroke: #0000ff"/>
     <use xlink:href="#mc2a797c501" x="434.392155" y="28.071356" style="fill: #0000ff; stroke: #0000ff"/>
     <use xlink:href="#mc2a797c501" x="482.67007" y="28.163098" style="fill: #0000ff; stroke: #0000ff"/>
     <use xlink:href="#mc2a797c501" x="530.947985" y="28.531126" style="fill: #0000ff; stroke: #0000ff"/>
     <use xlink:href="#mc2a797c501" x="579.2259" y="43.197888" style="fill: #0000ff; stroke: #0000ff"/>
     <use xlink:href="#mc2a797c501" x="627.503815" y="87.622045" style="fill: #0000ff; stroke: #0000ff"/>
     <use xlink:href="#mc2a797c501" x="675.78173" y="373.498483" style="fill: #0000ff; stroke: #0000ff"/>
    </g>
   </g>
   <g id="line2d_21">
    <path d="M 96.446749 74.57068 
L 144.724664 74.566123 
L 193.002579 74.559035 
L 241.280494 74.536252 
L 289.558409 74.490178 
L 337.836324 74.402082 
L 386.114239 74.094253 
L 434.392155 73.959071 
L 482.67007 73.986918 
L 530.947985 87.611919 
L 579.2259 136.748197 
L 627.503815 102.461657 
L 675.78173 339.449902 
" clip-path="url(#pbc59aa79c0)" style="fill: none; stroke-dasharray: 7,11.55; stroke-dashoffset: 0; stroke: #ff0000; stroke-width: 7"/>
    <defs>
     <path id="m50cdf6e47a" d="M 0 10.5 
C 2.784633 10.5 5.455589 9.393654 7.424621 7.424621 
C 9.393654 5.455589 10.5 2.784633 10.5 0 
C 10.5 -2.784633 9.393654 -5.455589 7.424621 -7.424621 
C 5.455589 -9.393654 2.784633 -10.5 0 -10.5 
C -2.784633 -10.5 -5.455589 -9.393654 -7.424621 -7.424621 
C -9.393654 -5.455589 -10.5 -2.784633 -10.5 0 
C -10.5 2.784633 -9.393654 5.455589 -7.424621 7.424621 
C -5.455589 9.393654 -2.784633 10.5 0 10.5 
z
" style="stroke: #ff0000"/>
    </defs>
    <g clip-path="url(#pbc59aa79c0)">
     <use xlink:href="#m50cdf6e47a" x="96.446749" y="74.57068" style="fill: #ff0000; stroke: #ff0000"/>
     <use xlink:href="#m50cdf6e47a" x="144.724664" y="74.566123" style="fill: #ff0000; stroke: #ff0000"/>
     <use xlink:href="#m50cdf6e47a" x="193.002579" y="74.559035" style="fill: #ff0000; stroke: #ff0000"/>
     <use xlink:href="#m50cdf6e47a" x="241.280494" y="74.536252" style="fill: #ff0000; stroke: #ff0000"/>
     <use xlink:href="#m50cdf6e47a" x="289.558409" y="74.490178" style="fill: #ff0000; stroke: #ff0000"/>
     <use xlink:href="#m50cdf6e47a" x="337.836324" y="74.402082" style="fill: #ff0000; stroke: #ff0000"/>
     <use xlink:href="#m50cdf6e47a" x="386.114239" y="74.094253" style="fill: #ff0000; stroke: #ff0000"/>
     <use xlink:href="#m50cdf6e47a" x="434.392155" y="73.959071" style="fill: #ff0000; stroke: #ff0000"/>
     <use xlink:href="#m50cdf6e47a" x="482.67007" y="73.986918" style="fill: #ff0000; stroke: #ff0000"/>
     <use xlink:href="#m50cdf6e47a" x="530.947985" y="87.611919" style="fill: #ff0000; stroke: #ff0000"/>
     <use xlink:href="#m50cdf6e47a" x="579.2259" y="136.748197" style="fill: #ff0000; stroke: #ff0000"/>
     <use xlink:href="#m50cdf6e47a" x="627.503815" y="102.461657" style="fill: #ff0000; stroke: #ff0000"/>
     <use xlink:href="#m50cdf6e47a" x="675.78173" y="339.449902" style="fill: #ff0000; stroke: #ff0000"/>
    </g>
   </g>
   <g id="line2d_22">
    <path d="M 96.446749 28.184362 
L 144.724664 68.364978 
L 193.002579 92.862235 
L 241.280494 107.230989 
L 289.558409 124.419827 
L 337.836324 140.054327 
L 386.114239 152.580154 
L 434.392155 152.818115 
L 482.67007 158.331707 
L 530.947985 162.194765 
L 579.2259 157.764652 
L 627.503815 157.911479 
L 675.78173 198.784964 
" clip-path="url(#pbc59aa79c0)" style="fill: none; stroke-dasharray: 44.8,11.2,7,11.2; stroke-dashoffset: 0; stroke: #008000; stroke-width: 7"/>
    <defs>
     <path id="m07058b0256" d="M 0 10.5 
C 2.784633 10.5 5.455589 9.393654 7.424621 7.424621 
C 9.393654 5.455589 10.5 2.784633 10.5 0 
C 10.5 -2.784633 9.393654 -5.455589 7.424621 -7.424621 
C 5.455589 -9.393654 2.784633 -10.5 0 -10.5 
C -2.784633 -10.5 -5.455589 -9.393654 -7.424621 -7.424621 
C -9.393654 -5.455589 -10.5 -2.784633 -10.5 0 
C -10.5 2.784633 -9.393654 5.455589 -7.424621 7.424621 
C -5.455589 9.393654 -2.784633 10.5 0 10.5 
z
" style="stroke: #008000"/>
    </defs>
    <g clip-path="url(#pbc59aa79c0)">
     <use xlink:href="#m07058b0256" x="96.446749" y="28.184362" style="fill: #008000; stroke: #008000"/>
     <use xlink:href="#m07058b0256" x="144.724664" y="68.364978" style="fill: #008000; stroke: #008000"/>
     <use xlink:href="#m07058b0256" x="193.002579" y="92.862235" style="fill: #008000; stroke: #008000"/>
     <use xlink:href="#m07058b0256" x="241.280494" y="107.230989" style="fill: #008000; stroke: #008000"/>
     <use xlink:href="#m07058b0256" x="289.558409" y="124.419827" style="fill: #008000; stroke: #008000"/>
     <use xlink:href="#m07058b0256" x="337.836324" y="140.054327" style="fill: #008000; stroke: #008000"/>
     <use xlink:href="#m07058b0256" x="386.114239" y="152.580154" style="fill: #008000; stroke: #008000"/>
     <use xlink:href="#m07058b0256" x="434.392155" y="152.818115" style="fill: #008000; stroke: #008000"/>
     <use xlink:href="#m07058b0256" x="482.67007" y="158.331707" style="fill: #008000; stroke: #008000"/>
     <use xlink:href="#m07058b0256" x="530.947985" y="162.194765" style="fill: #008000; stroke: #008000"/>
     <use xlink:href="#m07058b0256" x="579.2259" y="157.764652" style="fill: #008000; stroke: #008000"/>
     <use xlink:href="#m07058b0256" x="627.503815" y="157.911479" style="fill: #008000; stroke: #008000"/>
     <use xlink:href="#m07058b0256" x="675.78173" y="198.784964" style="fill: #008000; stroke: #008000"/>
    </g>
   </g>
   <g id="line2d_23">
    <path d="M 67.48 28.184362 
L 704.748479 28.184362 
" clip-path="url(#pbc59aa79c0)" style="fill: none; stroke: #000000; stroke-width: 7; stroke-linecap: square"/>
   </g>
   <g id="line2d_24">
    <path d="M 530.947985 441.226046 
L 530.947985 10.8 
" clip-path="url(#pbc59aa79c0)" style="fill: none; stroke-dasharray: 7,11.55; stroke-dashoffset: 0; stroke: #000000; stroke-width: 7"/>
   </g>
   <g id="patch_3">
    <path d="M 67.48 441.226046 
L 67.48 10.8 
" style="fill: none; stroke: #000000; stroke-width: 0.8; stroke-linejoin: miter; stroke-linecap: square"/>
   </g>
   <g id="patch_4">
    <path d="M 704.748479 441.226046 
L 704.748479 10.8 
" style="fill: none; stroke: #000000; stroke-width: 0.8; stroke-linejoin: miter; stroke-linecap: square"/>
   </g>
   <g id="patch_5">
    <path d="M 67.48 441.226046 
L 704.748479 441.226046 
" style="fill: none; stroke: #000000; stroke-width: 0.8; stroke-linejoin: miter; stroke-linecap: square"/>
   </g>
   <g id="patch_6">
    <path d="M 67.48 10.8 
L 704.748479 10.8 
" style="fill: none; stroke: #000000; stroke-width: 0.8; stroke-linejoin: miter; stroke-linecap: square"/>
   </g>
   <g id="legend_1">
    <g id="patch_7">
     <path d="M 79.576 432.586046 
L 242.8126 432.586046 
Q 246.2686 432.586046 246.2686 429.130046 
L 246.2686 329.402846 
Q 246.2686 325.946846 242.8126 325.946846 
L 79.576 325.946846 
Q 76.12 325.946846 76.12 329.402846 
L 76.12 429.130046 
Q 76.12 432.586046 79.576 432.586046 
z
" style="fill: #ffffff; opacity: 0.8; stroke: #cccccc; stroke-linejoin: miter"/>
    </g>
    <g id="line2d_25">
     <path d="M 83.032 339.940946 
L 100.312 339.940946 
L 117.592 339.940946 
" style="fill: none; stroke-dasharray: 25.9,11.2; stroke-dashoffset: 0; stroke: #0000ff; stroke-width: 7"/>
     <g>
      <use xlink:href="#mc2a797c501" x="100.312" y="339.940946" style="fill: #0000ff; stroke: #0000ff"/>
     </g>
    </g>
    <g id="text_22">
     <!-- new method -->
     <g transform="translate(131.416 345.988946) scale(0.1728 -0.1728)">
      <defs>
       <path id="DejaVuSans-77" d="M 269 3500 
L 844 3500 
L 1563 769 
L 2278 3500 
L 2956 3500 
L 3675 769 
L 4391 3500 
L 4966 3500 
L 4050 0 
L 3372 0 
L 2619 2869 
L 1863 0 
L 1184 0 
L 269 3500 
z
" transform="scale(0.015625)"/>
      </defs>
      <use xlink:href="#DejaVuSans-6e"/>
      <use xlink:href="#DejaVuSans-65" x="63.378906"/>
      <use xlink:href="#DejaVuSans-77" x="124.902344"/>
      <use xlink:href="#DejaVuSans-20" x="206.689453"/>
      <use xlink:href="#DejaVuSans-6d" x="238.476562"/>
      <use xlink:href="#DejaVuSans-65" x="335.888672"/>
      <use xlink:href="#DejaVuSans-74" x="397.412109"/>
      <use xlink:href="#DejaVuSans-68" x="436.621094"/>
      <use xlink:href="#DejaVuSans-6f" x="500"/>
      <use xlink:href="#DejaVuSans-64" x="561.181641"/>
     </g>
    </g>
    <g id="line2d_26">
     <path d="M 83.032 365.304746 
L 100.312 365.304746 
L 117.592 365.304746 
" style="fill: none; stroke-dasharray: 7,11.55; stroke-dashoffset: 0; stroke: #ff0000; stroke-width: 7"/>
     <g>
      <use xlink:href="#m50cdf6e47a" x="100.312" y="365.304746" style="fill: #ff0000; stroke: #ff0000"/>
     </g>
    </g>
    <g id="text_23">
     <!-- low fidelity -->
     <g transform="translate(131.416 371.352746) scale(0.1728 -0.1728)">
      <use xlink:href="#DejaVuSans-6c"/>
      <use xlink:href="#DejaVuSans-6f" x="27.783203"/>
      <use xlink:href="#DejaVuSans-77" x="88.964844"/>
      <use xlink:href="#DejaVuSans-20" x="170.751953"/>
      <use xlink:href="#DejaVuSans-66" x="202.539062"/>
      <use xlink:href="#DejaVuSans-69" x="237.744141"/>
      <use xlink:href="#DejaVuSans-64" x="265.527344"/>
      <use xlink:href="#DejaVuSans-65" x="329.003906"/>
      <use xlink:href="#DejaVuSans-6c" x="390.527344"/>
      <use xlink:href="#DejaVuSans-69" x="418.310547"/>
      <use xlink:href="#DejaVuSans-74" x="446.09375"/>
      <use xlink:href="#DejaVuSans-79" x="485.302734"/>
     </g>
    </g>
    <g id="line2d_27">
     <path d="M 83.032 390.668546 
L 100.312 390.668546 
L 117.592 390.668546 
" style="fill: none; stroke-dasharray: 44.8,11.2,7,11.2; stroke-dashoffset: 0; stroke: #008000; stroke-width: 7"/>
     <g>
      <use xlink:href="#m07058b0256" x="100.312" y="390.668546" style="fill: #008000; stroke: #008000"/>
     </g>
    </g>
    <g id="text_24">
     <!-- local -->
     <g transform="translate(131.416 396.716546) scale(0.1728 -0.1728)">
      <use xlink:href="#DejaVuSans-6c"/>
      <use xlink:href="#DejaVuSans-6f" x="27.783203"/>
      <use xlink:href="#DejaVuSans-63" x="88.964844"/>
      <use xlink:href="#DejaVuSans-61" x="143.945312"/>
      <use xlink:href="#DejaVuSans-6c" x="205.224609"/>
     </g>
    </g>
    <g id="line2d_28">
     <path d="M 83.032 416.032346 
L 100.312 416.032346 
L 117.592 416.032346 
" style="fill: none; stroke: #000000; stroke-width: 7; stroke-linecap: square"/>
    </g>
    <g id="text_25">
     <!-- centralized -->
     <g transform="translate(131.416 422.080346) scale(0.1728 -0.1728)">
      <defs>
       <path id="DejaVuSans-7a" d="M 353 3500 
L 3084 3500 
L 3084 2975 
L 922 459 
L 3084 459 
L 3084 0 
L 275 0 
L 275 525 
L 2438 3041 
L 353 3041 
L 353 3500 
z
" transform="scale(0.015625)"/>
      </defs>
      <use xlink:href="#DejaVuSans-63"/>
      <use xlink:href="#DejaVuSans-65" x="54.980469"/>
      <use xlink:href="#DejaVuSans-6e" x="116.503906"/>
      <use xlink:href="#DejaVuSans-74" x="179.882812"/>
      <use xlink:href="#DejaVuSans-72" x="219.091797"/>
      <use xlink:href="#DejaVuSans-61" x="260.205078"/>
      <use xlink:href="#DejaVuSans-6c" x="321.484375"/>
      <use xlink:href="#DejaVuSans-69" x="349.267578"/>
      <use xlink:href="#DejaVuSans-7a" x="377.050781"/>
      <use xlink:href="#DejaVuSans-65" x="429.541016"/>
      <use xlink:href="#DejaVuSans-64" x="491.064453"/>
     </g>
    </g>
   </g>
  </g>
 </g>
 <defs>
  <clipPath id="pbc59aa79c0">
   <rect x="67.48" y="10.8" width="637.268479" height="430.426046"/>
  </clipPath>
 </defs>
</svg>
