<?xml version="1.0" encoding="utf-8" standalone="no"?>
<!DOCTYPE svg PUBLIC "-//W3C//DTD SVG 1.1//EN"
  "http://www.w3.org/Graphics/SVG/1.1/DTD/svg11.dtd">
<svg xmlns:xlink="http://www.w3.org/1999/xlink" width="864pt" height="648pt" viewBox="0 0 864 648" xmlns="http://www.w3.org/2000/svg" version="1.1">
 <metadata>
  <rdf:RDF xmlns:dc="http://purl.org/dc/elements/1.1/" xmlns:cc="http://creativecommons.org/ns#" xmlns:rdf="http://www.w3.org/1999/02/22-rdf-syntax-ns#">
   <cc:Work>
    <dc:type rdf:resource="http://purl.org/dc/dcmitype/StillImage"/>
    <dc:date>2024-10-31T15:50:51.255402</dc:date>
    <dc:format>image/svg+xml</dc:format>
    <dc:creator>
     <cc:Agent>
      <dc:title>Matplotlib v3.9.2, https://matplotlib.org/</dc:title>
     </cc:Agent>
    </dc:creator>
   </cc:Work>
  </rdf:RDF>
 </metadata>
 <defs>
  <style type="text/css">*{stroke-linejoin: round; stroke-linecap: butt}</style>
 </defs>
 <g id="figure_1">
  <g id="patch_1">
   <path d="M 0 648 
L 864 648 
L 864 0 
L 0 0 
z
" style="fill: #ffffff"/>
  </g>
  <g id="axes_1">
   <g id="patch_2">
    <path d="M 145.225 612.92 
L 803.056297 612.92 
L 803.056297 17.64 
L 145.225 17.64 
z
" style="fill: #ffffff"/>
   </g>
   <g id="matplotlib.axis_1">
    <g id="xtick_1">
     <g id="line2d_1">
      <defs>
       <path id="m2dc81d2d20" d="M 0 0 
L 0 3.5 
" style="stroke: #000000; stroke-width: 0.8"/>
      </defs>
      <g>
       <use xlink:href="#m2dc81d2d20" x="205.008974" y="612.92" style="stroke: #000000; stroke-width: 0.8"/>
      </g>
     </g>
     <g id="text_1">
      <!-- 2021-08-31 -->
      <g transform="translate(154.797074 633.0501) scale(0.1728 -0.1728)">
       <defs>
        <path id="DejaVuSans-32" d="M 1228 531 
L 3431 531 
L 3431 0 
L 469 0 
L 469 531 
Q 828 903 1448 1529 
Q 2069 2156 2228 2338 
Q 2531 2678 2651 2914 
Q 2772 3150 2772 3378 
Q 2772 3750 2511 3984 
Q 2250 4219 1831 4219 
Q 1534 4219 1204 4116 
Q 875 4013 500 3803 
L 500 4441 
Q 881 4594 1212 4672 
Q 1544 4750 1819 4750 
Q 2544 4750 2975 4387 
Q 3406 4025 3406 3419 
Q 3406 3131 3298 2873 
Q 3191 2616 2906 2266 
Q 2828 2175 2409 1742 
Q 1991 1309 1228 531 
z
" transform="scale(0.015625)"/>
        <path id="DejaVuSans-30" d="M 2034 4250 
Q 1547 4250 1301 3770 
Q 1056 3291 1056 2328 
Q 1056 1369 1301 889 
Q 1547 409 2034 409 
Q 2525 409 2770 889 
Q 3016 1369 3016 2328 
Q 3016 3291 2770 3770 
Q 2525 4250 2034 4250 
z
M 2034 4750 
Q 2819 4750 3233 4129 
Q 3647 3509 3647 2328 
Q 3647 1150 3233 529 
Q 2819 -91 2034 -91 
Q 1250 -91 836 529 
Q 422 1150 422 2328 
Q 422 3509 836 4129 
Q 1250 4750 2034 4750 
z
" transform="scale(0.015625)"/>
        <path id="DejaVuSans-31" d="M 794 531 
L 1825 531 
L 1825 4091 
L 703 3866 
L 703 4441 
L 1819 4666 
L 2450 4666 
L 2450 531 
L 3481 531 
L 3481 0 
L 794 0 
L 794 531 
z
" transform="scale(0.015625)"/>
        <path id="DejaVuSans-2d" d="M 313 2009 
L 1997 2009 
L 1997 1497 
L 313 1497 
L 313 2009 
z
" transform="scale(0.015625)"/>
        <path id="DejaVuSans-38" d="M 2034 2216 
Q 1584 2216 1326 1975 
Q 1069 1734 1069 1313 
Q 1069 891 1326 650 
Q 1584 409 2034 409 
Q 2484 409 2743 651 
Q 3003 894 3003 1313 
Q 3003 1734 2745 1975 
Q 2488 2216 2034 2216 
z
M 1403 2484 
Q 997 2584 770 2862 
Q 544 3141 544 3541 
Q 544 4100 942 4425 
Q 1341 4750 2034 4750 
Q 2731 4750 3128 4425 
Q 3525 4100 3525 3541 
Q 3525 3141 3298 2862 
Q 3072 2584 2669 2484 
Q 3125 2378 3379 2068 
Q 3634 1759 3634 1313 
Q 3634 634 3220 271 
Q 2806 -91 2034 -91 
Q 1263 -91 848 271 
Q 434 634 434 1313 
Q 434 1759 690 2068 
Q 947 2378 1403 2484 
z
M 1172 3481 
Q 1172 3119 1398 2916 
Q 1625 2713 2034 2713 
Q 2441 2713 2670 2916 
Q 2900 3119 2900 3481 
Q 2900 3844 2670 4047 
Q 2441 4250 2034 4250 
Q 1625 4250 1398 4047 
Q 1172 3844 1172 3481 
z
" transform="scale(0.015625)"/>
        <path id="DejaVuSans-33" d="M 2597 2516 
Q 3050 2419 3304 2112 
Q 3559 1806 3559 1356 
Q 3559 666 3084 287 
Q 2609 -91 1734 -91 
Q 1441 -91 1130 -33 
Q 819 25 488 141 
L 488 750 
Q 750 597 1062 519 
Q 1375 441 1716 441 
Q 2309 441 2620 675 
Q 2931 909 2931 1356 
Q 2931 1769 2642 2001 
Q 2353 2234 1838 2234 
L 1294 2234 
L 1294 2753 
L 1863 2753 
Q 2328 2753 2575 2939 
Q 2822 3125 2822 3475 
Q 2822 3834 2567 4026 
Q 2313 4219 1838 4219 
Q 1578 4219 1281 4162 
Q 984 4106 628 3988 
L 628 4550 
Q 988 4650 1302 4700 
Q 1616 4750 1894 4750 
Q 2613 4750 3031 4423 
Q 3450 4097 3450 3541 
Q 3450 3153 3228 2886 
Q 3006 2619 2597 2516 
z
" transform="scale(0.015625)"/>
       </defs>
       <use xlink:href="#DejaVuSans-32"/>
       <use xlink:href="#DejaVuSans-30" x="63.623047"/>
       <use xlink:href="#DejaVuSans-32" x="127.246094"/>
       <use xlink:href="#DejaVuSans-31" x="190.869141"/>
       <use xlink:href="#DejaVuSans-2d" x="254.492188"/>
       <use xlink:href="#DejaVuSans-30" x="290.576172"/>
       <use xlink:href="#DejaVuSans-38" x="354.199219"/>
       <use xlink:href="#DejaVuSans-2d" x="417.822266"/>
       <use xlink:href="#DejaVuSans-33" x="453.90625"/>
       <use xlink:href="#DejaVuSans-31" x="517.529297"/>
      </g>
     </g>
    </g>
    <g id="xtick_2">
     <g id="line2d_2">
      <g>
       <use xlink:href="#m2dc81d2d20" x="354.468909" y="612.92" style="stroke: #000000; stroke-width: 0.8"/>
      </g>
     </g>
     <g id="text_2">
      <!-- 2021-09-05 -->
      <g transform="translate(304.257009 633.0501) scale(0.1728 -0.1728)">
       <defs>
        <path id="DejaVuSans-39" d="M 703 97 
L 703 672 
Q 941 559 1184 500 
Q 1428 441 1663 441 
Q 2288 441 2617 861 
Q 2947 1281 2994 2138 
Q 2813 1869 2534 1725 
Q 2256 1581 1919 1581 
Q 1219 1581 811 2004 
Q 403 2428 403 3163 
Q 403 3881 828 4315 
Q 1253 4750 1959 4750 
Q 2769 4750 3195 4129 
Q 3622 3509 3622 2328 
Q 3622 1225 3098 567 
Q 2575 -91 1691 -91 
Q 1453 -91 1209 -44 
Q 966 3 703 97 
z
M 1959 2075 
Q 2384 2075 2632 2365 
Q 2881 2656 2881 3163 
Q 2881 3666 2632 3958 
Q 2384 4250 1959 4250 
Q 1534 4250 1286 3958 
Q 1038 3666 1038 3163 
Q 1038 2656 1286 2365 
Q 1534 2075 1959 2075 
z
" transform="scale(0.015625)"/>
        <path id="DejaVuSans-35" d="M 691 4666 
L 3169 4666 
L 3169 4134 
L 1269 4134 
L 1269 2991 
Q 1406 3038 1543 3061 
Q 1681 3084 1819 3084 
Q 2600 3084 3056 2656 
Q 3513 2228 3513 1497 
Q 3513 744 3044 326 
Q 2575 -91 1722 -91 
Q 1428 -91 1123 -41 
Q 819 9 494 109 
L 494 744 
Q 775 591 1075 516 
Q 1375 441 1709 441 
Q 2250 441 2565 725 
Q 2881 1009 2881 1497 
Q 2881 1984 2565 2268 
Q 2250 2553 1709 2553 
Q 1456 2553 1204 2497 
Q 953 2441 691 2322 
L 691 4666 
z
" transform="scale(0.015625)"/>
       </defs>
       <use xlink:href="#DejaVuSans-32"/>
       <use xlink:href="#DejaVuSans-30" x="63.623047"/>
       <use xlink:href="#DejaVuSans-32" x="127.246094"/>
       <use xlink:href="#DejaVuSans-31" x="190.869141"/>
       <use xlink:href="#DejaVuSans-2d" x="254.492188"/>
       <use xlink:href="#DejaVuSans-30" x="290.576172"/>
       <use xlink:href="#DejaVuSans-39" x="354.199219"/>
       <use xlink:href="#DejaVuSans-2d" x="417.822266"/>
       <use xlink:href="#DejaVuSans-30" x="453.90625"/>
       <use xlink:href="#DejaVuSans-35" x="517.529297"/>
      </g>
     </g>
    </g>
    <g id="xtick_3">
     <g id="line2d_3">
      <g>
       <use xlink:href="#m2dc81d2d20" x="503.928844" y="612.92" style="stroke: #000000; stroke-width: 0.8"/>
      </g>
     </g>
     <g id="text_3">
      <!-- 2021-09-10 -->
      <g transform="translate(453.716944 633.0501) scale(0.1728 -0.1728)">
       <use xlink:href="#DejaVuSans-32"/>
       <use xlink:href="#DejaVuSans-30" x="63.623047"/>
       <use xlink:href="#DejaVuSans-32" x="127.246094"/>
       <use xlink:href="#DejaVuSans-31" x="190.869141"/>
       <use xlink:href="#DejaVuSans-2d" x="254.492188"/>
       <use xlink:href="#DejaVuSans-30" x="290.576172"/>
       <use xlink:href="#DejaVuSans-39" x="354.199219"/>
       <use xlink:href="#DejaVuSans-2d" x="417.822266"/>
       <use xlink:href="#DejaVuSans-31" x="453.90625"/>
       <use xlink:href="#DejaVuSans-30" x="517.529297"/>
      </g>
     </g>
    </g>
    <g id="xtick_4">
     <g id="line2d_4">
      <g>
       <use xlink:href="#m2dc81d2d20" x="653.388779" y="612.92" style="stroke: #000000; stroke-width: 0.8"/>
      </g>
     </g>
     <g id="text_4">
      <!-- 2021-09-15 -->
      <g transform="translate(603.176879 633.0501) scale(0.1728 -0.1728)">
       <use xlink:href="#DejaVuSans-32"/>
       <use xlink:href="#DejaVuSans-30" x="63.623047"/>
       <use xlink:href="#DejaVuSans-32" x="127.246094"/>
       <use xlink:href="#DejaVuSans-31" x="190.869141"/>
       <use xlink:href="#DejaVuSans-2d" x="254.492188"/>
       <use xlink:href="#DejaVuSans-30" x="290.576172"/>
       <use xlink:href="#DejaVuSans-39" x="354.199219"/>
       <use xlink:href="#DejaVuSans-2d" x="417.822266"/>
       <use xlink:href="#DejaVuSans-31" x="453.90625"/>
       <use xlink:href="#DejaVuSans-35" x="517.529297"/>
      </g>
     </g>
    </g>
    <g id="xtick_5">
     <g id="line2d_5">
      <g>
       <use xlink:href="#m2dc81d2d20" x="802.848714" y="612.92" style="stroke: #000000; stroke-width: 0.8"/>
      </g>
     </g>
     <g id="text_5">
      <!-- 2021-09-20 -->
      <g transform="translate(752.636814 633.0501) scale(0.1728 -0.1728)">
       <use xlink:href="#DejaVuSans-32"/>
       <use xlink:href="#DejaVuSans-30" x="63.623047"/>
       <use xlink:href="#DejaVuSans-32" x="127.246094"/>
       <use xlink:href="#DejaVuSans-31" x="190.869141"/>
       <use xlink:href="#DejaVuSans-2d" x="254.492188"/>
       <use xlink:href="#DejaVuSans-30" x="290.576172"/>
       <use xlink:href="#DejaVuSans-39" x="354.199219"/>
       <use xlink:href="#DejaVuSans-2d" x="417.822266"/>
       <use xlink:href="#DejaVuSans-32" x="453.90625"/>
       <use xlink:href="#DejaVuSans-30" x="517.529297"/>
      </g>
     </g>
    </g>
   </g>
   <g id="matplotlib.axis_2">
    <g id="ytick_1">
     <g id="line2d_6">
      <defs>
       <path id="mcaebc9f2a0" d="M 0 0 
L -3.5 0 
" style="stroke: #000000; stroke-width: 0.8"/>
      </defs>
      <g>
       <use xlink:href="#mcaebc9f2a0" x="145.225" y="612.92" style="stroke: #000000; stroke-width: 0.8"/>
      </g>
     </g>
     <g id="text_6">
      <!-- −0.50 -->
      <g transform="translate(85.2699 619.48505) scale(0.1728 -0.1728)">
       <defs>
        <path id="DejaVuSans-2212" d="M 678 2272 
L 4684 2272 
L 4684 1741 
L 678 1741 
L 678 2272 
z
" transform="scale(0.015625)"/>
        <path id="DejaVuSans-2e" d="M 684 794 
L 1344 794 
L 1344 0 
L 684 0 
L 684 794 
z
" transform="scale(0.015625)"/>
       </defs>
       <use xlink:href="#DejaVuSans-2212"/>
       <use xlink:href="#DejaVuSans-30" x="83.789062"/>
       <use xlink:href="#DejaVuSans-2e" x="147.412109"/>
       <use xlink:href="#DejaVuSans-35" x="179.199219"/>
       <use xlink:href="#DejaVuSans-30" x="242.822266"/>
      </g>
     </g>
    </g>
    <g id="ytick_2">
     <g id="line2d_7">
      <g>
       <use xlink:href="#mcaebc9f2a0" x="145.225" y="538.51" style="stroke: #000000; stroke-width: 0.8"/>
      </g>
     </g>
     <g id="text_7">
      <!-- −0.25 -->
      <g transform="translate(85.2699 545.07505) scale(0.1728 -0.1728)">
       <use xlink:href="#DejaVuSans-2212"/>
       <use xlink:href="#DejaVuSans-30" x="83.789062"/>
       <use xlink:href="#DejaVuSans-2e" x="147.412109"/>
       <use xlink:href="#DejaVuSans-32" x="179.199219"/>
       <use xlink:href="#DejaVuSans-35" x="242.822266"/>
      </g>
     </g>
    </g>
    <g id="ytick_3">
     <g id="line2d_8">
      <g>
       <use xlink:href="#mcaebc9f2a0" x="145.225" y="464.1" style="stroke: #000000; stroke-width: 0.8"/>
      </g>
     </g>
     <g id="text_8">
      <!-- 0.00 -->
      <g transform="translate(99.75 470.66505) scale(0.1728 -0.1728)">
       <use xlink:href="#DejaVuSans-30"/>
       <use xlink:href="#DejaVuSans-2e" x="63.623047"/>
       <use xlink:href="#DejaVuSans-30" x="95.410156"/>
       <use xlink:href="#DejaVuSans-30" x="159.033203"/>
      </g>
     </g>
    </g>
    <g id="ytick_4">
     <g id="line2d_9">
      <g>
       <use xlink:href="#mcaebc9f2a0" x="145.225" y="389.69" style="stroke: #000000; stroke-width: 0.8"/>
      </g>
     </g>
     <g id="text_9">
      <!-- 0.25 -->
      <g transform="translate(99.75 396.25505) scale(0.1728 -0.1728)">
       <use xlink:href="#DejaVuSans-30"/>
       <use xlink:href="#DejaVuSans-2e" x="63.623047"/>
       <use xlink:href="#DejaVuSans-32" x="95.410156"/>
       <use xlink:href="#DejaVuSans-35" x="159.033203"/>
      </g>
     </g>
    </g>
    <g id="ytick_5">
     <g id="line2d_10">
      <g>
       <use xlink:href="#mcaebc9f2a0" x="145.225" y="315.28" style="stroke: #000000; stroke-width: 0.8"/>
      </g>
     </g>
     <g id="text_10">
      <!-- 0.50 -->
      <g transform="translate(99.75 321.84505) scale(0.1728 -0.1728)">
       <use xlink:href="#DejaVuSans-30"/>
       <use xlink:href="#DejaVuSans-2e" x="63.623047"/>
       <use xlink:href="#DejaVuSans-35" x="95.410156"/>
       <use xlink:href="#DejaVuSans-30" x="159.033203"/>
      </g>
     </g>
    </g>
    <g id="ytick_6">
     <g id="line2d_11">
      <g>
       <use xlink:href="#mcaebc9f2a0" x="145.225" y="240.87" style="stroke: #000000; stroke-width: 0.8"/>
      </g>
     </g>
     <g id="text_11">
      <!-- 0.75 -->
      <g transform="translate(99.75 247.43505) scale(0.1728 -0.1728)">
       <defs>
        <path id="DejaVuSans-37" d="M 525 4666 
L 3525 4666 
L 3525 4397 
L 1831 0 
L 1172 0 
L 2766 4134 
L 525 4134 
L 525 4666 
z
" transform="scale(0.015625)"/>
       </defs>
       <use xlink:href="#DejaVuSans-30"/>
       <use xlink:href="#DejaVuSans-2e" x="63.623047"/>
       <use xlink:href="#DejaVuSans-37" x="95.410156"/>
       <use xlink:href="#DejaVuSans-35" x="159.033203"/>
      </g>
     </g>
    </g>
    <g id="ytick_7">
     <g id="line2d_12">
      <g>
       <use xlink:href="#mcaebc9f2a0" x="145.225" y="166.46" style="stroke: #000000; stroke-width: 0.8"/>
      </g>
     </g>
     <g id="text_12">
      <!-- 1.00 -->
      <g transform="translate(99.75 173.02505) scale(0.1728 -0.1728)">
       <use xlink:href="#DejaVuSans-31"/>
       <use xlink:href="#DejaVuSans-2e" x="63.623047"/>
       <use xlink:href="#DejaVuSans-30" x="95.410156"/>
       <use xlink:href="#DejaVuSans-30" x="159.033203"/>
      </g>
     </g>
    </g>
    <g id="ytick_8">
     <g id="line2d_13">
      <g>
       <use xlink:href="#mcaebc9f2a0" x="145.225" y="92.05" style="stroke: #000000; stroke-width: 0.8"/>
      </g>
     </g>
     <g id="text_13">
      <!-- 1.25 -->
      <g transform="translate(99.75 98.61505) scale(0.1728 -0.1728)">
       <use xlink:href="#DejaVuSans-31"/>
       <use xlink:href="#DejaVuSans-2e" x="63.623047"/>
       <use xlink:href="#DejaVuSans-32" x="95.410156"/>
       <use xlink:href="#DejaVuSans-35" x="159.033203"/>
      </g>
     </g>
    </g>
    <g id="ytick_9">
     <g id="line2d_14">
      <g>
       <use xlink:href="#mcaebc9f2a0" x="145.225" y="17.64" style="stroke: #000000; stroke-width: 0.8"/>
      </g>
     </g>
     <g id="text_14">
      <!-- 1.50 -->
      <g transform="translate(99.75 24.20505) scale(0.1728 -0.1728)">
       <use xlink:href="#DejaVuSans-31"/>
       <use xlink:href="#DejaVuSans-2e" x="63.623047"/>
       <use xlink:href="#DejaVuSans-35" x="95.410156"/>
       <use xlink:href="#DejaVuSans-30" x="159.033203"/>
      </g>
     </g>
    </g>
    <g id="text_15">
     <!-- Node 8 -->
     <g transform="translate(24.47505 292.33648) scale(0.1728 -0.1728)">
      <defs>
       <path id="DejaVuSans-4e" d="M 628 4666 
L 1478 4666 
L 3547 763 
L 3547 4666 
L 4159 4666 
L 4159 0 
L 3309 0 
L 1241 3903 
L 1241 0 
L 628 0 
L 628 4666 
z
" transform="scale(0.015625)"/>
       <path id="DejaVuSans-6f" d="M 1959 3097 
Q 1497 3097 1228 2736 
Q 959 2375 959 1747 
Q 959 1119 1226 758 
Q 1494 397 1959 397 
Q 2419 397 2687 759 
Q 2956 1122 2956 1747 
Q 2956 2369 2687 2733 
Q 2419 3097 1959 3097 
z
M 1959 3584 
Q 2709 3584 3137 3096 
Q 3566 2609 3566 1747 
Q 3566 888 3137 398 
Q 2709 -91 1959 -91 
Q 1206 -91 779 398 
Q 353 888 353 1747 
Q 353 2609 779 3096 
Q 1206 3584 1959 3584 
z
" transform="scale(0.015625)"/>
       <path id="DejaVuSans-64" d="M 2906 2969 
L 2906 4863 
L 3481 4863 
L 3481 0 
L 2906 0 
L 2906 525 
Q 2725 213 2448 61 
Q 2172 -91 1784 -91 
Q 1150 -91 751 415 
Q 353 922 353 1747 
Q 353 2572 751 3078 
Q 1150 3584 1784 3584 
Q 2172 3584 2448 3432 
Q 2725 3281 2906 2969 
z
M 947 1747 
Q 947 1113 1208 752 
Q 1469 391 1925 391 
Q 2381 391 2643 752 
Q 2906 1113 2906 1747 
Q 2906 2381 2643 2742 
Q 2381 3103 1925 3103 
Q 1469 3103 1208 2742 
Q 947 2381 947 1747 
z
" transform="scale(0.015625)"/>
       <path id="DejaVuSans-65" d="M 3597 1894 
L 3597 1613 
L 953 1613 
Q 991 1019 1311 708 
Q 1631 397 2203 397 
Q 2534 397 2845 478 
Q 3156 559 3463 722 
L 3463 178 
Q 3153 47 2828 -22 
Q 2503 -91 2169 -91 
Q 1331 -91 842 396 
Q 353 884 353 1716 
Q 353 2575 817 3079 
Q 1281 3584 2069 3584 
Q 2775 3584 3186 3129 
Q 3597 2675 3597 1894 
z
M 3022 2063 
Q 3016 2534 2758 2815 
Q 2500 3097 2075 3097 
Q 1594 3097 1305 2825 
Q 1016 2553 972 2059 
L 3022 2063 
z
" transform="scale(0.015625)"/>
       <path id="DejaVuSans-20" transform="scale(0.015625)"/>
      </defs>
      <use xlink:href="#DejaVuSans-4e"/>
      <use xlink:href="#DejaVuSans-6f" x="74.804688"/>
      <use xlink:href="#DejaVuSans-64" x="135.986328"/>
      <use xlink:href="#DejaVuSans-65" x="199.462891"/>
      <use xlink:href="#DejaVuSans-20" x="260.986328"/>
      <use xlink:href="#DejaVuSans-38" x="292.773438"/>
     </g>
     <!-- Depth (m) -->
     <g transform="translate(11.0493 311.6863) scale(0.1728 -0.1728)">
      <defs>
       <path id="DejaVuSans-44" d="M 1259 4147 
L 1259 519 
L 2022 519 
Q 2988 519 3436 956 
Q 3884 1394 3884 2338 
Q 3884 3275 3436 3711 
Q 2988 4147 2022 4147 
L 1259 4147 
z
M 628 4666 
L 1925 4666 
Q 3281 4666 3915 4102 
Q 4550 3538 4550 2338 
Q 4550 1131 3912 565 
Q 3275 0 1925 0 
L 628 0 
L 628 4666 
z
" transform="scale(0.015625)"/>
       <path id="DejaVuSans-70" d="M 1159 525 
L 1159 -1331 
L 581 -1331 
L 581 3500 
L 1159 3500 
L 1159 2969 
Q 1341 3281 1617 3432 
Q 1894 3584 2278 3584 
Q 2916 3584 3314 3078 
Q 3713 2572 3713 1747 
Q 3713 922 3314 415 
Q 2916 -91 2278 -91 
Q 1894 -91 1617 61 
Q 1341 213 1159 525 
z
M 3116 1747 
Q 3116 2381 2855 2742 
Q 2594 3103 2138 3103 
Q 1681 3103 1420 2742 
Q 1159 2381 1159 1747 
Q 1159 1113 1420 752 
Q 1681 391 2138 391 
Q 2594 391 2855 752 
Q 3116 1113 3116 1747 
z
" transform="scale(0.015625)"/>
       <path id="DejaVuSans-74" d="M 1172 4494 
L 1172 3500 
L 2356 3500 
L 2356 3053 
L 1172 3053 
L 1172 1153 
Q 1172 725 1289 603 
Q 1406 481 1766 481 
L 2356 481 
L 2356 0 
L 1766 0 
Q 1100 0 847 248 
Q 594 497 594 1153 
L 594 3053 
L 172 3053 
L 172 3500 
L 594 3500 
L 594 4494 
L 1172 4494 
z
" transform="scale(0.015625)"/>
       <path id="DejaVuSans-68" d="M 3513 2113 
L 3513 0 
L 2938 0 
L 2938 2094 
Q 2938 2591 2744 2837 
Q 2550 3084 2163 3084 
Q 1697 3084 1428 2787 
Q 1159 2491 1159 1978 
L 1159 0 
L 581 0 
L 581 4863 
L 1159 4863 
L 1159 2956 
Q 1366 3272 1645 3428 
Q 1925 3584 2291 3584 
Q 2894 3584 3203 3211 
Q 3513 2838 3513 2113 
z
" transform="scale(0.015625)"/>
       <path id="DejaVuSans-28" d="M 1984 4856 
Q 1566 4138 1362 3434 
Q 1159 2731 1159 2009 
Q 1159 1288 1364 580 
Q 1569 -128 1984 -844 
L 1484 -844 
Q 1016 -109 783 600 
Q 550 1309 550 2009 
Q 550 2706 781 3412 
Q 1013 4119 1484 4856 
L 1984 4856 
z
" transform="scale(0.015625)"/>
       <path id="DejaVuSans-6d" d="M 3328 2828 
Q 3544 3216 3844 3400 
Q 4144 3584 4550 3584 
Q 5097 3584 5394 3201 
Q 5691 2819 5691 2113 
L 5691 0 
L 5113 0 
L 5113 2094 
Q 5113 2597 4934 2840 
Q 4756 3084 4391 3084 
Q 3944 3084 3684 2787 
Q 3425 2491 3425 1978 
L 3425 0 
L 2847 0 
L 2847 2094 
Q 2847 2600 2669 2842 
Q 2491 3084 2119 3084 
Q 1678 3084 1418 2786 
Q 1159 2488 1159 1978 
L 1159 0 
L 581 0 
L 581 3500 
L 1159 3500 
L 1159 2956 
Q 1356 3278 1631 3431 
Q 1906 3584 2284 3584 
Q 2666 3584 2933 3390 
Q 3200 3197 3328 2828 
z
" transform="scale(0.015625)"/>
       <path id="DejaVuSans-29" d="M 513 4856 
L 1013 4856 
Q 1481 4119 1714 3412 
Q 1947 2706 1947 2009 
Q 1947 1309 1714 600 
Q 1481 -109 1013 -844 
L 513 -844 
Q 928 -128 1133 580 
Q 1338 1288 1338 2009 
Q 1338 2731 1133 3434 
Q 928 4138 513 4856 
z
" transform="scale(0.015625)"/>
      </defs>
      <use xlink:href="#DejaVuSans-44"/>
      <use xlink:href="#DejaVuSans-65" x="77.001953"/>
      <use xlink:href="#DejaVuSans-70" x="138.525391"/>
      <use xlink:href="#DejaVuSans-74" x="202.001953"/>
      <use xlink:href="#DejaVuSans-68" x="241.210938"/>
      <use xlink:href="#DejaVuSans-20" x="304.589844"/>
      <use xlink:href="#DejaVuSans-28" x="336.376953"/>
      <use xlink:href="#DejaVuSans-6d" x="375.390625"/>
      <use xlink:href="#DejaVuSans-29" x="472.802734"/>
     </g>
    </g>
   </g>
   <g id="line2d_15">
    <path d="M 145.121208 464.08244 
L 145.432583 464.082589 
M 145.640166 464.084184 
L 147.404624 464.082431 
M 147.612207 464.082237 
L 150.310789 464.082029 
M 150.518373 464.082622 
L 151.244914 464.082228 
M 151.452497 464.082828 
L 154.047288 464.084235 
M 154.254871 464.083736 
L 154.981412 464.082473 
M 155.188996 464.081982 
L 157.679995 464.082553 
M 157.887578 464.082087 
L 159.444452 464.082288 
M 159.652035 464.082963 
L 167.125032 464.082161 
L 167.228824 460.905977 
L 167.540199 445.122921 
L 167.747782 448.999393 
L 167.851573 434.49573 
L 167.955365 397.702875 
L 168.059157 316.71015 
M 168.26674 257.078609 
L 168.474323 185.799861 
L 168.681906 180.88324 
L 168.785698 181.026284 
L 168.88949 181.458882 
M 169.097073 181.451175 
L 169.616031 179.337609 
L 169.719823 179.668172 
L 169.823614 181.564559 
M 170.031198 182.936771 
L 170.861531 194.758736 
L 172.522196 221.130859 
L 174.079071 247.832524 
L 177.400403 315.188567 
L 177.607986 322.594227 
M 177.815569 325.465755 
L 178.645902 348.297574 
L 179.580027 383.045745 
L 180.514151 433.070042 
L 180.929318 458.62852 
L 181.240693 461.917335 
L 181.552068 462.84252 
L 181.967234 463.332629 
L 182.486192 463.611212 
L 183.420317 463.804138 
L 184.146858 463.874479 
M 184.354441 463.88116 
L 186.84544 463.968409 
M 187.053023 463.966571 
L 188.194731 463.991769 
M 188.402315 463.991869 
L 192.865354 464.033794 
M 193.072938 464.035461 
L 197.639769 464.055757 
M 197.847352 464.056824 
L 208.330306 464.075926 
M 208.537889 464.076315 
L 208.745472 464.076207 
M 208.953056 464.07643 
L 219.539801 464.082963 
M 219.747384 464.081947 
L 225.767298 464.082266 
M 225.974882 464.081706 
L 226.909006 464.082148 
M 227.116589 464.082257 
L 230.33413 464.082107 
M 230.541713 464.082246 
L 231.475837 464.082079 
M 231.683421 464.082049 
L 233.344087 464.082337 
M 233.55167 464.082157 
L 235.212336 464.082167 
M 235.419919 464.082528 
L 237.807126 464.08226 
M 238.01471 464.082105 
L 245.07254 464.082076 
M 245.280123 464.082438 
L 250.054538 464.08272 
M 250.262121 464.082227 
L 252.856911 464.082238 
M 253.064495 464.081894 
L 258.046493 464.082345 
M 258.254076 464.082148 
L 260.4337 464.08273 
M 260.641283 464.082595 
L 261.782991 464.082351 
M 261.990574 464.082238 
L 263.132282 464.082194 
M 263.339865 464.082108 
L 271.435612 464.075397 
L 271.746987 463.841085 
L 272.369736 463.804671 
L 278.182067 463.742523 
M 278.38965 463.74172 
L 286.381605 463.680004 
M 286.589188 463.679433 
L 287.93848 463.671696 
M 288.146063 463.671152 
L 302.261723 463.599111 
L 384.464688 463.440332 
L 384.983646 330.851956 
L 385.29502 302.461127 
L 385.606395 279.377923 
L 386.229145 271.49578 
L 386.436728 270.926077 
L 386.644312 270.91771 
L 386.748103 271.132292 
M 386.955686 271.302669 
L 387.474645 272.397688 
L 388.408769 274.802788 
L 394.324892 290.233393 
L 396.81589 295.95516 
L 400.033431 302.691053 
L 402.835805 307.855275 
L 403.354763 308.911588 
M 403.562346 309.119611 
L 406.260928 313.381679 
L 408.855719 316.985145 
L 409.167093 317.516813 
M 409.374677 317.674808 
L 411.969467 320.749188 
L 414.356674 323.226991 
L 416.743882 325.393039 
L 419.234881 327.354513 
L 421.829671 329.110331 
L 424.528253 330.665236 
L 427.434419 332.075177 
L 430.548167 333.330523 
L 433.973291 334.461929 
L 436.152915 335.069897 
L 436.256707 334.975911 
L 436.360498 334.222068 
L 436.568081 330.229635 
L 436.983248 316.522005 
L 437.398414 300.569757 
L 437.605998 291.200141 
L 437.813581 275.515194 
L 438.228747 227.313011 
L 439.474247 177.048519 
L 439.785622 164.004168 
L 439.993205 163.118625 
L 440.096997 163.1532 
L 440.30458 163.588224 
L 440.823538 165.419686 
L 442.484204 172.764675 
M 442.691787 172.580289 
L 443.003162 170.943664 
L 443.210745 170.318864 
L 443.314537 170.389412 
L 443.418329 170.829484 
M 443.625912 171.15333 
L 444.248661 173.548146 
L 445.701744 179.869647 
L 445.805536 180.759717 
M 446.013119 181.277701 
L 452.033033 208.002371 
M 452.240616 208.470621 
L 454.108866 216.272821 
L 455.561948 222.137105 
L 456.703656 226.735512 
L 459.194655 236.339419 
L 459.298447 237.100662 
M 459.50603 237.53384 
L 462.931153 250.335731 
M 463.138737 250.702329 
L 466.148694 260.921401 
L 467.913151 266.904406 
M 468.120734 267.243679 
L 470.092775 273.290553 
L 470.196567 273.554193 
L 470.300358 274.156534 
M 470.507942 274.481114 
L 472.064816 278.963274 
L 473.310315 282.38443 
L 474.348232 285.386148 
M 474.555815 285.676403 
L 475.801314 288.861762 
L 476.839231 291.373164 
L 477.358189 292.848399 
M 477.565772 293.109003 
L 478.811271 295.976488 
L 484.000853 306.632984 
M 484.208436 306.837119 
L 485.350144 308.828732 
L 486.491851 310.731578 
L 489.813183 315.686132 
L 489.916975 315.948577 
M 490.124558 316.102804 
L 491.370058 317.732816 
L 491.473849 317.975759 
M 491.681432 318.119175 
L 495.417931 322.313046 
L 498.635471 325.26105 
L 502.37197 328.038164 
L 504.34401 329.314355 
M 504.551594 329.380849 
L 507.353967 330.892363 
M 507.561551 330.947878 
L 511.817007 332.686602 
L 513.477673 333.248204 
L 517.214171 334.294127 
L 521.158253 335.14893 
L 525.621293 335.882407 
L 530.914665 336.518748 
L 537.349746 337.0576 
L 543.058285 337.394509 
M 543.265868 337.400491 
L 547.20995 337.574511 
M 547.417533 337.579218 
L 552.918489 337.760012 
M 553.126072 337.763363 
L 555.409488 337.822637 
M 555.617071 337.825498 
L 568.694816 338.013125 
L 588.519015 338.035479 
L 641.348951 338.034731 
L 641.452742 336.772324 
L 641.660326 324.515508 
L 642.179284 279.651925 
L 642.386867 277.274019 
L 642.59445 276.581514 
L 642.802033 276.465766 
L 643.113408 276.755625 
L 643.943741 278.432563 
L 646.43474 284.58441 
L 646.538532 284.28346 
L 646.642323 283.461224 
L 646.849907 279.050503 
L 647.161281 271.268212 
L 647.368865 270.138141 
L 647.576448 269.898181 
L 647.68024 269.926128 
L 647.784031 270.140622 
M 647.991614 270.313037 
L 648.510573 271.408553 
L 649.548489 274.053971 
L 649.859864 274.788537 
L 649.963655 274.536842 
L 650.27503 272.310439 
L 650.482613 271.986479 
L 650.690197 272.054192 
L 651.105363 272.693987 
L 651.209155 273.09775 
M 651.416738 273.360985 
L 651.52053 273.810419 
M 651.728113 274.085341 
L 653.077404 277.516721 
L 654.322903 281.014905 
M 654.530487 281.299497 
L 657.229069 287.945191 
L 657.33286 288.421822 
M 657.540444 288.672824 
L 659.408693 292.895289 
L 660.135234 294.656598 
M 660.342817 294.882089 
L 662.107275 298.447935 
L 663.871733 301.747915 
L 665.63619 304.786235 
L 667.400648 307.569464 
L 668.542356 309.377117 
M 668.749939 309.527959 
L 670.514396 311.883007 
L 672.382645 314.24043 
M 672.590229 314.361221 
L 674.354686 316.236146 
L 676.222935 318.090841 
M 676.430519 318.185231 
L 677.260852 318.974867 
M 677.468435 319.062788 
L 679.336684 320.494094 
L 681.204933 321.73582 
L 683.176974 322.877334 
L 687.017264 324.62954 
L 689.715846 325.577639 
M 689.92343 325.609336 
L 690.753762 325.870343 
M 690.961346 325.898923 
L 693.659928 326.519866 
L 694.178886 326.638532 
M 694.386469 326.658348 
L 697.60401 327.176803 
M 697.811593 327.190773 
L 699.991217 327.450285 
M 700.1988 327.46086 
L 702.378424 327.653486 
M 702.586007 327.661139 
L 707.152839 327.88378 
L 707.464214 327.894766 
M 707.671797 327.897454 
L 708.813505 327.922254 
M 709.021088 327.923865 
L 710.162796 327.936683 
M 710.370379 327.937297 
L 711.512087 327.939485 
M 711.71967 327.939468 
L 712.861378 327.93928 
M 713.068961 327.939262 
L 717.220626 327.93868 
M 717.428209 327.938667 
L 720.230583 327.938321 
M 720.438166 327.938306 
L 723.24054 327.937994 
M 723.448123 327.937986 
L 724.901206 327.93783 
M 725.108789 327.937822 
L 726.561872 327.937675 
M 726.769455 327.937662 
L 728.222538 327.937526 
M 728.430121 327.937517 
L 729.883204 327.937386 
M 730.090787 327.937377 
L 733.515911 327.937103 
M 733.723494 327.937095 
L 741.404074 327.936584 
M 741.611657 327.936579 
L 743.376115 327.936469 
M 743.583698 327.936461 
L 745.65953 327.936343 
M 745.867114 327.936339 
L 747.942946 327.936226 
M 748.150529 327.936222 
L 750.226362 327.936119 
M 750.433945 327.936116 
L 752.821152 327.936001 
M 753.028735 327.935998 
L 755.415943 327.935891 
M 755.623526 327.935885 
L 758.322108 327.935774 
M 758.529691 327.935771 
L 761.228273 327.935666 
M 761.435857 327.93566 
L 764.445814 327.935551 
M 764.653397 327.935549 
L 767.663354 327.935446 
M 767.870937 327.935443 
L 771.503644 327.935329 
M 771.711227 327.935327 
L 775.655309 327.935218 
M 775.862892 327.935216 
L 775.966684 327.935206 
M 776.174267 327.935204 
L 780.741098 327.935086 
M 780.948682 327.935084 
L 786.761012 327.93495 
M 786.968596 327.934948 
L 787.072387 327.934939 
M 787.27997 327.934937 
L 794.96055 327.934786 
M 795.168134 327.934784 
L 795.271925 327.934775 
M 795.479509 327.934774 
L 795.5833 327.934771 
M 795.790883 327.93477 
L 795.894675 327.934767 
M 796.102258 327.934765 
L 803.160089 327.934641 
L 803.160089 327.934641 
" clip-path="url(#p5158d8d3e7)" style="fill: none; stroke: #000000; stroke-opacity: 0.6; stroke-width: 7; stroke-linecap: square"/>
   </g>
   <g id="line2d_16">
    <path d="M 340.543834 649 
L 340.560832 502.01961 
L 340.664623 502.395725 
L 345.957996 521.148306 
L 351.147577 538.715976 
L 356.233366 555.148546 
L 361.215364 570.495651 
L 366.093571 584.806504 
L 370.867985 598.129687 
L 375.538608 610.51297 
L 380.105439 622.003179 
L 384.568479 632.64607 
L 386.748103 637.868844 
M 386.955686 638.102685 
L 391.314935 647.645708 
L 391.954401 649 
M 395.262377 649 
L 395.362808 445.385303 
L 395.466599 445.634665 
L 399.929639 456.068132 
L 403.354763 463.924855 
M 403.562346 464.150775 
L 408.025386 473.591404 
L 409.167093 476.131667 
M 409.374677 476.341521 
L 413.941508 485.315581 
L 419.131089 495.029992 
L 424.32067 504.27614 
L 425.773753 506.783796 
L 425.877544 446.417171 
L 425.981336 446.606455 
L 431.274709 456.025334 
L 436.568081 464.997143 
L 441.965246 473.706162 
L 442.484204 474.683589 
M 442.691787 474.845959 
L 443.418329 476.139454 
M 443.625912 476.300452 
L 445.805536 479.803829 
M 446.013119 479.961334 
L 451.410283 487.948326 
L 452.033033 488.993638 
M 452.240616 489.142401 
L 457.741572 496.827962 
L 459.298447 499.073131 
M 459.50603 499.212325 
L 462.931153 503.867183 
M 463.138737 504.00183 
L 463.865278 504.940792 
L 463.96907 315.210968 
L 464.072861 315.381093 
L 466.252485 319.127184 
L 467.913151 322.640026 
M 468.120734 322.845976 
L 470.300358 327.36056 
M 470.507942 327.565033 
L 474.348232 335.288005 
M 474.555815 335.490011 
L 477.358189 341.120811 
M 477.565772 341.321008 
L 484.000853 353.809122 
M 484.208436 354.005387 
L 489.916975 364.899574 
M 490.124558 365.092396 
L 491.473849 367.785612 
M 491.681432 367.977536 
L 500.918887 384.820777 
L 504.34401 391.131939 
M 504.551594 391.316536 
L 507.353967 396.461524 
M 507.561551 396.644428 
L 516.695213 412.512331 
L 525.725084 427.759591 
L 534.754955 442.570844 
L 543.058285 455.968852 
M 543.265868 456.131895 
L 547.20995 462.4443 
M 547.417533 462.605025 
L 552.918489 471.198363 
M 553.126072 471.355902 
L 555.409488 474.963227 
M 555.617071 475.119368 
L 564.231776 487.874982 
L 572.638897 499.931276 
L 580.942227 511.45323 
L 589.037973 522.31193 
L 597.029928 532.660823 
L 604.8143 542.379055 
L 612.391088 551.48747 
L 619.864085 560.126176 
L 627.23329 568.305087 
L 634.498704 576.035465 
L 641.660326 583.329589 
L 647.784031 589.409623 
M 647.991614 589.508889 
L 651.209155 592.64966 
M 651.416738 592.74669 
L 651.52053 592.940548 
M 651.728113 593.037375 
L 654.322903 595.529173 
M 654.530487 595.623853 
L 657.33286 598.247483 
M 657.540444 598.340204 
L 657.95561 598.592016 
L 660.135234 598.022443 
M 660.342817 597.996611 
L 668.542356 595.946089 
M 668.749939 595.920657 
L 672.382645 595.008372 
M 672.590229 594.983121 
L 676.222935 594.077325 
M 676.430519 594.052253 
L 677.260852 593.826829 
M 677.468435 593.801806 
L 684.733848 592.162499 
L 689.715846 591.29038 
M 689.92343 591.274992 
L 690.753762 591.140696 
M 690.961346 591.126238 
L 694.178886 590.712546 
M 694.386469 590.701318 
L 697.60401 590.387212 
M 697.811593 590.378781 
L 699.991217 590.213884 
M 700.1988 590.207311 
L 702.378424 590.082477 
M 702.586007 590.077688 
L 707.464214 589.934718 
M 707.671797 589.933495 
L 708.813505 589.924209 
M 709.021088 589.92388 
L 710.162796 589.925188 
M 710.370379 589.925731 
L 711.512087 589.937379 
M 711.71967 589.938774 
L 712.861378 589.96051 
M 713.068961 589.962734 
L 717.220626 590.106821 
M 717.428209 590.11159 
L 720.230583 590.268238 
M 720.438166 590.274642 
L 723.24054 590.475768 
M 723.448123 590.483713 
L 724.901206 590.609016 
M 725.108789 590.617772 
L 726.561872 590.75503 
M 726.769455 590.76457 
L 728.222538 590.913373 
M 728.430121 590.923669 
L 729.883204 591.083615 
M 730.090787 591.094641 
L 733.515911 591.495456 
M 733.723494 591.507987 
L 741.300282 592.527766 
L 741.404074 592.558441 
M 741.611657 592.57383 
L 743.376115 592.856557 
M 743.583698 592.872576 
L 745.65953 593.216308 
M 745.867114 593.233018 
L 747.942946 593.590793 
M 748.150529 593.60815 
L 750.226362 593.979092 
M 750.433945 593.997055 
L 752.821152 594.435968 
M 753.028735 594.454572 
L 755.415943 594.908236 
M 755.623526 594.927429 
L 758.322108 595.453903 
M 758.529691 595.473698 
L 761.228273 596.015595 
M 761.435857 596.03593 
L 764.445814 596.654154 
M 764.653397 596.675021 
L 767.663354 597.308143 
M 767.870937 597.329472 
L 771.503644 598.105982 
M 771.711227 598.127777 
L 775.655309 598.985897 
M 775.862892 599.008091 
L 775.966684 599.052505 
M 776.174267 599.074725 
L 780.741098 600.082454 
M 780.948682 600.104999 
L 786.761012 601.397569 
M 786.968596 601.420343 
L 787.072387 601.465899 
M 787.27997 601.488679 
L 794.96055 603.199205 
M 795.168134 603.221985 
L 795.271925 603.267539 
M 795.479509 603.290312 
L 795.5833 603.335853 
M 795.790883 603.35862 
L 795.894675 603.404146 
M 796.102258 603.426906 
L 803.160089 604.965913 
L 803.160089 604.965913 
" clip-path="url(#p5158d8d3e7)" style="fill: none; stroke-dasharray: 25.9,11.2; stroke-dashoffset: 0; stroke: #0000ff; stroke-opacity: 0.6; stroke-width: 7"/>
   </g>
   <g id="line2d_17">
    <path d="M 145.121208 460.353908 
L 145.432583 460.356798 
M 145.640166 460.35752 
L 147.404624 460.370493 
M 147.612207 460.371212 
L 150.310789 460.390583 
M 150.518373 460.391298 
L 151.244914 460.397018 
M 151.452497 460.397732 
L 154.047288 460.416255 
M 154.254871 460.416965 
L 154.981412 460.422645 
M 155.188996 460.423354 
L 157.679995 460.441043 
M 157.887578 460.441748 
L 159.444452 460.453022 
M 159.652035 460.453726 
L 168.059157 460.510951 
M 168.26674 460.511643 
L 168.88949 460.516485 
M 169.097073 460.517176 
L 169.823614 460.522701 
M 170.031198 460.523391 
L 177.607986 460.574086 
M 177.815569 460.574766 
L 184.146858 460.616678 
M 184.354441 460.61735 
L 186.84544 460.634105 
M 187.053023 460.634774 
L 188.194731 460.642786 
M 188.402315 460.643453 
L 192.865354 460.672668 
M 193.072938 460.673329 
L 197.639769 460.702947 
M 197.847352 460.703602 
L 208.330306 460.769779 
M 208.537889 460.770421 
L 208.745472 460.772347 
M 208.953056 460.772989 
L 219.539801 460.838443 
M 219.747384 460.839072 
L 225.767298 460.875976 
M 225.974882 460.876598 
L 226.909006 460.88281 
M 227.116589 460.883431 
L 230.33413 460.903226 
M 230.541713 460.903843 
L 231.475837 460.910002 
M 231.683421 460.910618 
L 233.344087 460.92106 
M 233.55167 460.921673 
L 235.212336 460.932079 
M 235.419919 460.93269 
L 237.807126 460.94732 
M 238.01471 460.947929 
L 245.07254 460.989607 
M 245.280123 460.990207 
L 250.054538 461.018275 
M 250.262121 461.018869 
L 252.856911 461.034284 
M 253.064495 461.034876 
L 258.046493 461.063712 
M 258.254076 461.064298 
L 260.4337 461.077154 
M 260.641283 461.077737 
L 261.782991 461.084726 
M 261.990574 461.085307 
L 263.132282 461.092278 
M 263.339865 461.092858 
L 264.066407 461.096916 
L 264.170198 333.098417 
L 264.27399 333.123686 
L 278.182067 336.490626 
M 278.38965 336.515241 
L 286.381605 338.420621 
M 286.589188 338.444864 
L 287.93848 338.783765 
M 288.146063 338.807938 
L 311.291594 344.083542 
L 334.852292 349.225684 
L 358.931949 354.253513 
L 383.530563 359.162549 
L 386.748103 359.80834 
M 386.955686 359.828457 
L 403.354763 362.978171 
M 403.562346 362.997677 
L 409.167093 364.064699 
M 409.374677 364.083995 
L 435.114999 368.756241 
L 442.484204 370.071356 
M 442.691787 370.089493 
L 443.418329 370.234465 
M 443.625912 370.252571 
L 445.805536 370.650014 
M 446.013119 370.66804 
L 452.033033 371.725417 
M 452.240616 371.743235 
L 459.298447 372.964423 
M 459.50603 372.982002 
L 462.931153 373.577679 
M 463.138737 373.59514 
L 463.865278 373.717272 
L 466.356277 377.804115 
L 467.913151 380.272983 
M 468.120734 380.420256 
L 470.300358 383.45241 
M 470.507942 383.580826 
L 472.687566 386.089993 
L 474.348232 387.860697 
M 474.555815 387.957645 
L 476.631647 389.729461 
L 477.358189 390.349483 
M 477.565772 390.423439 
L 479.537813 391.679603 
L 481.406062 392.610199 
L 483.274311 393.290738 
L 484.000853 393.513543 
M 484.208436 393.537964 
L 486.076685 393.85434 
L 489.916975 394.367395 
M 490.124558 394.380846 
L 491.473849 394.568884 
M 491.681432 394.582296 
L 504.34401 396.21238 
M 504.551594 396.225474 
L 507.353967 396.591106 
M 507.561551 396.604128 
L 538.90662 400.423981 
L 543.058285 400.925624 
M 543.265868 400.93781 
L 547.20995 401.411223 
M 547.417533 401.423315 
L 552.918489 402.072834 
M 553.126072 402.084798 
L 555.409488 402.359344 
M 555.617071 402.371253 
L 588.311432 406.010582 
L 622.043709 409.540698 
L 647.784031 412.099467 
M 647.991614 412.109498 
L 651.209155 412.429451 
M 651.416738 412.439417 
L 651.52053 412.459345 
M 651.728113 412.469306 
L 653.803945 412.668122 
L 653.907737 314.090257 
L 654.011528 314.119178 
L 654.322903 314.234832 
M 654.530487 314.263736 
L 657.33286 315.070872 
M 657.540444 315.099618 
L 660.135234 315.845077 
M 660.342817 315.873674 
L 668.542356 318.143644 
M 668.749939 318.171797 
L 672.382645 319.181716 
M 672.590229 319.209669 
L 676.222935 320.212405 
M 676.430519 320.240159 
L 677.260852 320.489709 
M 677.468435 320.51741 
L 689.715846 323.775965 
M 689.92343 323.803032 
L 690.753762 324.046401 
M 690.961346 324.073416 
L 694.178886 324.935149 
M 694.386469 324.961992 
L 697.60401 325.818256 
M 697.811593 325.844929 
L 699.991217 326.430439 
M 700.1988 326.456994 
L 702.378424 327.039912 
M 702.586007 327.066349 
L 707.464214 328.329372 
M 707.671797 328.35556 
L 708.813505 328.669432 
M 709.021088 328.695555 
L 710.162796 329.008641 
M 710.370379 329.034699 
L 711.512087 329.347 
M 711.71967 329.372993 
L 712.861378 329.684512 
M 713.068961 329.71044 
L 717.220626 330.769168 
M 717.428209 330.794887 
L 720.230583 331.512985 
M 720.438166 331.53856 
L 723.24054 332.252653 
M 723.448123 332.278085 
L 724.901206 332.658977 
M 725.108789 332.684331 
L 726.561872 333.064049 
M 726.769455 333.089325 
L 728.222538 333.467873 
M 728.430121 333.493071 
L 729.883204 333.870453 
M 730.090787 333.895573 
L 733.515911 334.746775 
M 733.723494 334.771726 
L 741.404074 336.629396 
M 741.611657 336.653984 
L 743.376115 337.095754 
M 743.583698 337.120252 
L 745.65953 337.633617 
M 745.867114 337.658011 
L 747.942946 338.169201 
M 748.150529 338.193492 
L 750.226362 338.702518 
M 750.433945 338.726706 
L 752.821152 339.305819 
M 753.028735 339.32989 
L 755.415943 339.906216 
M 755.623526 339.930172 
L 758.322108 340.575234 
M 758.529691 340.59906 
L 761.228273 341.240647 
M 761.435857 341.264345 
L 764.445814 341.973174 
M 764.653397 341.996731 
L 767.663354 342.701333 
M 767.870937 342.72475 
L 771.503644 343.564746 
M 771.711227 343.587996 
L 775.655309 344.491258 
M 775.862892 344.514329 
L 775.966684 344.560459 
M 776.174267 344.583517 
L 780.741098 345.616536 
M 780.948682 345.63939 
L 786.761012 346.934823 
M 786.968596 346.957423 
L 787.072387 347.00261 
M 787.27997 347.025197 
L 794.96055 348.706858 
M 795.168134 348.729116 
L 795.271925 348.77362 
M 795.479509 348.795865 
L 795.5833 348.840343 
M 795.790883 348.862575 
L 795.894675 348.907027 
M 796.102258 348.929247 
L 803.160089 350.430166 
L 803.160089 350.430166 
" clip-path="url(#p5158d8d3e7)" style="fill: none; stroke-dasharray: 7,11.55; stroke-dashoffset: 0; stroke: #008000; stroke-opacity: 0.6; stroke-width: 7"/>
   </g>
   <g id="line2d_18">
    <path d="M 145.121208 468.872291 
L 145.432583 468.86861 
M 145.640166 468.867691 
L 147.404624 468.851164 
M 147.612207 468.850248 
L 150.310789 468.82557 
M 150.518373 468.824659 
L 151.244914 468.817373 
M 151.452497 468.816463 
L 154.047288 468.792866 
M 154.254871 468.791961 
L 154.981412 468.784726 
M 155.188996 468.783822 
L 157.679995 468.761288 
M 157.887578 468.760388 
L 159.444452 468.746026 
M 159.652035 468.74513 
L 168.059157 468.672229 
M 168.26674 468.671347 
L 168.88949 468.665178 
M 169.097073 468.664298 
L 169.823614 468.657259 
M 170.031198 468.65638 
L 177.607986 468.591799 
M 177.815569 468.590932 
L 184.146858 468.537539 
M 184.354441 468.536683 
L 186.84544 468.515338 
M 187.053023 468.514486 
L 188.194731 468.504279 
M 188.402315 468.50343 
L 192.865354 468.466211 
M 193.072938 468.465369 
L 197.639769 468.427638 
M 197.847352 468.426803 
L 208.330306 468.342498 
M 208.537889 468.34168 
L 208.745472 468.339226 
M 208.953056 468.338408 
L 219.539801 468.255024 
M 219.747384 468.254222 
L 225.767298 468.207209 
M 225.974882 468.206416 
L 226.909006 468.198502 
M 227.116589 468.197712 
L 230.33413 468.172494 
M 230.541713 468.171709 
L 231.475837 468.163862 
M 231.683421 468.163078 
L 233.344087 468.149775 
M 233.55167 468.148994 
L 235.212336 468.135737 
M 235.419919 468.134959 
L 237.807126 468.116321 
M 238.01471 468.115546 
L 245.07254 468.062451 
M 245.280123 468.061686 
L 250.054538 468.025929 
M 250.262121 468.025172 
L 252.856911 468.005534 
M 253.064495 468.004781 
L 258.046493 467.968044 
M 258.254076 467.967298 
L 260.4337 467.95092 
M 260.641283 467.950178 
L 261.782991 467.941275 
M 261.990574 467.940534 
L 263.132282 467.931654 
M 263.339865 467.930915 
L 278.182067 467.825961 
M 278.38965 467.825242 
L 286.381605 467.769609 
M 286.589188 467.768901 
L 287.93848 467.759005 
M 288.146063 467.7583 
L 386.748103 467.145126 
M 386.955686 467.144539 
L 403.354763 467.052573 
M 403.562346 467.052003 
L 409.167093 467.020848 
M 409.374677 467.020285 
L 442.484204 466.845465 
M 442.691787 466.844935 
L 443.418329 466.840702 
M 443.625912 466.840174 
L 445.805536 466.828569 
M 446.013119 466.828043 
L 452.033033 466.797169 
M 452.240616 466.796649 
L 459.298447 466.760993 
M 459.50603 466.760479 
L 462.931153 466.743087 
M 463.138737 466.742577 
L 467.913151 466.718726 
M 468.120734 466.718221 
L 470.300358 466.707132 
M 470.507942 466.706629 
L 474.348232 466.687591 
M 474.555815 466.687092 
L 477.358189 466.673156 
M 477.565772 466.67266 
L 484.000853 466.641583 
M 484.208436 466.641092 
L 489.916975 466.613789 
M 490.124558 466.613304 
L 491.473849 466.606526 
M 491.681432 466.606042 
L 504.34401 466.547279 
M 504.551594 466.546807 
L 507.353967 466.533626 
M 507.561551 466.533157 
L 543.058285 466.377372 
M 543.265868 466.376932 
L 547.20995 466.359866 
M 547.417533 466.35943 
L 552.918489 466.336016 
M 553.126072 466.335585 
L 555.409488 466.325687 
M 555.617071 466.325258 
L 647.784031 465.974566 
M 647.991614 465.974204 
L 651.209155 465.96267 
M 651.416738 465.962311 
L 651.52053 465.961593 
M 651.728113 465.961234 
L 654.322903 465.951922 
M 654.530487 465.951565 
L 657.33286 465.94159 
M 657.540444 465.941235 
L 660.135234 465.932023 
M 660.342817 465.93167 
L 668.542356 465.903619 
M 668.749939 465.903271 
L 672.382645 465.890792 
M 672.590229 465.890446 
L 676.222935 465.878055 
M 676.430519 465.877712 
L 677.260852 465.874628 
M 677.468435 465.874286 
L 689.715846 465.834019 
M 689.92343 465.833685 
L 690.753762 465.830678 
M 690.961346 465.830344 
L 693.867511 465.821023 
L 693.971303 324.854587 
L 694.075094 324.881446 
L 694.178886 324.935149 
M 694.386469 324.961992 
L 697.60401 325.818256 
M 697.811593 325.844929 
L 699.991217 326.430439 
M 700.1988 326.456994 
L 702.378424 327.039912 
M 702.586007 327.066349 
L 707.464214 328.329372 
M 707.671797 328.35556 
L 708.813505 328.669432 
M 709.021088 328.695555 
L 710.162796 329.008641 
M 710.370379 329.034699 
L 711.512087 329.347 
M 711.71967 329.372993 
L 712.861378 329.684512 
M 713.068961 329.71044 
L 717.220626 330.769168 
M 717.428209 330.794887 
L 720.230583 331.512985 
M 720.438166 331.53856 
L 723.24054 332.252653 
M 723.448123 332.278085 
L 724.901206 332.658977 
M 725.108789 332.684331 
L 726.561872 333.064049 
M 726.769455 333.089325 
L 728.222538 333.467873 
M 728.430121 333.493071 
L 729.883204 333.870453 
M 730.090787 333.895573 
L 733.515911 334.746775 
M 733.723494 334.771726 
L 741.404074 336.629396 
M 741.611657 336.653984 
L 743.376115 337.095754 
M 743.583698 337.120252 
L 745.65953 337.633617 
M 745.867114 337.658011 
L 747.942946 338.169201 
M 748.150529 338.193492 
L 750.226362 338.702518 
M 750.433945 338.726706 
L 752.821152 339.305819 
M 753.028735 339.32989 
L 755.415943 339.906216 
M 755.623526 339.930172 
L 758.322108 340.575234 
M 758.529691 340.59906 
L 761.228273 341.240647 
M 761.435857 341.264345 
L 764.445814 341.973174 
M 764.653397 341.996731 
L 767.663354 342.701333 
M 767.870937 342.72475 
L 771.503644 343.564746 
M 771.711227 343.587996 
L 775.655309 344.491258 
M 775.862892 344.514329 
L 775.966684 344.560459 
M 776.174267 344.583517 
L 780.741098 345.616536 
M 780.948682 345.63939 
L 786.761012 346.934823 
M 786.968596 346.957423 
L 787.072387 347.00261 
M 787.27997 347.025197 
L 794.96055 348.706858 
M 795.168134 348.729116 
L 795.271925 348.77362 
M 795.479509 348.795865 
L 795.5833 348.840343 
M 795.790883 348.862575 
L 795.894675 348.907027 
M 796.102258 348.929247 
L 803.160089 350.430166 
L 803.160089 350.430166 
" clip-path="url(#p5158d8d3e7)" style="fill: none; stroke-dasharray: 44.8,11.2,7,11.2; stroke-dashoffset: 0; stroke: #ff0000; stroke-opacity: 0.6; stroke-width: 7"/>
   </g>
   <g id="patch_3">
    <path d="M 145.225 612.92 
L 145.225 17.64 
" style="fill: none; stroke: #000000; stroke-width: 0.8; stroke-linejoin: miter; stroke-linecap: square"/>
   </g>
   <g id="patch_4">
    <path d="M 803.056297 612.92 
L 803.056297 17.64 
" style="fill: none; stroke: #000000; stroke-width: 0.8; stroke-linejoin: miter; stroke-linecap: square"/>
   </g>
   <g id="patch_5">
    <path d="M 145.225 612.92 
L 803.056297 612.92 
" style="fill: none; stroke: #000000; stroke-width: 0.8; stroke-linejoin: miter; stroke-linecap: square"/>
   </g>
   <g id="patch_6">
    <path d="M 145.225 17.64 
L 803.056297 17.64 
" style="fill: none; stroke: #000000; stroke-width: 0.8; stroke-linejoin: miter; stroke-linecap: square"/>
   </g>
   <g id="text_16">
    <!-- 4 RMSE: 8.77 m -->
    <g transform="translate(276.791259 493.864) scale(0.1728 -0.1728)">
     <defs>
      <path id="DejaVuSans-34" d="M 2419 4116 
L 825 1625 
L 2419 1625 
L 2419 4116 
z
M 2253 4666 
L 3047 4666 
L 3047 1625 
L 3713 1625 
L 3713 1100 
L 3047 1100 
L 3047 0 
L 2419 0 
L 2419 1100 
L 313 1100 
L 313 1709 
L 2253 4666 
z
" transform="scale(0.015625)"/>
      <path id="DejaVuSans-52" d="M 2841 2188 
Q 3044 2119 3236 1894 
Q 3428 1669 3622 1275 
L 4263 0 
L 3584 0 
L 2988 1197 
Q 2756 1666 2539 1819 
Q 2322 1972 1947 1972 
L 1259 1972 
L 1259 0 
L 628 0 
L 628 4666 
L 2053 4666 
Q 2853 4666 3247 4331 
Q 3641 3997 3641 3322 
Q 3641 2881 3436 2590 
Q 3231 2300 2841 2188 
z
M 1259 4147 
L 1259 2491 
L 2053 2491 
Q 2509 2491 2742 2702 
Q 2975 2913 2975 3322 
Q 2975 3731 2742 3939 
Q 2509 4147 2053 4147 
L 1259 4147 
z
" transform="scale(0.015625)"/>
      <path id="DejaVuSans-4d" d="M 628 4666 
L 1569 4666 
L 2759 1491 
L 3956 4666 
L 4897 4666 
L 4897 0 
L 4281 0 
L 4281 4097 
L 3078 897 
L 2444 897 
L 1241 4097 
L 1241 0 
L 628 0 
L 628 4666 
z
" transform="scale(0.015625)"/>
      <path id="DejaVuSans-53" d="M 3425 4513 
L 3425 3897 
Q 3066 4069 2747 4153 
Q 2428 4238 2131 4238 
Q 1616 4238 1336 4038 
Q 1056 3838 1056 3469 
Q 1056 3159 1242 3001 
Q 1428 2844 1947 2747 
L 2328 2669 
Q 3034 2534 3370 2195 
Q 3706 1856 3706 1288 
Q 3706 609 3251 259 
Q 2797 -91 1919 -91 
Q 1588 -91 1214 -16 
Q 841 59 441 206 
L 441 856 
Q 825 641 1194 531 
Q 1563 422 1919 422 
Q 2459 422 2753 634 
Q 3047 847 3047 1241 
Q 3047 1584 2836 1778 
Q 2625 1972 2144 2069 
L 1759 2144 
Q 1053 2284 737 2584 
Q 422 2884 422 3419 
Q 422 4038 858 4394 
Q 1294 4750 2059 4750 
Q 2388 4750 2728 4690 
Q 3069 4631 3425 4513 
z
" transform="scale(0.015625)"/>
      <path id="DejaVuSans-45" d="M 628 4666 
L 3578 4666 
L 3578 4134 
L 1259 4134 
L 1259 2753 
L 3481 2753 
L 3481 2222 
L 1259 2222 
L 1259 531 
L 3634 531 
L 3634 0 
L 628 0 
L 628 4666 
z
" transform="scale(0.015625)"/>
      <path id="DejaVuSans-3a" d="M 750 794 
L 1409 794 
L 1409 0 
L 750 0 
L 750 794 
z
M 750 3309 
L 1409 3309 
L 1409 2516 
L 750 2516 
L 750 3309 
z
" transform="scale(0.015625)"/>
     </defs>
     <use xlink:href="#DejaVuSans-34"/>
     <use xlink:href="#DejaVuSans-20" x="63.623047"/>
     <use xlink:href="#DejaVuSans-52" x="95.410156"/>
     <use xlink:href="#DejaVuSans-4d" x="164.892578"/>
     <use xlink:href="#DejaVuSans-53" x="251.171875"/>
     <use xlink:href="#DejaVuSans-45" x="314.648438"/>
     <use xlink:href="#DejaVuSans-3a" x="377.832031"/>
     <use xlink:href="#DejaVuSans-20" x="411.523438"/>
     <use xlink:href="#DejaVuSans-38" x="443.310547"/>
     <use xlink:href="#DejaVuSans-2e" x="506.933594"/>
     <use xlink:href="#DejaVuSans-37" x="538.720703"/>
     <use xlink:href="#DejaVuSans-37" x="602.34375"/>
     <use xlink:href="#DejaVuSans-20" x="665.966797"/>
     <use xlink:href="#DejaVuSans-6d" x="697.753906"/>
    </g>
   </g>
   <g id="text_17">
    <!-- 6 RMSE: 4.2 m -->
    <g transform="translate(276.791259 523.628) scale(0.1728 -0.1728)">
     <defs>
      <path id="DejaVuSans-36" d="M 2113 2584 
Q 1688 2584 1439 2293 
Q 1191 2003 1191 1497 
Q 1191 994 1439 701 
Q 1688 409 2113 409 
Q 2538 409 2786 701 
Q 3034 994 3034 1497 
Q 3034 2003 2786 2293 
Q 2538 2584 2113 2584 
z
M 3366 4563 
L 3366 3988 
Q 3128 4100 2886 4159 
Q 2644 4219 2406 4219 
Q 1781 4219 1451 3797 
Q 1122 3375 1075 2522 
Q 1259 2794 1537 2939 
Q 1816 3084 2150 3084 
Q 2853 3084 3261 2657 
Q 3669 2231 3669 1497 
Q 3669 778 3244 343 
Q 2819 -91 2113 -91 
Q 1303 -91 875 529 
Q 447 1150 447 2328 
Q 447 3434 972 4092 
Q 1497 4750 2381 4750 
Q 2619 4750 2861 4703 
Q 3103 4656 3366 4563 
z
" transform="scale(0.015625)"/>
     </defs>
     <use xlink:href="#DejaVuSans-36"/>
     <use xlink:href="#DejaVuSans-20" x="63.623047"/>
     <use xlink:href="#DejaVuSans-52" x="95.410156"/>
     <use xlink:href="#DejaVuSans-4d" x="164.892578"/>
     <use xlink:href="#DejaVuSans-53" x="251.171875"/>
     <use xlink:href="#DejaVuSans-45" x="314.648438"/>
     <use xlink:href="#DejaVuSans-3a" x="377.832031"/>
     <use xlink:href="#DejaVuSans-20" x="411.523438"/>
     <use xlink:href="#DejaVuSans-34" x="443.310547"/>
     <use xlink:href="#DejaVuSans-2e" x="506.933594"/>
     <use xlink:href="#DejaVuSans-32" x="538.720703"/>
     <use xlink:href="#DejaVuSans-20" x="602.34375"/>
     <use xlink:href="#DejaVuSans-6d" x="634.130859"/>
    </g>
   </g>
   <g id="text_18">
    <!-- 7 RMSE: 24.63 m -->
    <g transform="translate(276.791259 553.392) scale(0.1728 -0.1728)">
     <use xlink:href="#DejaVuSans-37"/>
     <use xlink:href="#DejaVuSans-20" x="63.623047"/>
     <use xlink:href="#DejaVuSans-52" x="95.410156"/>
     <use xlink:href="#DejaVuSans-4d" x="164.892578"/>
     <use xlink:href="#DejaVuSans-53" x="251.171875"/>
     <use xlink:href="#DejaVuSans-45" x="314.648438"/>
     <use xlink:href="#DejaVuSans-3a" x="377.832031"/>
     <use xlink:href="#DejaVuSans-20" x="411.523438"/>
     <use xlink:href="#DejaVuSans-32" x="443.310547"/>
     <use xlink:href="#DejaVuSans-34" x="506.933594"/>
     <use xlink:href="#DejaVuSans-2e" x="570.556641"/>
     <use xlink:href="#DejaVuSans-36" x="602.34375"/>
     <use xlink:href="#DejaVuSans-33" x="665.966797"/>
     <use xlink:href="#DejaVuSans-20" x="729.589844"/>
     <use xlink:href="#DejaVuSans-6d" x="761.376953"/>
    </g>
   </g>
   <g id="text_19">
    <!-- 7 -->
    <g transform="translate(480.718961 464.1) scale(0.1728 -0.1728)">
     <use xlink:href="#DejaVuSans-37"/>
    </g>
   </g>
   <g id="text_20">
    <!-- 8 -->
    <g transform="translate(539.923778 464.1) scale(0.1728 -0.1728)">
     <use xlink:href="#DejaVuSans-38"/>
    </g>
   </g>
   <g id="text_21">
    <!-- 6 -->
    <g transform="translate(507.032213 523.628) scale(0.1728 -0.1728)">
     <use xlink:href="#DejaVuSans-36"/>
    </g>
   </g>
   <g id="text_22">
    <!-- 4 -->
    <g transform="translate(507.032213 583.156) scale(0.1728 -0.1728)">
     <use xlink:href="#DejaVuSans-34"/>
    </g>
   </g>
   <g id="legend_1">
    <g id="patch_7">
     <path d="M 157.321 132.9192 
L 435.2131 132.9192 
Q 438.6691 132.9192 438.6691 129.4632 
L 438.6691 29.736 
Q 438.6691 26.28 435.2131 26.28 
L 157.321 26.28 
Q 153.865 26.28 153.865 29.736 
L 153.865 129.4632 
Q 153.865 132.9192 157.321 132.9192 
z
" style="fill: #ffffff; opacity: 0.8; stroke: #cccccc; stroke-linejoin: miter"/>
    </g>
    <g id="line2d_19">
     <path d="M 160.777 40.2741 
L 178.057 40.2741 
L 195.337 40.2741 
" style="fill: none; stroke: #000000; stroke-opacity: 0.6; stroke-width: 7; stroke-linecap: square"/>
    </g>
    <g id="text_23">
     <!-- measurement -->
     <g transform="translate(209.161 46.3221) scale(0.1728 -0.1728)">
      <defs>
       <path id="DejaVuSans-61" d="M 2194 1759 
Q 1497 1759 1228 1600 
Q 959 1441 959 1056 
Q 959 750 1161 570 
Q 1363 391 1709 391 
Q 2188 391 2477 730 
Q 2766 1069 2766 1631 
L 2766 1759 
L 2194 1759 
z
M 3341 1997 
L 3341 0 
L 2766 0 
L 2766 531 
Q 2569 213 2275 61 
Q 1981 -91 1556 -91 
Q 1019 -91 701 211 
Q 384 513 384 1019 
Q 384 1609 779 1909 
Q 1175 2209 1959 2209 
L 2766 2209 
L 2766 2266 
Q 2766 2663 2505 2880 
Q 2244 3097 1772 3097 
Q 1472 3097 1187 3025 
Q 903 2953 641 2809 
L 641 3341 
Q 956 3463 1253 3523 
Q 1550 3584 1831 3584 
Q 2591 3584 2966 3190 
Q 3341 2797 3341 1997 
z
" transform="scale(0.015625)"/>
       <path id="DejaVuSans-73" d="M 2834 3397 
L 2834 2853 
Q 2591 2978 2328 3040 
Q 2066 3103 1784 3103 
Q 1356 3103 1142 2972 
Q 928 2841 928 2578 
Q 928 2378 1081 2264 
Q 1234 2150 1697 2047 
L 1894 2003 
Q 2506 1872 2764 1633 
Q 3022 1394 3022 966 
Q 3022 478 2636 193 
Q 2250 -91 1575 -91 
Q 1294 -91 989 -36 
Q 684 19 347 128 
L 347 722 
Q 666 556 975 473 
Q 1284 391 1588 391 
Q 1994 391 2212 530 
Q 2431 669 2431 922 
Q 2431 1156 2273 1281 
Q 2116 1406 1581 1522 
L 1381 1569 
Q 847 1681 609 1914 
Q 372 2147 372 2553 
Q 372 3047 722 3315 
Q 1072 3584 1716 3584 
Q 2034 3584 2315 3537 
Q 2597 3491 2834 3397 
z
" transform="scale(0.015625)"/>
       <path id="DejaVuSans-75" d="M 544 1381 
L 544 3500 
L 1119 3500 
L 1119 1403 
Q 1119 906 1312 657 
Q 1506 409 1894 409 
Q 2359 409 2629 706 
Q 2900 1003 2900 1516 
L 2900 3500 
L 3475 3500 
L 3475 0 
L 2900 0 
L 2900 538 
Q 2691 219 2414 64 
Q 2138 -91 1772 -91 
Q 1169 -91 856 284 
Q 544 659 544 1381 
z
M 1991 3584 
L 1991 3584 
z
" transform="scale(0.015625)"/>
       <path id="DejaVuSans-72" d="M 2631 2963 
Q 2534 3019 2420 3045 
Q 2306 3072 2169 3072 
Q 1681 3072 1420 2755 
Q 1159 2438 1159 1844 
L 1159 0 
L 581 0 
L 581 3500 
L 1159 3500 
L 1159 2956 
Q 1341 3275 1631 3429 
Q 1922 3584 2338 3584 
Q 2397 3584 2469 3576 
Q 2541 3569 2628 3553 
L 2631 2963 
z
" transform="scale(0.015625)"/>
       <path id="DejaVuSans-6e" d="M 3513 2113 
L 3513 0 
L 2938 0 
L 2938 2094 
Q 2938 2591 2744 2837 
Q 2550 3084 2163 3084 
Q 1697 3084 1428 2787 
Q 1159 2491 1159 1978 
L 1159 0 
L 581 0 
L 581 3500 
L 1159 3500 
L 1159 2956 
Q 1366 3272 1645 3428 
Q 1925 3584 2291 3584 
Q 2894 3584 3203 3211 
Q 3513 2838 3513 2113 
z
" transform="scale(0.015625)"/>
      </defs>
      <use xlink:href="#DejaVuSans-6d"/>
      <use xlink:href="#DejaVuSans-65" x="97.412109"/>
      <use xlink:href="#DejaVuSans-61" x="158.935547"/>
      <use xlink:href="#DejaVuSans-73" x="220.214844"/>
      <use xlink:href="#DejaVuSans-75" x="272.314453"/>
      <use xlink:href="#DejaVuSans-72" x="335.693359"/>
      <use xlink:href="#DejaVuSans-65" x="374.556641"/>
      <use xlink:href="#DejaVuSans-6d" x="436.080078"/>
      <use xlink:href="#DejaVuSans-65" x="533.492188"/>
      <use xlink:href="#DejaVuSans-6e" x="595.015625"/>
      <use xlink:href="#DejaVuSans-74" x="658.394531"/>
     </g>
    </g>
    <g id="line2d_20">
     <path d="M 160.777 65.6379 
L 178.057 65.6379 
L 195.337 65.6379 
" style="fill: none; stroke-dasharray: 25.9,11.2; stroke-dashoffset: 0; stroke: #0000ff; stroke-opacity: 0.6; stroke-width: 7"/>
    </g>
    <g id="text_24">
     <!-- estimate maintained by 4 -->
     <g transform="translate(209.161 71.6859) scale(0.1728 -0.1728)">
      <defs>
       <path id="DejaVuSans-69" d="M 603 3500 
L 1178 3500 
L 1178 0 
L 603 0 
L 603 3500 
z
M 603 4863 
L 1178 4863 
L 1178 4134 
L 603 4134 
L 603 4863 
z
" transform="scale(0.015625)"/>
       <path id="DejaVuSans-62" d="M 3116 1747 
Q 3116 2381 2855 2742 
Q 2594 3103 2138 3103 
Q 1681 3103 1420 2742 
Q 1159 2381 1159 1747 
Q 1159 1113 1420 752 
Q 1681 391 2138 391 
Q 2594 391 2855 752 
Q 3116 1113 3116 1747 
z
M 1159 2969 
Q 1341 3281 1617 3432 
Q 1894 3584 2278 3584 
Q 2916 3584 3314 3078 
Q 3713 2572 3713 1747 
Q 3713 922 3314 415 
Q 2916 -91 2278 -91 
Q 1894 -91 1617 61 
Q 1341 213 1159 525 
L 1159 0 
L 581 0 
L 581 4863 
L 1159 4863 
L 1159 2969 
z
" transform="scale(0.015625)"/>
       <path id="DejaVuSans-79" d="M 2059 -325 
Q 1816 -950 1584 -1140 
Q 1353 -1331 966 -1331 
L 506 -1331 
L 506 -850 
L 844 -850 
Q 1081 -850 1212 -737 
Q 1344 -625 1503 -206 
L 1606 56 
L 191 3500 
L 800 3500 
L 1894 763 
L 2988 3500 
L 3597 3500 
L 2059 -325 
z
" transform="scale(0.015625)"/>
      </defs>
      <use xlink:href="#DejaVuSans-65"/>
      <use xlink:href="#DejaVuSans-73" x="61.523438"/>
      <use xlink:href="#DejaVuSans-74" x="113.623047"/>
      <use xlink:href="#DejaVuSans-69" x="152.832031"/>
      <use xlink:href="#DejaVuSans-6d" x="180.615234"/>
      <use xlink:href="#DejaVuSans-61" x="278.027344"/>
      <use xlink:href="#DejaVuSans-74" x="339.306641"/>
      <use xlink:href="#DejaVuSans-65" x="378.515625"/>
      <use xlink:href="#DejaVuSans-20" x="440.039062"/>
      <use xlink:href="#DejaVuSans-6d" x="471.826172"/>
      <use xlink:href="#DejaVuSans-61" x="569.238281"/>
      <use xlink:href="#DejaVuSans-69" x="630.517578"/>
      <use xlink:href="#DejaVuSans-6e" x="658.300781"/>
      <use xlink:href="#DejaVuSans-74" x="721.679688"/>
      <use xlink:href="#DejaVuSans-61" x="760.888672"/>
      <use xlink:href="#DejaVuSans-69" x="822.167969"/>
      <use xlink:href="#DejaVuSans-6e" x="849.951172"/>
      <use xlink:href="#DejaVuSans-65" x="913.330078"/>
      <use xlink:href="#DejaVuSans-64" x="974.853516"/>
      <use xlink:href="#DejaVuSans-20" x="1038.330078"/>
      <use xlink:href="#DejaVuSans-62" x="1070.117188"/>
      <use xlink:href="#DejaVuSans-79" x="1133.59375"/>
      <use xlink:href="#DejaVuSans-20" x="1192.773438"/>
      <use xlink:href="#DejaVuSans-34" x="1224.560547"/>
     </g>
    </g>
    <g id="line2d_21">
     <path d="M 160.777 91.0017 
L 178.057 91.0017 
L 195.337 91.0017 
" style="fill: none; stroke-dasharray: 7,11.55; stroke-dashoffset: 0; stroke: #008000; stroke-opacity: 0.6; stroke-width: 7"/>
    </g>
    <g id="text_25">
     <!-- estimate maintained by 6 -->
     <g transform="translate(209.161 97.0497) scale(0.1728 -0.1728)">
      <use xlink:href="#DejaVuSans-65"/>
      <use xlink:href="#DejaVuSans-73" x="61.523438"/>
      <use xlink:href="#DejaVuSans-74" x="113.623047"/>
      <use xlink:href="#DejaVuSans-69" x="152.832031"/>
      <use xlink:href="#DejaVuSans-6d" x="180.615234"/>
      <use xlink:href="#DejaVuSans-61" x="278.027344"/>
      <use xlink:href="#DejaVuSans-74" x="339.306641"/>
      <use xlink:href="#DejaVuSans-65" x="378.515625"/>
      <use xlink:href="#DejaVuSans-20" x="440.039062"/>
      <use xlink:href="#DejaVuSans-6d" x="471.826172"/>
      <use xlink:href="#DejaVuSans-61" x="569.238281"/>
      <use xlink:href="#DejaVuSans-69" x="630.517578"/>
      <use xlink:href="#DejaVuSans-6e" x="658.300781"/>
      <use xlink:href="#DejaVuSans-74" x="721.679688"/>
      <use xlink:href="#DejaVuSans-61" x="760.888672"/>
      <use xlink:href="#DejaVuSans-69" x="822.167969"/>
      <use xlink:href="#DejaVuSans-6e" x="849.951172"/>
      <use xlink:href="#DejaVuSans-65" x="913.330078"/>
      <use xlink:href="#DejaVuSans-64" x="974.853516"/>
      <use xlink:href="#DejaVuSans-20" x="1038.330078"/>
      <use xlink:href="#DejaVuSans-62" x="1070.117188"/>
      <use xlink:href="#DejaVuSans-79" x="1133.59375"/>
      <use xlink:href="#DejaVuSans-20" x="1192.773438"/>
      <use xlink:href="#DejaVuSans-36" x="1224.560547"/>
     </g>
    </g>
    <g id="line2d_22">
     <path d="M 160.777 116.3655 
L 178.057 116.3655 
L 195.337 116.3655 
" style="fill: none; stroke-dasharray: 44.8,11.2,7,11.2; stroke-dashoffset: 0; stroke: #ff0000; stroke-opacity: 0.6; stroke-width: 7"/>
    </g>
    <g id="text_26">
     <!-- estimate maintained by 7 -->
     <g transform="translate(209.161 122.4135) scale(0.1728 -0.1728)">
      <use xlink:href="#DejaVuSans-65"/>
      <use xlink:href="#DejaVuSans-73" x="61.523438"/>
      <use xlink:href="#DejaVuSans-74" x="113.623047"/>
      <use xlink:href="#DejaVuSans-69" x="152.832031"/>
      <use xlink:href="#DejaVuSans-6d" x="180.615234"/>
      <use xlink:href="#DejaVuSans-61" x="278.027344"/>
      <use xlink:href="#DejaVuSans-74" x="339.306641"/>
      <use xlink:href="#DejaVuSans-65" x="378.515625"/>
      <use xlink:href="#DejaVuSans-20" x="440.039062"/>
      <use xlink:href="#DejaVuSans-6d" x="471.826172"/>
      <use xlink:href="#DejaVuSans-61" x="569.238281"/>
      <use xlink:href="#DejaVuSans-69" x="630.517578"/>
      <use xlink:href="#DejaVuSans-6e" x="658.300781"/>
      <use xlink:href="#DejaVuSans-74" x="721.679688"/>
      <use xlink:href="#DejaVuSans-61" x="760.888672"/>
      <use xlink:href="#DejaVuSans-69" x="822.167969"/>
      <use xlink:href="#DejaVuSans-6e" x="849.951172"/>
      <use xlink:href="#DejaVuSans-65" x="913.330078"/>
      <use xlink:href="#DejaVuSans-64" x="974.853516"/>
      <use xlink:href="#DejaVuSans-20" x="1038.330078"/>
      <use xlink:href="#DejaVuSans-62" x="1070.117188"/>
      <use xlink:href="#DejaVuSans-79" x="1133.59375"/>
      <use xlink:href="#DejaVuSans-20" x="1192.773438"/>
      <use xlink:href="#DejaVuSans-37" x="1224.560547"/>
     </g>
    </g>
   </g>
  </g>
  <g id="line2d_23">
   <path d="M 493.875587 470.0528 
L 507.032213 511.7224 
" style="fill: none; stroke: #000000; stroke-opacity: 0.5; stroke-width: 2; stroke-linecap: square"/>
  </g>
  <g id="line2d_24">
   <path d="M 539.923778 464.1 
L 520.188839 511.7224 
" style="fill: none; stroke: #000000; stroke-opacity: 0.5; stroke-width: 2; stroke-linecap: square"/>
  </g>
  <g id="line2d_25">
   <path d="M 513.610526 529.5808 
L 513.610526 559.3448 
" style="fill: none; stroke: #000000; stroke-opacity: 0.5; stroke-width: 2; stroke-linecap: square"/>
  </g>
 </g>
 <defs>
  <clipPath id="p5158d8d3e7">
   <rect x="145.225" y="17.64" width="657.831297" height="595.28"/>
  </clipPath>
 </defs>
</svg>
