<?xml version="1.0" encoding="utf-8" standalone="no"?>
<!DOCTYPE svg PUBLIC "-//W3C//DTD SVG 1.1//EN"
  "http://www.w3.org/Graphics/SVG/1.1/DTD/svg11.dtd">
<svg xmlns:xlink="http://www.w3.org/1999/xlink" width="864pt" height="648pt" viewBox="0 0 864 648" xmlns="http://www.w3.org/2000/svg" version="1.1">
 <metadata>
  <rdf:RDF xmlns:dc="http://purl.org/dc/elements/1.1/" xmlns:cc="http://creativecommons.org/ns#" xmlns:rdf="http://www.w3.org/1999/02/22-rdf-syntax-ns#">
   <cc:Work>
    <dc:type rdf:resource="http://purl.org/dc/dcmitype/StillImage"/>
    <dc:date>2024-10-29T16:00:26.044254</dc:date>
    <dc:format>image/svg+xml</dc:format>
    <dc:creator>
     <cc:Agent>
      <dc:title>Matplotlib v3.9.2, https://matplotlib.org/</dc:title>
     </cc:Agent>
    </dc:creator>
   </cc:Work>
  </rdf:RDF>
 </metadata>
 <defs>
  <style type="text/css">*{stroke-linejoin: round; stroke-linecap: butt}</style>
 </defs>
 <g id="figure_1">
  <g id="patch_1">
   <path d="M 0 648 
L 864 648 
L 864 0 
L 0 0 
z
" style="fill: #ffffff"/>
  </g>
  <g id="axes_1">
   <g id="patch_2">
    <path d="M 145.225 612.92 
L 803.056297 612.92 
L 803.056297 17.64 
L 145.225 17.64 
z
" style="fill: #ffffff"/>
   </g>
   <g id="matplotlib.axis_1">
    <g id="xtick_1">
     <g id="line2d_1">
      <defs>
       <path id="mb5ef21b3f4" d="M 0 0 
L 0 3.5 
" style="stroke: #000000; stroke-width: 0.8"/>
      </defs>
      <g>
       <use xlink:href="#mb5ef21b3f4" x="205.008974" y="612.92" style="stroke: #000000; stroke-width: 0.8"/>
      </g>
     </g>
     <g id="text_1">
      <!-- 2021-08-31 -->
      <g transform="translate(154.797074 633.0501) scale(0.1728 -0.1728)">
       <defs>
        <path id="DejaVuSans-32" d="M 1228 531 
L 3431 531 
L 3431 0 
L 469 0 
L 469 531 
Q 828 903 1448 1529 
Q 2069 2156 2228 2338 
Q 2531 2678 2651 2914 
Q 2772 3150 2772 3378 
Q 2772 3750 2511 3984 
Q 2250 4219 1831 4219 
Q 1534 4219 1204 4116 
Q 875 4013 500 3803 
L 500 4441 
Q 881 4594 1212 4672 
Q 1544 4750 1819 4750 
Q 2544 4750 2975 4387 
Q 3406 4025 3406 3419 
Q 3406 3131 3298 2873 
Q 3191 2616 2906 2266 
Q 2828 2175 2409 1742 
Q 1991 1309 1228 531 
z
" transform="scale(0.015625)"/>
        <path id="DejaVuSans-30" d="M 2034 4250 
Q 1547 4250 1301 3770 
Q 1056 3291 1056 2328 
Q 1056 1369 1301 889 
Q 1547 409 2034 409 
Q 2525 409 2770 889 
Q 3016 1369 3016 2328 
Q 3016 3291 2770 3770 
Q 2525 4250 2034 4250 
z
M 2034 4750 
Q 2819 4750 3233 4129 
Q 3647 3509 3647 2328 
Q 3647 1150 3233 529 
Q 2819 -91 2034 -91 
Q 1250 -91 836 529 
Q 422 1150 422 2328 
Q 422 3509 836 4129 
Q 1250 4750 2034 4750 
z
" transform="scale(0.015625)"/>
        <path id="DejaVuSans-31" d="M 794 531 
L 1825 531 
L 1825 4091 
L 703 3866 
L 703 4441 
L 1819 4666 
L 2450 4666 
L 2450 531 
L 3481 531 
L 3481 0 
L 794 0 
L 794 531 
z
" transform="scale(0.015625)"/>
        <path id="DejaVuSans-2d" d="M 313 2009 
L 1997 2009 
L 1997 1497 
L 313 1497 
L 313 2009 
z
" transform="scale(0.015625)"/>
        <path id="DejaVuSans-38" d="M 2034 2216 
Q 1584 2216 1326 1975 
Q 1069 1734 1069 1313 
Q 1069 891 1326 650 
Q 1584 409 2034 409 
Q 2484 409 2743 651 
Q 3003 894 3003 1313 
Q 3003 1734 2745 1975 
Q 2488 2216 2034 2216 
z
M 1403 2484 
Q 997 2584 770 2862 
Q 544 3141 544 3541 
Q 544 4100 942 4425 
Q 1341 4750 2034 4750 
Q 2731 4750 3128 4425 
Q 3525 4100 3525 3541 
Q 3525 3141 3298 2862 
Q 3072 2584 2669 2484 
Q 3125 2378 3379 2068 
Q 3634 1759 3634 1313 
Q 3634 634 3220 271 
Q 2806 -91 2034 -91 
Q 1263 -91 848 271 
Q 434 634 434 1313 
Q 434 1759 690 2068 
Q 947 2378 1403 2484 
z
M 1172 3481 
Q 1172 3119 1398 2916 
Q 1625 2713 2034 2713 
Q 2441 2713 2670 2916 
Q 2900 3119 2900 3481 
Q 2900 3844 2670 4047 
Q 2441 4250 2034 4250 
Q 1625 4250 1398 4047 
Q 1172 3844 1172 3481 
z
" transform="scale(0.015625)"/>
        <path id="DejaVuSans-33" d="M 2597 2516 
Q 3050 2419 3304 2112 
Q 3559 1806 3559 1356 
Q 3559 666 3084 287 
Q 2609 -91 1734 -91 
Q 1441 -91 1130 -33 
Q 819 25 488 141 
L 488 750 
Q 750 597 1062 519 
Q 1375 441 1716 441 
Q 2309 441 2620 675 
Q 2931 909 2931 1356 
Q 2931 1769 2642 2001 
Q 2353 2234 1838 2234 
L 1294 2234 
L 1294 2753 
L 1863 2753 
Q 2328 2753 2575 2939 
Q 2822 3125 2822 3475 
Q 2822 3834 2567 4026 
Q 2313 4219 1838 4219 
Q 1578 4219 1281 4162 
Q 984 4106 628 3988 
L 628 4550 
Q 988 4650 1302 4700 
Q 1616 4750 1894 4750 
Q 2613 4750 3031 4423 
Q 3450 4097 3450 3541 
Q 3450 3153 3228 2886 
Q 3006 2619 2597 2516 
z
" transform="scale(0.015625)"/>
       </defs>
       <use xlink:href="#DejaVuSans-32"/>
       <use xlink:href="#DejaVuSans-30" x="63.623047"/>
       <use xlink:href="#DejaVuSans-32" x="127.246094"/>
       <use xlink:href="#DejaVuSans-31" x="190.869141"/>
       <use xlink:href="#DejaVuSans-2d" x="254.492188"/>
       <use xlink:href="#DejaVuSans-30" x="290.576172"/>
       <use xlink:href="#DejaVuSans-38" x="354.199219"/>
       <use xlink:href="#DejaVuSans-2d" x="417.822266"/>
       <use xlink:href="#DejaVuSans-33" x="453.90625"/>
       <use xlink:href="#DejaVuSans-31" x="517.529297"/>
      </g>
     </g>
    </g>
    <g id="xtick_2">
     <g id="line2d_2">
      <g>
       <use xlink:href="#mb5ef21b3f4" x="354.468909" y="612.92" style="stroke: #000000; stroke-width: 0.8"/>
      </g>
     </g>
     <g id="text_2">
      <!-- 2021-09-05 -->
      <g transform="translate(304.257009 633.0501) scale(0.1728 -0.1728)">
       <defs>
        <path id="DejaVuSans-39" d="M 703 97 
L 703 672 
Q 941 559 1184 500 
Q 1428 441 1663 441 
Q 2288 441 2617 861 
Q 2947 1281 2994 2138 
Q 2813 1869 2534 1725 
Q 2256 1581 1919 1581 
Q 1219 1581 811 2004 
Q 403 2428 403 3163 
Q 403 3881 828 4315 
Q 1253 4750 1959 4750 
Q 2769 4750 3195 4129 
Q 3622 3509 3622 2328 
Q 3622 1225 3098 567 
Q 2575 -91 1691 -91 
Q 1453 -91 1209 -44 
Q 966 3 703 97 
z
M 1959 2075 
Q 2384 2075 2632 2365 
Q 2881 2656 2881 3163 
Q 2881 3666 2632 3958 
Q 2384 4250 1959 4250 
Q 1534 4250 1286 3958 
Q 1038 3666 1038 3163 
Q 1038 2656 1286 2365 
Q 1534 2075 1959 2075 
z
" transform="scale(0.015625)"/>
        <path id="DejaVuSans-35" d="M 691 4666 
L 3169 4666 
L 3169 4134 
L 1269 4134 
L 1269 2991 
Q 1406 3038 1543 3061 
Q 1681 3084 1819 3084 
Q 2600 3084 3056 2656 
Q 3513 2228 3513 1497 
Q 3513 744 3044 326 
Q 2575 -91 1722 -91 
Q 1428 -91 1123 -41 
Q 819 9 494 109 
L 494 744 
Q 775 591 1075 516 
Q 1375 441 1709 441 
Q 2250 441 2565 725 
Q 2881 1009 2881 1497 
Q 2881 1984 2565 2268 
Q 2250 2553 1709 2553 
Q 1456 2553 1204 2497 
Q 953 2441 691 2322 
L 691 4666 
z
" transform="scale(0.015625)"/>
       </defs>
       <use xlink:href="#DejaVuSans-32"/>
       <use xlink:href="#DejaVuSans-30" x="63.623047"/>
       <use xlink:href="#DejaVuSans-32" x="127.246094"/>
       <use xlink:href="#DejaVuSans-31" x="190.869141"/>
       <use xlink:href="#DejaVuSans-2d" x="254.492188"/>
       <use xlink:href="#DejaVuSans-30" x="290.576172"/>
       <use xlink:href="#DejaVuSans-39" x="354.199219"/>
       <use xlink:href="#DejaVuSans-2d" x="417.822266"/>
       <use xlink:href="#DejaVuSans-30" x="453.90625"/>
       <use xlink:href="#DejaVuSans-35" x="517.529297"/>
      </g>
     </g>
    </g>
    <g id="xtick_3">
     <g id="line2d_3">
      <g>
       <use xlink:href="#mb5ef21b3f4" x="503.928844" y="612.92" style="stroke: #000000; stroke-width: 0.8"/>
      </g>
     </g>
     <g id="text_3">
      <!-- 2021-09-10 -->
      <g transform="translate(453.716944 633.0501) scale(0.1728 -0.1728)">
       <use xlink:href="#DejaVuSans-32"/>
       <use xlink:href="#DejaVuSans-30" x="63.623047"/>
       <use xlink:href="#DejaVuSans-32" x="127.246094"/>
       <use xlink:href="#DejaVuSans-31" x="190.869141"/>
       <use xlink:href="#DejaVuSans-2d" x="254.492188"/>
       <use xlink:href="#DejaVuSans-30" x="290.576172"/>
       <use xlink:href="#DejaVuSans-39" x="354.199219"/>
       <use xlink:href="#DejaVuSans-2d" x="417.822266"/>
       <use xlink:href="#DejaVuSans-31" x="453.90625"/>
       <use xlink:href="#DejaVuSans-30" x="517.529297"/>
      </g>
     </g>
    </g>
    <g id="xtick_4">
     <g id="line2d_4">
      <g>
       <use xlink:href="#mb5ef21b3f4" x="653.388779" y="612.92" style="stroke: #000000; stroke-width: 0.8"/>
      </g>
     </g>
     <g id="text_4">
      <!-- 2021-09-15 -->
      <g transform="translate(603.176879 633.0501) scale(0.1728 -0.1728)">
       <use xlink:href="#DejaVuSans-32"/>
       <use xlink:href="#DejaVuSans-30" x="63.623047"/>
       <use xlink:href="#DejaVuSans-32" x="127.246094"/>
       <use xlink:href="#DejaVuSans-31" x="190.869141"/>
       <use xlink:href="#DejaVuSans-2d" x="254.492188"/>
       <use xlink:href="#DejaVuSans-30" x="290.576172"/>
       <use xlink:href="#DejaVuSans-39" x="354.199219"/>
       <use xlink:href="#DejaVuSans-2d" x="417.822266"/>
       <use xlink:href="#DejaVuSans-31" x="453.90625"/>
       <use xlink:href="#DejaVuSans-35" x="517.529297"/>
      </g>
     </g>
    </g>
    <g id="xtick_5">
     <g id="line2d_5">
      <g>
       <use xlink:href="#mb5ef21b3f4" x="802.848714" y="612.92" style="stroke: #000000; stroke-width: 0.8"/>
      </g>
     </g>
     <g id="text_5">
      <!-- 2021-09-20 -->
      <g transform="translate(752.636814 633.0501) scale(0.1728 -0.1728)">
       <use xlink:href="#DejaVuSans-32"/>
       <use xlink:href="#DejaVuSans-30" x="63.623047"/>
       <use xlink:href="#DejaVuSans-32" x="127.246094"/>
       <use xlink:href="#DejaVuSans-31" x="190.869141"/>
       <use xlink:href="#DejaVuSans-2d" x="254.492188"/>
       <use xlink:href="#DejaVuSans-30" x="290.576172"/>
       <use xlink:href="#DejaVuSans-39" x="354.199219"/>
       <use xlink:href="#DejaVuSans-2d" x="417.822266"/>
       <use xlink:href="#DejaVuSans-32" x="453.90625"/>
       <use xlink:href="#DejaVuSans-30" x="517.529297"/>
      </g>
     </g>
    </g>
   </g>
   <g id="matplotlib.axis_2">
    <g id="ytick_1">
     <g id="line2d_6">
      <defs>
       <path id="m423c75bd3f" d="M 0 0 
L -3.5 0 
" style="stroke: #000000; stroke-width: 0.8"/>
      </defs>
      <g>
       <use xlink:href="#m423c75bd3f" x="145.225" y="612.92" style="stroke: #000000; stroke-width: 0.8"/>
      </g>
     </g>
     <g id="text_6">
      <!-- −0.50 -->
      <g transform="translate(85.2699 619.48505) scale(0.1728 -0.1728)">
       <defs>
        <path id="DejaVuSans-2212" d="M 678 2272 
L 4684 2272 
L 4684 1741 
L 678 1741 
L 678 2272 
z
" transform="scale(0.015625)"/>
        <path id="DejaVuSans-2e" d="M 684 794 
L 1344 794 
L 1344 0 
L 684 0 
L 684 794 
z
" transform="scale(0.015625)"/>
       </defs>
       <use xlink:href="#DejaVuSans-2212"/>
       <use xlink:href="#DejaVuSans-30" x="83.789062"/>
       <use xlink:href="#DejaVuSans-2e" x="147.412109"/>
       <use xlink:href="#DejaVuSans-35" x="179.199219"/>
       <use xlink:href="#DejaVuSans-30" x="242.822266"/>
      </g>
     </g>
    </g>
    <g id="ytick_2">
     <g id="line2d_7">
      <g>
       <use xlink:href="#m423c75bd3f" x="145.225" y="538.51" style="stroke: #000000; stroke-width: 0.8"/>
      </g>
     </g>
     <g id="text_7">
      <!-- −0.25 -->
      <g transform="translate(85.2699 545.07505) scale(0.1728 -0.1728)">
       <use xlink:href="#DejaVuSans-2212"/>
       <use xlink:href="#DejaVuSans-30" x="83.789062"/>
       <use xlink:href="#DejaVuSans-2e" x="147.412109"/>
       <use xlink:href="#DejaVuSans-32" x="179.199219"/>
       <use xlink:href="#DejaVuSans-35" x="242.822266"/>
      </g>
     </g>
    </g>
    <g id="ytick_3">
     <g id="line2d_8">
      <g>
       <use xlink:href="#m423c75bd3f" x="145.225" y="464.1" style="stroke: #000000; stroke-width: 0.8"/>
      </g>
     </g>
     <g id="text_8">
      <!-- 0.00 -->
      <g transform="translate(99.75 470.66505) scale(0.1728 -0.1728)">
       <use xlink:href="#DejaVuSans-30"/>
       <use xlink:href="#DejaVuSans-2e" x="63.623047"/>
       <use xlink:href="#DejaVuSans-30" x="95.410156"/>
       <use xlink:href="#DejaVuSans-30" x="159.033203"/>
      </g>
     </g>
    </g>
    <g id="ytick_4">
     <g id="line2d_9">
      <g>
       <use xlink:href="#m423c75bd3f" x="145.225" y="389.69" style="stroke: #000000; stroke-width: 0.8"/>
      </g>
     </g>
     <g id="text_9">
      <!-- 0.25 -->
      <g transform="translate(99.75 396.25505) scale(0.1728 -0.1728)">
       <use xlink:href="#DejaVuSans-30"/>
       <use xlink:href="#DejaVuSans-2e" x="63.623047"/>
       <use xlink:href="#DejaVuSans-32" x="95.410156"/>
       <use xlink:href="#DejaVuSans-35" x="159.033203"/>
      </g>
     </g>
    </g>
    <g id="ytick_5">
     <g id="line2d_10">
      <g>
       <use xlink:href="#m423c75bd3f" x="145.225" y="315.28" style="stroke: #000000; stroke-width: 0.8"/>
      </g>
     </g>
     <g id="text_10">
      <!-- 0.50 -->
      <g transform="translate(99.75 321.84505) scale(0.1728 -0.1728)">
       <use xlink:href="#DejaVuSans-30"/>
       <use xlink:href="#DejaVuSans-2e" x="63.623047"/>
       <use xlink:href="#DejaVuSans-35" x="95.410156"/>
       <use xlink:href="#DejaVuSans-30" x="159.033203"/>
      </g>
     </g>
    </g>
    <g id="ytick_6">
     <g id="line2d_11">
      <g>
       <use xlink:href="#m423c75bd3f" x="145.225" y="240.87" style="stroke: #000000; stroke-width: 0.8"/>
      </g>
     </g>
     <g id="text_11">
      <!-- 0.75 -->
      <g transform="translate(99.75 247.43505) scale(0.1728 -0.1728)">
       <defs>
        <path id="DejaVuSans-37" d="M 525 4666 
L 3525 4666 
L 3525 4397 
L 1831 0 
L 1172 0 
L 2766 4134 
L 525 4134 
L 525 4666 
z
" transform="scale(0.015625)"/>
       </defs>
       <use xlink:href="#DejaVuSans-30"/>
       <use xlink:href="#DejaVuSans-2e" x="63.623047"/>
       <use xlink:href="#DejaVuSans-37" x="95.410156"/>
       <use xlink:href="#DejaVuSans-35" x="159.033203"/>
      </g>
     </g>
    </g>
    <g id="ytick_7">
     <g id="line2d_12">
      <g>
       <use xlink:href="#m423c75bd3f" x="145.225" y="166.46" style="stroke: #000000; stroke-width: 0.8"/>
      </g>
     </g>
     <g id="text_12">
      <!-- 1.00 -->
      <g transform="translate(99.75 173.02505) scale(0.1728 -0.1728)">
       <use xlink:href="#DejaVuSans-31"/>
       <use xlink:href="#DejaVuSans-2e" x="63.623047"/>
       <use xlink:href="#DejaVuSans-30" x="95.410156"/>
       <use xlink:href="#DejaVuSans-30" x="159.033203"/>
      </g>
     </g>
    </g>
    <g id="ytick_8">
     <g id="line2d_13">
      <g>
       <use xlink:href="#m423c75bd3f" x="145.225" y="92.05" style="stroke: #000000; stroke-width: 0.8"/>
      </g>
     </g>
     <g id="text_13">
      <!-- 1.25 -->
      <g transform="translate(99.75 98.61505) scale(0.1728 -0.1728)">
       <use xlink:href="#DejaVuSans-31"/>
       <use xlink:href="#DejaVuSans-2e" x="63.623047"/>
       <use xlink:href="#DejaVuSans-32" x="95.410156"/>
       <use xlink:href="#DejaVuSans-35" x="159.033203"/>
      </g>
     </g>
    </g>
    <g id="ytick_9">
     <g id="line2d_14">
      <g>
       <use xlink:href="#m423c75bd3f" x="145.225" y="17.64" style="stroke: #000000; stroke-width: 0.8"/>
      </g>
     </g>
     <g id="text_14">
      <!-- 1.50 -->
      <g transform="translate(99.75 24.20505) scale(0.1728 -0.1728)">
       <use xlink:href="#DejaVuSans-31"/>
       <use xlink:href="#DejaVuSans-2e" x="63.623047"/>
       <use xlink:href="#DejaVuSans-35" x="95.410156"/>
       <use xlink:href="#DejaVuSans-30" x="159.033203"/>
      </g>
     </g>
    </g>
    <g id="text_15">
     <!-- Node 8 -->
     <g transform="translate(24.47505 292.33648) scale(0.1728 -0.1728)">
      <defs>
       <path id="DejaVuSans-4e" d="M 628 4666 
L 1478 4666 
L 3547 763 
L 3547 4666 
L 4159 4666 
L 4159 0 
L 3309 0 
L 1241 3903 
L 1241 0 
L 628 0 
L 628 4666 
z
" transform="scale(0.015625)"/>
       <path id="DejaVuSans-6f" d="M 1959 3097 
Q 1497 3097 1228 2736 
Q 959 2375 959 1747 
Q 959 1119 1226 758 
Q 1494 397 1959 397 
Q 2419 397 2687 759 
Q 2956 1122 2956 1747 
Q 2956 2369 2687 2733 
Q 2419 3097 1959 3097 
z
M 1959 3584 
Q 2709 3584 3137 3096 
Q 3566 2609 3566 1747 
Q 3566 888 3137 398 
Q 2709 -91 1959 -91 
Q 1206 -91 779 398 
Q 353 888 353 1747 
Q 353 2609 779 3096 
Q 1206 3584 1959 3584 
z
" transform="scale(0.015625)"/>
       <path id="DejaVuSans-64" d="M 2906 2969 
L 2906 4863 
L 3481 4863 
L 3481 0 
L 2906 0 
L 2906 525 
Q 2725 213 2448 61 
Q 2172 -91 1784 -91 
Q 1150 -91 751 415 
Q 353 922 353 1747 
Q 353 2572 751 3078 
Q 1150 3584 1784 3584 
Q 2172 3584 2448 3432 
Q 2725 3281 2906 2969 
z
M 947 1747 
Q 947 1113 1208 752 
Q 1469 391 1925 391 
Q 2381 391 2643 752 
Q 2906 1113 2906 1747 
Q 2906 2381 2643 2742 
Q 2381 3103 1925 3103 
Q 1469 3103 1208 2742 
Q 947 2381 947 1747 
z
" transform="scale(0.015625)"/>
       <path id="DejaVuSans-65" d="M 3597 1894 
L 3597 1613 
L 953 1613 
Q 991 1019 1311 708 
Q 1631 397 2203 397 
Q 2534 397 2845 478 
Q 3156 559 3463 722 
L 3463 178 
Q 3153 47 2828 -22 
Q 2503 -91 2169 -91 
Q 1331 -91 842 396 
Q 353 884 353 1716 
Q 353 2575 817 3079 
Q 1281 3584 2069 3584 
Q 2775 3584 3186 3129 
Q 3597 2675 3597 1894 
z
M 3022 2063 
Q 3016 2534 2758 2815 
Q 2500 3097 2075 3097 
Q 1594 3097 1305 2825 
Q 1016 2553 972 2059 
L 3022 2063 
z
" transform="scale(0.015625)"/>
       <path id="DejaVuSans-20" transform="scale(0.015625)"/>
      </defs>
      <use xlink:href="#DejaVuSans-4e"/>
      <use xlink:href="#DejaVuSans-6f" x="74.804688"/>
      <use xlink:href="#DejaVuSans-64" x="135.986328"/>
      <use xlink:href="#DejaVuSans-65" x="199.462891"/>
      <use xlink:href="#DejaVuSans-20" x="260.986328"/>
      <use xlink:href="#DejaVuSans-38" x="292.773438"/>
     </g>
     <!-- Depth (m) -->
     <g transform="translate(11.0493 311.6863) scale(0.1728 -0.1728)">
      <defs>
       <path id="DejaVuSans-44" d="M 1259 4147 
L 1259 519 
L 2022 519 
Q 2988 519 3436 956 
Q 3884 1394 3884 2338 
Q 3884 3275 3436 3711 
Q 2988 4147 2022 4147 
L 1259 4147 
z
M 628 4666 
L 1925 4666 
Q 3281 4666 3915 4102 
Q 4550 3538 4550 2338 
Q 4550 1131 3912 565 
Q 3275 0 1925 0 
L 628 0 
L 628 4666 
z
" transform="scale(0.015625)"/>
       <path id="DejaVuSans-70" d="M 1159 525 
L 1159 -1331 
L 581 -1331 
L 581 3500 
L 1159 3500 
L 1159 2969 
Q 1341 3281 1617 3432 
Q 1894 3584 2278 3584 
Q 2916 3584 3314 3078 
Q 3713 2572 3713 1747 
Q 3713 922 3314 415 
Q 2916 -91 2278 -91 
Q 1894 -91 1617 61 
Q 1341 213 1159 525 
z
M 3116 1747 
Q 3116 2381 2855 2742 
Q 2594 3103 2138 3103 
Q 1681 3103 1420 2742 
Q 1159 2381 1159 1747 
Q 1159 1113 1420 752 
Q 1681 391 2138 391 
Q 2594 391 2855 752 
Q 3116 1113 3116 1747 
z
" transform="scale(0.015625)"/>
       <path id="DejaVuSans-74" d="M 1172 4494 
L 1172 3500 
L 2356 3500 
L 2356 3053 
L 1172 3053 
L 1172 1153 
Q 1172 725 1289 603 
Q 1406 481 1766 481 
L 2356 481 
L 2356 0 
L 1766 0 
Q 1100 0 847 248 
Q 594 497 594 1153 
L 594 3053 
L 172 3053 
L 172 3500 
L 594 3500 
L 594 4494 
L 1172 4494 
z
" transform="scale(0.015625)"/>
       <path id="DejaVuSans-68" d="M 3513 2113 
L 3513 0 
L 2938 0 
L 2938 2094 
Q 2938 2591 2744 2837 
Q 2550 3084 2163 3084 
Q 1697 3084 1428 2787 
Q 1159 2491 1159 1978 
L 1159 0 
L 581 0 
L 581 4863 
L 1159 4863 
L 1159 2956 
Q 1366 3272 1645 3428 
Q 1925 3584 2291 3584 
Q 2894 3584 3203 3211 
Q 3513 2838 3513 2113 
z
" transform="scale(0.015625)"/>
       <path id="DejaVuSans-28" d="M 1984 4856 
Q 1566 4138 1362 3434 
Q 1159 2731 1159 2009 
Q 1159 1288 1364 580 
Q 1569 -128 1984 -844 
L 1484 -844 
Q 1016 -109 783 600 
Q 550 1309 550 2009 
Q 550 2706 781 3412 
Q 1013 4119 1484 4856 
L 1984 4856 
z
" transform="scale(0.015625)"/>
       <path id="DejaVuSans-6d" d="M 3328 2828 
Q 3544 3216 3844 3400 
Q 4144 3584 4550 3584 
Q 5097 3584 5394 3201 
Q 5691 2819 5691 2113 
L 5691 0 
L 5113 0 
L 5113 2094 
Q 5113 2597 4934 2840 
Q 4756 3084 4391 3084 
Q 3944 3084 3684 2787 
Q 3425 2491 3425 1978 
L 3425 0 
L 2847 0 
L 2847 2094 
Q 2847 2600 2669 2842 
Q 2491 3084 2119 3084 
Q 1678 3084 1418 2786 
Q 1159 2488 1159 1978 
L 1159 0 
L 581 0 
L 581 3500 
L 1159 3500 
L 1159 2956 
Q 1356 3278 1631 3431 
Q 1906 3584 2284 3584 
Q 2666 3584 2933 3390 
Q 3200 3197 3328 2828 
z
" transform="scale(0.015625)"/>
       <path id="DejaVuSans-29" d="M 513 4856 
L 1013 4856 
Q 1481 4119 1714 3412 
Q 1947 2706 1947 2009 
Q 1947 1309 1714 600 
Q 1481 -109 1013 -844 
L 513 -844 
Q 928 -128 1133 580 
Q 1338 1288 1338 2009 
Q 1338 2731 1133 3434 
Q 928 4138 513 4856 
z
" transform="scale(0.015625)"/>
      </defs>
      <use xlink:href="#DejaVuSans-44"/>
      <use xlink:href="#DejaVuSans-65" x="77.001953"/>
      <use xlink:href="#DejaVuSans-70" x="138.525391"/>
      <use xlink:href="#DejaVuSans-74" x="202.001953"/>
      <use xlink:href="#DejaVuSans-68" x="241.210938"/>
      <use xlink:href="#DejaVuSans-20" x="304.589844"/>
      <use xlink:href="#DejaVuSans-28" x="336.376953"/>
      <use xlink:href="#DejaVuSans-6d" x="375.390625"/>
      <use xlink:href="#DejaVuSans-29" x="472.802734"/>
     </g>
    </g>
   </g>
   <g id="line2d_15">
    <path d="M 145.121208 394.884015 
L 147.197041 395.128986 
M 147.404624 395.14123 
L 149.480456 395.379991 
M 149.68804 395.391929 
L 150.829748 395.525285 
M 151.037331 395.537062 
L 156.642078 396.125924 
M 156.849662 396.136961 
L 157.36862 396.198174 
M 157.576203 396.209101 
L 158.406536 396.300342 
M 158.614119 396.311159 
L 161.312701 396.579699 
M 161.520285 396.590126 
L 167.125032 397.101278 
L 167.228824 396.84269 
L 167.332615 395.005832 
L 167.851573 375.219682 
L 168.059157 333.1472 
L 168.578115 166.795593 
L 168.785698 164.434362 
L 169.200865 160.989017 
L 169.304656 158.062694 
M 169.512239 157.010388 
L 169.719823 155.802918 
L 169.823614 155.781741 
L 170.031198 156.320267 
L 170.446364 158.261391 
L 172.522196 170.587452 
L 174.598029 183.415331 
L 181.344484 225.132994 
M 181.552068 225.762473 
L 182.486192 231.929783 
M 182.693775 232.553493 
L 183.939275 240.497703 
M 184.146858 241.118848 
L 185.599941 250.171193 
M 185.807524 250.785782 
L 187.053023 258.522018 
M 187.260607 259.129558 
L 190.06298 274.919692 
L 191.100897 280.610938 
L 191.204688 281.726449 
M 191.412272 282.309699 
L 192.969146 291.247906 
M 193.176729 291.81881 
L 195.460145 303.788791 
L 199.715601 324.754083 
L 199.819393 325.725788 
M 200.026976 326.229865 
L 201.999017 335.207861 
L 203.036933 340.15198 
M 203.244516 340.6108 
L 205.008974 347.881749 
L 208.745472 361.495207 
L 209.990972 365.746505 
M 210.198555 366.06918 
L 210.717513 367.881258 
M 210.925096 368.188239 
L 212.274387 371.810742 
L 213.519887 374.797566 
L 215.491928 378.677528 
L 215.907094 379.535762 
M 216.114677 379.70796 
L 217.048802 381.239621 
M 217.256385 381.386636 
L 218.398093 382.819383 
L 220.266342 384.701932 
L 221.511842 385.70631 
L 222.549758 386.467426 
M 222.757341 386.533118 
L 224.210424 387.320473 
L 225.144549 387.786088 
M 225.352132 387.830406 
L 227.116589 388.462473 
L 227.946922 388.732694 
M 228.777255 388.920633 
L 231.164463 389.411366 
L 234.900961 389.912273 
L 237.288168 390.132724 
M 237.495751 390.140925 
L 237.910918 390.17841 
M 238.118501 390.18605 
L 240.920875 390.360129 
M 241.128458 390.365694 
L 243.308082 390.470304 
M 243.515666 390.474795 
L 245.280123 390.545768 
M 245.487706 390.549604 
L 248.601455 390.6506 
M 248.809038 390.653657 
L 251.092454 390.716372 
M 251.300037 390.719057 
L 253.37587 390.770102 
M 253.583453 390.772537 
L 254.517577 390.795196 
M 254.725161 390.797541 
L 258.254076 390.871502 
M 258.461659 390.873619 
L 259.1882 390.889532 
M 259.395784 390.891621 
L 276.106235 391.089749 
L 283.267857 391.08912 
M 283.47544 391.089113 
L 292.297728 391.088466 
M 292.505311 391.088461 
L 294.684935 391.088313 
M 294.892518 391.088308 
L 295.307685 391.088275 
M 295.515268 391.08827 
L 302.884473 391.087841 
M 303.092056 391.087836 
L 306.51718 391.087652 
M 306.724763 391.087648 
L 310.253678 391.087468 
M 310.461261 391.087465 
L 313.782593 391.087309 
M 313.990177 391.087306 
L 314.509135 391.087277 
M 314.716718 391.087274 
L 315.962217 391.087213 
M 316.169801 391.08721 
L 319.283549 391.087081 
M 319.491132 391.087078 
L 323.123839 391.086931 
M 323.331422 391.086928 
L 325.09588 391.086859 
M 325.303463 391.086856 
L 329.143753 391.086712 
M 329.351337 391.086709 
L 329.974086 391.086681 
M 330.181669 391.086679 
L 330.804419 391.086651 
M 331.012002 391.086649 
L 331.219586 391.086642 
M 331.427169 391.086639 
L 335.578834 391.086507 
M 335.786417 391.086505 
L 335.994 391.086488 
M 336.201584 391.086486 
L 338.381208 391.086422 
M 338.588791 391.086419 
L 339.211541 391.086394 
M 339.419124 391.086392 
L 343.051831 391.086286 
M 343.259414 391.086279 
L 345.023871 391.086233 
M 345.231455 391.086231 
L 346.269371 391.086199 
M 346.476954 391.086197 
L 348.967953 391.086129 
M 349.175536 391.086127 
L 353.638576 391.08601 
M 353.846159 391.086008 
L 354.261326 391.085999 
M 354.468909 391.085997 
L 354.572701 391.085994 
M 354.780284 391.085982 
L 357.894032 391.085912 
M 358.101616 391.085911 
L 359.139532 391.085882 
M 359.347115 391.085881 
L 366.612529 391.085728 
M 366.820112 391.085726 
L 367.027695 391.085711 
M 367.442862 391.085707 
L 367.650445 391.085702 
M 367.858028 391.085701 
L 368.065611 391.085696 
M 368.273195 391.085695 
L 368.480778 391.08568 
M 368.688361 391.085678 
L 368.895944 391.085674 
M 369.103528 391.085672 
L 369.518694 391.085665 
M 369.726277 391.085664 
L 380.831981 391.085466 
M 381.039564 391.085464 
L 381.973689 391.085442 
M 382.181272 391.08544 
L 384.464688 391.085402 
L 384.568479 364.944534 
M 384.776062 340.271545 
L 385.087437 300.775164 
M 385.29502 289.533516 
L 385.606395 267.877573 
L 385.813979 263.068069 
M 386.021562 261.163863 
L 386.332937 258.081907 
L 386.748103 256.638659 
M 386.955686 256.497762 
L 387.474645 256.083838 
L 388.201186 255.817104 
L 389.446685 255.628355 
L 392.041476 255.495324 
M 392.249059 255.492694 
L 394.117308 255.458045 
M 394.324892 255.456697 
L 394.947641 255.448648 
M 395.155225 255.447583 
L 406.157136 255.404868 
M 406.36472 255.404714 
L 406.987469 255.40375 
M 407.195053 255.403609 
L 418.923506 255.394937 
M 419.131089 255.394891 
L 422.037254 255.393775 
M 422.244838 255.393737 
L 422.452421 255.393637 
M 422.660004 255.393602 
L 428.991293 255.391904 
M 429.198876 255.391881 
L 432.208833 255.391267 
M 432.416417 255.391248 
L 433.765708 255.390996 
M 433.973291 255.390978 
L 434.388457 255.390894 
M 434.596041 255.390877 
L 435.426374 255.390731 
M 435.633957 255.390715 
L 436.256707 255.335398 
L 436.46429 254.012709 
L 436.879456 247.548623 
L 437.709789 223.744839 
L 437.813581 205.382832 
M 438.021164 192.634333 
L 438.228747 179.441975 
L 438.540122 166.348545 
M 438.747706 162.533398 
L 439.578039 126.420686 
M 439.785622 124.73497 
L 439.993205 123.738225 
L 440.200788 123.64429 
L 440.512163 124.031935 
L 441.238704 125.65045 
L 442.484204 128.830947 
L 442.587996 128.827102 
L 442.691787 128.110184 
M 442.89937 127.509533 
L 443.210745 126.074364 
L 443.418329 126.050399 
L 443.729703 126.476233 
L 444.14487 127.341332 
L 444.248661 127.825329 
M 444.456245 128.096072 
L 446.635869 133.702144 
L 448.088951 137.720626 
M 448.296535 137.99021 
L 450.164784 142.971412 
M 450.372367 143.237083 
L 453.070949 149.80724 
L 456.184698 156.993912 
L 456.28849 157.45811 
M 456.496073 157.699929 
L 458.468114 162.029768 
L 459.090863 163.365671 
L 459.194655 163.78756 
M 459.402238 164.017688 
L 463.657695 172.821967 
M 463.865278 173.034 
L 465.318361 175.973208 
M 465.525944 176.177417 
L 470.507942 184.938923 
L 471.545858 186.798765 
M 471.753441 186.976749 
L 472.376191 188.126338 
M 472.583774 188.300981 
L 476.735439 194.663053 
M 476.943022 194.820901 
L 478.70748 197.38465 
M 478.915063 197.534607 
L 479.434021 198.350937 
M 479.641604 198.498081 
L 480.160563 199.29873 
M 480.368146 199.442865 
L 483.378103 203.271784 
M 483.585686 203.403699 
L 484.312227 204.359094 
M 484.519811 204.487611 
L 485.246352 205.417491 
M 485.453935 205.542602 
L 488.463892 208.848811 
M 488.671475 208.962676 
L 491.992807 212.158005 
L 492.615557 212.812063 
M 492.82314 212.912613 
L 494.06864 214.08375 
M 494.276223 214.172418 
L 495.833097 215.468355 
L 498.116513 217.331739 
M 498.324096 217.41634 
L 500.711304 219.200926 
M 500.918887 219.278625 
L 503.825052 221.24262 
M 504.032635 221.307221 
L 504.136427 221.435229 
M 504.34401 221.504677 
L 508.1843 223.709813 
L 511.817007 225.547028 
L 515.968672 227.381552 
L 517.11038 227.877849 
M 517.317963 227.918715 
L 520.743087 229.213349 
M 520.95067 229.249336 
L 525.725084 230.781903 
M 525.932668 230.811949 
L 527.593334 231.300405 
M 527.800917 231.330858 
L 529.461583 231.784565 
M 529.669166 231.810715 
L 531.122249 232.187927 
M 531.329832 232.212385 
L 532.679123 232.5442 
M 532.886706 232.567268 
L 536.830788 233.399709 
M 537.038371 233.419717 
L 542.539327 234.380209 
M 542.74691 234.396382 
L 544.511368 234.673322 
M 544.718951 234.688264 
L 545.549284 234.819209 
M 545.756867 234.833713 
L 546.483409 234.945724 
M 546.690992 234.959743 
L 548.247866 235.17311 
M 548.455449 235.186079 
L 550.842657 235.481557 
M 551.05024 235.493376 
L 553.333656 235.751014 
M 553.541239 235.761895 
L 556.343613 236.045172 
M 556.551196 236.054819 
L 557.070154 236.111412 
M 557.277737 236.120832 
L 557.796695 236.175919 
M 558.004279 236.185069 
L 558.523237 236.238738 
M 558.73082 236.247672 
L 561.94836 236.513321 
M 562.155943 236.521192 
L 563.297651 236.612416 
M 563.505235 236.619992 
L 566.4114 236.823433 
M 566.618983 236.830134 
L 569.421357 237.006131 
M 569.62894 237.012153 
L 572.327522 237.164867 
M 572.535106 237.170357 
L 579.800519 237.505946 
M 580.008102 237.510185 
L 580.319477 237.526519 
M 580.52706 237.530696 
L 584.678725 237.685827 
M 584.886309 237.689391 
L 586.131808 237.733981 
M 586.339391 237.737425 
L 591.528972 237.894083 
M 591.736556 237.896979 
L 599.001969 238.075174 
M 599.209552 238.07747 
L 606.682549 238.223624 
M 606.890132 238.225476 
L 608.862173 238.260216 
M 609.069756 238.261944 
L 611.041797 238.294712 
M 611.24938 238.296359 
L 612.079713 238.310452 
M 612.287297 238.312035 
L 614.882087 238.350902 
M 615.08967 238.352396 
L 616.231378 238.369383 
M 616.438962 238.370809 
L 619.241335 238.408464 
M 619.448919 238.409792 
L 620.902001 238.428858 
M 621.109584 238.43015 
L 621.213376 238.432592 
M 621.420959 238.433874 
L 626.61054 238.49337 
M 626.818124 238.494498 
L 635.640411 238.580892 
M 635.847995 238.581845 
L 636.782119 238.590914 
M 636.989703 238.59184 
L 639.065535 238.610354 
M 639.273118 238.611245 
L 641.037576 238.626536 
M 641.245159 238.627399 
L 641.348951 238.628267 
L 641.452742 238.277897 
L 641.660326 232.303259 
L 642.283075 204.391441 
L 642.59445 203.05242 
L 642.802033 202.766776 
M 643.009617 202.75575 
L 643.424783 202.90564 
L 643.83995 203.209487 
L 643.943741 203.379979 
M 644.151324 203.474211 
L 646.019574 205.344553 
L 646.43474 205.714366 
L 646.538532 205.470741 
L 646.746115 203.697961 
L 647.265073 195.954181 
L 647.472656 195.427476 
L 647.68024 195.2616 
L 647.991614 195.310594 
L 648.510573 195.704422 
L 649.237114 196.468139 
L 649.859864 197.129561 
L 649.963655 196.883895 
L 650.378822 195.042898 
L 650.690197 194.842049 
L 651.001571 194.950203 
L 651.624321 195.484091 
L 652.973612 197.026896 
L 653.803945 198.148469 
M 654.011528 198.275054 
L 658.059402 203.007129 
L 658.370777 203.460934 
M 658.57836 203.577255 
L 661.7959 206.963995 
L 668.646147 213.171944 
L 671.033354 215.115883 
M 671.240938 215.195269 
L 671.448521 215.426197 
M 671.656104 215.50546 
L 674.043311 217.272795 
M 674.250895 217.345768 
L 677.15706 219.230855 
L 682.554224 222.323703 
M 682.761808 222.378748 
L 684.318682 223.199442 
M 684.526265 223.250705 
L 687.536222 224.623072 
L 688.574138 225.10224 
M 688.781722 225.146489 
L 689.92343 225.64813 
M 690.131013 225.69028 
L 691.791679 226.361994 
M 691.999262 226.401938 
L 692.829595 226.738359 
M 693.037178 226.776878 
L 694.178886 227.207775 
M 694.386469 227.244626 
L 697.188843 228.244708 
M 697.396426 228.28114 
L 699.57605 229.092153 
M 699.783634 229.131111 
L 699.887425 229.20545 
M 700.095008 229.244558 
L 701.755674 229.903169 
M 701.963258 229.943374 
L 705.699756 231.490119 
M 705.907339 231.535352 
L 707.152839 232.115884 
M 707.360422 232.162925 
L 710.785545 233.770955 
M 711.200712 233.920653 
L 719.40025 238.121631 
M 719.815417 238.291004 
L 723.344332 240.210273 
L 723.448123 240.319919 
M 723.655707 240.379927 
L 724.589831 240.953121 
M 724.797414 241.014421 
L 728.533913 243.122666 
L 728.637704 243.236144 
M 728.845288 243.298294 
L 729.364246 243.651119 
M 729.571829 243.713991 
L 732.996952 245.689891 
L 733.100744 245.805538 
M 733.308327 245.868998 
L 738.082742 248.654615 
L 741.507865 250.670233 
L 744.932989 252.685228 
L 745.036781 252.803056 
M 745.244364 252.867711 
L 751.471861 256.514662 
L 752.405986 257.118215 
M 752.613569 257.182255 
L 754.689401 258.44375 
M 754.896985 258.508114 
L 763.096523 263.193993 
L 763.200314 263.307845 
M 763.407898 263.370796 
L 764.757189 264.181729 
M 764.964772 264.244216 
L 767.144396 265.510951 
M 767.351979 265.572965 
L 770.984686 267.619608 
M 771.192269 267.679964 
L 771.399852 267.845413 
M 771.607436 267.906231 
L 773.683268 269.078382 
M 773.890851 269.137948 
L 774.617393 269.578619 
M 774.824976 269.637889 
L 777.523558 271.11939 
M 777.731141 271.177886 
L 780.637307 272.742769 
M 780.84489 272.800247 
L 781.156265 273.010562 
M 781.363848 273.068506 
L 786.968596 275.953511 
M 787.176179 276.009586 
L 790.912677 277.890369 
M 791.12026 277.945198 
L 800.772881 282.514756 
M 800.980465 282.566345 
L 801.914589 283.029917 
M 802.122172 283.08041 
L 802.952505 283.494624 
M 803.160089 283.545299 
" clip-path="url(#p7aa2434f2f)" style="fill: none; stroke: #000000; stroke-opacity: 0.6; stroke-width: 7; stroke-linecap: square"/>
   </g>
   <g id="line2d_16">
    <path d="M 145.121208 457.957482 
L 147.197041 457.974789 
M 147.404624 457.975611 
L 149.480456 457.992867 
M 149.68804 457.993687 
L 150.829748 458.003525 
M 151.037331 458.004344 
L 156.642078 458.049222 
M 156.849662 458.050035 
L 157.36862 458.05491 
M 157.576203 458.055722 
L 158.406536 458.063027 
M 158.614119 458.063838 
L 161.312701 458.085695 
M 161.520285 458.086503 
L 169.304656 458.147595 
M 169.512239 458.148395 
L 181.344484 458.239646 
M 181.552068 458.240433 
L 182.486192 458.248301 
M 182.693775 458.249087 
L 183.939275 458.259297 
M 184.146858 458.260082 
L 185.599941 458.27184 
M 185.807524 458.272623 
L 187.053023 458.282792 
M 187.260607 458.283574 
L 191.204688 458.313971 
M 191.412272 458.314749 
L 192.969146 458.327172 
M 193.176729 458.327948 
L 199.819393 458.378136 
M 200.026976 458.378905 
L 203.036933 458.401919 
M 203.244516 458.402684 
L 209.990972 458.452982 
M 210.198555 458.453741 
L 210.717513 458.45829 
M 210.925096 458.459048 
L 215.907094 458.496063 
M 216.114677 458.496816 
L 217.048802 458.50434 
M 217.256385 458.505091 
L 222.549758 458.544044 
M 222.757341 458.544791 
L 225.144549 458.562675 
M 225.352132 458.563419 
L 227.946922 458.582726 
M 228.777255 458.645721 
L 237.288168 461.003087 
M 237.495751 461.030314 
L 237.910918 461.166036 
M 238.118501 461.193096 
L 240.920875 461.939491 
M 241.128458 461.965744 
L 243.308082 462.536294 
M 243.515666 462.561909 
L 245.280123 463.018233 
M 245.487706 463.04332 
L 248.601455 463.807317 
M 248.809038 463.831519 
L 251.092454 464.380552 
M 251.300037 464.404092 
L 253.37587 464.892058 
M 253.583453 464.914991 
L 254.517577 465.142811 
M 254.725161 465.165441 
L 258.254076 465.940191 
M 258.461659 465.961832 
L 259.1882 466.133975 
M 259.395784 466.15537 
L 268.840821 467.987738 
L 277.974484 469.538699 
L 283.267857 470.330042 
M 283.47544 470.344159 
L 290.53327 471.190775 
L 292.297728 471.373713 
M 292.505311 471.383325 
L 294.684935 471.579549 
M 294.892518 471.587761 
L 295.307685 471.627871 
M 295.515268 471.635702 
L 301.535182 471.975425 
L 302.884473 472.021966 
M 303.092056 472.024745 
L 306.51718 472.075487 
M 306.724763 472.075686 
L 310.253678 472.048466 
M 310.461261 472.047398 
L 313.782593 472.012239 
M 313.990177 472.011176 
L 314.509135 472.004801 
M 314.716718 472.003739 
L 315.962217 471.989946 
M 316.169801 471.988886 
L 319.283549 471.956097 
M 319.491132 471.955042 
L 323.123839 471.91714 
M 323.331422 471.91609 
L 325.09588 471.89721 
M 325.303463 471.896162 
L 329.143753 471.85646 
M 329.351337 471.855418 
L 329.974086 471.848128 
M 330.181669 471.847087 
L 330.804419 471.839804 
M 331.012002 471.838764 
L 331.219586 471.835646 
M 331.427169 471.834606 
L 335.578834 471.792116 
M 335.786417 471.791083 
L 335.994 471.787984 
M 336.201584 471.786951 
L 338.381208 471.764263 
M 338.588791 471.763233 
L 339.211541 471.756029 
M 339.419124 471.755001 
L 340.45704 471.744723 
L 340.560832 400.218698 
L 340.664623 400.22728 
L 343.051831 400.43291 
M 343.259414 400.441463 
L 345.023871 400.59523 
M 345.231455 400.603762 
L 346.269371 400.697535 
M 346.476954 400.706053 
L 348.967953 400.91863 
M 349.175536 400.927119 
L 353.638576 401.299475 
M 353.846159 401.307912 
L 354.261326 401.350081 
M 354.468909 401.358511 
L 354.572701 401.375368 
M 354.780284 401.383795 
L 357.894032 401.644468 
M 358.101616 401.652859 
L 359.139532 401.745082 
M 359.347115 401.75346 
L 366.612529 402.345375 
M 366.820112 402.353671 
L 367.027695 402.378554 
M 367.442862 402.403427 
L 367.650445 402.42829 
M 367.858028 402.436576 
L 368.065611 402.461426 
M 368.273195 402.469707 
L 368.480778 402.494543 
M 368.688361 402.502819 
L 368.895944 402.527642 
M 369.103528 402.535914 
L 369.518694 402.577258 
M 369.726277 402.585524 
L 380.831981 403.471684 
M 381.039564 403.47983 
L 381.973689 403.561222 
M 382.181272 403.569355 
L 384.568479 403.764225 
M 384.776062 403.772331 
L 385.087437 403.804744 
M 385.29502 403.812845 
L 385.813979 403.861425 
M 386.021562 403.869518 
L 386.748103 403.934222 
M 386.955686 403.942305 
L 392.041476 404.345079 
M 392.249059 404.353107 
L 394.117308 404.505433 
M 394.324892 404.513439 
L 394.947641 404.569454 
M 395.155225 404.577452 
L 395.259016 404.585448 
L 395.362808 332.628812 
L 395.466599 332.646475 
L 406.157136 334.470511 
M 406.36472 334.487927 
L 406.987469 334.609769 
M 407.195053 334.627166 
L 418.923506 336.595144 
M 419.131089 336.612274 
L 422.037254 337.108043 
M 422.244838 337.125104 
L 422.452421 337.176273 
M 422.660004 337.193325 
L 428.991293 338.24608 
M 429.198876 338.262988 
L 432.208833 338.769177 
M 432.416417 338.786015 
L 433.765708 339.021508 
M 433.973291 339.038312 
L 434.388457 339.122298 
M 434.596041 339.139089 
L 435.426374 339.290101 
M 435.633957 339.306869 
L 437.813581 339.675193 
M 438.021164 339.691909 
L 438.540122 339.792159 
M 438.747706 339.808859 
L 439.578039 339.959062 
M 439.785622 339.975741 
L 442.691787 340.45843 
M 442.89937 340.47504 
L 444.248661 340.707359 
M 444.456245 340.723937 
L 448.088951 341.319245 
M 448.296535 341.335741 
L 450.164784 341.64873 
M 450.372367 341.665181 
L 456.28849 342.615568 
M 456.496073 342.631889 
L 459.194655 343.084986 
M 459.402238 343.10324 
L 463.553903 343.943274 
L 463.657695 343.990784 
M 463.865278 344.014732 
L 463.96907 164.01663 
L 464.072861 164.06502 
L 465.318361 164.705354 
M 465.525944 164.755469 
L 465.733527 164.856065 
L 471.545858 188.708216 
M 471.753441 189.126459 
L 472.376191 192.053851 
M 472.583774 192.472004 
L 476.735439 209.60406 
M 476.943022 210.021566 
L 478.70748 217.533261 
M 478.915063 217.950377 
L 479.434021 220.4526 
M 479.641604 220.869557 
L 480.160563 223.370801 
M 480.368146 223.787591 
L 483.378103 236.279098 
M 483.585686 236.695048 
L 484.312227 240.02156 
M 484.519811 240.437236 
L 485.246352 243.761502 
M 485.453935 244.176891 
L 488.463892 256.622539 
M 488.671475 257.036833 
L 492.615557 273.163036 
M 492.82314 273.575681 
L 494.06864 278.935947 
M 494.276223 279.347952 
L 498.116513 294.967838 
M 498.324096 295.37789 
L 500.711304 305.202707 
M 500.918887 305.611373 
L 503.825052 317.436983 
M 504.032635 317.843851 
L 504.136427 318.6574 
M 504.34401 319.06408 
L 516.176255 364.972373 
L 517.11038 368.952336 
M 517.317963 369.349878 
L 520.743087 382.81564 
M 520.95067 383.210168 
L 525.725084 401.64983 
M 525.932668 402.039906 
L 527.593334 408.656261 
M 527.800917 409.044572 
L 529.461583 415.630483 
M 529.669166 416.016976 
L 531.122249 421.801999 
M 531.329832 422.186835 
L 532.679123 427.563437 
M 532.886706 427.946681 
L 536.830788 442.807893 
M 537.038371 443.186719 
L 542.539327 463.470377 
M 542.74691 463.842716 
L 544.511368 470.523764 
M 544.718951 470.893753 
L 545.549284 474.217996 
M 545.756867 474.586725 
L 546.483409 477.531887 
M 546.690992 477.899468 
L 548.247866 483.763223 
M 548.455449 484.128603 
L 550.842657 492.8581 
M 551.05024 493.220161 
L 553.333656 501.510058 
M 553.541239 501.868842 
L 556.343613 511.858007 
M 556.551196 512.212713 
L 557.070154 514.337939 
M 557.277737 514.691641 
L 557.796695 516.810821 
M 558.004279 517.163512 
L 558.523237 519.276601 
M 558.73082 519.628273 
L 561.94836 530.803752 
M 562.155943 531.150519 
L 563.297651 535.29989 
M 563.505235 535.644679 
L 566.4114 545.57633 
M 566.618983 545.916458 
L 569.421357 555.375772 
M 569.62894 555.7113 
L 572.327522 564.710215 
M 572.535106 565.041269 
L 579.592936 587.178173 
L 579.800519 588.137843 
M 580.008102 588.457416 
L 580.319477 589.734125 
M 580.52706 590.052906 
L 584.678725 602.987093 
M 584.886309 603.299259 
L 586.131808 607.343169 
M 586.339391 607.653144 
L 591.528972 623.255626 
M 591.736556 623.55753 
L 598.690594 643.435617 
L 599.001969 644.60071 
M 599.209552 644.891605 
L 600.681252 649 
L 600.681252 649 
" clip-path="url(#p7aa2434f2f)" style="fill: none; stroke-dasharray: 25.9,11.2; stroke-dashoffset: 0; stroke: #0000ff; stroke-opacity: 0.6; stroke-width: 7"/>
   </g>
   <g id="line2d_17">
    <path d="M 145.121208 457.957482 
L 147.197041 457.974789 
M 147.404624 457.975611 
L 149.480456 457.992867 
M 149.68804 457.993687 
L 150.829748 458.003525 
M 151.037331 458.004344 
L 156.642078 458.049222 
M 156.849662 458.050035 
L 157.36862 458.05491 
M 157.576203 458.055722 
L 158.406536 458.063027 
M 158.614119 458.063838 
L 161.312701 458.085695 
M 161.520285 458.086503 
L 169.304656 458.147595 
M 169.512239 458.148395 
L 181.344484 458.239646 
M 181.552068 458.240433 
L 182.486192 458.248301 
M 182.693775 458.249087 
L 183.939275 458.259297 
M 184.146858 458.260082 
L 185.599941 458.27184 
M 185.807524 458.272623 
L 187.053023 458.282792 
M 187.260607 458.283574 
L 191.204688 458.313971 
M 191.412272 458.314749 
L 192.969146 458.327172 
M 193.176729 458.327948 
L 199.819393 458.378136 
M 200.026976 458.378905 
L 203.036933 458.401919 
M 203.244516 458.402684 
L 209.990972 458.452982 
M 210.198555 458.453741 
L 210.717513 458.45829 
M 210.925096 458.459048 
L 215.907094 458.496063 
M 216.114677 458.496816 
L 217.048802 458.50434 
M 217.256385 458.505091 
L 222.549758 458.544044 
M 222.757341 458.544791 
L 225.144549 458.562675 
M 225.352132 458.563419 
L 227.946922 458.582726 
M 228.777255 458.587912 
L 237.288168 458.649039 
M 237.495751 458.649772 
L 237.910918 458.653432 
M 238.118501 458.654163 
L 240.920875 458.674612 
M 241.128458 458.675341 
L 243.308082 458.691352 
M 243.515666 458.692078 
L 245.280123 458.705141 
M 245.487706 458.705866 
L 248.601455 458.728286 
M 248.809038 458.729008 
L 251.092454 458.74558 
M 251.300037 458.746299 
L 253.37587 458.761383 
M 253.583453 458.7621 
L 254.517577 458.769267 
M 254.725161 458.769983 
L 258.254076 458.794989 
M 258.461659 458.795702 
L 259.1882 458.8014 
M 259.395784 458.802112 
L 264.066407 458.834046 
L 264.170198 274.775118 
L 264.27399 274.800553 
L 283.267857 279.422964 
M 283.47544 279.447775 
L 292.297728 281.569089 
M 292.505311 281.593611 
L 294.684935 282.132275 
M 294.892518 282.156722 
L 295.307685 282.278907 
M 295.515268 282.303334 
L 302.884473 284.053496 
M 303.092056 284.077684 
L 306.51718 284.898173 
M 306.724763 284.922248 
L 310.253678 285.762849 
M 310.461261 285.786808 
L 313.782593 286.575657 
M 313.990177 286.599506 
L 314.509135 286.742539 
M 314.716718 286.766366 
L 315.962217 287.075833 
M 316.169801 287.099616 
L 319.283549 287.835298 
M 319.491132 287.858979 
L 323.123839 288.709369 
M 323.331422 288.732932 
L 325.09588 289.15653 
M 325.303463 289.180034 
L 329.143753 290.07082 
M 329.351337 290.0942 
L 329.974086 290.257775 
M 330.181669 290.28113 
L 330.804419 290.444529 
M 331.012002 290.467859 
L 331.219586 290.537831 
M 331.427169 290.561148 
L 335.578834 291.514479 
M 335.786417 291.537665 
L 335.994 291.607206 
M 336.201584 291.63038 
L 338.381208 292.13942 
M 338.588791 292.162523 
L 339.211541 292.324153 
M 339.419124 292.347231 
L 343.051831 293.175964 
M 343.259414 293.198927 
L 345.023871 293.611738 
M 345.231455 293.634643 
L 346.269371 293.886391 
M 346.476954 293.909259 
L 348.967953 294.479955 
M 349.175536 294.502743 
L 353.638576 295.502391 
M 353.846159 295.525042 
L 354.261326 295.638249 
M 354.468909 295.660882 
L 354.572701 295.706138 
M 354.780284 295.728761 
L 357.894032 296.428577 
M 358.101616 296.451103 
L 359.139532 296.698692 
M 359.347115 296.721182 
L 366.612529 298.310269 
M 366.820112 298.332542 
L 367.027695 298.399345 
M 367.442862 298.46612 
L 367.650445 298.532869 
M 367.858028 298.555112 
L 368.065611 298.621825 
M 368.273195 298.644056 
L 368.480778 298.710733 
M 368.688361 298.732953 
L 368.895944 298.799594 
M 369.103528 298.821801 
L 369.518694 298.932795 
M 369.726277 298.954985 
L 380.831981 301.334019 
M 381.039564 301.355886 
L 381.973689 301.574397 
M 382.181272 301.596232 
L 384.568479 302.11939 
M 384.776062 302.141152 
L 385.087437 302.228169 
M 385.29502 302.249916 
L 385.813979 302.380337 
M 386.021562 302.402064 
L 386.748103 302.575772 
M 386.955686 302.597472 
L 392.041476 303.678782 
M 392.249059 303.700334 
L 394.117308 304.109276 
M 394.324892 304.13077 
L 394.947641 304.281149 
M 395.155225 304.302621 
L 406.157136 306.583456 
M 406.36472 306.604618 
L 406.987469 306.752672 
M 407.195053 306.773812 
L 418.923506 309.165159 
M 419.131089 309.185974 
L 422.037254 309.788397 
M 422.244838 309.809129 
L 422.452421 309.871306 
M 422.660004 309.892026 
L 428.991293 311.171259 
M 429.198876 311.191804 
L 432.208833 311.80689 
M 432.416417 311.82735 
L 433.765708 312.113504 
M 433.973291 312.133923 
L 434.388457 312.235977 
M 434.596041 312.25638 
L 435.426374 312.439879 
M 435.633957 312.460255 
L 437.813581 312.907816 
M 438.021164 312.928128 
L 438.540122 313.049945 
M 438.747706 313.070238 
L 439.578039 313.252754 
M 439.785622 313.27302 
L 442.691787 313.859549 
M 442.89937 313.879734 
L 444.248661 314.162031 
M 444.456245 314.182175 
L 448.088951 314.905551 
M 448.296535 314.925595 
L 450.164784 315.305918 
M 450.372367 315.325908 
L 456.28849 316.480751 
M 456.496073 316.500583 
L 459.194655 317.035048 
M 459.402238 317.054806 
L 463.657695 317.882241 
M 463.865278 317.901885 
L 465.318361 323.801602 
M 465.525944 324.194241 
L 468.224526 333.976492 
L 470.715525 342.167987 
L 471.545858 345.033392 
M 471.753441 345.344852 
L 472.376191 347.486415 
M 472.583774 347.786837 
L 474.86719 354.048636 
L 476.735439 358.924082 
M 476.943022 359.167069 
L 478.70748 363.308622 
M 478.915063 363.525825 
L 479.434021 364.800598 
M 479.641604 365.008322 
L 480.160563 366.226255 
M 480.368146 366.424511 
L 482.340187 369.934718 
L 483.378103 371.744366 
M 483.585686 371.900796 
L 484.312227 373.103784 
M 484.519811 373.248103 
L 485.246352 374.354256 
M 485.453935 374.486478 
L 487.114601 376.41947 
L 488.463892 377.829353 
M 488.671475 377.920021 
L 490.22835 379.119662 
L 491.681432 379.968445 
L 492.615557 380.414924 
M 492.82314 380.452258 
L 494.06864 380.816756 
M 494.276223 380.835506 
L 496.352055 381.076869 
L 498.116513 381.27741 
M 498.324096 381.288537 
L 500.711304 381.555138 
M 500.918887 381.566227 
L 503.825052 381.887181 
M 504.032635 381.898226 
L 504.136427 381.920312 
M 504.34401 381.931352 
L 517.11038 383.288958 
M 517.317963 383.299815 
L 520.743087 383.668078 
M 520.95067 383.678884 
L 525.725084 384.185123 
M 525.932668 384.19586 
L 527.593334 384.378157 
M 527.800917 384.388868 
L 529.461583 384.570725 
M 529.669166 384.58141 
L 531.122249 384.741506 
M 531.329832 384.752167 
L 532.679123 384.90128 
M 532.886706 384.91192 
L 536.830788 385.325772 
M 537.038371 385.336356 
L 542.539327 385.905737 
M 542.74691 385.916243 
L 544.511368 386.105095 
M 544.718951 386.115573 
L 545.549284 386.209816 
M 545.756867 386.22028 
L 546.483409 386.303944 
M 546.690992 386.314396 
L 548.247866 386.481432 
M 548.455449 386.49186 
L 550.842657 386.741709 
M 551.05024 386.752102 
L 553.333656 386.990753 
M 553.541239 387.001113 
L 556.343613 387.290612 
M 556.551196 387.300932 
L 557.070154 387.362817 
M 557.277737 387.373127 
L 557.796695 387.434954 
M 558.004279 387.445254 
L 558.523237 387.507024 
M 558.73082 387.517314 
L 561.94836 387.845867 
M 562.155943 387.856112 
L 563.297651 387.978939 
M 563.505235 387.989165 
L 566.4114 388.285142 
M 566.618983 388.295327 
L 569.421357 388.579967 
M 569.62894 388.590113 
L 572.327522 388.863539 
M 572.535106 388.873647 
L 579.800519 389.587842 
M 580.008102 389.597853 
L 580.319477 389.637881 
M 580.52706 389.647885 
L 584.678725 390.056886 
M 584.886309 390.066833 
L 586.131808 390.196029 
M 586.339391 390.205958 
L 591.528972 390.710562 
M 591.736556 390.720422 
L 599.001969 391.417084 
M 599.209552 391.426849 
L 606.682549 392.136145 
M 606.890132 392.145813 
L 608.862173 392.338904 
M 609.069756 392.348545 
L 611.041797 392.541091 
M 611.24938 392.550705 
L 612.079713 392.637171 
M 612.287297 392.646772 
L 614.882087 392.895941 
M 615.08967 392.905507 
L 616.231378 393.0202 
M 616.438962 393.02975 
L 619.241335 393.296612 
M 619.448919 393.306125 
L 620.902001 393.448655 
M 621.109584 393.458147 
L 621.213376 393.477127 
M 621.420959 393.486615 
L 626.61054 393.968816 
M 626.818124 393.978238 
L 635.640411 394.783808 
M 635.847995 394.793121 
L 636.782119 394.886176 
M 636.989703 394.895475 
L 639.065535 395.090459 
M 639.273118 395.099731 
L 641.037576 395.2664 
M 641.245159 395.275648 
L 642.802033 395.423441 
M 643.009617 395.432668 
L 643.943741 395.524865 
M 644.151324 395.534078 
L 653.700154 396.385489 
L 653.803945 167.734921 
M 654.011528 167.774737 
L 658.370777 169.481769 
M 658.57836 169.52135 
L 671.033354 174.271637 
M 671.240938 174.310574 
L 671.448521 174.427356 
M 671.656104 174.466273 
L 674.043311 175.398709 
M 674.250895 175.437495 
L 682.554224 178.56194 
M 682.761808 178.600301 
L 684.318682 179.213382 
M 684.526265 179.251656 
L 688.574138 180.778398 
M 688.781722 180.816462 
L 689.92343 181.272825 
M 690.131013 181.310823 
L 691.791679 181.955993 
M 691.999262 181.993898 
L 692.829595 182.334817 
M 693.037178 182.372671 
L 694.178886 182.826528 
M 694.386469 182.864317 
L 697.188843 183.920332 
M 697.396426 183.957974 
L 699.57605 184.784807 
M 699.783634 184.822332 
L 699.887425 184.897367 
M 700.095008 184.934878 
L 701.755674 185.57178 
M 701.963258 185.609199 
L 705.699756 186.990194 
M 705.907339 187.027423 
L 707.152839 187.510945 
M 707.360422 187.548104 
L 710.785545 188.808546 
M 711.200712 188.919485 
L 719.40025 191.861428 
M 719.815417 191.971137 
L 723.448123 193.284201 
M 723.655707 193.320584 
L 724.589831 193.68415 
M 724.797414 193.720479 
L 728.637704 195.097396 
M 728.845288 195.133536 
L 729.364246 195.350273 
M 729.571829 195.386379 
L 733.100744 196.647032 
M 733.308327 196.682963 
L 745.036781 200.747685 
M 745.244364 200.783066 
L 752.405986 203.24794 
M 752.613569 203.282984 
L 754.689401 204.017839 
M 754.896985 204.05278 
L 763.200314 206.867497 
M 763.407898 206.902056 
L 764.757189 207.385388 
M 764.964772 207.419877 
L 767.144396 208.177463 
M 767.351979 208.211845 
L 770.984686 209.446545 
M 771.192269 209.480757 
L 771.399852 209.583366 
M 771.607436 209.617559 
L 773.683268 210.334566 
M 773.890851 210.368659 
L 774.617393 210.641236 
M 774.824976 210.675287 
L 777.523558 211.592951 
M 777.731141 211.626875 
L 780.637307 212.608682 
M 780.84489 212.642469 
L 781.156265 212.777572 
M 781.363848 212.811337 
L 786.968596 214.661417 
M 787.176179 214.694928 
L 790.912677 215.931691 
M 791.12026 215.965032 
L 800.772881 219.079148 
M 800.980465 219.112066 
L 801.914589 219.441003 
M 802.122172 219.473872 
L 802.952505 219.769497 
M 803.160089 219.802322 
" clip-path="url(#p7aa2434f2f)" style="fill: none; stroke-dasharray: 7,11.55; stroke-dashoffset: 0; stroke: #008000; stroke-opacity: 0.6; stroke-width: 7"/>
   </g>
   <g id="line2d_18">
    <path d="M 145.121208 464.002882 
L 147.197041 464.003155 
M 147.404624 464.003168 
L 149.480456 464.003441 
M 149.68804 464.003454 
L 150.829748 464.00361 
M 151.037331 464.003623 
L 156.642078 464.004332 
M 156.849662 464.004345 
L 157.36862 464.004422 
M 157.576203 464.004435 
L 158.406536 464.004551 
M 158.614119 464.004563 
L 161.312701 464.004909 
M 161.520285 464.004922 
L 169.304656 464.005888 
M 169.512239 464.0059 
L 181.344484 464.007343 
M 181.552068 464.007356 
L 182.486192 464.00748 
M 182.693775 464.007492 
L 183.939275 464.007654 
M 184.146858 464.007666 
L 185.599941 464.007852 
M 185.807524 464.007864 
L 187.053023 464.008025 
M 187.260607 464.008038 
L 191.204688 464.008518 
M 191.412272 464.00853 
L 192.969146 464.008727 
M 193.176729 464.008739 
L 199.819393 464.009533 
M 200.026976 464.009545 
L 203.036933 464.009909 
M 203.244516 464.009921 
L 209.990972 464.010716 
M 210.198555 464.010728 
L 210.717513 464.0108 
M 210.925096 464.010812 
L 215.907094 464.011397 
M 216.114677 464.011409 
L 217.048802 464.011528 
M 217.256385 464.01154 
L 222.549758 464.012156 
M 222.757341 464.012168 
L 225.144549 464.01245 
M 225.352132 464.012462 
L 227.946922 464.012767 
M 228.777255 464.012849 
L 237.288168 464.013816 
M 237.495751 464.013827 
L 237.910918 464.013885 
M 238.118501 464.013897 
L 240.920875 464.01422 
M 241.128458 464.014232 
L 243.308082 464.014485 
M 243.515666 464.014496 
L 245.280123 464.014703 
M 245.487706 464.014714 
L 248.601455 464.015069 
M 248.809038 464.01508 
L 251.092454 464.015342 
M 251.300037 464.015354 
L 253.37587 464.015592 
M 253.583453 464.015603 
L 254.517577 464.015717 
M 254.725161 464.015728 
L 258.254076 464.016123 
M 258.461659 464.016135 
L 259.1882 464.016225 
M 259.395784 464.016236 
L 283.267857 464.018796 
M 283.47544 464.018807 
L 292.297728 464.01974 
M 292.505311 464.01975 
L 294.684935 464.019987 
M 294.892518 464.019998 
L 295.307685 464.020052 
M 295.515268 464.020062 
L 302.884473 464.020832 
M 303.092056 464.020843 
L 306.51718 464.021203 
M 306.724763 464.021214 
L 310.253678 464.021584 
M 310.461261 464.021594 
L 313.782593 464.021941 
M 313.990177 464.021951 
L 314.509135 464.022014 
M 314.716718 464.022025 
L 315.962217 464.022161 
M 316.169801 464.022171 
L 319.283549 464.022495 
M 319.491132 464.022505 
L 323.123839 464.022879 
M 323.331422 464.02289 
L 325.09588 464.023076 
M 325.303463 464.023086 
L 329.143753 464.023478 
M 329.351337 464.023488 
L 329.974086 464.02356 
M 330.181669 464.02357 
L 330.804419 464.023642 
M 331.012002 464.023652 
L 331.219586 464.023683 
M 331.427169 464.023693 
L 335.578834 464.024113 
M 335.786417 464.024123 
L 335.994 464.024153 
M 336.201584 464.024164 
L 338.381208 464.024387 
M 338.588791 464.024398 
L 339.211541 464.024469 
M 339.419124 464.024479 
L 343.051831 464.024843 
M 343.259414 464.024853 
L 345.023871 464.025035 
M 345.231455 464.025045 
L 346.269371 464.025156 
M 346.476954 464.025166 
L 348.967953 464.025417 
M 349.175536 464.025427 
L 353.638576 464.025866 
M 353.846159 464.025876 
L 354.261326 464.025926 
M 354.468909 464.025936 
L 354.572701 464.025956 
M 354.780284 464.025966 
L 357.894032 464.026273 
M 358.101616 464.026283 
L 359.139532 464.026392 
M 359.347115 464.026402 
L 366.612529 464.027101 
M 366.820112 464.027111 
L 367.027695 464.02714 
M 367.442862 464.027169 
L 367.650445 464.027199 
M 367.858028 464.027208 
L 368.065611 464.027238 
M 368.273195 464.027248 
L 368.480778 464.027277 
M 368.688361 464.027287 
L 368.895944 464.027316 
M 369.103528 464.027326 
L 369.518694 464.027375 
M 369.726277 464.027384 
L 380.831981 464.02843 
M 381.039564 464.02844 
L 381.973689 464.028536 
M 382.181272 464.028546 
L 384.568479 464.028776 
M 384.776062 464.028785 
L 385.087437 464.028824 
M 385.29502 464.028833 
L 385.813979 464.02889 
M 386.021562 464.0289 
L 386.748103 464.028976 
M 386.955686 464.028986 
L 392.041476 464.029461 
M 392.249059 464.029471 
L 394.117308 464.029651 
M 394.324892 464.02966 
L 394.947641 464.029726 
M 395.155225 464.029736 
L 406.157136 464.030739 
M 406.36472 464.030748 
L 406.987469 464.030813 
M 407.195053 464.030822 
L 418.923506 464.031874 
M 419.131089 464.031883 
L 422.037254 464.032148 
M 422.244838 464.032157 
L 422.452421 464.032184 
M 422.660004 464.032193 
L 428.991293 464.032756 
M 429.198876 464.032765 
L 432.208833 464.033035 
M 432.416417 464.033044 
L 433.765708 464.03317 
M 433.973291 464.033179 
L 434.388457 464.033224 
M 434.596041 464.033233 
L 435.426374 464.033314 
M 435.633957 464.033323 
L 437.813581 464.033519 
M 438.021164 464.033528 
L 438.540122 464.033582 
M 438.747706 464.033591 
L 439.578039 464.033671 
M 439.785622 464.03368 
L 442.691787 464.033938 
M 442.89937 464.033947 
L 444.248661 464.034071 
M 444.456245 464.03408 
L 448.088951 464.034398 
M 448.296535 464.034407 
L 450.164784 464.034574 
M 450.372367 464.034583 
L 456.28849 464.035091 
M 456.496073 464.035099 
L 459.194655 464.035334 
M 459.402238 464.035343 
L 463.657695 464.035707 
M 463.865278 464.035715 
L 465.318361 464.035845 
M 465.525944 464.035853 
L 471.545858 464.03636 
M 471.753441 464.036368 
L 472.376191 464.036428 
M 472.583774 464.036437 
L 476.735439 464.036786 
M 476.943022 464.036795 
L 478.70748 464.036947 
M 478.915063 464.036956 
L 479.434021 464.037006 
M 479.641604 464.037015 
L 480.160563 464.037066 
M 480.368146 464.037074 
L 483.378103 464.037327 
M 483.585686 464.037336 
L 484.312227 464.037403 
M 484.519811 464.037411 
L 485.246352 464.037479 
M 485.453935 464.037487 
L 488.463892 464.037739 
M 488.671475 464.037747 
L 492.615557 464.038072 
M 492.82314 464.038081 
L 494.06864 464.038189 
M 494.276223 464.038197 
L 498.116513 464.038512 
M 498.324096 464.03852 
L 500.711304 464.038718 
M 500.918887 464.038726 
L 503.825052 464.038964 
M 504.032635 464.038973 
L 504.136427 464.038989 
M 504.34401 464.038997 
L 517.11038 464.040005 
M 517.317963 464.040013 
L 520.743087 464.040286 
M 520.95067 464.040295 
L 525.725084 464.04067 
M 525.932668 464.040678 
L 527.593334 464.040814 
M 527.800917 464.040822 
L 529.461583 464.040957 
M 529.669166 464.040965 
L 531.122249 464.041083 
M 531.329832 464.041091 
L 532.679123 464.041202 
M 532.886706 464.04121 
L 536.830788 464.041517 
M 537.038371 464.041525 
L 542.539327 464.041948 
M 542.74691 464.041956 
L 544.511368 464.042096 
M 544.718951 464.042104 
L 545.549284 464.042174 
M 545.756867 464.042181 
L 546.483409 464.042243 
M 546.690992 464.042251 
L 548.247866 464.042375 
M 548.455449 464.042383 
L 550.842657 464.042568 
M 551.05024 464.042576 
L 553.333656 464.042753 
M 553.541239 464.042761 
L 556.343613 464.042976 
M 556.551196 464.042984 
L 557.070154 464.04303 
M 557.277737 464.043037 
L 557.796695 464.043083 
M 558.004279 464.043091 
L 558.523237 464.043137 
M 558.73082 464.043144 
L 561.94836 464.043388 
M 562.155943 464.043396 
L 563.297651 464.043487 
M 563.505235 464.043495 
L 566.4114 464.043714 
M 566.618983 464.043722 
L 569.421357 464.043933 
M 569.62894 464.043941 
L 572.327522 464.044144 
M 572.535106 464.044151 
L 579.800519 464.044681 
M 580.008102 464.044689 
L 580.319477 464.044719 
M 580.52706 464.044726 
L 584.678725 464.04503 
M 584.886309 464.045037 
L 586.131808 464.045133 
M 586.339391 464.04514 
L 591.528972 464.045515 
M 591.736556 464.045522 
L 599.001969 464.046039 
M 599.209552 464.046047 
L 606.682549 464.046573 
M 606.890132 464.04658 
L 608.862173 464.046724 
M 609.069756 464.046731 
L 611.041797 464.046874 
M 611.24938 464.046881 
L 612.079713 464.046945 
M 612.287297 464.046952 
L 614.882087 464.047137 
M 615.08967 464.047144 
L 616.231378 464.04723 
M 616.438962 464.047237 
L 619.241335 464.047435 
M 619.448919 464.047442 
L 620.902001 464.047548 
M 621.109584 464.047555 
L 621.213376 464.047569 
M 621.420959 464.047576 
L 626.61054 464.047934 
M 626.818124 464.047941 
L 635.640411 464.048539 
M 635.847995 464.048546 
L 636.782119 464.048615 
M 636.989703 464.048622 
L 639.065535 464.048767 
M 639.273118 464.048773 
L 641.037576 464.048897 
M 641.245159 464.048904 
L 642.802033 464.049014 
M 643.009617 464.049021 
L 643.943741 464.049089 
M 644.151324 464.049096 
L 653.700154 464.049728 
L 653.803945 464.322273 
M 654.011528 464.59382 
L 658.370777 476.16812 
M 658.57836 476.434823 
L 665.428607 493.728333 
L 671.033354 507.559268 
M 671.240938 507.805355 
L 671.448521 508.542453 
M 671.656104 508.787765 
L 674.043311 514.617194 
M 674.250895 514.857672 
L 679.855642 527.559267 
L 682.554224 533.706631 
M 682.761808 533.931826 
L 684.318682 537.511502 
M 684.526265 537.733782 
L 688.574138 546.489109 
M 688.781722 546.704654 
L 689.92343 549.278692 
M 690.131013 549.492158 
L 691.791679 553.096786 
M 691.999262 553.307399 
L 692.829595 555.195828 
M 693.037178 555.404867 
L 693.867511 557.07153 
L 693.971303 182.713133 
L 694.075094 182.970833 
L 694.178886 183.485479 
M 694.386469 183.742415 
L 697.188843 190.834502 
M 697.396426 191.084194 
L 699.57605 196.516201 
M 699.783634 196.760364 
L 699.887425 197.247987 
M 700.095008 197.491444 
L 701.755674 201.594776 
M 701.963258 201.83409 
L 705.699756 210.535221 
M 705.907339 210.766414 
L 707.152839 213.754256 
M 707.360422 213.98277 
L 710.785545 221.653318 
M 711.200712 222.321449 
L 717.324418 235.182127 
L 719.40025 239.632628 
M 719.815417 240.263016 
L 723.448123 247.723025 
M 723.655707 247.927501 
L 724.589831 249.964125 
M 724.797414 250.166976 
L 728.637704 257.766414 
M 728.845288 257.963545 
L 729.364246 259.143271 
M 729.571829 259.339383 
L 733.100744 266.111932 
M 733.308327 266.302833 
L 739.22445 276.947565 
L 745.036781 287.132558 
M 745.244364 287.307186 
L 751.056695 296.865723 
L 752.405986 299.188107 
M 752.613569 299.352969 
L 754.689401 302.78373 
M 754.896985 302.94561 
L 760.605524 311.642108 
L 763.200314 315.612909 
M 763.407898 315.763849 
L 764.757189 317.863201 
M 764.964772 318.012171 
L 767.144396 321.256401 
M 767.351979 321.402366 
L 770.984686 326.570749 
M 771.192269 326.711926 
L 771.399852 327.134686 
M 771.607436 327.275349 
L 773.683268 330.19966 
M 773.890851 330.337506 
L 774.617393 331.435686 
M 774.824976 331.572386 
L 777.523558 335.215323 
M 777.731141 335.348476 
L 780.637307 339.15523 
M 780.84489 339.284618 
L 781.156265 339.80092 
M 781.363848 339.929684 
L 786.968596 346.820763 
M 787.176179 346.942605 
L 790.912677 351.36497 
M 791.12026 351.482185 
L 796.621216 357.522331 
L 800.772881 361.965304 
M 800.980465 362.071192 
L 801.914589 363.123624 
M 802.122172 363.228223 
L 802.952505 364.164353 
M 803.160089 364.267784 
" clip-path="url(#p7aa2434f2f)" style="fill: none; stroke-dasharray: 44.8,11.2,7,11.2; stroke-dashoffset: 0; stroke: #ff0000; stroke-opacity: 0.6; stroke-width: 7"/>
   </g>
   <g id="patch_3">
    <path d="M 145.225 612.92 
L 145.225 17.64 
" style="fill: none; stroke: #000000; stroke-width: 0.8; stroke-linejoin: miter; stroke-linecap: square"/>
   </g>
   <g id="patch_4">
    <path d="M 803.056297 612.92 
L 803.056297 17.64 
" style="fill: none; stroke: #000000; stroke-width: 0.8; stroke-linejoin: miter; stroke-linecap: square"/>
   </g>
   <g id="patch_5">
    <path d="M 145.225 612.92 
L 803.056297 612.92 
" style="fill: none; stroke: #000000; stroke-width: 0.8; stroke-linejoin: miter; stroke-linecap: square"/>
   </g>
   <g id="patch_6">
    <path d="M 145.225 17.64 
L 803.056297 17.64 
" style="fill: none; stroke: #000000; stroke-width: 0.8; stroke-linejoin: miter; stroke-linecap: square"/>
   </g>
   <g id="text_16">
    <!-- 4 RMSE: 12.33 m -->
    <g transform="translate(276.791259 493.864) scale(0.1728 -0.1728)">
     <defs>
      <path id="DejaVuSans-34" d="M 2419 4116 
L 825 1625 
L 2419 1625 
L 2419 4116 
z
M 2253 4666 
L 3047 4666 
L 3047 1625 
L 3713 1625 
L 3713 1100 
L 3047 1100 
L 3047 0 
L 2419 0 
L 2419 1100 
L 313 1100 
L 313 1709 
L 2253 4666 
z
" transform="scale(0.015625)"/>
      <path id="DejaVuSans-52" d="M 2841 2188 
Q 3044 2119 3236 1894 
Q 3428 1669 3622 1275 
L 4263 0 
L 3584 0 
L 2988 1197 
Q 2756 1666 2539 1819 
Q 2322 1972 1947 1972 
L 1259 1972 
L 1259 0 
L 628 0 
L 628 4666 
L 2053 4666 
Q 2853 4666 3247 4331 
Q 3641 3997 3641 3322 
Q 3641 2881 3436 2590 
Q 3231 2300 2841 2188 
z
M 1259 4147 
L 1259 2491 
L 2053 2491 
Q 2509 2491 2742 2702 
Q 2975 2913 2975 3322 
Q 2975 3731 2742 3939 
Q 2509 4147 2053 4147 
L 1259 4147 
z
" transform="scale(0.015625)"/>
      <path id="DejaVuSans-4d" d="M 628 4666 
L 1569 4666 
L 2759 1491 
L 3956 4666 
L 4897 4666 
L 4897 0 
L 4281 0 
L 4281 4097 
L 3078 897 
L 2444 897 
L 1241 4097 
L 1241 0 
L 628 0 
L 628 4666 
z
" transform="scale(0.015625)"/>
      <path id="DejaVuSans-53" d="M 3425 4513 
L 3425 3897 
Q 3066 4069 2747 4153 
Q 2428 4238 2131 4238 
Q 1616 4238 1336 4038 
Q 1056 3838 1056 3469 
Q 1056 3159 1242 3001 
Q 1428 2844 1947 2747 
L 2328 2669 
Q 3034 2534 3370 2195 
Q 3706 1856 3706 1288 
Q 3706 609 3251 259 
Q 2797 -91 1919 -91 
Q 1588 -91 1214 -16 
Q 841 59 441 206 
L 441 856 
Q 825 641 1194 531 
Q 1563 422 1919 422 
Q 2459 422 2753 634 
Q 3047 847 3047 1241 
Q 3047 1584 2836 1778 
Q 2625 1972 2144 2069 
L 1759 2144 
Q 1053 2284 737 2584 
Q 422 2884 422 3419 
Q 422 4038 858 4394 
Q 1294 4750 2059 4750 
Q 2388 4750 2728 4690 
Q 3069 4631 3425 4513 
z
" transform="scale(0.015625)"/>
      <path id="DejaVuSans-45" d="M 628 4666 
L 3578 4666 
L 3578 4134 
L 1259 4134 
L 1259 2753 
L 3481 2753 
L 3481 2222 
L 1259 2222 
L 1259 531 
L 3634 531 
L 3634 0 
L 628 0 
L 628 4666 
z
" transform="scale(0.015625)"/>
      <path id="DejaVuSans-3a" d="M 750 794 
L 1409 794 
L 1409 0 
L 750 0 
L 750 794 
z
M 750 3309 
L 1409 3309 
L 1409 2516 
L 750 2516 
L 750 3309 
z
" transform="scale(0.015625)"/>
     </defs>
     <use xlink:href="#DejaVuSans-34"/>
     <use xlink:href="#DejaVuSans-20" x="63.623047"/>
     <use xlink:href="#DejaVuSans-52" x="95.410156"/>
     <use xlink:href="#DejaVuSans-4d" x="164.892578"/>
     <use xlink:href="#DejaVuSans-53" x="251.171875"/>
     <use xlink:href="#DejaVuSans-45" x="314.648438"/>
     <use xlink:href="#DejaVuSans-3a" x="377.832031"/>
     <use xlink:href="#DejaVuSans-20" x="411.523438"/>
     <use xlink:href="#DejaVuSans-31" x="443.310547"/>
     <use xlink:href="#DejaVuSans-32" x="506.933594"/>
     <use xlink:href="#DejaVuSans-2e" x="570.556641"/>
     <use xlink:href="#DejaVuSans-33" x="602.34375"/>
     <use xlink:href="#DejaVuSans-33" x="665.966797"/>
     <use xlink:href="#DejaVuSans-20" x="729.589844"/>
     <use xlink:href="#DejaVuSans-6d" x="761.376953"/>
    </g>
   </g>
   <g id="text_17">
    <!-- 6 RMSE: 8.75 m -->
    <g transform="translate(276.791259 523.628) scale(0.1728 -0.1728)">
     <defs>
      <path id="DejaVuSans-36" d="M 2113 2584 
Q 1688 2584 1439 2293 
Q 1191 2003 1191 1497 
Q 1191 994 1439 701 
Q 1688 409 2113 409 
Q 2538 409 2786 701 
Q 3034 994 3034 1497 
Q 3034 2003 2786 2293 
Q 2538 2584 2113 2584 
z
M 3366 4563 
L 3366 3988 
Q 3128 4100 2886 4159 
Q 2644 4219 2406 4219 
Q 1781 4219 1451 3797 
Q 1122 3375 1075 2522 
Q 1259 2794 1537 2939 
Q 1816 3084 2150 3084 
Q 2853 3084 3261 2657 
Q 3669 2231 3669 1497 
Q 3669 778 3244 343 
Q 2819 -91 2113 -91 
Q 1303 -91 875 529 
Q 447 1150 447 2328 
Q 447 3434 972 4092 
Q 1497 4750 2381 4750 
Q 2619 4750 2861 4703 
Q 3103 4656 3366 4563 
z
" transform="scale(0.015625)"/>
     </defs>
     <use xlink:href="#DejaVuSans-36"/>
     <use xlink:href="#DejaVuSans-20" x="63.623047"/>
     <use xlink:href="#DejaVuSans-52" x="95.410156"/>
     <use xlink:href="#DejaVuSans-4d" x="164.892578"/>
     <use xlink:href="#DejaVuSans-53" x="251.171875"/>
     <use xlink:href="#DejaVuSans-45" x="314.648438"/>
     <use xlink:href="#DejaVuSans-3a" x="377.832031"/>
     <use xlink:href="#DejaVuSans-20" x="411.523438"/>
     <use xlink:href="#DejaVuSans-38" x="443.310547"/>
     <use xlink:href="#DejaVuSans-2e" x="506.933594"/>
     <use xlink:href="#DejaVuSans-37" x="538.720703"/>
     <use xlink:href="#DejaVuSans-35" x="602.34375"/>
     <use xlink:href="#DejaVuSans-20" x="665.966797"/>
     <use xlink:href="#DejaVuSans-6d" x="697.753906"/>
    </g>
   </g>
   <g id="text_18">
    <!-- 7 RMSE: 47.42 m -->
    <g transform="translate(276.791259 553.392) scale(0.1728 -0.1728)">
     <use xlink:href="#DejaVuSans-37"/>
     <use xlink:href="#DejaVuSans-20" x="63.623047"/>
     <use xlink:href="#DejaVuSans-52" x="95.410156"/>
     <use xlink:href="#DejaVuSans-4d" x="164.892578"/>
     <use xlink:href="#DejaVuSans-53" x="251.171875"/>
     <use xlink:href="#DejaVuSans-45" x="314.648438"/>
     <use xlink:href="#DejaVuSans-3a" x="377.832031"/>
     <use xlink:href="#DejaVuSans-20" x="411.523438"/>
     <use xlink:href="#DejaVuSans-34" x="443.310547"/>
     <use xlink:href="#DejaVuSans-37" x="506.933594"/>
     <use xlink:href="#DejaVuSans-2e" x="570.556641"/>
     <use xlink:href="#DejaVuSans-34" x="602.34375"/>
     <use xlink:href="#DejaVuSans-32" x="665.966797"/>
     <use xlink:href="#DejaVuSans-20" x="729.589844"/>
     <use xlink:href="#DejaVuSans-6d" x="761.376953"/>
    </g>
   </g>
   <g id="text_19">
    <!-- 7 -->
    <g transform="translate(480.718961 464.1) scale(0.1728 -0.1728)">
     <use xlink:href="#DejaVuSans-37"/>
    </g>
   </g>
   <g id="text_20">
    <!-- 8 -->
    <g transform="translate(539.923778 464.1) scale(0.1728 -0.1728)">
     <use xlink:href="#DejaVuSans-38"/>
    </g>
   </g>
   <g id="text_21">
    <!-- 6 -->
    <g transform="translate(507.032213 523.628) scale(0.1728 -0.1728)">
     <use xlink:href="#DejaVuSans-36"/>
    </g>
   </g>
   <g id="text_22">
    <!-- 4 -->
    <g transform="translate(507.032213 583.156) scale(0.1728 -0.1728)">
     <use xlink:href="#DejaVuSans-34"/>
    </g>
   </g>
   <g id="legend_1">
    <g id="patch_7">
     <path d="M 157.321 132.9192 
L 255.1717 132.9192 
Q 258.6277 132.9192 258.6277 129.4632 
L 258.6277 29.736 
Q 258.6277 26.28 255.1717 26.28 
L 157.321 26.28 
Q 153.865 26.28 153.865 29.736 
L 153.865 129.4632 
Q 153.865 132.9192 157.321 132.9192 
z
" style="fill: #ffffff; opacity: 0.8; stroke: #cccccc; stroke-linejoin: miter"/>
    </g>
    <g id="line2d_19">
     <path d="M 160.777 40.2741 
L 178.057 40.2741 
L 195.337 40.2741 
" style="fill: none; stroke: #000000; stroke-opacity: 0.6; stroke-width: 7; stroke-linecap: square"/>
    </g>
    <g id="text_23">
     <!-- truth -->
     <g transform="translate(209.161 46.3221) scale(0.1728 -0.1728)">
      <defs>
       <path id="DejaVuSans-72" d="M 2631 2963 
Q 2534 3019 2420 3045 
Q 2306 3072 2169 3072 
Q 1681 3072 1420 2755 
Q 1159 2438 1159 1844 
L 1159 0 
L 581 0 
L 581 3500 
L 1159 3500 
L 1159 2956 
Q 1341 3275 1631 3429 
Q 1922 3584 2338 3584 
Q 2397 3584 2469 3576 
Q 2541 3569 2628 3553 
L 2631 2963 
z
" transform="scale(0.015625)"/>
       <path id="DejaVuSans-75" d="M 544 1381 
L 544 3500 
L 1119 3500 
L 1119 1403 
Q 1119 906 1312 657 
Q 1506 409 1894 409 
Q 2359 409 2629 706 
Q 2900 1003 2900 1516 
L 2900 3500 
L 3475 3500 
L 3475 0 
L 2900 0 
L 2900 538 
Q 2691 219 2414 64 
Q 2138 -91 1772 -91 
Q 1169 -91 856 284 
Q 544 659 544 1381 
z
M 1991 3584 
L 1991 3584 
z
" transform="scale(0.015625)"/>
      </defs>
      <use xlink:href="#DejaVuSans-74"/>
      <use xlink:href="#DejaVuSans-72" x="39.208984"/>
      <use xlink:href="#DejaVuSans-75" x="80.322266"/>
      <use xlink:href="#DejaVuSans-74" x="143.701172"/>
      <use xlink:href="#DejaVuSans-68" x="182.910156"/>
     </g>
    </g>
    <g id="line2d_20">
     <path d="M 160.777 65.6379 
L 178.057 65.6379 
L 195.337 65.6379 
" style="fill: none; stroke-dasharray: 25.9,11.2; stroke-dashoffset: 0; stroke: #0000ff; stroke-opacity: 0.6; stroke-width: 7"/>
    </g>
    <g id="text_24">
     <!-- 4 -->
     <g transform="translate(209.161 71.6859) scale(0.1728 -0.1728)">
      <use xlink:href="#DejaVuSans-34"/>
     </g>
    </g>
    <g id="line2d_21">
     <path d="M 160.777 91.0017 
L 178.057 91.0017 
L 195.337 91.0017 
" style="fill: none; stroke-dasharray: 7,11.55; stroke-dashoffset: 0; stroke: #008000; stroke-opacity: 0.6; stroke-width: 7"/>
    </g>
    <g id="text_25">
     <!-- 6 -->
     <g transform="translate(209.161 97.0497) scale(0.1728 -0.1728)">
      <use xlink:href="#DejaVuSans-36"/>
     </g>
    </g>
    <g id="line2d_22">
     <path d="M 160.777 116.3655 
L 178.057 116.3655 
L 195.337 116.3655 
" style="fill: none; stroke-dasharray: 44.8,11.2,7,11.2; stroke-dashoffset: 0; stroke: #ff0000; stroke-opacity: 0.6; stroke-width: 7"/>
    </g>
    <g id="text_26">
     <!-- 7 -->
     <g transform="translate(209.161 122.4135) scale(0.1728 -0.1728)">
      <use xlink:href="#DejaVuSans-37"/>
     </g>
    </g>
   </g>
  </g>
  <g id="line2d_23">
   <path d="M 493.875587 470.0528 
L 507.032213 511.7224 
" style="fill: none; stroke: #000000; stroke-opacity: 0.5; stroke-width: 2; stroke-linecap: square"/>
  </g>
  <g id="line2d_24">
   <path d="M 539.923778 464.1 
L 520.188839 511.7224 
" style="fill: none; stroke: #000000; stroke-opacity: 0.5; stroke-width: 2; stroke-linecap: square"/>
  </g>
  <g id="line2d_25">
   <path d="M 513.610526 529.5808 
L 513.610526 559.3448 
" style="fill: none; stroke: #000000; stroke-opacity: 0.5; stroke-width: 2; stroke-linecap: square"/>
  </g>
 </g>
 <defs>
  <clipPath id="p7aa2434f2f">
   <rect x="145.225" y="17.64" width="657.831297" height="595.28"/>
  </clipPath>
 </defs>
</svg>
