<?xml version="1.0" encoding="utf-8" standalone="no"?>
<!DOCTYPE svg PUBLIC "-//W3C//DTD SVG 1.1//EN"
  "http://www.w3.org/Graphics/SVG/1.1/DTD/svg11.dtd">
<svg xmlns:xlink="http://www.w3.org/1999/xlink" width="864pt" height="648pt" viewBox="0 0 864 648" xmlns="http://www.w3.org/2000/svg" version="1.1">
 <metadata>
  <rdf:RDF xmlns:dc="http://purl.org/dc/elements/1.1/" xmlns:cc="http://creativecommons.org/ns#" xmlns:rdf="http://www.w3.org/1999/02/22-rdf-syntax-ns#">
   <cc:Work>
    <dc:type rdf:resource="http://purl.org/dc/dcmitype/StillImage"/>
    <dc:date>2024-11-05T10:31:42.662422</dc:date>
    <dc:format>image/svg+xml</dc:format>
    <dc:creator>
     <cc:Agent>
      <dc:title>Matplotlib v3.9.2, https://matplotlib.org/</dc:title>
     </cc:Agent>
    </dc:creator>
   </cc:Work>
  </rdf:RDF>
 </metadata>
 <defs>
  <style type="text/css">*{stroke-linejoin: round; stroke-linecap: butt}</style>
 </defs>
 <g id="figure_1">
  <g id="patch_1">
   <path d="M 0 648 
L 864 648 
L 864 0 
L 0 0 
z
" style="fill: #ffffff"/>
  </g>
  <g id="axes_1">
   <g id="patch_2">
    <path d="M 134.065 612.92 
L 803.056297 612.92 
L 803.056297 10.8 
L 134.065 10.8 
z
" style="fill: #ffffff"/>
   </g>
   <g id="matplotlib.axis_1">
    <g id="xtick_1">
     <g id="line2d_1">
      <defs>
       <path id="mef227de0fc" d="M 0 0 
L 0 3.5 
" style="stroke: #000000; stroke-width: 0.8"/>
      </defs>
      <g>
       <use xlink:href="#mef227de0fc" x="194.863199" y="612.92" style="stroke: #000000; stroke-width: 0.8"/>
      </g>
     </g>
     <g id="text_1">
      <!-- 2021-08-31 -->
      <g transform="translate(144.651299 633.0501) scale(0.1728 -0.1728)">
       <defs>
        <path id="DejaVuSans-32" d="M 1228 531 
L 3431 531 
L 3431 0 
L 469 0 
L 469 531 
Q 828 903 1448 1529 
Q 2069 2156 2228 2338 
Q 2531 2678 2651 2914 
Q 2772 3150 2772 3378 
Q 2772 3750 2511 3984 
Q 2250 4219 1831 4219 
Q 1534 4219 1204 4116 
Q 875 4013 500 3803 
L 500 4441 
Q 881 4594 1212 4672 
Q 1544 4750 1819 4750 
Q 2544 4750 2975 4387 
Q 3406 4025 3406 3419 
Q 3406 3131 3298 2873 
Q 3191 2616 2906 2266 
Q 2828 2175 2409 1742 
Q 1991 1309 1228 531 
z
" transform="scale(0.015625)"/>
        <path id="DejaVuSans-30" d="M 2034 4250 
Q 1547 4250 1301 3770 
Q 1056 3291 1056 2328 
Q 1056 1369 1301 889 
Q 1547 409 2034 409 
Q 2525 409 2770 889 
Q 3016 1369 3016 2328 
Q 3016 3291 2770 3770 
Q 2525 4250 2034 4250 
z
M 2034 4750 
Q 2819 4750 3233 4129 
Q 3647 3509 3647 2328 
Q 3647 1150 3233 529 
Q 2819 -91 2034 -91 
Q 1250 -91 836 529 
Q 422 1150 422 2328 
Q 422 3509 836 4129 
Q 1250 4750 2034 4750 
z
" transform="scale(0.015625)"/>
        <path id="DejaVuSans-31" d="M 794 531 
L 1825 531 
L 1825 4091 
L 703 3866 
L 703 4441 
L 1819 4666 
L 2450 4666 
L 2450 531 
L 3481 531 
L 3481 0 
L 794 0 
L 794 531 
z
" transform="scale(0.015625)"/>
        <path id="DejaVuSans-2d" d="M 313 2009 
L 1997 2009 
L 1997 1497 
L 313 1497 
L 313 2009 
z
" transform="scale(0.015625)"/>
        <path id="DejaVuSans-38" d="M 2034 2216 
Q 1584 2216 1326 1975 
Q 1069 1734 1069 1313 
Q 1069 891 1326 650 
Q 1584 409 2034 409 
Q 2484 409 2743 651 
Q 3003 894 3003 1313 
Q 3003 1734 2745 1975 
Q 2488 2216 2034 2216 
z
M 1403 2484 
Q 997 2584 770 2862 
Q 544 3141 544 3541 
Q 544 4100 942 4425 
Q 1341 4750 2034 4750 
Q 2731 4750 3128 4425 
Q 3525 4100 3525 3541 
Q 3525 3141 3298 2862 
Q 3072 2584 2669 2484 
Q 3125 2378 3379 2068 
Q 3634 1759 3634 1313 
Q 3634 634 3220 271 
Q 2806 -91 2034 -91 
Q 1263 -91 848 271 
Q 434 634 434 1313 
Q 434 1759 690 2068 
Q 947 2378 1403 2484 
z
M 1172 3481 
Q 1172 3119 1398 2916 
Q 1625 2713 2034 2713 
Q 2441 2713 2670 2916 
Q 2900 3119 2900 3481 
Q 2900 3844 2670 4047 
Q 2441 4250 2034 4250 
Q 1625 4250 1398 4047 
Q 1172 3844 1172 3481 
z
" transform="scale(0.015625)"/>
        <path id="DejaVuSans-33" d="M 2597 2516 
Q 3050 2419 3304 2112 
Q 3559 1806 3559 1356 
Q 3559 666 3084 287 
Q 2609 -91 1734 -91 
Q 1441 -91 1130 -33 
Q 819 25 488 141 
L 488 750 
Q 750 597 1062 519 
Q 1375 441 1716 441 
Q 2309 441 2620 675 
Q 2931 909 2931 1356 
Q 2931 1769 2642 2001 
Q 2353 2234 1838 2234 
L 1294 2234 
L 1294 2753 
L 1863 2753 
Q 2328 2753 2575 2939 
Q 2822 3125 2822 3475 
Q 2822 3834 2567 4026 
Q 2313 4219 1838 4219 
Q 1578 4219 1281 4162 
Q 984 4106 628 3988 
L 628 4550 
Q 988 4650 1302 4700 
Q 1616 4750 1894 4750 
Q 2613 4750 3031 4423 
Q 3450 4097 3450 3541 
Q 3450 3153 3228 2886 
Q 3006 2619 2597 2516 
z
" transform="scale(0.015625)"/>
       </defs>
       <use xlink:href="#DejaVuSans-32"/>
       <use xlink:href="#DejaVuSans-30" x="63.623047"/>
       <use xlink:href="#DejaVuSans-32" x="127.246094"/>
       <use xlink:href="#DejaVuSans-31" x="190.869141"/>
       <use xlink:href="#DejaVuSans-2d" x="254.492188"/>
       <use xlink:href="#DejaVuSans-30" x="290.576172"/>
       <use xlink:href="#DejaVuSans-38" x="354.199219"/>
       <use xlink:href="#DejaVuSans-2d" x="417.822266"/>
       <use xlink:href="#DejaVuSans-33" x="453.90625"/>
       <use xlink:href="#DejaVuSans-31" x="517.529297"/>
      </g>
     </g>
    </g>
    <g id="xtick_2">
     <g id="line2d_2">
      <g>
       <use xlink:href="#mef227de0fc" x="346.858697" y="612.92" style="stroke: #000000; stroke-width: 0.8"/>
      </g>
     </g>
     <g id="text_2">
      <!-- 2021-09-05 -->
      <g transform="translate(296.646797 633.0501) scale(0.1728 -0.1728)">
       <defs>
        <path id="DejaVuSans-39" d="M 703 97 
L 703 672 
Q 941 559 1184 500 
Q 1428 441 1663 441 
Q 2288 441 2617 861 
Q 2947 1281 2994 2138 
Q 2813 1869 2534 1725 
Q 2256 1581 1919 1581 
Q 1219 1581 811 2004 
Q 403 2428 403 3163 
Q 403 3881 828 4315 
Q 1253 4750 1959 4750 
Q 2769 4750 3195 4129 
Q 3622 3509 3622 2328 
Q 3622 1225 3098 567 
Q 2575 -91 1691 -91 
Q 1453 -91 1209 -44 
Q 966 3 703 97 
z
M 1959 2075 
Q 2384 2075 2632 2365 
Q 2881 2656 2881 3163 
Q 2881 3666 2632 3958 
Q 2384 4250 1959 4250 
Q 1534 4250 1286 3958 
Q 1038 3666 1038 3163 
Q 1038 2656 1286 2365 
Q 1534 2075 1959 2075 
z
" transform="scale(0.015625)"/>
        <path id="DejaVuSans-35" d="M 691 4666 
L 3169 4666 
L 3169 4134 
L 1269 4134 
L 1269 2991 
Q 1406 3038 1543 3061 
Q 1681 3084 1819 3084 
Q 2600 3084 3056 2656 
Q 3513 2228 3513 1497 
Q 3513 744 3044 326 
Q 2575 -91 1722 -91 
Q 1428 -91 1123 -41 
Q 819 9 494 109 
L 494 744 
Q 775 591 1075 516 
Q 1375 441 1709 441 
Q 2250 441 2565 725 
Q 2881 1009 2881 1497 
Q 2881 1984 2565 2268 
Q 2250 2553 1709 2553 
Q 1456 2553 1204 2497 
Q 953 2441 691 2322 
L 691 4666 
z
" transform="scale(0.015625)"/>
       </defs>
       <use xlink:href="#DejaVuSans-32"/>
       <use xlink:href="#DejaVuSans-30" x="63.623047"/>
       <use xlink:href="#DejaVuSans-32" x="127.246094"/>
       <use xlink:href="#DejaVuSans-31" x="190.869141"/>
       <use xlink:href="#DejaVuSans-2d" x="254.492188"/>
       <use xlink:href="#DejaVuSans-30" x="290.576172"/>
       <use xlink:href="#DejaVuSans-39" x="354.199219"/>
       <use xlink:href="#DejaVuSans-2d" x="417.822266"/>
       <use xlink:href="#DejaVuSans-30" x="453.90625"/>
       <use xlink:href="#DejaVuSans-35" x="517.529297"/>
      </g>
     </g>
    </g>
    <g id="xtick_3">
     <g id="line2d_3">
      <g>
       <use xlink:href="#mef227de0fc" x="498.854196" y="612.92" style="stroke: #000000; stroke-width: 0.8"/>
      </g>
     </g>
     <g id="text_3">
      <!-- 2021-09-10 -->
      <g transform="translate(448.642296 633.0501) scale(0.1728 -0.1728)">
       <use xlink:href="#DejaVuSans-32"/>
       <use xlink:href="#DejaVuSans-30" x="63.623047"/>
       <use xlink:href="#DejaVuSans-32" x="127.246094"/>
       <use xlink:href="#DejaVuSans-31" x="190.869141"/>
       <use xlink:href="#DejaVuSans-2d" x="254.492188"/>
       <use xlink:href="#DejaVuSans-30" x="290.576172"/>
       <use xlink:href="#DejaVuSans-39" x="354.199219"/>
       <use xlink:href="#DejaVuSans-2d" x="417.822266"/>
       <use xlink:href="#DejaVuSans-31" x="453.90625"/>
       <use xlink:href="#DejaVuSans-30" x="517.529297"/>
      </g>
     </g>
    </g>
    <g id="xtick_4">
     <g id="line2d_4">
      <g>
       <use xlink:href="#mef227de0fc" x="650.849694" y="612.92" style="stroke: #000000; stroke-width: 0.8"/>
      </g>
     </g>
     <g id="text_4">
      <!-- 2021-09-15 -->
      <g transform="translate(600.637794 633.0501) scale(0.1728 -0.1728)">
       <use xlink:href="#DejaVuSans-32"/>
       <use xlink:href="#DejaVuSans-30" x="63.623047"/>
       <use xlink:href="#DejaVuSans-32" x="127.246094"/>
       <use xlink:href="#DejaVuSans-31" x="190.869141"/>
       <use xlink:href="#DejaVuSans-2d" x="254.492188"/>
       <use xlink:href="#DejaVuSans-30" x="290.576172"/>
       <use xlink:href="#DejaVuSans-39" x="354.199219"/>
       <use xlink:href="#DejaVuSans-2d" x="417.822266"/>
       <use xlink:href="#DejaVuSans-31" x="453.90625"/>
       <use xlink:href="#DejaVuSans-35" x="517.529297"/>
      </g>
     </g>
    </g>
    <g id="xtick_5">
     <g id="line2d_5">
      <g>
       <use xlink:href="#mef227de0fc" x="802.845192" y="612.92" style="stroke: #000000; stroke-width: 0.8"/>
      </g>
     </g>
     <g id="text_5">
      <!-- 2021-09-20 -->
      <g transform="translate(752.633292 633.0501) scale(0.1728 -0.1728)">
       <use xlink:href="#DejaVuSans-32"/>
       <use xlink:href="#DejaVuSans-30" x="63.623047"/>
       <use xlink:href="#DejaVuSans-32" x="127.246094"/>
       <use xlink:href="#DejaVuSans-31" x="190.869141"/>
       <use xlink:href="#DejaVuSans-2d" x="254.492188"/>
       <use xlink:href="#DejaVuSans-30" x="290.576172"/>
       <use xlink:href="#DejaVuSans-39" x="354.199219"/>
       <use xlink:href="#DejaVuSans-2d" x="417.822266"/>
       <use xlink:href="#DejaVuSans-32" x="453.90625"/>
       <use xlink:href="#DejaVuSans-30" x="517.529297"/>
      </g>
     </g>
    </g>
   </g>
   <g id="matplotlib.axis_2">
    <g id="ytick_1">
     <g id="line2d_6">
      <defs>
       <path id="m611822f1aa" d="M 0 0 
L -3.5 0 
" style="stroke: #000000; stroke-width: 0.8"/>
      </defs>
      <g>
       <use xlink:href="#m611822f1aa" x="134.065" y="595.716571" style="stroke: #000000; stroke-width: 0.8"/>
      </g>
     </g>
     <g id="text_6">
      <!-- −0.2 -->
      <g transform="translate(85.1043 602.281621) scale(0.1728 -0.1728)">
       <defs>
        <path id="DejaVuSans-2212" d="M 678 2272 
L 4684 2272 
L 4684 1741 
L 678 1741 
L 678 2272 
z
" transform="scale(0.015625)"/>
        <path id="DejaVuSans-2e" d="M 684 794 
L 1344 794 
L 1344 0 
L 684 0 
L 684 794 
z
" transform="scale(0.015625)"/>
       </defs>
       <use xlink:href="#DejaVuSans-2212"/>
       <use xlink:href="#DejaVuSans-30" x="83.789062"/>
       <use xlink:href="#DejaVuSans-2e" x="147.412109"/>
       <use xlink:href="#DejaVuSans-32" x="179.199219"/>
      </g>
     </g>
    </g>
    <g id="ytick_2">
     <g id="line2d_7">
      <g>
       <use xlink:href="#m611822f1aa" x="134.065" y="526.902857" style="stroke: #000000; stroke-width: 0.8"/>
      </g>
     </g>
     <g id="text_7">
      <!-- 0.0 -->
      <g transform="translate(99.5844 533.467907) scale(0.1728 -0.1728)">
       <use xlink:href="#DejaVuSans-30"/>
       <use xlink:href="#DejaVuSans-2e" x="63.623047"/>
       <use xlink:href="#DejaVuSans-30" x="95.410156"/>
      </g>
     </g>
    </g>
    <g id="ytick_3">
     <g id="line2d_8">
      <g>
       <use xlink:href="#m611822f1aa" x="134.065" y="458.089143" style="stroke: #000000; stroke-width: 0.8"/>
      </g>
     </g>
     <g id="text_8">
      <!-- 0.2 -->
      <g transform="translate(99.5844 464.654193) scale(0.1728 -0.1728)">
       <use xlink:href="#DejaVuSans-30"/>
       <use xlink:href="#DejaVuSans-2e" x="63.623047"/>
       <use xlink:href="#DejaVuSans-32" x="95.410156"/>
      </g>
     </g>
    </g>
    <g id="ytick_4">
     <g id="line2d_9">
      <g>
       <use xlink:href="#m611822f1aa" x="134.065" y="389.275429" style="stroke: #000000; stroke-width: 0.8"/>
      </g>
     </g>
     <g id="text_9">
      <!-- 0.4 -->
      <g transform="translate(99.5844 395.840479) scale(0.1728 -0.1728)">
       <defs>
        <path id="DejaVuSans-34" d="M 2419 4116 
L 825 1625 
L 2419 1625 
L 2419 4116 
z
M 2253 4666 
L 3047 4666 
L 3047 1625 
L 3713 1625 
L 3713 1100 
L 3047 1100 
L 3047 0 
L 2419 0 
L 2419 1100 
L 313 1100 
L 313 1709 
L 2253 4666 
z
" transform="scale(0.015625)"/>
       </defs>
       <use xlink:href="#DejaVuSans-30"/>
       <use xlink:href="#DejaVuSans-2e" x="63.623047"/>
       <use xlink:href="#DejaVuSans-34" x="95.410156"/>
      </g>
     </g>
    </g>
    <g id="ytick_5">
     <g id="line2d_10">
      <g>
       <use xlink:href="#m611822f1aa" x="134.065" y="320.461714" style="stroke: #000000; stroke-width: 0.8"/>
      </g>
     </g>
     <g id="text_10">
      <!-- 0.6 -->
      <g transform="translate(99.5844 327.026764) scale(0.1728 -0.1728)">
       <defs>
        <path id="DejaVuSans-36" d="M 2113 2584 
Q 1688 2584 1439 2293 
Q 1191 2003 1191 1497 
Q 1191 994 1439 701 
Q 1688 409 2113 409 
Q 2538 409 2786 701 
Q 3034 994 3034 1497 
Q 3034 2003 2786 2293 
Q 2538 2584 2113 2584 
z
M 3366 4563 
L 3366 3988 
Q 3128 4100 2886 4159 
Q 2644 4219 2406 4219 
Q 1781 4219 1451 3797 
Q 1122 3375 1075 2522 
Q 1259 2794 1537 2939 
Q 1816 3084 2150 3084 
Q 2853 3084 3261 2657 
Q 3669 2231 3669 1497 
Q 3669 778 3244 343 
Q 2819 -91 2113 -91 
Q 1303 -91 875 529 
Q 447 1150 447 2328 
Q 447 3434 972 4092 
Q 1497 4750 2381 4750 
Q 2619 4750 2861 4703 
Q 3103 4656 3366 4563 
z
" transform="scale(0.015625)"/>
       </defs>
       <use xlink:href="#DejaVuSans-30"/>
       <use xlink:href="#DejaVuSans-2e" x="63.623047"/>
       <use xlink:href="#DejaVuSans-36" x="95.410156"/>
      </g>
     </g>
    </g>
    <g id="ytick_6">
     <g id="line2d_11">
      <g>
       <use xlink:href="#m611822f1aa" x="134.065" y="251.648" style="stroke: #000000; stroke-width: 0.8"/>
      </g>
     </g>
     <g id="text_11">
      <!-- 0.8 -->
      <g transform="translate(99.5844 258.21305) scale(0.1728 -0.1728)">
       <use xlink:href="#DejaVuSans-30"/>
       <use xlink:href="#DejaVuSans-2e" x="63.623047"/>
       <use xlink:href="#DejaVuSans-38" x="95.410156"/>
      </g>
     </g>
    </g>
    <g id="ytick_7">
     <g id="line2d_12">
      <g>
       <use xlink:href="#m611822f1aa" x="134.065" y="182.834286" style="stroke: #000000; stroke-width: 0.8"/>
      </g>
     </g>
     <g id="text_12">
      <!-- 1.0 -->
      <g transform="translate(99.5844 189.399336) scale(0.1728 -0.1728)">
       <use xlink:href="#DejaVuSans-31"/>
       <use xlink:href="#DejaVuSans-2e" x="63.623047"/>
       <use xlink:href="#DejaVuSans-30" x="95.410156"/>
      </g>
     </g>
    </g>
    <g id="ytick_8">
     <g id="line2d_13">
      <g>
       <use xlink:href="#m611822f1aa" x="134.065" y="114.020571" style="stroke: #000000; stroke-width: 0.8"/>
      </g>
     </g>
     <g id="text_13">
      <!-- 1.2 -->
      <g transform="translate(99.5844 120.585621) scale(0.1728 -0.1728)">
       <use xlink:href="#DejaVuSans-31"/>
       <use xlink:href="#DejaVuSans-2e" x="63.623047"/>
       <use xlink:href="#DejaVuSans-32" x="95.410156"/>
      </g>
     </g>
    </g>
    <g id="ytick_9">
     <g id="line2d_14">
      <g>
       <use xlink:href="#m611822f1aa" x="134.065" y="45.206857" style="stroke: #000000; stroke-width: 0.8"/>
      </g>
     </g>
     <g id="text_14">
      <!-- 1.4 -->
      <g transform="translate(99.5844 51.771907) scale(0.1728 -0.1728)">
       <use xlink:href="#DejaVuSans-31"/>
       <use xlink:href="#DejaVuSans-2e" x="63.623047"/>
       <use xlink:href="#DejaVuSans-34" x="95.410156"/>
      </g>
     </g>
    </g>
    <g id="text_15">
     <!-- Node 8 -->
     <g transform="translate(24.30945 288.91648) scale(0.1728 -0.1728)">
      <defs>
       <path id="DejaVuSans-4e" d="M 628 4666 
L 1478 4666 
L 3547 763 
L 3547 4666 
L 4159 4666 
L 4159 0 
L 3309 0 
L 1241 3903 
L 1241 0 
L 628 0 
L 628 4666 
z
" transform="scale(0.015625)"/>
       <path id="DejaVuSans-6f" d="M 1959 3097 
Q 1497 3097 1228 2736 
Q 959 2375 959 1747 
Q 959 1119 1226 758 
Q 1494 397 1959 397 
Q 2419 397 2687 759 
Q 2956 1122 2956 1747 
Q 2956 2369 2687 2733 
Q 2419 3097 1959 3097 
z
M 1959 3584 
Q 2709 3584 3137 3096 
Q 3566 2609 3566 1747 
Q 3566 888 3137 398 
Q 2709 -91 1959 -91 
Q 1206 -91 779 398 
Q 353 888 353 1747 
Q 353 2609 779 3096 
Q 1206 3584 1959 3584 
z
" transform="scale(0.015625)"/>
       <path id="DejaVuSans-64" d="M 2906 2969 
L 2906 4863 
L 3481 4863 
L 3481 0 
L 2906 0 
L 2906 525 
Q 2725 213 2448 61 
Q 2172 -91 1784 -91 
Q 1150 -91 751 415 
Q 353 922 353 1747 
Q 353 2572 751 3078 
Q 1150 3584 1784 3584 
Q 2172 3584 2448 3432 
Q 2725 3281 2906 2969 
z
M 947 1747 
Q 947 1113 1208 752 
Q 1469 391 1925 391 
Q 2381 391 2643 752 
Q 2906 1113 2906 1747 
Q 2906 2381 2643 2742 
Q 2381 3103 1925 3103 
Q 1469 3103 1208 2742 
Q 947 2381 947 1747 
z
" transform="scale(0.015625)"/>
       <path id="DejaVuSans-65" d="M 3597 1894 
L 3597 1613 
L 953 1613 
Q 991 1019 1311 708 
Q 1631 397 2203 397 
Q 2534 397 2845 478 
Q 3156 559 3463 722 
L 3463 178 
Q 3153 47 2828 -22 
Q 2503 -91 2169 -91 
Q 1331 -91 842 396 
Q 353 884 353 1716 
Q 353 2575 817 3079 
Q 1281 3584 2069 3584 
Q 2775 3584 3186 3129 
Q 3597 2675 3597 1894 
z
M 3022 2063 
Q 3016 2534 2758 2815 
Q 2500 3097 2075 3097 
Q 1594 3097 1305 2825 
Q 1016 2553 972 2059 
L 3022 2063 
z
" transform="scale(0.015625)"/>
       <path id="DejaVuSans-20" transform="scale(0.015625)"/>
      </defs>
      <use xlink:href="#DejaVuSans-4e"/>
      <use xlink:href="#DejaVuSans-6f" x="74.804688"/>
      <use xlink:href="#DejaVuSans-64" x="135.986328"/>
      <use xlink:href="#DejaVuSans-65" x="199.462891"/>
      <use xlink:href="#DejaVuSans-20" x="260.986328"/>
      <use xlink:href="#DejaVuSans-38" x="292.773438"/>
     </g>
     <!-- Depth (m) -->
     <g transform="translate(10.8837 308.2663) scale(0.1728 -0.1728)">
      <defs>
       <path id="DejaVuSans-44" d="M 1259 4147 
L 1259 519 
L 2022 519 
Q 2988 519 3436 956 
Q 3884 1394 3884 2338 
Q 3884 3275 3436 3711 
Q 2988 4147 2022 4147 
L 1259 4147 
z
M 628 4666 
L 1925 4666 
Q 3281 4666 3915 4102 
Q 4550 3538 4550 2338 
Q 4550 1131 3912 565 
Q 3275 0 1925 0 
L 628 0 
L 628 4666 
z
" transform="scale(0.015625)"/>
       <path id="DejaVuSans-70" d="M 1159 525 
L 1159 -1331 
L 581 -1331 
L 581 3500 
L 1159 3500 
L 1159 2969 
Q 1341 3281 1617 3432 
Q 1894 3584 2278 3584 
Q 2916 3584 3314 3078 
Q 3713 2572 3713 1747 
Q 3713 922 3314 415 
Q 2916 -91 2278 -91 
Q 1894 -91 1617 61 
Q 1341 213 1159 525 
z
M 3116 1747 
Q 3116 2381 2855 2742 
Q 2594 3103 2138 3103 
Q 1681 3103 1420 2742 
Q 1159 2381 1159 1747 
Q 1159 1113 1420 752 
Q 1681 391 2138 391 
Q 2594 391 2855 752 
Q 3116 1113 3116 1747 
z
" transform="scale(0.015625)"/>
       <path id="DejaVuSans-74" d="M 1172 4494 
L 1172 3500 
L 2356 3500 
L 2356 3053 
L 1172 3053 
L 1172 1153 
Q 1172 725 1289 603 
Q 1406 481 1766 481 
L 2356 481 
L 2356 0 
L 1766 0 
Q 1100 0 847 248 
Q 594 497 594 1153 
L 594 3053 
L 172 3053 
L 172 3500 
L 594 3500 
L 594 4494 
L 1172 4494 
z
" transform="scale(0.015625)"/>
       <path id="DejaVuSans-68" d="M 3513 2113 
L 3513 0 
L 2938 0 
L 2938 2094 
Q 2938 2591 2744 2837 
Q 2550 3084 2163 3084 
Q 1697 3084 1428 2787 
Q 1159 2491 1159 1978 
L 1159 0 
L 581 0 
L 581 4863 
L 1159 4863 
L 1159 2956 
Q 1366 3272 1645 3428 
Q 1925 3584 2291 3584 
Q 2894 3584 3203 3211 
Q 3513 2838 3513 2113 
z
" transform="scale(0.015625)"/>
       <path id="DejaVuSans-28" d="M 1984 4856 
Q 1566 4138 1362 3434 
Q 1159 2731 1159 2009 
Q 1159 1288 1364 580 
Q 1569 -128 1984 -844 
L 1484 -844 
Q 1016 -109 783 600 
Q 550 1309 550 2009 
Q 550 2706 781 3412 
Q 1013 4119 1484 4856 
L 1984 4856 
z
" transform="scale(0.015625)"/>
       <path id="DejaVuSans-6d" d="M 3328 2828 
Q 3544 3216 3844 3400 
Q 4144 3584 4550 3584 
Q 5097 3584 5394 3201 
Q 5691 2819 5691 2113 
L 5691 0 
L 5113 0 
L 5113 2094 
Q 5113 2597 4934 2840 
Q 4756 3084 4391 3084 
Q 3944 3084 3684 2787 
Q 3425 2491 3425 1978 
L 3425 0 
L 2847 0 
L 2847 2094 
Q 2847 2600 2669 2842 
Q 2491 3084 2119 3084 
Q 1678 3084 1418 2786 
Q 1159 2488 1159 1978 
L 1159 0 
L 581 0 
L 581 3500 
L 1159 3500 
L 1159 2956 
Q 1356 3278 1631 3431 
Q 1906 3584 2284 3584 
Q 2666 3584 2933 3390 
Q 3200 3197 3328 2828 
z
" transform="scale(0.015625)"/>
       <path id="DejaVuSans-29" d="M 513 4856 
L 1013 4856 
Q 1481 4119 1714 3412 
Q 1947 2706 1947 2009 
Q 1947 1309 1714 600 
Q 1481 -109 1013 -844 
L 513 -844 
Q 928 -128 1133 580 
Q 1338 1288 1338 2009 
Q 1338 2731 1133 3434 
Q 928 4138 513 4856 
z
" transform="scale(0.015625)"/>
      </defs>
      <use xlink:href="#DejaVuSans-44"/>
      <use xlink:href="#DejaVuSans-65" x="77.001953"/>
      <use xlink:href="#DejaVuSans-70" x="138.525391"/>
      <use xlink:href="#DejaVuSans-74" x="202.001953"/>
      <use xlink:href="#DejaVuSans-68" x="241.210938"/>
      <use xlink:href="#DejaVuSans-20" x="304.589844"/>
      <use xlink:href="#DejaVuSans-28" x="336.376953"/>
      <use xlink:href="#DejaVuSans-6d" x="375.390625"/>
      <use xlink:href="#DejaVuSans-29" x="472.802734"/>
     </g>
    </g>
   </g>
   <g id="line2d_15">
    <path d="M 133.959448 446.889939 
L 136.070496 447.173123 
M 136.281601 447.187276 
L 138.39265 447.463281 
M 138.603754 447.477082 
L 139.764831 447.63124 
M 139.975936 447.644853 
L 145.675767 448.325571 
M 145.886872 448.33833 
L 146.414634 448.409092 
M 146.625739 448.421723 
L 147.470159 448.527197 
M 147.681263 448.539701 
L 150.425627 448.850131 
M 150.636731 448.862184 
L 156.336563 449.45307 
L 156.442115 449.154146 
L 156.547667 447.030758 
L 157.07543 424.158186 
L 157.286534 375.522859 
L 157.814297 183.222228 
L 158.025401 180.492671 
L 158.447611 176.50989 
L 158.553164 173.127092 
M 158.764268 171.910638 
L 158.975373 170.514816 
L 159.080926 170.490335 
L 159.292031 171.112866 
L 159.71424 173.356784 
L 161.825289 187.605574 
L 163.936337 202.434462 
L 170.797245 250.659622 
M 171.00835 251.387293 
L 171.958322 258.516636 
M 172.169427 259.237637 
L 173.436056 268.421058 
M 173.647161 269.139094 
L 175.124895 279.603506 
M 175.336 280.313963 
L 176.602629 289.256968 
M 176.813734 289.959277 
L 179.663649 308.212499 
L 180.719174 314.791516 
L 180.824726 316.081035 
M 181.035831 316.755266 
L 182.619117 327.087734 
M 182.830222 327.747694 
L 185.152376 341.58486 
L 189.480025 365.820508 
L 189.585578 366.943788 
M 189.796683 367.526496 
L 191.802179 377.90496 
L 192.857703 383.620307 
M 193.068808 384.150698 
L 194.863199 392.555835 
L 198.557534 407.914544 
L 199.929716 413.207297 
M 200.140821 413.580306 
L 200.668583 415.675049 
M 200.879688 416.029914 
L 202.146317 419.928168 
L 204.362918 425.691678 
L 205.523995 428.155418 
L 205.946204 429.147526 
M 206.157309 429.346585 
L 207.107281 431.117169 
M 207.318386 431.287117 
L 208.479463 432.943356 
L 210.379406 435.119563 
L 211.646036 436.280612 
L 212.70156 437.160454 
M 212.912665 437.236394 
L 214.284846 438.090781 
L 215.340371 438.684812 
M 215.551475 438.736044 
L 217.240314 439.427267 
L 218.190286 439.779079 
M 219.034706 439.996334 
L 221.251307 440.521824 
L 224.734537 441.07805 
L 227.690005 441.397499 
M 227.90111 441.406979 
L 228.323319 441.45031 
M 228.534424 441.459142 
L 231.38434 441.660376 
M 231.595445 441.666809 
L 233.812046 441.787737 
M 234.023151 441.792929 
L 235.817542 441.874973 
M 236.028647 441.879407 
L 239.19522 441.996157 
M 239.406324 441.999692 
L 241.728478 442.072189 
M 241.939583 442.075293 
L 244.050631 442.1343 
M 244.261736 442.137116 
L 245.211708 442.163309 
M 245.422813 442.16602 
L 249.011596 442.251517 
M 249.2227 442.253965 
L 249.961567 442.27236 
M 250.172672 442.274775 
L 266.427746 442.503893 
L 274.449731 442.503081 
M 274.660836 442.503074 
L 283.632792 442.502326 
M 283.843897 442.50232 
L 286.060498 442.502148 
M 286.271603 442.502143 
L 286.693813 442.502105 
M 286.904918 442.502099 
L 294.39914 442.501603 
M 294.610245 442.501598 
L 298.093475 442.501384 
M 298.30458 442.50138 
L 301.893363 442.501172 
M 302.104467 442.501168 
L 305.482145 442.500989 
M 305.69325 442.500985 
L 306.221012 442.500951 
M 306.432117 442.500947 
L 307.698746 442.500877 
M 307.909851 442.500873 
L 311.076424 442.500724 
M 311.287529 442.500721 
L 314.981864 442.500551 
M 315.192969 442.500548 
L 316.98736 442.500468 
M 317.198465 442.500465 
L 321.103905 442.500297 
M 321.31501 442.500294 
L 321.948324 442.500263 
M 322.159429 442.500259 
L 322.792744 442.500228 
M 323.003848 442.500225 
L 323.214953 442.500217 
M 323.426058 442.500214 
L 327.648155 442.500062 
M 327.85926 442.500059 
L 328.070365 442.50004 
M 328.28147 442.500037 
L 330.498071 442.499963 
M 330.709176 442.49996 
L 331.34249 442.499931 
M 331.553595 442.499928 
L 335.24793 442.499806 
M 335.459035 442.499797 
L 337.253426 442.499744 
M 337.464531 442.499742 
L 338.520056 442.499705 
M 338.73116 442.499702 
L 341.264419 442.499624 
M 341.475524 442.499621 
L 346.014278 442.499486 
M 346.225383 442.499484 
L 346.647593 442.499474 
M 346.858697 442.499472 
L 346.96425 442.499468 
M 347.175355 442.499454 
L 350.341928 442.499374 
M 350.553033 442.499372 
L 351.608557 442.499339 
M 351.819662 442.499337 
L 359.208332 442.49916 
M 359.419437 442.499158 
L 359.630541 442.499141 
M 360.052751 442.499136 
L 360.263856 442.499131 
M 360.474961 442.499129 
L 360.686066 442.499124 
M 360.897171 442.499122 
L 361.108275 442.499105 
M 361.31938 442.499103 
L 361.530485 442.499098 
M 361.74159 442.499096 
L 362.1638 442.499088 
M 362.374905 442.499086 
L 373.669015 442.498857 
M 373.880119 442.498856 
L 374.830091 442.498829 
M 375.041196 442.498828 
L 377.36335 442.498784 
L 377.468902 412.280228 
M 377.680007 383.758523 
L 377.996664 338.10114 
M 378.207769 325.105919 
L 378.524426 300.071887 
L 378.735531 294.512152 
M 378.946636 292.310912 
L 379.263293 288.748204 
L 379.685503 287.079825 
M 379.896608 286.91695 
L 380.318818 286.503276 
L 381.057685 286.161986 
L 382.113209 285.948118 
L 384.435362 285.782418 
L 385.068677 285.758143 
M 385.279782 285.755103 
L 387.179725 285.715048 
M 387.39083 285.71349 
L 388.024145 285.704185 
M 388.23525 285.702954 
L 399.423807 285.653576 
M 399.634912 285.653398 
L 400.268227 285.652284 
M 400.479332 285.652121 
L 412.406756 285.642097 
M 412.617861 285.642043 
L 415.573329 285.640752 
M 415.784434 285.64071 
L 415.995539 285.640594 
M 416.206644 285.640553 
L 422.645342 285.63859 
M 422.856447 285.638563 
L 425.917467 285.637854 
M 426.128572 285.637831 
L 427.500753 285.637541 
M 427.711858 285.63752 
L 428.134068 285.637422 
M 428.345173 285.637403 
L 429.189592 285.637234 
M 429.400697 285.637216 
L 430.034012 285.57327 
L 430.245117 284.044256 
L 430.667326 276.571844 
L 431.511746 249.054931 
L 431.617298 227.828652 
M 431.828403 213.091527 
L 432.039508 197.841306 
L 432.356165 182.705445 
M 432.56727 178.295177 
L 433.41169 136.549278 
M 433.622794 134.600609 
L 433.833899 133.448383 
L 434.045004 133.339795 
L 434.256109 133.601252 
L 434.678319 134.525931 
L 436.47271 139.331069 
L 436.578262 138.50232 
M 436.789367 137.807973 
L 437.106025 136.148934 
L 437.317129 136.121231 
L 437.633787 136.61349 
L 438.055996 137.613535 
L 438.161549 138.173031 
M 438.372654 138.486007 
L 440.483702 144.652567 
L 442.066989 149.611885 
M 442.278094 149.923521 
L 444.178037 155.681736 
M 444.389142 155.988849 
L 447.133505 163.583878 
L 450.300078 171.891592 
L 450.405631 172.4282 
M 450.616735 172.707739 
L 452.622232 177.712986 
L 453.255546 179.257276 
L 453.361099 179.744975 
M 453.572204 180.011 
L 457.899853 190.18865 
M 458.110958 190.433757 
L 459.588692 193.831449 
M 459.799797 194.067513 
L 464.866313 204.195718 
L 465.921838 206.345674 
M 466.132943 206.551423 
L 466.766257 207.880334 
M 466.977362 208.08222 
L 471.199459 215.436705 
M 471.410564 215.619176 
L 473.204955 218.582842 
M 473.41606 218.75619 
L 473.943822 219.699858 
M 474.154927 219.869956 
L 474.682689 220.795497 
M 474.893794 220.962116 
L 477.954815 225.388304 
M 478.16592 225.540796 
L 478.904787 226.645223 
M 479.115891 226.793786 
L 479.854758 227.868717 
M 480.065863 228.013344 
L 483.126884 231.835286 
M 483.337989 231.966913 
L 486.610114 235.552021 
L 487.348981 236.416762 
M 487.560086 236.532996 
L 488.826715 237.886818 
M 489.03782 237.989317 
L 490.515554 239.390103 
L 492.94326 241.641458 
M 493.154364 241.739256 
L 495.58207 243.802217 
M 495.793175 243.892037 
L 498.748643 246.162393 
M 498.959748 246.237071 
L 499.065301 246.385046 
M 499.276405 246.465328 
L 502.97074 248.884937 
L 506.453971 250.908801 
L 510.464963 252.960177 
L 512.259354 253.832645 
M 512.470459 253.879885 
L 515.953689 255.376468 
M 516.164794 255.418069 
L 520.492444 256.983113 
L 521.020206 257.189699 
M 521.231311 257.224432 
L 522.92015 257.789082 
M 523.131254 257.824285 
L 524.820093 258.348766 
M 525.031198 258.378994 
L 526.508932 258.815047 
M 526.720037 258.84332 
L 528.092219 259.226896 
M 528.303323 259.253562 
L 532.314316 260.215854 
M 532.525421 260.238983 
L 538.119699 261.349302 
M 538.330804 261.367997 
L 540.125196 261.688137 
M 540.3363 261.705409 
L 541.18072 261.856781 
M 541.391825 261.873547 
L 542.130692 262.003031 
M 542.341797 262.019237 
L 543.925083 262.265886 
M 544.136188 262.280878 
L 546.563894 262.622448 
M 546.774999 262.63611 
L 549.097152 262.933936 
M 549.308257 262.946515 
L 552.158172 263.273981 
M 552.369277 263.285132 
L 552.897039 263.350553 
M 553.108144 263.361443 
L 553.635906 263.425122 
M 553.847011 263.4357 
L 554.374773 263.49774 
M 554.585878 263.508068 
L 557.858004 263.815155 
M 558.069109 263.824254 
L 559.230185 263.929709 
M 559.44129 263.938466 
L 562.396758 264.173642 
M 562.607863 264.181388 
L 565.457779 264.384839 
M 565.668883 264.3918 
L 568.413247 264.568335 
M 568.624351 264.574682 
L 576.013022 264.962619 
M 576.224126 264.967519 
L 576.540784 264.986401 
M 576.751889 264.99123 
L 580.973986 265.17056 
M 581.185091 265.17468 
L 582.45172 265.226226 
M 582.662825 265.230206 
L 587.940446 265.411301 
M 588.151551 265.414649 
L 595.540221 265.620641 
M 595.751326 265.623295 
L 603.351101 265.792246 
M 603.562206 265.794387 
L 605.567702 265.834547 
M 605.778807 265.836545 
L 607.784303 265.874424 
M 607.995408 265.876327 
L 608.839827 265.892619 
M 609.050932 265.89445 
L 611.689743 265.939379 
M 611.900847 265.941106 
L 613.061924 265.960742 
M 613.273029 265.962392 
L 616.122945 266.00592 
M 616.334049 266.007455 
L 617.811784 266.029495 
M 618.022888 266.030989 
L 618.128441 266.033812 
M 618.339546 266.035294 
L 623.617167 266.10407 
M 623.828272 266.105375 
L 632.800228 266.205245 
M 633.011333 266.206347 
L 633.961305 266.21683 
M 634.17241 266.2179 
L 636.283459 266.239303 
M 636.494563 266.240332 
L 638.288955 266.258009 
M 638.50006 266.259007 
L 638.605612 266.26001 
L 638.711165 265.854986 
L 638.922269 258.94837 
L 639.555584 226.682615 
L 639.766689 225.4046 
L 640.083346 224.804521 
M 640.294451 224.791774 
L 640.716661 224.965045 
L 641.13887 225.316289 
L 641.244423 225.513377 
M 641.455528 225.622308 
L 643.249919 227.660355 
L 643.777681 228.211902 
L 643.883234 227.930274 
L 644.094338 225.88096 
L 644.622101 216.929235 
L 644.833205 216.32037 
L 645.04431 216.128619 
L 645.360968 216.185256 
L 645.88873 216.640516 
L 646.627597 217.523365 
L 647.260911 218.287961 
L 647.366464 218.003974 
L 647.788673 215.875802 
L 647.999778 215.662538 
L 648.316436 215.704442 
L 648.844198 216.150276 
L 649.899722 217.455791 
L 651.271904 219.465808 
M 651.483008 219.612139 
L 655.494001 224.946621 
L 655.91621 225.606959 
M 656.127315 225.741424 
L 659.293888 229.534846 
L 662.143804 232.663196 
L 668.793607 239.079952 
M 669.004712 239.171721 
L 669.215817 239.438671 
M 669.426921 239.530298 
L 671.854627 241.573318 
M 672.065732 241.657675 
L 674.915648 243.760094 
L 677.448906 245.474606 
L 680.509927 247.412113 
M 680.721031 247.475744 
L 682.304318 248.424457 
M 682.515423 248.483717 
L 685.259786 249.913465 
L 686.631967 250.624071 
M 686.843072 250.675222 
L 688.004149 251.255114 
M 688.215254 251.303839 
L 689.904093 252.080333 
M 690.115198 252.126508 
L 690.959617 252.515407 
M 691.170722 252.559934 
L 692.331799 253.058046 
M 692.542903 253.100646 
L 695.392819 254.25673 
M 695.603924 254.298844 
L 697.820525 255.236367 
M 698.03163 255.281402 
L 698.137182 255.367337 
M 698.348287 255.412546 
L 700.037126 256.173892 
M 700.248231 256.220369 
L 704.048118 258.008389 
M 704.259223 258.060678 
L 705.525852 258.731767 
M 705.736957 258.786145 
L 709.220187 260.64501 
M 709.642397 260.81806 
L 717.981039 265.674344 
M 718.403249 265.870137 
L 721.886479 268.018801 
L 722.097584 268.215541 
M 722.308689 268.284909 
L 723.25866 268.947516 
M 723.469765 269.018378 
L 727.1641 271.383041 
L 727.375205 271.586666 
M 727.58631 271.65851 
L 728.114072 272.066371 
M 728.325177 272.13905 
L 731.808407 274.42317 
L 731.91396 274.556856 
M 732.125064 274.630215 
L 736.558266 277.57319 
L 741.413678 280.813047 
L 744.052489 282.645911 
M 744.263594 282.720651 
L 749.646768 286.306082 
L 751.546711 287.634186 
M 751.757816 287.708217 
L 753.868865 289.166491 
M 754.07997 289.240895 
L 762.418612 294.657719 
L 762.524164 294.789331 
M 762.735269 294.862101 
L 764.107451 295.799531 
M 764.318555 295.871765 
L 766.535156 297.336097 
M 766.746261 297.407785 
L 770.440596 299.773682 
M 770.651701 299.843453 
L 770.862806 300.03471 
M 771.073911 300.105015 
L 773.184959 301.460008 
M 773.396064 301.528866 
L 774.134931 302.038277 
M 774.346036 302.106793 
L 777.090399 303.819391 
M 777.301504 303.887012 
L 780.256972 305.695999 
M 780.468077 305.762444 
L 780.784734 306.005565 
M 780.995839 306.072547 
L 786.69567 309.407582 
M 786.906775 309.472404 
L 790.706663 311.646569 
M 790.917768 311.70995 
L 800.734143 316.992309 
M 800.945248 317.051946 
L 801.89522 317.58783 
M 802.106325 317.646198 
L 802.950745 318.125026 
M 803.161849 318.183605 
" clip-path="url(#p53bed951f2)" style="fill: none; stroke: #000000; stroke-opacity: 0.6; stroke-width: 7; stroke-linecap: square"/>
   </g>
   <g id="line2d_16">
    <path d="M 133.959448 519.802174 
L 136.070496 519.82218 
M 136.281601 519.823131 
L 138.39265 519.843078 
M 138.603754 519.844027 
L 139.764831 519.855398 
M 139.975936 519.856345 
L 145.675767 519.908224 
M 145.886872 519.909164 
L 146.414634 519.9148 
M 146.625739 519.915738 
L 147.470159 519.924182 
M 147.681263 519.92512 
L 150.425627 519.950387 
M 150.636731 519.951321 
L 158.553164 520.021942 
M 158.764268 520.022867 
L 170.797245 520.128352 
M 171.00835 520.129262 
L 171.958322 520.138357 
M 172.169427 520.139266 
L 173.436056 520.151069 
M 173.647161 520.151976 
L 175.124895 520.165568 
M 175.336 520.166473 
L 176.602629 520.178229 
M 176.813734 520.179132 
L 180.824726 520.214272 
M 181.035831 520.21517 
L 182.619117 520.229531 
M 182.830222 520.230428 
L 189.585578 520.288446 
M 189.796683 520.289334 
L 192.857703 520.315938 
M 193.068808 520.316823 
L 199.929716 520.374966 
M 200.140821 520.375843 
L 200.668583 520.381103 
M 200.879688 520.381979 
L 205.946204 520.424768 
M 206.157309 520.425638 
L 207.107281 520.434335 
M 207.318386 520.435204 
L 212.70156 520.480233 
M 212.912665 520.481096 
L 215.340371 520.50177 
M 215.551475 520.50263 
L 218.190286 520.524949 
M 219.034706 520.597771 
L 227.690005 523.322859 
M 227.90111 523.354334 
L 228.323319 523.511227 
M 228.534424 523.542508 
L 231.38434 524.405332 
M 231.595445 524.435681 
L 233.812046 525.09523 
M 234.023151 525.124841 
L 235.817542 525.652346 
M 236.028647 525.681347 
L 239.19522 526.564518 
M 239.406324 526.592496 
L 241.728478 527.227172 
M 241.939583 527.254384 
L 244.050631 527.818467 
M 244.261736 527.844978 
L 245.211708 528.108335 
M 245.422813 528.134496 
L 249.011596 529.030098 
M 249.2227 529.055115 
L 249.961567 529.25411 
M 250.172672 529.278842 
L 259.144629 531.265426 
L 267.90548 532.981195 
L 274.449731 534.104717 
M 274.660836 534.121037 
L 281.416191 535.049834 
L 283.632792 535.311189 
M 283.843897 535.322301 
L 286.060498 535.549134 
M 286.271603 535.558626 
L 286.693813 535.604993 
M 286.904918 535.614046 
L 292.604749 535.988382 
L 294.39914 536.060562 
M 294.610245 536.063775 
L 298.093475 536.122433 
M 298.30458 536.122663 
L 301.893363 536.091196 
M 302.104467 536.089962 
L 305.482145 536.049319 
M 305.69325 536.04809 
L 306.221012 536.040721 
M 306.432117 536.039493 
L 307.698746 536.023549 
M 307.909851 536.022323 
L 311.076424 535.984419 
M 311.287529 535.983199 
L 314.981864 535.939385 
M 315.192969 535.938171 
L 316.98736 535.916346 
M 317.198465 535.915135 
L 321.103905 535.86924 
M 321.31501 535.868035 
L 321.948324 535.859608 
M 322.159429 535.858404 
L 322.792744 535.849986 
M 323.003848 535.848784 
L 323.214953 535.845178 
M 323.426058 535.843977 
L 327.648155 535.794859 
M 327.85926 535.793665 
L 328.070365 535.790082 
M 328.28147 535.788888 
L 330.498071 535.762661 
M 330.709176 535.761471 
L 331.34249 535.753143 
M 331.553595 535.751954 
L 332.60912 535.740073 
L 332.714672 453.056774 
L 332.820224 453.066695 
L 335.24793 453.3044 
M 335.459035 453.314288 
L 337.253426 453.492041 
M 337.464531 453.501903 
L 338.520056 453.610304 
M 338.73116 453.620151 
L 341.264419 453.865888 
M 341.475524 453.8757 
L 346.014278 454.30614 
M 346.225383 454.315893 
L 346.647593 454.364639 
M 346.858697 454.374385 
L 346.96425 454.393871 
M 347.175355 454.403613 
L 350.341928 454.704948 
M 350.553033 454.714648 
L 351.608557 454.821257 
M 351.819662 454.830941 
L 359.208332 455.515189 
M 359.419437 455.524779 
L 359.630541 455.553544 
M 360.052751 455.582297 
L 360.263856 455.611038 
M 360.474961 455.620616 
L 360.686066 455.649342 
M 360.897171 455.658915 
L 361.108275 455.687625 
M 361.31938 455.697193 
L 361.530485 455.725888 
M 361.74159 455.73545 
L 362.1638 455.783243 
M 362.374905 455.792798 
L 373.669015 456.81719 
M 373.880119 456.826606 
L 374.830091 456.920695 
M 375.041196 456.930097 
L 377.468902 457.155364 
M 377.680007 457.164735 
L 377.996664 457.202204 
M 378.207769 457.211568 
L 378.735531 457.267726 
M 378.946636 457.277081 
L 379.685503 457.351878 
M 379.896608 457.361222 
L 385.068677 457.826825 
M 385.279782 457.836105 
L 387.179725 458.012192 
M 387.39083 458.021448 
L 388.024145 458.0862 
M 388.23525 458.095445 
L 388.340802 458.104689 
L 388.446355 374.923608 
L 388.551907 374.944026 
L 399.423807 377.052592 
M 399.634912 377.072724 
L 400.268227 377.213572 
M 400.479332 377.233682 
L 412.406756 379.508644 
M 412.617861 379.528446 
L 415.573329 380.101549 
M 415.784434 380.121272 
L 415.995539 380.180423 
M 416.206644 380.200135 
L 422.645342 381.417107 
M 422.856447 381.436653 
L 425.917467 382.021803 
M 426.128572 382.041267 
L 427.500753 382.313494 
M 427.711858 382.332919 
L 428.134068 382.430006 
M 428.345173 382.449416 
L 429.189592 382.623985 
M 429.400697 382.643368 
L 431.617298 383.069147 
M 431.828403 383.08847 
L 432.356165 383.204358 
M 432.56727 383.223664 
L 433.41169 383.397297 
M 433.622794 383.416576 
L 436.578262 383.974559 
M 436.789367 383.993762 
L 438.161549 384.26232 
M 438.372654 384.281483 
L 442.066989 384.969653 
M 442.278094 384.988721 
L 444.178037 385.350534 
M 444.389142 385.369551 
L 450.405631 386.468188 
M 450.616735 386.487055 
L 453.361099 387.010829 
M 453.572204 387.031931 
L 457.583196 387.948674 
L 457.899853 388.057922 
M 458.110958 388.085606 
L 458.21651 180.009777 
L 458.322063 180.065716 
L 459.588692 180.805934 
M 459.799797 180.863867 
L 460.010902 180.980154 
L 465.921838 208.552979 
M 466.132943 209.036463 
L 466.766257 212.420496 
M 466.977362 212.903877 
L 471.199459 232.708345 
M 471.410564 233.190977 
L 473.204955 241.874415 
M 473.41606 242.356596 
L 473.943822 245.249139 
M 474.154927 245.731137 
L 474.682689 248.622547 
M 474.893794 249.104351 
L 477.954815 263.544396 
M 478.16592 264.02523 
L 478.904787 267.870642 
M 479.115891 268.351158 
L 479.854758 272.193974 
M 480.065863 272.674158 
L 483.126884 287.061191 
M 483.337989 287.54011 
L 487.348981 306.181824 
M 487.560086 306.658837 
L 488.826715 312.855245 
M 489.03782 313.331519 
L 492.94326 331.387936 
M 493.154364 331.86195 
L 495.58207 343.219332 
M 495.793175 343.691745 
L 498.748643 357.362021 
M 498.959748 357.832355 
L 499.065301 358.772808 
M 499.276405 359.242926 
L 511.20383 411.851807 
L 512.259354 416.913203 
M 512.470459 417.372757 
L 515.953689 432.939029 
M 516.164794 433.3951 
L 521.020206 454.711147 
M 521.231311 455.162069 
L 522.92015 462.810504 
M 523.131254 463.259386 
L 524.820093 470.872628 
M 525.031198 471.31941 
L 526.508932 478.006833 
M 526.720037 478.451699 
L 528.092219 484.666991 
M 528.303323 485.110017 
L 532.314316 502.289416 
M 532.525421 502.727334 
L 538.119699 526.175019 
M 538.330804 526.60544 
L 540.125196 534.328658 
M 540.3363 534.756361 
L 541.18072 538.599149 
M 541.391825 539.025396 
L 542.130692 542.429971 
M 542.341797 542.85489 
L 543.925083 549.633327 
M 544.136188 550.055702 
L 546.563894 560.146905 
M 546.774999 560.565443 
L 549.097152 570.148473 
M 549.308257 570.563223 
L 552.158172 582.110589 
M 552.369277 582.520625 
L 552.897039 584.977363 
M 553.108144 585.386238 
L 553.635906 587.835988 
M 553.847011 588.243694 
L 554.374773 590.686402 
M 554.585878 591.092931 
L 557.858004 604.011662 
M 558.069109 604.412521 
L 559.230185 609.209148 
M 559.44129 609.607721 
L 562.396758 621.0886 
M 562.607863 621.481784 
L 565.457779 632.416647 
M 565.668883 632.804514 
L 568.413247 643.20716 
M 568.624351 643.589856 
L 570.122041 649 
L 570.122041 649 
" clip-path="url(#p53bed951f2)" style="fill: none; stroke-dasharray: 25.9,11.2; stroke-dashoffset: 0; stroke: #0000ff; stroke-opacity: 0.6; stroke-width: 7"/>
   </g>
   <g id="line2d_17">
    <path d="M 133.959448 519.802174 
L 136.070496 519.82218 
M 136.281601 519.823131 
L 138.39265 519.843078 
M 138.603754 519.844027 
L 139.764831 519.855398 
M 139.975936 519.856345 
L 145.675767 519.908224 
M 145.886872 519.909164 
L 146.414634 519.9148 
M 146.625739 519.915738 
L 147.470159 519.924182 
M 147.681263 519.92512 
L 150.425627 519.950387 
M 150.636731 519.951321 
L 158.553164 520.021942 
M 158.764268 520.022867 
L 170.797245 520.128352 
M 171.00835 520.129262 
L 171.958322 520.138357 
M 172.169427 520.139266 
L 173.436056 520.151069 
M 173.647161 520.151976 
L 175.124895 520.165568 
M 175.336 520.166473 
L 176.602629 520.178229 
M 176.813734 520.179132 
L 180.824726 520.214272 
M 181.035831 520.21517 
L 182.619117 520.229531 
M 182.830222 520.230428 
L 189.585578 520.288446 
M 189.796683 520.289334 
L 192.857703 520.315938 
M 193.068808 520.316823 
L 199.929716 520.374966 
M 200.140821 520.375843 
L 200.668583 520.381103 
M 200.879688 520.381979 
L 205.946204 520.424768 
M 206.157309 520.425638 
L 207.107281 520.434335 
M 207.318386 520.435204 
L 212.70156 520.480233 
M 212.912665 520.481096 
L 215.340371 520.50177 
M 215.551475 520.50263 
L 218.190286 520.524949 
M 219.034706 520.530944 
L 227.690005 520.601606 
M 227.90111 520.602453 
L 228.323319 520.606684 
M 228.534424 520.60753 
L 231.38434 520.631168 
M 231.595445 520.632011 
L 233.812046 520.650519 
M 234.023151 520.651359 
L 235.817542 520.66646 
M 236.028647 520.667297 
L 239.19522 520.693215 
M 239.406324 520.694049 
L 241.728478 520.713206 
M 241.939583 520.714038 
L 244.050631 520.731475 
M 244.261736 520.732304 
L 245.211708 520.740589 
M 245.422813 520.741417 
L 249.011596 520.770323 
M 249.2227 520.771146 
L 249.961567 520.777734 
M 250.172672 520.778556 
L 254.922532 520.815473 
L 255.028084 308.045372 
L 255.133636 308.074775 
L 274.449731 313.418232 
M 274.660836 313.446913 
L 283.632792 315.899128 
M 283.843897 315.927476 
L 286.060498 316.550165 
M 286.271603 316.578426 
L 286.693813 316.719671 
M 286.904918 316.747908 
L 294.39914 318.771075 
M 294.610245 318.799037 
L 298.093475 319.747512 
M 298.30458 319.775343 
L 301.893363 320.747069 
M 302.104467 320.774765 
L 305.482145 321.686666 
M 305.69325 321.714236 
L 306.221012 321.87958 
M 306.432117 321.907124 
L 307.698746 322.264864 
M 307.909851 322.292357 
L 311.076424 323.142797 
M 311.287529 323.170172 
L 314.981864 324.153214 
M 315.192969 324.180453 
L 316.98736 324.670127 
M 317.198465 324.697297 
L 321.103905 325.727036 
M 321.31501 325.754063 
L 321.948324 325.943154 
M 322.159429 325.970152 
L 322.792744 326.159039 
M 323.003848 326.186009 
L 323.214953 326.266895 
M 323.426058 326.29385 
L 327.648155 327.39589 
M 327.85926 327.422693 
L 328.070365 327.503081 
M 328.28147 327.52987 
L 330.498071 328.118315 
M 330.709176 328.145021 
L 331.34249 328.331864 
M 331.553595 328.358542 
L 335.24793 329.316549 
M 335.459035 329.343094 
L 337.253426 329.820299 
M 337.464531 329.846776 
L 338.520056 330.137794 
M 338.73116 330.164229 
L 341.264419 330.823948 
M 341.475524 330.850291 
L 346.014278 332.005873 
M 346.225383 332.032057 
L 346.647593 332.162923 
M 346.858697 332.189086 
L 346.96425 332.241401 
M 347.175355 332.267554 
L 350.341928 333.076534 
M 350.553033 333.102574 
L 351.608557 333.388784 
M 351.819662 333.414782 
L 359.208332 335.251749 
M 359.419437 335.277497 
L 359.630541 335.354719 
M 360.052751 335.431911 
L 360.263856 335.509071 
M 360.474961 335.534785 
L 360.686066 335.611904 
M 360.897171 335.637603 
L 361.108275 335.714681 
M 361.31938 335.740367 
L 361.530485 335.817403 
M 361.74159 335.843075 
L 362.1638 335.971382 
M 362.374905 335.997033 
L 373.669015 338.747171 
M 373.880119 338.772449 
L 374.830091 339.025045 
M 375.041196 339.050285 
L 377.468902 339.655051 
M 377.680007 339.680207 
L 377.996664 339.780798 
M 378.207769 339.805938 
L 378.735531 339.956703 
M 378.946636 339.981819 
L 379.685503 340.182623 
M 379.896608 340.207709 
L 385.068677 341.45769 
M 385.279782 341.482604 
L 387.179725 341.955337 
M 387.39083 341.980184 
L 388.024145 342.154021 
M 388.23525 342.178842 
L 399.423807 344.815463 
M 399.634912 344.839925 
L 400.268227 345.011074 
M 400.479332 345.035511 
L 412.406756 347.799883 
M 412.617861 347.823945 
L 415.573329 348.520339 
M 415.784434 348.544304 
L 415.995539 348.616181 
M 416.206644 348.640133 
L 422.645342 350.118912 
M 422.856447 350.142662 
L 425.917467 350.853695 
M 426.128572 350.877346 
L 427.500753 351.208137 
M 427.711858 351.231742 
L 428.134068 351.349715 
M 428.345173 351.3733 
L 429.189592 351.585423 
M 429.400697 351.608977 
L 431.617298 352.126353 
M 431.828403 352.149834 
L 432.356165 352.290652 
M 432.56727 352.314111 
L 433.41169 352.525097 
M 433.622794 352.548524 
L 436.578262 353.226546 
M 436.789367 353.249879 
L 438.161549 353.576212 
M 438.372654 353.599498 
L 442.066989 354.435713 
M 442.278094 354.458883 
L 444.178037 354.898532 
M 444.389142 354.921641 
L 450.405631 356.256626 
M 450.616735 356.279552 
L 453.361099 356.897388 
M 453.572204 356.920228 
L 457.899853 357.876734 
M 458.110958 357.899442 
L 459.588692 364.71945 
M 459.799797 365.173336 
L 462.54416 376.481511 
L 465.077418 385.950789 
L 465.921838 389.263166 
M 466.132943 389.62321 
L 466.766257 392.098833 
M 466.977362 392.446118 
L 469.299515 399.684689 
L 471.199459 405.320651 
M 471.410564 405.601541 
L 473.204955 410.389131 
M 473.41606 410.640215 
L 473.943822 412.113839 
M 474.154927 412.353965 
L 474.682689 413.761883 
M 474.893794 413.991064 
L 476.793738 417.849301 
L 477.954815 420.140758 
M 478.16592 420.32159 
L 478.904787 421.71223 
M 479.115891 421.879062 
L 479.854758 423.157762 
M 480.065863 423.310609 
L 481.754702 425.545128 
L 483.126884 427.174936 
M 483.337989 427.279747 
L 484.815723 428.584874 
L 486.293457 429.587631 
L 487.348981 430.163828 
M 487.560086 430.206986 
L 488.826715 430.628341 
M 489.03782 430.650017 
L 490.937763 430.903236 
L 492.94326 431.160853 
M 493.154364 431.173716 
L 495.58207 431.481903 
M 495.793175 431.494722 
L 498.748643 431.865741 
M 498.959748 431.878509 
L 499.065301 431.90404 
M 499.276405 431.916803 
L 512.259354 433.48618 
M 512.470459 433.498731 
L 515.953689 433.924439 
M 516.164794 433.93693 
L 521.020206 434.522138 
M 521.231311 434.534549 
L 522.92015 434.745283 
M 523.131254 434.757664 
L 524.820093 434.967889 
M 525.031198 434.98024 
L 526.508932 435.165309 
M 526.720037 435.177634 
L 528.092219 435.350006 
M 528.303323 435.362306 
L 532.314316 435.840715 
M 532.525421 435.852949 
L 538.119699 436.511148 
M 538.330804 436.523292 
L 540.125196 436.741603 
M 540.3363 436.753716 
L 541.18072 436.86266 
M 541.391825 436.874756 
L 542.130692 436.971471 
M 542.341797 436.983553 
L 543.925083 437.176645 
M 544.136188 437.1887 
L 546.563894 437.477522 
M 546.774999 437.489536 
L 549.097152 437.765415 
M 549.308257 437.77739 
L 552.158172 438.112049 
M 552.369277 438.123977 
L 552.897039 438.195517 
M 553.108144 438.207434 
L 553.635906 438.278906 
M 553.847011 438.290813 
L 554.374773 438.362217 
M 554.585878 438.374113 
L 557.858004 438.753917 
M 558.069109 438.765759 
L 559.230185 438.907746 
M 559.44129 438.919568 
L 562.396758 439.261714 
M 562.607863 439.273488 
L 565.457779 439.602529 
M 565.668883 439.614257 
L 568.413247 439.930334 
M 568.624351 439.942019 
L 576.013022 440.767621 
M 576.224126 440.779193 
L 576.540784 440.825466 
M 576.751889 440.83703 
L 580.973986 441.30983 
M 581.185091 441.321329 
L 582.45172 441.470678 
M 582.662825 441.482156 
L 587.940446 442.065473 
M 588.151551 442.076871 
L 595.540221 442.882205 
M 595.751326 442.893493 
L 603.351101 443.713431 
M 603.562206 443.724607 
L 605.567702 443.947818 
M 605.778807 443.958963 
L 607.784303 444.181544 
M 607.995408 444.192658 
L 608.839827 444.292611 
M 609.050932 444.30371 
L 611.689743 444.591747 
M 611.900847 444.602806 
L 613.061924 444.735389 
M 613.273029 444.746428 
L 616.122945 445.054918 
M 616.334049 445.065915 
L 617.811784 445.230678 
M 618.022888 445.241651 
L 618.128441 445.263591 
M 618.339546 445.274559 
L 623.617167 445.831979 
M 623.828272 445.842871 
L 632.800228 446.774101 
M 633.011333 446.784866 
L 633.961305 446.892437 
M 634.17241 446.903186 
L 636.283459 447.128586 
M 636.494563 447.139304 
L 638.288955 447.331972 
M 638.50006 447.342662 
L 640.083346 447.513509 
M 640.294451 447.524175 
L 641.244423 447.630754 
M 641.455528 447.641404 
L 651.166351 448.625626 
L 651.271904 184.30808 
M 651.483008 184.354107 
L 655.91621 186.327417 
M 656.127315 186.373173 
L 668.793607 191.864452 
M 669.004712 191.909463 
L 669.215817 192.044462 
M 669.426921 192.089449 
L 671.854627 193.167335 
M 672.065732 193.212171 
L 680.509927 196.823996 
M 680.721031 196.868341 
L 682.304318 197.577055 
M 682.515423 197.621299 
L 686.631967 199.386197 
M 686.843072 199.430198 
L 688.004149 199.957749 
M 688.215254 200.001673 
L 689.904093 200.747483 
M 690.115198 200.791301 
L 690.959617 201.1854 
M 691.170722 201.229159 
L 692.331799 201.753813 
M 692.542903 201.797495 
L 695.392819 203.018238 
M 695.603924 203.061751 
L 697.820525 204.017561 
M 698.03163 204.06094 
L 698.137182 204.14768 
M 698.348287 204.191041 
L 700.037126 204.927293 
M 700.248231 204.97055 
L 704.048118 206.566965 
M 704.259223 206.610001 
L 705.525852 207.168947 
M 705.736957 207.211903 
L 709.220187 208.668959 
M 709.642397 208.797203 
L 717.981039 212.198058 
M 718.403249 212.32488 
L 722.097584 213.842767 
M 722.308689 213.884826 
L 723.25866 214.305104 
M 723.469765 214.3471 
L 727.375205 215.938801 
M 727.58631 215.980579 
L 728.114072 216.231124 
M 728.325177 216.272862 
L 731.91396 217.730163 
M 732.125064 217.7717 
L 744.052489 222.470473 
M 744.263594 222.511373 
L 751.546711 225.36074 
M 751.757816 225.401251 
L 753.868865 226.250735 
M 754.07997 226.291127 
L 762.524164 229.544909 
M 762.735269 229.584858 
L 764.107451 230.143585 
M 764.318555 230.183454 
L 766.535156 231.059214 
M 766.746261 231.09896 
L 770.440596 232.52626 
M 770.651701 232.565808 
L 770.862806 232.684423 
M 771.073911 232.72395 
L 773.184959 233.552802 
M 773.396064 233.592213 
L 774.134931 233.907309 
M 774.346036 233.946672 
L 777.090399 235.007482 
M 777.301504 235.046697 
L 780.256972 236.181655 
M 780.468077 236.220713 
L 780.784734 236.376891 
M 780.995839 236.415922 
L 786.69567 238.554594 
M 786.906775 238.593333 
L 790.706663 240.023018 
M 790.917768 240.061559 
L 800.734143 243.661444 
M 800.945248 243.699496 
L 801.89522 244.079743 
M 802.106325 244.117739 
L 802.950745 244.459479 
M 803.161849 244.497424 
" clip-path="url(#p53bed951f2)" style="fill: none; stroke-dasharray: 7,11.55; stroke-dashoffset: 0; stroke: #008000; stroke-opacity: 0.6; stroke-width: 7"/>
   </g>
   <g id="line2d_18">
    <path d="M 133.959448 526.79059 
L 136.070496 526.790906 
M 136.281601 526.790921 
L 138.39265 526.791236 
M 138.603754 526.791251 
L 139.764831 526.791431 
M 139.975936 526.791446 
L 145.675767 526.792266 
M 145.886872 526.792281 
L 146.414634 526.79237 
M 146.625739 526.792385 
L 147.470159 526.792519 
M 147.681263 526.792533 
L 150.425627 526.792933 
M 150.636731 526.792948 
L 158.553164 526.794064 
M 158.764268 526.794079 
L 170.797245 526.795747 
M 171.00835 526.795761 
L 171.958322 526.795905 
M 172.169427 526.795919 
L 173.436056 526.796106 
M 173.647161 526.79612 
L 175.124895 526.796335 
M 175.336 526.796349 
L 176.602629 526.796535 
M 176.813734 526.79655 
L 180.824726 526.797105 
M 181.035831 526.797119 
L 182.619117 526.797346 
M 182.830222 526.797361 
L 189.585578 526.798278 
M 189.796683 526.798292 
L 192.857703 526.798713 
M 193.068808 526.798727 
L 199.929716 526.799646 
M 200.140821 526.79966 
L 200.668583 526.799743 
M 200.879688 526.799757 
L 205.946204 526.800433 
M 206.157309 526.800447 
L 207.107281 526.800585 
M 207.318386 526.800598 
L 212.70156 526.80131 
M 212.912665 526.801324 
L 215.340371 526.801651 
M 215.551475 526.801664 
L 218.190286 526.802017 
M 219.034706 526.802112 
L 227.690005 526.803229 
M 227.90111 526.803243 
L 228.323319 526.80331 
M 228.534424 526.803323 
L 231.38434 526.803697 
M 231.595445 526.80371 
L 233.812046 526.804003 
M 234.023151 526.804016 
L 235.817542 526.804255 
M 236.028647 526.804268 
L 239.19522 526.804678 
M 239.406324 526.804691 
L 241.728478 526.804994 
M 241.939583 526.805007 
L 244.050631 526.805283 
M 244.261736 526.805296 
L 245.211708 526.805427 
M 245.422813 526.80544 
L 249.011596 526.805897 
M 249.2227 526.80591 
L 249.961567 526.806014 
M 250.172672 526.806027 
L 274.449731 526.808986 
M 274.660836 526.808999 
L 283.632792 526.810077 
M 283.843897 526.810089 
L 286.060498 526.810363 
M 286.271603 526.810376 
L 286.693813 526.810438 
M 286.904918 526.81045 
L 294.39914 526.81134 
M 294.610245 526.811352 
L 298.093475 526.811769 
M 298.30458 526.811781 
L 301.893363 526.812209 
M 302.104467 526.812221 
L 305.482145 526.812622 
M 305.69325 526.812634 
L 306.221012 526.812707 
M 306.432117 526.812719 
L 307.698746 526.812876 
M 307.909851 526.812888 
L 311.076424 526.813262 
M 311.287529 526.813274 
L 314.981864 526.813706 
M 315.192969 526.813718 
L 316.98736 526.813934 
M 317.198465 526.813946 
L 321.103905 526.814398 
M 321.31501 526.81441 
L 321.948324 526.814493 
M 322.159429 526.814505 
L 322.792744 526.814588 
M 323.003848 526.8146 
L 323.214953 526.814636 
M 323.426058 526.814648 
L 327.648155 526.815132 
M 327.85926 526.815144 
L 328.070365 526.815179 
M 328.28147 526.815191 
L 330.498071 526.81545 
M 330.709176 526.815462 
L 331.34249 526.815544 
M 331.553595 526.815555 
L 335.24793 526.815977 
M 335.459035 526.815988 
L 337.253426 526.816198 
M 337.464531 526.81621 
L 338.520056 526.816338 
M 338.73116 526.816349 
L 341.264419 526.81664 
M 341.475524 526.816651 
L 346.014278 526.817159 
M 346.225383 526.817171 
L 346.647593 526.817228 
M 346.858697 526.81724 
L 346.96425 526.817263 
M 347.175355 526.817274 
L 350.341928 526.81763 
M 350.553033 526.817641 
L 351.608557 526.817767 
M 351.819662 526.817779 
L 359.208332 526.818586 
M 359.419437 526.818598 
L 359.630541 526.818632 
M 360.052751 526.818666 
L 360.263856 526.8187 
M 360.474961 526.818711 
L 360.686066 526.818745 
M 360.897171 526.818756 
L 361.108275 526.81879 
M 361.31938 526.818801 
L 361.530485 526.818835 
M 361.74159 526.818846 
L 362.1638 526.818903 
M 362.374905 526.818914 
L 373.669015 526.820123 
M 373.880119 526.820135 
L 374.830091 526.820246 
M 375.041196 526.820257 
L 377.468902 526.820523 
M 377.680007 526.820534 
L 377.996664 526.820578 
M 378.207769 526.820589 
L 378.735531 526.820655 
M 378.946636 526.820666 
L 379.685503 526.820755 
M 379.896608 526.820766 
L 385.068677 526.821315 
M 385.279782 526.821326 
L 387.179725 526.821534 
M 387.39083 526.821545 
L 388.024145 526.821621 
M 388.23525 526.821632 
L 399.423807 526.822792 
M 399.634912 526.822802 
L 400.268227 526.822878 
M 400.479332 526.822888 
L 412.406756 526.824104 
M 412.617861 526.824115 
L 415.573329 526.824421 
M 415.784434 526.824431 
L 415.995539 526.824463 
M 416.206644 526.824473 
L 422.645342 526.825124 
M 422.856447 526.825134 
L 425.917467 526.825447 
M 426.128572 526.825457 
L 427.500753 526.825603 
M 427.711858 526.825613 
L 428.134068 526.825665 
M 428.345173 526.825675 
L 429.189592 526.825769 
M 429.400697 526.825779 
L 431.617298 526.826006 
M 431.828403 526.826017 
L 432.356165 526.826079 
M 432.56727 526.826089 
L 433.41169 526.826182 
M 433.622794 526.826192 
L 436.578262 526.82649 
M 436.789367 526.8265 
L 438.161549 526.826644 
M 438.372654 526.826654 
L 442.066989 526.827022 
M 442.278094 526.827032 
L 444.178037 526.827225 
M 444.389142 526.827235 
L 450.405631 526.827822 
M 450.616735 526.827833 
L 453.361099 526.828104 
M 453.572204 526.828114 
L 457.899853 526.828535 
M 458.110958 526.828545 
L 459.588692 526.828694 
M 459.799797 526.828704 
L 465.921838 526.82929 
M 466.132943 526.8293 
L 466.766257 526.829369 
M 466.977362 526.829379 
L 471.199459 526.829782 
M 471.410564 526.829792 
L 473.204955 526.829969 
M 473.41606 526.829979 
L 473.943822 526.830037 
M 474.154927 526.830047 
L 474.682689 526.830106 
M 474.893794 526.830116 
L 477.954815 526.830408 
M 478.16592 526.830418 
L 478.904787 526.830496 
M 479.115891 526.830505 
L 479.854758 526.830583 
M 480.065863 526.830593 
L 483.126884 526.830884 
M 483.337989 526.830893 
L 487.348981 526.831269 
M 487.560086 526.831279 
L 488.826715 526.831404 
M 489.03782 526.831413 
L 492.94326 526.831777 
M 493.154364 526.831787 
L 495.58207 526.832016 
M 495.793175 526.832025 
L 498.748643 526.832301 
M 498.959748 526.83231 
L 499.065301 526.832329 
M 499.276405 526.832338 
L 512.259354 526.833504 
M 512.470459 526.833513 
L 515.953689 526.833829 
M 516.164794 526.833838 
L 521.020206 526.834273 
M 521.231311 526.834282 
L 522.92015 526.834438 
M 523.131254 526.834448 
L 524.820093 526.834604 
M 525.031198 526.834613 
L 526.508932 526.83475 
M 526.720037 526.834759 
L 528.092219 526.834887 
M 528.303323 526.834896 
L 532.314316 526.835252 
M 532.525421 526.835261 
L 538.119699 526.835749 
M 538.330804 526.835758 
L 540.125196 526.83592 
M 540.3363 526.835929 
L 541.18072 526.83601 
M 541.391825 526.836019 
L 542.130692 526.836091 
M 542.341797 526.8361 
L 543.925083 526.836243 
M 544.136188 526.836252 
L 546.563894 526.836467 
M 546.774999 526.836476 
L 549.097152 526.836681 
M 549.308257 526.836689 
L 552.158172 526.836938 
M 552.369277 526.836947 
L 552.897039 526.837 
M 553.108144 526.837009 
L 553.635906 526.837062 
M 553.847011 526.837071 
L 554.374773 526.837124 
M 554.585878 526.837132 
L 557.858004 526.837414 
M 558.069109 526.837423 
L 559.230185 526.837529 
M 559.44129 526.837537 
L 562.396758 526.837791 
M 562.607863 526.8378 
L 565.457779 526.838044 
M 565.668883 526.838053 
L 568.413247 526.838288 
M 568.624351 526.838296 
L 576.013022 526.838909 
M 576.224126 526.838918 
L 576.540784 526.838952 
M 576.751889 526.838961 
L 580.973986 526.839312 
M 581.185091 526.839321 
L 582.45172 526.839431 
M 582.662825 526.83944 
L 587.940446 526.839873 
M 588.151551 526.839881 
L 595.540221 526.840479 
M 595.751326 526.840488 
L 603.351101 526.841096 
M 603.562206 526.841105 
L 605.567702 526.84127 
M 605.778807 526.841279 
L 607.784303 526.841444 
M 607.995408 526.841452 
L 608.839827 526.841526 
M 609.050932 526.841535 
L 611.689743 526.841749 
M 611.900847 526.841757 
L 613.061924 526.841855 
M 613.273029 526.841863 
L 616.122945 526.842092 
M 616.334049 526.842101 
L 617.811784 526.842223 
M 618.022888 526.842231 
L 618.128441 526.842247 
M 618.339546 526.842255 
L 623.617167 526.842669 
M 623.828272 526.842677 
L 632.800228 526.843369 
M 633.011333 526.843377 
L 633.961305 526.843457 
M 634.17241 526.843465 
L 636.283459 526.843632 
M 636.494563 526.84364 
L 638.288955 526.843783 
M 638.50006 526.843791 
L 640.083346 526.843918 
M 640.294451 526.843926 
L 641.244423 526.844005 
M 641.455528 526.844013 
L 651.166351 526.844743 
L 651.271904 527.159802 
M 651.483008 527.473708 
L 655.91621 540.853471 
M 656.127315 541.161777 
L 662.988223 560.856087 
L 668.793607 577.141294 
M 669.004712 577.425768 
L 669.215817 578.277845 
M 669.426921 578.561422 
L 671.854627 585.300178 
M 672.065732 585.578169 
L 677.660011 599.994951 
L 680.509927 607.367358 
M 680.721031 607.627682 
L 682.304318 611.765748 
M 682.515423 612.0227 
L 686.631967 622.143762 
M 686.843072 622.39293 
L 688.004149 625.36849 
M 688.215254 625.615254 
L 689.904093 629.782164 
M 690.115198 630.02563 
L 690.959617 632.208634 
M 691.170722 632.450281 
L 692.015141 634.376925 
L 692.120694 201.622729 
L 692.226246 201.920628 
L 692.331799 202.515552 
M 692.542903 202.812568 
L 695.392819 211.010942 
M 695.603924 211.299584 
L 697.820525 217.578924 
M 698.03163 217.861173 
L 698.137182 218.42486 
M 698.348287 218.706295 
L 700.037126 223.449701 
M 700.248231 223.726346 
L 704.048118 233.784757 
M 704.259223 234.052014 
L 705.525852 237.505927 
M 705.736957 237.770086 
L 709.220187 246.637155 
M 709.642397 247.409507 
L 715.764438 262.029412 
L 717.981039 267.42104 
M 718.403249 268.149761 
L 722.097584 276.77345 
M 722.308689 277.009822 
L 723.25866 279.364138 
M 723.469765 279.598631 
L 727.375205 288.383497 
M 727.58631 288.611379 
L 728.114072 289.975129 
M 728.325177 290.201832 
L 731.91396 298.030825 
M 732.125064 298.251504 
L 738.036 310.345423 
L 743.841384 321.723869 
L 744.052489 322.330438 
M 744.263594 322.532306 
L 750.068977 333.388925 
L 751.546711 336.266519 
M 751.757816 336.457099 
L 753.868865 340.42302 
M 754.07997 340.610152 
L 759.779801 350.484595 
L 762.524164 355.25341 
M 762.735269 355.427896 
L 764.107451 357.854724 
M 764.318555 358.026931 
L 766.535156 361.777226 
M 766.746261 361.945959 
L 770.440596 367.920553 
M 770.651701 368.083753 
L 770.862806 368.572458 
M 771.073911 368.735063 
L 773.184959 372.115534 
M 773.396064 372.274883 
L 774.134931 373.544368 
M 774.346036 373.702391 
L 777.090399 377.913586 
M 777.301504 378.067509 
L 780.256972 382.468075 
M 780.468077 382.617646 
L 780.784734 383.214486 
M 780.995839 383.363336 
L 786.484566 390.905955 
L 786.69567 391.329347 
M 786.906775 391.470196 
L 790.706663 396.582401 
M 790.917768 396.7179 
L 796.300941 403.443813 
L 800.734143 408.83627 
M 800.945248 408.958676 
L 801.89522 410.175276 
M 802.106325 410.296191 
L 802.950745 411.378346 
M 803.161849 411.497911 
" clip-path="url(#p53bed951f2)" style="fill: none; stroke-dasharray: 44.8,11.2,7,11.2; stroke-dashoffset: 0; stroke: #ff0000; stroke-opacity: 0.6; stroke-width: 7"/>
   </g>
   <g id="patch_3">
    <path d="M 134.065 612.92 
L 134.065 10.8 
" style="fill: none; stroke: #000000; stroke-width: 0.8; stroke-linejoin: miter; stroke-linecap: square"/>
   </g>
   <g id="patch_4">
    <path d="M 803.056297 612.92 
L 803.056297 10.8 
" style="fill: none; stroke: #000000; stroke-width: 0.8; stroke-linejoin: miter; stroke-linecap: square"/>
   </g>
   <g id="patch_5">
    <path d="M 134.065 612.92 
L 803.056297 612.92 
" style="fill: none; stroke: #000000; stroke-width: 0.8; stroke-linejoin: miter; stroke-linecap: square"/>
   </g>
   <g id="patch_6">
    <path d="M 134.065 10.8 
L 803.056297 10.8 
" style="fill: none; stroke: #000000; stroke-width: 0.8; stroke-linejoin: miter; stroke-linecap: square"/>
   </g>
   <g id="text_16">
    <!-- 4 RMSE: 12.33 m -->
    <g style="fill: #0000ff" transform="translate(602.358908 71.012) scale(0.1728 -0.1728)">
     <defs>
      <path id="DejaVuSans-52" d="M 2841 2188 
Q 3044 2119 3236 1894 
Q 3428 1669 3622 1275 
L 4263 0 
L 3584 0 
L 2988 1197 
Q 2756 1666 2539 1819 
Q 2322 1972 1947 1972 
L 1259 1972 
L 1259 0 
L 628 0 
L 628 4666 
L 2053 4666 
Q 2853 4666 3247 4331 
Q 3641 3997 3641 3322 
Q 3641 2881 3436 2590 
Q 3231 2300 2841 2188 
z
M 1259 4147 
L 1259 2491 
L 2053 2491 
Q 2509 2491 2742 2702 
Q 2975 2913 2975 3322 
Q 2975 3731 2742 3939 
Q 2509 4147 2053 4147 
L 1259 4147 
z
" transform="scale(0.015625)"/>
      <path id="DejaVuSans-4d" d="M 628 4666 
L 1569 4666 
L 2759 1491 
L 3956 4666 
L 4897 4666 
L 4897 0 
L 4281 0 
L 4281 4097 
L 3078 897 
L 2444 897 
L 1241 4097 
L 1241 0 
L 628 0 
L 628 4666 
z
" transform="scale(0.015625)"/>
      <path id="DejaVuSans-53" d="M 3425 4513 
L 3425 3897 
Q 3066 4069 2747 4153 
Q 2428 4238 2131 4238 
Q 1616 4238 1336 4038 
Q 1056 3838 1056 3469 
Q 1056 3159 1242 3001 
Q 1428 2844 1947 2747 
L 2328 2669 
Q 3034 2534 3370 2195 
Q 3706 1856 3706 1288 
Q 3706 609 3251 259 
Q 2797 -91 1919 -91 
Q 1588 -91 1214 -16 
Q 841 59 441 206 
L 441 856 
Q 825 641 1194 531 
Q 1563 422 1919 422 
Q 2459 422 2753 634 
Q 3047 847 3047 1241 
Q 3047 1584 2836 1778 
Q 2625 1972 2144 2069 
L 1759 2144 
Q 1053 2284 737 2584 
Q 422 2884 422 3419 
Q 422 4038 858 4394 
Q 1294 4750 2059 4750 
Q 2388 4750 2728 4690 
Q 3069 4631 3425 4513 
z
" transform="scale(0.015625)"/>
      <path id="DejaVuSans-45" d="M 628 4666 
L 3578 4666 
L 3578 4134 
L 1259 4134 
L 1259 2753 
L 3481 2753 
L 3481 2222 
L 1259 2222 
L 1259 531 
L 3634 531 
L 3634 0 
L 628 0 
L 628 4666 
z
" transform="scale(0.015625)"/>
      <path id="DejaVuSans-3a" d="M 750 794 
L 1409 794 
L 1409 0 
L 750 0 
L 750 794 
z
M 750 3309 
L 1409 3309 
L 1409 2516 
L 750 2516 
L 750 3309 
z
" transform="scale(0.015625)"/>
     </defs>
     <use xlink:href="#DejaVuSans-34"/>
     <use xlink:href="#DejaVuSans-20" x="63.623047"/>
     <use xlink:href="#DejaVuSans-52" x="95.410156"/>
     <use xlink:href="#DejaVuSans-4d" x="164.892578"/>
     <use xlink:href="#DejaVuSans-53" x="251.171875"/>
     <use xlink:href="#DejaVuSans-45" x="314.648438"/>
     <use xlink:href="#DejaVuSans-3a" x="377.832031"/>
     <use xlink:href="#DejaVuSans-20" x="411.523438"/>
     <use xlink:href="#DejaVuSans-31" x="443.310547"/>
     <use xlink:href="#DejaVuSans-32" x="506.933594"/>
     <use xlink:href="#DejaVuSans-2e" x="570.556641"/>
     <use xlink:href="#DejaVuSans-33" x="602.34375"/>
     <use xlink:href="#DejaVuSans-33" x="665.966797"/>
     <use xlink:href="#DejaVuSans-20" x="729.589844"/>
     <use xlink:href="#DejaVuSans-6d" x="761.376953"/>
    </g>
   </g>
   <g id="text_17">
    <!-- 6 RMSE: 8.75 m -->
    <g style="fill: #008000" transform="translate(602.358908 101.118) scale(0.1728 -0.1728)">
     <defs>
      <path id="DejaVuSans-37" d="M 525 4666 
L 3525 4666 
L 3525 4397 
L 1831 0 
L 1172 0 
L 2766 4134 
L 525 4134 
L 525 4666 
z
" transform="scale(0.015625)"/>
     </defs>
     <use xlink:href="#DejaVuSans-36"/>
     <use xlink:href="#DejaVuSans-20" x="63.623047"/>
     <use xlink:href="#DejaVuSans-52" x="95.410156"/>
     <use xlink:href="#DejaVuSans-4d" x="164.892578"/>
     <use xlink:href="#DejaVuSans-53" x="251.171875"/>
     <use xlink:href="#DejaVuSans-45" x="314.648438"/>
     <use xlink:href="#DejaVuSans-3a" x="377.832031"/>
     <use xlink:href="#DejaVuSans-20" x="411.523438"/>
     <use xlink:href="#DejaVuSans-38" x="443.310547"/>
     <use xlink:href="#DejaVuSans-2e" x="506.933594"/>
     <use xlink:href="#DejaVuSans-37" x="538.720703"/>
     <use xlink:href="#DejaVuSans-35" x="602.34375"/>
     <use xlink:href="#DejaVuSans-20" x="665.966797"/>
     <use xlink:href="#DejaVuSans-6d" x="697.753906"/>
    </g>
   </g>
   <g id="text_18">
    <!-- 7 RMSE: 47.42 m -->
    <g style="fill: #ff0000" transform="translate(602.358908 131.224) scale(0.1728 -0.1728)">
     <use xlink:href="#DejaVuSans-37"/>
     <use xlink:href="#DejaVuSans-20" x="63.623047"/>
     <use xlink:href="#DejaVuSans-52" x="95.410156"/>
     <use xlink:href="#DejaVuSans-4d" x="164.892578"/>
     <use xlink:href="#DejaVuSans-53" x="251.171875"/>
     <use xlink:href="#DejaVuSans-45" x="314.648438"/>
     <use xlink:href="#DejaVuSans-3a" x="377.832031"/>
     <use xlink:href="#DejaVuSans-20" x="411.523438"/>
     <use xlink:href="#DejaVuSans-34" x="443.310547"/>
     <use xlink:href="#DejaVuSans-37" x="506.933594"/>
     <use xlink:href="#DejaVuSans-2e" x="570.556641"/>
     <use xlink:href="#DejaVuSans-34" x="602.34375"/>
     <use xlink:href="#DejaVuSans-32" x="665.966797"/>
     <use xlink:href="#DejaVuSans-20" x="729.589844"/>
     <use xlink:href="#DejaVuSans-6d" x="761.376953"/>
    </g>
   </g>
   <g id="text_19">
    <!-- 7 -->
    <g style="fill: #ff0000" transform="translate(475.250561 40.906) scale(0.1728 -0.1728)">
     <use xlink:href="#DejaVuSans-37"/>
    </g>
   </g>
   <g id="text_20">
    <!-- 8 -->
    <g transform="translate(535.459778 40.906) scale(0.1728 -0.1728)">
     <use xlink:href="#DejaVuSans-38"/>
    </g>
   </g>
   <g id="text_21">
    <!-- 6 -->
    <g style="fill: #008000" transform="translate(502.010213 101.118) scale(0.1728 -0.1728)">
     <use xlink:href="#DejaVuSans-36"/>
    </g>
   </g>
   <g id="text_22">
    <!-- 4 -->
    <g style="fill: #0000ff" transform="translate(502.010213 161.33) scale(0.1728 -0.1728)">
     <use xlink:href="#DejaVuSans-34"/>
    </g>
   </g>
   <g id="legend_1">
    <g id="patch_7">
     <path d="M 146.161 126.0792 
L 424.0531 126.0792 
Q 427.5091 126.0792 427.5091 122.6232 
L 427.5091 22.896 
Q 427.5091 19.44 424.0531 19.44 
L 146.161 19.44 
Q 142.705 19.44 142.705 22.896 
L 142.705 122.6232 
Q 142.705 126.0792 146.161 126.0792 
z
" style="fill: #ffffff; opacity: 0.8; stroke: #cccccc; stroke-linejoin: miter"/>
    </g>
    <g id="line2d_19">
     <path d="M 149.617 33.4341 
L 166.897 33.4341 
L 184.177 33.4341 
" style="fill: none; stroke: #000000; stroke-opacity: 0.6; stroke-width: 7; stroke-linecap: square"/>
    </g>
    <g id="text_23">
     <!-- measurement -->
     <g transform="translate(198.001 39.4821) scale(0.1728 -0.1728)">
      <defs>
       <path id="DejaVuSans-61" d="M 2194 1759 
Q 1497 1759 1228 1600 
Q 959 1441 959 1056 
Q 959 750 1161 570 
Q 1363 391 1709 391 
Q 2188 391 2477 730 
Q 2766 1069 2766 1631 
L 2766 1759 
L 2194 1759 
z
M 3341 1997 
L 3341 0 
L 2766 0 
L 2766 531 
Q 2569 213 2275 61 
Q 1981 -91 1556 -91 
Q 1019 -91 701 211 
Q 384 513 384 1019 
Q 384 1609 779 1909 
Q 1175 2209 1959 2209 
L 2766 2209 
L 2766 2266 
Q 2766 2663 2505 2880 
Q 2244 3097 1772 3097 
Q 1472 3097 1187 3025 
Q 903 2953 641 2809 
L 641 3341 
Q 956 3463 1253 3523 
Q 1550 3584 1831 3584 
Q 2591 3584 2966 3190 
Q 3341 2797 3341 1997 
z
" transform="scale(0.015625)"/>
       <path id="DejaVuSans-73" d="M 2834 3397 
L 2834 2853 
Q 2591 2978 2328 3040 
Q 2066 3103 1784 3103 
Q 1356 3103 1142 2972 
Q 928 2841 928 2578 
Q 928 2378 1081 2264 
Q 1234 2150 1697 2047 
L 1894 2003 
Q 2506 1872 2764 1633 
Q 3022 1394 3022 966 
Q 3022 478 2636 193 
Q 2250 -91 1575 -91 
Q 1294 -91 989 -36 
Q 684 19 347 128 
L 347 722 
Q 666 556 975 473 
Q 1284 391 1588 391 
Q 1994 391 2212 530 
Q 2431 669 2431 922 
Q 2431 1156 2273 1281 
Q 2116 1406 1581 1522 
L 1381 1569 
Q 847 1681 609 1914 
Q 372 2147 372 2553 
Q 372 3047 722 3315 
Q 1072 3584 1716 3584 
Q 2034 3584 2315 3537 
Q 2597 3491 2834 3397 
z
" transform="scale(0.015625)"/>
       <path id="DejaVuSans-75" d="M 544 1381 
L 544 3500 
L 1119 3500 
L 1119 1403 
Q 1119 906 1312 657 
Q 1506 409 1894 409 
Q 2359 409 2629 706 
Q 2900 1003 2900 1516 
L 2900 3500 
L 3475 3500 
L 3475 0 
L 2900 0 
L 2900 538 
Q 2691 219 2414 64 
Q 2138 -91 1772 -91 
Q 1169 -91 856 284 
Q 544 659 544 1381 
z
M 1991 3584 
L 1991 3584 
z
" transform="scale(0.015625)"/>
       <path id="DejaVuSans-72" d="M 2631 2963 
Q 2534 3019 2420 3045 
Q 2306 3072 2169 3072 
Q 1681 3072 1420 2755 
Q 1159 2438 1159 1844 
L 1159 0 
L 581 0 
L 581 3500 
L 1159 3500 
L 1159 2956 
Q 1341 3275 1631 3429 
Q 1922 3584 2338 3584 
Q 2397 3584 2469 3576 
Q 2541 3569 2628 3553 
L 2631 2963 
z
" transform="scale(0.015625)"/>
       <path id="DejaVuSans-6e" d="M 3513 2113 
L 3513 0 
L 2938 0 
L 2938 2094 
Q 2938 2591 2744 2837 
Q 2550 3084 2163 3084 
Q 1697 3084 1428 2787 
Q 1159 2491 1159 1978 
L 1159 0 
L 581 0 
L 581 3500 
L 1159 3500 
L 1159 2956 
Q 1366 3272 1645 3428 
Q 1925 3584 2291 3584 
Q 2894 3584 3203 3211 
Q 3513 2838 3513 2113 
z
" transform="scale(0.015625)"/>
      </defs>
      <use xlink:href="#DejaVuSans-6d"/>
      <use xlink:href="#DejaVuSans-65" x="97.412109"/>
      <use xlink:href="#DejaVuSans-61" x="158.935547"/>
      <use xlink:href="#DejaVuSans-73" x="220.214844"/>
      <use xlink:href="#DejaVuSans-75" x="272.314453"/>
      <use xlink:href="#DejaVuSans-72" x="335.693359"/>
      <use xlink:href="#DejaVuSans-65" x="374.556641"/>
      <use xlink:href="#DejaVuSans-6d" x="436.080078"/>
      <use xlink:href="#DejaVuSans-65" x="533.492188"/>
      <use xlink:href="#DejaVuSans-6e" x="595.015625"/>
      <use xlink:href="#DejaVuSans-74" x="658.394531"/>
     </g>
    </g>
    <g id="line2d_20">
     <path d="M 149.617 58.7979 
L 166.897 58.7979 
L 184.177 58.7979 
" style="fill: none; stroke-dasharray: 25.9,11.2; stroke-dashoffset: 0; stroke: #0000ff; stroke-opacity: 0.6; stroke-width: 7"/>
    </g>
    <g id="text_24">
     <!-- estimate maintained by 4 -->
     <g transform="translate(198.001 64.8459) scale(0.1728 -0.1728)">
      <defs>
       <path id="DejaVuSans-69" d="M 603 3500 
L 1178 3500 
L 1178 0 
L 603 0 
L 603 3500 
z
M 603 4863 
L 1178 4863 
L 1178 4134 
L 603 4134 
L 603 4863 
z
" transform="scale(0.015625)"/>
       <path id="DejaVuSans-62" d="M 3116 1747 
Q 3116 2381 2855 2742 
Q 2594 3103 2138 3103 
Q 1681 3103 1420 2742 
Q 1159 2381 1159 1747 
Q 1159 1113 1420 752 
Q 1681 391 2138 391 
Q 2594 391 2855 752 
Q 3116 1113 3116 1747 
z
M 1159 2969 
Q 1341 3281 1617 3432 
Q 1894 3584 2278 3584 
Q 2916 3584 3314 3078 
Q 3713 2572 3713 1747 
Q 3713 922 3314 415 
Q 2916 -91 2278 -91 
Q 1894 -91 1617 61 
Q 1341 213 1159 525 
L 1159 0 
L 581 0 
L 581 4863 
L 1159 4863 
L 1159 2969 
z
" transform="scale(0.015625)"/>
       <path id="DejaVuSans-79" d="M 2059 -325 
Q 1816 -950 1584 -1140 
Q 1353 -1331 966 -1331 
L 506 -1331 
L 506 -850 
L 844 -850 
Q 1081 -850 1212 -737 
Q 1344 -625 1503 -206 
L 1606 56 
L 191 3500 
L 800 3500 
L 1894 763 
L 2988 3500 
L 3597 3500 
L 2059 -325 
z
" transform="scale(0.015625)"/>
      </defs>
      <use xlink:href="#DejaVuSans-65"/>
      <use xlink:href="#DejaVuSans-73" x="61.523438"/>
      <use xlink:href="#DejaVuSans-74" x="113.623047"/>
      <use xlink:href="#DejaVuSans-69" x="152.832031"/>
      <use xlink:href="#DejaVuSans-6d" x="180.615234"/>
      <use xlink:href="#DejaVuSans-61" x="278.027344"/>
      <use xlink:href="#DejaVuSans-74" x="339.306641"/>
      <use xlink:href="#DejaVuSans-65" x="378.515625"/>
      <use xlink:href="#DejaVuSans-20" x="440.039062"/>
      <use xlink:href="#DejaVuSans-6d" x="471.826172"/>
      <use xlink:href="#DejaVuSans-61" x="569.238281"/>
      <use xlink:href="#DejaVuSans-69" x="630.517578"/>
      <use xlink:href="#DejaVuSans-6e" x="658.300781"/>
      <use xlink:href="#DejaVuSans-74" x="721.679688"/>
      <use xlink:href="#DejaVuSans-61" x="760.888672"/>
      <use xlink:href="#DejaVuSans-69" x="822.167969"/>
      <use xlink:href="#DejaVuSans-6e" x="849.951172"/>
      <use xlink:href="#DejaVuSans-65" x="913.330078"/>
      <use xlink:href="#DejaVuSans-64" x="974.853516"/>
      <use xlink:href="#DejaVuSans-20" x="1038.330078"/>
      <use xlink:href="#DejaVuSans-62" x="1070.117188"/>
      <use xlink:href="#DejaVuSans-79" x="1133.59375"/>
      <use xlink:href="#DejaVuSans-20" x="1192.773438"/>
      <use xlink:href="#DejaVuSans-34" x="1224.560547"/>
     </g>
    </g>
    <g id="line2d_21">
     <path d="M 149.617 84.1617 
L 166.897 84.1617 
L 184.177 84.1617 
" style="fill: none; stroke-dasharray: 7,11.55; stroke-dashoffset: 0; stroke: #008000; stroke-opacity: 0.6; stroke-width: 7"/>
    </g>
    <g id="text_25">
     <!-- estimate maintained by 6 -->
     <g transform="translate(198.001 90.2097) scale(0.1728 -0.1728)">
      <use xlink:href="#DejaVuSans-65"/>
      <use xlink:href="#DejaVuSans-73" x="61.523438"/>
      <use xlink:href="#DejaVuSans-74" x="113.623047"/>
      <use xlink:href="#DejaVuSans-69" x="152.832031"/>
      <use xlink:href="#DejaVuSans-6d" x="180.615234"/>
      <use xlink:href="#DejaVuSans-61" x="278.027344"/>
      <use xlink:href="#DejaVuSans-74" x="339.306641"/>
      <use xlink:href="#DejaVuSans-65" x="378.515625"/>
      <use xlink:href="#DejaVuSans-20" x="440.039062"/>
      <use xlink:href="#DejaVuSans-6d" x="471.826172"/>
      <use xlink:href="#DejaVuSans-61" x="569.238281"/>
      <use xlink:href="#DejaVuSans-69" x="630.517578"/>
      <use xlink:href="#DejaVuSans-6e" x="658.300781"/>
      <use xlink:href="#DejaVuSans-74" x="721.679688"/>
      <use xlink:href="#DejaVuSans-61" x="760.888672"/>
      <use xlink:href="#DejaVuSans-69" x="822.167969"/>
      <use xlink:href="#DejaVuSans-6e" x="849.951172"/>
      <use xlink:href="#DejaVuSans-65" x="913.330078"/>
      <use xlink:href="#DejaVuSans-64" x="974.853516"/>
      <use xlink:href="#DejaVuSans-20" x="1038.330078"/>
      <use xlink:href="#DejaVuSans-62" x="1070.117188"/>
      <use xlink:href="#DejaVuSans-79" x="1133.59375"/>
      <use xlink:href="#DejaVuSans-20" x="1192.773438"/>
      <use xlink:href="#DejaVuSans-36" x="1224.560547"/>
     </g>
    </g>
    <g id="line2d_22">
     <path d="M 149.617 109.5255 
L 166.897 109.5255 
L 184.177 109.5255 
" style="fill: none; stroke-dasharray: 44.8,11.2,7,11.2; stroke-dashoffset: 0; stroke: #ff0000; stroke-opacity: 0.6; stroke-width: 7"/>
    </g>
    <g id="text_26">
     <!-- estimate maintained by 7 -->
     <g transform="translate(198.001 115.5735) scale(0.1728 -0.1728)">
      <use xlink:href="#DejaVuSans-65"/>
      <use xlink:href="#DejaVuSans-73" x="61.523438"/>
      <use xlink:href="#DejaVuSans-74" x="113.623047"/>
      <use xlink:href="#DejaVuSans-69" x="152.832031"/>
      <use xlink:href="#DejaVuSans-6d" x="180.615234"/>
      <use xlink:href="#DejaVuSans-61" x="278.027344"/>
      <use xlink:href="#DejaVuSans-74" x="339.306641"/>
      <use xlink:href="#DejaVuSans-65" x="378.515625"/>
      <use xlink:href="#DejaVuSans-20" x="440.039062"/>
      <use xlink:href="#DejaVuSans-6d" x="471.826172"/>
      <use xlink:href="#DejaVuSans-61" x="569.238281"/>
      <use xlink:href="#DejaVuSans-69" x="630.517578"/>
      <use xlink:href="#DejaVuSans-6e" x="658.300781"/>
      <use xlink:href="#DejaVuSans-74" x="721.679688"/>
      <use xlink:href="#DejaVuSans-61" x="760.888672"/>
      <use xlink:href="#DejaVuSans-69" x="822.167969"/>
      <use xlink:href="#DejaVuSans-6e" x="849.951172"/>
      <use xlink:href="#DejaVuSans-65" x="913.330078"/>
      <use xlink:href="#DejaVuSans-64" x="974.853516"/>
      <use xlink:href="#DejaVuSans-20" x="1038.330078"/>
      <use xlink:href="#DejaVuSans-62" x="1070.117188"/>
      <use xlink:href="#DejaVuSans-79" x="1133.59375"/>
      <use xlink:href="#DejaVuSans-20" x="1192.773438"/>
      <use xlink:href="#DejaVuSans-37" x="1224.560547"/>
     </g>
    </g>
   </g>
  </g>
  <g id="line2d_23">
   <path d="M 488.630387 46.9272 
L 502.010213 89.0756 
" style="fill: none; stroke: #000000; stroke-opacity: 0.5; stroke-width: 2; stroke-linecap: square"/>
  </g>
  <g id="line2d_24">
   <path d="M 535.459778 40.906 
L 515.390039 89.0756 
" style="fill: none; stroke: #000000; stroke-opacity: 0.5; stroke-width: 2; stroke-linecap: square"/>
  </g>
  <g id="line2d_25">
   <path d="M 508.700126 107.1392 
L 508.700126 137.2452 
" style="fill: none; stroke: #000000; stroke-opacity: 0.5; stroke-width: 2; stroke-linecap: square"/>
  </g>
 </g>
 <defs>
  <clipPath id="p53bed951f2">
   <rect x="134.065" y="10.8" width="668.991297" height="602.12"/>
  </clipPath>
 </defs>
</svg>
