<?xml version="1.0" encoding="utf-8" standalone="no"?>
<!DOCTYPE svg PUBLIC "-//W3C//DTD SVG 1.1//EN"
  "http://www.w3.org/Graphics/SVG/1.1/DTD/svg11.dtd">
<svg xmlns:xlink="http://www.w3.org/1999/xlink" width="864pt" height="648pt" viewBox="0 0 864 648" xmlns="http://www.w3.org/2000/svg" version="1.1">
 <metadata>
  <rdf:RDF xmlns:dc="http://purl.org/dc/elements/1.1/" xmlns:cc="http://creativecommons.org/ns#" xmlns:rdf="http://www.w3.org/1999/02/22-rdf-syntax-ns#">
   <cc:Work>
    <dc:type rdf:resource="http://purl.org/dc/dcmitype/StillImage"/>
    <dc:date>2024-11-05T10:31:05.925159</dc:date>
    <dc:format>image/svg+xml</dc:format>
    <dc:creator>
     <cc:Agent>
      <dc:title>Matplotlib v3.9.2, https://matplotlib.org/</dc:title>
     </cc:Agent>
    </dc:creator>
   </cc:Work>
  </rdf:RDF>
 </metadata>
 <defs>
  <style type="text/css">*{stroke-linejoin: round; stroke-linecap: butt}</style>
 </defs>
 <g id="figure_1">
  <g id="patch_1">
   <path d="M 0 648 
L 864 648 
L 864 0 
L 0 0 
z
" style="fill: #ffffff"/>
  </g>
  <g id="axes_1">
   <g id="patch_2">
    <path d="M 134.065 612.92 
L 803.056297 612.92 
L 803.056297 10.8 
L 134.065 10.8 
z
" style="fill: #ffffff"/>
   </g>
   <g id="matplotlib.axis_1">
    <g id="xtick_1">
     <g id="line2d_1">
      <defs>
       <path id="m85dab82111" d="M 0 0 
L 0 3.5 
" style="stroke: #000000; stroke-width: 0.8"/>
      </defs>
      <g>
       <use xlink:href="#m85dab82111" x="194.863199" y="612.92" style="stroke: #000000; stroke-width: 0.8"/>
      </g>
     </g>
     <g id="text_1">
      <!-- 2021-08-31 -->
      <g transform="translate(144.651299 633.0501) scale(0.1728 -0.1728)">
       <defs>
        <path id="DejaVuSans-32" d="M 1228 531 
L 3431 531 
L 3431 0 
L 469 0 
L 469 531 
Q 828 903 1448 1529 
Q 2069 2156 2228 2338 
Q 2531 2678 2651 2914 
Q 2772 3150 2772 3378 
Q 2772 3750 2511 3984 
Q 2250 4219 1831 4219 
Q 1534 4219 1204 4116 
Q 875 4013 500 3803 
L 500 4441 
Q 881 4594 1212 4672 
Q 1544 4750 1819 4750 
Q 2544 4750 2975 4387 
Q 3406 4025 3406 3419 
Q 3406 3131 3298 2873 
Q 3191 2616 2906 2266 
Q 2828 2175 2409 1742 
Q 1991 1309 1228 531 
z
" transform="scale(0.015625)"/>
        <path id="DejaVuSans-30" d="M 2034 4250 
Q 1547 4250 1301 3770 
Q 1056 3291 1056 2328 
Q 1056 1369 1301 889 
Q 1547 409 2034 409 
Q 2525 409 2770 889 
Q 3016 1369 3016 2328 
Q 3016 3291 2770 3770 
Q 2525 4250 2034 4250 
z
M 2034 4750 
Q 2819 4750 3233 4129 
Q 3647 3509 3647 2328 
Q 3647 1150 3233 529 
Q 2819 -91 2034 -91 
Q 1250 -91 836 529 
Q 422 1150 422 2328 
Q 422 3509 836 4129 
Q 1250 4750 2034 4750 
z
" transform="scale(0.015625)"/>
        <path id="DejaVuSans-31" d="M 794 531 
L 1825 531 
L 1825 4091 
L 703 3866 
L 703 4441 
L 1819 4666 
L 2450 4666 
L 2450 531 
L 3481 531 
L 3481 0 
L 794 0 
L 794 531 
z
" transform="scale(0.015625)"/>
        <path id="DejaVuSans-2d" d="M 313 2009 
L 1997 2009 
L 1997 1497 
L 313 1497 
L 313 2009 
z
" transform="scale(0.015625)"/>
        <path id="DejaVuSans-38" d="M 2034 2216 
Q 1584 2216 1326 1975 
Q 1069 1734 1069 1313 
Q 1069 891 1326 650 
Q 1584 409 2034 409 
Q 2484 409 2743 651 
Q 3003 894 3003 1313 
Q 3003 1734 2745 1975 
Q 2488 2216 2034 2216 
z
M 1403 2484 
Q 997 2584 770 2862 
Q 544 3141 544 3541 
Q 544 4100 942 4425 
Q 1341 4750 2034 4750 
Q 2731 4750 3128 4425 
Q 3525 4100 3525 3541 
Q 3525 3141 3298 2862 
Q 3072 2584 2669 2484 
Q 3125 2378 3379 2068 
Q 3634 1759 3634 1313 
Q 3634 634 3220 271 
Q 2806 -91 2034 -91 
Q 1263 -91 848 271 
Q 434 634 434 1313 
Q 434 1759 690 2068 
Q 947 2378 1403 2484 
z
M 1172 3481 
Q 1172 3119 1398 2916 
Q 1625 2713 2034 2713 
Q 2441 2713 2670 2916 
Q 2900 3119 2900 3481 
Q 2900 3844 2670 4047 
Q 2441 4250 2034 4250 
Q 1625 4250 1398 4047 
Q 1172 3844 1172 3481 
z
" transform="scale(0.015625)"/>
        <path id="DejaVuSans-33" d="M 2597 2516 
Q 3050 2419 3304 2112 
Q 3559 1806 3559 1356 
Q 3559 666 3084 287 
Q 2609 -91 1734 -91 
Q 1441 -91 1130 -33 
Q 819 25 488 141 
L 488 750 
Q 750 597 1062 519 
Q 1375 441 1716 441 
Q 2309 441 2620 675 
Q 2931 909 2931 1356 
Q 2931 1769 2642 2001 
Q 2353 2234 1838 2234 
L 1294 2234 
L 1294 2753 
L 1863 2753 
Q 2328 2753 2575 2939 
Q 2822 3125 2822 3475 
Q 2822 3834 2567 4026 
Q 2313 4219 1838 4219 
Q 1578 4219 1281 4162 
Q 984 4106 628 3988 
L 628 4550 
Q 988 4650 1302 4700 
Q 1616 4750 1894 4750 
Q 2613 4750 3031 4423 
Q 3450 4097 3450 3541 
Q 3450 3153 3228 2886 
Q 3006 2619 2597 2516 
z
" transform="scale(0.015625)"/>
       </defs>
       <use xlink:href="#DejaVuSans-32"/>
       <use xlink:href="#DejaVuSans-30" x="63.623047"/>
       <use xlink:href="#DejaVuSans-32" x="127.246094"/>
       <use xlink:href="#DejaVuSans-31" x="190.869141"/>
       <use xlink:href="#DejaVuSans-2d" x="254.492188"/>
       <use xlink:href="#DejaVuSans-30" x="290.576172"/>
       <use xlink:href="#DejaVuSans-38" x="354.199219"/>
       <use xlink:href="#DejaVuSans-2d" x="417.822266"/>
       <use xlink:href="#DejaVuSans-33" x="453.90625"/>
       <use xlink:href="#DejaVuSans-31" x="517.529297"/>
      </g>
     </g>
    </g>
    <g id="xtick_2">
     <g id="line2d_2">
      <g>
       <use xlink:href="#m85dab82111" x="346.858697" y="612.92" style="stroke: #000000; stroke-width: 0.8"/>
      </g>
     </g>
     <g id="text_2">
      <!-- 2021-09-05 -->
      <g transform="translate(296.646797 633.0501) scale(0.1728 -0.1728)">
       <defs>
        <path id="DejaVuSans-39" d="M 703 97 
L 703 672 
Q 941 559 1184 500 
Q 1428 441 1663 441 
Q 2288 441 2617 861 
Q 2947 1281 2994 2138 
Q 2813 1869 2534 1725 
Q 2256 1581 1919 1581 
Q 1219 1581 811 2004 
Q 403 2428 403 3163 
Q 403 3881 828 4315 
Q 1253 4750 1959 4750 
Q 2769 4750 3195 4129 
Q 3622 3509 3622 2328 
Q 3622 1225 3098 567 
Q 2575 -91 1691 -91 
Q 1453 -91 1209 -44 
Q 966 3 703 97 
z
M 1959 2075 
Q 2384 2075 2632 2365 
Q 2881 2656 2881 3163 
Q 2881 3666 2632 3958 
Q 2384 4250 1959 4250 
Q 1534 4250 1286 3958 
Q 1038 3666 1038 3163 
Q 1038 2656 1286 2365 
Q 1534 2075 1959 2075 
z
" transform="scale(0.015625)"/>
        <path id="DejaVuSans-35" d="M 691 4666 
L 3169 4666 
L 3169 4134 
L 1269 4134 
L 1269 2991 
Q 1406 3038 1543 3061 
Q 1681 3084 1819 3084 
Q 2600 3084 3056 2656 
Q 3513 2228 3513 1497 
Q 3513 744 3044 326 
Q 2575 -91 1722 -91 
Q 1428 -91 1123 -41 
Q 819 9 494 109 
L 494 744 
Q 775 591 1075 516 
Q 1375 441 1709 441 
Q 2250 441 2565 725 
Q 2881 1009 2881 1497 
Q 2881 1984 2565 2268 
Q 2250 2553 1709 2553 
Q 1456 2553 1204 2497 
Q 953 2441 691 2322 
L 691 4666 
z
" transform="scale(0.015625)"/>
       </defs>
       <use xlink:href="#DejaVuSans-32"/>
       <use xlink:href="#DejaVuSans-30" x="63.623047"/>
       <use xlink:href="#DejaVuSans-32" x="127.246094"/>
       <use xlink:href="#DejaVuSans-31" x="190.869141"/>
       <use xlink:href="#DejaVuSans-2d" x="254.492188"/>
       <use xlink:href="#DejaVuSans-30" x="290.576172"/>
       <use xlink:href="#DejaVuSans-39" x="354.199219"/>
       <use xlink:href="#DejaVuSans-2d" x="417.822266"/>
       <use xlink:href="#DejaVuSans-30" x="453.90625"/>
       <use xlink:href="#DejaVuSans-35" x="517.529297"/>
      </g>
     </g>
    </g>
    <g id="xtick_3">
     <g id="line2d_3">
      <g>
       <use xlink:href="#m85dab82111" x="498.854196" y="612.92" style="stroke: #000000; stroke-width: 0.8"/>
      </g>
     </g>
     <g id="text_3">
      <!-- 2021-09-10 -->
      <g transform="translate(448.642296 633.0501) scale(0.1728 -0.1728)">
       <use xlink:href="#DejaVuSans-32"/>
       <use xlink:href="#DejaVuSans-30" x="63.623047"/>
       <use xlink:href="#DejaVuSans-32" x="127.246094"/>
       <use xlink:href="#DejaVuSans-31" x="190.869141"/>
       <use xlink:href="#DejaVuSans-2d" x="254.492188"/>
       <use xlink:href="#DejaVuSans-30" x="290.576172"/>
       <use xlink:href="#DejaVuSans-39" x="354.199219"/>
       <use xlink:href="#DejaVuSans-2d" x="417.822266"/>
       <use xlink:href="#DejaVuSans-31" x="453.90625"/>
       <use xlink:href="#DejaVuSans-30" x="517.529297"/>
      </g>
     </g>
    </g>
    <g id="xtick_4">
     <g id="line2d_4">
      <g>
       <use xlink:href="#m85dab82111" x="650.849694" y="612.92" style="stroke: #000000; stroke-width: 0.8"/>
      </g>
     </g>
     <g id="text_4">
      <!-- 2021-09-15 -->
      <g transform="translate(600.637794 633.0501) scale(0.1728 -0.1728)">
       <use xlink:href="#DejaVuSans-32"/>
       <use xlink:href="#DejaVuSans-30" x="63.623047"/>
       <use xlink:href="#DejaVuSans-32" x="127.246094"/>
       <use xlink:href="#DejaVuSans-31" x="190.869141"/>
       <use xlink:href="#DejaVuSans-2d" x="254.492188"/>
       <use xlink:href="#DejaVuSans-30" x="290.576172"/>
       <use xlink:href="#DejaVuSans-39" x="354.199219"/>
       <use xlink:href="#DejaVuSans-2d" x="417.822266"/>
       <use xlink:href="#DejaVuSans-31" x="453.90625"/>
       <use xlink:href="#DejaVuSans-35" x="517.529297"/>
      </g>
     </g>
    </g>
    <g id="xtick_5">
     <g id="line2d_5">
      <g>
       <use xlink:href="#m85dab82111" x="802.845192" y="612.92" style="stroke: #000000; stroke-width: 0.8"/>
      </g>
     </g>
     <g id="text_5">
      <!-- 2021-09-20 -->
      <g transform="translate(752.633292 633.0501) scale(0.1728 -0.1728)">
       <use xlink:href="#DejaVuSans-32"/>
       <use xlink:href="#DejaVuSans-30" x="63.623047"/>
       <use xlink:href="#DejaVuSans-32" x="127.246094"/>
       <use xlink:href="#DejaVuSans-31" x="190.869141"/>
       <use xlink:href="#DejaVuSans-2d" x="254.492188"/>
       <use xlink:href="#DejaVuSans-30" x="290.576172"/>
       <use xlink:href="#DejaVuSans-39" x="354.199219"/>
       <use xlink:href="#DejaVuSans-2d" x="417.822266"/>
       <use xlink:href="#DejaVuSans-32" x="453.90625"/>
       <use xlink:href="#DejaVuSans-30" x="517.529297"/>
      </g>
     </g>
    </g>
   </g>
   <g id="matplotlib.axis_2">
    <g id="ytick_1">
     <g id="line2d_6">
      <defs>
       <path id="ma8460c65dc" d="M 0 0 
L -3.5 0 
" style="stroke: #000000; stroke-width: 0.8"/>
      </defs>
      <g>
       <use xlink:href="#ma8460c65dc" x="134.065" y="595.716571" style="stroke: #000000; stroke-width: 0.8"/>
      </g>
     </g>
     <g id="text_6">
      <!-- −0.2 -->
      <g transform="translate(85.1043 602.281621) scale(0.1728 -0.1728)">
       <defs>
        <path id="DejaVuSans-2212" d="M 678 2272 
L 4684 2272 
L 4684 1741 
L 678 1741 
L 678 2272 
z
" transform="scale(0.015625)"/>
        <path id="DejaVuSans-2e" d="M 684 794 
L 1344 794 
L 1344 0 
L 684 0 
L 684 794 
z
" transform="scale(0.015625)"/>
       </defs>
       <use xlink:href="#DejaVuSans-2212"/>
       <use xlink:href="#DejaVuSans-30" x="83.789062"/>
       <use xlink:href="#DejaVuSans-2e" x="147.412109"/>
       <use xlink:href="#DejaVuSans-32" x="179.199219"/>
      </g>
     </g>
    </g>
    <g id="ytick_2">
     <g id="line2d_7">
      <g>
       <use xlink:href="#ma8460c65dc" x="134.065" y="526.902857" style="stroke: #000000; stroke-width: 0.8"/>
      </g>
     </g>
     <g id="text_7">
      <!-- 0.0 -->
      <g transform="translate(99.5844 533.467907) scale(0.1728 -0.1728)">
       <use xlink:href="#DejaVuSans-30"/>
       <use xlink:href="#DejaVuSans-2e" x="63.623047"/>
       <use xlink:href="#DejaVuSans-30" x="95.410156"/>
      </g>
     </g>
    </g>
    <g id="ytick_3">
     <g id="line2d_8">
      <g>
       <use xlink:href="#ma8460c65dc" x="134.065" y="458.089143" style="stroke: #000000; stroke-width: 0.8"/>
      </g>
     </g>
     <g id="text_8">
      <!-- 0.2 -->
      <g transform="translate(99.5844 464.654193) scale(0.1728 -0.1728)">
       <use xlink:href="#DejaVuSans-30"/>
       <use xlink:href="#DejaVuSans-2e" x="63.623047"/>
       <use xlink:href="#DejaVuSans-32" x="95.410156"/>
      </g>
     </g>
    </g>
    <g id="ytick_4">
     <g id="line2d_9">
      <g>
       <use xlink:href="#ma8460c65dc" x="134.065" y="389.275429" style="stroke: #000000; stroke-width: 0.8"/>
      </g>
     </g>
     <g id="text_9">
      <!-- 0.4 -->
      <g transform="translate(99.5844 395.840479) scale(0.1728 -0.1728)">
       <defs>
        <path id="DejaVuSans-34" d="M 2419 4116 
L 825 1625 
L 2419 1625 
L 2419 4116 
z
M 2253 4666 
L 3047 4666 
L 3047 1625 
L 3713 1625 
L 3713 1100 
L 3047 1100 
L 3047 0 
L 2419 0 
L 2419 1100 
L 313 1100 
L 313 1709 
L 2253 4666 
z
" transform="scale(0.015625)"/>
       </defs>
       <use xlink:href="#DejaVuSans-30"/>
       <use xlink:href="#DejaVuSans-2e" x="63.623047"/>
       <use xlink:href="#DejaVuSans-34" x="95.410156"/>
      </g>
     </g>
    </g>
    <g id="ytick_5">
     <g id="line2d_10">
      <g>
       <use xlink:href="#ma8460c65dc" x="134.065" y="320.461714" style="stroke: #000000; stroke-width: 0.8"/>
      </g>
     </g>
     <g id="text_10">
      <!-- 0.6 -->
      <g transform="translate(99.5844 327.026764) scale(0.1728 -0.1728)">
       <defs>
        <path id="DejaVuSans-36" d="M 2113 2584 
Q 1688 2584 1439 2293 
Q 1191 2003 1191 1497 
Q 1191 994 1439 701 
Q 1688 409 2113 409 
Q 2538 409 2786 701 
Q 3034 994 3034 1497 
Q 3034 2003 2786 2293 
Q 2538 2584 2113 2584 
z
M 3366 4563 
L 3366 3988 
Q 3128 4100 2886 4159 
Q 2644 4219 2406 4219 
Q 1781 4219 1451 3797 
Q 1122 3375 1075 2522 
Q 1259 2794 1537 2939 
Q 1816 3084 2150 3084 
Q 2853 3084 3261 2657 
Q 3669 2231 3669 1497 
Q 3669 778 3244 343 
Q 2819 -91 2113 -91 
Q 1303 -91 875 529 
Q 447 1150 447 2328 
Q 447 3434 972 4092 
Q 1497 4750 2381 4750 
Q 2619 4750 2861 4703 
Q 3103 4656 3366 4563 
z
" transform="scale(0.015625)"/>
       </defs>
       <use xlink:href="#DejaVuSans-30"/>
       <use xlink:href="#DejaVuSans-2e" x="63.623047"/>
       <use xlink:href="#DejaVuSans-36" x="95.410156"/>
      </g>
     </g>
    </g>
    <g id="ytick_6">
     <g id="line2d_11">
      <g>
       <use xlink:href="#ma8460c65dc" x="134.065" y="251.648" style="stroke: #000000; stroke-width: 0.8"/>
      </g>
     </g>
     <g id="text_11">
      <!-- 0.8 -->
      <g transform="translate(99.5844 258.21305) scale(0.1728 -0.1728)">
       <use xlink:href="#DejaVuSans-30"/>
       <use xlink:href="#DejaVuSans-2e" x="63.623047"/>
       <use xlink:href="#DejaVuSans-38" x="95.410156"/>
      </g>
     </g>
    </g>
    <g id="ytick_7">
     <g id="line2d_12">
      <g>
       <use xlink:href="#ma8460c65dc" x="134.065" y="182.834286" style="stroke: #000000; stroke-width: 0.8"/>
      </g>
     </g>
     <g id="text_12">
      <!-- 1.0 -->
      <g transform="translate(99.5844 189.399336) scale(0.1728 -0.1728)">
       <use xlink:href="#DejaVuSans-31"/>
       <use xlink:href="#DejaVuSans-2e" x="63.623047"/>
       <use xlink:href="#DejaVuSans-30" x="95.410156"/>
      </g>
     </g>
    </g>
    <g id="ytick_8">
     <g id="line2d_13">
      <g>
       <use xlink:href="#ma8460c65dc" x="134.065" y="114.020571" style="stroke: #000000; stroke-width: 0.8"/>
      </g>
     </g>
     <g id="text_13">
      <!-- 1.2 -->
      <g transform="translate(99.5844 120.585621) scale(0.1728 -0.1728)">
       <use xlink:href="#DejaVuSans-31"/>
       <use xlink:href="#DejaVuSans-2e" x="63.623047"/>
       <use xlink:href="#DejaVuSans-32" x="95.410156"/>
      </g>
     </g>
    </g>
    <g id="ytick_9">
     <g id="line2d_14">
      <g>
       <use xlink:href="#ma8460c65dc" x="134.065" y="45.206857" style="stroke: #000000; stroke-width: 0.8"/>
      </g>
     </g>
     <g id="text_14">
      <!-- 1.4 -->
      <g transform="translate(99.5844 51.771907) scale(0.1728 -0.1728)">
       <use xlink:href="#DejaVuSans-31"/>
       <use xlink:href="#DejaVuSans-2e" x="63.623047"/>
       <use xlink:href="#DejaVuSans-34" x="95.410156"/>
      </g>
     </g>
    </g>
    <g id="text_15">
     <!-- Node 8 -->
     <g transform="translate(24.30945 288.91648) scale(0.1728 -0.1728)">
      <defs>
       <path id="DejaVuSans-4e" d="M 628 4666 
L 1478 4666 
L 3547 763 
L 3547 4666 
L 4159 4666 
L 4159 0 
L 3309 0 
L 1241 3903 
L 1241 0 
L 628 0 
L 628 4666 
z
" transform="scale(0.015625)"/>
       <path id="DejaVuSans-6f" d="M 1959 3097 
Q 1497 3097 1228 2736 
Q 959 2375 959 1747 
Q 959 1119 1226 758 
Q 1494 397 1959 397 
Q 2419 397 2687 759 
Q 2956 1122 2956 1747 
Q 2956 2369 2687 2733 
Q 2419 3097 1959 3097 
z
M 1959 3584 
Q 2709 3584 3137 3096 
Q 3566 2609 3566 1747 
Q 3566 888 3137 398 
Q 2709 -91 1959 -91 
Q 1206 -91 779 398 
Q 353 888 353 1747 
Q 353 2609 779 3096 
Q 1206 3584 1959 3584 
z
" transform="scale(0.015625)"/>
       <path id="DejaVuSans-64" d="M 2906 2969 
L 2906 4863 
L 3481 4863 
L 3481 0 
L 2906 0 
L 2906 525 
Q 2725 213 2448 61 
Q 2172 -91 1784 -91 
Q 1150 -91 751 415 
Q 353 922 353 1747 
Q 353 2572 751 3078 
Q 1150 3584 1784 3584 
Q 2172 3584 2448 3432 
Q 2725 3281 2906 2969 
z
M 947 1747 
Q 947 1113 1208 752 
Q 1469 391 1925 391 
Q 2381 391 2643 752 
Q 2906 1113 2906 1747 
Q 2906 2381 2643 2742 
Q 2381 3103 1925 3103 
Q 1469 3103 1208 2742 
Q 947 2381 947 1747 
z
" transform="scale(0.015625)"/>
       <path id="DejaVuSans-65" d="M 3597 1894 
L 3597 1613 
L 953 1613 
Q 991 1019 1311 708 
Q 1631 397 2203 397 
Q 2534 397 2845 478 
Q 3156 559 3463 722 
L 3463 178 
Q 3153 47 2828 -22 
Q 2503 -91 2169 -91 
Q 1331 -91 842 396 
Q 353 884 353 1716 
Q 353 2575 817 3079 
Q 1281 3584 2069 3584 
Q 2775 3584 3186 3129 
Q 3597 2675 3597 1894 
z
M 3022 2063 
Q 3016 2534 2758 2815 
Q 2500 3097 2075 3097 
Q 1594 3097 1305 2825 
Q 1016 2553 972 2059 
L 3022 2063 
z
" transform="scale(0.015625)"/>
       <path id="DejaVuSans-20" transform="scale(0.015625)"/>
      </defs>
      <use xlink:href="#DejaVuSans-4e"/>
      <use xlink:href="#DejaVuSans-6f" x="74.804688"/>
      <use xlink:href="#DejaVuSans-64" x="135.986328"/>
      <use xlink:href="#DejaVuSans-65" x="199.462891"/>
      <use xlink:href="#DejaVuSans-20" x="260.986328"/>
      <use xlink:href="#DejaVuSans-38" x="292.773438"/>
     </g>
     <!-- Depth (m) -->
     <g transform="translate(10.8837 308.2663) scale(0.1728 -0.1728)">
      <defs>
       <path id="DejaVuSans-44" d="M 1259 4147 
L 1259 519 
L 2022 519 
Q 2988 519 3436 956 
Q 3884 1394 3884 2338 
Q 3884 3275 3436 3711 
Q 2988 4147 2022 4147 
L 1259 4147 
z
M 628 4666 
L 1925 4666 
Q 3281 4666 3915 4102 
Q 4550 3538 4550 2338 
Q 4550 1131 3912 565 
Q 3275 0 1925 0 
L 628 0 
L 628 4666 
z
" transform="scale(0.015625)"/>
       <path id="DejaVuSans-70" d="M 1159 525 
L 1159 -1331 
L 581 -1331 
L 581 3500 
L 1159 3500 
L 1159 2969 
Q 1341 3281 1617 3432 
Q 1894 3584 2278 3584 
Q 2916 3584 3314 3078 
Q 3713 2572 3713 1747 
Q 3713 922 3314 415 
Q 2916 -91 2278 -91 
Q 1894 -91 1617 61 
Q 1341 213 1159 525 
z
M 3116 1747 
Q 3116 2381 2855 2742 
Q 2594 3103 2138 3103 
Q 1681 3103 1420 2742 
Q 1159 2381 1159 1747 
Q 1159 1113 1420 752 
Q 1681 391 2138 391 
Q 2594 391 2855 752 
Q 3116 1113 3116 1747 
z
" transform="scale(0.015625)"/>
       <path id="DejaVuSans-74" d="M 1172 4494 
L 1172 3500 
L 2356 3500 
L 2356 3053 
L 1172 3053 
L 1172 1153 
Q 1172 725 1289 603 
Q 1406 481 1766 481 
L 2356 481 
L 2356 0 
L 1766 0 
Q 1100 0 847 248 
Q 594 497 594 1153 
L 594 3053 
L 172 3053 
L 172 3500 
L 594 3500 
L 594 4494 
L 1172 4494 
z
" transform="scale(0.015625)"/>
       <path id="DejaVuSans-68" d="M 3513 2113 
L 3513 0 
L 2938 0 
L 2938 2094 
Q 2938 2591 2744 2837 
Q 2550 3084 2163 3084 
Q 1697 3084 1428 2787 
Q 1159 2491 1159 1978 
L 1159 0 
L 581 0 
L 581 4863 
L 1159 4863 
L 1159 2956 
Q 1366 3272 1645 3428 
Q 1925 3584 2291 3584 
Q 2894 3584 3203 3211 
Q 3513 2838 3513 2113 
z
" transform="scale(0.015625)"/>
       <path id="DejaVuSans-28" d="M 1984 4856 
Q 1566 4138 1362 3434 
Q 1159 2731 1159 2009 
Q 1159 1288 1364 580 
Q 1569 -128 1984 -844 
L 1484 -844 
Q 1016 -109 783 600 
Q 550 1309 550 2009 
Q 550 2706 781 3412 
Q 1013 4119 1484 4856 
L 1984 4856 
z
" transform="scale(0.015625)"/>
       <path id="DejaVuSans-6d" d="M 3328 2828 
Q 3544 3216 3844 3400 
Q 4144 3584 4550 3584 
Q 5097 3584 5394 3201 
Q 5691 2819 5691 2113 
L 5691 0 
L 5113 0 
L 5113 2094 
Q 5113 2597 4934 2840 
Q 4756 3084 4391 3084 
Q 3944 3084 3684 2787 
Q 3425 2491 3425 1978 
L 3425 0 
L 2847 0 
L 2847 2094 
Q 2847 2600 2669 2842 
Q 2491 3084 2119 3084 
Q 1678 3084 1418 2786 
Q 1159 2488 1159 1978 
L 1159 0 
L 581 0 
L 581 3500 
L 1159 3500 
L 1159 2956 
Q 1356 3278 1631 3431 
Q 1906 3584 2284 3584 
Q 2666 3584 2933 3390 
Q 3200 3197 3328 2828 
z
" transform="scale(0.015625)"/>
       <path id="DejaVuSans-29" d="M 513 4856 
L 1013 4856 
Q 1481 4119 1714 3412 
Q 1947 2706 1947 2009 
Q 1947 1309 1714 600 
Q 1481 -109 1013 -844 
L 513 -844 
Q 928 -128 1133 580 
Q 1338 1288 1338 2009 
Q 1338 2731 1133 3434 
Q 928 4138 513 4856 
z
" transform="scale(0.015625)"/>
      </defs>
      <use xlink:href="#DejaVuSans-44"/>
      <use xlink:href="#DejaVuSans-65" x="77.001953"/>
      <use xlink:href="#DejaVuSans-70" x="138.525391"/>
      <use xlink:href="#DejaVuSans-74" x="202.001953"/>
      <use xlink:href="#DejaVuSans-68" x="241.210938"/>
      <use xlink:href="#DejaVuSans-20" x="304.589844"/>
      <use xlink:href="#DejaVuSans-28" x="336.376953"/>
      <use xlink:href="#DejaVuSans-6d" x="375.390625"/>
      <use xlink:href="#DejaVuSans-29" x="472.802734"/>
     </g>
    </g>
   </g>
   <g id="line2d_15">
    <path d="M 133.959448 526.882558 
L 134.276105 526.88273 
M 134.48721 526.884574 
L 136.281601 526.882548 
M 136.492706 526.882324 
L 139.237069 526.882083 
M 139.448174 526.882768 
L 140.187041 526.882313 
M 140.398146 526.883006 
L 143.036956 526.884633 
M 143.248061 526.884056 
L 143.986928 526.882596 
M 144.198033 526.882028 
L 146.731292 526.882689 
M 146.942396 526.88215 
L 148.525683 526.882382 
M 148.736788 526.883163 
L 156.336563 526.882235 
L 156.442115 523.210602 
L 156.758772 504.965562 
L 156.969877 509.446722 
L 157.07543 492.680647 
L 157.180982 450.148509 
L 157.286534 356.521809 
M 157.497639 287.588403 
L 157.708744 205.190953 
L 157.919849 199.507393 
L 158.025401 199.67275 
L 158.130954 200.172828 
M 158.342059 200.163919 
L 158.869821 197.720661 
L 158.975373 198.102788 
L 159.080926 200.29499 
M 159.292031 201.881253 
L 160.13645 215.547314 
L 161.825289 246.033199 
L 163.408575 276.90003 
L 166.786253 354.762876 
L 166.997358 363.323738 
M 167.208463 366.643192 
L 168.052882 393.036525 
L 169.002854 433.205028 
L 169.952826 491.032567 
L 170.269483 517.242929 
L 170.480588 522.466154 
L 170.691693 524.37972 
L 171.00835 525.449224 
L 171.43056 526.015785 
L 171.958322 526.337824 
L 172.908294 526.560844 
L 173.647161 526.642157 
M 173.858266 526.64988 
L 176.391524 526.750739 
M 176.602629 526.748615 
L 177.763706 526.777743 
M 177.974811 526.777859 
L 182.513565 526.826324 
M 182.72467 526.828251 
L 187.368977 526.851713 
M 187.580082 526.852946 
L 198.240877 526.875028 
M 198.451982 526.875478 
L 198.663087 526.875353 
M 198.874192 526.875611 
L 209.640539 526.883163 
M 209.851644 526.881989 
L 215.973685 526.882357 
M 216.18479 526.881709 
L 217.134762 526.88222 
M 217.345867 526.882346 
L 220.617992 526.882173 
M 220.829097 526.882334 
L 221.779069 526.882141 
M 221.990174 526.882106 
L 223.679012 526.882439 
M 223.890117 526.882231 
L 225.578956 526.882243 
M 225.790061 526.88266 
L 228.217767 526.88235 
M 228.428872 526.882171 
L 235.606437 526.882137 
M 235.817542 526.882555 
L 240.672954 526.882882 
M 240.884058 526.882311 
L 243.522869 526.882325 
M 243.733974 526.881927 
L 248.800491 526.882448 
M 249.011596 526.882221 
L 251.228197 526.882893 
M 251.439301 526.882737 
L 252.600378 526.882455 
M 252.811483 526.882324 
L 253.97256 526.882274 
M 254.183665 526.882174 
L 262.416754 526.874416 
L 262.733411 526.603554 
L 263.261173 526.562393 
L 269.277662 526.489618 
M 269.488767 526.488689 
L 277.616304 526.417346 
M 277.827409 526.416686 
L 279.19959 526.407742 
M 279.410695 526.407113 
L 292.076987 526.331696 
L 377.36335 526.140288 
L 377.891112 372.869582 
L 378.207769 340.050095 
L 378.524426 313.366165 
L 379.157741 304.254494 
L 379.368846 303.595923 
L 379.579951 303.586251 
L 379.685503 303.834306 
M 379.896608 304.031259 
L 380.42437 305.29709 
L 381.374342 308.077359 
L 387.39083 325.914969 
L 389.924089 332.529269 
L 393.196214 340.315887 
L 396.04613 346.28567 
L 396.573892 347.506758 
M 396.784997 347.74723 
L 399.423807 352.497223 
L 401.957066 356.528661 
L 402.484828 357.454303 
M 402.695933 357.636943 
L 405.229191 361.057627 
L 407.551344 363.820956 
L 409.873498 366.2517 
L 412.301204 368.471481 
L 414.72891 370.397746 
L 417.262168 372.131958 
L 420.006531 373.734712 
L 422.856447 375.139849 
L 425.917467 376.402779 
L 429.295145 377.553829 
L 429.928459 377.745475 
L 430.034012 377.636828 
L 430.139564 376.765394 
L 430.350669 372.150186 
L 430.772879 356.304315 
L 431.195088 337.863692 
L 431.406193 327.032519 
L 431.617298 308.900892 
L 432.039508 253.179699 
L 433.306137 195.074497 
L 433.517242 181.952191 
L 433.728347 179.219858 
L 433.833899 178.971693 
L 433.939452 179.011661 
L 434.150557 179.514544 
L 434.678319 181.631694 
L 436.367158 190.122421 
M 436.578262 189.909272 
L 436.789367 188.782073 
L 437.106025 187.29509 
L 437.211577 187.376642 
L 437.317129 187.885362 
M 437.528234 188.259724 
L 438.161549 191.028105 
L 439.639283 198.33569 
L 439.744835 199.364601 
M 439.95594 199.963386 
L 446.077981 230.85681 
M 446.289086 231.398102 
L 448.18903 240.417359 
L 449.666764 247.196407 
L 450.82784 252.512116 
L 453.361099 263.614126 
L 453.466651 264.494115 
M 453.677756 264.994864 
L 457.160986 279.79371 
M 457.372091 280.217493 
L 460.327559 291.697818 
L 461.066426 294.390224 
L 462.227503 298.946916 
M 462.438608 299.339112 
L 464.444104 306.329232 
L 464.549656 306.633996 
L 464.655209 307.330297 
M 464.866313 307.705507 
L 466.4496 312.886835 
L 467.716229 316.841653 
L 468.771753 320.311607 
M 468.982858 320.647139 
L 470.249487 324.329378 
L 471.093907 326.662536 
L 471.832774 328.937886 
M 472.043879 329.239142 
L 473.310508 332.553923 
L 478.588129 344.872715 
M 478.799234 345.108694 
L 479.854758 347.218009 
L 483.865751 354.320908 
L 484.604618 355.641439 
M 484.815723 355.819724 
L 486.082352 357.704 
L 486.187904 357.984839 
M 486.399009 358.150627 
L 490.198896 362.998695 
L 493.365469 366.314078 
L 497.482014 369.77667 
L 499.276405 371.092132 
M 499.48751 371.168998 
L 502.337426 372.916291 
M 502.548531 372.980467 
L 506.665075 374.907608 
L 510.464963 376.278864 
L 514.159298 377.322934 
L 518.064738 378.18156 
L 522.603492 378.94262 
L 527.881114 379.594142 
L 534.319812 380.153568 
L 538.647462 380.432701 
M 538.858566 380.439616 
L 542.869559 380.640781 
M 543.080664 380.646222 
L 548.674942 380.855219 
M 548.886047 380.859092 
L 551.208201 380.927612 
M 551.419305 380.93092 
L 563.663387 381.13906 
L 580.024014 381.173776 
L 638.605612 381.172791 
L 638.711165 379.713461 
L 638.922269 365.544717 
L 639.450032 313.682908 
L 639.661136 310.934075 
L 639.872241 310.133547 
L 640.083346 309.999743 
L 640.294451 310.189449 
L 640.611108 310.739697 
L 641.666633 313.438848 
L 643.777681 319.384806 
L 643.883234 319.036911 
L 643.988786 318.086416 
L 644.199891 312.98767 
L 644.516548 303.991428 
L 644.727653 302.685078 
L 644.938758 302.407687 
L 645.04431 302.439993 
L 645.149863 302.687946 
M 645.360968 302.887256 
L 645.88873 304.15366 
L 646.944254 307.211734 
L 647.260911 308.060885 
L 647.366464 307.769928 
L 647.683121 305.196231 
L 647.894226 304.821737 
L 648.105331 304.900013 
L 648.52754 305.639608 
L 648.633093 306.106354 
M 648.844198 306.41065 
L 648.94975 306.930192 
M 649.160855 307.247998 
L 650.427484 310.915716 
L 651.694113 314.692316 
L 651.799666 315.258498 
M 652.010771 315.587483 
L 654.755134 323.269833 
L 654.860686 323.820813 
M 655.071791 324.110968 
L 656.971735 328.992092 
L 657.710602 331.028145 
M 657.921707 331.288811 
L 659.716098 335.410889 
L 661.404937 339.002322 
L 663.093776 342.349633 
L 666.260349 348.044903 
M 666.471453 348.219275 
L 668.160292 350.783767 
L 669.849131 353.131166 
L 670.165788 353.66684 
M 670.376893 353.806473 
L 672.065732 355.848816 
L 673.754571 357.698594 
L 674.071228 358.117873 
M 674.282333 358.226986 
L 675.126753 359.139797 
M 675.337857 359.241433 
L 677.132249 360.807017 
L 678.92664 362.184547 
L 680.826584 363.457647 
L 684.520919 365.437382 
L 686.73752 366.361726 
L 687.793044 366.772529 
M 688.004149 366.80917 
L 688.848568 367.110892 
M 689.059673 367.14393 
L 691.592932 367.814813 
L 692.331799 367.99891 
M 692.542903 368.021817 
L 695.815029 368.621145 
M 696.026134 368.637294 
L 698.242735 368.937287 
M 698.453839 368.949512 
L 700.670441 369.172185 
M 700.881545 369.181032 
L 705.209195 369.427664 
L 705.84251 369.451103 
M 706.053614 369.45421 
L 707.214691 369.482878 
M 707.425796 369.48474 
L 708.586873 369.499558 
M 708.797978 369.500268 
L 709.959054 369.502798 
M 710.170159 369.502778 
L 711.331236 369.50256 
M 711.542341 369.50254 
L 715.764438 369.501866 
M 715.975543 369.501852 
L 718.825458 369.501451 
M 719.036563 369.501434 
L 721.886479 369.501073 
M 722.097584 369.501064 
L 723.575318 369.500884 
M 723.786423 369.500875 
L 725.264157 369.500705 
M 725.475261 369.50069 
L 726.952995 369.500533 
M 727.1641 369.500522 
L 728.641834 369.500371 
M 728.852939 369.50036 
L 732.336169 369.500044 
M 732.547274 369.500034 
L 740.358154 369.499443 
M 740.569259 369.499438 
L 742.36365 369.499311 
M 742.574755 369.499302 
L 744.685804 369.499165 
M 744.896908 369.499161 
L 747.007957 369.49903 
M 747.219062 369.499025 
L 749.33011 369.498907 
M 749.541215 369.498902 
L 751.968921 369.49877 
M 752.180026 369.498766 
L 754.607732 369.498643 
M 754.818837 369.498636 
L 757.5632 369.498508 
M 757.774305 369.498504 
L 760.518668 369.498382 
M 760.729773 369.498375 
L 763.790793 369.49825 
M 764.001898 369.498247 
L 767.062919 369.498128 
M 767.274023 369.498125 
L 770.968358 369.497992 
M 771.179463 369.49799 
L 775.190456 369.497865 
M 775.40156 369.497862 
L 775.507113 369.497851 
M 775.718218 369.497848 
L 780.362525 369.497711 
M 780.573629 369.497709 
L 786.484566 369.497555 
M 786.69567 369.497553 
L 786.801223 369.497542 
M 787.012328 369.49754 
L 794.823207 369.497365 
M 795.034312 369.497363 
L 795.139865 369.497353 
M 795.35097 369.497351 
L 795.456522 369.497348 
M 795.667627 369.497346 
L 795.773179 369.497343 
M 795.984284 369.497341 
L 803.161849 369.497197 
L 803.161849 369.497197 
" clip-path="url(#p0f194b4bd6)" style="fill: none; stroke: #000000; stroke-opacity: 0.6; stroke-width: 7; stroke-linecap: square"/>
   </g>
   <g id="line2d_16">
    <path d="M 332.70671 649 
L 332.714672 570.73751 
L 332.820224 571.172295 
L 338.097846 592.434374 
L 343.269915 612.363728 
L 348.336431 631.016695 
L 353.297396 648.449338 
L 353.45802 649 
M 388.383987 649 
L 388.446355 505.268872 
L 388.551907 505.557133 
L 393.090662 517.618106 
L 396.573892 526.700391 
M 396.784997 526.961553 
L 401.218199 537.62798 
L 402.484828 540.811332 
M 402.695933 541.053921 
L 407.234687 551.197559 
L 412.406756 562.218943 
L 417.578825 572.719581 
L 419.373216 576.244857 
L 419.478769 506.461701 
L 419.584321 506.680511 
L 424.861943 517.360179 
L 430.139564 527.542691 
L 435.417186 537.25061 
L 436.367158 539.13737 
M 436.578262 539.325068 
L 437.317129 540.820334 
M 437.528234 541.006445 
L 439.744835 545.056311 
M 439.95594 545.238385 
L 445.339114 554.297978 
L 446.077981 555.67963 
M 446.289086 555.851598 
L 451.67226 564.408817 
L 453.466651 567.331413 
M 453.677756 567.49232 
L 457.160986 572.873284 
M 457.372091 573.028934 
L 458.110958 574.114364 
L 458.21651 354.788771 
L 458.322063 354.985434 
L 460.538664 359.315874 
L 462.227503 363.376681 
M 462.438608 363.614757 
L 464.655209 368.833566 
M 464.866313 369.069934 
L 468.771753 377.997605 
M 468.982858 378.231122 
L 471.832774 384.740265 
M 472.043879 384.97169 
L 478.588129 399.407814 
M 478.799234 399.634694 
L 484.604618 412.228254 
M 484.815723 412.451154 
L 486.187904 415.564482 
M 486.399009 415.786344 
L 495.58207 434.825348 
L 499.276405 442.55258 
M 499.48751 442.765972 
L 502.337426 448.713522 
M 502.548531 448.924956 
L 511.62604 466.856952 
L 520.597996 484.094431 
L 529.569953 500.850754 
L 538.647462 517.503339 
M 538.858566 517.691815 
L 542.869559 524.988887 
M 543.080664 525.174683 
L 548.674942 535.108487 
M 548.886047 535.2906 
L 551.208201 539.460628 
M 551.419305 539.641125 
L 559.969052 554.036667 
L 568.307694 567.645773 
L 576.540784 580.659252 
L 584.562768 592.927718 
L 592.4792 604.629126 
L 600.184528 615.623257 
L 607.67875 625.933865 
L 615.06742 635.723407 
L 622.350538 645.002947 
L 625.580751 649 
L 625.580751 649 
" clip-path="url(#p0f194b4bd6)" style="fill: none; stroke-dasharray: 25.9,11.2; stroke-dashoffset: 0; stroke: #0000ff; stroke-opacity: 0.6; stroke-width: 7"/>
   </g>
   <g id="line2d_17">
    <path d="M 133.959448 522.572416 
L 134.276105 522.575756 
M 134.48721 522.576591 
L 136.281601 522.591587 
M 136.492706 522.592419 
L 139.237069 522.614812 
M 139.448174 522.615639 
L 140.187041 522.62225 
M 140.398146 522.623076 
L 143.036956 522.644488 
M 143.248061 522.645309 
L 143.986928 522.651875 
M 144.198033 522.652695 
L 146.731292 522.673143 
M 146.942396 522.673958 
L 148.525683 522.686991 
M 148.736788 522.687804 
L 157.286534 522.753955 
M 157.497639 522.754756 
L 158.130954 522.760353 
M 158.342059 522.761152 
L 159.080926 522.767539 
M 159.292031 522.768337 
L 166.997358 522.826939 
M 167.208463 522.827725 
L 173.647161 522.876175 
M 173.858266 522.876952 
L 176.391524 522.896321 
M 176.602629 522.897093 
L 177.763706 522.906356 
M 177.974811 522.907126 
L 182.513565 522.940899 
M 182.72467 522.941663 
L 187.368977 522.975901 
M 187.580082 522.976658 
L 198.240877 523.053158 
M 198.451982 523.0539 
L 198.663087 523.056127 
M 198.874192 523.056869 
L 209.640539 523.132533 
M 209.851644 523.13326 
L 215.973685 523.175921 
M 216.18479 523.17664 
L 217.134762 523.183821 
M 217.345867 523.184539 
L 220.617992 523.207421 
M 220.829097 523.208134 
L 221.779069 523.215255 
M 221.990174 523.215966 
L 223.679012 523.228037 
M 223.890117 523.228746 
L 225.578956 523.240775 
M 225.790061 523.241482 
L 228.217767 523.258394 
M 228.428872 523.259097 
L 235.606437 523.307277 
M 235.817542 523.30797 
L 240.672954 523.340417 
M 240.884058 523.341104 
L 243.522869 523.358924 
M 243.733974 523.359607 
L 248.800491 523.392942 
M 249.011596 523.393619 
L 251.228197 523.408481 
M 251.439301 523.409155 
L 252.600378 523.417233 
M 252.811483 523.417905 
L 253.97256 523.425963 
M 254.183665 523.426634 
L 254.922532 523.431325 
L 255.028084 375.466466 
L 255.133636 375.495677 
L 269.277662 379.387822 
M 269.488767 379.416276 
L 277.616304 381.618876 
M 277.827409 381.6469 
L 279.19959 382.038666 
M 279.410695 382.066609 
L 301.3656 387.763113 
L 323.742715 393.338672 
L 346.54204 398.789703 
L 369.763575 404.113053 
L 379.685503 406.342844 
M 379.896608 406.366098 
L 396.573892 410.007134 
M 396.784997 410.029682 
L 402.484828 411.263148 
M 402.695933 411.285454 
L 427.078544 416.324476 
L 436.367158 418.206777 
M 436.578262 418.227744 
L 437.317129 418.395329 
M 437.528234 418.416259 
L 439.744835 418.8757 
M 439.95594 418.896537 
L 446.077981 420.118854 
M 446.289086 420.139451 
L 453.466651 421.551131 
M 453.677756 421.571452 
L 457.160986 422.260049 
M 457.372091 422.280233 
L 458.110958 422.421416 
L 460.644216 427.145762 
L 462.227503 429.999746 
M 462.438608 430.169992 
L 464.655209 433.675128 
M 464.866313 433.823576 
L 466.977362 436.595376 
L 468.771753 438.77106 
M 468.982858 438.883131 
L 470.988354 440.837631 
L 471.832774 441.648069 
M 472.043879 441.733562 
L 473.943822 443.117379 
L 475.738214 444.156227 
L 477.532605 444.936972 
L 478.588129 445.305689 
M 478.799234 445.333918 
L 480.488073 445.66831 
L 484.604618 446.292732 
M 484.815723 446.30828 
L 486.187904 446.52565 
M 486.399009 446.541154 
L 499.276405 448.425513 
M 499.48751 448.440651 
L 502.337426 448.863317 
M 502.548531 448.87837 
L 532.208763 452.995278 
L 538.647462 453.873972 
M 538.858566 453.888059 
L 542.869559 454.43532 
M 543.080664 454.449298 
L 548.674942 455.200134 
M 548.886047 455.213965 
L 551.208201 455.531337 
M 551.419305 455.545103 
L 582.346167 459.466535 
L 614.223001 463.283017 
L 645.149863 466.790813 
M 645.360968 466.802408 
L 648.633093 467.172269 
M 648.844198 467.183791 
L 648.94975 467.206827 
M 649.160855 467.218342 
L 651.271904 467.448171 
L 651.377456 353.493241 
L 651.483008 353.526674 
L 651.799666 353.660369 
M 652.010771 353.693781 
L 654.860686 354.626821 
M 655.071791 354.660052 
L 657.710602 355.521794 
M 657.921707 355.554852 
L 666.260349 358.178912 
M 666.471453 358.211458 
L 670.165788 359.378912 
M 670.376893 359.411226 
L 674.071228 360.570377 
M 674.282333 360.602461 
L 675.126753 360.890938 
M 675.337857 360.92296 
L 687.793044 364.689814 
M 688.004149 364.721103 
L 688.848568 365.002435 
M 689.059673 365.033664 
L 692.331799 366.029817 
M 692.542903 366.060848 
L 695.815029 367.05068 
M 696.026134 367.081513 
L 698.242735 367.758356 
M 698.453839 367.789054 
L 700.670441 368.4629 
M 700.881545 368.493462 
L 705.84251 369.953502 
M 706.053614 369.983776 
L 707.214691 370.346608 
M 707.425796 370.376806 
L 708.586873 370.73873 
M 708.797978 370.768852 
L 709.959054 371.129869 
M 710.170159 371.159917 
L 711.331236 371.520029 
M 711.542341 371.550001 
L 715.764438 372.77388 
M 715.975543 372.80361 
L 718.825458 373.633724 
M 719.036563 373.663288 
L 721.886479 374.488772 
M 722.097584 374.518171 
L 723.575318 374.958478 
M 723.786423 374.987787 
L 725.264157 375.426737 
M 725.475261 375.455956 
L 726.952995 375.893553 
M 727.1641 375.922682 
L 728.641834 376.358931 
M 728.852939 376.387969 
L 732.336169 377.37195 
M 732.547274 377.400793 
L 740.358154 379.548239 
M 740.569259 379.576662 
L 742.36365 380.087344 
M 742.574755 380.115663 
L 744.685804 380.709107 
M 744.896908 380.737306 
L 747.007957 381.328237 
M 747.219062 381.356317 
L 749.33011 381.944745 
M 749.541215 381.972706 
L 751.968921 382.642154 
M 752.180026 382.66998 
L 754.607732 383.336207 
M 754.818837 383.3639 
L 757.5632 384.109584 
M 757.774305 384.137127 
L 760.518668 384.878794 
M 760.729773 384.906189 
L 763.790793 385.725587 
M 764.001898 385.752819 
L 767.062919 386.567331 
M 767.274023 386.594401 
L 770.968358 387.565427 
M 771.179463 387.592304 
L 775.190456 388.636465 
M 775.40156 388.663135 
L 775.507113 388.71646 
M 775.718218 388.743115 
L 780.362525 389.937274 
M 780.573629 389.963693 
L 786.484566 391.461199 
M 786.69567 391.487325 
L 786.801223 391.53956 
M 787.012328 391.56567 
L 794.823207 393.509652 
M 795.034312 393.535382 
L 795.139865 393.586828 
M 795.35097 393.612543 
L 795.456522 393.663959 
M 795.667627 393.689659 
L 795.773179 393.741045 
M 795.984284 393.766731 
L 803.161849 395.501778 
L 803.161849 395.501778 
" clip-path="url(#p0f194b4bd6)" style="fill: none; stroke-dasharray: 7,11.55; stroke-dashoffset: 0; stroke: #008000; stroke-opacity: 0.6; stroke-width: 7"/>
   </g>
   <g id="line2d_18">
    <path d="M 133.959448 532.419574 
L 134.276105 532.415318 
M 134.48721 532.414255 
L 136.281601 532.395151 
M 136.492706 532.394091 
L 139.237069 532.365564 
M 139.448174 532.364511 
L 140.187041 532.356088 
M 140.398146 532.355037 
L 143.036956 532.327759 
M 143.248061 532.326713 
L 143.986928 532.318348 
M 144.198033 532.317304 
L 146.731292 532.291254 
M 146.942396 532.290215 
L 148.525683 532.273612 
M 148.736788 532.272576 
L 157.286534 532.188304 
M 157.497639 532.187284 
L 158.130954 532.180153 
M 158.342059 532.179135 
L 159.080926 532.170999 
M 159.292031 532.169983 
L 166.997358 532.095327 
M 167.208463 532.094326 
L 173.647161 532.032604 
M 173.858266 532.031614 
L 176.391524 532.006939 
M 176.602629 532.005955 
L 177.763706 531.994155 
M 177.974811 531.993173 
L 182.513565 531.95015 
M 182.72467 531.949176 
L 187.368977 531.905559 
M 187.580082 531.904594 
L 198.240877 531.807139 
M 198.451982 531.806193 
L 198.663087 531.803356 
M 198.874192 531.80241 
L 209.640539 531.706019 
M 209.851644 531.705093 
L 215.973685 531.650745 
M 216.18479 531.649829 
L 217.134762 531.640681 
M 217.345867 531.639767 
L 220.617992 531.610616 
M 220.829097 531.609708 
L 221.779069 531.600637 
M 221.990174 531.59973 
L 223.679012 531.584353 
M 223.890117 531.58345 
L 225.578956 531.568125 
M 225.790061 531.567225 
L 228.217767 531.54568 
M 228.428872 531.544784 
L 235.606437 531.483406 
M 235.817542 531.482523 
L 240.672954 531.441188 
M 240.884058 531.440313 
L 243.522869 531.417611 
M 243.733974 531.416741 
L 248.800491 531.374274 
M 249.011596 531.373412 
L 251.228197 531.354479 
M 251.439301 531.35362 
L 252.600378 531.343329 
M 252.811483 531.342472 
L 253.97256 531.332207 
M 254.183665 531.331353 
L 269.277662 531.210027 
M 269.488767 531.209196 
L 277.616304 531.144884 
M 277.827409 531.144066 
L 279.19959 531.132627 
M 279.410695 531.131811 
L 379.685503 530.42299 
M 379.896608 530.422311 
L 396.573892 530.315999 
M 396.784997 530.315341 
L 402.484828 530.279326 
M 402.695933 530.278674 
L 436.367158 530.076584 
M 436.578262 530.075972 
L 437.317129 530.071079 
M 437.528234 530.070468 
L 439.744835 530.057053 
M 439.95594 530.056445 
L 446.077981 530.020755 
M 446.289086 530.020154 
L 453.466651 529.978935 
M 453.677756 529.978342 
L 457.160986 529.958236 
M 457.372091 529.957647 
L 462.227503 529.930075 
M 462.438608 529.929491 
L 464.655209 529.916674 
M 464.866313 529.916092 
L 468.771753 529.894084 
M 468.982858 529.893507 
L 471.832774 529.877397 
M 472.043879 529.876823 
L 478.588129 529.840899 
M 478.799234 529.840332 
L 484.604618 529.80877 
M 484.815723 529.808209 
L 486.187904 529.800373 
M 486.399009 529.799814 
L 499.276405 529.731885 
M 499.48751 529.731339 
L 502.337426 529.716103 
M 502.548531 529.71556 
L 538.647462 529.535474 
M 538.858566 529.534966 
L 542.869559 529.515238 
M 543.080664 529.514734 
L 548.674942 529.487667 
M 548.886047 529.487168 
L 551.208201 529.475727 
M 551.419305 529.475231 
L 645.149863 529.069835 
M 645.360968 529.069417 
L 648.633093 529.056084 
M 648.844198 529.055668 
L 648.94975 529.054838 
M 649.160855 529.054423 
L 651.799666 529.043658 
M 652.010771 529.043245 
L 654.860686 529.031715 
M 655.071791 529.031305 
L 657.710602 529.020656 
M 657.921707 529.020247 
L 666.260349 528.987821 
M 666.471453 528.987419 
L 670.165788 528.972993 
M 670.376893 528.972593 
L 674.071228 528.958269 
M 674.282333 528.957873 
L 675.126753 528.954308 
M 675.337857 528.953912 
L 687.793044 528.907364 
M 688.004149 528.906978 
L 688.848568 528.903501 
M 689.059673 528.903115 
L 692.015141 528.89234 
L 692.120694 365.936689 
L 692.226246 365.967738 
L 692.331799 366.029817 
M 692.542903 366.060848 
L 695.815029 367.05068 
M 696.026134 367.081513 
L 698.242735 367.758356 
M 698.453839 367.789054 
L 700.670441 368.4629 
M 700.881545 368.493462 
L 705.84251 369.953502 
M 706.053614 369.983776 
L 707.214691 370.346608 
M 707.425796 370.376806 
L 708.586873 370.73873 
M 708.797978 370.768852 
L 709.959054 371.129869 
M 710.170159 371.159917 
L 711.331236 371.520029 
M 711.542341 371.550001 
L 715.764438 372.77388 
M 715.975543 372.80361 
L 718.825458 373.633724 
M 719.036563 373.663288 
L 721.886479 374.488772 
M 722.097584 374.518171 
L 723.575318 374.958478 
M 723.786423 374.987787 
L 725.264157 375.426737 
M 725.475261 375.455956 
L 726.952995 375.893553 
M 727.1641 375.922682 
L 728.641834 376.358931 
M 728.852939 376.387969 
L 732.336169 377.37195 
M 732.547274 377.400793 
L 740.358154 379.548239 
M 740.569259 379.576662 
L 742.36365 380.087344 
M 742.574755 380.115663 
L 744.685804 380.709107 
M 744.896908 380.737306 
L 747.007957 381.328237 
M 747.219062 381.356317 
L 749.33011 381.944745 
M 749.541215 381.972706 
L 751.968921 382.642154 
M 752.180026 382.66998 
L 754.607732 383.336207 
M 754.818837 383.3639 
L 757.5632 384.109584 
M 757.774305 384.137127 
L 760.518668 384.878794 
M 760.729773 384.906189 
L 763.790793 385.725587 
M 764.001898 385.752819 
L 767.062919 386.567331 
M 767.274023 386.594401 
L 770.968358 387.565427 
M 771.179463 387.592304 
L 775.190456 388.636465 
M 775.40156 388.663135 
L 775.507113 388.71646 
M 775.718218 388.743115 
L 780.362525 389.937274 
M 780.573629 389.963693 
L 786.484566 391.461199 
M 786.69567 391.487325 
L 786.801223 391.53956 
M 787.012328 391.56567 
L 794.823207 393.509652 
M 795.034312 393.535382 
L 795.139865 393.586828 
M 795.35097 393.612543 
L 795.456522 393.663959 
M 795.667627 393.689659 
L 795.773179 393.741045 
M 795.984284 393.766731 
L 803.161849 395.501778 
L 803.161849 395.501778 
" clip-path="url(#p0f194b4bd6)" style="fill: none; stroke-dasharray: 44.8,11.2,7,11.2; stroke-dashoffset: 0; stroke: #ff0000; stroke-opacity: 0.6; stroke-width: 7"/>
   </g>
   <g id="patch_3">
    <path d="M 134.065 612.92 
L 134.065 10.8 
" style="fill: none; stroke: #000000; stroke-width: 0.8; stroke-linejoin: miter; stroke-linecap: square"/>
   </g>
   <g id="patch_4">
    <path d="M 803.056297 612.92 
L 803.056297 10.8 
" style="fill: none; stroke: #000000; stroke-width: 0.8; stroke-linejoin: miter; stroke-linecap: square"/>
   </g>
   <g id="patch_5">
    <path d="M 134.065 612.92 
L 803.056297 612.92 
" style="fill: none; stroke: #000000; stroke-width: 0.8; stroke-linejoin: miter; stroke-linecap: square"/>
   </g>
   <g id="patch_6">
    <path d="M 134.065 10.8 
L 803.056297 10.8 
" style="fill: none; stroke: #000000; stroke-width: 0.8; stroke-linejoin: miter; stroke-linecap: square"/>
   </g>
   <g id="text_16">
    <!-- 4 RMSE: 8.77 m -->
    <g style="fill: #0000ff" transform="translate(602.358908 71.012) scale(0.1728 -0.1728)">
     <defs>
      <path id="DejaVuSans-52" d="M 2841 2188 
Q 3044 2119 3236 1894 
Q 3428 1669 3622 1275 
L 4263 0 
L 3584 0 
L 2988 1197 
Q 2756 1666 2539 1819 
Q 2322 1972 1947 1972 
L 1259 1972 
L 1259 0 
L 628 0 
L 628 4666 
L 2053 4666 
Q 2853 4666 3247 4331 
Q 3641 3997 3641 3322 
Q 3641 2881 3436 2590 
Q 3231 2300 2841 2188 
z
M 1259 4147 
L 1259 2491 
L 2053 2491 
Q 2509 2491 2742 2702 
Q 2975 2913 2975 3322 
Q 2975 3731 2742 3939 
Q 2509 4147 2053 4147 
L 1259 4147 
z
" transform="scale(0.015625)"/>
      <path id="DejaVuSans-4d" d="M 628 4666 
L 1569 4666 
L 2759 1491 
L 3956 4666 
L 4897 4666 
L 4897 0 
L 4281 0 
L 4281 4097 
L 3078 897 
L 2444 897 
L 1241 4097 
L 1241 0 
L 628 0 
L 628 4666 
z
" transform="scale(0.015625)"/>
      <path id="DejaVuSans-53" d="M 3425 4513 
L 3425 3897 
Q 3066 4069 2747 4153 
Q 2428 4238 2131 4238 
Q 1616 4238 1336 4038 
Q 1056 3838 1056 3469 
Q 1056 3159 1242 3001 
Q 1428 2844 1947 2747 
L 2328 2669 
Q 3034 2534 3370 2195 
Q 3706 1856 3706 1288 
Q 3706 609 3251 259 
Q 2797 -91 1919 -91 
Q 1588 -91 1214 -16 
Q 841 59 441 206 
L 441 856 
Q 825 641 1194 531 
Q 1563 422 1919 422 
Q 2459 422 2753 634 
Q 3047 847 3047 1241 
Q 3047 1584 2836 1778 
Q 2625 1972 2144 2069 
L 1759 2144 
Q 1053 2284 737 2584 
Q 422 2884 422 3419 
Q 422 4038 858 4394 
Q 1294 4750 2059 4750 
Q 2388 4750 2728 4690 
Q 3069 4631 3425 4513 
z
" transform="scale(0.015625)"/>
      <path id="DejaVuSans-45" d="M 628 4666 
L 3578 4666 
L 3578 4134 
L 1259 4134 
L 1259 2753 
L 3481 2753 
L 3481 2222 
L 1259 2222 
L 1259 531 
L 3634 531 
L 3634 0 
L 628 0 
L 628 4666 
z
" transform="scale(0.015625)"/>
      <path id="DejaVuSans-3a" d="M 750 794 
L 1409 794 
L 1409 0 
L 750 0 
L 750 794 
z
M 750 3309 
L 1409 3309 
L 1409 2516 
L 750 2516 
L 750 3309 
z
" transform="scale(0.015625)"/>
      <path id="DejaVuSans-37" d="M 525 4666 
L 3525 4666 
L 3525 4397 
L 1831 0 
L 1172 0 
L 2766 4134 
L 525 4134 
L 525 4666 
z
" transform="scale(0.015625)"/>
     </defs>
     <use xlink:href="#DejaVuSans-34"/>
     <use xlink:href="#DejaVuSans-20" x="63.623047"/>
     <use xlink:href="#DejaVuSans-52" x="95.410156"/>
     <use xlink:href="#DejaVuSans-4d" x="164.892578"/>
     <use xlink:href="#DejaVuSans-53" x="251.171875"/>
     <use xlink:href="#DejaVuSans-45" x="314.648438"/>
     <use xlink:href="#DejaVuSans-3a" x="377.832031"/>
     <use xlink:href="#DejaVuSans-20" x="411.523438"/>
     <use xlink:href="#DejaVuSans-38" x="443.310547"/>
     <use xlink:href="#DejaVuSans-2e" x="506.933594"/>
     <use xlink:href="#DejaVuSans-37" x="538.720703"/>
     <use xlink:href="#DejaVuSans-37" x="602.34375"/>
     <use xlink:href="#DejaVuSans-20" x="665.966797"/>
     <use xlink:href="#DejaVuSans-6d" x="697.753906"/>
    </g>
   </g>
   <g id="text_17">
    <!-- 6 RMSE: 4.2 m -->
    <g style="fill: #008000" transform="translate(602.358908 101.118) scale(0.1728 -0.1728)">
     <use xlink:href="#DejaVuSans-36"/>
     <use xlink:href="#DejaVuSans-20" x="63.623047"/>
     <use xlink:href="#DejaVuSans-52" x="95.410156"/>
     <use xlink:href="#DejaVuSans-4d" x="164.892578"/>
     <use xlink:href="#DejaVuSans-53" x="251.171875"/>
     <use xlink:href="#DejaVuSans-45" x="314.648438"/>
     <use xlink:href="#DejaVuSans-3a" x="377.832031"/>
     <use xlink:href="#DejaVuSans-20" x="411.523438"/>
     <use xlink:href="#DejaVuSans-34" x="443.310547"/>
     <use xlink:href="#DejaVuSans-2e" x="506.933594"/>
     <use xlink:href="#DejaVuSans-32" x="538.720703"/>
     <use xlink:href="#DejaVuSans-20" x="602.34375"/>
     <use xlink:href="#DejaVuSans-6d" x="634.130859"/>
    </g>
   </g>
   <g id="text_18">
    <!-- 7 RMSE: 24.63 m -->
    <g style="fill: #ff0000" transform="translate(602.358908 131.224) scale(0.1728 -0.1728)">
     <use xlink:href="#DejaVuSans-37"/>
     <use xlink:href="#DejaVuSans-20" x="63.623047"/>
     <use xlink:href="#DejaVuSans-52" x="95.410156"/>
     <use xlink:href="#DejaVuSans-4d" x="164.892578"/>
     <use xlink:href="#DejaVuSans-53" x="251.171875"/>
     <use xlink:href="#DejaVuSans-45" x="314.648438"/>
     <use xlink:href="#DejaVuSans-3a" x="377.832031"/>
     <use xlink:href="#DejaVuSans-20" x="411.523438"/>
     <use xlink:href="#DejaVuSans-32" x="443.310547"/>
     <use xlink:href="#DejaVuSans-34" x="506.933594"/>
     <use xlink:href="#DejaVuSans-2e" x="570.556641"/>
     <use xlink:href="#DejaVuSans-36" x="602.34375"/>
     <use xlink:href="#DejaVuSans-33" x="665.966797"/>
     <use xlink:href="#DejaVuSans-20" x="729.589844"/>
     <use xlink:href="#DejaVuSans-6d" x="761.376953"/>
    </g>
   </g>
   <g id="text_19">
    <!-- 7 -->
    <g style="fill: #ff0000" transform="translate(475.250561 40.906) scale(0.1728 -0.1728)">
     <use xlink:href="#DejaVuSans-37"/>
    </g>
   </g>
   <g id="text_20">
    <!-- 8 -->
    <g transform="translate(535.459778 40.906) scale(0.1728 -0.1728)">
     <use xlink:href="#DejaVuSans-38"/>
    </g>
   </g>
   <g id="text_21">
    <!-- 6 -->
    <g style="fill: #008000" transform="translate(502.010213 101.118) scale(0.1728 -0.1728)">
     <use xlink:href="#DejaVuSans-36"/>
    </g>
   </g>
   <g id="text_22">
    <!-- 4 -->
    <g style="fill: #0000ff" transform="translate(502.010213 161.33) scale(0.1728 -0.1728)">
     <use xlink:href="#DejaVuSans-34"/>
    </g>
   </g>
   <g id="legend_1">
    <g id="patch_7">
     <path d="M 146.161 126.0792 
L 424.0531 126.0792 
Q 427.5091 126.0792 427.5091 122.6232 
L 427.5091 22.896 
Q 427.5091 19.44 424.0531 19.44 
L 146.161 19.44 
Q 142.705 19.44 142.705 22.896 
L 142.705 122.6232 
Q 142.705 126.0792 146.161 126.0792 
z
" style="fill: #ffffff; opacity: 0.8; stroke: #cccccc; stroke-linejoin: miter"/>
    </g>
    <g id="line2d_19">
     <path d="M 149.617 33.4341 
L 166.897 33.4341 
L 184.177 33.4341 
" style="fill: none; stroke: #000000; stroke-opacity: 0.6; stroke-width: 7; stroke-linecap: square"/>
    </g>
    <g id="text_23">
     <!-- measurement -->
     <g transform="translate(198.001 39.4821) scale(0.1728 -0.1728)">
      <defs>
       <path id="DejaVuSans-61" d="M 2194 1759 
Q 1497 1759 1228 1600 
Q 959 1441 959 1056 
Q 959 750 1161 570 
Q 1363 391 1709 391 
Q 2188 391 2477 730 
Q 2766 1069 2766 1631 
L 2766 1759 
L 2194 1759 
z
M 3341 1997 
L 3341 0 
L 2766 0 
L 2766 531 
Q 2569 213 2275 61 
Q 1981 -91 1556 -91 
Q 1019 -91 701 211 
Q 384 513 384 1019 
Q 384 1609 779 1909 
Q 1175 2209 1959 2209 
L 2766 2209 
L 2766 2266 
Q 2766 2663 2505 2880 
Q 2244 3097 1772 3097 
Q 1472 3097 1187 3025 
Q 903 2953 641 2809 
L 641 3341 
Q 956 3463 1253 3523 
Q 1550 3584 1831 3584 
Q 2591 3584 2966 3190 
Q 3341 2797 3341 1997 
z
" transform="scale(0.015625)"/>
       <path id="DejaVuSans-73" d="M 2834 3397 
L 2834 2853 
Q 2591 2978 2328 3040 
Q 2066 3103 1784 3103 
Q 1356 3103 1142 2972 
Q 928 2841 928 2578 
Q 928 2378 1081 2264 
Q 1234 2150 1697 2047 
L 1894 2003 
Q 2506 1872 2764 1633 
Q 3022 1394 3022 966 
Q 3022 478 2636 193 
Q 2250 -91 1575 -91 
Q 1294 -91 989 -36 
Q 684 19 347 128 
L 347 722 
Q 666 556 975 473 
Q 1284 391 1588 391 
Q 1994 391 2212 530 
Q 2431 669 2431 922 
Q 2431 1156 2273 1281 
Q 2116 1406 1581 1522 
L 1381 1569 
Q 847 1681 609 1914 
Q 372 2147 372 2553 
Q 372 3047 722 3315 
Q 1072 3584 1716 3584 
Q 2034 3584 2315 3537 
Q 2597 3491 2834 3397 
z
" transform="scale(0.015625)"/>
       <path id="DejaVuSans-75" d="M 544 1381 
L 544 3500 
L 1119 3500 
L 1119 1403 
Q 1119 906 1312 657 
Q 1506 409 1894 409 
Q 2359 409 2629 706 
Q 2900 1003 2900 1516 
L 2900 3500 
L 3475 3500 
L 3475 0 
L 2900 0 
L 2900 538 
Q 2691 219 2414 64 
Q 2138 -91 1772 -91 
Q 1169 -91 856 284 
Q 544 659 544 1381 
z
M 1991 3584 
L 1991 3584 
z
" transform="scale(0.015625)"/>
       <path id="DejaVuSans-72" d="M 2631 2963 
Q 2534 3019 2420 3045 
Q 2306 3072 2169 3072 
Q 1681 3072 1420 2755 
Q 1159 2438 1159 1844 
L 1159 0 
L 581 0 
L 581 3500 
L 1159 3500 
L 1159 2956 
Q 1341 3275 1631 3429 
Q 1922 3584 2338 3584 
Q 2397 3584 2469 3576 
Q 2541 3569 2628 3553 
L 2631 2963 
z
" transform="scale(0.015625)"/>
       <path id="DejaVuSans-6e" d="M 3513 2113 
L 3513 0 
L 2938 0 
L 2938 2094 
Q 2938 2591 2744 2837 
Q 2550 3084 2163 3084 
Q 1697 3084 1428 2787 
Q 1159 2491 1159 1978 
L 1159 0 
L 581 0 
L 581 3500 
L 1159 3500 
L 1159 2956 
Q 1366 3272 1645 3428 
Q 1925 3584 2291 3584 
Q 2894 3584 3203 3211 
Q 3513 2838 3513 2113 
z
" transform="scale(0.015625)"/>
      </defs>
      <use xlink:href="#DejaVuSans-6d"/>
      <use xlink:href="#DejaVuSans-65" x="97.412109"/>
      <use xlink:href="#DejaVuSans-61" x="158.935547"/>
      <use xlink:href="#DejaVuSans-73" x="220.214844"/>
      <use xlink:href="#DejaVuSans-75" x="272.314453"/>
      <use xlink:href="#DejaVuSans-72" x="335.693359"/>
      <use xlink:href="#DejaVuSans-65" x="374.556641"/>
      <use xlink:href="#DejaVuSans-6d" x="436.080078"/>
      <use xlink:href="#DejaVuSans-65" x="533.492188"/>
      <use xlink:href="#DejaVuSans-6e" x="595.015625"/>
      <use xlink:href="#DejaVuSans-74" x="658.394531"/>
     </g>
    </g>
    <g id="line2d_20">
     <path d="M 149.617 58.7979 
L 166.897 58.7979 
L 184.177 58.7979 
" style="fill: none; stroke-dasharray: 25.9,11.2; stroke-dashoffset: 0; stroke: #0000ff; stroke-opacity: 0.6; stroke-width: 7"/>
    </g>
    <g id="text_24">
     <!-- estimate maintained by 4 -->
     <g transform="translate(198.001 64.8459) scale(0.1728 -0.1728)">
      <defs>
       <path id="DejaVuSans-69" d="M 603 3500 
L 1178 3500 
L 1178 0 
L 603 0 
L 603 3500 
z
M 603 4863 
L 1178 4863 
L 1178 4134 
L 603 4134 
L 603 4863 
z
" transform="scale(0.015625)"/>
       <path id="DejaVuSans-62" d="M 3116 1747 
Q 3116 2381 2855 2742 
Q 2594 3103 2138 3103 
Q 1681 3103 1420 2742 
Q 1159 2381 1159 1747 
Q 1159 1113 1420 752 
Q 1681 391 2138 391 
Q 2594 391 2855 752 
Q 3116 1113 3116 1747 
z
M 1159 2969 
Q 1341 3281 1617 3432 
Q 1894 3584 2278 3584 
Q 2916 3584 3314 3078 
Q 3713 2572 3713 1747 
Q 3713 922 3314 415 
Q 2916 -91 2278 -91 
Q 1894 -91 1617 61 
Q 1341 213 1159 525 
L 1159 0 
L 581 0 
L 581 4863 
L 1159 4863 
L 1159 2969 
z
" transform="scale(0.015625)"/>
       <path id="DejaVuSans-79" d="M 2059 -325 
Q 1816 -950 1584 -1140 
Q 1353 -1331 966 -1331 
L 506 -1331 
L 506 -850 
L 844 -850 
Q 1081 -850 1212 -737 
Q 1344 -625 1503 -206 
L 1606 56 
L 191 3500 
L 800 3500 
L 1894 763 
L 2988 3500 
L 3597 3500 
L 2059 -325 
z
" transform="scale(0.015625)"/>
      </defs>
      <use xlink:href="#DejaVuSans-65"/>
      <use xlink:href="#DejaVuSans-73" x="61.523438"/>
      <use xlink:href="#DejaVuSans-74" x="113.623047"/>
      <use xlink:href="#DejaVuSans-69" x="152.832031"/>
      <use xlink:href="#DejaVuSans-6d" x="180.615234"/>
      <use xlink:href="#DejaVuSans-61" x="278.027344"/>
      <use xlink:href="#DejaVuSans-74" x="339.306641"/>
      <use xlink:href="#DejaVuSans-65" x="378.515625"/>
      <use xlink:href="#DejaVuSans-20" x="440.039062"/>
      <use xlink:href="#DejaVuSans-6d" x="471.826172"/>
      <use xlink:href="#DejaVuSans-61" x="569.238281"/>
      <use xlink:href="#DejaVuSans-69" x="630.517578"/>
      <use xlink:href="#DejaVuSans-6e" x="658.300781"/>
      <use xlink:href="#DejaVuSans-74" x="721.679688"/>
      <use xlink:href="#DejaVuSans-61" x="760.888672"/>
      <use xlink:href="#DejaVuSans-69" x="822.167969"/>
      <use xlink:href="#DejaVuSans-6e" x="849.951172"/>
      <use xlink:href="#DejaVuSans-65" x="913.330078"/>
      <use xlink:href="#DejaVuSans-64" x="974.853516"/>
      <use xlink:href="#DejaVuSans-20" x="1038.330078"/>
      <use xlink:href="#DejaVuSans-62" x="1070.117188"/>
      <use xlink:href="#DejaVuSans-79" x="1133.59375"/>
      <use xlink:href="#DejaVuSans-20" x="1192.773438"/>
      <use xlink:href="#DejaVuSans-34" x="1224.560547"/>
     </g>
    </g>
    <g id="line2d_21">
     <path d="M 149.617 84.1617 
L 166.897 84.1617 
L 184.177 84.1617 
" style="fill: none; stroke-dasharray: 7,11.55; stroke-dashoffset: 0; stroke: #008000; stroke-opacity: 0.6; stroke-width: 7"/>
    </g>
    <g id="text_25">
     <!-- estimate maintained by 6 -->
     <g transform="translate(198.001 90.2097) scale(0.1728 -0.1728)">
      <use xlink:href="#DejaVuSans-65"/>
      <use xlink:href="#DejaVuSans-73" x="61.523438"/>
      <use xlink:href="#DejaVuSans-74" x="113.623047"/>
      <use xlink:href="#DejaVuSans-69" x="152.832031"/>
      <use xlink:href="#DejaVuSans-6d" x="180.615234"/>
      <use xlink:href="#DejaVuSans-61" x="278.027344"/>
      <use xlink:href="#DejaVuSans-74" x="339.306641"/>
      <use xlink:href="#DejaVuSans-65" x="378.515625"/>
      <use xlink:href="#DejaVuSans-20" x="440.039062"/>
      <use xlink:href="#DejaVuSans-6d" x="471.826172"/>
      <use xlink:href="#DejaVuSans-61" x="569.238281"/>
      <use xlink:href="#DejaVuSans-69" x="630.517578"/>
      <use xlink:href="#DejaVuSans-6e" x="658.300781"/>
      <use xlink:href="#DejaVuSans-74" x="721.679688"/>
      <use xlink:href="#DejaVuSans-61" x="760.888672"/>
      <use xlink:href="#DejaVuSans-69" x="822.167969"/>
      <use xlink:href="#DejaVuSans-6e" x="849.951172"/>
      <use xlink:href="#DejaVuSans-65" x="913.330078"/>
      <use xlink:href="#DejaVuSans-64" x="974.853516"/>
      <use xlink:href="#DejaVuSans-20" x="1038.330078"/>
      <use xlink:href="#DejaVuSans-62" x="1070.117188"/>
      <use xlink:href="#DejaVuSans-79" x="1133.59375"/>
      <use xlink:href="#DejaVuSans-20" x="1192.773438"/>
      <use xlink:href="#DejaVuSans-36" x="1224.560547"/>
     </g>
    </g>
    <g id="line2d_22">
     <path d="M 149.617 109.5255 
L 166.897 109.5255 
L 184.177 109.5255 
" style="fill: none; stroke-dasharray: 44.8,11.2,7,11.2; stroke-dashoffset: 0; stroke: #ff0000; stroke-opacity: 0.6; stroke-width: 7"/>
    </g>
    <g id="text_26">
     <!-- estimate maintained by 7 -->
     <g transform="translate(198.001 115.5735) scale(0.1728 -0.1728)">
      <use xlink:href="#DejaVuSans-65"/>
      <use xlink:href="#DejaVuSans-73" x="61.523438"/>
      <use xlink:href="#DejaVuSans-74" x="113.623047"/>
      <use xlink:href="#DejaVuSans-69" x="152.832031"/>
      <use xlink:href="#DejaVuSans-6d" x="180.615234"/>
      <use xlink:href="#DejaVuSans-61" x="278.027344"/>
      <use xlink:href="#DejaVuSans-74" x="339.306641"/>
      <use xlink:href="#DejaVuSans-65" x="378.515625"/>
      <use xlink:href="#DejaVuSans-20" x="440.039062"/>
      <use xlink:href="#DejaVuSans-6d" x="471.826172"/>
      <use xlink:href="#DejaVuSans-61" x="569.238281"/>
      <use xlink:href="#DejaVuSans-69" x="630.517578"/>
      <use xlink:href="#DejaVuSans-6e" x="658.300781"/>
      <use xlink:href="#DejaVuSans-74" x="721.679688"/>
      <use xlink:href="#DejaVuSans-61" x="760.888672"/>
      <use xlink:href="#DejaVuSans-69" x="822.167969"/>
      <use xlink:href="#DejaVuSans-6e" x="849.951172"/>
      <use xlink:href="#DejaVuSans-65" x="913.330078"/>
      <use xlink:href="#DejaVuSans-64" x="974.853516"/>
      <use xlink:href="#DejaVuSans-20" x="1038.330078"/>
      <use xlink:href="#DejaVuSans-62" x="1070.117188"/>
      <use xlink:href="#DejaVuSans-79" x="1133.59375"/>
      <use xlink:href="#DejaVuSans-20" x="1192.773438"/>
      <use xlink:href="#DejaVuSans-37" x="1224.560547"/>
     </g>
    </g>
   </g>
  </g>
  <g id="line2d_23">
   <path d="M 488.630387 46.9272 
L 502.010213 89.0756 
" style="fill: none; stroke: #000000; stroke-opacity: 0.5; stroke-width: 2; stroke-linecap: square"/>
  </g>
  <g id="line2d_24">
   <path d="M 535.459778 40.906 
L 515.390039 89.0756 
" style="fill: none; stroke: #000000; stroke-opacity: 0.5; stroke-width: 2; stroke-linecap: square"/>
  </g>
  <g id="line2d_25">
   <path d="M 508.700126 107.1392 
L 508.700126 137.2452 
" style="fill: none; stroke: #000000; stroke-opacity: 0.5; stroke-width: 2; stroke-linecap: square"/>
  </g>
 </g>
 <defs>
  <clipPath id="p0f194b4bd6">
   <rect x="134.065" y="10.8" width="668.991297" height="602.12"/>
  </clipPath>
 </defs>
</svg>
