<?xml version="1.0" encoding="utf-8" standalone="no"?>
<!DOCTYPE svg PUBLIC "-//W3C//DTD SVG 1.1//EN"
  "http://www.w3.org/Graphics/SVG/1.1/DTD/svg11.dtd">
<svg xmlns:xlink="http://www.w3.org/1999/xlink" width="864pt" height="648pt" viewBox="0 0 864 648" xmlns="http://www.w3.org/2000/svg" version="1.1">
 <metadata>
  <rdf:RDF xmlns:dc="http://purl.org/dc/elements/1.1/" xmlns:cc="http://creativecommons.org/ns#" xmlns:rdf="http://www.w3.org/1999/02/22-rdf-syntax-ns#">
   <cc:Work>
    <dc:type rdf:resource="http://purl.org/dc/dcmitype/StillImage"/>
    <dc:date>2024-10-29T14:45:05.032302</dc:date>
    <dc:format>image/svg+xml</dc:format>
    <dc:creator>
     <cc:Agent>
      <dc:title>Matplotlib v3.9.2, https://matplotlib.org/</dc:title>
     </cc:Agent>
    </dc:creator>
   </cc:Work>
  </rdf:RDF>
 </metadata>
 <defs>
  <style type="text/css">*{stroke-linejoin: round; stroke-linecap: butt}</style>
 </defs>
 <g id="figure_1">
  <g id="patch_1">
   <path d="M 0 648 
L 864 648 
L 864 0 
L 0 0 
z
" style="fill: #ffffff"/>
  </g>
  <g id="axes_1">
   <g id="patch_2">
    <path d="M 134.155 612.92 
L 847.629633 612.92 
L 847.629633 17.64 
L 134.155 17.64 
z
" style="fill: #ffffff"/>
   </g>
   <g id="matplotlib.axis_1">
    <g id="xtick_1">
     <g id="line2d_1">
      <defs>
       <path id="m78fa05d311" d="M 0 0 
L 0 3.5 
" style="stroke: #000000; stroke-width: 0.8"/>
      </defs>
      <g>
       <use xlink:href="#m78fa05d311" x="229.262935" y="612.92" style="stroke: #000000; stroke-width: 0.8"/>
      </g>
     </g>
     <g id="text_1">
      <!-- 2021-04-19 -->
      <g transform="translate(179.051035 633.0501) scale(0.1728 -0.1728)">
       <defs>
        <path id="DejaVuSans-32" d="M 1228 531 
L 3431 531 
L 3431 0 
L 469 0 
L 469 531 
Q 828 903 1448 1529 
Q 2069 2156 2228 2338 
Q 2531 2678 2651 2914 
Q 2772 3150 2772 3378 
Q 2772 3750 2511 3984 
Q 2250 4219 1831 4219 
Q 1534 4219 1204 4116 
Q 875 4013 500 3803 
L 500 4441 
Q 881 4594 1212 4672 
Q 1544 4750 1819 4750 
Q 2544 4750 2975 4387 
Q 3406 4025 3406 3419 
Q 3406 3131 3298 2873 
Q 3191 2616 2906 2266 
Q 2828 2175 2409 1742 
Q 1991 1309 1228 531 
z
" transform="scale(0.015625)"/>
        <path id="DejaVuSans-30" d="M 2034 4250 
Q 1547 4250 1301 3770 
Q 1056 3291 1056 2328 
Q 1056 1369 1301 889 
Q 1547 409 2034 409 
Q 2525 409 2770 889 
Q 3016 1369 3016 2328 
Q 3016 3291 2770 3770 
Q 2525 4250 2034 4250 
z
M 2034 4750 
Q 2819 4750 3233 4129 
Q 3647 3509 3647 2328 
Q 3647 1150 3233 529 
Q 2819 -91 2034 -91 
Q 1250 -91 836 529 
Q 422 1150 422 2328 
Q 422 3509 836 4129 
Q 1250 4750 2034 4750 
z
" transform="scale(0.015625)"/>
        <path id="DejaVuSans-31" d="M 794 531 
L 1825 531 
L 1825 4091 
L 703 3866 
L 703 4441 
L 1819 4666 
L 2450 4666 
L 2450 531 
L 3481 531 
L 3481 0 
L 794 0 
L 794 531 
z
" transform="scale(0.015625)"/>
        <path id="DejaVuSans-2d" d="M 313 2009 
L 1997 2009 
L 1997 1497 
L 313 1497 
L 313 2009 
z
" transform="scale(0.015625)"/>
        <path id="DejaVuSans-34" d="M 2419 4116 
L 825 1625 
L 2419 1625 
L 2419 4116 
z
M 2253 4666 
L 3047 4666 
L 3047 1625 
L 3713 1625 
L 3713 1100 
L 3047 1100 
L 3047 0 
L 2419 0 
L 2419 1100 
L 313 1100 
L 313 1709 
L 2253 4666 
z
" transform="scale(0.015625)"/>
        <path id="DejaVuSans-39" d="M 703 97 
L 703 672 
Q 941 559 1184 500 
Q 1428 441 1663 441 
Q 2288 441 2617 861 
Q 2947 1281 2994 2138 
Q 2813 1869 2534 1725 
Q 2256 1581 1919 1581 
Q 1219 1581 811 2004 
Q 403 2428 403 3163 
Q 403 3881 828 4315 
Q 1253 4750 1959 4750 
Q 2769 4750 3195 4129 
Q 3622 3509 3622 2328 
Q 3622 1225 3098 567 
Q 2575 -91 1691 -91 
Q 1453 -91 1209 -44 
Q 966 3 703 97 
z
M 1959 2075 
Q 2384 2075 2632 2365 
Q 2881 2656 2881 3163 
Q 2881 3666 2632 3958 
Q 2384 4250 1959 4250 
Q 1534 4250 1286 3958 
Q 1038 3666 1038 3163 
Q 1038 2656 1286 2365 
Q 1534 2075 1959 2075 
z
" transform="scale(0.015625)"/>
       </defs>
       <use xlink:href="#DejaVuSans-32"/>
       <use xlink:href="#DejaVuSans-30" x="63.623047"/>
       <use xlink:href="#DejaVuSans-32" x="127.246094"/>
       <use xlink:href="#DejaVuSans-31" x="190.869141"/>
       <use xlink:href="#DejaVuSans-2d" x="254.492188"/>
       <use xlink:href="#DejaVuSans-30" x="290.576172"/>
       <use xlink:href="#DejaVuSans-34" x="354.199219"/>
       <use xlink:href="#DejaVuSans-2d" x="417.822266"/>
       <use xlink:href="#DejaVuSans-31" x="453.90625"/>
       <use xlink:href="#DejaVuSans-39" x="517.529297"/>
      </g>
     </g>
    </g>
    <g id="xtick_2">
     <g id="line2d_2">
      <g>
       <use xlink:href="#m78fa05d311" x="419.478806" y="612.92" style="stroke: #000000; stroke-width: 0.8"/>
      </g>
     </g>
     <g id="text_2">
      <!-- 2021-04-27 -->
      <g transform="translate(369.266906 633.0501) scale(0.1728 -0.1728)">
       <defs>
        <path id="DejaVuSans-37" d="M 525 4666 
L 3525 4666 
L 3525 4397 
L 1831 0 
L 1172 0 
L 2766 4134 
L 525 4134 
L 525 4666 
z
" transform="scale(0.015625)"/>
       </defs>
       <use xlink:href="#DejaVuSans-32"/>
       <use xlink:href="#DejaVuSans-30" x="63.623047"/>
       <use xlink:href="#DejaVuSans-32" x="127.246094"/>
       <use xlink:href="#DejaVuSans-31" x="190.869141"/>
       <use xlink:href="#DejaVuSans-2d" x="254.492188"/>
       <use xlink:href="#DejaVuSans-30" x="290.576172"/>
       <use xlink:href="#DejaVuSans-34" x="354.199219"/>
       <use xlink:href="#DejaVuSans-2d" x="417.822266"/>
       <use xlink:href="#DejaVuSans-32" x="453.90625"/>
       <use xlink:href="#DejaVuSans-37" x="517.529297"/>
      </g>
     </g>
    </g>
    <g id="xtick_3">
     <g id="line2d_3">
      <g>
       <use xlink:href="#m78fa05d311" x="609.694677" y="612.92" style="stroke: #000000; stroke-width: 0.8"/>
      </g>
     </g>
     <g id="text_3">
      <!-- 2021-05-05 -->
      <g transform="translate(559.482777 633.0501) scale(0.1728 -0.1728)">
       <defs>
        <path id="DejaVuSans-35" d="M 691 4666 
L 3169 4666 
L 3169 4134 
L 1269 4134 
L 1269 2991 
Q 1406 3038 1543 3061 
Q 1681 3084 1819 3084 
Q 2600 3084 3056 2656 
Q 3513 2228 3513 1497 
Q 3513 744 3044 326 
Q 2575 -91 1722 -91 
Q 1428 -91 1123 -41 
Q 819 9 494 109 
L 494 744 
Q 775 591 1075 516 
Q 1375 441 1709 441 
Q 2250 441 2565 725 
Q 2881 1009 2881 1497 
Q 2881 1984 2565 2268 
Q 2250 2553 1709 2553 
Q 1456 2553 1204 2497 
Q 953 2441 691 2322 
L 691 4666 
z
" transform="scale(0.015625)"/>
       </defs>
       <use xlink:href="#DejaVuSans-32"/>
       <use xlink:href="#DejaVuSans-30" x="63.623047"/>
       <use xlink:href="#DejaVuSans-32" x="127.246094"/>
       <use xlink:href="#DejaVuSans-31" x="190.869141"/>
       <use xlink:href="#DejaVuSans-2d" x="254.492188"/>
       <use xlink:href="#DejaVuSans-30" x="290.576172"/>
       <use xlink:href="#DejaVuSans-35" x="354.199219"/>
       <use xlink:href="#DejaVuSans-2d" x="417.822266"/>
       <use xlink:href="#DejaVuSans-30" x="453.90625"/>
       <use xlink:href="#DejaVuSans-35" x="517.529297"/>
      </g>
     </g>
    </g>
    <g id="xtick_4">
     <g id="line2d_4">
      <g>
       <use xlink:href="#m78fa05d311" x="799.910548" y="612.92" style="stroke: #000000; stroke-width: 0.8"/>
      </g>
     </g>
     <g id="text_4">
      <!-- 2021-05-13 -->
      <g transform="translate(749.698648 633.0501) scale(0.1728 -0.1728)">
       <defs>
        <path id="DejaVuSans-33" d="M 2597 2516 
Q 3050 2419 3304 2112 
Q 3559 1806 3559 1356 
Q 3559 666 3084 287 
Q 2609 -91 1734 -91 
Q 1441 -91 1130 -33 
Q 819 25 488 141 
L 488 750 
Q 750 597 1062 519 
Q 1375 441 1716 441 
Q 2309 441 2620 675 
Q 2931 909 2931 1356 
Q 2931 1769 2642 2001 
Q 2353 2234 1838 2234 
L 1294 2234 
L 1294 2753 
L 1863 2753 
Q 2328 2753 2575 2939 
Q 2822 3125 2822 3475 
Q 2822 3834 2567 4026 
Q 2313 4219 1838 4219 
Q 1578 4219 1281 4162 
Q 984 4106 628 3988 
L 628 4550 
Q 988 4650 1302 4700 
Q 1616 4750 1894 4750 
Q 2613 4750 3031 4423 
Q 3450 4097 3450 3541 
Q 3450 3153 3228 2886 
Q 3006 2619 2597 2516 
z
" transform="scale(0.015625)"/>
       </defs>
       <use xlink:href="#DejaVuSans-32"/>
       <use xlink:href="#DejaVuSans-30" x="63.623047"/>
       <use xlink:href="#DejaVuSans-32" x="127.246094"/>
       <use xlink:href="#DejaVuSans-31" x="190.869141"/>
       <use xlink:href="#DejaVuSans-2d" x="254.492188"/>
       <use xlink:href="#DejaVuSans-30" x="290.576172"/>
       <use xlink:href="#DejaVuSans-35" x="354.199219"/>
       <use xlink:href="#DejaVuSans-2d" x="417.822266"/>
       <use xlink:href="#DejaVuSans-31" x="453.90625"/>
       <use xlink:href="#DejaVuSans-33" x="517.529297"/>
      </g>
     </g>
    </g>
   </g>
   <g id="matplotlib.axis_2">
    <g id="ytick_1">
     <g id="line2d_5">
      <defs>
       <path id="m7a751ef4a5" d="M 0 0 
L -3.5 0 
" style="stroke: #000000; stroke-width: 0.8"/>
      </defs>
      <g>
       <use xlink:href="#m7a751ef4a5" x="134.155" y="612.92" style="stroke: #000000; stroke-width: 0.8"/>
      </g>
     </g>
     <g id="text_5">
      <!-- −1.0 -->
      <g transform="translate(85.1943 619.48505) scale(0.1728 -0.1728)">
       <defs>
        <path id="DejaVuSans-2212" d="M 678 2272 
L 4684 2272 
L 4684 1741 
L 678 1741 
L 678 2272 
z
" transform="scale(0.015625)"/>
        <path id="DejaVuSans-2e" d="M 684 794 
L 1344 794 
L 1344 0 
L 684 0 
L 684 794 
z
" transform="scale(0.015625)"/>
       </defs>
       <use xlink:href="#DejaVuSans-2212"/>
       <use xlink:href="#DejaVuSans-31" x="83.789062"/>
       <use xlink:href="#DejaVuSans-2e" x="147.412109"/>
       <use xlink:href="#DejaVuSans-30" x="179.199219"/>
      </g>
     </g>
    </g>
    <g id="ytick_2">
     <g id="line2d_6">
      <g>
       <use xlink:href="#m7a751ef4a5" x="134.155" y="493.864" style="stroke: #000000; stroke-width: 0.8"/>
      </g>
     </g>
     <g id="text_6">
      <!-- −0.5 -->
      <g transform="translate(85.1943 500.42905) scale(0.1728 -0.1728)">
       <use xlink:href="#DejaVuSans-2212"/>
       <use xlink:href="#DejaVuSans-30" x="83.789062"/>
       <use xlink:href="#DejaVuSans-2e" x="147.412109"/>
       <use xlink:href="#DejaVuSans-35" x="179.199219"/>
      </g>
     </g>
    </g>
    <g id="ytick_3">
     <g id="line2d_7">
      <g>
       <use xlink:href="#m7a751ef4a5" x="134.155" y="374.808" style="stroke: #000000; stroke-width: 0.8"/>
      </g>
     </g>
     <g id="text_7">
      <!-- 0.0 -->
      <g transform="translate(99.6744 381.37305) scale(0.1728 -0.1728)">
       <use xlink:href="#DejaVuSans-30"/>
       <use xlink:href="#DejaVuSans-2e" x="63.623047"/>
       <use xlink:href="#DejaVuSans-30" x="95.410156"/>
      </g>
     </g>
    </g>
    <g id="ytick_4">
     <g id="line2d_8">
      <g>
       <use xlink:href="#m7a751ef4a5" x="134.155" y="255.752" style="stroke: #000000; stroke-width: 0.8"/>
      </g>
     </g>
     <g id="text_8">
      <!-- 0.5 -->
      <g transform="translate(99.6744 262.31705) scale(0.1728 -0.1728)">
       <use xlink:href="#DejaVuSans-30"/>
       <use xlink:href="#DejaVuSans-2e" x="63.623047"/>
       <use xlink:href="#DejaVuSans-35" x="95.410156"/>
      </g>
     </g>
    </g>
    <g id="ytick_5">
     <g id="line2d_9">
      <g>
       <use xlink:href="#m7a751ef4a5" x="134.155" y="136.696" style="stroke: #000000; stroke-width: 0.8"/>
      </g>
     </g>
     <g id="text_9">
      <!-- 1.0 -->
      <g transform="translate(99.6744 143.26105) scale(0.1728 -0.1728)">
       <use xlink:href="#DejaVuSans-31"/>
       <use xlink:href="#DejaVuSans-2e" x="63.623047"/>
       <use xlink:href="#DejaVuSans-30" x="95.410156"/>
      </g>
     </g>
    </g>
    <g id="ytick_6">
     <g id="line2d_10">
      <g>
       <use xlink:href="#m7a751ef4a5" x="134.155" y="17.64" style="stroke: #000000; stroke-width: 0.8"/>
      </g>
     </g>
     <g id="text_10">
      <!-- 1.5 -->
      <g transform="translate(99.6744 24.20505) scale(0.1728 -0.1728)">
       <use xlink:href="#DejaVuSans-31"/>
       <use xlink:href="#DejaVuSans-2e" x="63.623047"/>
       <use xlink:href="#DejaVuSans-35" x="95.410156"/>
      </g>
     </g>
    </g>
    <g id="text_11">
     <!-- Node 8 -->
     <g transform="translate(24.39945 292.33648) scale(0.1728 -0.1728)">
      <defs>
       <path id="DejaVuSans-4e" d="M 628 4666 
L 1478 4666 
L 3547 763 
L 3547 4666 
L 4159 4666 
L 4159 0 
L 3309 0 
L 1241 3903 
L 1241 0 
L 628 0 
L 628 4666 
z
" transform="scale(0.015625)"/>
       <path id="DejaVuSans-6f" d="M 1959 3097 
Q 1497 3097 1228 2736 
Q 959 2375 959 1747 
Q 959 1119 1226 758 
Q 1494 397 1959 397 
Q 2419 397 2687 759 
Q 2956 1122 2956 1747 
Q 2956 2369 2687 2733 
Q 2419 3097 1959 3097 
z
M 1959 3584 
Q 2709 3584 3137 3096 
Q 3566 2609 3566 1747 
Q 3566 888 3137 398 
Q 2709 -91 1959 -91 
Q 1206 -91 779 398 
Q 353 888 353 1747 
Q 353 2609 779 3096 
Q 1206 3584 1959 3584 
z
" transform="scale(0.015625)"/>
       <path id="DejaVuSans-64" d="M 2906 2969 
L 2906 4863 
L 3481 4863 
L 3481 0 
L 2906 0 
L 2906 525 
Q 2725 213 2448 61 
Q 2172 -91 1784 -91 
Q 1150 -91 751 415 
Q 353 922 353 1747 
Q 353 2572 751 3078 
Q 1150 3584 1784 3584 
Q 2172 3584 2448 3432 
Q 2725 3281 2906 2969 
z
M 947 1747 
Q 947 1113 1208 752 
Q 1469 391 1925 391 
Q 2381 391 2643 752 
Q 2906 1113 2906 1747 
Q 2906 2381 2643 2742 
Q 2381 3103 1925 3103 
Q 1469 3103 1208 2742 
Q 947 2381 947 1747 
z
" transform="scale(0.015625)"/>
       <path id="DejaVuSans-65" d="M 3597 1894 
L 3597 1613 
L 953 1613 
Q 991 1019 1311 708 
Q 1631 397 2203 397 
Q 2534 397 2845 478 
Q 3156 559 3463 722 
L 3463 178 
Q 3153 47 2828 -22 
Q 2503 -91 2169 -91 
Q 1331 -91 842 396 
Q 353 884 353 1716 
Q 353 2575 817 3079 
Q 1281 3584 2069 3584 
Q 2775 3584 3186 3129 
Q 3597 2675 3597 1894 
z
M 3022 2063 
Q 3016 2534 2758 2815 
Q 2500 3097 2075 3097 
Q 1594 3097 1305 2825 
Q 1016 2553 972 2059 
L 3022 2063 
z
" transform="scale(0.015625)"/>
       <path id="DejaVuSans-20" transform="scale(0.015625)"/>
       <path id="DejaVuSans-38" d="M 2034 2216 
Q 1584 2216 1326 1975 
Q 1069 1734 1069 1313 
Q 1069 891 1326 650 
Q 1584 409 2034 409 
Q 2484 409 2743 651 
Q 3003 894 3003 1313 
Q 3003 1734 2745 1975 
Q 2488 2216 2034 2216 
z
M 1403 2484 
Q 997 2584 770 2862 
Q 544 3141 544 3541 
Q 544 4100 942 4425 
Q 1341 4750 2034 4750 
Q 2731 4750 3128 4425 
Q 3525 4100 3525 3541 
Q 3525 3141 3298 2862 
Q 3072 2584 2669 2484 
Q 3125 2378 3379 2068 
Q 3634 1759 3634 1313 
Q 3634 634 3220 271 
Q 2806 -91 2034 -91 
Q 1263 -91 848 271 
Q 434 634 434 1313 
Q 434 1759 690 2068 
Q 947 2378 1403 2484 
z
M 1172 3481 
Q 1172 3119 1398 2916 
Q 1625 2713 2034 2713 
Q 2441 2713 2670 2916 
Q 2900 3119 2900 3481 
Q 2900 3844 2670 4047 
Q 2441 4250 2034 4250 
Q 1625 4250 1398 4047 
Q 1172 3844 1172 3481 
z
" transform="scale(0.015625)"/>
      </defs>
      <use xlink:href="#DejaVuSans-4e"/>
      <use xlink:href="#DejaVuSans-6f" x="74.804688"/>
      <use xlink:href="#DejaVuSans-64" x="135.986328"/>
      <use xlink:href="#DejaVuSans-65" x="199.462891"/>
      <use xlink:href="#DejaVuSans-20" x="260.986328"/>
      <use xlink:href="#DejaVuSans-38" x="292.773438"/>
     </g>
     <!-- Depth (m) -->
     <g transform="translate(10.9737 311.6863) scale(0.1728 -0.1728)">
      <defs>
       <path id="DejaVuSans-44" d="M 1259 4147 
L 1259 519 
L 2022 519 
Q 2988 519 3436 956 
Q 3884 1394 3884 2338 
Q 3884 3275 3436 3711 
Q 2988 4147 2022 4147 
L 1259 4147 
z
M 628 4666 
L 1925 4666 
Q 3281 4666 3915 4102 
Q 4550 3538 4550 2338 
Q 4550 1131 3912 565 
Q 3275 0 1925 0 
L 628 0 
L 628 4666 
z
" transform="scale(0.015625)"/>
       <path id="DejaVuSans-70" d="M 1159 525 
L 1159 -1331 
L 581 -1331 
L 581 3500 
L 1159 3500 
L 1159 2969 
Q 1341 3281 1617 3432 
Q 1894 3584 2278 3584 
Q 2916 3584 3314 3078 
Q 3713 2572 3713 1747 
Q 3713 922 3314 415 
Q 2916 -91 2278 -91 
Q 1894 -91 1617 61 
Q 1341 213 1159 525 
z
M 3116 1747 
Q 3116 2381 2855 2742 
Q 2594 3103 2138 3103 
Q 1681 3103 1420 2742 
Q 1159 2381 1159 1747 
Q 1159 1113 1420 752 
Q 1681 391 2138 391 
Q 2594 391 2855 752 
Q 3116 1113 3116 1747 
z
" transform="scale(0.015625)"/>
       <path id="DejaVuSans-74" d="M 1172 4494 
L 1172 3500 
L 2356 3500 
L 2356 3053 
L 1172 3053 
L 1172 1153 
Q 1172 725 1289 603 
Q 1406 481 1766 481 
L 2356 481 
L 2356 0 
L 1766 0 
Q 1100 0 847 248 
Q 594 497 594 1153 
L 594 3053 
L 172 3053 
L 172 3500 
L 594 3500 
L 594 4494 
L 1172 4494 
z
" transform="scale(0.015625)"/>
       <path id="DejaVuSans-68" d="M 3513 2113 
L 3513 0 
L 2938 0 
L 2938 2094 
Q 2938 2591 2744 2837 
Q 2550 3084 2163 3084 
Q 1697 3084 1428 2787 
Q 1159 2491 1159 1978 
L 1159 0 
L 581 0 
L 581 4863 
L 1159 4863 
L 1159 2956 
Q 1366 3272 1645 3428 
Q 1925 3584 2291 3584 
Q 2894 3584 3203 3211 
Q 3513 2838 3513 2113 
z
" transform="scale(0.015625)"/>
       <path id="DejaVuSans-28" d="M 1984 4856 
Q 1566 4138 1362 3434 
Q 1159 2731 1159 2009 
Q 1159 1288 1364 580 
Q 1569 -128 1984 -844 
L 1484 -844 
Q 1016 -109 783 600 
Q 550 1309 550 2009 
Q 550 2706 781 3412 
Q 1013 4119 1484 4856 
L 1984 4856 
z
" transform="scale(0.015625)"/>
       <path id="DejaVuSans-6d" d="M 3328 2828 
Q 3544 3216 3844 3400 
Q 4144 3584 4550 3584 
Q 5097 3584 5394 3201 
Q 5691 2819 5691 2113 
L 5691 0 
L 5113 0 
L 5113 2094 
Q 5113 2597 4934 2840 
Q 4756 3084 4391 3084 
Q 3944 3084 3684 2787 
Q 3425 2491 3425 1978 
L 3425 0 
L 2847 0 
L 2847 2094 
Q 2847 2600 2669 2842 
Q 2491 3084 2119 3084 
Q 1678 3084 1418 2786 
Q 1159 2488 1159 1978 
L 1159 0 
L 581 0 
L 581 3500 
L 1159 3500 
L 1159 2956 
Q 1356 3278 1631 3431 
Q 1906 3584 2284 3584 
Q 2666 3584 2933 3390 
Q 3200 3197 3328 2828 
z
" transform="scale(0.015625)"/>
       <path id="DejaVuSans-29" d="M 513 4856 
L 1013 4856 
Q 1481 4119 1714 3412 
Q 1947 2706 1947 2009 
Q 1947 1309 1714 600 
Q 1481 -109 1013 -844 
L 513 -844 
Q 928 -128 1133 580 
Q 1338 1288 1338 2009 
Q 1338 2731 1133 3434 
Q 928 4138 513 4856 
z
" transform="scale(0.015625)"/>
      </defs>
      <use xlink:href="#DejaVuSans-44"/>
      <use xlink:href="#DejaVuSans-65" x="77.001953"/>
      <use xlink:href="#DejaVuSans-70" x="138.525391"/>
      <use xlink:href="#DejaVuSans-74" x="202.001953"/>
      <use xlink:href="#DejaVuSans-68" x="241.210938"/>
      <use xlink:href="#DejaVuSans-20" x="304.589844"/>
      <use xlink:href="#DejaVuSans-28" x="336.376953"/>
      <use xlink:href="#DejaVuSans-6d" x="375.390625"/>
      <use xlink:href="#DejaVuSans-29" x="472.802734"/>
     </g>
    </g>
   </g>
   <g id="line2d_11">
    <path d="M 134.072441 253.994673 
L 134.567795 254.207655 
M 134.732913 254.238785 
L 137.622477 255.196114 
L 140.5946 256.043648 
M 140.759718 256.065259 
L 141.007395 256.14743 
M 141.172513 256.168827 
L 142.245779 256.343157 
L 142.410897 254.678792 
L 142.658574 252.212043 
L 142.906251 251.361476 
L 143.153928 250.81972 
M 143.319046 250.074123 
L 143.649282 246.304686 
L 143.896959 245.542778 
L 144.144636 245.278975 
M 144.309754 245.269877 
L 144.639989 245.347221 
L 144.722548 245.427447 
M 144.887666 245.476804 
L 145.300461 245.817611 
M 145.465579 245.786146 
L 145.630697 244.298656 
L 145.878374 242.10608 
L 146.291169 240.506941 
L 146.869082 231.740404 
L 147.116759 227.43335 
L 147.364435 226.755361 
L 147.446994 226.562223 
L 147.942348 223.112557 
L 148.107466 223.073822 
L 148.355143 223.321337 
L 148.685379 223.891194 
L 148.767938 224.227198 
M 148.933056 224.408345 
L 150.749353 228.679444 
L 150.831912 229.067508 
M 150.99703 229.268798 
L 152.64821 233.268303 
M 152.813328 233.45951 
L 153.556358 235.267044 
M 153.721476 235.451992 
L 155.620333 239.376218 
L 156.445922 241.11487 
M 156.61104 241.276546 
L 158.26222 244.25601 
L 159.252927 246.040276 
M 159.418045 246.178671 
L 160.986666 248.605451 
L 161.399461 249.321834 
M 161.564579 249.445667 
L 162.885522 251.360306 
M 163.05064 251.47319 
L 163.628553 252.31092 
M 163.793671 252.417582 
L 165.279732 254.268187 
M 165.44485 254.364908 
L 167.09603 256.188036 
M 167.426266 256.434788 
L 168.994886 257.883812 
L 169.242563 258.168065 
M 169.407681 258.242049 
L 172.544922 260.624159 
L 174.113542 261.671084 
M 174.27866 261.722084 
L 176.094958 262.727138 
L 176.67287 263.059489 
M 176.837988 263.101491 
L 178.819404 263.998047 
L 181.048496 264.858144 
L 184.928768 266.044808 
L 185.589239 266.234385 
M 185.754357 266.255764 
L 187.98345 266.781584 
M 188.148567 266.799546 
L 189.882306 267.153196 
M 190.047424 267.169074 
L 191.616044 267.452126 
M 191.781162 267.466274 
L 193.927695 267.800162 
M 194.257931 267.835107 
L 194.835844 268.021672 
L 195.000962 268.162006 
M 195.16608 268.210894 
L 196.074229 268.746547 
M 196.239347 268.791493 
L 198.055644 269.705792 
M 198.220762 269.744799 
L 201.60568 271.058819 
L 203.256859 271.6019 
M 203.421977 271.627238 
L 207.302249 272.585373 
L 207.467367 272.636135 
M 207.632485 272.654081 
L 208.458075 272.831477 
M 208.623192 272.847855 
L 213.246495 273.58647 
M 213.411613 273.597782 
L 216.548854 273.970216 
M 216.713972 273.979183 
L 216.961649 274.012308 
M 217.126767 274.021043 
L 218.860505 274.191788 
M 219.025623 274.199598 
L 219.520977 274.249321 
M 219.686095 274.256726 
L 220.594243 274.338008 
M 220.759361 274.345029 
L 224.391956 274.611795 
M 224.557074 274.617469 
L 227.859433 274.819742 
M 228.024551 274.824621 
L 228.10711 274.833402 
M 228.272228 274.838177 
L 230.996674 274.982916 
M 231.161792 274.987186 
L 232.482735 275.053714 
M 232.647853 275.057775 
L 232.978089 275.076522 
M 233.143207 275.080503 
L 233.72112 275.110043 
M 233.886238 275.113975 
L 235.28974 275.178267 
M 235.454858 275.182017 
L 236.11533 275.212909 
M 236.280448 275.216538 
L 238.674658 275.315381 
M 238.839776 275.318813 
L 244.453786 275.524395 
M 244.618904 275.527422 
L 247.34335 275.619445 
M 247.508468 275.622303 
L 248.499176 275.655953 
M 248.664294 275.658704 
L 250.067796 275.704174 
M 250.232914 275.706858 
L 255.516688 275.86079 
M 255.681806 275.86323 
L 256.424837 275.885322 
M 256.589955 275.887719 
L 257.663222 275.91868 
M 257.82834 275.921211 
L 258.406252 275.940875 
M 258.57137 275.94367 
L 260.635345 276.021324 
M 260.800463 276.024984 
L 262.534201 276.10776 
M 262.699319 276.112258 
L 263.524909 276.256706 
L 265.093529 276.666968 
L 265.258647 274.558587 
L 265.341206 272.053996 
M 265.506324 271.33123 
L 265.919119 268.862718 
L 266.249355 263.926514 
L 266.414473 261.975332 
L 266.744709 257.221106 
L 266.909826 255.440526 
L 266.992385 252.129337 
M 267.157503 250.074004 
L 267.40518 245.737278 
L 267.652857 243.669065 
L 267.983093 240.10101 
L 268.23077 239.759423 
L 268.313329 239.606109 
L 268.478447 237.968528 
L 268.561006 235.245747 
M 268.726124 233.590803 
L 268.973801 231.319719 
L 269.138919 231.062088 
L 269.221478 231.067063 
L 269.304037 230.441403 
M 269.469155 229.443798 
L 269.964508 223.562023 
L 270.129626 223.39074 
L 270.294744 223.52796 
L 270.707539 224.372808 
L 271.945924 227.9881 
L 272.028483 228.470847 
M 272.193601 228.736994 
L 272.441278 229.733621 
M 272.606395 229.99951 
L 276.569226 241.664447 
M 276.734344 241.890373 
L 278.468082 246.342512 
L 279.706467 249.502798 
M 279.871585 249.702116 
L 281.10997 252.639608 
M 281.275088 252.825228 
L 281.853 254.207605 
M 282.018118 254.383918 
L 282.761149 256.038058 
M 282.926267 256.206224 
L 284.329769 258.839396 
L 285.815831 261.386954 
L 285.89839 255.916928 
L 286.311185 181.53781 
L 286.558862 171.526793 
L 286.72398 170.073726 
L 286.889098 169.947654 
L 287.136775 170.456907 
L 287.632128 172.222978 
L 287.879805 173.537775 
M 288.044923 173.897287 
L 289.778662 181.282088 
L 290.521692 184.781192 
M 290.68681 185.147799 
L 291.099605 187.211513 
M 291.264723 187.578615 
L 292.833344 194.04545 
L 292.915903 194.68804 
M 293.08102 195.038055 
L 293.328697 196.348829 
M 293.493815 196.696565 
L 293.741492 197.952323 
M 293.90661 197.957264 
L 294.154287 196.961331 
M 294.319405 197.033419 
L 294.567082 197.542821 
L 295.144995 199.38537 
L 295.970584 202.389802 
L 296.053143 202.97878 
M 296.218261 203.306139 
L 297.291528 207.291053 
L 297.374087 207.877826 
M 297.539205 208.200856 
L 301.006682 220.865263 
M 301.1718 221.167782 
L 301.254359 221.712943 
M 301.419477 222.010032 
L 305.299748 234.401166 
L 306.290456 237.530912 
M 306.455574 237.783555 
L 307.281164 240.312813 
M 307.446282 240.556039 
L 310.088169 247.587387 
M 310.253287 247.799402 
L 313.22541 254.485314 
L 313.720763 255.661614 
M 313.885881 255.839646 
L 316.692886 261.032763 
L 318.096389 263.41171 
M 318.261507 263.544185 
L 320.40804 266.662711 
M 320.573158 266.775051 
L 323.132486 269.766559 
L 323.462722 270.190084 
M 323.62784 270.280037 
L 323.710399 270.44183 
M 323.875517 270.529338 
L 326.434845 272.849941 
L 326.599963 273.0438 
M 326.765081 273.113521 
L 329.406968 275.009495 
L 332.213973 276.622627 
L 332.544209 276.828218 
M 332.709327 276.871355 
L 335.764009 278.204764 
L 339.148927 279.353405 
L 343.029198 280.359891 
L 343.68967 280.52276 
M 343.854788 280.541711 
L 344.350142 280.661777 
M 344.51526 280.679889 
L 344.680378 280.729067 
M 344.845496 280.746936 
L 346.001321 280.984612 
M 346.166439 281.001146 
L 347.404824 281.234496 
M 347.569942 281.249681 
L 349.881593 281.629552 
M 350.046711 281.642688 
L 350.95486 281.785198 
M 351.119978 281.79775 
L 353.183952 282.083476 
M 353.34907 282.094823 
L 353.596747 282.135405 
M 353.761865 282.146407 
L 355.495603 282.362692 
M 355.660721 282.372964 
L 355.908398 282.409765 
M 356.073516 282.419778 
L 357.064224 282.537537 
M 357.229341 282.547214 
L 359.953788 282.727559 
L 360.118905 280.289796 
L 360.366582 276.78586 
L 360.696818 275.428511 
L 361.027054 275.050615 
L 361.35729 274.989429 
L 361.770085 275.106093 
L 361.852644 275.182627 
M 362.017762 275.229086 
L 362.925911 275.685275 
L 363.091028 273.393045 
L 363.338705 270.347098 
L 363.503823 268.291065 
L 363.834059 263.088742 
L 364.246854 261.056748 
L 364.57709 256.8543 
L 364.824767 256.264975 
L 365.072444 256.264718 
L 365.485239 256.732882 
L 366.228269 258.019538 
L 366.9713 259.608453 
M 367.136418 259.782192 
L 367.301536 260.253139 
M 367.466654 260.424893 
L 370.025982 265.013318 
L 370.603895 266.071599 
M 370.769013 266.210753 
L 370.934131 266.589133 
M 371.099249 266.727048 
L 372.337633 268.662229 
M 372.502751 268.78695 
L 374.153931 271.044306 
M 374.319049 271.151791 
L 374.896961 271.924807 
M 375.062079 272.026062 
L 377.291172 274.347425 
L 377.538848 274.648246 
M 377.703966 274.730142 
L 380.180736 276.794311 
L 381.997033 278.116386 
M 382.162151 278.172583 
L 384.556361 279.559624 
M 384.721479 279.603393 
L 387.280807 280.710276 
L 389.179663 281.367963 
L 390.418048 281.752454 
M 390.583166 281.776836 
L 390.913402 281.884387 
M 391.07852 281.907341 
L 392.316904 282.223894 
M 392.482022 282.243951 
L 393.802966 282.533937 
M 393.968084 282.551028 
L 394.793674 282.716071 
M 394.958792 282.731557 
L 395.784381 282.880869 
M 395.949499 282.894896 
L 397.270443 283.09929 
M 397.435561 283.111497 
L 399.91233 283.416442 
M 400.077448 283.425767 
L 401.48095 283.56965 
M 401.646068 283.577757 
L 403.13213 283.708034 
M 403.297248 283.7149 
L 404.783309 283.826574 
M 404.948427 283.832531 
L 406.517048 283.933208 
M 406.682165 283.938253 
L 410.067083 284.107275 
M 410.232201 284.111023 
L 410.644996 284.131122 
M 410.810114 284.134747 
L 412.543852 284.202562 
M 412.70897 284.205686 
L 414.442709 284.265077 
M 414.607827 284.26786 
L 416.506683 284.32509 
M 416.671801 284.327525 
L 419.313688 284.396702 
M 419.478806 284.398827 
L 421.460221 284.44569 
M 421.625339 284.447665 
L 422.285811 284.463489 
M 422.450929 284.465387 
L 425.423052 284.527085 
M 425.58817 284.528818 
L 427.074231 284.558525 
M 427.239349 284.560191 
L 429.551001 284.60377 
M 429.716119 284.605392 
L 432.358006 284.65297 
M 432.523124 284.654512 
L 434.256862 284.685349 
M 434.42198 284.686862 
L 435.165011 284.700626 
M 435.330129 284.702144 
L 437.311544 284.73629 
M 437.476662 284.737783 
L 438.46737 284.755272 
M 438.632488 284.756739 
L 442.099964 284.814095 
M 442.265082 284.815548 
L 445.154646 284.862774 
M 445.319764 284.864211 
L 447.053503 284.892746 
M 447.218621 284.894164 
L 449.117477 284.925116 
M 449.282595 284.926541 
L 452.750072 284.889767 
L 452.832631 284.133122 
M 452.997749 282.484343 
L 453.245426 278.757275 
L 453.493102 277.552044 
L 453.823338 276.988331 
L 454.153574 276.852471 
L 454.648928 276.950281 
L 455.474518 277.397519 
L 455.887313 277.722637 
M 456.052431 277.783558 
L 459.519907 280.005762 
L 461.749 281.146163 
L 464.14321 282.117545 
L 466.619979 282.912843 
M 466.785097 282.935033 
L 469.426984 283.563041 
M 469.592102 283.579356 
L 470.995604 283.847069 
M 471.160722 283.860877 
L 471.408399 283.790016 
L 471.573517 281.318014 
L 471.821194 277.72497 
L 472.233989 274.93614 
L 472.811902 261.881093 
M 472.97702 261.592574 
L 473.142138 261.081952 
L 473.224697 260.131991 
L 473.307256 256.674609 
M 473.472374 253.335045 
L 473.72005 245.184195 
L 474.050286 241.10265 
L 474.463081 233.885376 
M 474.628199 233.693918 
L 474.793317 233.644258 
L 475.040994 233.971038 
L 475.618907 235.391713 
L 476.609614 238.040053 
L 476.774732 234.632626 
L 476.93985 228.475874 
M 477.104968 226.703319 
L 477.352645 221.611894 
L 477.76544 208.852276 
L 477.930558 207.577935 
L 478.178235 205.432498 
L 478.343353 205.120133 
L 478.425912 204.58798 
L 478.508471 203.194699 
M 478.673589 202.854085 
L 478.838707 202.778698 
L 479.086384 203.23686 
L 479.664296 205.087693 
L 480.572445 208.371807 
M 480.737563 207.871533 
L 480.820122 205.259851 
M 480.98524 203.060284 
L 481.150358 200.375635 
L 481.315476 199.855482 
L 481.563153 199.959125 
L 481.728271 198.992889 
L 481.893389 196.265955 
L 482.141066 188.431363 
L 482.471301 179.056064 
L 482.636419 177.77428 
L 482.801537 177.525684 
L 483.214332 175.899549 
L 483.37945 176.184225 
L 483.792245 177.523549 
L 485.77366 185.949091 
L 487.920194 195.157407 
L 490.396963 205.321259 
L 490.479522 205.952741 
M 490.64464 206.298072 
L 493.86444 218.813403 
M 494.029558 219.133549 
L 497.909829 232.290479 
L 498.405183 233.793285 
L 498.487742 233.619056 
L 498.570301 231.986004 
M 498.735419 230.647667 
L 498.983096 227.569354 
L 499.148214 226.907953 
L 499.395891 223.961407 
L 499.726127 219.596705 
L 499.891245 219.221502 
L 500.056362 219.287937 
L 500.304039 219.713404 
L 501.129629 222.081606 
L 503.111044 228.469882 
L 503.193603 228.980751 
M 503.358721 229.262232 
L 507.073875 240.367287 
L 510.376234 248.955636 
L 510.871588 250.338951 
M 511.036706 250.541372 
L 513.348357 255.957905 
M 513.678593 256.493465 
L 514.504182 258.39282 
M 514.6693 258.573323 
L 514.751859 258.899479 
M 514.916977 259.080759 
L 518.054218 265.048657 
L 520.943782 269.866108 
L 523.750787 273.975488 
L 525.567085 276.465994 
M 525.732203 276.577603 
L 528.539208 279.858726 
L 528.786885 280.21368 
M 528.952003 280.310642 
L 529.529915 281.000862 
M 529.695033 281.093799 
L 532.584597 283.894989 
L 534.566013 285.68766 
M 534.731131 285.76201 
L 537.785813 288.196069 
M 537.95093 288.262375 
L 539.189315 289.195035 
M 539.354433 289.257336 
L 540.510259 290.090202 
M 540.675377 290.150411 
L 544.473089 292.510618 
L 547.362653 294.180835 
M 547.527771 294.229565 
L 552.151074 296.601888 
L 555.948786 298.430841 
M 556.113904 298.468578 
L 559.333704 299.933526 
M 559.498822 299.969446 
L 560.654648 300.499317 
M 560.819766 300.534625 
L 561.727914 300.951282 
M 561.893032 300.986123 
L 562.553504 301.294439 
M 562.718622 301.328909 
L 565.27795 302.400079 
M 565.443068 302.433385 
L 565.525627 302.313146 
L 565.690745 298.80985 
L 565.855863 294.029846 
M 566.020981 292.91687 
L 566.351217 282.330468 
L 566.846571 261.879937 
L 567.176806 244.478425 
L 567.424483 241.325402 
L 567.507042 240.571225 
L 567.67216 235.980614 
L 567.754719 231.302756 
M 567.919837 229.452509 
L 568.332632 223.33431 
L 568.49775 222.655484 
L 568.827986 215.861244 
M 568.993104 215.519384 
L 569.405899 212.885885 
L 569.488458 212.758138 
L 569.653576 211.567601 
L 570.06637 207.42296 
L 570.231488 207.385344 
L 570.479165 207.879326 
L 570.561724 207.643034 
L 570.809401 206.341629 
L 570.89196 206.338436 
L 571.057078 206.64336 
L 571.139637 207.038648 
M 571.304755 206.823164 
L 571.552432 204.627685 
L 571.800109 202.626127 
L 571.882668 202.568116 
L 571.965227 202.080267 
M 572.130345 201.413845 
L 572.54314 197.730219 
L 572.625699 197.684195 
L 572.790816 197.963688 
L 573.121052 199.131028 
L 574.11176 203.844243 
L 574.194319 204.641698 
M 574.359437 205.083463 
L 574.854791 207.981191 
M 575.019909 208.422614 
L 576.175734 214.283513 
L 576.258293 215.089325 
M 576.423411 215.529209 
L 579.147857 228.930123 
L 579.230416 228.894457 
L 579.478093 227.621904 
L 579.560652 227.644028 
M 579.72577 227.80744 
L 580.056006 228.830855 
L 580.881596 232.291213 
L 583.77116 245.427386 
L 584.183955 247.631486 
M 584.349073 248.028585 
L 588.064226 263.687965 
L 588.55958 265.567647 
L 588.642139 265.272424 
L 588.807257 262.454349 
L 589.054934 249.415853 
L 589.550288 211.515072 
L 589.715406 209.41943 
L 589.880524 209.145282 
L 589.963083 209.414997 
M 590.128201 209.651576 
L 590.623554 211.64016 
L 590.706113 212.389761 
M 590.871231 212.813388 
L 591.449144 215.998817 
M 591.614262 216.440736 
L 592.60497 221.776456 
M 592.770088 222.221275 
L 594.338708 230.384414 
M 594.503826 230.82016 
L 595.246857 234.211119 
L 595.411975 231.243209 
L 595.659652 228.121837 
L 595.82477 228.000118 
L 596.072447 228.516393 
L 596.650359 230.732729 
L 601.934133 254.903404 
L 602.016692 255.605132 
M 602.18181 255.988897 
L 603.585313 262.284256 
M 603.750431 262.653882 
L 605.979523 271.818632 
M 606.144641 272.153829 
L 606.309759 273.063909 
M 606.474877 273.398195 
L 609.281882 283.429846 
M 609.447 283.71717 
L 611.676092 290.339457 
L 613.822625 295.945925 
M 613.987743 296.14775 
L 615.804041 299.908263 
L 615.969159 300.359587 
M 616.134277 300.52355 
L 617.785456 303.237365 
L 618.693605 304.601254 
M 618.858723 304.715919 
L 620.427343 306.489946 
L 622.161082 308.039637 
L 622.491317 308.349702 
M 622.656435 308.416031 
L 624.555292 309.644096 
L 624.968087 309.912291 
M 625.133205 309.959397 
L 626.454148 310.636729 
M 626.619266 310.676448 
L 627.444856 311.053688 
M 627.609974 311.089351 
L 629.013476 311.629056 
M 629.178594 311.659091 
L 632.315835 312.57849 
L 635.865871 313.413837 
M 636.030989 313.432486 
L 637.51705 313.744519 
M 637.682168 313.761721 
L 641.644999 314.403863 
L 641.975235 314.403697 
M 642.140353 314.403663 
L 643.13106 314.403249 
M 643.296178 314.403208 
L 645.442712 314.40241 
M 645.60783 314.40238 
L 647.671804 314.401721 
L 647.754363 314.226313 
L 647.919481 309.862127 
L 648.167158 303.720498 
L 648.497394 301.045388 
L 648.74507 299.832874 
L 648.910188 295.507944 
L 649.57066 272.631703 
L 649.818337 271.101801 
L 649.983455 270.625032 
L 650.148573 268.114561 
L 651.056722 247.196735 
L 651.304399 245.444943 
L 651.552075 239.710831 
L 651.96487 223.288686 
M 652.129988 222.72767 
L 652.295106 221.510319 
L 652.542783 219.274022 
L 652.707901 219.158154 
L 652.955578 219.663939 
L 653.285814 220.793208 
L 653.368373 221.434156 
M 653.533491 221.780378 
L 654.111404 224.605126 
M 654.276522 224.985853 
L 654.441639 225.638308 
L 654.524198 225.545013 
L 654.771875 224.145581 
L 654.936993 224.144714 
L 655.18467 224.692403 
L 655.680024 226.469565 
L 655.927701 227.794236 
M 656.092819 228.156313 
L 656.588173 230.284591 
L 656.670732 230.96736 
M 656.83585 231.341068 
L 662.44986 254.761969 
M 662.614978 255.091409 
L 663.605685 259.032393 
M 663.770803 259.350003 
L 663.853362 259.922063 
M 664.01848 260.234184 
L 666.825485 269.856062 
M 666.990603 270.126338 
L 667.073162 270.618512 
M 667.23828 270.888655 
L 667.898752 273.086969 
M 668.06387 273.343332 
L 669.467372 277.23943 
L 669.549931 275.368676 
L 669.880167 241.631742 
L 670.127844 239.006492 
L 670.292962 238.806685 
L 670.45808 238.993734 
L 670.870875 240.115977 
L 671.696465 243.122561 
L 672.604613 246.99363 
M 672.769731 247.346385 
L 676.319767 260.913351 
M 676.484885 261.227709 
L 678.961654 269.38718 
L 679.539567 271.392781 
M 679.704685 271.66186 
L 681.6861 277.208718 
L 683.667515 282.069079 
L 684.162869 283.338334 
M 684.327987 283.517139 
L 686.144285 287.171131 
L 687.960582 290.361017 
L 688.373377 291.153882 
M 688.538495 291.285415 
L 690.51991 294.220792 
L 690.932705 294.889437 
M 691.097823 295.000712 
L 693.079238 297.590279 
M 693.244356 297.688493 
L 694.069946 298.729026 
M 694.235064 298.822046 
L 696.629274 301.411696 
M 696.794392 301.493586 
L 699.023484 303.632118 
M 699.188602 303.70481 
L 701.830489 305.865467 
L 702.738638 306.488389 
L 703.233992 306.487899 
M 703.39911 306.487825 
L 705.132848 306.486421 
M 705.297966 306.486362 
L 706.371233 306.48556 
M 706.536351 306.485504 
L 708.765443 306.484078 
M 708.930561 306.484034 
L 710.499181 306.483144 
M 710.664299 306.483098 
L 716.113191 306.480695 
M 716.278309 306.480664 
L 718.424843 306.479887 
M 718.58996 306.479862 
L 719.167873 306.479646 
M 719.332991 306.479622 
L 722.057437 306.478793 
M 722.222555 306.478767 
L 725.442355 306.477927 
M 725.607473 306.477909 
L 726.020268 306.477797 
M 726.185386 306.477774 
L 726.68074 306.477645 
M 726.845858 306.477627 
L 727.341211 306.477499 
M 727.506329 306.477481 
L 734.028488 306.476235 
M 734.193606 306.476225 
L 736.835493 306.475797 
M 737.000611 306.47578 
L 744.34836 306.474818 
M 744.513478 306.474812 
L 748.146072 306.474411 
M 748.31119 306.474405 
L 750.457724 306.474187 
M 750.622841 306.474182 
L 752.521698 306.474002 
M 752.686816 306.473997 
L 754.090318 306.473862 
M 754.255436 306.473857 
L 758.300826 306.47353 
M 758.465944 306.473525 
L 759.374092 306.473458 
M 759.53921 306.47345 
L 761.520626 306.473307 
M 761.685744 306.473299 
L 763.419482 306.473182 
M 763.5846 306.473174 
L 764.327631 306.47312 
M 764.492749 306.473117 
L 767.547431 306.472931 
M 767.712549 306.47292 
L 769.693964 306.472809 
M 769.859082 306.472798 
L 779.766158 306.472315 
M 779.931276 306.472313 
L 780.756866 306.472274 
M 780.921984 306.472267 
L 782.160369 306.472212 
M 782.325487 306.47221 
L 783.563871 306.47216 
M 783.728989 306.472157 
L 793.883743 306.471792 
M 794.048861 306.47179 
L 794.213979 306.471784 
M 794.379096 306.471774 
L 796.277953 306.471715 
M 796.443071 306.471713 
L 799.910548 306.47161 
M 800.075666 306.471608 
L 804.203614 306.471489 
M 804.368732 306.471487 
L 813.945573 306.471253 
M 814.110691 306.471252 
L 814.688603 306.471242 
M 814.853721 306.471232 
L 815.183957 306.471226 
M 815.349075 306.471225 
L 816.422342 306.471203 
M 816.58746 306.471202 
L 818.073521 306.47117 
M 818.238639 306.471169 
L 821.788675 306.471093 
M 821.953793 306.471092 
L 823.02706 306.471072 
M 823.192178 306.471071 
L 823.687531 306.471063 
M 823.852649 306.471062 
L 825.42127 306.471032 
M 825.586388 306.471023 
L 828.393393 306.470971 
M 828.558511 306.47097 
L 829.549218 306.470956 
M 829.714336 306.470955 
L 829.962013 306.470944 
M 830.127131 306.470943 
L 832.769018 306.470902 
M 832.934136 306.470902 
L 834.007403 306.47088 
M 834.172521 306.470879 
L 834.832993 306.470867 
M 834.998111 306.470866 
L 836.814408 306.470837 
M 836.979526 306.470837 
L 840.364444 306.470783 
M 840.529562 306.470783 
L 844.079597 306.47073 
M 844.244715 306.470729 
L 846.886602 306.470695 
M 847.05172 306.470695 
L 847.712192 306.47068 
L 847.712192 306.47068 
" clip-path="url(#p37a8d28b10)" style="fill: none; stroke: #000000; stroke-opacity: 0.6; stroke-width: 7; stroke-linecap: square"/>
   </g>
   <g id="line2d_12">
    <path d="M 134.072441 264.858765 
L 134.567795 264.962123 
M 134.732913 264.976881 
L 139.603892 265.844074 
L 140.5946 267.599175 
M 140.759718 267.7341 
L 141.007395 268.273679 
M 141.172513 268.408542 
L 143.153928 271.775918 
M 143.319046 271.910439 
L 144.144636 273.389241 
M 144.309754 273.523592 
L 144.722548 274.329393 
M 144.887666 274.463082 
L 145.300461 275.253157 
M 145.465579 275.382833 
L 147.694671 278.672406 
L 148.767938 280.223973 
M 148.933056 280.330962 
L 150.831912 282.753729 
M 150.99703 282.848865 
L 152.64821 284.746272 
M 152.813328 284.831999 
L 153.556358 285.667181 
M 153.721476 285.748528 
L 156.115686 287.945215 
L 156.445922 288.293723 
M 156.61104 288.362408 
L 159.087809 290.272622 
L 159.252927 290.448329 
M 159.418045 290.506306 
L 161.399461 291.862788 
M 161.564579 291.913448 
L 162.885522 292.734374 
M 163.05064 292.780343 
L 163.628553 293.139076 
M 163.793671 293.182801 
L 165.279732 293.967839 
M 165.44485 294.006799 
L 167.09603 294.772638 
M 167.426266 294.874076 
L 169.242563 295.588284 
M 169.407681 295.616846 
L 172.214686 296.469883 
L 174.113542 296.939515 
M 174.27866 296.956793 
L 176.67287 297.392581 
M 176.837988 297.404402 
L 184.185737 298.329653 
L 185.589239 298.514386 
M 185.754357 298.524636 
L 187.98345 298.811074 
M 188.148567 298.821284 
L 189.882306 299.045557 
M 190.047424 299.055735 
L 191.616044 299.259018 
M 191.781162 299.269168 
L 193.927695 299.542698 
M 194.257931 299.573029 
L 195.000962 299.674044 
M 195.16608 299.684138 
L 196.074229 299.805161 
M 196.239347 299.815238 
L 198.055644 300.046623 
M 198.220762 300.056667 
L 199.871941 300.369422 
L 203.256859 301.162665 
M 203.421977 301.178589 
L 206.806895 301.717032 
L 207.467367 301.806927 
M 207.632485 301.816735 
L 208.458075 301.924531 
M 208.623192 301.934322 
L 213.246495 302.490281 
M 213.411613 302.499996 
L 216.548854 302.877892 
M 216.713972 302.887556 
L 216.961649 302.926197 
M 217.126767 302.935855 
L 218.860505 303.147984 
M 219.025623 303.157611 
L 219.520977 303.224966 
M 219.686095 303.234583 
L 220.594243 303.349886 
M 220.759361 303.359487 
L 224.391956 303.790164 
M 224.557074 303.799705 
L 227.859433 304.189787 
M 228.024551 304.199274 
L 228.10711 304.218245 
M 228.272228 304.227729 
L 230.996674 304.549413 
M 231.161792 304.558852 
L 232.482735 304.719122 
M 232.647853 304.728538 
L 232.978089 304.775601 
M 233.143207 304.785009 
L 233.556002 304.832034 
L 233.638561 287.20963 
L 233.72112 287.233165 
M 233.886238 287.244931 
L 235.28974 287.456439 
M 235.454858 287.468174 
L 236.11533 287.573722 
M 236.280448 287.585442 
L 238.674658 287.936302 
M 238.839776 287.947973 
L 244.453786 288.749496 
M 244.618904 288.761058 
L 247.34335 289.153234 
M 247.508468 289.164742 
L 248.499176 289.314199 
M 248.664294 289.325684 
L 250.067796 289.532166 
M 250.232914 289.543623 
L 255.516688 290.285009 
M 255.681806 290.296365 
L 256.424837 290.409835 
M 256.589955 290.421174 
L 257.663222 290.579756 
M 257.82834 290.591072 
L 258.406252 290.681544 
M 258.57137 290.692846 
L 260.635345 290.98617 
M 260.800463 290.997431 
L 262.534201 291.244796 
M 262.699319 291.256023 
L 265.341206 291.625652 
M 265.506324 291.636828 
L 266.992385 291.848874 
M 267.157503 291.860019 
L 268.561006 292.06038 
M 268.726124 292.071497 
L 269.304037 292.160378 
M 269.469155 292.171482 
L 272.028483 292.526007 
M 272.193601 292.537062 
L 272.441278 292.581264 
M 272.606395 292.592311 
L 276.569226 293.131798 
M 276.734344 293.142771 
L 279.706467 293.547737 
M 279.871585 293.558654 
L 281.10997 293.733128 
M 281.275088 293.74402 
L 281.853 293.831105 
M 282.018118 293.841984 
L 282.761149 293.950694 
M 282.926267 293.961557 
L 287.879805 294.621446 
M 288.044923 294.632219 
L 290.521692 294.965461 
M 290.68681 294.976187 
L 291.099605 295.040517 
M 291.264723 295.051234 
L 292.915903 295.275949 
M 293.08102 295.286634 
L 293.328697 295.329359 
M 293.493815 295.340037 
L 293.741492 295.382734 
M 293.90661 295.393404 
L 294.154287 295.436072 
M 294.319405 295.446736 
L 296.053143 295.680969 
M 296.218261 295.691599 
L 297.374087 295.850886 
M 297.539205 295.861493 
L 301.006682 296.316278 
M 301.1718 296.326823 
L 301.254359 296.34791 
M 301.419477 296.35845 
L 306.290456 296.98832 
M 306.455574 296.998775 
L 307.281164 297.113686 
M 307.446282 297.124124 
L 310.088169 297.467794 
M 310.253287 297.478184 
L 313.720763 297.923656 
M 313.885881 297.933985 
L 318.096389 298.469196 
M 318.261507 298.479452 
L 320.40804 298.755842 
M 320.573158 298.766059 
L 323.462722 299.132974 
M 323.62784 299.14314 
L 323.710399 299.16347 
M 323.875517 299.173632 
L 326.599963 299.518351 
M 326.765081 299.528466 
L 332.544209 300.243167 
M 332.709327 300.253184 
L 343.68967 301.583441 
M 343.854788 301.593279 
L 344.350142 301.662104 
M 344.51526 301.671931 
L 344.680378 301.701404 
M 344.845496 301.711226 
L 346.001321 301.858393 
M 346.166439 301.868193 
L 347.404824 302.024824 
M 347.569942 302.034602 
L 349.881593 302.3176 
M 350.046711 302.327339 
L 350.95486 302.444104 
M 351.119978 302.453826 
L 353.183952 302.706137 
M 353.34907 302.715824 
L 353.596747 302.754558 
M 353.761865 302.764238 
L 355.495603 302.976874 
M 355.660721 302.986524 
L 355.908398 303.025112 
M 356.073516 303.034756 
L 357.064224 303.160008 
M 357.229341 303.169634 
L 361.852644 303.716168 
M 362.017762 303.725719 
L 366.9713 304.305911 
M 367.136418 304.315382 
L 367.301536 304.34379 
M 367.466654 304.353257 
L 370.603895 304.721467 
M 370.769013 304.730883 
L 370.934131 304.759123 
M 371.099249 304.768534 
L 372.337633 304.918937 
M 372.502751 304.928326 
L 374.153931 305.125213 
M 374.319049 305.134574 
L 374.896961 305.209423 
M 375.062079 305.218773 
L 377.538848 305.508013 
M 377.703966 305.517323 
L 381.997033 306.008982 
M 382.162151 306.018225 
L 384.556361 306.294938 
M 384.721479 306.304142 
L 390.418048 306.945397 
M 390.583166 306.954515 
L 390.913402 307.000082 
M 391.07852 307.009192 
L 392.316904 307.154783 
M 392.482022 307.163872 
L 393.802966 307.318199 
M 393.968084 307.327266 
L 394.793674 307.426923 
M 394.958792 307.435976 
L 395.784381 307.535473 
M 395.949499 307.544511 
L 397.270443 307.697969 
M 397.435561 307.706985 
L 399.91233 307.985883 
M 400.077448 307.99486 
L 401.48095 308.156247 
M 401.646068 308.165202 
L 403.13213 308.335109 
M 403.297248 308.344039 
L 404.783309 308.51349 
M 404.948427 308.522397 
L 406.517048 308.700276 
M 406.682165 308.709157 
L 410.067083 309.0811 
M 410.232201 309.089931 
L 410.644996 309.142887 
M 410.810114 309.151709 
L 412.543852 309.345492 
M 412.70897 309.354287 
L 414.442709 309.547472 
M 414.607827 309.55624 
L 416.506683 309.766309 
M 416.671801 309.775047 
L 419.313688 310.062749 
M 419.478806 310.071448 
L 421.460221 310.288527 
M 421.625339 310.297195 
L 422.285811 310.375155 
M 422.450929 310.383812 
L 425.423052 310.703282 
M 425.58817 310.711894 
L 427.074231 310.875308 
M 427.239349 310.883897 
L 429.551001 311.132483 
M 429.716119 311.141037 
L 432.358006 311.422697 
M 432.523124 311.431212 
L 434.256862 311.618267 
M 434.42198 311.626757 
L 435.165011 311.711588 
M 435.330129 311.720065 
L 437.311544 311.931616 
M 437.476662 311.940063 
L 438.46737 312.049775 
M 438.632488 312.058206 
L 442.099964 312.419687 
M 442.265082 312.428069 
L 445.154646 312.729062 
M 445.319764 312.737402 
L 447.053503 312.920602 
M 447.218621 312.928916 
L 449.117477 313.128127 
M 449.282595 313.136414 
L 452.832631 313.499921 
M 452.997749 313.508158 
L 455.887313 313.803939 
M 456.052431 313.812135 
L 466.619979 314.860205 
M 466.785097 314.868259 
L 469.426984 315.13343 
M 469.592102 315.141447 
L 470.995604 315.285571 
M 471.160722 315.293568 
L 472.811902 315.46125 
M 472.97702 315.469223 
L 473.307256 315.509073 
M 473.472374 315.517039 
L 474.463081 315.620508 
M 474.628199 315.62846 
L 476.93985 315.858595 
M 477.104968 315.866515 
L 478.508471 316.008887 
M 478.673589 316.016787 
L 480.572445 316.206057 
M 480.737563 316.21393 
L 480.820122 316.229673 
M 480.98524 316.237543 
L 490.479522 317.143307 
M 490.64464 317.151054 
L 493.86444 317.460087 
M 494.029558 317.467791 
L 497.249357 317.840193 
L 498.570301 319.193358 
M 498.735419 319.27213 
L 501.624983 321.873156 
L 503.193603 323.261948 
M 503.358721 323.330186 
L 510.871588 329.537461 
M 511.036706 329.607382 
L 513.348357 331.68141 
M 513.678593 331.901081 
L 514.504182 332.714762 
M 514.6693 332.789374 
L 514.751859 332.938918 
M 514.916977 333.013851 
L 519.292603 337.138486 
L 523.750787 341.650492 
L 525.567085 343.667084 
M 525.732203 343.756046 
L 528.704326 347.029853 
L 528.786885 347.215791 
M 528.952003 347.30892 
L 529.529915 348.057796 
M 529.695033 348.151885 
L 534.318336 353.591095 
L 534.566013 353.992394 
M 534.731131 354.092984 
L 537.703254 357.78508 
L 537.785813 357.994235 
M 537.95093 358.098972 
L 539.189315 359.789203 
M 539.354433 359.895744 
L 540.510259 361.5066 
M 540.675377 361.614839 
L 545.546356 368.188405 
L 547.362653 370.850714 
M 547.527771 370.967734 
L 552.481309 378.181882 
L 555.783668 383.201803 
L 555.948786 383.585073 
M 556.113904 383.713039 
L 558.673232 387.732021 
L 558.755791 193.001082 
L 558.83835 193.158688 
L 559.333704 194.264767 
M 559.498822 194.423183 
L 560.654648 196.811564 
M 560.819766 196.971598 
L 561.645355 198.729282 
L 561.727914 199.152804 
M 561.893032 199.364697 
L 562.553504 201.275659 
M 562.718622 201.488423 
L 565.27795 208.342839 
M 565.443068 208.558475 
L 565.855863 209.854115 
M 566.020981 210.070356 
L 567.754719 214.848105 
M 567.919837 215.066205 
L 568.827986 217.689725 
M 568.993104 217.908877 
L 571.139637 223.856847 
M 571.304755 224.078306 
L 571.965227 226.075213 
M 572.130345 226.297512 
L 574.194319 232.107329 
M 574.359437 232.331952 
L 574.854791 233.906764 
M 575.019909 234.132088 
L 576.258293 237.749187 
M 576.423411 237.976002 
L 579.560652 246.89058 
M 579.72577 247.12092 
L 584.101396 259.455779 
L 584.183955 259.926137 
M 584.349073 260.16145 
L 589.880524 276.130273 
L 589.963083 276.612983 
M 590.128201 276.854468 
L 590.706113 278.789513 
M 590.871231 279.031787 
L 591.449144 280.97315 
M 591.614262 281.216219 
L 592.60497 284.38425 
M 592.770088 284.628572 
L 594.338708 289.533867 
M 594.503826 289.780076 
L 601.769016 311.796955 
L 602.016692 312.814415 
M 602.18181 313.069008 
L 603.585313 317.667273 
M 603.750431 317.9236 
L 605.979523 325.137826 
M 606.144641 325.396802 
L 606.309759 326.174282 
M 606.474877 326.433624 
L 609.281882 335.568303 
M 609.447 335.830943 
L 613.740066 349.61458 
L 613.822625 350.149674 
M 613.987743 350.417359 
L 615.969159 357.139299 
M 616.134277 357.40937 
L 618.693605 366.100099 
M 618.858723 366.373199 
L 622.491317 378.757677 
M 622.656435 379.034998 
L 624.968087 387.117221 
M 625.133205 387.397295 
L 626.454148 392.172572 
M 626.619266 392.454296 
L 627.444856 395.559312 
M 627.609974 395.842136 
L 629.013476 400.948648 
M 629.178594 401.233214 
L 635.783312 424.29529 
L 635.865871 424.87935 
M 636.030989 425.171517 
L 637.51705 430.740079 
M 637.682168 431.034076 
L 641.892676 446.149089 
L 641.975235 446.746663 
M 642.140353 447.045587 
L 643.13106 450.937857 
M 643.296178 451.237364 
L 645.442712 459.315438 
M 645.60783 459.614146 
L 651.552075 480.714879 
L 651.96487 481.164946 
M 652.129988 481.239779 
L 653.368373 482.430161 
M 653.533491 482.504124 
L 654.111404 483.09395 
M 654.276522 483.167446 
L 655.927701 484.698852 
M 656.092819 484.771204 
L 656.670732 485.348142 
M 656.83585 485.420024 
L 662.44986 490.254311 
M 662.614978 490.322561 
L 663.605685 491.20513 
M 663.770803 491.272661 
L 663.853362 491.407568 
M 664.01848 491.474944 
L 664.266157 491.790299 
L 666.825485 495.722652 
M 666.990603 495.844443 
L 667.073162 496.087829 
M 667.23828 496.209422 
L 667.320839 261.997595 
L 667.403398 262.150539 
L 667.898752 263.219181 
M 668.06387 263.371563 
L 672.604613 271.793157 
M 672.769731 271.941554 
L 676.319767 278.402692 
M 676.484885 278.54799 
L 679.539567 284.020325 
M 679.704685 284.163014 
L 684.162869 291.906862 
M 684.327987 292.045777 
L 688.373377 298.906828 
M 688.538495 299.042359 
L 690.932705 303.077649 
M 691.097823 303.21114 
L 693.079238 306.527124 
M 693.244356 306.658913 
L 694.069946 308.104298 
M 694.235064 308.235305 
L 696.629274 312.135351 
M 696.794392 312.264348 
L 699.023484 315.850105 
M 699.188602 315.977235 
L 703.233992 322.251759 
M 703.39911 322.375583 
L 705.132848 325.083705 
M 705.297966 325.206075 
L 706.371233 326.912634 
M 706.536351 327.034059 
L 708.765443 330.408487 
M 708.930561 330.528095 
L 710.499181 332.90715 
M 710.664299 333.025449 
L 716.113191 340.810122 
M 716.278309 340.924145 
L 718.424843 343.977398 
M 718.58996 344.089567 
L 719.167873 344.984682 
M 719.332991 345.096294 
L 722.057437 348.85485 
M 722.222555 348.964335 
L 725.442355 353.294413 
M 725.607473 353.401436 
L 726.020268 354.042321 
M 726.185386 354.148926 
L 726.68074 354.893494 
M 726.845858 354.999623 
L 727.341211 355.740858 
M 727.506329 355.84651 
L 734.028488 364.107469 
M 734.193606 364.208355 
L 736.835493 367.50499 
M 737.000611 367.603903 
L 743.440211 375.142333 
L 744.34836 376.27143 
M 744.513478 376.365153 
L 748.146072 380.524286 
M 748.31119 380.615418 
L 750.457724 383.054853 
M 750.622841 383.144421 
L 752.108903 384.657258 
L 752.521698 384.649322 
M 752.686816 384.647999 
L 754.090318 384.624231 
M 754.255436 384.622912 
L 758.300826 384.557198 
M 758.465944 384.555889 
L 759.374092 384.540185 
M 759.53921 384.538877 
L 761.520626 384.506247 
M 761.685744 384.504944 
L 763.419482 384.476324 
M 763.5846 384.475025 
L 764.327631 384.462045 
M 764.492749 384.460748 
L 767.547431 384.411591 
M 767.712549 384.410301 
L 769.693964 384.378102 
M 769.859082 384.376816 
L 779.766158 384.222512 
M 779.931276 384.221248 
L 780.756866 384.207346 
M 780.921984 384.206083 
L 782.160369 384.185902 
M 782.325487 384.184642 
L 783.563871 384.164506 
M 783.728989 384.163249 
L 793.883743 384.00868 
M 794.048861 384.007444 
L 794.213979 384.003737 
M 794.379096 384.002501 
L 796.277953 383.972901 
M 796.443071 383.97167 
L 799.910548 383.918881 
M 800.075666 383.917657 
L 804.203614 383.855449 
M 804.368732 383.854234 
L 813.945573 383.713141 
M 814.110691 383.711945 
L 814.688603 383.70238 
M 814.853721 383.701185 
L 815.183957 383.695213 
M 815.349075 383.694019 
L 816.422342 383.67732 
M 816.58746 383.676128 
L 818.073521 383.653519 
M 818.238639 383.65233 
L 818.321198 383.651142 
L 818.403757 319.598879 
L 818.486316 319.606297 
L 821.788675 319.909546 
M 821.953793 319.916921 
L 823.02706 320.020074 
M 823.192178 320.027434 
L 823.687531 320.078931 
M 823.852649 320.086284 
L 825.42127 320.233131 
M 825.586388 320.240463 
L 828.393393 320.496463 
M 828.558511 320.503759 
L 829.549218 320.598526 
M 829.714336 320.605809 
L 829.962013 320.634931 
M 830.127131 320.642209 
L 832.769018 320.881836 
M 832.934136 320.88908 
L 834.007403 320.990406 
M 834.172521 320.997636 
L 834.832993 321.062665 
M 834.998111 321.069886 
L 836.814408 321.235691 
M 836.979526 321.242888 
L 840.364444 321.544303 
M 840.529562 321.551459 
L 844.079597 321.865366 
M 844.244715 321.872479 
L 846.886602 322.106663 
M 847.05172 322.113743 
L 847.712192 322.170351 
L 847.712192 322.170351 
" clip-path="url(#p37a8d28b10)" style="fill: none; stroke-dasharray: 25.9,11.2; stroke-dashoffset: 0; stroke: #0000ff; stroke-opacity: 0.6; stroke-width: 7"/>
   </g>
   <g id="line2d_13">
    <path d="M 433.480045 649 
L 433.513831 289.228075 
L 433.59639 289.239572 
L 434.256862 289.34298 
M 434.42198 289.354462 
L 435.165011 289.469197 
M 435.330129 289.480662 
L 437.311544 289.766788 
M 437.476662 289.778214 
L 438.46737 289.9266 
M 438.632488 289.938003 
L 442.099964 290.426912 
M 442.265082 290.438248 
L 445.154646 290.845345 
M 445.319764 290.856625 
L 447.053503 291.104406 
M 447.218621 291.115651 
L 449.117477 291.385087 
M 449.282595 291.396295 
L 452.832631 291.887944 
M 452.997749 291.899084 
L 455.887313 292.299132 
M 456.052431 292.310217 
L 466.619979 293.727748 
M 466.785097 293.73864 
L 469.426984 294.097287 
M 469.592102 294.10813 
L 470.995604 294.303061 
M 471.160722 294.313876 
L 472.811902 294.540669 
M 472.97702 294.551453 
L 473.307256 294.60535 
M 473.472374 294.616125 
L 474.463081 294.756068 
M 474.628199 294.766823 
L 476.93985 295.078084 
M 477.104968 295.088795 
L 478.508471 295.281356 
M 478.673589 295.292041 
L 480.572445 295.548031 
M 480.737563 295.55868 
L 480.820122 295.579972 
M 480.98524 295.590616 
L 490.479522 296.815676 
M 490.64464 296.826154 
L 493.86444 297.244124 
M 494.029558 297.254545 
L 498.570301 297.835864 
M 498.735419 297.846205 
L 503.193603 298.412826 
M 503.358721 298.42309 
L 510.871588 299.361457 
M 511.036706 299.371593 
L 513.348357 299.664947 
M 513.678593 299.695228 
L 514.504182 299.806157 
M 514.6693 299.816233 
L 514.751859 299.836382 
M 514.916977 299.846454 
L 525.567085 301.14439 
M 525.732203 301.154287 
L 528.786885 301.529371 
M 528.952003 301.539215 
L 529.529915 301.617926 
M 529.695033 301.627759 
L 534.566013 302.215322 
M 534.731131 302.225075 
L 537.785813 302.594706 
M 537.95093 302.604407 
L 539.189315 302.759457 
M 539.354433 302.769136 
L 540.510259 302.914174 
M 540.675377 302.923832 
L 547.362653 303.71145 
M 547.527771 303.721002 
L 555.948786 304.697979 
M 556.113904 304.707398 
L 558.673232 304.998763 
L 559.333704 306.725198 
M 559.498822 306.914688 
L 560.654648 309.69904 
M 560.819766 309.88075 
L 561.727914 312.019577 
M 561.893032 312.193657 
L 562.553504 313.729049 
M 562.718622 313.896151 
L 564.947714 318.139572 
L 565.27795 318.867912 
M 565.443068 319.011401 
L 565.855863 319.857018 
M 566.020981 319.995385 
L 567.754719 322.84737 
M 567.919837 322.968209 
L 568.827986 324.358358 
M 568.993104 324.469201 
L 570.809401 326.711962 
L 571.139637 327.169554 
M 571.304755 327.258765 
L 571.965227 328.026878 
M 572.130345 328.108355 
L 573.781524 329.575856 
L 574.194319 329.955969 
M 574.359437 330.016619 
L 574.854791 330.41952 
M 575.019909 330.47398 
L 576.258293 331.239684 
M 576.423411 331.28092 
L 577.909473 331.889252 
L 579.312975 332.229488 
L 579.560652 332.276186 
M 579.72577 332.285869 
L 582.780452 332.504609 
L 584.183955 332.606793 
M 584.349073 332.612462 
L 589.963083 333.001833 
M 590.128201 333.007449 
L 590.706113 333.052354 
M 590.871231 333.057964 
L 591.449144 333.102815 
M 591.614262 333.108418 
L 592.60497 333.181188 
M 592.770088 333.186781 
L 594.338708 333.298472 
M 594.503826 333.304049 
L 602.016692 333.813913 
M 602.18181 333.819421 
L 603.585313 333.918428 
M 603.750431 333.923922 
L 605.979523 334.077438 
M 606.144641 334.08291 
L 606.309759 334.099322 
M 606.474877 334.104791 
L 609.281882 334.295747 
M 609.447 334.30119 
L 613.822625 334.594014 
M 613.987743 334.599416 
L 615.969159 334.734247 
M 616.134277 334.73963 
L 618.693605 334.911531 
M 618.858723 334.916891 
L 622.491317 335.157347 
M 622.656435 335.162674 
L 624.968087 335.316845 
M 625.133205 335.32215 
L 626.454148 335.412235 
M 626.619266 335.417528 
L 627.444856 335.475701 
M 627.609974 335.480985 
L 629.013476 335.575979 
M 629.178594 335.58125 
L 635.865871 336.011048 
M 636.030989 336.01626 
L 637.51705 336.115161 
M 637.682168 336.120359 
L 641.975235 336.394871 
M 642.140353 336.400032 
L 643.13106 336.467058 
M 643.296178 336.472209 
L 645.442712 336.611025 
M 645.60783 336.616156 
L 651.96487 337.01431 
M 652.129988 337.019387 
L 653.368373 337.100534 
M 653.533491 337.1056 
L 654.111404 337.146103 
M 654.276522 337.151162 
L 655.927701 337.257261 
M 656.092819 337.262306 
L 656.670732 337.30264 
M 656.83585 337.307679 
L 662.44986 337.653723 
M 662.614978 337.658714 
L 663.605685 337.723544 
M 663.770803 337.728526 
L 663.853362 337.738489 
M 664.01848 337.743469 
L 666.825485 337.917355 
M 666.990603 337.922311 
L 667.073162 337.932221 
M 667.23828 337.937175 
L 667.898752 339.195095 
M 668.06387 339.331948 
L 670.292962 342.807118 
L 672.439495 345.754656 
L 672.604613 346.069912 
M 672.769731 346.173863 
L 674.833705 348.589635 
L 676.319767 350.192397 
M 676.484885 350.271223 
L 676.89768 350.657102 
L 676.980239 239.048421 
L 677.062798 239.138404 
L 679.044213 241.13381 
L 679.539567 241.656831 
M 679.704685 241.729389 
L 681.603541 243.250092 
L 683.502398 244.489571 
L 684.162869 244.898876 
M 684.327987 244.941743 
L 686.144285 245.753539 
L 687.960582 246.316476 
L 688.373377 246.427306 
M 688.538495 246.444554 
L 690.932705 246.960906 
M 691.097823 246.978082 
L 693.079238 247.406731 
M 693.244356 247.423847 
L 694.069946 247.611972 
M 694.235064 247.62906 
L 696.629274 248.140648 
M 696.794392 248.157665 
L 699.023484 248.633227 
M 699.188602 248.650178 
L 703.233992 249.494843 
M 703.39911 249.511679 
L 705.132848 249.881488 
M 705.297966 249.898272 
L 706.371233 250.133005 
M 706.536351 250.149755 
L 708.765443 250.617836 
M 708.930561 250.63452 
L 710.499181 250.967743 
M 710.664299 250.98438 
L 716.113191 252.094024 
M 716.278309 252.11051 
L 718.424843 252.554804 
M 718.58996 252.571229 
L 719.167873 252.702545 
M 719.332991 252.718949 
L 722.057437 253.275395 
M 722.222555 253.291722 
L 725.442355 253.943031 
M 725.607473 253.959268 
L 726.020268 254.05665 
M 726.185386 254.072873 
L 726.68074 254.18637 
M 726.845858 254.202575 
L 727.341211 254.315951 
M 727.506329 254.332139 
L 734.028488 255.620141 
M 734.193606 255.636154 
L 736.835493 256.163364 
M 737.000611 256.179303 
L 741.789032 257.100146 
L 741.954149 312.284515 
L 744.34836 312.53602 
M 744.513478 312.544386 
L 748.146072 312.919699 
M 748.31119 312.928014 
L 750.457724 313.152084 
M 750.622841 313.160368 
L 752.521698 313.358834 
M 752.686816 313.367089 
L 754.090318 313.515499 
M 754.255436 313.523734 
L 758.300826 313.934051 
M 758.465944 313.942229 
L 759.374092 314.040283 
M 759.53921 314.048447 
L 761.520626 314.25219 
M 761.685744 314.260326 
L 763.419482 314.439031 
M 763.5846 314.447141 
L 764.327631 314.528186 
M 764.492749 314.536284 
L 767.547431 314.84322 
M 767.712549 314.851276 
L 769.693964 315.052327 
M 769.859082 315.060355 
L 779.766158 316.023828 
M 779.931276 316.031725 
L 780.756866 316.118528 
M 780.921984 316.126413 
L 782.160369 316.252425 
M 782.325487 316.260292 
L 783.563871 316.386017 
M 783.728989 316.393866 
L 793.883743 317.358995 
M 794.048861 317.366713 
L 794.213979 317.389862 
M 794.379096 317.397576 
L 796.277953 317.5824 
M 796.443071 317.590089 
L 799.910548 317.919702 
M 800.075666 317.927345 
L 804.203614 318.315769 
M 804.368732 318.323359 
L 813.945573 319.204338 
M 814.110691 319.211808 
L 814.688603 319.271534 
M 814.853721 319.278995 
L 815.183957 319.316286 
M 815.349075 319.323741 
L 816.422342 319.428008 
M 816.58746 319.435449 
L 818.073521 319.576622 
M 818.238639 319.584042 
L 821.788675 319.909546 
M 821.953793 319.916921 
L 823.02706 320.020074 
M 823.192178 320.027434 
L 823.687531 320.078931 
M 823.852649 320.086284 
L 825.42127 320.233131 
M 825.586388 320.240463 
L 828.393393 320.496463 
M 828.558511 320.503759 
L 829.549218 320.598526 
M 829.714336 320.605809 
L 829.962013 320.634931 
M 830.127131 320.642209 
L 832.769018 320.881836 
M 832.934136 320.88908 
L 834.007403 320.990406 
M 834.172521 320.997636 
L 834.832993 321.062665 
M 834.998111 321.069886 
L 836.814408 321.235691 
M 836.979526 321.242888 
L 840.364444 321.544303 
M 840.529562 321.551459 
L 844.079597 321.865366 
M 844.244715 321.872479 
L 846.886602 322.106663 
M 847.05172 322.113743 
L 847.712192 322.170351 
L 847.712192 322.170351 
" clip-path="url(#p37a8d28b10)" style="fill: none; stroke-dasharray: 7,11.55; stroke-dashoffset: 0; stroke: #008000; stroke-opacity: 0.6; stroke-width: 7"/>
   </g>
   <g id="line2d_14">
    <path d="M 239.843681 -1 
L 244.453786 1.859056 
M 244.618904 1.90916 
L 247.34335 3.608722 
M 247.508468 3.658592 
L 248.499176 4.306288 
M 248.664294 4.356064 
L 250.067796 5.250889 
M 250.232914 5.300538 
L 255.516688 8.513459 
M 255.681806 8.56267 
L 256.424837 9.054414 
M 256.589955 9.103552 
L 257.167868 9.447334 
L 257.332986 290.523154 
L 257.663222 290.579756 
M 257.82834 290.591072 
L 258.406252 290.681544 
M 258.57137 290.692846 
L 260.635345 290.98617 
M 260.800463 290.997431 
L 262.534201 291.244796 
M 262.699319 291.256023 
L 265.341206 291.625652 
M 265.506324 291.636828 
L 266.992385 291.848874 
M 267.157503 291.860019 
L 268.561006 292.06038 
M 268.726124 292.071497 
L 269.304037 292.160378 
M 269.469155 292.171482 
L 272.028483 292.526007 
M 272.193601 292.537062 
L 272.441278 292.581264 
M 272.606395 292.592311 
L 276.569226 293.131798 
M 276.734344 293.142771 
L 279.706467 293.547737 
M 279.871585 293.558654 
L 281.10997 293.733128 
M 281.275088 293.74402 
L 281.853 293.831105 
M 282.018118 293.841984 
L 282.761149 293.950694 
M 282.926267 293.961557 
L 287.879805 294.621446 
M 288.044923 294.632219 
L 290.521692 294.965461 
M 290.68681 294.976187 
L 291.099605 295.040517 
M 291.264723 295.051234 
L 292.915903 295.275949 
M 293.08102 295.286634 
L 293.328697 295.329359 
M 293.493815 295.340037 
L 293.741492 295.382734 
M 293.90661 295.393404 
L 294.154287 295.436072 
M 294.319405 295.446736 
L 295.970584 295.659703 
L 296.053143 154.9861 
M 296.218261 155.015633 
L 297.374087 155.458144 
M 297.539205 155.487614 
L 301.006682 156.751046 
M 301.1718 156.780342 
L 301.254359 156.838921 
M 301.419477 156.868204 
L 306.290456 158.618039 
M 306.455574 158.647083 
L 307.281164 158.966316 
M 307.446282 158.995314 
L 310.088169 159.950058 
M 310.253287 159.978924 
L 313.720763 161.216484 
M 313.885881 161.245179 
L 318.096389 162.732043 
M 318.261507 162.760535 
L 320.40804 163.52837 
M 320.573158 163.556755 
L 323.462722 164.576075 
M 323.62784 164.604319 
L 323.710399 164.660796 
M 323.875517 164.689029 
L 326.599963 165.646688 
M 326.765081 165.674789 
L 332.544209 167.66029 
M 332.709327 167.68812 
L 341.29546 170.562095 
L 341.460578 277.948424 
L 343.68967 278.312123 
M 343.854788 278.325087 
L 344.185024 278.376925 
L 344.350142 279.403744 
M 344.51526 279.416561 
L 344.680378 279.455003 
M 344.845496 279.467813 
L 346.001321 279.659764 
M 346.166439 279.672546 
L 347.404824 279.87684 
M 347.569942 279.889594 
L 349.881593 280.258708 
M 350.046711 280.271411 
L 350.95486 280.423707 
M 351.119978 280.436387 
L 353.183952 280.765478 
M 353.34907 280.778112 
L 353.596747 280.828632 
M 353.761865 280.841258 
L 355.495603 281.118599 
M 355.660721 281.131186 
L 355.908398 281.181517 
M 356.073516 281.194095 
L 357.064224 281.357462 
M 357.229341 281.370017 
L 361.852644 282.082861 
M 362.017762 282.095319 
L 366.9713 282.852063 
M 367.136418 282.864417 
L 367.301536 282.901469 
M 367.466654 282.913817 
L 370.603895 283.394074 
M 370.769013 283.406355 
L 370.934131 283.443189 
M 371.099249 283.455463 
L 372.337633 283.651633 
M 372.502751 283.66388 
L 374.153931 283.920679 
M 374.319049 283.93289 
L 374.896961 284.030515 
M 375.062079 284.04271 
L 377.538848 284.419966 
M 377.703966 284.43211 
L 381.997033 285.073381 
M 382.162151 285.085436 
L 384.556361 285.446353 
M 384.721479 285.458358 
L 390.418048 286.294748 
M 390.583166 286.30664 
L 390.913402 286.366073 
M 391.07852 286.377955 
L 392.316904 286.567849 
M 392.482022 286.579704 
L 393.802966 286.780993 
M 393.968084 286.792819 
L 394.793674 286.922803 
M 394.958792 286.93461 
L 395.784381 287.064384 
M 395.949499 287.076172 
L 397.270443 287.276328 
M 397.435561 287.288088 
L 399.91233 287.651854 
M 400.077448 287.663564 
L 401.48095 287.87406 
M 401.646068 287.88574 
L 403.13213 288.10735 
M 403.297248 288.118998 
L 404.783309 288.340013 
M 404.948427 288.351629 
L 406.517048 288.583637 
M 406.682165 288.595221 
L 410.067083 289.080347 
M 410.232201 289.091865 
L 410.644996 289.160936 
M 410.810114 289.172442 
L 412.543852 289.425194 
M 412.70897 289.436665 
L 414.442709 289.688636 
M 414.607827 289.700072 
L 416.506683 289.974065 
M 416.671801 289.985462 
L 419.313688 290.360713 
M 419.478806 290.372058 
L 421.460221 290.655195 
M 421.625339 290.666501 
L 422.285811 290.768184 
M 422.450929 290.779475 
L 425.423052 291.19616 
M 425.58817 291.207393 
L 427.074231 291.420534 
M 427.239349 291.431737 
L 429.551001 291.755967 
M 429.716119 291.767125 
L 432.358006 292.134493 
M 432.523124 292.1456 
L 434.256862 292.389577 
M 434.42198 292.400649 
L 435.165011 292.511294 
M 435.330129 292.522351 
L 437.311544 292.798277 
M 437.476662 292.809295 
L 438.46737 292.952392 
M 438.632488 292.963389 
L 442.099964 293.434869 
M 442.265082 293.445801 
L 445.154646 293.838386 
M 445.319764 293.849264 
L 447.053503 294.088212 
M 447.218621 294.099057 
L 449.117477 294.358888 
M 449.282595 294.369696 
L 452.832631 294.843819 
M 452.997749 294.854562 
L 455.887313 295.24035 
M 456.052431 295.25104 
L 466.619979 296.618039 
M 466.785097 296.628544 
L 469.426984 296.974406 
M 469.592102 296.984862 
L 470.995604 297.172844 
M 471.160722 297.183274 
L 472.811902 297.401982 
M 472.97702 297.412381 
L 473.307256 297.464357 
M 473.472374 297.474748 
L 474.463081 297.609703 
M 474.628199 297.620074 
L 476.93985 297.920239 
M 477.104968 297.930569 
L 478.508471 298.116266 
M 478.673589 298.126569 
L 480.572445 298.373435 
M 480.737563 298.383703 
L 480.820122 298.404237 
M 480.98524 298.414501 
L 490.479522 299.595891 
M 490.64464 299.605995 
L 493.86444 300.009066 
M 494.029558 300.019115 
L 498.570301 300.579712 
M 498.735419 300.589685 
L 503.193603 301.136108 
M 503.358721 301.146005 
L 507.321552 301.619531 
L 507.404111 176.757116 
L 507.48667 176.783724 
L 510.871588 177.898023 
M 511.036706 177.924477 
L 513.348357 178.690109 
M 513.678593 178.769142 
L 514.504182 179.058658 
M 514.6693 179.084957 
L 514.751859 179.137543 
M 514.916977 179.163831 
L 525.567085 182.551348 
M 525.732203 182.577178 
L 528.786885 183.55612 
M 528.952003 183.581814 
L 529.529915 183.787243 
M 529.695033 183.812906 
L 534.566013 185.346403 
M 534.731131 185.371856 
L 537.785813 186.336566 
M 537.95093 186.361887 
L 539.189315 186.766555 
M 539.354433 186.791818 
L 540.510259 187.170354 
M 540.675377 187.195563 
L 547.362653 189.251188 
M 547.527771 189.276117 
L 555.948786 191.825956 
M 556.113904 191.850539 
L 559.333704 192.831163 
M 559.498822 192.855611 
L 560.654648 193.221939 
M 560.819766 193.246334 
L 561.727914 193.538826 
M 561.893032 193.563179 
L 562.553504 193.78221 
M 562.718622 193.80653 
L 565.27795 194.583058 
M 565.443068 194.607271 
L 565.855863 194.752479 
M 566.020981 194.776669 
L 567.754719 195.308028 
M 567.919837 195.332143 
L 568.827986 195.621275 
M 568.993104 195.645348 
L 571.139637 196.294106 
M 571.304755 196.318089 
L 571.965227 196.53379 
M 572.130345 196.55774 
L 574.194319 197.17933 
M 574.359437 197.203194 
L 574.854791 197.370152 
M 575.019909 197.39399 
L 576.258293 197.774968 
M 576.423411 197.798752 
L 579.560652 198.723837 
M 579.72577 198.747494 
L 584.183955 200.043716 
M 584.349073 200.067195 
L 589.963083 201.679661 
M 590.128201 201.70292 
L 590.706113 201.888883 
M 590.871231 201.912114 
L 591.449144 202.097852 
M 591.614262 202.121055 
L 592.60497 202.422412 
M 592.770088 202.445572 
L 594.338708 202.90811 
M 594.503826 202.931205 
L 602.016692 205.042662 
M 602.18181 205.065469 
L 603.585313 205.475482 
M 603.750431 205.498231 
L 605.979523 206.133975 
M 606.144641 206.156635 
L 606.309759 206.2246 
M 606.474877 206.247249 
L 609.281882 207.038041 
M 609.447 207.06058 
L 613.822625 208.273225 
M 613.987743 208.295599 
L 615.969159 208.853961 
M 616.134277 208.876257 
L 618.693605 209.588133 
M 618.858723 209.61033 
L 622.491317 210.606109 
M 622.656435 210.628169 
L 624.968087 211.266624 
M 625.133205 211.288596 
L 626.454148 211.661657 
M 626.619266 211.683576 
L 627.444856 211.924483 
M 627.609974 211.946366 
L 629.013476 212.339757 
M 629.178594 212.361584 
L 635.865871 214.141471 
M 636.030989 214.163056 
L 637.51705 214.572623 
M 637.682168 214.59415 
L 641.975235 215.730964 
M 642.140353 215.752335 
L 643.13106 216.029905 
M 643.296178 216.051236 
L 645.442712 216.626103 
M 645.60783 216.647354 
L 651.96487 218.296192 
M 652.129988 218.317219 
L 653.368373 218.653266 
M 653.533491 218.674245 
L 654.111404 218.841976 
M 654.276522 218.86293 
L 655.927701 219.302306 
M 656.092819 219.323198 
L 656.670732 219.490231 
M 656.83585 219.511098 
L 662.44986 220.94414 
M 662.614978 220.964811 
L 663.605685 221.233284 
M 663.770803 221.253917 
L 663.853362 221.295173 
M 664.01848 221.315797 
L 666.825485 222.035896 
M 666.990603 222.056421 
L 667.073162 222.097462 
M 667.23828 222.117978 
L 667.898752 222.3025 
M 668.06387 222.322989 
L 672.604613 223.465975 
M 672.769731 223.486308 
L 676.319767 224.378235 
M 676.484885 224.398444 
L 679.539567 225.16441 
M 679.704685 225.184515 
L 684.162869 226.286098 
M 684.327987 226.306052 
L 684.988459 226.465583 
L 685.153577 240.842242 
L 688.373377 241.560277 
M 688.538495 241.578179 
L 690.932705 242.114107 
M 691.097823 242.131934 
L 693.079238 242.576833 
M 693.244356 242.594598 
L 694.069946 242.789855 
M 694.235064 242.807591 
L 696.629274 243.338574 
M 696.794392 243.356236 
L 699.023484 243.849826 
M 699.188602 243.86742 
L 703.233992 244.744108 
M 703.39911 244.761582 
L 705.132848 245.145411 
M 705.297966 245.162831 
L 706.371233 245.406463 
M 706.536351 245.423847 
L 708.765443 245.909674 
M 708.930561 245.926991 
L 710.499181 246.272846 
M 710.664299 246.290114 
L 716.113191 247.441826 
M 716.278309 247.458937 
L 718.424843 247.920075 
M 718.58996 247.937122 
L 719.167873 248.073416 
M 719.332991 248.090442 
L 722.057437 248.667983 
M 722.222555 248.68493 
L 725.442355 249.36093 
M 725.607473 249.377783 
L 726.020268 249.478857 
M 726.185386 249.495694 
L 726.68074 249.613495 
M 726.845858 249.630314 
L 727.341211 249.747988 
M 727.506329 249.764789 
L 734.028488 251.101621 
M 734.193606 251.118241 
L 736.835493 251.665438 
M 737.000611 251.681982 
L 744.34836 253.161866 
M 744.513478 253.178209 
L 748.146072 253.911369 
M 748.31119 253.927611 
L 750.457724 254.365325 
M 750.622841 254.381507 
L 752.521698 254.769203 
M 752.686816 254.78533 
L 754.090318 255.075244 
M 754.255436 255.09133 
L 758.300826 255.89287 
M 758.465944 255.908846 
L 759.374092 256.10039 
M 759.53921 256.116338 
L 761.520626 256.514344 
M 761.685744 256.530236 
L 763.419482 256.879331 
M 763.5846 256.895174 
L 764.327631 257.053491 
M 764.492749 257.069311 
L 767.547431 257.6689 
M 767.712549 257.684637 
L 769.693964 258.077384 
M 769.859082 258.093066 
L 779.766158 259.975176 
M 779.931276 259.990604 
L 780.756866 260.160169 
M 780.921984 260.175572 
L 782.160369 260.421733 
M 782.325487 260.437101 
L 783.563871 260.6827 
M 783.728989 260.698033 
L 793.883743 262.583379 
M 794.048861 262.598456 
L 794.213979 262.643675 
M 794.379096 262.658744 
L 796.277953 263.019793 
M 796.443071 263.034812 
L 799.910548 263.6787 
M 800.075666 263.69363 
L 804.203614 264.452403 
M 804.368732 264.467229 
L 813.945573 266.188192 
M 814.110691 266.202785 
L 814.688603 266.319456 
M 814.853721 266.334031 
L 815.183957 266.406878 
M 815.349075 266.421441 
L 816.422342 266.625124 
M 816.58746 266.639658 
L 818.073521 266.915435 
M 818.238639 266.92993 
L 821.788675 267.56579 
M 821.953793 267.580197 
L 823.02706 267.781702 
M 823.192178 267.796081 
L 823.687531 267.896678 
M 823.852649 267.911041 
L 825.42127 268.197902 
M 825.586388 268.212224 
L 828.393393 268.712312 
M 828.558511 268.726565 
L 829.549218 268.911689 
M 829.714336 268.925916 
L 829.962013 268.982805 
M 830.127131 268.997022 
L 832.769018 269.465124 
M 832.934136 269.479277 
L 834.007403 269.677213 
M 834.172521 269.691337 
L 834.832993 269.818368 
M 834.998111 269.832473 
L 836.814408 270.156368 
M 836.979526 270.170427 
L 840.364444 270.759231 
M 840.529562 270.77321 
L 844.079597 271.386417 
M 844.244715 271.400311 
L 846.886602 271.857781 
M 847.05172 271.871612 
L 847.712192 271.982194 
L 847.712192 271.982194 
" clip-path="url(#p37a8d28b10)" style="fill: none; stroke-dasharray: 44.8,11.2,7,11.2; stroke-dashoffset: 0; stroke: #ff0000; stroke-opacity: 0.6; stroke-width: 7"/>
   </g>
   <g id="patch_3">
    <path d="M 134.155 612.92 
L 134.155 17.64 
" style="fill: none; stroke: #000000; stroke-width: 0.8; stroke-linejoin: miter; stroke-linecap: square"/>
   </g>
   <g id="patch_4">
    <path d="M 847.629633 612.92 
L 847.629633 17.64 
" style="fill: none; stroke: #000000; stroke-width: 0.8; stroke-linejoin: miter; stroke-linecap: square"/>
   </g>
   <g id="patch_5">
    <path d="M 134.155 612.92 
L 847.629633 612.92 
" style="fill: none; stroke: #000000; stroke-width: 0.8; stroke-linejoin: miter; stroke-linecap: square"/>
   </g>
   <g id="patch_6">
    <path d="M 134.155 17.64 
L 847.629633 17.64 
" style="fill: none; stroke: #000000; stroke-width: 0.8; stroke-linejoin: miter; stroke-linecap: square"/>
   </g>
   <g id="text_12">
    <!-- 4 RMSE: 18.02 m -->
    <g transform="translate(276.849927 493.864) scale(0.1728 -0.1728)">
     <defs>
      <path id="DejaVuSans-52" d="M 2841 2188 
Q 3044 2119 3236 1894 
Q 3428 1669 3622 1275 
L 4263 0 
L 3584 0 
L 2988 1197 
Q 2756 1666 2539 1819 
Q 2322 1972 1947 1972 
L 1259 1972 
L 1259 0 
L 628 0 
L 628 4666 
L 2053 4666 
Q 2853 4666 3247 4331 
Q 3641 3997 3641 3322 
Q 3641 2881 3436 2590 
Q 3231 2300 2841 2188 
z
M 1259 4147 
L 1259 2491 
L 2053 2491 
Q 2509 2491 2742 2702 
Q 2975 2913 2975 3322 
Q 2975 3731 2742 3939 
Q 2509 4147 2053 4147 
L 1259 4147 
z
" transform="scale(0.015625)"/>
      <path id="DejaVuSans-4d" d="M 628 4666 
L 1569 4666 
L 2759 1491 
L 3956 4666 
L 4897 4666 
L 4897 0 
L 4281 0 
L 4281 4097 
L 3078 897 
L 2444 897 
L 1241 4097 
L 1241 0 
L 628 0 
L 628 4666 
z
" transform="scale(0.015625)"/>
      <path id="DejaVuSans-53" d="M 3425 4513 
L 3425 3897 
Q 3066 4069 2747 4153 
Q 2428 4238 2131 4238 
Q 1616 4238 1336 4038 
Q 1056 3838 1056 3469 
Q 1056 3159 1242 3001 
Q 1428 2844 1947 2747 
L 2328 2669 
Q 3034 2534 3370 2195 
Q 3706 1856 3706 1288 
Q 3706 609 3251 259 
Q 2797 -91 1919 -91 
Q 1588 -91 1214 -16 
Q 841 59 441 206 
L 441 856 
Q 825 641 1194 531 
Q 1563 422 1919 422 
Q 2459 422 2753 634 
Q 3047 847 3047 1241 
Q 3047 1584 2836 1778 
Q 2625 1972 2144 2069 
L 1759 2144 
Q 1053 2284 737 2584 
Q 422 2884 422 3419 
Q 422 4038 858 4394 
Q 1294 4750 2059 4750 
Q 2388 4750 2728 4690 
Q 3069 4631 3425 4513 
z
" transform="scale(0.015625)"/>
      <path id="DejaVuSans-45" d="M 628 4666 
L 3578 4666 
L 3578 4134 
L 1259 4134 
L 1259 2753 
L 3481 2753 
L 3481 2222 
L 1259 2222 
L 1259 531 
L 3634 531 
L 3634 0 
L 628 0 
L 628 4666 
z
" transform="scale(0.015625)"/>
      <path id="DejaVuSans-3a" d="M 750 794 
L 1409 794 
L 1409 0 
L 750 0 
L 750 794 
z
M 750 3309 
L 1409 3309 
L 1409 2516 
L 750 2516 
L 750 3309 
z
" transform="scale(0.015625)"/>
     </defs>
     <use xlink:href="#DejaVuSans-34"/>
     <use xlink:href="#DejaVuSans-20" x="63.623047"/>
     <use xlink:href="#DejaVuSans-52" x="95.410156"/>
     <use xlink:href="#DejaVuSans-4d" x="164.892578"/>
     <use xlink:href="#DejaVuSans-53" x="251.171875"/>
     <use xlink:href="#DejaVuSans-45" x="314.648438"/>
     <use xlink:href="#DejaVuSans-3a" x="377.832031"/>
     <use xlink:href="#DejaVuSans-20" x="411.523438"/>
     <use xlink:href="#DejaVuSans-31" x="443.310547"/>
     <use xlink:href="#DejaVuSans-38" x="506.933594"/>
     <use xlink:href="#DejaVuSans-2e" x="570.556641"/>
     <use xlink:href="#DejaVuSans-30" x="602.34375"/>
     <use xlink:href="#DejaVuSans-32" x="665.966797"/>
     <use xlink:href="#DejaVuSans-20" x="729.589844"/>
     <use xlink:href="#DejaVuSans-6d" x="761.376953"/>
    </g>
   </g>
   <g id="text_13">
    <!-- 6 RMSE: 16.34 m -->
    <g transform="translate(276.849927 523.628) scale(0.1728 -0.1728)">
     <defs>
      <path id="DejaVuSans-36" d="M 2113 2584 
Q 1688 2584 1439 2293 
Q 1191 2003 1191 1497 
Q 1191 994 1439 701 
Q 1688 409 2113 409 
Q 2538 409 2786 701 
Q 3034 994 3034 1497 
Q 3034 2003 2786 2293 
Q 2538 2584 2113 2584 
z
M 3366 4563 
L 3366 3988 
Q 3128 4100 2886 4159 
Q 2644 4219 2406 4219 
Q 1781 4219 1451 3797 
Q 1122 3375 1075 2522 
Q 1259 2794 1537 2939 
Q 1816 3084 2150 3084 
Q 2853 3084 3261 2657 
Q 3669 2231 3669 1497 
Q 3669 778 3244 343 
Q 2819 -91 2113 -91 
Q 1303 -91 875 529 
Q 447 1150 447 2328 
Q 447 3434 972 4092 
Q 1497 4750 2381 4750 
Q 2619 4750 2861 4703 
Q 3103 4656 3366 4563 
z
" transform="scale(0.015625)"/>
     </defs>
     <use xlink:href="#DejaVuSans-36"/>
     <use xlink:href="#DejaVuSans-20" x="63.623047"/>
     <use xlink:href="#DejaVuSans-52" x="95.410156"/>
     <use xlink:href="#DejaVuSans-4d" x="164.892578"/>
     <use xlink:href="#DejaVuSans-53" x="251.171875"/>
     <use xlink:href="#DejaVuSans-45" x="314.648438"/>
     <use xlink:href="#DejaVuSans-3a" x="377.832031"/>
     <use xlink:href="#DejaVuSans-20" x="411.523438"/>
     <use xlink:href="#DejaVuSans-31" x="443.310547"/>
     <use xlink:href="#DejaVuSans-36" x="506.933594"/>
     <use xlink:href="#DejaVuSans-2e" x="570.556641"/>
     <use xlink:href="#DejaVuSans-33" x="602.34375"/>
     <use xlink:href="#DejaVuSans-34" x="665.966797"/>
     <use xlink:href="#DejaVuSans-20" x="729.589844"/>
     <use xlink:href="#DejaVuSans-6d" x="761.376953"/>
    </g>
   </g>
   <g id="text_14">
    <!-- 7 RMSE: 13.99 m -->
    <g transform="translate(276.849927 553.392) scale(0.1728 -0.1728)">
     <use xlink:href="#DejaVuSans-37"/>
     <use xlink:href="#DejaVuSans-20" x="63.623047"/>
     <use xlink:href="#DejaVuSans-52" x="95.410156"/>
     <use xlink:href="#DejaVuSans-4d" x="164.892578"/>
     <use xlink:href="#DejaVuSans-53" x="251.171875"/>
     <use xlink:href="#DejaVuSans-45" x="314.648438"/>
     <use xlink:href="#DejaVuSans-3a" x="377.832031"/>
     <use xlink:href="#DejaVuSans-20" x="411.523438"/>
     <use xlink:href="#DejaVuSans-31" x="443.310547"/>
     <use xlink:href="#DejaVuSans-33" x="506.933594"/>
     <use xlink:href="#DejaVuSans-2e" x="570.556641"/>
     <use xlink:href="#DejaVuSans-39" x="602.34375"/>
     <use xlink:href="#DejaVuSans-39" x="665.966797"/>
     <use xlink:href="#DejaVuSans-20" x="729.589844"/>
     <use xlink:href="#DejaVuSans-6d" x="761.376953"/>
    </g>
   </g>
   <g id="text_15">
    <!-- 7 -->
    <g transform="translate(498.027063 464.1) scale(0.1728 -0.1728)">
     <use xlink:href="#DejaVuSans-37"/>
    </g>
   </g>
   <g id="text_16">
    <!-- 8 -->
    <g transform="translate(562.23978 464.1) scale(0.1728 -0.1728)">
     <use xlink:href="#DejaVuSans-38"/>
    </g>
   </g>
   <g id="text_17">
    <!-- 6 -->
    <g transform="translate(526.566048 523.628) scale(0.1728 -0.1728)">
     <use xlink:href="#DejaVuSans-36"/>
    </g>
   </g>
   <g id="text_18">
    <!-- 4 -->
    <g transform="translate(526.566048 583.156) scale(0.1728 -0.1728)">
     <use xlink:href="#DejaVuSans-34"/>
    </g>
   </g>
   <g id="legend_1">
    <g id="patch_7">
     <path d="M 146.251 132.9192 
L 244.1017 132.9192 
Q 247.5577 132.9192 247.5577 129.4632 
L 247.5577 29.736 
Q 247.5577 26.28 244.1017 26.28 
L 146.251 26.28 
Q 142.795 26.28 142.795 29.736 
L 142.795 129.4632 
Q 142.795 132.9192 146.251 132.9192 
z
" style="fill: #ffffff; opacity: 0.8; stroke: #cccccc; stroke-linejoin: miter"/>
    </g>
    <g id="line2d_15">
     <path d="M 149.707 40.2741 
L 166.987 40.2741 
L 184.267 40.2741 
" style="fill: none; stroke: #000000; stroke-opacity: 0.6; stroke-width: 7; stroke-linecap: square"/>
    </g>
    <g id="text_19">
     <!-- truth -->
     <g transform="translate(198.091 46.3221) scale(0.1728 -0.1728)">
      <defs>
       <path id="DejaVuSans-72" d="M 2631 2963 
Q 2534 3019 2420 3045 
Q 2306 3072 2169 3072 
Q 1681 3072 1420 2755 
Q 1159 2438 1159 1844 
L 1159 0 
L 581 0 
L 581 3500 
L 1159 3500 
L 1159 2956 
Q 1341 3275 1631 3429 
Q 1922 3584 2338 3584 
Q 2397 3584 2469 3576 
Q 2541 3569 2628 3553 
L 2631 2963 
z
" transform="scale(0.015625)"/>
       <path id="DejaVuSans-75" d="M 544 1381 
L 544 3500 
L 1119 3500 
L 1119 1403 
Q 1119 906 1312 657 
Q 1506 409 1894 409 
Q 2359 409 2629 706 
Q 2900 1003 2900 1516 
L 2900 3500 
L 3475 3500 
L 3475 0 
L 2900 0 
L 2900 538 
Q 2691 219 2414 64 
Q 2138 -91 1772 -91 
Q 1169 -91 856 284 
Q 544 659 544 1381 
z
M 1991 3584 
L 1991 3584 
z
" transform="scale(0.015625)"/>
      </defs>
      <use xlink:href="#DejaVuSans-74"/>
      <use xlink:href="#DejaVuSans-72" x="39.208984"/>
      <use xlink:href="#DejaVuSans-75" x="80.322266"/>
      <use xlink:href="#DejaVuSans-74" x="143.701172"/>
      <use xlink:href="#DejaVuSans-68" x="182.910156"/>
     </g>
    </g>
    <g id="line2d_16">
     <path d="M 149.707 65.6379 
L 166.987 65.6379 
L 184.267 65.6379 
" style="fill: none; stroke-dasharray: 25.9,11.2; stroke-dashoffset: 0; stroke: #0000ff; stroke-opacity: 0.6; stroke-width: 7"/>
    </g>
    <g id="text_20">
     <!-- 4 -->
     <g transform="translate(198.091 71.6859) scale(0.1728 -0.1728)">
      <use xlink:href="#DejaVuSans-34"/>
     </g>
    </g>
    <g id="line2d_17">
     <path d="M 149.707 91.0017 
L 166.987 91.0017 
L 184.267 91.0017 
" style="fill: none; stroke-dasharray: 7,11.55; stroke-dashoffset: 0; stroke: #008000; stroke-opacity: 0.6; stroke-width: 7"/>
    </g>
    <g id="text_21">
     <!-- 6 -->
     <g transform="translate(198.091 97.0497) scale(0.1728 -0.1728)">
      <use xlink:href="#DejaVuSans-36"/>
     </g>
    </g>
    <g id="line2d_18">
     <path d="M 149.707 116.3655 
L 166.987 116.3655 
L 184.267 116.3655 
" style="fill: none; stroke-dasharray: 44.8,11.2,7,11.2; stroke-dashoffset: 0; stroke: #ff0000; stroke-opacity: 0.6; stroke-width: 7"/>
    </g>
    <g id="text_22">
     <!-- 7 -->
     <g transform="translate(198.091 122.4135) scale(0.1728 -0.1728)">
      <use xlink:href="#DejaVuSans-37"/>
     </g>
    </g>
   </g>
  </g>
  <g id="line2d_19">
   <path d="M 512.296556 470.0528 
L 526.566048 511.7224 
" style="fill: none; stroke: #000000; stroke-opacity: 0.5; stroke-width: 2; stroke-linecap: square"/>
  </g>
  <g id="line2d_20">
   <path d="M 562.23978 464.1 
L 540.835541 511.7224 
" style="fill: none; stroke: #000000; stroke-opacity: 0.5; stroke-width: 2; stroke-linecap: square"/>
  </g>
  <g id="line2d_21">
   <path d="M 533.700795 529.5808 
L 533.700795 559.3448 
" style="fill: none; stroke: #000000; stroke-opacity: 0.5; stroke-width: 2; stroke-linecap: square"/>
  </g>
 </g>
 <defs>
  <clipPath id="p37a8d28b10">
   <rect x="134.155" y="17.64" width="713.474633" height="595.28"/>
  </clipPath>
 </defs>
</svg>
