<?xml version="1.0" encoding="utf-8" standalone="no"?>
<!DOCTYPE svg PUBLIC "-//W3C//DTD SVG 1.1//EN"
  "http://www.w3.org/Graphics/SVG/1.1/DTD/svg11.dtd">
<svg xmlns:xlink="http://www.w3.org/1999/xlink" width="864pt" height="648pt" viewBox="0 0 864 648" xmlns="http://www.w3.org/2000/svg" version="1.1">
 <metadata>
  <rdf:RDF xmlns:dc="http://purl.org/dc/elements/1.1/" xmlns:cc="http://creativecommons.org/ns#" xmlns:rdf="http://www.w3.org/1999/02/22-rdf-syntax-ns#">
   <cc:Work>
    <dc:type rdf:resource="http://purl.org/dc/dcmitype/StillImage"/>
    <dc:date>2024-11-06T11:50:41.918608</dc:date>
    <dc:format>image/svg+xml</dc:format>
    <dc:creator>
     <cc:Agent>
      <dc:title>Matplotlib v3.9.2, https://matplotlib.org/</dc:title>
     </cc:Agent>
    </dc:creator>
   </cc:Work>
  </rdf:RDF>
 </metadata>
 <defs>
  <style type="text/css">*{stroke-linejoin: round; stroke-linecap: butt}</style>
 </defs>
 <g id="figure_1">
  <g id="patch_1">
   <path d="M 0 648 
L 864 648 
L 864 0 
L 0 0 
z
" style="fill: #ffffff"/>
  </g>
  <g id="axes_1">
   <g id="patch_2">
    <path d="M 117.505 612.92 
L 853.2 612.92 
L 853.2 10.8 
L 117.505 10.8 
z
" style="fill: #ffffff"/>
   </g>
   <g id="matplotlib.axis_1">
    <g id="xtick_1">
     <g id="line2d_1">
      <defs>
       <path id="m28fe07bd5d" d="M 0 0 
L 0 3.5 
" style="stroke: #000000; stroke-width: 0.8"/>
      </defs>
      <g>
       <use xlink:href="#m28fe07bd5d" x="222.569542" y="612.92" style="stroke: #000000; stroke-width: 0.8"/>
      </g>
     </g>
     <g id="text_1">
      <!-- 2020-06-22 -->
      <g transform="translate(172.357642 633.0501) scale(0.1728 -0.1728)">
       <defs>
        <path id="DejaVuSans-32" d="M 1228 531 
L 3431 531 
L 3431 0 
L 469 0 
L 469 531 
Q 828 903 1448 1529 
Q 2069 2156 2228 2338 
Q 2531 2678 2651 2914 
Q 2772 3150 2772 3378 
Q 2772 3750 2511 3984 
Q 2250 4219 1831 4219 
Q 1534 4219 1204 4116 
Q 875 4013 500 3803 
L 500 4441 
Q 881 4594 1212 4672 
Q 1544 4750 1819 4750 
Q 2544 4750 2975 4387 
Q 3406 4025 3406 3419 
Q 3406 3131 3298 2873 
Q 3191 2616 2906 2266 
Q 2828 2175 2409 1742 
Q 1991 1309 1228 531 
z
" transform="scale(0.015625)"/>
        <path id="DejaVuSans-30" d="M 2034 4250 
Q 1547 4250 1301 3770 
Q 1056 3291 1056 2328 
Q 1056 1369 1301 889 
Q 1547 409 2034 409 
Q 2525 409 2770 889 
Q 3016 1369 3016 2328 
Q 3016 3291 2770 3770 
Q 2525 4250 2034 4250 
z
M 2034 4750 
Q 2819 4750 3233 4129 
Q 3647 3509 3647 2328 
Q 3647 1150 3233 529 
Q 2819 -91 2034 -91 
Q 1250 -91 836 529 
Q 422 1150 422 2328 
Q 422 3509 836 4129 
Q 1250 4750 2034 4750 
z
" transform="scale(0.015625)"/>
        <path id="DejaVuSans-2d" d="M 313 2009 
L 1997 2009 
L 1997 1497 
L 313 1497 
L 313 2009 
z
" transform="scale(0.015625)"/>
        <path id="DejaVuSans-36" d="M 2113 2584 
Q 1688 2584 1439 2293 
Q 1191 2003 1191 1497 
Q 1191 994 1439 701 
Q 1688 409 2113 409 
Q 2538 409 2786 701 
Q 3034 994 3034 1497 
Q 3034 2003 2786 2293 
Q 2538 2584 2113 2584 
z
M 3366 4563 
L 3366 3988 
Q 3128 4100 2886 4159 
Q 2644 4219 2406 4219 
Q 1781 4219 1451 3797 
Q 1122 3375 1075 2522 
Q 1259 2794 1537 2939 
Q 1816 3084 2150 3084 
Q 2853 3084 3261 2657 
Q 3669 2231 3669 1497 
Q 3669 778 3244 343 
Q 2819 -91 2113 -91 
Q 1303 -91 875 529 
Q 447 1150 447 2328 
Q 447 3434 972 4092 
Q 1497 4750 2381 4750 
Q 2619 4750 2861 4703 
Q 3103 4656 3366 4563 
z
" transform="scale(0.015625)"/>
       </defs>
       <use xlink:href="#DejaVuSans-32"/>
       <use xlink:href="#DejaVuSans-30" x="63.623047"/>
       <use xlink:href="#DejaVuSans-32" x="127.246094"/>
       <use xlink:href="#DejaVuSans-30" x="190.869141"/>
       <use xlink:href="#DejaVuSans-2d" x="254.492188"/>
       <use xlink:href="#DejaVuSans-30" x="290.576172"/>
       <use xlink:href="#DejaVuSans-36" x="354.199219"/>
       <use xlink:href="#DejaVuSans-2d" x="417.822266"/>
       <use xlink:href="#DejaVuSans-32" x="453.90625"/>
       <use xlink:href="#DejaVuSans-32" x="517.529297"/>
      </g>
     </g>
    </g>
    <g id="xtick_2">
     <g id="line2d_2">
      <g>
       <use xlink:href="#m28fe07bd5d" x="397.677112" y="612.92" style="stroke: #000000; stroke-width: 0.8"/>
      </g>
     </g>
     <g id="text_2">
      <!-- 2020-06-27 -->
      <g transform="translate(347.465212 633.0501) scale(0.1728 -0.1728)">
       <defs>
        <path id="DejaVuSans-37" d="M 525 4666 
L 3525 4666 
L 3525 4397 
L 1831 0 
L 1172 0 
L 2766 4134 
L 525 4134 
L 525 4666 
z
" transform="scale(0.015625)"/>
       </defs>
       <use xlink:href="#DejaVuSans-32"/>
       <use xlink:href="#DejaVuSans-30" x="63.623047"/>
       <use xlink:href="#DejaVuSans-32" x="127.246094"/>
       <use xlink:href="#DejaVuSans-30" x="190.869141"/>
       <use xlink:href="#DejaVuSans-2d" x="254.492188"/>
       <use xlink:href="#DejaVuSans-30" x="290.576172"/>
       <use xlink:href="#DejaVuSans-36" x="354.199219"/>
       <use xlink:href="#DejaVuSans-2d" x="417.822266"/>
       <use xlink:href="#DejaVuSans-32" x="453.90625"/>
       <use xlink:href="#DejaVuSans-37" x="517.529297"/>
      </g>
     </g>
    </g>
    <g id="xtick_3">
     <g id="line2d_3">
      <g>
       <use xlink:href="#m28fe07bd5d" x="572.784683" y="612.92" style="stroke: #000000; stroke-width: 0.8"/>
      </g>
     </g>
     <g id="text_3">
      <!-- 2020-07-02 -->
      <g transform="translate(522.572783 633.0501) scale(0.1728 -0.1728)">
       <use xlink:href="#DejaVuSans-32"/>
       <use xlink:href="#DejaVuSans-30" x="63.623047"/>
       <use xlink:href="#DejaVuSans-32" x="127.246094"/>
       <use xlink:href="#DejaVuSans-30" x="190.869141"/>
       <use xlink:href="#DejaVuSans-2d" x="254.492188"/>
       <use xlink:href="#DejaVuSans-30" x="290.576172"/>
       <use xlink:href="#DejaVuSans-37" x="354.199219"/>
       <use xlink:href="#DejaVuSans-2d" x="417.822266"/>
       <use xlink:href="#DejaVuSans-30" x="453.90625"/>
       <use xlink:href="#DejaVuSans-32" x="517.529297"/>
      </g>
     </g>
    </g>
    <g id="xtick_4">
     <g id="line2d_4">
      <g>
       <use xlink:href="#m28fe07bd5d" x="747.892253" y="612.92" style="stroke: #000000; stroke-width: 0.8"/>
      </g>
     </g>
     <g id="text_4">
      <!-- 2020-07-07 -->
      <g transform="translate(697.680353 633.0501) scale(0.1728 -0.1728)">
       <use xlink:href="#DejaVuSans-32"/>
       <use xlink:href="#DejaVuSans-30" x="63.623047"/>
       <use xlink:href="#DejaVuSans-32" x="127.246094"/>
       <use xlink:href="#DejaVuSans-30" x="190.869141"/>
       <use xlink:href="#DejaVuSans-2d" x="254.492188"/>
       <use xlink:href="#DejaVuSans-30" x="290.576172"/>
       <use xlink:href="#DejaVuSans-37" x="354.199219"/>
       <use xlink:href="#DejaVuSans-2d" x="417.822266"/>
       <use xlink:href="#DejaVuSans-30" x="453.90625"/>
       <use xlink:href="#DejaVuSans-37" x="517.529297"/>
      </g>
     </g>
    </g>
   </g>
   <g id="matplotlib.axis_2">
    <g id="ytick_1">
     <g id="line2d_5">
      <defs>
       <path id="mcb1c0a05da" d="M 0 0 
L -3.5 0 
" style="stroke: #000000; stroke-width: 0.8"/>
      </defs>
      <g>
       <use xlink:href="#mcb1c0a05da" x="117.505" y="612.92" style="stroke: #000000; stroke-width: 0.8"/>
      </g>
     </g>
     <g id="text_5">
      <!-- −1 -->
      <g transform="translate(85.0305 619.48505) scale(0.1728 -0.1728)">
       <defs>
        <path id="DejaVuSans-2212" d="M 678 2272 
L 4684 2272 
L 4684 1741 
L 678 1741 
L 678 2272 
z
" transform="scale(0.015625)"/>
        <path id="DejaVuSans-31" d="M 794 531 
L 1825 531 
L 1825 4091 
L 703 3866 
L 703 4441 
L 1819 4666 
L 2450 4666 
L 2450 531 
L 3481 531 
L 3481 0 
L 794 0 
L 794 531 
z
" transform="scale(0.015625)"/>
       </defs>
       <use xlink:href="#DejaVuSans-2212"/>
       <use xlink:href="#DejaVuSans-31" x="83.789062"/>
      </g>
     </g>
    </g>
    <g id="ytick_2">
     <g id="line2d_6">
      <g>
       <use xlink:href="#mcb1c0a05da" x="117.505" y="486.157895" style="stroke: #000000; stroke-width: 0.8"/>
      </g>
     </g>
     <g id="text_6">
      <!-- 0 -->
      <g transform="translate(99.5106 492.722945) scale(0.1728 -0.1728)">
       <use xlink:href="#DejaVuSans-30"/>
      </g>
     </g>
    </g>
    <g id="ytick_3">
     <g id="line2d_7">
      <g>
       <use xlink:href="#mcb1c0a05da" x="117.505" y="359.395789" style="stroke: #000000; stroke-width: 0.8"/>
      </g>
     </g>
     <g id="text_7">
      <!-- 1 -->
      <g transform="translate(99.5106 365.960839) scale(0.1728 -0.1728)">
       <use xlink:href="#DejaVuSans-31"/>
      </g>
     </g>
    </g>
    <g id="ytick_4">
     <g id="line2d_8">
      <g>
       <use xlink:href="#mcb1c0a05da" x="117.505" y="232.633684" style="stroke: #000000; stroke-width: 0.8"/>
      </g>
     </g>
     <g id="text_8">
      <!-- 2 -->
      <g transform="translate(99.5106 239.198734) scale(0.1728 -0.1728)">
       <use xlink:href="#DejaVuSans-32"/>
      </g>
     </g>
    </g>
    <g id="ytick_5">
     <g id="line2d_9">
      <g>
       <use xlink:href="#mcb1c0a05da" x="117.505" y="105.871579" style="stroke: #000000; stroke-width: 0.8"/>
      </g>
     </g>
     <g id="text_9">
      <!-- 3 -->
      <g transform="translate(99.5106 112.436629) scale(0.1728 -0.1728)">
       <defs>
        <path id="DejaVuSans-33" d="M 2597 2516 
Q 3050 2419 3304 2112 
Q 3559 1806 3559 1356 
Q 3559 666 3084 287 
Q 2609 -91 1734 -91 
Q 1441 -91 1130 -33 
Q 819 25 488 141 
L 488 750 
Q 750 597 1062 519 
Q 1375 441 1716 441 
Q 2309 441 2620 675 
Q 2931 909 2931 1356 
Q 2931 1769 2642 2001 
Q 2353 2234 1838 2234 
L 1294 2234 
L 1294 2753 
L 1863 2753 
Q 2328 2753 2575 2939 
Q 2822 3125 2822 3475 
Q 2822 3834 2567 4026 
Q 2313 4219 1838 4219 
Q 1578 4219 1281 4162 
Q 984 4106 628 3988 
L 628 4550 
Q 988 4650 1302 4700 
Q 1616 4750 1894 4750 
Q 2613 4750 3031 4423 
Q 3450 4097 3450 3541 
Q 3450 3153 3228 2886 
Q 3006 2619 2597 2516 
z
" transform="scale(0.015625)"/>
       </defs>
       <use xlink:href="#DejaVuSans-33"/>
      </g>
     </g>
    </g>
    <g id="text_10">
     <!-- Node 8 -->
     <g transform="translate(24.23565 288.91648) scale(0.1728 -0.1728)">
      <defs>
       <path id="DejaVuSans-4e" d="M 628 4666 
L 1478 4666 
L 3547 763 
L 3547 4666 
L 4159 4666 
L 4159 0 
L 3309 0 
L 1241 3903 
L 1241 0 
L 628 0 
L 628 4666 
z
" transform="scale(0.015625)"/>
       <path id="DejaVuSans-6f" d="M 1959 3097 
Q 1497 3097 1228 2736 
Q 959 2375 959 1747 
Q 959 1119 1226 758 
Q 1494 397 1959 397 
Q 2419 397 2687 759 
Q 2956 1122 2956 1747 
Q 2956 2369 2687 2733 
Q 2419 3097 1959 3097 
z
M 1959 3584 
Q 2709 3584 3137 3096 
Q 3566 2609 3566 1747 
Q 3566 888 3137 398 
Q 2709 -91 1959 -91 
Q 1206 -91 779 398 
Q 353 888 353 1747 
Q 353 2609 779 3096 
Q 1206 3584 1959 3584 
z
" transform="scale(0.015625)"/>
       <path id="DejaVuSans-64" d="M 2906 2969 
L 2906 4863 
L 3481 4863 
L 3481 0 
L 2906 0 
L 2906 525 
Q 2725 213 2448 61 
Q 2172 -91 1784 -91 
Q 1150 -91 751 415 
Q 353 922 353 1747 
Q 353 2572 751 3078 
Q 1150 3584 1784 3584 
Q 2172 3584 2448 3432 
Q 2725 3281 2906 2969 
z
M 947 1747 
Q 947 1113 1208 752 
Q 1469 391 1925 391 
Q 2381 391 2643 752 
Q 2906 1113 2906 1747 
Q 2906 2381 2643 2742 
Q 2381 3103 1925 3103 
Q 1469 3103 1208 2742 
Q 947 2381 947 1747 
z
" transform="scale(0.015625)"/>
       <path id="DejaVuSans-65" d="M 3597 1894 
L 3597 1613 
L 953 1613 
Q 991 1019 1311 708 
Q 1631 397 2203 397 
Q 2534 397 2845 478 
Q 3156 559 3463 722 
L 3463 178 
Q 3153 47 2828 -22 
Q 2503 -91 2169 -91 
Q 1331 -91 842 396 
Q 353 884 353 1716 
Q 353 2575 817 3079 
Q 1281 3584 2069 3584 
Q 2775 3584 3186 3129 
Q 3597 2675 3597 1894 
z
M 3022 2063 
Q 3016 2534 2758 2815 
Q 2500 3097 2075 3097 
Q 1594 3097 1305 2825 
Q 1016 2553 972 2059 
L 3022 2063 
z
" transform="scale(0.015625)"/>
       <path id="DejaVuSans-20" transform="scale(0.015625)"/>
       <path id="DejaVuSans-38" d="M 2034 2216 
Q 1584 2216 1326 1975 
Q 1069 1734 1069 1313 
Q 1069 891 1326 650 
Q 1584 409 2034 409 
Q 2484 409 2743 651 
Q 3003 894 3003 1313 
Q 3003 1734 2745 1975 
Q 2488 2216 2034 2216 
z
M 1403 2484 
Q 997 2584 770 2862 
Q 544 3141 544 3541 
Q 544 4100 942 4425 
Q 1341 4750 2034 4750 
Q 2731 4750 3128 4425 
Q 3525 4100 3525 3541 
Q 3525 3141 3298 2862 
Q 3072 2584 2669 2484 
Q 3125 2378 3379 2068 
Q 3634 1759 3634 1313 
Q 3634 634 3220 271 
Q 2806 -91 2034 -91 
Q 1263 -91 848 271 
Q 434 634 434 1313 
Q 434 1759 690 2068 
Q 947 2378 1403 2484 
z
M 1172 3481 
Q 1172 3119 1398 2916 
Q 1625 2713 2034 2713 
Q 2441 2713 2670 2916 
Q 2900 3119 2900 3481 
Q 2900 3844 2670 4047 
Q 2441 4250 2034 4250 
Q 1625 4250 1398 4047 
Q 1172 3844 1172 3481 
z
" transform="scale(0.015625)"/>
      </defs>
      <use xlink:href="#DejaVuSans-4e"/>
      <use xlink:href="#DejaVuSans-6f" x="74.804688"/>
      <use xlink:href="#DejaVuSans-64" x="135.986328"/>
      <use xlink:href="#DejaVuSans-65" x="199.462891"/>
      <use xlink:href="#DejaVuSans-20" x="260.986328"/>
      <use xlink:href="#DejaVuSans-38" x="292.773438"/>
     </g>
     <!-- Depth (m) -->
     <g transform="translate(10.8099 308.2663) scale(0.1728 -0.1728)">
      <defs>
       <path id="DejaVuSans-44" d="M 1259 4147 
L 1259 519 
L 2022 519 
Q 2988 519 3436 956 
Q 3884 1394 3884 2338 
Q 3884 3275 3436 3711 
Q 2988 4147 2022 4147 
L 1259 4147 
z
M 628 4666 
L 1925 4666 
Q 3281 4666 3915 4102 
Q 4550 3538 4550 2338 
Q 4550 1131 3912 565 
Q 3275 0 1925 0 
L 628 0 
L 628 4666 
z
" transform="scale(0.015625)"/>
       <path id="DejaVuSans-70" d="M 1159 525 
L 1159 -1331 
L 581 -1331 
L 581 3500 
L 1159 3500 
L 1159 2969 
Q 1341 3281 1617 3432 
Q 1894 3584 2278 3584 
Q 2916 3584 3314 3078 
Q 3713 2572 3713 1747 
Q 3713 922 3314 415 
Q 2916 -91 2278 -91 
Q 1894 -91 1617 61 
Q 1341 213 1159 525 
z
M 3116 1747 
Q 3116 2381 2855 2742 
Q 2594 3103 2138 3103 
Q 1681 3103 1420 2742 
Q 1159 2381 1159 1747 
Q 1159 1113 1420 752 
Q 1681 391 2138 391 
Q 2594 391 2855 752 
Q 3116 1113 3116 1747 
z
" transform="scale(0.015625)"/>
       <path id="DejaVuSans-74" d="M 1172 4494 
L 1172 3500 
L 2356 3500 
L 2356 3053 
L 1172 3053 
L 1172 1153 
Q 1172 725 1289 603 
Q 1406 481 1766 481 
L 2356 481 
L 2356 0 
L 1766 0 
Q 1100 0 847 248 
Q 594 497 594 1153 
L 594 3053 
L 172 3053 
L 172 3500 
L 594 3500 
L 594 4494 
L 1172 4494 
z
" transform="scale(0.015625)"/>
       <path id="DejaVuSans-68" d="M 3513 2113 
L 3513 0 
L 2938 0 
L 2938 2094 
Q 2938 2591 2744 2837 
Q 2550 3084 2163 3084 
Q 1697 3084 1428 2787 
Q 1159 2491 1159 1978 
L 1159 0 
L 581 0 
L 581 4863 
L 1159 4863 
L 1159 2956 
Q 1366 3272 1645 3428 
Q 1925 3584 2291 3584 
Q 2894 3584 3203 3211 
Q 3513 2838 3513 2113 
z
" transform="scale(0.015625)"/>
       <path id="DejaVuSans-28" d="M 1984 4856 
Q 1566 4138 1362 3434 
Q 1159 2731 1159 2009 
Q 1159 1288 1364 580 
Q 1569 -128 1984 -844 
L 1484 -844 
Q 1016 -109 783 600 
Q 550 1309 550 2009 
Q 550 2706 781 3412 
Q 1013 4119 1484 4856 
L 1984 4856 
z
" transform="scale(0.015625)"/>
       <path id="DejaVuSans-6d" d="M 3328 2828 
Q 3544 3216 3844 3400 
Q 4144 3584 4550 3584 
Q 5097 3584 5394 3201 
Q 5691 2819 5691 2113 
L 5691 0 
L 5113 0 
L 5113 2094 
Q 5113 2597 4934 2840 
Q 4756 3084 4391 3084 
Q 3944 3084 3684 2787 
Q 3425 2491 3425 1978 
L 3425 0 
L 2847 0 
L 2847 2094 
Q 2847 2600 2669 2842 
Q 2491 3084 2119 3084 
Q 1678 3084 1418 2786 
Q 1159 2488 1159 1978 
L 1159 0 
L 581 0 
L 581 3500 
L 1159 3500 
L 1159 2956 
Q 1356 3278 1631 3431 
Q 1906 3584 2284 3584 
Q 2666 3584 2933 3390 
Q 3200 3197 3328 2828 
z
" transform="scale(0.015625)"/>
       <path id="DejaVuSans-29" d="M 513 4856 
L 1013 4856 
Q 1481 4119 1714 3412 
Q 1947 2706 1947 2009 
Q 1947 1309 1714 600 
Q 1481 -109 1013 -844 
L 513 -844 
Q 928 -128 1133 580 
Q 1338 1288 1338 2009 
Q 1338 2731 1133 3434 
Q 928 4138 513 4856 
z
" transform="scale(0.015625)"/>
      </defs>
      <use xlink:href="#DejaVuSans-44"/>
      <use xlink:href="#DejaVuSans-65" x="77.001953"/>
      <use xlink:href="#DejaVuSans-70" x="138.525391"/>
      <use xlink:href="#DejaVuSans-74" x="202.001953"/>
      <use xlink:href="#DejaVuSans-68" x="241.210938"/>
      <use xlink:href="#DejaVuSans-20" x="304.589844"/>
      <use xlink:href="#DejaVuSans-28" x="336.376953"/>
      <use xlink:href="#DejaVuSans-6d" x="375.390625"/>
      <use xlink:href="#DejaVuSans-29" x="472.802734"/>
     </g>
    </g>
   </g>
   <g id="line2d_10">
    <path d="M 117.383398 438.64559 
L 118.234615 438.645588 
M 118.47782 438.645588 
L 118.721025 438.645587 
M 118.96423 438.645586 
L 121.517882 438.645574 
M 121.761087 438.645574 
L 130.394863 438.645545 
M 130.638068 438.645545 
L 130.881273 438.645544 
M 131.124478 438.645544 
L 134.042937 438.645536 
M 134.286142 438.645535 
L 138.420626 438.645521 
M 138.663831 438.64552 
L 143.649533 438.645504 
M 143.892738 438.645504 
L 147.297607 438.645494 
M 147.540812 438.645494 
L 152.404912 438.645483 
M 152.648117 438.645483 
L 153.742539 438.645478 
M 153.985744 438.645478 
L 155.080166 438.645476 
M 155.323371 438.645476 
L 163.713942 438.645453 
M 163.957147 438.645452 
L 171.739706 438.645436 
M 171.982911 438.645435 
L 175.266178 438.645427 
M 175.509383 438.645427 
L 177.090215 438.645425 
M 177.33342 438.645424 
L 177.941432 438.645423 
M 178.184637 438.645423 
L 180.981494 438.645416 
M 181.224699 438.645416 
L 183.048736 438.645413 
M 183.291941 438.645412 
L 185.237581 438.645407 
M 185.480786 438.645407 
L 188.64245 438.6454 
M 188.885655 438.6454 
L 191.0745 438.645396 
M 191.317705 438.645396 
L 193.628152 438.645392 
M 193.871357 438.645391 
L 196.425009 438.645388 
M 196.668214 438.645388 
L 198.005841 438.645383 
M 198.249046 438.645383 
L 202.86994 438.645374 
M 203.113145 438.645374 
L 204.693978 438.645372 
M 204.937183 438.645372 
L 206.518015 438.64537 
M 206.76122 438.645367 
L 208.70686 438.645365 
M 208.950064 438.645365 
L 216.124611 438.645353 
M 216.367816 438.645353 
L 220.01589 438.645346 
M 220.259095 438.645346 
L 223.542362 438.588295 
L 223.663964 438.152559 
L 224.150374 435.196516 
L 224.393579 433.808455 
L 224.758387 430.913623 
L 225.123194 429.181349 
L 225.488002 426.617415 
L 225.609604 426.009303 
M 225.852809 425.829773 
L 226.217617 425.552389 
L 226.582424 425.461662 
M 226.825629 425.463339 
L 227.798449 425.623298 
L 230.108896 426.311154 
L 235.581007 427.924762 
L 236.18902 428.11301 
M 236.432225 428.146727 
L 239.958697 428.986391 
M 240.201902 429.014365 
L 244.944398 429.883862 
L 250.173305 430.612383 
L 255.280609 431.153912 
M 255.767019 431.186113 
L 260.023106 431.471546 
L 260.144708 431.132913 
L 260.631118 428.767536 
L 260.995926 428.233469 
L 261.482336 427.882158 
L 261.72554 426.62356 
L 261.968745 425.363313 
L 262.333553 424.696539 
L 262.69836 424.4896 
L 263.063168 424.459094 
M 263.306373 424.393427 
L 263.549578 423.347235 
L 263.792783 422.239277 
L 264.035988 421.66482 
L 264.644 418.702067 
M 264.887205 418.599719 
L 265.252012 418.507729 
L 265.860025 418.587703 
L 266.10323 417.71045 
L 266.468037 415.254672 
L 266.711242 410.790837 
L 267.684062 386.668874 
L 267.927267 385.454831 
L 268.292074 384.37091 
L 268.535279 383.869257 
L 268.778484 383.842431 
L 269.143292 384.093497 
L 269.508099 384.61913 
M 269.751304 384.772351 
L 271.818546 387.53747 
L 271.940149 387.870096 
M 272.183354 388.042634 
L 272.791366 389.03715 
M 273.034571 389.209579 
L 275.466621 392.491297 
L 282.154757 400.998155 
M 282.397962 401.148159 
L 285.438024 404.717497 
M 285.681229 404.861 
L 290.302123 409.620899 
L 293.950198 412.999818 
L 296.99026 415.544665 
L 299.908719 417.767046 
L 300.759936 418.456508 
M 301.003141 418.543268 
L 303.799998 420.397634 
L 306.475253 421.990986 
L 309.150507 423.417737 
L 311.947364 424.747352 
L 313.406594 425.423966 
M 313.649799 425.476019 
L 313.771402 425.573758 
M 314.014607 425.624958 
L 315.473836 426.239768 
M 315.717041 426.286955 
L 315.838644 426.375562 
M 316.081849 426.421968 
L 316.811464 426.725959 
M 317.054669 426.770248 
L 317.176271 426.853258 
M 317.419476 426.896821 
L 319.121911 427.494133 
M 319.365116 427.533751 
L 322.283575 428.410168 
M 322.52678 428.443857 
L 322.891588 428.569812 
M 323.134793 428.084578 
L 323.377998 421.648126 
L 323.98601 374.986256 
L 324.229215 373.115003 
L 324.47242 372.70656 
L 324.715625 372.742783 
L 325.202035 373.205338 
L 326.539662 375.081435 
L 328.485302 378.195261 
M 328.728507 378.38802 
L 329.093314 379.112166 
M 329.336519 379.304826 
L 332.619786 384.158635 
L 332.741388 384.50223 
M 332.984593 384.689886 
L 333.227798 385.20329 
M 333.471003 385.391701 
L 337.362283 390.962435 
M 337.605488 391.140414 
L 341.010357 395.733387 
M 341.253562 395.899647 
L 345.752854 401.328378 
L 345.996059 401.744795 
M 346.239264 401.895643 
L 350.130543 406.14214 
L 353.657015 409.652261 
L 354.751437 410.776736 
M 354.994642 410.888292 
L 358.156307 413.64353 
L 359.980344 415.205338 
M 360.223549 415.299886 
L 361.682779 416.491265 
M 361.925983 416.580844 
L 363.263611 417.617503 
M 363.506816 417.702266 
L 364.601238 418.520644 
M 364.844443 418.601323 
L 365.938865 419.378566 
M 366.18207 419.45477 
L 369.222132 421.236888 
L 372.262194 422.797656 
L 373.478219 423.416211 
M 373.721424 423.47164 
L 376.883088 424.789624 
L 377.126293 424.926323 
M 377.369498 424.972807 
L 380.774368 426.148776 
L 382.84161 426.800847 
M 383.084815 426.83533 
L 383.571225 427.002046 
M 383.81443 427.035374 
L 384.30084 427.166439 
L 384.422442 425.805805 
L 384.908852 405.305688 
M 385.152057 404.341941 
L 385.395262 403.564667 
L 385.638467 403.368109 
L 386.003274 403.418422 
L 386.611287 403.824519 
L 388.070517 405.179248 
L 389.651349 406.857133 
M 389.894554 406.978931 
L 390.380964 407.571975 
M 390.624169 407.69251 
L 391.718591 408.714058 
L 391.840193 408.587598 
L 391.961796 408.258967 
L 392.083398 406.598112 
L 392.569808 392.061092 
L 392.813013 391.009508 
M 393.056218 390.958586 
L 393.177821 390.39144 
L 394.029038 377.945406 
L 394.15064 376.698908 
M 394.393845 375.804948 
L 394.758653 372.27079 
L 395.366665 366.013698 
L 395.853075 359.923393 
L 396.09628 355.386952 
M 396.339485 354.437051 
L 397.190702 347.573879 
L 397.798715 340.851902 
L 398.285125 333.234949 
L 399.136342 317.190027 
L 399.744355 307.016484 
M 399.98756 305.407666 
L 400.960379 295.606148 
L 402.541212 284.821021 
M 402.784417 284.325528 
L 403.149224 282.901898 
L 403.635634 280.917256 
L 404.243646 279.395947 
L 404.608454 278.904997 
L 404.973261 278.194907 
L 405.459671 277.866471 
L 406.310888 277.410566 
L 407.040503 276.343703 
L 408.499733 275.676856 
L 408.86454 275.646457 
M 409.107745 275.780766 
L 409.472553 275.98714 
L 409.958963 275.863676 
L 410.32377 275.763083 
L 411.053385 276.167869 
L 411.174988 276.100789 
M 411.418193 276.101499 
L 412.147807 276.511154 
L 412.512615 276.442611 
L 414.336652 277.79004 
L 416.039087 280.082127 
L 416.282292 280.295029 
L 416.647099 280.442945 
L 417.011907 280.77992 
L 417.376714 280.919849 
L 417.863124 281.582822 
L 418.227931 282.183375 
L 418.349534 282.585258 
M 418.592739 282.797852 
L 420.416776 285.827314 
L 420.659981 285.994241 
L 421.146391 286.684475 
L 421.267993 286.947746 
M 421.511198 286.984522 
L 421.754403 287.121561 
L 422.362416 287.977488 
L 423.213633 289.372455 
M 423.456838 289.416098 
L 423.700043 289.665241 
L 423.821645 289.996022 
M 424.06485 290.186657 
L 425.888888 293.370207 
L 427.104912 295.558293 
L 427.226515 295.989824 
M 427.46972 296.214828 
L 428.077732 297.527449 
M 428.320937 297.752606 
L 432.212217 304.722017 
L 433.793049 307.73721 
M 434.036254 307.959614 
L 435.130676 310.096125 
M 435.373881 310.316914 
L 438.049136 315.205668 
M 438.29234 315.424683 
L 438.900353 316.386363 
L 439.26516 316.517992 
L 439.873173 317.288633 
L 442.305222 321.308539 
L 444.980477 326.061631 
M 445.223682 326.27569 
L 445.831694 327.506474 
M 446.074899 327.720194 
L 447.534129 330.385865 
M 447.777334 330.598554 
L 450.087781 334.675453 
M 450.330986 334.885637 
L 450.938998 336.097524 
M 451.182203 336.308002 
L 454.222265 341.36295 
L 455.43829 343.351027 
L 455.559893 343.748915 
M 455.803098 343.956023 
L 458.235147 347.939934 
L 459.207967 348.911919 
L 461.640017 351.486698 
M 461.883221 351.612112 
L 462.491234 352.334334 
M 462.734439 352.459217 
L 466.017706 355.680006 
L 469.17937 358.695192 
L 469.300973 358.923928 
M 469.544178 359.042458 
L 471.003407 360.51963 
M 471.246612 360.636883 
L 473.55706 362.874214 
M 473.800264 362.989528 
L 477.083531 365.942824 
L 479.150774 367.868029 
M 479.393979 367.978249 
L 480.245196 368.818164 
M 480.488401 368.926968 
L 483.650065 371.622345 
L 484.136475 372.123206 
M 484.37968 372.228547 
L 487.541345 374.823695 
L 488.27096 375.499343 
M 488.514164 375.600413 
L 489.365382 376.369122 
M 489.608587 376.468945 
L 490.459804 377.229207 
M 490.703009 377.327633 
L 492.405444 378.73378 
M 492.648649 378.830509 
L 493.743071 379.749815 
M 493.986276 379.844677 
L 497.14794 382.182161 
L 499.458388 383.925831 
M 499.701593 384.015268 
L 500.796015 384.864311 
M 501.03922 384.952225 
L 503.228064 386.533886 
M 503.471269 386.619305 
L 506.146524 388.474256 
M 506.389729 388.556798 
L 507.484151 389.340867 
M 507.727356 389.4221 
L 510.402611 391.183 
M 510.645816 391.261381 
L 511.740238 392.005178 
M 511.983443 392.081983 
L 513.32107 392.95887 
M 513.564275 393.034155 
L 515.145107 394.03589 
M 515.388312 394.109728 
L 516.72594 394.948984 
M 516.969145 395.021338 
L 520.617219 397.054263 
L 521.954846 397.838219 
M 522.198051 397.905783 
L 523.292474 398.546009 
M 523.535679 398.612392 
L 526.940548 400.412932 
M 527.183753 400.476183 
L 529.4942 401.666392 
M 529.98061 401.844443 
L 533.871889 403.665053 
L 537.155156 405.177431 
M 537.398361 405.232711 
L 537.641566 405.38828 
M 537.884771 405.443016 
L 540.681628 406.675366 
M 541.168038 406.828422 
L 545.302522 408.487052 
L 547.612969 409.421553 
M 548.099379 409.561219 
L 552.598671 411.206816 
L 556.733155 412.676096 
M 556.97636 412.718658 
L 560.989242 414.071791 
M 561.232447 414.11217 
L 561.718857 414.303921 
M 561.962062 414.344114 
L 566.218149 415.657298 
L 574.851925 415.730598 
M 575.338335 415.743855 
L 579.351217 415.958482 
M 579.594421 415.966865 
L 581.904869 416.145677 
M 582.391279 416.175863 
L 584.215316 416.345719 
M 584.701726 416.380265 
L 589.687427 416.916399 
M 589.930632 416.931034 
L 596.497166 417.757321 
L 596.618769 417.788829 
M 596.861974 417.806121 
L 598.807613 418.090469 
M 599.050818 418.108435 
L 606.346967 419.197348 
M 606.590172 419.216845 
L 607.198184 419.327495 
M 607.441389 419.347118 
L 610.603054 419.856051 
M 610.846259 419.876128 
L 611.454271 419.989964 
M 611.697476 420.010128 
L 613.764718 420.356106 
M 614.007923 420.376377 
L 618.507215 421.117838 
M 618.75042 421.138492 
L 623.006507 421.848469 
M 623.249712 421.869364 
L 624.222531 422.046665 
M 624.465736 422.067592 
L 627.627401 422.602369 
M 627.870606 422.623378 
L 631.761885 423.276902 
M 632.00509 423.297829 
L 632.369898 423.375951 
M 632.613102 423.39674 
L 633.342717 423.534366 
M 633.585922 423.555259 
L 636.261177 424.008386 
M 636.504382 424.029276 
L 640.638866 424.715436 
M 640.882071 424.736129 
L 643.435723 425.164057 
M 643.678928 425.184612 
L 646.962195 425.592271 
L 651.826294 425.592252 
M 652.069499 425.592251 
L 652.191102 425.592251 
M 652.434307 425.59225 
L 652.555909 425.59225 
M 652.799114 425.592249 
L 654.866356 425.592241 
M 655.109561 425.59224 
L 659.122443 425.592228 
M 659.365648 425.592226 
L 664.716157 425.596458 
M 664.959362 425.597594 
L 665.932182 425.612155 
M 666.175387 425.614465 
L 670.553076 425.76266 
M 670.796281 425.768692 
L 673.106728 425.897373 
M 673.349933 425.905027 
L 680.646082 426.441256 
L 687.455821 427.090617 
M 687.699026 427.103718 
L 690.252678 427.378735 
M 690.495883 427.392375 
L 690.739088 427.430013 
M 690.982293 427.443721 
L 694.995174 427.758451 
L 697.427224 427.758446 
M 697.670429 427.758445 
L 698.035236 427.758445 
M 698.278441 427.758444 
L 701.075298 427.758436 
M 701.318503 427.758436 
L 704.966578 427.758428 
M 705.209783 427.758428 
L 706.304205 427.758424 
M 706.54741 427.758424 
L 708.49305 427.758421 
M 708.736255 427.758419 
L 709.952279 427.758417 
M 710.195484 427.758417 
L 712.262726 427.758412 
M 712.505931 427.758412 
L 712.992341 427.758411 
M 713.235546 427.758411 
L 713.843559 427.75841 
M 714.086764 427.75841 
L 718.099645 427.7584 
M 718.34285 427.7584 
L 721.869322 427.758393 
M 722.112527 427.758393 
L 728.314254 427.758382 
M 728.557459 427.758382 
L 736.94803 427.758366 
M 737.191235 427.758366 
L 742.906551 427.758357 
M 743.149756 427.758357 
L 745.338601 427.758354 
M 745.581806 427.758353 
L 748.74347 427.758348 
M 748.986675 427.758348 
L 753.364364 427.758341 
M 753.607569 427.758341 
L 753.729172 427.758341 
M 754.215582 427.758341 
L 761.99814 427.758329 
M 762.241345 427.758329 
L 762.362948 427.758329 
M 762.606153 427.758329 
L 767.227047 427.758322 
M 767.470252 427.758322 
L 770.510314 427.758318 
M 770.753519 427.758317 
L 775.374413 427.758312 
M 775.617618 427.758312 
L 780.968127 427.758306 
M 781.211332 427.758306 
L 782.54896 427.758304 
M 782.792164 427.758304 
L 794.466002 427.758289 
M 794.709207 427.758289 
L 799.938114 427.758283 
M 800.181319 427.758283 
L 800.789331 427.758283 
M 801.032536 427.758283 
L 803.464586 427.758281 
L 803.586188 425.998336 
L 804.437406 382.348617 
L 804.923816 370.920727 
L 805.410226 363.774082 
L 806.261443 355.679548 
M 806.504648 354.747282 
L 806.991058 351.557703 
L 807.355865 349.882326 
M 807.59907 349.575136 
L 807.842275 349.378427 
L 808.08548 349.155825 
L 808.450288 348.60626 
L 808.693493 348.541446 
L 809.301505 347.850272 
L 809.909517 347.91358 
L 810.274325 347.483302 
L 810.51753 347.440555 
L 810.760735 347.082792 
L 811.00394 346.804805 
L 811.247145 346.75081 
L 812.584772 345.42645 
L 812.827977 345.263668 
L 813.192784 344.482373 
L 813.557592 343.798357 
M 813.800797 343.814367 
L 814.287207 343.88265 
L 814.652014 343.483122 
L 815.016821 343.564381 
L 815.260026 343.678086 
L 815.503231 343.441628 
L 815.746436 343.227663 
L 816.111244 343.313693 
L 816.840859 343.855972 
L 818.664896 345.438568 
L 819.029703 345.141972 
L 819.394511 345.24231 
L 820.124126 345.776417 
L 822.434573 347.924154 
L 825.71784 351.148073 
M 825.961045 351.264004 
L 826.20425 351.600721 
M 826.447455 351.716173 
L 827.541877 352.832633 
M 827.785082 352.946378 
L 831.311554 356.094825 
L 832.041169 356.82855 
M 832.284374 356.936636 
L 835.446038 359.596219 
L 835.810845 359.763301 
L 836.175653 359.310166 
M 836.418858 359.314356 
L 837.02687 359.572315 
L 838.607702 360.697068 
L 841.161355 362.655846 
L 841.282957 362.841954 
M 841.526162 362.938593 
L 844.809429 365.484449 
M 845.052634 365.576728 
L 847.484683 367.401289 
M 847.971093 367.659757 
L 850.889553 369.647876 
L 853.321602 371.226113 
L 853.321602 371.226113 
" clip-path="url(#p72568ecc2a)" style="fill: none; stroke: #000000; stroke-opacity: 0.6; stroke-width: 7; stroke-linecap: square"/>
   </g>
   <g id="line2d_11">
    <path d="M 117.383398 427.716534 
L 118.234615 427.779316 
M 118.47782 427.787159 
L 118.721025 427.810682 
M 118.96423 427.81852 
L 121.517882 427.990708 
M 121.761087 427.998522 
L 130.394863 428.558424 
M 130.638068 428.566162 
L 130.881273 428.589371 
M 131.124478 428.597105 
L 134.042937 428.790123 
M 134.286142 428.79783 
L 138.420626 429.066931 
M 138.663831 429.074601 
L 143.649533 429.395813 
M 143.892738 429.403439 
L 147.297607 429.624143 
M 147.540812 429.631739 
L 152.404912 429.942263 
M 152.648117 429.949816 
L 153.742539 430.025284 
M 153.985744 430.032826 
L 155.080166 430.108183 
M 155.323371 430.115713 
L 163.713942 430.640316 
M 163.957147 430.647775 
L 171.739706 431.130443 
M 171.982911 431.137836 
L 175.266178 431.344432 
M 175.509383 431.351796 
L 177.090215 431.454789 
M 177.33342 431.462138 
L 177.941432 431.506212 
M 178.184637 431.513555 
L 180.981494 431.689475 
M 181.224699 431.696792 
L 183.048736 431.813742 
M 183.291941 431.821043 
L 185.237581 431.94501 
M 185.480786 431.952293 
L 188.64245 432.148574 
M 188.885655 432.15583 
L 191.0745 432.29351 
M 191.317705 432.300746 
L 193.628152 432.445273 
M 193.871357 432.452489 
L 196.425009 432.611 
M 196.668214 432.618193 
L 198.005841 432.704445 
M 198.249046 432.711626 
L 202.86994 432.990947 
M 203.113145 432.99809 
L 204.693978 433.097989 
M 204.937183 433.105117 
L 206.518015 433.204815 
M 206.76122 433.211929 
L 208.70686 433.332723 
M 208.950064 433.33982 
L 216.124611 433.763895 
M 216.367816 433.770934 
L 220.01589 433.988675 
M 220.259095 433.995684 
L 225.609604 434.310107 
M 225.852809 434.317073 
L 226.582424 434.365806 
M 226.825629 434.372764 
L 236.18902 434.912628 
M 236.432225 434.919513 
L 239.958697 435.125624 
M 240.201902 435.13248 
L 255.280609 435.982273 
M 255.767019 436.002493 
L 263.063168 436.411874 
M 263.306373 436.418557 
L 264.644 436.498686 
M 264.887205 436.505358 
L 269.508099 436.764852 
M 269.751304 436.771488 
L 271.940149 436.897399 
M 272.183354 436.904017 
L 272.791366 436.943707 
M 273.034571 436.950319 
L 282.154757 437.450225 
M 282.397962 437.456769 
L 283.127577 437.496013 
L 283.249179 432.419995 
L 285.438024 432.557001 
M 285.681229 432.564202 
L 300.759936 433.456768 
M 301.003141 433.463849 
L 313.406594 434.188044 
M 313.649799 434.195026 
L 313.771402 434.208987 
M 314.014607 434.215966 
L 315.473836 434.306611 
M 315.717041 434.313577 
L 315.838644 434.327506 
M 316.081849 434.334469 
L 316.811464 434.383186 
M 317.054669 434.390142 
L 317.176271 434.404051 
M 317.419476 434.411004 
L 319.121911 434.515187 
M 319.365116 434.522125 
L 322.283575 434.695274 
M 322.52678 434.702188 
L 322.891588 434.729834 
M 323.134793 434.736743 
L 328.485302 435.0467 
M 328.728507 435.053566 
L 329.093314 435.081024 
M 329.336519 435.087886 
L 332.741388 435.286485 
M 332.984593 435.293319 
L 333.227798 435.313817 
M 333.471003 435.320648 
L 337.362283 435.545549 
M 337.605488 435.552349 
L 341.010357 435.749141 
M 341.253562 435.755914 
L 345.996059 436.02606 
M 346.239264 436.032795 
L 354.751437 436.508681 
M 354.994642 436.515351 
L 359.980344 436.794694 
M 360.223549 436.801325 
L 361.682779 436.887458 
M 361.925983 436.894077 
L 363.263611 436.97344 
M 363.506816 436.980048 
L 364.601238 437.046077 
M 364.844443 437.052675 
L 365.938865 437.118607 
M 366.18207 437.125195 
L 369.343735 437.379578 
L 373.478219 439.106713 
M 373.721424 439.157105 
L 377.126293 440.643582 
M 377.369498 440.695703 
L 382.84161 443.155063 
M 383.084815 443.209865 
L 383.571225 443.484723 
M 383.81443 443.539864 
L 384.908852 444.094387 
M 385.152057 444.15015 
L 389.651349 446.310744 
M 389.894554 446.368693 
L 390.380964 446.659275 
M 390.624169 446.717559 
L 392.813013 447.835511 
M 393.056218 447.894901 
L 394.15064 448.491712 
M 394.393845 448.551681 
L 396.09628 449.454737 
M 396.339485 449.514945 
L 399.744355 451.277554 
M 399.98756 451.338941 
L 402.541212 452.701418 
M 402.784417 452.763938 
L 408.742938 455.892493 
L 408.86454 456.022916 
M 409.107745 456.088209 
L 411.174988 457.27263 
M 411.418193 457.33894 
L 418.227931 461.137272 
L 418.349534 461.275998 
M 418.592739 461.34544 
L 421.267993 462.957089 
M 421.511198 463.027788 
L 423.213633 464.094523 
M 423.456838 464.166054 
L 423.821645 464.452696 
M 424.06485 464.524485 
L 427.226515 466.482275 
M 427.46972 466.555504 
L 428.077732 466.995947 
M 428.320937 467.069532 
L 433.793049 470.507501 
M 434.036254 470.583392 
L 435.130676 471.34499 
M 435.373881 471.42142 
L 438.049136 473.192758 
M 438.29234 473.270357 
L 444.858874 477.533275 
L 444.980477 477.693883 
M 445.223682 477.774259 
L 445.831694 478.257527 
M 446.074899 478.33824 
L 447.534129 479.391872 
M 447.777334 479.473256 
L 450.087781 481.111051 
M 450.330986 481.193443 
L 450.938998 481.688795 
M 451.182203 481.77152 
L 455.559893 484.865674 
M 455.803098 484.950197 
L 461.640017 489.11905 
M 461.883221 489.204895 
L 462.491234 489.720932 
M 462.734439 489.807098 
L 469.17937 494.437336 
L 469.300973 494.614428 
M 469.544178 494.703036 
L 471.003407 495.858693 
M 471.246612 495.947876 
L 473.55706 497.739928 
M 473.800264 497.829945 
L 479.150774 501.919884 
M 479.393979 502.011617 
L 480.245196 502.746755 
M 480.488401 502.838806 
L 484.136475 505.709419 
M 484.37968 505.802557 
L 488.27096 508.894165 
M 488.514164 508.988384 
L 489.365382 509.743236 
M 489.608587 509.837729 
L 490.459804 510.59475 
M 490.703009 510.689511 
L 492.405444 512.11444 
M 492.648649 512.209667 
L 493.743071 513.16349 
M 493.986276 513.259026 
L 499.458388 517.682855 
M 499.701593 517.779636 
L 500.796015 518.748816 
M 501.03922 518.845869 
L 503.228064 520.694461 
M 503.471269 520.791992 
L 506.146524 523.041519 
M 506.389729 523.139594 
L 507.484151 524.121536 
M 507.727356 524.219849 
L 510.402611 526.486825 
M 510.645816 526.585635 
L 511.740238 527.574831 
M 511.983443 527.673859 
L 513.32107 528.863699 
M 513.564275 528.962976 
L 515.145107 530.354807 
M 515.388312 530.45436 
L 516.72594 531.650398 
M 516.969145 531.750183 
L 521.954846 535.95621 
M 522.198051 536.056697 
L 523.292474 537.062402 
M 523.535679 537.163055 
L 526.940548 540.088217 
M 527.183753 540.189292 
L 529.4942 542.213547 
M 529.98061 542.517625 
L 537.155156 548.620932 
M 537.398361 548.722977 
L 537.641566 549.029171 
M 537.884771 549.131255 
L 540.681628 551.584044 
M 541.168038 551.891003 
L 547.612969 557.42829 
M 548.099379 557.736521 
L 556.733155 565.148829 
M 556.97636 565.251945 
L 560.989242 568.6481 
M 561.232447 568.739604 
L 561.718857 569.188485 
M 561.962062 569.276537 
L 564.637317 571.069805 
L 567.312571 572.597148 
L 569.866223 573.812069 
L 572.419875 574.785737 
L 574.851925 575.519318 
M 575.338335 575.604576 
L 577.891987 576.06502 
L 579.351217 576.230779 
M 579.594421 576.239761 
L 581.904869 576.306659 
M 582.391279 576.298207 
L 584.215316 576.171968 
M 584.701726 576.135693 
L 589.687427 575.629381 
M 589.930632 575.617361 
L 596.618769 574.946797 
M 596.861974 574.934868 
L 598.807613 574.732328 
M 599.050818 574.720428 
L 606.346967 573.997558 
M 606.590172 573.985757 
L 607.198184 573.914984 
M 607.441389 573.903194 
L 610.603054 573.585464 
M 610.846259 573.573718 
L 611.454271 573.503278 
M 611.697476 573.491543 
L 613.764718 573.280589 
M 614.007923 573.268884 
L 618.507215 572.825269 
M 618.75042 572.813625 
L 623.006507 572.395498 
M 623.249712 572.383912 
L 624.222531 572.27971 
M 624.465736 572.268139 
L 627.627401 571.95633 
M 627.870606 571.944803 
L 631.761885 571.565286 
M 632.00509 571.553812 
L 632.369898 571.50793 
M 632.613102 571.496464 
L 633.342717 571.416241 
M 633.585922 571.404787 
L 636.261177 571.141763 
M 636.504382 571.130346 
L 640.638866 570.731703 
M 640.882071 570.720341 
L 643.435723 570.470757 
M 643.678928 570.459429 
L 651.826294 569.692738 
M 652.069499 569.681515 
L 652.191102 569.659074 
M 652.434307 569.647856 
L 652.555909 569.625424 
M 652.799114 569.614211 
L 654.866356 569.412623 
M 655.109561 569.401438 
L 659.122443 569.022038 
M 659.365648 569.010906 
L 664.716157 568.511484 
M 664.959362 568.50042 
L 665.932182 568.400911 
M 666.175387 568.389862 
L 670.553076 567.982086 
M 670.796281 567.971093 
L 673.106728 567.751545 
M 673.349933 567.740583 
L 687.455821 566.468155 
M 687.699026 566.457365 
L 690.252678 566.220363 
M 690.495883 566.209607 
L 690.739088 566.177347 
M 690.982293 566.166597 
L 697.427224 565.588214 
M 697.670429 565.577543 
L 698.035236 565.534872 
M 698.278441 565.524208 
L 701.075298 565.268699 
M 701.318503 565.258071 
L 704.966578 564.9293 
M 705.209783 564.918717 
L 706.304205 564.812968 
M 706.54741 564.802401 
L 708.49305 564.622977 
M 708.736255 564.612436 
L 709.952279 564.496572 
M 710.195484 564.486047 
L 712.262726 564.296846 
M 712.505931 564.286348 
L 712.992341 564.23388 
M 713.235546 564.223391 
L 713.843559 564.160485 
M 714.086764 564.150005 
L 718.099645 563.794541 
M 718.34285 563.78411 
L 721.869322 563.471852 
M 722.112527 563.461466 
L 728.314254 562.923264 
M 728.557459 562.91295 
L 736.94803 562.194457 
M 737.191235 562.184241 
L 742.906551 561.695517 
M 743.149756 561.685368 
L 745.338601 561.49281 
M 745.581806 561.482689 
L 748.74347 561.209934 
M 748.986675 561.199851 
L 753.364364 560.827729 
M 753.607569 560.817697 
L 753.729172 560.797638 
M 754.215582 560.767559 
L 761.99814 560.118817 
M 762.241345 560.10888 
L 762.362948 560.089011 
M 762.606153 560.079079 
L 767.227047 559.692752 
M 767.470252 559.682873 
L 770.510314 559.426479 
M 770.753519 559.416635 
L 775.374413 559.03377 
M 775.617618 559.02398 
L 780.968127 558.584757 
M 781.211332 558.575027 
L 782.54896 558.458365 
M 782.792164 558.448651 
L 794.466002 557.512629 
M 794.709207 557.503043 
L 799.938114 557.082517 
M 800.181319 557.072988 
L 800.789331 557.015844 
M 801.032536 557.006324 
L 806.261443 556.588726 
M 806.504648 556.579264 
L 807.355865 556.503612 
M 807.59907 556.494162 
L 813.557592 556.023239 
M 813.800797 556.013852 
L 825.71784 555.09083 
M 825.961045 555.081569 
L 826.20425 555.053794 
M 826.447455 555.044538 
L 827.541877 554.952046 
M 827.785082 554.942804 
L 832.041169 554.610906 
M 832.284374 554.60171 
L 836.175653 554.298918 
M 836.418858 554.289763 
L 841.282957 553.915483 
M 841.526162 553.90638 
L 844.809429 553.65199 
M 845.052634 553.642922 
L 847.484683 553.452783 
M 847.971093 553.425664 
L 853.321602 553.029171 
L 853.321602 553.029171 
" clip-path="url(#p72568ecc2a)" style="fill: none; stroke-dasharray: 25.9,11.2; stroke-dashoffset: 0; stroke: #0000ff; stroke-opacity: 0.6; stroke-width: 7"/>
   </g>
   <g id="line2d_12">
    <path d="M 117.383398 389.133038 
L 118.234615 389.237269 
M 118.47782 389.25029 
L 118.721025 389.289343 
M 118.96423 389.302357 
L 121.517882 389.588224 
M 121.761087 389.601198 
L 130.394863 390.530752 
M 130.638068 390.543599 
L 130.881273 390.58213 
M 131.124478 390.594971 
L 134.042937 390.91542 
M 134.286142 390.928215 
L 138.420626 391.374979 
M 138.663831 391.387713 
L 143.649533 391.920993 
M 143.892738 391.933653 
L 147.297607 392.300068 
M 147.540812 392.312678 
L 152.404912 392.828214 
M 152.648117 392.840752 
L 153.742539 392.966046 
M 153.985744 392.978566 
L 155.080166 393.103674 
M 155.323371 393.116176 
L 163.713942 393.987127 
M 163.957147 393.99951 
L 171.739706 394.80084 
M 171.982911 394.813114 
L 175.266178 395.156106 
M 175.509383 395.168332 
L 177.090215 395.339321 
M 177.33342 395.351522 
L 177.941432 395.424695 
M 178.184637 395.436885 
L 180.981494 395.728949 
M 181.224699 395.741098 
L 183.048736 395.935258 
M 183.291941 395.94738 
L 185.237581 396.153191 
M 185.480786 396.165283 
L 188.64245 396.491151 
M 188.885655 396.503197 
L 191.0745 396.731773 
M 191.317705 396.743787 
L 193.628152 396.983732 
M 193.871357 396.995713 
L 196.425009 397.258873 
M 196.668214 397.270816 
L 198.005841 397.414011 
M 198.249046 397.425934 
L 202.86994 397.889665 
M 203.113145 397.901523 
L 204.693978 398.067377 
M 204.937183 398.079211 
L 206.518015 398.244731 
M 206.76122 398.256542 
L 208.70686 398.457084 
M 208.950064 398.468867 
L 216.124611 399.17292 
M 216.367816 399.184607 
L 220.01589 399.546101 
M 220.259095 399.557738 
L 225.609604 400.079746 
M 225.852809 400.09131 
L 226.582424 400.172218 
M 226.825629 400.18377 
L 236.18902 401.080057 
M 236.432225 401.091487 
L 239.958697 401.433673 
M 240.201902 401.445056 
L 255.280609 402.85589 
M 255.767019 402.88946 
L 263.063168 403.569118 
M 263.306373 403.580213 
L 264.644 403.713244 
M 264.887205 403.724321 
L 269.508099 404.155135 
M 269.751304 404.166152 
L 271.940149 404.375191 
M 272.183354 404.386178 
L 272.791366 404.452071 
M 273.034571 404.463048 
L 282.154757 405.292997 
M 282.397962 405.303861 
L 285.438024 405.585813 
M 285.681229 405.596638 
L 300.759936 406.93833 
M 301.003141 406.948973 
L 313.406594 408.037573 
M 313.649799 408.048069 
L 313.771402 408.069055 
M 314.014607 408.079546 
L 315.109029 408.173902 
L 315.230631 434.285707 
L 315.473836 434.306611 
M 315.717041 434.313577 
L 315.838644 434.327506 
M 316.081849 434.334469 
L 316.811464 434.383186 
M 317.054669 434.390142 
L 317.176271 434.404051 
M 317.419476 434.411004 
L 319.121911 434.515187 
M 319.365116 434.522125 
L 322.283575 434.695274 
M 322.52678 434.702188 
L 322.769985 434.716013 
L 322.891588 430.203378 
M 323.134793 427.288722 
L 323.742805 385.014261 
L 323.98601 383.880486 
L 324.229215 383.80949 
L 328.485302 384.302871 
M 328.728507 384.316555 
L 329.093314 384.371272 
M 329.336519 384.384947 
L 332.741388 384.780717 
M 332.984593 384.794337 
L 333.227798 384.835185 
M 333.471003 384.848798 
L 337.362283 385.296984 
M 337.605488 385.310534 
L 341.010357 385.702705 
M 341.253562 385.716201 
L 341.983177 385.797138 
L 342.104779 389.120902 
L 345.996059 389.550188 
M 346.239264 389.563167 
L 354.751437 390.480233 
M 354.994642 390.493087 
L 359.980344 391.031401 
M 360.223549 391.044181 
L 361.682779 391.210165 
M 361.925983 391.222921 
L 363.263611 391.375859 
M 363.506816 391.388593 
L 364.601238 391.515836 
M 364.844443 391.528551 
L 365.938865 391.655606 
M 366.18207 391.668302 
L 373.478219 392.43955 
M 373.721424 392.452141 
L 377.126293 392.81654 
M 377.369498 392.82908 
L 382.84161 393.40411 
M 383.084815 393.416571 
L 383.571225 393.478852 
M 383.81443 393.491304 
L 384.908852 393.615724 
M 385.152057 393.628156 
L 389.651349 394.099367 
M 389.894554 394.111735 
L 390.380964 394.173549 
M 390.624169 394.185907 
L 392.813013 394.420391 
M 393.056218 394.432716 
L 394.15064 394.555872 
M 394.393845 394.568179 
L 396.09628 394.752578 
M 396.339485 394.764858 
L 399.744355 395.120263 
M 399.98756 395.132494 
L 402.541212 395.401153 
M 402.784417 395.413346 
L 408.86454 396.033019 
M 409.107745 396.045127 
L 411.174988 396.262794 
M 411.418193 396.274871 
L 418.349534 396.972578 
M 418.592739 396.98456 
L 421.267993 397.259698 
M 421.511198 397.271641 
L 423.213633 397.450597 
M 423.456838 397.462515 
L 423.821645 397.510169 
M 424.06485 397.522079 
L 427.226515 397.843034 
M 427.46972 397.854899 
L 428.077732 397.926054 
M 428.320937 397.937908 
L 433.793049 398.481461 
M 434.036254 398.49324 
L 435.130676 398.610944 
M 435.373881 398.622706 
L 438.049136 398.89279 
M 438.29234 398.904514 
L 441.2108 399.185414 
L 441.332402 78.336436 
L 444.980477 80.031501 
M 445.223682 80.086063 
L 445.831694 80.413281 
M 446.074899 80.467792 
L 447.534129 81.175765 
M 447.777334 81.230174 
L 450.087781 82.316806 
M 450.330986 82.371061 
L 450.938998 82.696438 
M 451.182203 82.750642 
L 455.559893 84.75108 
M 455.803098 84.805008 
L 461.640017 87.438623 
M 461.883221 87.492189 
L 462.491234 87.81344 
M 462.734439 87.866956 
L 469.300973 90.799321 
M 469.544178 90.852437 
L 471.003407 91.542288 
M 471.246612 91.595304 
L 473.55706 92.654121 
M 473.800264 92.706988 
L 479.150774 95.078631 
M 479.393979 95.131172 
L 480.245196 95.551242 
M 480.488401 95.603719 
L 484.136475 97.227013 
M 484.37968 97.279265 
L 488.27096 98.999644 
M 488.514164 99.051658 
L 489.365382 99.467516 
M 489.608587 99.519467 
L 490.459804 99.934823 
M 490.703009 99.986711 
L 492.405444 100.764196 
M 492.648649 100.815973 
L 493.743071 101.333357 
M 493.986276 101.385057 
L 499.458388 103.755773 
M 499.701593 103.807148 
L 500.796015 104.320516 
M 501.03922 104.371814 
L 503.228064 105.345185 
M 503.471269 105.396346 
L 506.146524 106.571159 
M 506.389729 106.622155 
L 507.484151 107.131744 
M 507.727356 107.182665 
L 510.402611 108.351966 
M 510.645816 108.402723 
L 511.740238 108.909921 
M 511.983443 108.960603 
L 513.32107 109.56826 
M 513.564275 109.618854 
L 515.145107 110.326454 
M 515.388312 110.376946 
L 516.72594 110.982321 
M 516.969145 111.032725 
L 521.954846 113.143585 
M 522.198051 113.193698 
L 523.292474 113.694463 
M 523.535679 113.744503 
L 526.940548 115.192728 
M 527.183753 115.242566 
L 529.4942 116.237925 
M 529.98061 116.386999 
L 537.155156 119.355883 
M 537.398361 119.405162 
L 537.641566 119.552959 
M 537.884771 119.602211 
L 540.681628 120.782287 
M 541.168038 120.929529 
L 547.612969 123.569762 
M 548.099379 123.715881 
L 556.733155 127.205119 
M 556.97636 127.253344 
L 560.989242 128.889124 
M 561.232447 128.937122 
L 561.718857 129.177016 
M 561.962062 129.224975 
L 574.851925 134.319586 
M 575.338335 134.461372 
L 579.351217 136.0643 
M 579.594421 136.111334 
L 581.904869 137.050692 
M 582.391279 137.191378 
L 584.215316 137.940747 
M 584.701726 138.081074 
L 589.687427 140.03973 
M 589.930632 140.08623 
L 596.618769 142.680289 
M 596.861974 142.726435 
L 598.807613 143.509958 
M 599.050818 143.555992 
L 606.346967 146.352394 
M 606.590172 146.398046 
L 607.198184 146.671829 
M 607.441389 146.717439 
L 610.603054 147.94657 
M 610.846259 147.992008 
L 611.454271 148.264507 
M 611.697476 148.309902 
L 613.764718 149.125972 
M 614.007923 149.171251 
L 618.507215 150.887367 
M 618.75042 150.93241 
L 623.006507 152.549925 
M 623.249712 152.594744 
L 624.222531 152.997848 
M 624.465736 153.042607 
L 627.627401 154.248835 
M 627.870606 154.293426 
L 631.761885 155.761577 
M 632.00509 155.805965 
L 632.369898 155.983457 
M 632.613102 156.027815 
L 633.342717 156.338155 
M 633.585922 156.382466 
L 636.261177 157.399964 
M 636.504382 157.444132 
L 640.638866 158.986272 
M 640.882071 159.030227 
L 643.435723 159.995737 
M 643.678928 160.039556 
L 651.826294 163.005482 
M 652.069499 163.048897 
L 652.191102 163.135708 
M 652.434307 163.179106 
L 652.555909 163.265883 
M 652.799114 163.309262 
L 654.866356 164.089101 
M 655.109561 164.13237 
L 659.122443 165.600067 
M 659.365648 165.643133 
L 664.716157 167.575132 
M 664.959362 167.617933 
L 665.932182 168.002881 
M 666.175387 168.045624 
L 668.972244 169.027137 
L 669.093846 426.040287 
L 670.553076 426.145198 
M 670.796281 426.153261 
L 673.106728 426.314285 
M 673.349933 426.322324 
L 687.455821 427.255568 
M 687.699026 427.263481 
L 690.252678 427.437307 
M 690.495883 427.445196 
L 690.739088 427.468856 
M 690.982293 427.476741 
L 697.427224 427.900947 
M 697.670429 427.908773 
L 698.035236 427.940069 
M 698.278441 427.947891 
L 701.075298 428.13529 
M 701.318503 428.143085 
L 704.966578 428.384217 
M 705.209783 428.391979 
L 706.304205 428.469539 
M 706.54741 428.477289 
L 708.49305 428.608885 
M 708.736255 428.616616 
L 709.952279 428.701595 
M 710.195484 428.709314 
L 712.262726 428.848081 
M 712.505931 428.85578 
L 712.992341 428.894262 
M 713.235546 428.901955 
L 713.843559 428.948093 
M 714.086764 428.955779 
L 718.099645 429.216489 
M 718.34285 429.224139 
L 721.869322 429.45316 
M 722.112527 429.460778 
L 728.314254 429.855514 
M 728.557459 429.863078 
L 736.94803 430.390046 
M 737.191235 430.397538 
L 742.906551 430.755986 
M 743.149756 430.763429 
L 745.338601 430.904658 
M 745.581806 430.912081 
L 748.74347 431.112129 
M 748.986675 431.119524 
L 753.364364 431.392452 
M 753.607569 431.399809 
L 753.729172 431.414522 
M 754.215582 431.436582 
L 761.99814 431.912392 
M 762.241345 431.91968 
L 762.362948 431.934253 
M 762.606153 431.941537 
L 767.227047 432.325228 
M 767.470252 432.33246 
L 770.510314 432.520159 
M 770.753519 432.527365 
L 775.374413 432.807649 
M 775.617618 432.814816 
L 780.968127 433.136357 
M 781.211332 433.143481 
L 782.54896 433.228886 
M 782.792164 433.235997 
L 794.466002 433.921231 
M 794.709207 433.928248 
L 799.938114 434.236103 
M 800.181319 434.243078 
L 800.789331 434.284912 
M 801.032536 434.291881 
L 806.261443 434.597592 
M 806.504648 434.604519 
L 807.355865 434.659901 
M 807.59907 434.66682 
L 808.936698 434.742864 
L 809.0583 339.551369 
L 809.423107 339.600859 
L 810.03112 337.490617 
L 810.152722 337.501464 
L 810.760735 335.392164 
L 810.882337 335.403293 
L 811.49035 333.295402 
L 811.611952 333.306812 
L 812.219964 331.200329 
L 812.341567 331.212021 
L 812.706374 329.411989 
L 813.192784 327.019705 
L 813.435989 326.964242 
L 813.557592 327.006546 
M 813.800797 327.027928 
L 814.408809 324.926129 
L 814.895219 325.003166 
L 815.503231 322.902727 
L 817.084064 323.178046 
L 825.71784 324.747057 
M 825.961045 324.768743 
L 826.20425 324.83378 
M 826.447455 324.855454 
L 827.541877 325.072029 
M 827.785082 325.09367 
L 832.041169 325.87083 
M 832.284374 325.892364 
L 836.175653 326.60137 
M 836.418858 326.622806 
L 841.282957 327.499208 
M 841.526162 327.520523 
L 844.809429 328.116193 
M 845.052634 328.137425 
L 847.484683 328.582649 
M 847.971093 328.64615 
L 853.321602 329.574563 
L 853.321602 329.574563 
" clip-path="url(#p72568ecc2a)" style="fill: none; stroke-dasharray: 7,11.55; stroke-dashoffset: 0; stroke: #008000; stroke-opacity: 0.6; stroke-width: 7"/>
   </g>
   <g id="line2d_13">
    <path d="M 117.383398 480.109965 
L 118.234615 480.253138 
M 118.47782 480.270835 
L 118.721025 480.32366 
M 118.96423 480.341179 
L 119.085832 480.358655 
L 119.207435 478.802444 
L 121.517882 479.146023 
M 121.761087 479.162739 
L 130.394863 480.251852 
M 130.638068 480.265403 
L 130.881273 480.305798 
M 131.124478 480.319178 
L 134.042937 480.639824 
M 134.286142 480.652098 
L 138.420626 481.05513 
M 138.663831 481.06589 
L 143.649533 481.480282 
M 143.892738 481.48926 
L 147.297607 481.731796 
M 147.540812 481.739547 
L 152.404912 482.022492 
M 152.648117 482.028548 
L 153.742539 482.086904 
M 153.985744 482.092521 
L 155.080166 482.146487 
M 155.323371 482.151665 
L 163.713942 482.416193 
M 163.957147 482.418585 
L 171.739706 482.496539 
M 171.982911 482.497031 
L 175.266178 482.510778 
M 175.509383 482.511268 
L 177.090215 482.51812 
M 177.33342 482.518609 
L 177.941432 482.521542 
M 178.184637 482.522031 
L 180.981494 482.533736 
M 181.224699 482.534223 
L 183.048736 482.542004 
M 183.291941 482.54249 
L 185.237581 482.550738 
M 185.480786 482.551223 
L 188.64245 482.564283 
M 188.885655 482.564766 
L 191.0745 482.573926 
M 191.317705 482.574408 
L 193.628152 482.584024 
M 193.871357 482.584504 
L 196.425009 482.595051 
M 196.668214 482.59553 
L 198.005841 482.601269 
M 198.249046 482.601746 
L 202.86994 482.620332 
M 203.113145 482.620807 
L 204.693978 482.627454 
M 204.937183 482.627928 
L 206.518015 482.634562 
M 206.76122 482.635035 
L 208.70686 482.643072 
M 208.950064 482.643545 
L 216.124611 482.671761 
M 216.367816 482.67223 
L 220.01589 482.686717 
M 220.259095 482.687184 
L 225.609604 482.708104 
M 225.852809 482.708568 
L 226.582424 482.71181 
M 226.825629 482.712273 
L 236.18902 482.748194 
M 236.432225 482.748652 
L 239.958697 482.762366 
M 240.201902 482.762823 
L 255.280609 482.819365 
M 255.767019 482.820711 
L 263.063168 482.847949 
M 263.306373 482.848394 
L 264.644 482.853726 
M 264.887205 482.85417 
L 269.508099 482.871435 
M 269.751304 482.871877 
L 271.940149 482.880255 
M 272.183354 482.880695 
L 272.426559 482.881576 
L 272.548161 431.780861 
L 272.791366 431.802775 
M 273.034571 431.810077 
L 282.154757 432.362204 
M 282.397962 432.369431 
L 285.438024 432.557001 
M 285.681229 432.564202 
L 300.759936 433.456768 
M 301.003141 433.463849 
L 313.406594 434.188044 
M 313.649799 434.195026 
L 313.771402 434.208987 
M 314.014607 434.215966 
L 315.473836 434.306611 
M 315.717041 434.313577 
L 315.838644 434.327526 
M 316.081849 434.335067 
L 316.811464 434.403586 
M 317.054669 434.415647 
L 317.176271 434.441493 
M 317.419476 434.455282 
L 319.121911 434.73292 
M 319.365116 434.756246 
L 321.675563 435.318689 
L 322.283575 435.544831 
M 322.52678 435.584854 
L 322.891588 435.751577 
M 323.134793 435.794788 
L 328.485302 437.778926 
M 328.728507 437.821778 
L 329.093314 437.992593 
M 329.336519 438.035148 
L 332.741388 439.243053 
M 332.984593 439.283794 
L 333.227798 439.405653 
M 333.471003 439.44615 
L 337.362283 440.74826 
M 337.605488 440.78668 
L 341.010357 441.874613 
M 341.253562 441.91123 
L 345.144841 442.965599 
L 345.996059 443.204996 
M 346.239264 443.23422 
L 350.738555 444.19953 
L 354.751437 444.914256 
M 354.994642 444.933448 
L 359.980344 445.674454 
M 360.223549 445.690782 
L 361.682779 445.898261 
M 361.925983 445.913863 
L 363.263611 446.097213 
M 363.506816 446.112175 
L 364.601238 446.259168 
M 364.844443 446.273607 
L 365.938865 446.415424 
M 366.18207 446.429351 
L 373.478219 447.192729 
M 373.721424 447.20382 
L 377.126293 447.504838 
M 377.369498 447.5145 
L 382.84161 447.906537 
M 383.084815 447.913921 
L 383.571225 447.950121 
M 383.81443 447.957217 
L 384.908852 448.025005 
M 385.152057 448.031317 
L 389.651349 448.237274 
M 389.894554 448.242368 
L 390.380964 448.267831 
M 390.624169 448.272921 
L 392.813013 448.36951 
M 393.056218 448.374586 
L 394.15064 448.425317 
M 394.393845 448.430386 
L 396.09628 448.506343 
M 396.339485 448.511402 
L 399.744355 448.6578 
M 399.98756 448.662838 
L 402.541212 448.773504 
M 402.784417 448.778526 
L 408.86454 449.033781 
M 409.107745 449.038768 
L 411.174988 449.128429 
M 411.418193 449.133404 
L 418.349534 449.420803 
M 418.592739 449.425738 
L 421.267993 449.539073 
M 421.511198 449.543992 
L 423.213633 449.617708 
M 423.456838 449.622617 
L 423.821645 449.642247 
M 424.06485 449.647152 
L 427.226515 449.77936 
M 427.46972 449.784247 
L 428.077732 449.813557 
M 428.320937 449.81844 
L 430.023372 449.88673 
L 430.144974 75.504578 
L 433.793049 77.211413 
M 434.036254 77.266354 
L 435.130676 77.815357 
M 435.373881 77.870217 
L 438.049136 79.12996 
M 438.29234 79.184643 
L 438.413943 79.239319 
L 438.657148 78.217034 
L 438.900353 77.33809 
L 439.143558 77.349727 
L 441.2108 78.281936 
L 444.980477 115.560809 
M 445.223682 116.717701 
L 445.710092 121.34033 
L 445.831694 123.648682 
M 446.074899 124.802118 
L 447.412526 137.457456 
L 447.534129 139.752077 
M 447.777334 140.898662 
L 448.263744 145.480193 
L 448.385346 81.502106 
L 449.966179 96.447628 
L 450.087781 98.74006 
M 450.330986 99.885604 
L 450.817396 104.463357 
L 450.938998 106.749609 
M 451.182203 107.892086 
L 455.559893 149.878288 
M 455.803098 151.00575 
L 456.775917 160.012328 
L 456.89752 85.290034 
L 461.640017 130.376514 
M 461.883221 131.49657 
L 462.369631 135.973362 
L 462.491234 138.209709 
M 462.734439 139.32737 
L 469.300973 200.276443 
M 469.544178 201.375167 
L 470.881805 213.439015 
L 471.003407 215.628089 
M 471.246612 216.722125 
L 473.435457 236.35766 
L 473.55706 238.532719 
M 473.800264 239.619749 
L 479.150774 288.192863 
M 479.393979 289.264665 
L 480.123593 295.688566 
L 480.245196 297.827235 
M 480.488401 298.896077 
L 484.136475 331.867545 
M 484.37968 332.925908 
L 488.27096 367.669325 
M 488.514164 368.716638 
L 489.243779 374.993721 
L 489.365382 377.083495 
M 489.608587 378.127897 
L 490.338202 384.387529 
L 490.459804 386.471492 
M 490.703009 387.512989 
L 492.283841 401.023166 
L 492.405444 403.096834 
M 492.648649 404.133186 
L 493.621469 412.412466 
L 493.743071 414.479084 
M 493.986276 415.511913 
L 499.458388 462.677802 
M 499.701593 463.695697 
L 500.674412 471.827512 
L 500.796015 473.857315 
M 501.03922 474.871744 
L 503.106462 492.068987 
L 503.228064 494.086234 
M 503.471269 495.094389 
L 506.024921 516.1935 
L 506.146524 518.195774 
M 506.389729 519.196445 
L 507.362549 527.190638 
L 507.484151 529.186085 
M 507.727356 530.183344 
L 510.281008 551.054409 
L 510.402611 553.03504 
M 510.645816 554.024894 
L 511.618636 561.932671 
L 511.740238 563.906546 
M 511.983443 564.893024 
L 513.199468 574.74097 
L 513.32107 576.70689 
M 513.564275 577.689392 
L 515.023505 589.455633 
L 515.145107 591.41241 
M 515.388312 592.390343 
L 516.604337 602.152962 
L 516.72594 604.101845 
M 516.969145 605.075832 
L 521.954846 645.710726 
M 522.198051 646.671758 
L 522.492813 649 
L 522.492813 649 
" clip-path="url(#p72568ecc2a)" style="fill: none; stroke-dasharray: 44.8,11.2,7,11.2; stroke-dashoffset: 0; stroke: #ff0000; stroke-opacity: 0.6; stroke-width: 7"/>
   </g>
   <g id="patch_3">
    <path d="M 117.505 612.92 
L 117.505 10.8 
" style="fill: none; stroke: #000000; stroke-width: 0.8; stroke-linejoin: miter; stroke-linecap: square"/>
   </g>
   <g id="patch_4">
    <path d="M 853.2 612.92 
L 853.2 10.8 
" style="fill: none; stroke: #000000; stroke-width: 0.8; stroke-linejoin: miter; stroke-linecap: square"/>
   </g>
   <g id="patch_5">
    <path d="M 117.505 612.92 
L 853.2 612.92 
" style="fill: none; stroke: #000000; stroke-width: 0.8; stroke-linejoin: miter; stroke-linecap: square"/>
   </g>
   <g id="patch_6">
    <path d="M 117.505 10.8 
L 853.2 10.8 
" style="fill: none; stroke: #000000; stroke-width: 0.8; stroke-linejoin: miter; stroke-linecap: square"/>
   </g>
   <g id="text_11">
    <!-- 4 RMSE: 16.88 m -->
    <g style="fill: #0000ff" transform="translate(632.4915 71.012) scale(0.1728 -0.1728)">
     <defs>
      <path id="DejaVuSans-34" d="M 2419 4116 
L 825 1625 
L 2419 1625 
L 2419 4116 
z
M 2253 4666 
L 3047 4666 
L 3047 1625 
L 3713 1625 
L 3713 1100 
L 3047 1100 
L 3047 0 
L 2419 0 
L 2419 1100 
L 313 1100 
L 313 1709 
L 2253 4666 
z
" transform="scale(0.015625)"/>
      <path id="DejaVuSans-52" d="M 2841 2188 
Q 3044 2119 3236 1894 
Q 3428 1669 3622 1275 
L 4263 0 
L 3584 0 
L 2988 1197 
Q 2756 1666 2539 1819 
Q 2322 1972 1947 1972 
L 1259 1972 
L 1259 0 
L 628 0 
L 628 4666 
L 2053 4666 
Q 2853 4666 3247 4331 
Q 3641 3997 3641 3322 
Q 3641 2881 3436 2590 
Q 3231 2300 2841 2188 
z
M 1259 4147 
L 1259 2491 
L 2053 2491 
Q 2509 2491 2742 2702 
Q 2975 2913 2975 3322 
Q 2975 3731 2742 3939 
Q 2509 4147 2053 4147 
L 1259 4147 
z
" transform="scale(0.015625)"/>
      <path id="DejaVuSans-4d" d="M 628 4666 
L 1569 4666 
L 2759 1491 
L 3956 4666 
L 4897 4666 
L 4897 0 
L 4281 0 
L 4281 4097 
L 3078 897 
L 2444 897 
L 1241 4097 
L 1241 0 
L 628 0 
L 628 4666 
z
" transform="scale(0.015625)"/>
      <path id="DejaVuSans-53" d="M 3425 4513 
L 3425 3897 
Q 3066 4069 2747 4153 
Q 2428 4238 2131 4238 
Q 1616 4238 1336 4038 
Q 1056 3838 1056 3469 
Q 1056 3159 1242 3001 
Q 1428 2844 1947 2747 
L 2328 2669 
Q 3034 2534 3370 2195 
Q 3706 1856 3706 1288 
Q 3706 609 3251 259 
Q 2797 -91 1919 -91 
Q 1588 -91 1214 -16 
Q 841 59 441 206 
L 441 856 
Q 825 641 1194 531 
Q 1563 422 1919 422 
Q 2459 422 2753 634 
Q 3047 847 3047 1241 
Q 3047 1584 2836 1778 
Q 2625 1972 2144 2069 
L 1759 2144 
Q 1053 2284 737 2584 
Q 422 2884 422 3419 
Q 422 4038 858 4394 
Q 1294 4750 2059 4750 
Q 2388 4750 2728 4690 
Q 3069 4631 3425 4513 
z
" transform="scale(0.015625)"/>
      <path id="DejaVuSans-45" d="M 628 4666 
L 3578 4666 
L 3578 4134 
L 1259 4134 
L 1259 2753 
L 3481 2753 
L 3481 2222 
L 1259 2222 
L 1259 531 
L 3634 531 
L 3634 0 
L 628 0 
L 628 4666 
z
" transform="scale(0.015625)"/>
      <path id="DejaVuSans-3a" d="M 750 794 
L 1409 794 
L 1409 0 
L 750 0 
L 750 794 
z
M 750 3309 
L 1409 3309 
L 1409 2516 
L 750 2516 
L 750 3309 
z
" transform="scale(0.015625)"/>
      <path id="DejaVuSans-2e" d="M 684 794 
L 1344 794 
L 1344 0 
L 684 0 
L 684 794 
z
" transform="scale(0.015625)"/>
     </defs>
     <use xlink:href="#DejaVuSans-34"/>
     <use xlink:href="#DejaVuSans-20" x="63.623047"/>
     <use xlink:href="#DejaVuSans-52" x="95.410156"/>
     <use xlink:href="#DejaVuSans-4d" x="164.892578"/>
     <use xlink:href="#DejaVuSans-53" x="251.171875"/>
     <use xlink:href="#DejaVuSans-45" x="314.648438"/>
     <use xlink:href="#DejaVuSans-3a" x="377.832031"/>
     <use xlink:href="#DejaVuSans-20" x="411.523438"/>
     <use xlink:href="#DejaVuSans-31" x="443.310547"/>
     <use xlink:href="#DejaVuSans-36" x="506.933594"/>
     <use xlink:href="#DejaVuSans-2e" x="570.556641"/>
     <use xlink:href="#DejaVuSans-38" x="602.34375"/>
     <use xlink:href="#DejaVuSans-38" x="665.966797"/>
     <use xlink:href="#DejaVuSans-20" x="729.589844"/>
     <use xlink:href="#DejaVuSans-6d" x="761.376953"/>
    </g>
   </g>
   <g id="text_12">
    <!-- 6 RMSE: 17.67 m -->
    <g style="fill: #008000" transform="translate(632.4915 101.118) scale(0.1728 -0.1728)">
     <use xlink:href="#DejaVuSans-36"/>
     <use xlink:href="#DejaVuSans-20" x="63.623047"/>
     <use xlink:href="#DejaVuSans-52" x="95.410156"/>
     <use xlink:href="#DejaVuSans-4d" x="164.892578"/>
     <use xlink:href="#DejaVuSans-53" x="251.171875"/>
     <use xlink:href="#DejaVuSans-45" x="314.648438"/>
     <use xlink:href="#DejaVuSans-3a" x="377.832031"/>
     <use xlink:href="#DejaVuSans-20" x="411.523438"/>
     <use xlink:href="#DejaVuSans-31" x="443.310547"/>
     <use xlink:href="#DejaVuSans-37" x="506.933594"/>
     <use xlink:href="#DejaVuSans-2e" x="570.556641"/>
     <use xlink:href="#DejaVuSans-36" x="602.34375"/>
     <use xlink:href="#DejaVuSans-37" x="665.966797"/>
     <use xlink:href="#DejaVuSans-20" x="729.589844"/>
     <use xlink:href="#DejaVuSans-6d" x="761.376953"/>
    </g>
   </g>
   <g id="text_13">
    <!-- 7 RMSE: 13.97 m -->
    <g style="fill: #ff0000" transform="translate(632.4915 131.224) scale(0.1728 -0.1728)">
     <defs>
      <path id="DejaVuSans-39" d="M 703 97 
L 703 672 
Q 941 559 1184 500 
Q 1428 441 1663 441 
Q 2288 441 2617 861 
Q 2947 1281 2994 2138 
Q 2813 1869 2534 1725 
Q 2256 1581 1919 1581 
Q 1219 1581 811 2004 
Q 403 2428 403 3163 
Q 403 3881 828 4315 
Q 1253 4750 1959 4750 
Q 2769 4750 3195 4129 
Q 3622 3509 3622 2328 
Q 3622 1225 3098 567 
Q 2575 -91 1691 -91 
Q 1453 -91 1209 -44 
Q 966 3 703 97 
z
M 1959 2075 
Q 2384 2075 2632 2365 
Q 2881 2656 2881 3163 
Q 2881 3666 2632 3958 
Q 2384 4250 1959 4250 
Q 1534 4250 1286 3958 
Q 1038 3666 1038 3163 
Q 1038 2656 1286 2365 
Q 1534 2075 1959 2075 
z
" transform="scale(0.015625)"/>
     </defs>
     <use xlink:href="#DejaVuSans-37"/>
     <use xlink:href="#DejaVuSans-20" x="63.623047"/>
     <use xlink:href="#DejaVuSans-52" x="95.410156"/>
     <use xlink:href="#DejaVuSans-4d" x="164.892578"/>
     <use xlink:href="#DejaVuSans-53" x="251.171875"/>
     <use xlink:href="#DejaVuSans-45" x="314.648438"/>
     <use xlink:href="#DejaVuSans-3a" x="377.832031"/>
     <use xlink:href="#DejaVuSans-20" x="411.523438"/>
     <use xlink:href="#DejaVuSans-31" x="443.310547"/>
     <use xlink:href="#DejaVuSans-33" x="506.933594"/>
     <use xlink:href="#DejaVuSans-2e" x="570.556641"/>
     <use xlink:href="#DejaVuSans-39" x="602.34375"/>
     <use xlink:href="#DejaVuSans-37" x="665.966797"/>
     <use xlink:href="#DejaVuSans-20" x="729.589844"/>
     <use xlink:href="#DejaVuSans-6d" x="761.376953"/>
    </g>
   </g>
   <g id="text_14">
    <!-- 7 -->
    <g style="fill: #ff0000" transform="translate(492.70945 40.906) scale(0.1728 -0.1728)">
     <use xlink:href="#DejaVuSans-37"/>
    </g>
   </g>
   <g id="text_15">
    <!-- 8 -->
    <g transform="translate(558.922 40.906) scale(0.1728 -0.1728)">
     <use xlink:href="#DejaVuSans-38"/>
    </g>
   </g>
   <g id="text_16">
    <!-- 6 -->
    <g style="fill: #008000" transform="translate(522.13725 101.118) scale(0.1728 -0.1728)">
     <use xlink:href="#DejaVuSans-36"/>
    </g>
   </g>
   <g id="text_17">
    <!-- 4 -->
    <g style="fill: #0000ff" transform="translate(522.13725 161.33) scale(0.1728 -0.1728)">
     <use xlink:href="#DejaVuSans-34"/>
    </g>
   </g>
   <g id="legend_1">
    <g id="patch_7">
     <path d="M 129.601 126.0792 
L 407.4931 126.0792 
Q 410.9491 126.0792 410.9491 122.6232 
L 410.9491 22.896 
Q 410.9491 19.44 407.4931 19.44 
L 129.601 19.44 
Q 126.145 19.44 126.145 22.896 
L 126.145 122.6232 
Q 126.145 126.0792 129.601 126.0792 
z
" style="fill: #ffffff; opacity: 0.8; stroke: #cccccc; stroke-linejoin: miter"/>
    </g>
    <g id="line2d_14">
     <path d="M 133.057 33.4341 
L 150.337 33.4341 
L 167.617 33.4341 
" style="fill: none; stroke: #000000; stroke-opacity: 0.6; stroke-width: 7; stroke-linecap: square"/>
    </g>
    <g id="text_18">
     <!-- measurement -->
     <g transform="translate(181.441 39.4821) scale(0.1728 -0.1728)">
      <defs>
       <path id="DejaVuSans-61" d="M 2194 1759 
Q 1497 1759 1228 1600 
Q 959 1441 959 1056 
Q 959 750 1161 570 
Q 1363 391 1709 391 
Q 2188 391 2477 730 
Q 2766 1069 2766 1631 
L 2766 1759 
L 2194 1759 
z
M 3341 1997 
L 3341 0 
L 2766 0 
L 2766 531 
Q 2569 213 2275 61 
Q 1981 -91 1556 -91 
Q 1019 -91 701 211 
Q 384 513 384 1019 
Q 384 1609 779 1909 
Q 1175 2209 1959 2209 
L 2766 2209 
L 2766 2266 
Q 2766 2663 2505 2880 
Q 2244 3097 1772 3097 
Q 1472 3097 1187 3025 
Q 903 2953 641 2809 
L 641 3341 
Q 956 3463 1253 3523 
Q 1550 3584 1831 3584 
Q 2591 3584 2966 3190 
Q 3341 2797 3341 1997 
z
" transform="scale(0.015625)"/>
       <path id="DejaVuSans-73" d="M 2834 3397 
L 2834 2853 
Q 2591 2978 2328 3040 
Q 2066 3103 1784 3103 
Q 1356 3103 1142 2972 
Q 928 2841 928 2578 
Q 928 2378 1081 2264 
Q 1234 2150 1697 2047 
L 1894 2003 
Q 2506 1872 2764 1633 
Q 3022 1394 3022 966 
Q 3022 478 2636 193 
Q 2250 -91 1575 -91 
Q 1294 -91 989 -36 
Q 684 19 347 128 
L 347 722 
Q 666 556 975 473 
Q 1284 391 1588 391 
Q 1994 391 2212 530 
Q 2431 669 2431 922 
Q 2431 1156 2273 1281 
Q 2116 1406 1581 1522 
L 1381 1569 
Q 847 1681 609 1914 
Q 372 2147 372 2553 
Q 372 3047 722 3315 
Q 1072 3584 1716 3584 
Q 2034 3584 2315 3537 
Q 2597 3491 2834 3397 
z
" transform="scale(0.015625)"/>
       <path id="DejaVuSans-75" d="M 544 1381 
L 544 3500 
L 1119 3500 
L 1119 1403 
Q 1119 906 1312 657 
Q 1506 409 1894 409 
Q 2359 409 2629 706 
Q 2900 1003 2900 1516 
L 2900 3500 
L 3475 3500 
L 3475 0 
L 2900 0 
L 2900 538 
Q 2691 219 2414 64 
Q 2138 -91 1772 -91 
Q 1169 -91 856 284 
Q 544 659 544 1381 
z
M 1991 3584 
L 1991 3584 
z
" transform="scale(0.015625)"/>
       <path id="DejaVuSans-72" d="M 2631 2963 
Q 2534 3019 2420 3045 
Q 2306 3072 2169 3072 
Q 1681 3072 1420 2755 
Q 1159 2438 1159 1844 
L 1159 0 
L 581 0 
L 581 3500 
L 1159 3500 
L 1159 2956 
Q 1341 3275 1631 3429 
Q 1922 3584 2338 3584 
Q 2397 3584 2469 3576 
Q 2541 3569 2628 3553 
L 2631 2963 
z
" transform="scale(0.015625)"/>
       <path id="DejaVuSans-6e" d="M 3513 2113 
L 3513 0 
L 2938 0 
L 2938 2094 
Q 2938 2591 2744 2837 
Q 2550 3084 2163 3084 
Q 1697 3084 1428 2787 
Q 1159 2491 1159 1978 
L 1159 0 
L 581 0 
L 581 3500 
L 1159 3500 
L 1159 2956 
Q 1366 3272 1645 3428 
Q 1925 3584 2291 3584 
Q 2894 3584 3203 3211 
Q 3513 2838 3513 2113 
z
" transform="scale(0.015625)"/>
      </defs>
      <use xlink:href="#DejaVuSans-6d"/>
      <use xlink:href="#DejaVuSans-65" x="97.412109"/>
      <use xlink:href="#DejaVuSans-61" x="158.935547"/>
      <use xlink:href="#DejaVuSans-73" x="220.214844"/>
      <use xlink:href="#DejaVuSans-75" x="272.314453"/>
      <use xlink:href="#DejaVuSans-72" x="335.693359"/>
      <use xlink:href="#DejaVuSans-65" x="374.556641"/>
      <use xlink:href="#DejaVuSans-6d" x="436.080078"/>
      <use xlink:href="#DejaVuSans-65" x="533.492188"/>
      <use xlink:href="#DejaVuSans-6e" x="595.015625"/>
      <use xlink:href="#DejaVuSans-74" x="658.394531"/>
     </g>
    </g>
    <g id="line2d_15">
     <path d="M 133.057 58.7979 
L 150.337 58.7979 
L 167.617 58.7979 
" style="fill: none; stroke-dasharray: 25.9,11.2; stroke-dashoffset: 0; stroke: #0000ff; stroke-opacity: 0.6; stroke-width: 7"/>
    </g>
    <g id="text_19">
     <!-- estimate maintained by 4 -->
     <g transform="translate(181.441 64.8459) scale(0.1728 -0.1728)">
      <defs>
       <path id="DejaVuSans-69" d="M 603 3500 
L 1178 3500 
L 1178 0 
L 603 0 
L 603 3500 
z
M 603 4863 
L 1178 4863 
L 1178 4134 
L 603 4134 
L 603 4863 
z
" transform="scale(0.015625)"/>
       <path id="DejaVuSans-62" d="M 3116 1747 
Q 3116 2381 2855 2742 
Q 2594 3103 2138 3103 
Q 1681 3103 1420 2742 
Q 1159 2381 1159 1747 
Q 1159 1113 1420 752 
Q 1681 391 2138 391 
Q 2594 391 2855 752 
Q 3116 1113 3116 1747 
z
M 1159 2969 
Q 1341 3281 1617 3432 
Q 1894 3584 2278 3584 
Q 2916 3584 3314 3078 
Q 3713 2572 3713 1747 
Q 3713 922 3314 415 
Q 2916 -91 2278 -91 
Q 1894 -91 1617 61 
Q 1341 213 1159 525 
L 1159 0 
L 581 0 
L 581 4863 
L 1159 4863 
L 1159 2969 
z
" transform="scale(0.015625)"/>
       <path id="DejaVuSans-79" d="M 2059 -325 
Q 1816 -950 1584 -1140 
Q 1353 -1331 966 -1331 
L 506 -1331 
L 506 -850 
L 844 -850 
Q 1081 -850 1212 -737 
Q 1344 -625 1503 -206 
L 1606 56 
L 191 3500 
L 800 3500 
L 1894 763 
L 2988 3500 
L 3597 3500 
L 2059 -325 
z
" transform="scale(0.015625)"/>
      </defs>
      <use xlink:href="#DejaVuSans-65"/>
      <use xlink:href="#DejaVuSans-73" x="61.523438"/>
      <use xlink:href="#DejaVuSans-74" x="113.623047"/>
      <use xlink:href="#DejaVuSans-69" x="152.832031"/>
      <use xlink:href="#DejaVuSans-6d" x="180.615234"/>
      <use xlink:href="#DejaVuSans-61" x="278.027344"/>
      <use xlink:href="#DejaVuSans-74" x="339.306641"/>
      <use xlink:href="#DejaVuSans-65" x="378.515625"/>
      <use xlink:href="#DejaVuSans-20" x="440.039062"/>
      <use xlink:href="#DejaVuSans-6d" x="471.826172"/>
      <use xlink:href="#DejaVuSans-61" x="569.238281"/>
      <use xlink:href="#DejaVuSans-69" x="630.517578"/>
      <use xlink:href="#DejaVuSans-6e" x="658.300781"/>
      <use xlink:href="#DejaVuSans-74" x="721.679688"/>
      <use xlink:href="#DejaVuSans-61" x="760.888672"/>
      <use xlink:href="#DejaVuSans-69" x="822.167969"/>
      <use xlink:href="#DejaVuSans-6e" x="849.951172"/>
      <use xlink:href="#DejaVuSans-65" x="913.330078"/>
      <use xlink:href="#DejaVuSans-64" x="974.853516"/>
      <use xlink:href="#DejaVuSans-20" x="1038.330078"/>
      <use xlink:href="#DejaVuSans-62" x="1070.117188"/>
      <use xlink:href="#DejaVuSans-79" x="1133.59375"/>
      <use xlink:href="#DejaVuSans-20" x="1192.773438"/>
      <use xlink:href="#DejaVuSans-34" x="1224.560547"/>
     </g>
    </g>
    <g id="line2d_16">
     <path d="M 133.057 84.1617 
L 150.337 84.1617 
L 167.617 84.1617 
" style="fill: none; stroke-dasharray: 7,11.55; stroke-dashoffset: 0; stroke: #008000; stroke-opacity: 0.6; stroke-width: 7"/>
    </g>
    <g id="text_20">
     <!-- estimate maintained by 6 -->
     <g transform="translate(181.441 90.2097) scale(0.1728 -0.1728)">
      <use xlink:href="#DejaVuSans-65"/>
      <use xlink:href="#DejaVuSans-73" x="61.523438"/>
      <use xlink:href="#DejaVuSans-74" x="113.623047"/>
      <use xlink:href="#DejaVuSans-69" x="152.832031"/>
      <use xlink:href="#DejaVuSans-6d" x="180.615234"/>
      <use xlink:href="#DejaVuSans-61" x="278.027344"/>
      <use xlink:href="#DejaVuSans-74" x="339.306641"/>
      <use xlink:href="#DejaVuSans-65" x="378.515625"/>
      <use xlink:href="#DejaVuSans-20" x="440.039062"/>
      <use xlink:href="#DejaVuSans-6d" x="471.826172"/>
      <use xlink:href="#DejaVuSans-61" x="569.238281"/>
      <use xlink:href="#DejaVuSans-69" x="630.517578"/>
      <use xlink:href="#DejaVuSans-6e" x="658.300781"/>
      <use xlink:href="#DejaVuSans-74" x="721.679688"/>
      <use xlink:href="#DejaVuSans-61" x="760.888672"/>
      <use xlink:href="#DejaVuSans-69" x="822.167969"/>
      <use xlink:href="#DejaVuSans-6e" x="849.951172"/>
      <use xlink:href="#DejaVuSans-65" x="913.330078"/>
      <use xlink:href="#DejaVuSans-64" x="974.853516"/>
      <use xlink:href="#DejaVuSans-20" x="1038.330078"/>
      <use xlink:href="#DejaVuSans-62" x="1070.117188"/>
      <use xlink:href="#DejaVuSans-79" x="1133.59375"/>
      <use xlink:href="#DejaVuSans-20" x="1192.773438"/>
      <use xlink:href="#DejaVuSans-36" x="1224.560547"/>
     </g>
    </g>
    <g id="line2d_17">
     <path d="M 133.057 109.5255 
L 150.337 109.5255 
L 167.617 109.5255 
" style="fill: none; stroke-dasharray: 44.8,11.2,7,11.2; stroke-dashoffset: 0; stroke: #ff0000; stroke-opacity: 0.6; stroke-width: 7"/>
    </g>
    <g id="text_21">
     <!-- estimate maintained by 7 -->
     <g transform="translate(181.441 115.5735) scale(0.1728 -0.1728)">
      <use xlink:href="#DejaVuSans-65"/>
      <use xlink:href="#DejaVuSans-73" x="61.523438"/>
      <use xlink:href="#DejaVuSans-74" x="113.623047"/>
      <use xlink:href="#DejaVuSans-69" x="152.832031"/>
      <use xlink:href="#DejaVuSans-6d" x="180.615234"/>
      <use xlink:href="#DejaVuSans-61" x="278.027344"/>
      <use xlink:href="#DejaVuSans-74" x="339.306641"/>
      <use xlink:href="#DejaVuSans-65" x="378.515625"/>
      <use xlink:href="#DejaVuSans-20" x="440.039062"/>
      <use xlink:href="#DejaVuSans-6d" x="471.826172"/>
      <use xlink:href="#DejaVuSans-61" x="569.238281"/>
      <use xlink:href="#DejaVuSans-69" x="630.517578"/>
      <use xlink:href="#DejaVuSans-6e" x="658.300781"/>
      <use xlink:href="#DejaVuSans-74" x="721.679688"/>
      <use xlink:href="#DejaVuSans-61" x="760.888672"/>
      <use xlink:href="#DejaVuSans-69" x="822.167969"/>
      <use xlink:href="#DejaVuSans-6e" x="849.951172"/>
      <use xlink:href="#DejaVuSans-65" x="913.330078"/>
      <use xlink:href="#DejaVuSans-64" x="974.853516"/>
      <use xlink:href="#DejaVuSans-20" x="1038.330078"/>
      <use xlink:href="#DejaVuSans-62" x="1070.117188"/>
      <use xlink:href="#DejaVuSans-79" x="1133.59375"/>
      <use xlink:href="#DejaVuSans-20" x="1192.773438"/>
      <use xlink:href="#DejaVuSans-37" x="1224.560547"/>
     </g>
    </g>
   </g>
  </g>
  <g id="line2d_18">
   <path d="M 507.42335 46.9272 
L 522.13725 89.0756 
" style="fill: none; stroke: #000000; stroke-opacity: 0.5; stroke-width: 2; stroke-linecap: square"/>
  </g>
  <g id="line2d_19">
   <path d="M 558.922 40.906 
L 536.85115 89.0756 
" style="fill: none; stroke: #000000; stroke-opacity: 0.5; stroke-width: 2; stroke-linecap: square"/>
  </g>
  <g id="line2d_20">
   <path d="M 529.4942 107.1392 
L 529.4942 137.2452 
" style="fill: none; stroke: #000000; stroke-opacity: 0.5; stroke-width: 2; stroke-linecap: square"/>
  </g>
 </g>
 <defs>
  <clipPath id="p72568ecc2a">
   <rect x="117.505" y="10.8" width="735.695" height="602.12"/>
  </clipPath>
 </defs>
</svg>
