<?xml version="1.0" encoding="utf-8" standalone="no"?>
<!DOCTYPE svg PUBLIC "-//W3C//DTD SVG 1.1//EN"
  "http://www.w3.org/Graphics/SVG/1.1/DTD/svg11.dtd">
<svg xmlns:xlink="http://www.w3.org/1999/xlink" width="864pt" height="648pt" viewBox="0 0 864 648" xmlns="http://www.w3.org/2000/svg" version="1.1">
 <metadata>
  <rdf:RDF xmlns:dc="http://purl.org/dc/elements/1.1/" xmlns:cc="http://creativecommons.org/ns#" xmlns:rdf="http://www.w3.org/1999/02/22-rdf-syntax-ns#">
   <cc:Work>
    <dc:type rdf:resource="http://purl.org/dc/dcmitype/StillImage"/>
    <dc:date>2024-10-29T15:03:36.909794</dc:date>
    <dc:format>image/svg+xml</dc:format>
    <dc:creator>
     <cc:Agent>
      <dc:title>Matplotlib v3.9.2, https://matplotlib.org/</dc:title>
     </cc:Agent>
    </dc:creator>
   </cc:Work>
  </rdf:RDF>
 </metadata>
 <defs>
  <style type="text/css">*{stroke-linejoin: round; stroke-linecap: butt}</style>
 </defs>
 <g id="figure_1">
  <g id="patch_1">
   <path d="M 0 648 
L 864 648 
L 864 0 
L 0 0 
z
" style="fill: #ffffff"/>
  </g>
  <g id="axes_1">
   <g id="patch_2">
    <path d="M 134.155 612.92 
L 847.629633 612.92 
L 847.629633 17.64 
L 134.155 17.64 
z
" style="fill: #ffffff"/>
   </g>
   <g id="matplotlib.axis_1">
    <g id="xtick_1">
     <g id="line2d_1">
      <defs>
       <path id="m4eeae236c1" d="M 0 0 
L 0 3.5 
" style="stroke: #000000; stroke-width: 0.8"/>
      </defs>
      <g>
       <use xlink:href="#m4eeae236c1" x="229.262935" y="612.92" style="stroke: #000000; stroke-width: 0.8"/>
      </g>
     </g>
     <g id="text_1">
      <!-- 2021-04-19 -->
      <g transform="translate(179.051035 633.0501) scale(0.1728 -0.1728)">
       <defs>
        <path id="DejaVuSans-32" d="M 1228 531 
L 3431 531 
L 3431 0 
L 469 0 
L 469 531 
Q 828 903 1448 1529 
Q 2069 2156 2228 2338 
Q 2531 2678 2651 2914 
Q 2772 3150 2772 3378 
Q 2772 3750 2511 3984 
Q 2250 4219 1831 4219 
Q 1534 4219 1204 4116 
Q 875 4013 500 3803 
L 500 4441 
Q 881 4594 1212 4672 
Q 1544 4750 1819 4750 
Q 2544 4750 2975 4387 
Q 3406 4025 3406 3419 
Q 3406 3131 3298 2873 
Q 3191 2616 2906 2266 
Q 2828 2175 2409 1742 
Q 1991 1309 1228 531 
z
" transform="scale(0.015625)"/>
        <path id="DejaVuSans-30" d="M 2034 4250 
Q 1547 4250 1301 3770 
Q 1056 3291 1056 2328 
Q 1056 1369 1301 889 
Q 1547 409 2034 409 
Q 2525 409 2770 889 
Q 3016 1369 3016 2328 
Q 3016 3291 2770 3770 
Q 2525 4250 2034 4250 
z
M 2034 4750 
Q 2819 4750 3233 4129 
Q 3647 3509 3647 2328 
Q 3647 1150 3233 529 
Q 2819 -91 2034 -91 
Q 1250 -91 836 529 
Q 422 1150 422 2328 
Q 422 3509 836 4129 
Q 1250 4750 2034 4750 
z
" transform="scale(0.015625)"/>
        <path id="DejaVuSans-31" d="M 794 531 
L 1825 531 
L 1825 4091 
L 703 3866 
L 703 4441 
L 1819 4666 
L 2450 4666 
L 2450 531 
L 3481 531 
L 3481 0 
L 794 0 
L 794 531 
z
" transform="scale(0.015625)"/>
        <path id="DejaVuSans-2d" d="M 313 2009 
L 1997 2009 
L 1997 1497 
L 313 1497 
L 313 2009 
z
" transform="scale(0.015625)"/>
        <path id="DejaVuSans-34" d="M 2419 4116 
L 825 1625 
L 2419 1625 
L 2419 4116 
z
M 2253 4666 
L 3047 4666 
L 3047 1625 
L 3713 1625 
L 3713 1100 
L 3047 1100 
L 3047 0 
L 2419 0 
L 2419 1100 
L 313 1100 
L 313 1709 
L 2253 4666 
z
" transform="scale(0.015625)"/>
        <path id="DejaVuSans-39" d="M 703 97 
L 703 672 
Q 941 559 1184 500 
Q 1428 441 1663 441 
Q 2288 441 2617 861 
Q 2947 1281 2994 2138 
Q 2813 1869 2534 1725 
Q 2256 1581 1919 1581 
Q 1219 1581 811 2004 
Q 403 2428 403 3163 
Q 403 3881 828 4315 
Q 1253 4750 1959 4750 
Q 2769 4750 3195 4129 
Q 3622 3509 3622 2328 
Q 3622 1225 3098 567 
Q 2575 -91 1691 -91 
Q 1453 -91 1209 -44 
Q 966 3 703 97 
z
M 1959 2075 
Q 2384 2075 2632 2365 
Q 2881 2656 2881 3163 
Q 2881 3666 2632 3958 
Q 2384 4250 1959 4250 
Q 1534 4250 1286 3958 
Q 1038 3666 1038 3163 
Q 1038 2656 1286 2365 
Q 1534 2075 1959 2075 
z
" transform="scale(0.015625)"/>
       </defs>
       <use xlink:href="#DejaVuSans-32"/>
       <use xlink:href="#DejaVuSans-30" x="63.623047"/>
       <use xlink:href="#DejaVuSans-32" x="127.246094"/>
       <use xlink:href="#DejaVuSans-31" x="190.869141"/>
       <use xlink:href="#DejaVuSans-2d" x="254.492188"/>
       <use xlink:href="#DejaVuSans-30" x="290.576172"/>
       <use xlink:href="#DejaVuSans-34" x="354.199219"/>
       <use xlink:href="#DejaVuSans-2d" x="417.822266"/>
       <use xlink:href="#DejaVuSans-31" x="453.90625"/>
       <use xlink:href="#DejaVuSans-39" x="517.529297"/>
      </g>
     </g>
    </g>
    <g id="xtick_2">
     <g id="line2d_2">
      <g>
       <use xlink:href="#m4eeae236c1" x="419.478806" y="612.92" style="stroke: #000000; stroke-width: 0.8"/>
      </g>
     </g>
     <g id="text_2">
      <!-- 2021-04-27 -->
      <g transform="translate(369.266906 633.0501) scale(0.1728 -0.1728)">
       <defs>
        <path id="DejaVuSans-37" d="M 525 4666 
L 3525 4666 
L 3525 4397 
L 1831 0 
L 1172 0 
L 2766 4134 
L 525 4134 
L 525 4666 
z
" transform="scale(0.015625)"/>
       </defs>
       <use xlink:href="#DejaVuSans-32"/>
       <use xlink:href="#DejaVuSans-30" x="63.623047"/>
       <use xlink:href="#DejaVuSans-32" x="127.246094"/>
       <use xlink:href="#DejaVuSans-31" x="190.869141"/>
       <use xlink:href="#DejaVuSans-2d" x="254.492188"/>
       <use xlink:href="#DejaVuSans-30" x="290.576172"/>
       <use xlink:href="#DejaVuSans-34" x="354.199219"/>
       <use xlink:href="#DejaVuSans-2d" x="417.822266"/>
       <use xlink:href="#DejaVuSans-32" x="453.90625"/>
       <use xlink:href="#DejaVuSans-37" x="517.529297"/>
      </g>
     </g>
    </g>
    <g id="xtick_3">
     <g id="line2d_3">
      <g>
       <use xlink:href="#m4eeae236c1" x="609.694677" y="612.92" style="stroke: #000000; stroke-width: 0.8"/>
      </g>
     </g>
     <g id="text_3">
      <!-- 2021-05-05 -->
      <g transform="translate(559.482777 633.0501) scale(0.1728 -0.1728)">
       <defs>
        <path id="DejaVuSans-35" d="M 691 4666 
L 3169 4666 
L 3169 4134 
L 1269 4134 
L 1269 2991 
Q 1406 3038 1543 3061 
Q 1681 3084 1819 3084 
Q 2600 3084 3056 2656 
Q 3513 2228 3513 1497 
Q 3513 744 3044 326 
Q 2575 -91 1722 -91 
Q 1428 -91 1123 -41 
Q 819 9 494 109 
L 494 744 
Q 775 591 1075 516 
Q 1375 441 1709 441 
Q 2250 441 2565 725 
Q 2881 1009 2881 1497 
Q 2881 1984 2565 2268 
Q 2250 2553 1709 2553 
Q 1456 2553 1204 2497 
Q 953 2441 691 2322 
L 691 4666 
z
" transform="scale(0.015625)"/>
       </defs>
       <use xlink:href="#DejaVuSans-32"/>
       <use xlink:href="#DejaVuSans-30" x="63.623047"/>
       <use xlink:href="#DejaVuSans-32" x="127.246094"/>
       <use xlink:href="#DejaVuSans-31" x="190.869141"/>
       <use xlink:href="#DejaVuSans-2d" x="254.492188"/>
       <use xlink:href="#DejaVuSans-30" x="290.576172"/>
       <use xlink:href="#DejaVuSans-35" x="354.199219"/>
       <use xlink:href="#DejaVuSans-2d" x="417.822266"/>
       <use xlink:href="#DejaVuSans-30" x="453.90625"/>
       <use xlink:href="#DejaVuSans-35" x="517.529297"/>
      </g>
     </g>
    </g>
    <g id="xtick_4">
     <g id="line2d_4">
      <g>
       <use xlink:href="#m4eeae236c1" x="799.910548" y="612.92" style="stroke: #000000; stroke-width: 0.8"/>
      </g>
     </g>
     <g id="text_4">
      <!-- 2021-05-13 -->
      <g transform="translate(749.698648 633.0501) scale(0.1728 -0.1728)">
       <defs>
        <path id="DejaVuSans-33" d="M 2597 2516 
Q 3050 2419 3304 2112 
Q 3559 1806 3559 1356 
Q 3559 666 3084 287 
Q 2609 -91 1734 -91 
Q 1441 -91 1130 -33 
Q 819 25 488 141 
L 488 750 
Q 750 597 1062 519 
Q 1375 441 1716 441 
Q 2309 441 2620 675 
Q 2931 909 2931 1356 
Q 2931 1769 2642 2001 
Q 2353 2234 1838 2234 
L 1294 2234 
L 1294 2753 
L 1863 2753 
Q 2328 2753 2575 2939 
Q 2822 3125 2822 3475 
Q 2822 3834 2567 4026 
Q 2313 4219 1838 4219 
Q 1578 4219 1281 4162 
Q 984 4106 628 3988 
L 628 4550 
Q 988 4650 1302 4700 
Q 1616 4750 1894 4750 
Q 2613 4750 3031 4423 
Q 3450 4097 3450 3541 
Q 3450 3153 3228 2886 
Q 3006 2619 2597 2516 
z
" transform="scale(0.015625)"/>
       </defs>
       <use xlink:href="#DejaVuSans-32"/>
       <use xlink:href="#DejaVuSans-30" x="63.623047"/>
       <use xlink:href="#DejaVuSans-32" x="127.246094"/>
       <use xlink:href="#DejaVuSans-31" x="190.869141"/>
       <use xlink:href="#DejaVuSans-2d" x="254.492188"/>
       <use xlink:href="#DejaVuSans-30" x="290.576172"/>
       <use xlink:href="#DejaVuSans-35" x="354.199219"/>
       <use xlink:href="#DejaVuSans-2d" x="417.822266"/>
       <use xlink:href="#DejaVuSans-31" x="453.90625"/>
       <use xlink:href="#DejaVuSans-33" x="517.529297"/>
      </g>
     </g>
    </g>
   </g>
   <g id="matplotlib.axis_2">
    <g id="ytick_1">
     <g id="line2d_5">
      <defs>
       <path id="m303931fb23" d="M 0 0 
L -3.5 0 
" style="stroke: #000000; stroke-width: 0.8"/>
      </defs>
      <g>
       <use xlink:href="#m303931fb23" x="134.155" y="612.92" style="stroke: #000000; stroke-width: 0.8"/>
      </g>
     </g>
     <g id="text_5">
      <!-- −1.0 -->
      <g transform="translate(85.1943 619.48505) scale(0.1728 -0.1728)">
       <defs>
        <path id="DejaVuSans-2212" d="M 678 2272 
L 4684 2272 
L 4684 1741 
L 678 1741 
L 678 2272 
z
" transform="scale(0.015625)"/>
        <path id="DejaVuSans-2e" d="M 684 794 
L 1344 794 
L 1344 0 
L 684 0 
L 684 794 
z
" transform="scale(0.015625)"/>
       </defs>
       <use xlink:href="#DejaVuSans-2212"/>
       <use xlink:href="#DejaVuSans-31" x="83.789062"/>
       <use xlink:href="#DejaVuSans-2e" x="147.412109"/>
       <use xlink:href="#DejaVuSans-30" x="179.199219"/>
      </g>
     </g>
    </g>
    <g id="ytick_2">
     <g id="line2d_6">
      <g>
       <use xlink:href="#m303931fb23" x="134.155" y="493.864" style="stroke: #000000; stroke-width: 0.8"/>
      </g>
     </g>
     <g id="text_6">
      <!-- −0.5 -->
      <g transform="translate(85.1943 500.42905) scale(0.1728 -0.1728)">
       <use xlink:href="#DejaVuSans-2212"/>
       <use xlink:href="#DejaVuSans-30" x="83.789062"/>
       <use xlink:href="#DejaVuSans-2e" x="147.412109"/>
       <use xlink:href="#DejaVuSans-35" x="179.199219"/>
      </g>
     </g>
    </g>
    <g id="ytick_3">
     <g id="line2d_7">
      <g>
       <use xlink:href="#m303931fb23" x="134.155" y="374.808" style="stroke: #000000; stroke-width: 0.8"/>
      </g>
     </g>
     <g id="text_7">
      <!-- 0.0 -->
      <g transform="translate(99.6744 381.37305) scale(0.1728 -0.1728)">
       <use xlink:href="#DejaVuSans-30"/>
       <use xlink:href="#DejaVuSans-2e" x="63.623047"/>
       <use xlink:href="#DejaVuSans-30" x="95.410156"/>
      </g>
     </g>
    </g>
    <g id="ytick_4">
     <g id="line2d_8">
      <g>
       <use xlink:href="#m303931fb23" x="134.155" y="255.752" style="stroke: #000000; stroke-width: 0.8"/>
      </g>
     </g>
     <g id="text_8">
      <!-- 0.5 -->
      <g transform="translate(99.6744 262.31705) scale(0.1728 -0.1728)">
       <use xlink:href="#DejaVuSans-30"/>
       <use xlink:href="#DejaVuSans-2e" x="63.623047"/>
       <use xlink:href="#DejaVuSans-35" x="95.410156"/>
      </g>
     </g>
    </g>
    <g id="ytick_5">
     <g id="line2d_9">
      <g>
       <use xlink:href="#m303931fb23" x="134.155" y="136.696" style="stroke: #000000; stroke-width: 0.8"/>
      </g>
     </g>
     <g id="text_9">
      <!-- 1.0 -->
      <g transform="translate(99.6744 143.26105) scale(0.1728 -0.1728)">
       <use xlink:href="#DejaVuSans-31"/>
       <use xlink:href="#DejaVuSans-2e" x="63.623047"/>
       <use xlink:href="#DejaVuSans-30" x="95.410156"/>
      </g>
     </g>
    </g>
    <g id="ytick_6">
     <g id="line2d_10">
      <g>
       <use xlink:href="#m303931fb23" x="134.155" y="17.64" style="stroke: #000000; stroke-width: 0.8"/>
      </g>
     </g>
     <g id="text_10">
      <!-- 1.5 -->
      <g transform="translate(99.6744 24.20505) scale(0.1728 -0.1728)">
       <use xlink:href="#DejaVuSans-31"/>
       <use xlink:href="#DejaVuSans-2e" x="63.623047"/>
       <use xlink:href="#DejaVuSans-35" x="95.410156"/>
      </g>
     </g>
    </g>
    <g id="text_11">
     <!-- Node 8 -->
     <g transform="translate(24.39945 292.33648) scale(0.1728 -0.1728)">
      <defs>
       <path id="DejaVuSans-4e" d="M 628 4666 
L 1478 4666 
L 3547 763 
L 3547 4666 
L 4159 4666 
L 4159 0 
L 3309 0 
L 1241 3903 
L 1241 0 
L 628 0 
L 628 4666 
z
" transform="scale(0.015625)"/>
       <path id="DejaVuSans-6f" d="M 1959 3097 
Q 1497 3097 1228 2736 
Q 959 2375 959 1747 
Q 959 1119 1226 758 
Q 1494 397 1959 397 
Q 2419 397 2687 759 
Q 2956 1122 2956 1747 
Q 2956 2369 2687 2733 
Q 2419 3097 1959 3097 
z
M 1959 3584 
Q 2709 3584 3137 3096 
Q 3566 2609 3566 1747 
Q 3566 888 3137 398 
Q 2709 -91 1959 -91 
Q 1206 -91 779 398 
Q 353 888 353 1747 
Q 353 2609 779 3096 
Q 1206 3584 1959 3584 
z
" transform="scale(0.015625)"/>
       <path id="DejaVuSans-64" d="M 2906 2969 
L 2906 4863 
L 3481 4863 
L 3481 0 
L 2906 0 
L 2906 525 
Q 2725 213 2448 61 
Q 2172 -91 1784 -91 
Q 1150 -91 751 415 
Q 353 922 353 1747 
Q 353 2572 751 3078 
Q 1150 3584 1784 3584 
Q 2172 3584 2448 3432 
Q 2725 3281 2906 2969 
z
M 947 1747 
Q 947 1113 1208 752 
Q 1469 391 1925 391 
Q 2381 391 2643 752 
Q 2906 1113 2906 1747 
Q 2906 2381 2643 2742 
Q 2381 3103 1925 3103 
Q 1469 3103 1208 2742 
Q 947 2381 947 1747 
z
" transform="scale(0.015625)"/>
       <path id="DejaVuSans-65" d="M 3597 1894 
L 3597 1613 
L 953 1613 
Q 991 1019 1311 708 
Q 1631 397 2203 397 
Q 2534 397 2845 478 
Q 3156 559 3463 722 
L 3463 178 
Q 3153 47 2828 -22 
Q 2503 -91 2169 -91 
Q 1331 -91 842 396 
Q 353 884 353 1716 
Q 353 2575 817 3079 
Q 1281 3584 2069 3584 
Q 2775 3584 3186 3129 
Q 3597 2675 3597 1894 
z
M 3022 2063 
Q 3016 2534 2758 2815 
Q 2500 3097 2075 3097 
Q 1594 3097 1305 2825 
Q 1016 2553 972 2059 
L 3022 2063 
z
" transform="scale(0.015625)"/>
       <path id="DejaVuSans-20" transform="scale(0.015625)"/>
       <path id="DejaVuSans-38" d="M 2034 2216 
Q 1584 2216 1326 1975 
Q 1069 1734 1069 1313 
Q 1069 891 1326 650 
Q 1584 409 2034 409 
Q 2484 409 2743 651 
Q 3003 894 3003 1313 
Q 3003 1734 2745 1975 
Q 2488 2216 2034 2216 
z
M 1403 2484 
Q 997 2584 770 2862 
Q 544 3141 544 3541 
Q 544 4100 942 4425 
Q 1341 4750 2034 4750 
Q 2731 4750 3128 4425 
Q 3525 4100 3525 3541 
Q 3525 3141 3298 2862 
Q 3072 2584 2669 2484 
Q 3125 2378 3379 2068 
Q 3634 1759 3634 1313 
Q 3634 634 3220 271 
Q 2806 -91 2034 -91 
Q 1263 -91 848 271 
Q 434 634 434 1313 
Q 434 1759 690 2068 
Q 947 2378 1403 2484 
z
M 1172 3481 
Q 1172 3119 1398 2916 
Q 1625 2713 2034 2713 
Q 2441 2713 2670 2916 
Q 2900 3119 2900 3481 
Q 2900 3844 2670 4047 
Q 2441 4250 2034 4250 
Q 1625 4250 1398 4047 
Q 1172 3844 1172 3481 
z
" transform="scale(0.015625)"/>
      </defs>
      <use xlink:href="#DejaVuSans-4e"/>
      <use xlink:href="#DejaVuSans-6f" x="74.804688"/>
      <use xlink:href="#DejaVuSans-64" x="135.986328"/>
      <use xlink:href="#DejaVuSans-65" x="199.462891"/>
      <use xlink:href="#DejaVuSans-20" x="260.986328"/>
      <use xlink:href="#DejaVuSans-38" x="292.773438"/>
     </g>
     <!-- Depth (m) -->
     <g transform="translate(10.9737 311.6863) scale(0.1728 -0.1728)">
      <defs>
       <path id="DejaVuSans-44" d="M 1259 4147 
L 1259 519 
L 2022 519 
Q 2988 519 3436 956 
Q 3884 1394 3884 2338 
Q 3884 3275 3436 3711 
Q 2988 4147 2022 4147 
L 1259 4147 
z
M 628 4666 
L 1925 4666 
Q 3281 4666 3915 4102 
Q 4550 3538 4550 2338 
Q 4550 1131 3912 565 
Q 3275 0 1925 0 
L 628 0 
L 628 4666 
z
" transform="scale(0.015625)"/>
       <path id="DejaVuSans-70" d="M 1159 525 
L 1159 -1331 
L 581 -1331 
L 581 3500 
L 1159 3500 
L 1159 2969 
Q 1341 3281 1617 3432 
Q 1894 3584 2278 3584 
Q 2916 3584 3314 3078 
Q 3713 2572 3713 1747 
Q 3713 922 3314 415 
Q 2916 -91 2278 -91 
Q 1894 -91 1617 61 
Q 1341 213 1159 525 
z
M 3116 1747 
Q 3116 2381 2855 2742 
Q 2594 3103 2138 3103 
Q 1681 3103 1420 2742 
Q 1159 2381 1159 1747 
Q 1159 1113 1420 752 
Q 1681 391 2138 391 
Q 2594 391 2855 752 
Q 3116 1113 3116 1747 
z
" transform="scale(0.015625)"/>
       <path id="DejaVuSans-74" d="M 1172 4494 
L 1172 3500 
L 2356 3500 
L 2356 3053 
L 1172 3053 
L 1172 1153 
Q 1172 725 1289 603 
Q 1406 481 1766 481 
L 2356 481 
L 2356 0 
L 1766 0 
Q 1100 0 847 248 
Q 594 497 594 1153 
L 594 3053 
L 172 3053 
L 172 3500 
L 594 3500 
L 594 4494 
L 1172 4494 
z
" transform="scale(0.015625)"/>
       <path id="DejaVuSans-68" d="M 3513 2113 
L 3513 0 
L 2938 0 
L 2938 2094 
Q 2938 2591 2744 2837 
Q 2550 3084 2163 3084 
Q 1697 3084 1428 2787 
Q 1159 2491 1159 1978 
L 1159 0 
L 581 0 
L 581 4863 
L 1159 4863 
L 1159 2956 
Q 1366 3272 1645 3428 
Q 1925 3584 2291 3584 
Q 2894 3584 3203 3211 
Q 3513 2838 3513 2113 
z
" transform="scale(0.015625)"/>
       <path id="DejaVuSans-28" d="M 1984 4856 
Q 1566 4138 1362 3434 
Q 1159 2731 1159 2009 
Q 1159 1288 1364 580 
Q 1569 -128 1984 -844 
L 1484 -844 
Q 1016 -109 783 600 
Q 550 1309 550 2009 
Q 550 2706 781 3412 
Q 1013 4119 1484 4856 
L 1984 4856 
z
" transform="scale(0.015625)"/>
       <path id="DejaVuSans-6d" d="M 3328 2828 
Q 3544 3216 3844 3400 
Q 4144 3584 4550 3584 
Q 5097 3584 5394 3201 
Q 5691 2819 5691 2113 
L 5691 0 
L 5113 0 
L 5113 2094 
Q 5113 2597 4934 2840 
Q 4756 3084 4391 3084 
Q 3944 3084 3684 2787 
Q 3425 2491 3425 1978 
L 3425 0 
L 2847 0 
L 2847 2094 
Q 2847 2600 2669 2842 
Q 2491 3084 2119 3084 
Q 1678 3084 1418 2786 
Q 1159 2488 1159 1978 
L 1159 0 
L 581 0 
L 581 3500 
L 1159 3500 
L 1159 2956 
Q 1356 3278 1631 3431 
Q 1906 3584 2284 3584 
Q 2666 3584 2933 3390 
Q 3200 3197 3328 2828 
z
" transform="scale(0.015625)"/>
       <path id="DejaVuSans-29" d="M 513 4856 
L 1013 4856 
Q 1481 4119 1714 3412 
Q 1947 2706 1947 2009 
Q 1947 1309 1714 600 
Q 1481 -109 1013 -844 
L 513 -844 
Q 928 -128 1133 580 
Q 1338 1288 1338 2009 
Q 1338 2731 1133 3434 
Q 928 4138 513 4856 
z
" transform="scale(0.015625)"/>
      </defs>
      <use xlink:href="#DejaVuSans-44"/>
      <use xlink:href="#DejaVuSans-65" x="77.001953"/>
      <use xlink:href="#DejaVuSans-70" x="138.525391"/>
      <use xlink:href="#DejaVuSans-74" x="202.001953"/>
      <use xlink:href="#DejaVuSans-68" x="241.210938"/>
      <use xlink:href="#DejaVuSans-20" x="304.589844"/>
      <use xlink:href="#DejaVuSans-28" x="336.376953"/>
      <use xlink:href="#DejaVuSans-6d" x="375.390625"/>
      <use xlink:href="#DejaVuSans-29" x="472.802734"/>
     </g>
    </g>
   </g>
   <g id="line2d_11">
    <path d="M 134.155 195.123045 
L 135.145708 195.308532 
M 135.310826 195.323389 
L 138.117831 195.852244 
M 138.282949 195.868558 
L 139.603892 196.146968 
M 139.76901 196.164326 
L 142.245779 196.658839 
L 142.410897 195.695894 
L 142.493456 194.530918 
M 142.658574 194.203133 
L 142.98881 193.604077 
L 143.236487 193.342347 
L 143.401605 192.139129 
L 143.566723 190.539533 
M 143.731841 190.30773 
L 144.062077 189.90077 
L 144.474871 189.826354 
L 145.135343 189.997921 
L 145.217902 190.061754 
M 145.38302 190.097468 
L 145.465579 190.069332 
L 145.630697 189.128062 
L 145.795815 187.701292 
M 145.960933 187.501638 
L 146.20861 187.115549 
L 146.291169 186.619268 
L 146.373728 185.124018 
M 146.538846 184.634164 
L 146.703964 183.767851 
L 147.199318 177.323468 
L 147.529553 176.316565 
L 147.859789 174.212585 
L 148.107466 173.929746 
L 148.437702 173.983999 
L 149.015615 174.442574 
L 150.666794 176.247033 
L 152.895887 178.88066 
M 153.061005 178.977011 
L 154.21683 180.343035 
M 154.381948 180.436772 
L 154.629625 180.791377 
M 154.794743 180.883493 
L 155.290097 181.500623 
M 155.455215 181.592303 
L 156.115686 182.37149 
M 156.280804 182.461134 
L 158.344779 184.638155 
M 158.509897 184.723181 
L 160.904107 187.018863 
L 163.87623 189.746252 
M 164.041348 189.820424 
L 166.518117 191.878189 
L 167.673942 192.86039 
M 167.83906 192.927195 
L 168.912327 193.812852 
M 169.077445 193.87762 
L 170.31583 194.856608 
M 170.480948 194.920003 
L 173.370512 197.005062 
M 173.535629 197.063189 
L 176.012399 198.685732 
L 177.003106 199.356754 
M 177.168224 199.409962 
L 177.49846 199.661633 
M 177.663578 199.714695 
L 179.727552 200.988821 
M 180.057788 201.13452 
L 181.626409 202.06498 
M 181.791527 202.113299 
L 185.754357 204.245876 
M 185.919475 204.289366 
L 187.405537 205.062232 
M 187.570655 205.104555 
L 189.469511 206.041447 
M 189.634629 206.081507 
L 190.790455 206.645252 
M 190.955573 206.684724 
L 194.505608 208.255161 
M 194.670726 208.291315 
L 202.183593 211.238532 
M 202.348711 211.271006 
L 204.495244 212.125324 
M 204.660362 212.159196 
L 207.797603 213.462945 
M 207.962721 213.499329 
L 209.283664 214.097671 
M 209.448782 214.135183 
L 213.081377 215.659836 
L 215.888382 215.764973 
L 216.631413 215.836997 
M 216.796531 215.845498 
L 217.704679 215.956756 
M 217.869797 215.967636 
L 218.943064 216.129323 
M 219.2733 216.168524 
L 220.511684 216.397058 
M 220.84192 216.444738 
L 222.740777 216.863215 
M 222.905895 216.883293 
L 223.23613 216.979303 
M 223.401248 216.999883 
L 228.10711 218.302305 
L 228.189669 218.351132 
M 228.354787 218.37798 
L 230.583879 219.129008 
M 230.914115 219.214535 
L 233.556002 220.175023 
M 233.72112 220.206861 
L 235.702535 220.975994 
M 235.867653 221.009288 
L 239.995602 222.633237 
L 240.16072 222.732402 
M 240.325838 222.767856 
L 240.738632 222.967441 
M 240.90375 223.002719 
L 245.692171 224.995177 
L 250.56315 227.111589 
M 250.728268 227.149411 
L 251.223622 227.395792 
M 251.38874 227.433339 
L 252.296888 227.858231 
M 252.462006 227.896177 
L 253.865509 228.534508 
M 254.030627 228.572082 
L 254.525981 228.819236 
M 254.691099 228.857277 
L 261.543493 231.827227 
M 261.708611 231.86436 
L 263.359791 232.596325 
M 263.524909 232.63364 
L 265.093529 233.231465 
L 265.176088 232.845442 
L 265.258647 231.087821 
M 265.423765 230.433912 
L 265.671442 229.54432 
L 265.83656 229.151423 
L 266.414473 223.88592 
L 266.827267 219.360071 
M 266.992385 218.163536 
L 267.487739 211.847995 
L 267.652857 210.647534 
L 267.983093 207.840847 
L 268.395888 206.866742 
L 268.726124 202.655294 
L 268.973801 200.721315 
L 269.221478 200.428477 
L 269.304037 200.311517 
L 269.469155 199.125779 
L 269.964508 194.178565 
L 270.129626 193.98435 
L 270.377303 194.088683 
L 270.872657 194.814213 
L 271.285452 195.746598 
M 271.45057 195.920255 
L 273.101749 199.332356 
L 273.927339 201.197808 
M 274.092457 201.372694 
L 275.908754 205.002905 
L 276.816903 206.89544 
M 276.982021 207.055072 
L 278.385524 209.795445 
M 278.550641 209.946802 
L 280.036703 212.696957 
M 280.201821 212.842259 
L 281.605323 215.311079 
M 281.770441 215.448458 
L 283.008826 217.534243 
M 283.173944 217.666858 
L 284.082093 219.162634 
M 284.24721 219.290595 
L 285.815831 221.552701 
L 285.89839 217.551813 
L 286.311185 158.1199 
L 286.558862 149.395222 
L 286.806539 147.894039 
L 286.971657 147.926158 
L 287.301892 148.60986 
L 287.962364 150.589948 
L 288.127482 151.384175 
M 288.2926 151.668202 
L 291.347282 161.89204 
L 293.90661 169.802216 
L 294.236846 168.904586 
L 294.401964 169.043594 
L 294.567082 169.502449 
M 294.7322 169.701246 
L 295.475231 171.698275 
L 298.77759 181.383186 
L 299.025266 182.308277 
M 299.190384 182.553483 
L 304.639277 197.040592 
L 305.299748 198.837414 
M 305.464866 199.046464 
L 307.281164 203.479671 
M 307.446282 203.677072 
L 310.831199 211.097923 
M 310.996317 211.274025 
L 313.803322 216.79716 
M 313.96844 216.955974 
L 314.546353 218.128007 
M 314.711471 218.28396 
L 316.114974 220.815566 
M 316.280092 220.962521 
L 319.087097 225.472445 
M 319.252214 225.60177 
L 319.912686 226.668056 
M 320.077804 226.793892 
L 323.958076 232.032053 
M 324.123194 232.14205 
L 324.288312 232.438321 
M 324.45343 232.545727 
L 325.361578 233.730325 
M 325.526696 233.833739 
L 327.177876 235.823506 
M 327.342994 235.922474 
L 330.727912 239.615597 
M 330.893029 239.704536 
L 333.534917 242.36673 
M 333.700035 242.449462 
L 334.443065 243.21438 
M 334.608183 243.296468 
L 337.745424 246.133853 
M 337.910542 246.208681 
L 342.616403 249.965208 
L 345.505967 252.122981 
M 345.671085 252.185984 
L 349.716475 254.947855 
M 349.881593 255.004591 
L 350.707183 255.575778 
M 350.872301 255.631398 
L 351.202537 255.884775 
M 351.367654 255.940436 
L 352.771157 256.842933 
M 352.936275 256.896342 
L 353.266511 257.139111 
M 353.431629 257.192675 
L 353.844424 257.48102 
M 354.009542 257.533421 
L 356.073516 258.764192 
M 356.238634 258.814314 
L 357.229341 259.408884 
M 357.394459 259.458124 
L 357.807254 259.726139 
M 357.972372 259.775342 
L 359.706111 260.746685 
M 359.871229 260.793939 
L 359.953788 260.760267 
L 360.118905 259.093267 
L 360.366582 256.51851 
L 360.696818 255.493884 
M 360.861936 255.426799 
L 361.192172 255.372392 
L 361.687526 255.565268 
L 362.595675 256.207175 
L 362.925911 256.37691 
L 363.091028 254.749225 
L 363.338705 252.341687 
L 363.421264 251.787903 
L 363.503823 249.275146 
M 363.668941 247.779431 
L 363.916618 246.150408 
L 364.164295 245.549984 
L 364.742208 240.937695 
L 364.989885 240.821683 
L 365.320121 241.062011 
L 365.567798 241.472153 
M 365.732916 241.600294 
L 366.806182 243.351969 
L 371.677161 251.398822 
L 372.58531 252.857315 
M 372.750428 252.986458 
L 374.319049 255.27428 
M 374.484167 255.394937 
L 375.639992 256.989655 
M 375.80511 257.102766 
L 377.786525 259.556351 
M 377.951643 259.657766 
L 378.446997 260.293679 
M 378.612115 260.392712 
L 379.190028 261.094852 
M 379.355146 261.189369 
L 379.8505 261.782946 
M 380.015618 261.874943 
L 382.327269 264.171877 
M 382.492387 264.253106 
L 384.226125 265.815903 
M 384.391243 265.889636 
L 386.372658 267.499928 
M 386.537776 267.566459 
L 388.766869 269.185982 
M 388.931987 269.24553 
L 392.069228 271.184025 
L 393.142494 271.83064 
M 393.307612 271.880509 
L 395.289027 272.957835 
M 395.454145 273.002939 
L 397.683238 274.107229 
M 397.848356 274.148862 
L 401.893745 275.901844 
M 402.058863 275.937642 
L 406.682165 277.643913 
L 409.241494 278.523636 
M 409.406612 278.550315 
L 413.947355 279.962435 
M 414.112473 279.986491 
L 416.589242 280.708666 
M 416.75436 280.731432 
L 418.983452 281.3525 
M 419.14857 281.374304 
L 425.175375 282.896 
M 425.340493 282.915714 
L 426.248642 283.03414 
L 427.98238 283.033946 
M 428.147498 283.033934 
L 431.614975 283.033581 
M 431.780093 283.033571 
L 433.431272 283.033419 
M 433.59639 283.033411 
L 434.587098 283.033319 
M 434.752216 283.033314 
L 435.165011 283.03327 
M 435.330129 283.033265 
L 438.302252 283.033032 
M 438.46737 283.033023 
L 440.613903 283.032864 
M 440.779021 283.03286 
L 441.522052 283.032806 
M 441.687169 283.032797 
L 452.750072 283.03218 
L 452.832631 282.221613 
M 452.997749 280.558565 
L 453.080308 277.664842 
M 453.245426 276.838714 
L 453.575661 275.213023 
L 453.905897 274.530976 
L 454.318692 274.10193 
L 454.648928 273.869419 
M 454.814046 273.833749 
L 454.979164 273.74676 
M 455.144282 273.721534 
L 456.300107 273.510576 
L 458.5292 273.366427 
L 461.914118 273.296095 
M 462.079235 273.295147 
L 462.904825 273.2862 
M 463.069943 273.285461 
L 464.473446 273.274612 
M 464.638564 273.274092 
L 466.619979 273.263804 
M 466.785097 273.263459 
L 470.087456 273.253029 
M 470.252574 273.25283 
L 471.408399 273.151331 
L 471.573517 271.021869 
L 471.821194 267.860758 
L 472.233989 265.264975 
L 472.564225 257.425938 
L 472.811902 253.810645 
L 473.224697 251.423434 
L 473.389815 247.811837 
L 473.802609 235.709301 
L 473.967727 233.501106 
L 474.050286 230.439844 
M 474.215404 226.973365 
L 474.463081 224.003047 
L 474.628199 223.265748 
M 474.793317 223.021204 
L 475.123553 222.459104 
L 475.618907 222.093062 
L 475.701466 222.026006 
M 475.866584 221.996264 
L 476.527056 221.839678 
L 476.609614 221.58466 
L 476.692173 220.299722 
L 476.774732 215.945847 
M 476.93985 213.920621 
L 477.435204 201.637751 
L 477.682881 193.334037 
L 478.673589 184.562607 
L 478.921266 183.918814 
L 479.168943 183.768517 
L 479.334061 183.795916 
M 479.499179 183.826706 
L 480.15965 184.248031 
L 480.572445 184.520102 
L 480.737563 183.693688 
L 480.902681 180.921601 
L 481.150358 176.299867 
L 481.398035 175.274726 
L 481.563153 174.983606 
L 481.728271 173.844301 
L 481.975948 169.191545 
L 482.636419 153.660917 
L 482.884096 152.644173 
L 483.131773 150.903216 
M 483.296891 150.832414 
L 483.462009 150.86461 
L 483.874804 151.355936 
L 484.370158 152.201706 
L 484.452717 152.496905 
M 484.617835 152.661205 
L 484.700394 152.964797 
M 484.865512 153.133853 
L 487.589958 158.446056 
L 489.076019 161.294094 
L 491.222552 165.375013 
M 491.38767 165.534319 
L 495.020265 171.733327 
L 498.405183 176.708575 
L 498.487742 176.544654 
L 498.735419 174.46052 
L 498.817978 172.726775 
M 498.983096 172.250271 
L 499.230773 171.118666 
L 499.313332 169.557022 
M 499.47845 168.596706 
L 499.726127 166.318334 
L 499.973803 165.874478 
L 500.22148 165.934158 
L 500.551716 166.266875 
L 500.634275 166.480805 
M 500.799393 166.607319 
L 502.037778 168.555442 
L 502.863367 170.059362 
M 503.028485 170.208076 
L 503.606398 171.28835 
M 503.771516 171.437415 
L 505.505255 174.361366 
M 505.670373 174.505318 
L 506.908757 176.552827 
M 507.073875 176.690632 
L 508.559937 179.037859 
M 508.725054 179.171876 
L 512.027413 183.818512 
L 515.329772 188.085517 
L 518.384454 191.785206 
M 518.549572 191.879066 
L 521.604254 195.184319 
L 522.677521 196.274794 
L 522.76008 196.434362 
M 522.925198 196.517825 
L 523.337992 197.005896 
M 523.50311 197.088238 
L 524.3287 197.963838 
M 524.493818 198.04402 
L 524.741495 198.354838 
M 524.906613 198.433969 
L 526.888028 200.314868 
M 527.053146 200.389609 
L 529.447356 202.497783 
M 529.612474 202.583823 
L 532.254361 205.30781 
L 532.749715 205.873921 
M 532.914833 205.956305 
L 535.474161 208.416306 
M 535.639279 208.492238 
L 536.052074 208.928142 
M 536.217192 209.00275 
L 536.629987 209.430892 
M 536.795105 209.50426 
L 538.281166 210.81658 
M 538.446284 210.88627 
L 540.923053 212.83049 
L 542.82191 214.269897 
M 542.987028 214.330289 
L 543.977735 215.071653 
M 544.142853 215.129886 
L 545.133561 215.844587 
M 545.298679 215.900489 
L 547.362653 217.257827 
M 547.527771 217.310411 
L 548.848715 218.146704 
M 549.013833 218.196894 
L 551.160366 219.450796 
M 551.325484 219.49763 
L 552.976663 220.413099 
M 553.141781 220.45745 
L 556.031345 221.883846 
L 560.654648 223.959991 
M 560.819766 223.995701 
L 562.801181 224.822368 
M 562.966299 224.856139 
L 564.204683 225.360144 
M 564.369801 225.392721 
L 565.525627 225.772604 
L 565.690745 224.622981 
L 565.938422 222.738338 
L 566.10354 221.40646 
L 566.516335 214.56711 
L 566.846571 206.268414 
L 567.176806 194.892822 
L 567.424483 192.626595 
L 567.507042 192.060658 
L 568.332632 178.929706 
L 568.49775 178.222275 
L 568.993104 172.375944 
L 569.488458 169.672052 
L 569.571017 169.222643 
L 569.653576 167.818807 
M 569.818694 166.920472 
L 570.06637 164.949108 
L 570.231488 164.714382 
L 570.479165 164.794362 
L 570.644283 163.983716 
L 570.89196 163.14436 
L 571.057078 163.180772 
L 571.222196 163.287177 
L 571.387314 162.506522 
L 571.469873 161.856195 
L 571.552432 160.30822 
M 571.71755 159.584862 
L 572.212904 157.23895 
L 572.54314 154.697714 
L 572.708258 154.548862 
L 572.955934 154.81531 
L 573.451288 155.90013 
L 573.864083 157.16907 
M 574.029201 157.411191 
L 577.083883 165.721111 
L 577.166442 166.158124 
M 577.33156 166.400117 
L 579.147857 171.074243 
L 579.230416 171.003545 
L 579.560652 169.900199 
L 579.72577 169.943941 
L 580.056006 170.407591 
L 580.881596 172.175147 
L 582.450216 176.076083 
M 582.780452 176.663588 
L 584.761867 181.43927 
M 584.926985 181.626356 
L 586.247929 184.725206 
M 586.413047 184.904913 
L 588.55958 189.362085 
L 588.642139 189.229945 
L 588.807257 187.776417 
L 589.054934 180.869825 
L 589.550288 156.079397 
L 589.797965 154.279006 
L 589.963083 154.19777 
L 590.21076 154.509066 
L 590.788672 155.820189 
L 593.017765 161.932877 
L 594.834062 167.063736 
M 594.99918 167.290281 
L 595.246857 167.81424 
L 595.411975 165.934776 
L 595.659652 163.855818 
L 595.82477 163.70286 
L 596.072447 163.933064 
L 596.650359 165.105879 
L 596.980595 166.085397 
M 597.145713 166.305111 
L 603.172518 181.227548 
M 603.337636 181.432624 
L 604.080667 183.263378 
M 604.245785 183.460953 
L 606.557436 188.537594 
M 606.722554 188.723006 
L 607.465585 190.370612 
M 607.630703 190.548213 
L 608.291174 191.989455 
M 608.456292 192.163804 
L 611.428415 197.602881 
L 611.676092 198.167937 
M 611.84121 198.323338 
L 614.813333 203.136748 
L 617.290102 206.858206 
M 617.45522 206.983352 
L 620.262225 210.63275 
L 620.757579 211.328573 
M 620.922697 211.435806 
L 621.995964 212.77227 
M 622.161082 212.875122 
L 623.482025 214.404784 
M 623.647143 214.499945 
L 624.968087 215.932899 
M 625.133205 216.02289 
L 626.949502 217.81593 
M 627.11462 217.897432 
L 629.261153 219.804874 
M 629.426271 219.879008 
L 632.233276 222.005468 
L 635.12284 223.916122 
L 638.094963 225.620071 
L 641.232204 227.163523 
L 644.699681 228.613336 
L 647.671804 229.649773 
M 647.836922 229.288886 
L 648.249717 226.220493 
L 648.579952 225.677157 
L 648.74507 225.453248 
L 648.910188 223.937838 
L 649.735778 212.229019 
L 649.983455 211.654718 
L 650.148573 210.105856 
L 651.634634 188.885035 
L 652.047429 179.102127 
L 652.707901 175.308646 
L 652.873019 175.328064 
L 653.203255 175.718654 
L 654.193963 177.642342 
L 654.441639 177.975899 
M 654.606757 177.489068 
L 654.854434 176.606945 
L 655.019552 176.581562 
L 655.267229 176.819038 
L 655.597465 177.344805 
L 655.680024 177.642842 
M 655.845142 177.813835 
L 657.248645 180.733672 
L 657.413762 181.248911 
M 657.57888 181.436875 
L 658.569588 183.683584 
M 658.734706 183.86935 
L 659.890532 186.386312 
M 660.05565 186.56427 
L 662.44986 191.320582 
M 662.614978 191.486592 
L 663.688244 193.558111 
M 663.853362 193.716984 
L 665.091747 195.975663 
M 665.256865 196.126722 
L 665.917337 197.339451 
M 666.082454 197.484336 
L 668.88946 201.784729 
L 669.467372 202.60777 
L 669.549931 197.230303 
M 669.715049 189.947917 
L 669.880167 182.902396 
L 670.127844 181.050432 
L 670.375521 180.828837 
L 670.623198 181.007832 
L 671.118552 181.752267 
L 672.439495 184.282282 
L 674.173234 187.826732 
M 674.338352 188.001419 
L 677.227916 193.28653 
L 679.374449 197.003771 
M 679.704685 197.399115 
L 682.264013 201.272414 
L 682.429131 201.615194 
M 682.594249 201.732457 
L 684.575664 204.52441 
M 684.740782 204.631541 
L 687.382669 207.852761 
L 687.630346 208.22048 
M 687.795464 208.31403 
L 690.189674 210.859947 
L 692.253649 212.907277 
M 692.418766 212.982492 
L 694.895536 215.085102 
L 695.968802 215.973141 
M 696.13392 216.035468 
L 698.775807 217.877188 
L 701.417694 219.476611 
L 702.903756 220.317554 
M 703.068874 220.360551 
L 703.646787 220.69257 
M 703.811905 220.733806 
L 705.628202 221.618914 
M 705.79332 221.655746 
L 708.18753 222.669895 
M 708.352648 222.701703 
L 708.848002 222.916754 
M 709.01312 222.947357 
L 709.425915 223.125081 
M 709.591033 223.154678 
L 712.398038 224.091304 
M 712.563156 224.116189 
L 714.049217 224.558886 
M 714.214335 224.581422 
L 715.948073 225.042496 
M 716.113191 225.062614 
L 717.269017 225.347713 
M 717.434135 225.366956 
L 719.250432 225.762317 
M 719.41555 225.779693 
L 719.580668 225.826691 
M 719.745786 225.84386 
L 720.653935 226.027229 
M 720.819053 226.043153 
L 726.020268 226.84466 
L 726.598181 226.929415 
M 726.763299 226.940712 
L 727.258652 227.010982 
M 727.42377 227.021766 
L 728.744714 227.182929 
M 728.909832 227.192814 
L 729.570304 227.271941 
M 729.735422 227.281437 
L 733.120339 227.607842 
M 733.285457 227.615442 
L 734.68896 227.734853 
M 734.854078 227.741857 
L 737.661083 227.945067 
M 737.826201 227.950866 
L 744.183242 228.295367 
M 744.34836 228.299014 
L 747.898395 228.443314 
M 748.063513 228.446274 
L 757.97059 228.721391 
M 758.135708 228.723137 
L 761.355508 228.786877 
M 761.520626 228.788359 
L 763.419482 228.821922 
M 763.5846 228.823266 
L 765.318338 228.851367 
M 765.483456 228.852603 
L 769.693964 228.910651 
M 769.859082 228.91168 
L 770.436995 228.919692 
M 770.602113 228.920692 
L 771.262584 228.929435 
M 771.427702 228.930401 
L 772.005615 228.937938 
M 772.170733 228.938878 
L 772.831205 228.947108 
M 772.996323 228.948021 
L 774.977738 228.969679 
M 775.142856 228.970524 
L 777.124271 228.990594 
M 777.289389 228.991379 
L 777.784743 228.996732 
M 777.949861 228.9975 
L 780.42663 229.020005 
M 780.591748 229.020711 
L 781.087102 229.02553 
M 781.25222 229.026223 
L 784.802256 229.054718 
M 784.967374 229.055344 
L 785.958081 229.063207 
M 786.123199 229.06381 
L 789.342999 229.086705 
M 789.508117 229.087264 
L 790.416266 229.09377 
M 790.581384 229.094312 
L 791.984886 229.103802 
M 792.150004 229.104329 
L 793.553507 229.113506 
M 793.718625 229.114017 
L 794.544214 229.119479 
M 794.709332 229.11998 
L 795.534922 229.12534 
M 795.70004 229.12583 
L 796.938425 229.133458 
M 797.103543 229.133938 
L 799.002399 229.144592 
L 799.74543 230.452656 
M 799.910548 230.583955 
L 800.653578 231.841024 
M 800.818696 231.966194 
L 802.882671 234.973455 
M 803.047788 235.084368 
L 803.295465 235.512006 
M 803.460583 235.620275 
L 804.616409 237.152049 
M 804.781527 237.252584 
L 805.441999 238.114412 
M 805.607117 238.21004 
L 805.854794 238.578337 
M 806.019911 238.671542 
L 806.680383 239.471456 
M 806.845501 239.560093 
L 807.505973 240.320442 
M 807.671091 240.404583 
L 809.652506 242.259537 
L 811.633922 243.892149 
L 813.780455 245.485058 
M 813.945573 245.540735 
L 814.523486 245.964213 
M 814.688603 246.017081 
L 815.679311 246.661797 
M 815.844429 246.710647 
L 816.009547 246.850694 
M 816.174665 246.898394 
L 818.568875 248.172745 
M 818.733993 248.212448 
L 818.899111 248.326078 
M 819.064229 248.364702 
L 821.540998 249.396168 
L 821.706116 249.488462 
M 821.871234 249.519822 
L 824.430562 250.40447 
M 824.59568 250.430032 
L 827.567803 251.228085 
L 827.732921 251.286263 
M 827.898039 251.306042 
L 831.282957 252.01222 
M 831.448075 252.027212 
L 832.521341 252.221352 
M 832.686459 252.234872 
L 833.759726 252.41094 
M 833.924844 252.423203 
L 834.667875 252.538621 
M 834.832993 252.550071 
L 837.392321 252.870669 
M 837.557439 252.879932 
L 842.593536 253.330058 
L 843.171449 253.37635 
M 843.336567 253.382201 
L 845.648218 253.531475 
M 845.813336 253.536286 
L 847.712192 253.635649 
L 847.712192 253.635649 
" clip-path="url(#pd54b58597e)" style="fill: none; stroke: #000000; stroke-opacity: 0.6; stroke-width: 7; stroke-linecap: square"/>
   </g>
   <g id="line2d_12">
    <path d="M 134.155 103.071404 
L 135.145708 103.545614 
M 135.310826 103.582057 
L 138.117831 104.854497 
M 138.282949 104.890764 
L 139.603892 105.506568 
M 139.76901 105.542748 
L 142.493456 106.769979 
M 142.658574 106.805989 
L 143.566723 107.237734 
M 143.731841 189.818967 
L 145.217902 190.290599 
M 145.38302 190.315388 
L 145.795815 190.464055 
M 145.960933 190.488821 
L 146.373728 190.637348 
M 146.538846 190.662091 
L 150.006323 191.79631 
L 152.895887 196.136036 
M 153.061005 196.254533 
L 154.21683 198.018733 
M 154.381948 198.135465 
L 154.629625 198.601291 
M 154.794743 198.717472 
L 155.290097 199.527667 
M 155.455215 199.64297 
L 156.115686 200.675763 
M 156.280804 200.78997 
L 158.344779 203.721025 
M 158.509897 203.832287 
L 163.05064 209.759992 
L 163.87623 210.866188 
M 164.041348 210.965103 
L 167.178589 214.547453 
L 167.673942 215.174676 
M 167.83906 215.263556 
L 168.912327 216.489976 
M 169.077445 216.576351 
L 170.31583 217.937604 
M 170.480948 218.021433 
L 173.370512 220.949252 
M 173.535629 221.028196 
L 177.003106 224.309497 
M 177.168224 224.383254 
L 177.49846 224.75035 
M 177.663578 224.823433 
L 179.727552 226.684888 
M 180.057788 226.894945 
L 181.626409 228.270868 
M 181.791527 228.338558 
L 185.754357 231.529389 
M 185.919475 231.591973 
L 187.405537 232.762125 
M 187.570655 232.822718 
L 189.469511 234.247323 
M 189.634629 234.305451 
L 190.790455 235.165594 
M 190.955573 235.222152 
L 194.505608 237.61385 
M 194.670726 237.666004 
L 195.331198 238.079699 
L 195.413757 208.787731 
L 195.496316 208.842845 
L 199.789382 211.571792 
L 202.183593 213.021437 
M 202.348711 213.068161 
L 204.495244 214.290636 
M 204.660362 214.33446 
L 207.797603 215.962486 
M 207.962721 216.002152 
L 209.283664 216.660624 
M 209.448782 216.698428 
L 211.925551 217.784816 
L 212.090669 222.774568 
L 216.0535 224.280419 
L 216.631413 224.506801 
M 216.796531 224.534575 
L 217.704679 224.858626 
M 217.869797 224.884852 
L 218.943064 225.239173 
M 219.2733 225.311941 
L 220.511684 225.680786 
M 220.84192 225.746286 
L 222.740777 226.236263 
M 222.905895 226.256223 
L 223.23613 226.355984 
M 223.401248 226.375928 
L 228.189669 227.547903 
M 228.354787 227.567687 
L 230.583879 228.120561 
M 230.914115 228.179675 
L 233.556002 228.828351 
M 233.72112 228.847963 
L 235.702535 229.337407 
M 235.867653 229.356951 
L 240.16072 230.389013 
M 240.325838 230.408415 
L 240.738632 230.524775 
M 240.90375 230.544159 
L 250.56315 232.813292 
M 250.728268 232.832368 
L 251.223622 232.965833 
M 251.38874 232.984889 
L 252.296888 233.213363 
M 252.462006 233.232386 
L 253.865509 233.574361 
M 254.030627 233.593335 
L 254.525981 233.726085 
M 254.691099 233.745039 
L 261.543493 235.328117 
M 261.708611 235.346856 
L 263.359791 235.739789 
M 263.524909 235.758473 
L 265.258647 236.168874 
M 265.423765 236.1875 
L 266.827267 236.522337 
M 266.992385 236.540915 
L 271.285452 237.522003 
M 271.45057 237.540447 
L 273.927339 238.110984 
M 274.092457 238.129349 
L 276.816903 238.75229 
M 276.982021 238.770569 
L 278.385524 239.099166 
M 278.550641 239.117398 
L 280.036703 239.463344 
M 280.201821 239.481527 
L 281.605323 239.808407 
M 281.770441 239.826544 
L 283.008826 240.116403 
M 283.173944 240.134498 
L 284.082093 240.351454 
M 284.24721 240.369518 
L 288.127482 241.233737 
M 288.2926 241.251683 
L 294.567082 242.62626 
M 294.7322 242.644018 
L 299.025266 243.581801 
M 299.190384 243.599431 
L 305.299748 244.914945 
M 305.464866 244.932396 
L 307.281164 245.333118 
M 307.446282 245.350513 
L 310.831199 246.07898 
M 310.996317 246.096275 
L 313.803322 246.700118 
M 313.96844 246.717329 
L 314.546353 246.854933 
M 314.711471 246.872123 
L 316.114974 247.181152 
M 316.280092 247.198298 
L 319.087097 247.796971 
M 319.252214 247.814035 
L 319.912686 247.967504 
M 320.077804 247.984545 
L 323.958076 248.799811 
M 324.123194 248.81674 
L 324.288312 248.867513 
M 324.45343 248.884433 
L 325.361578 249.087293 
M 325.526696 249.104184 
L 327.177876 249.458355 
M 327.342994 249.475196 
L 330.727912 250.180453 
M 330.893029 250.197197 
L 333.534917 250.748469 
M 333.700035 250.765136 
L 334.443065 250.931683 
M 334.608183 250.948326 
L 337.745424 251.595641 
M 337.910542 251.612194 
L 345.505967 253.141967 
M 345.671085 253.158313 
L 349.716475 253.972795 
M 349.881593 253.989029 
L 350.707183 254.167458 
M 350.872301 254.183666 
L 351.202537 254.264672 
M 351.367654 254.280866 
L 352.771157 254.571999 
M 352.936275 254.588152 
L 353.266511 254.668887 
M 353.431629 254.685027 
L 353.844424 254.781824 
M 354.009542 254.797949 
L 356.073516 255.216445 
M 356.238634 255.232512 
L 357.229341 255.441184 
M 357.394459 255.457221 
L 357.807254 255.553395 
M 357.972372 255.569417 
L 359.706111 255.921347 
M 359.871229 255.937319 
L 360.696818 256.112871 
M 360.861936 256.128817 
L 363.503823 256.653848 
M 363.668941 256.669722 
L 365.567798 257.050051 
M 365.732916 257.065872 
L 372.58531 258.395748 
M 372.750428 258.412634 
L 374.319049 258.767655 
M 374.484167 258.78627 
L 375.639992 259.075323 
M 375.80511 259.095248 
L 377.786525 259.619834 
M 377.951643 259.641874 
L 378.446997 259.798417 
M 378.612115 259.821104 
L 379.190028 260.005507 
M 379.355146 260.02892 
L 379.8505 260.195055 
M 380.015618 260.219097 
L 382.327269 260.951092 
M 382.492387 260.977529 
L 384.226125 261.579212 
M 384.391243 261.607472 
L 386.372658 262.339606 
M 386.537776 262.369915 
L 388.766869 263.250421 
M 388.931987 263.283003 
L 393.059935 265.011398 
L 393.142494 265.084569 
M 393.307612 265.12127 
L 395.289027 266.063876 
M 395.454145 266.102581 
L 397.683238 267.217492 
M 397.848356 267.258421 
L 401.646068 269.223579 
L 401.893745 269.402065 
M 402.058863 269.446876 
L 403.214689 269.943721 
L 404.453073 270.219922 
L 409.241494 271.045718 
M 409.406612 271.059658 
L 413.947355 271.837327 
M 414.112473 271.851161 
L 416.589242 272.27909 
M 416.75436 272.292864 
L 418.983452 272.6778 
M 419.14857 272.691521 
L 424.102109 273.511412 
L 424.184667 256.132979 
L 424.267226 256.148923 
L 425.175375 256.34008 
M 425.340493 256.355996 
L 427.98238 256.880022 
M 428.147498 256.895865 
L 431.614975 257.575118 
M 431.780093 257.590868 
L 433.431272 257.921128 
M 433.59639 257.936832 
L 434.587098 258.140785 
M 434.752216 258.156459 
L 435.165011 258.250458 
M 435.330129 258.266117 
L 438.302252 258.844032 
M 438.46737 258.859611 
L 440.613903 259.279466 
M 440.779021 259.294987 
L 441.522052 259.450082 
M 441.687169 259.46558 
L 452.832631 261.554033 
M 452.997749 261.569249 
L 453.080308 261.599674 
M 453.245426 261.614883 
L 454.648928 261.8883 
M 454.814046 261.903471 
L 454.979164 261.94897 
M 455.144282 261.964132 
L 461.914118 263.21553 
M 462.079235 263.230522 
L 462.904825 263.395303 
M 463.069943 263.410271 
L 464.473446 263.679351 
M 464.638564 263.694281 
L 466.619979 264.066876 
M 466.785097 264.081754 
L 470.087456 264.690025 
M 470.252574 264.70482 
L 474.050286 265.397903 
M 474.215404 265.427299 
L 474.628199 265.500755 
M 474.793317 265.51544 
L 475.701466 265.691508 
M 475.866584 265.706167 
L 476.774732 265.881928 
M 476.93985 265.896562 
L 479.334061 266.334667 
M 479.499179 266.34924 
L 483.131773 267.003008 
M 483.296891 267.017491 
L 484.452717 267.234508 
M 484.617835 267.24896 
L 484.700394 267.277859 
M 484.865512 267.292305 
L 487.177163 267.696017 
L 491.222552 278.701823 
M 491.38767 278.922728 
L 498.817978 299.091364 
M 498.983096 299.313575 
L 499.313332 300.424785 
M 499.47845 300.647059 
L 500.634275 303.982482 
M 500.799393 304.204935 
L 502.863367 309.992456 
M 503.028485 310.215185 
L 503.606398 311.997323 
M 503.771516 312.220127 
L 505.505255 317.123628 
M 505.670373 317.346587 
L 506.908757 320.914605 
M 507.073875 321.137643 
L 508.559937 325.375953 
M 508.725054 325.599046 
L 516.980952 347.899971 
L 517.063511 162.940958 
L 517.14607 163.188586 
L 518.384454 167.148971 
M 518.549572 167.396386 
L 522.76008 180.241556 
M 522.925198 180.488142 
L 523.337992 181.967275 
M 523.50311 182.213732 
L 524.3287 184.923509 
M 524.493818 185.169736 
L 524.741495 186.154446 
M 524.906613 186.400573 
L 526.888028 192.546957 
M 527.053146 192.79253 
L 529.447356 200.148673 
M 529.612474 200.393297 
L 532.749715 209.913248 
M 532.914833 210.156805 
L 535.474161 217.935258 
M 535.639279 218.17784 
L 536.052074 219.63268 
M 536.217192 219.875044 
L 536.629987 221.328567 
M 536.795105 221.57071 
L 538.281166 226.165272 
M 538.446284 205.985097 
L 541.005612 213.53923 
L 541.088171 206.709377 
L 541.17073 206.953408 
L 542.82191 212.069543 
M 542.987028 212.312757 
L 543.977735 215.471067 
M 544.142853 215.713743 
L 545.133561 218.864975 
M 545.298679 219.107101 
L 547.362653 225.388148 
M 547.527771 225.629171 
L 548.848715 229.720112 
M 549.013833 229.960372 
L 551.160366 236.430896 
M 551.325484 236.669925 
L 552.976663 241.679042 
M 553.141781 241.917066 
L 556.939494 252.814912 
L 557.022053 211.012279 
L 557.104612 211.253647 
L 559.498822 217.942271 
L 560.654648 219.372006 
M 560.819766 219.467191 
L 562.801181 221.841174 
M 562.966299 221.9359 
L 564.204683 223.448943 
M 564.369801 223.543344 
L 569.653576 229.627875 
M 569.818694 229.720571 
L 571.139637 231.199943 
L 571.552432 233.365351 
M 571.71755 233.725904 
L 573.864083 243.423049 
M 574.029201 243.780811 
L 577.001324 256.594167 
L 577.083883 124.481126 
L 577.166442 125.224581 
M 577.33156 125.596155 
L 582.450216 148.796855 
M 582.780452 149.891289 
L 584.761867 158.974425 
M 584.926985 159.336365 
L 586.247929 165.471944 
M 586.413047 165.829986 
L 588.972375 176.408499 
L 591.531703 186.052705 
L 594.256149 195.446031 
L 594.834062 197.604734 
M 594.99918 197.871547 
L 596.980595 204.337444 
M 597.145713 204.588326 
L 600.200395 213.501063 
L 601.356221 216.704534 
L 601.43878 114.531988 
L 601.521339 114.770983 
L 601.851575 115.991987 
L 603.172518 122.247509 
M 603.337636 122.611706 
L 604.080667 126.231878 
M 604.245785 126.591768 
L 606.557436 136.873623 
M 606.722554 137.223167 
L 607.465585 140.701794 
M 607.630703 141.04802 
L 608.291174 144.15125 
M 608.456292 144.494666 
L 611.428415 156.374541 
L 611.676092 157.608909 
M 611.84121 157.914749 
L 614.152861 166.039394 
L 616.381954 173.094914 
L 617.290102 175.993659 
M 617.45522 176.228769 
L 619.601753 181.999792 
L 620.757579 185.035654 
M 620.922697 185.230554 
L 621.995964 187.862154 
M 622.161082 188.043245 
L 623.482025 190.983326 
M 623.647143 191.148191 
L 624.968087 193.870572 
M 625.133205 194.026436 
L 626.949502 197.482889 
M 627.11462 197.627656 
L 629.261153 201.366967 
M 629.426271 201.499273 
L 631.985599 205.388326 
L 634.544927 208.877308 
L 637.021696 211.885281 
L 639.498466 214.542912 
L 641.892676 216.788568 
L 644.204327 218.662649 
L 646.515978 220.253912 
L 647.671804 220.991875 
M 647.836922 221.038258 
L 650.066014 222.162772 
L 652.295106 223.042911 
L 654.441639 223.710037 
M 654.606757 223.731325 
L 655.680024 224.01704 
M 655.845142 224.037298 
L 657.413762 224.441894 
M 657.57888 224.462096 
L 658.569588 224.724466 
M 658.734706 224.744629 
L 659.890532 225.046754 
M 660.05565 225.066874 
L 662.44986 225.66922 
M 662.614978 225.689257 
L 663.688244 225.969484 
M 663.853362 225.98948 
L 665.091747 226.309052 
M 665.256865 226.329003 
L 665.752219 226.448649 
L 665.834778 180.09114 
L 665.917337 180.143456 
M 666.082454 180.169609 
L 669.549931 181.290856 
M 669.715049 181.316855 
L 674.173234 182.741408 
M 674.338352 182.767212 
L 679.374449 184.360287 
M 679.704685 184.437035 
L 682.429131 185.304689 
M 682.594249 185.330148 
L 684.575664 185.96552 
M 684.740782 185.99089 
L 687.630346 186.918321 
M 687.795464 186.944548 
L 692.253649 188.422165 
M 692.418766 188.449627 
L 695.968802 189.676369 
M 696.13392 189.704641 
L 702.903756 192.099912 
M 703.068874 192.129263 
L 703.646787 192.364408 
M 703.811905 192.393842 
L 705.628202 193.073083 
M 705.79332 193.102706 
L 708.18753 193.994237 
M 708.352648 194.024037 
L 708.848002 194.232756 
M 709.01312 194.262589 
L 709.425915 194.441666 
M 709.591033 194.471524 
L 712.398038 195.518079 
M 712.563156 195.548006 
L 714.049217 196.11663 
M 714.214335 196.146553 
L 715.948073 196.804124 
M 716.113191 196.833936 
L 717.269017 197.279937 
M 717.434135 197.309587 
L 719.250432 197.98946 
M 719.41555 198.018942 
L 719.580668 198.107355 
M 719.745786 198.136814 
L 720.653935 198.489849 
M 720.819053 198.519227 
L 724.28653 199.746383 
L 726.598181 208.107381 
M 726.763299 208.394464 
L 727.258652 210.401735 
M 727.42377 210.688157 
L 728.744714 215.544602 
M 728.909832 215.829523 
L 729.570304 218.390025 
M 729.735422 218.674104 
L 733.120339 230.5283 
M 733.285457 230.808688 
L 734.68896 235.840712 
M 734.854078 236.119434 
L 737.661083 245.818655 
M 737.826201 246.094161 
L 744.183242 267.30027 
M 744.34836 267.568448 
L 747.898395 279.273253 
M 748.063513 279.537092 
L 755.163585 301.855162 
L 757.97059 310.722489 
M 758.135708 310.973966 
L 761.355508 320.946406 
M 761.520626 321.193534 
L 763.419482 327.092308 
M 763.5846 327.336738 
L 765.318338 332.686588 
M 765.483456 332.928503 
L 769.693964 345.355149 
M 769.859082 345.591154 
L 770.436995 347.475125 
M 770.602113 347.710112 
L 771.262584 349.819872 
M 771.427702 350.053721 
L 772.005615 351.920407 
M 772.170733 352.15323 
L 772.831205 354.243497 
M 772.996323 354.475177 
L 774.977738 360.230052 
M 775.142856 360.45876 
L 777.124271 366.139335 
M 777.289389 366.365074 
L 777.784743 367.942051 
M 777.949861 368.166878 
L 780.42663 375.080087 
M 780.591748 375.301278 
L 781.087102 376.846445 
M 781.25222 377.06673 
L 784.802256 386.647735 
M 784.967374 386.862959 
L 785.958081 389.650689 
M 786.123199 389.864348 
L 789.342999 398.319524 
M 789.508117 398.528631 
L 790.416266 401.029306 
M 790.581384 401.236978 
L 791.984886 404.956277 
M 792.150004 405.161861 
L 793.553507 408.843649 
M 793.718625 409.047154 
L 794.544214 411.278508 
M 794.709332 411.480705 
L 795.534922 413.697686 
M 795.70004 413.898577 
L 796.938425 417.098095 
M 797.103543 417.297144 
L 799.74543 423.805244 
M 799.910548 424.000629 
L 800.653578 425.948588 
M 800.818696 426.142794 
L 802.882671 431.154683 
M 803.047788 431.346009 
L 803.295465 432.110251 
M 803.460583 432.301046 
L 804.616409 435.150236 
M 804.781527 435.339335 
L 805.441999 437.036461 
M 805.607117 437.224503 
L 805.854794 437.975613 
M 806.019911 438.163126 
L 806.680383 439.846008 
M 806.845501 440.032468 
L 807.505973 441.705881 
M 807.671091 441.891291 
L 813.615337 454.966493 
L 813.780455 455.499621 
M 813.945573 455.677124 
L 814.523486 457.093439 
M 814.688603 457.270015 
L 815.679311 459.556151 
M 815.844429 459.731289 
L 816.009547 460.256088 
M 816.174665 460.430816 
L 818.568875 465.62513 
M 818.733993 465.796694 
L 818.899111 466.310775 
M 819.064229 466.481932 
L 821.706116 472.073256 
M 821.871234 472.240972 
L 824.430562 477.554799 
M 824.59568 477.719201 
L 827.732921 484.053133 
M 827.898039 484.213554 
L 831.282957 490.862071 
M 831.448075 491.018253 
L 832.438782 492.668038 
L 832.521341 492.761108 
M 832.686459 492.80754 
L 833.759726 493.450387 
M 833.924844 493.495792 
L 834.667875 493.946079 
M 834.832993 493.990732 
L 837.392321 495.383754 
M 837.557439 495.426168 
L 842.593536 497.886244 
L 843.171449 498.190428 
M 843.336567 498.228152 
L 845.648218 499.293338 
M 845.813336 499.329078 
L 847.712192 500.132941 
L 847.712192 500.132941 
" clip-path="url(#pd54b58597e)" style="fill: none; stroke-dasharray: 25.9,11.2; stroke-dashoffset: 0; stroke: #0000ff; stroke-opacity: 0.6; stroke-width: 7"/>
   </g>
   <g id="line2d_13">
    <path d="M 134.155 242.781668 
L 135.145708 248.551457 
M 135.310826 248.994213 
L 138.117831 264.394331 
M 138.282949 264.83159 
L 139.603892 272.241752 
M 139.76901 272.676279 
L 142.493456 287.360312 
M 142.658574 287.789558 
L 143.566723 292.92881 
M 143.731841 292.971039 
L 145.217902 293.757863 
M 145.38302 293.798507 
L 145.795815 294.040812 
M 145.960933 294.080937 
L 146.373728 294.320141 
M 146.538846 294.359752 
L 150.914471 296.337733 
L 152.895887 297.052733 
M 153.061005 297.077425 
L 154.21683 297.414656 
M 154.381948 297.435005 
L 154.629625 297.513846 
M 154.794743 297.532925 
L 155.290097 297.659577 
M 155.455215 297.676701 
L 156.115686 297.820282 
M 156.280804 297.835087 
L 158.344779 298.147255 
M 158.509897 298.157555 
L 163.87623 298.83425 
M 164.041348 298.844457 
L 167.673942 299.30235 
M 167.83906 299.312494 
L 168.912327 299.454366 
M 169.077445 299.46449 
L 170.31583 299.626282 
M 170.480948 299.636383 
L 173.370512 299.999097 
M 173.535629 300.009148 
L 177.003106 300.440039 
M 177.168224 300.450031 
L 177.49846 300.499966 
M 177.663578 300.509949 
L 179.727552 300.769039 
M 180.057788 300.798876 
L 181.626409 300.997481 
M 181.791527 301.007398 
L 185.754357 301.491666 
M 185.919475 301.501516 
L 187.405537 301.688412 
M 187.570655 301.698235 
L 189.469511 301.933602 
M 189.634629 301.943392 
L 190.790455 302.090092 
M 190.955573 302.099861 
L 192.606752 302.294975 
L 192.689311 206.419739 
L 192.77187 206.442362 
L 194.505608 206.939289 
M 194.670726 206.961842 
L 202.183593 209.023784 
M 202.348711 209.046057 
L 204.495244 209.646289 
M 204.660362 209.668479 
L 207.797603 210.53153 
M 207.962721 210.5536 
L 209.283664 210.928339 
M 209.448782 210.950356 
L 216.631413 212.876297 
M 216.796531 212.898053 
L 217.704679 213.158886 
M 217.869797 213.180603 
L 218.943064 213.484337 
M 219.2733 213.549349 
L 220.511684 213.895634 
M 220.84192 213.96048 
L 222.740777 214.478307 
M 222.905895 214.499847 
L 223.071012 214.542918 
L 223.23613 224.398951 
M 223.401248 224.419159 
L 228.189669 225.606583 
M 228.354787 225.626628 
L 230.583879 226.186791 
M 230.914115 226.246684 
L 232.730412 226.685159 
L 232.89553 232.989846 
L 233.556002 233.16123 
M 233.72112 233.18026 
L 235.702535 233.655177 
M 235.867653 233.674141 
L 240.16072 234.67557 
M 240.325838 234.694397 
L 240.738632 234.807302 
M 240.90375 234.826111 
L 250.56315 237.027893 
M 250.728268 237.046403 
L 251.223622 237.175906 
M 251.38874 237.194497 
L 252.296888 237.425719 
M 252.462006 237.445666 
L 253.865509 237.822503 
M 254.030627 237.844425 
L 254.525981 238.000777 
M 254.691099 238.023527 
L 258.653929 239.23563 
L 261.543493 240.296242 
M 261.708611 240.327521 
L 263.359791 241.006763 
M 263.524909 241.040168 
L 265.258647 241.799207 
M 265.423765 241.8348 
L 266.827267 242.490916 
M 266.992385 242.528186 
L 267.817975 242.905403 
L 267.900534 236.11055 
L 267.983093 236.14888 
L 271.285452 237.824231 
M 271.45057 237.866732 
L 273.927339 239.223611 
M 274.092457 239.268521 
L 276.816903 240.841572 
M 276.982021 240.889316 
L 278.385524 241.763736 
M 278.550641 241.813148 
L 280.036703 242.768566 
M 280.201821 242.819721 
L 281.605323 243.755269 
M 281.770441 243.808061 
L 283.008826 244.664322 
M 283.173944 244.718557 
L 284.082093 245.375895 
M 284.24721 245.431213 
L 288.044923 248.063246 
L 288.127482 248.181469 
M 288.2926 248.240696 
L 293.328697 251.993781 
L 294.567082 253.021838 
M 294.7322 253.086665 
L 295.227554 253.47703 
L 295.310113 141.193045 
L 295.392672 141.273498 
L 299.025266 144.958105 
M 299.190384 145.041369 
L 305.217189 151.268879 
L 305.299748 151.443411 
M 305.464866 151.530751 
L 307.281164 153.552878 
M 307.446282 153.641363 
L 310.831199 157.398138 
M 310.996317 157.488511 
L 313.803322 160.676859 
M 313.96844 160.768653 
L 314.546353 161.504341 
M 314.711471 161.596468 
L 316.114974 163.260872 
M 316.280092 163.353673 
L 319.087097 166.622571 
M 319.252214 166.716541 
L 319.912686 167.563631 
M 320.077804 167.657902 
L 323.958076 172.215632 
M 324.123194 172.311225 
L 324.288312 172.598148 
M 324.45343 172.693838 
L 325.361578 173.843954 
M 325.526696 173.939948 
L 327.177876 175.960888 
M 327.342994 176.057357 
L 330.727912 180.126248 
M 330.893029 180.223505 
L 333.534917 183.441444 
M 333.700035 183.539194 
L 334.443065 184.517387 
M 334.608183 184.615273 
L 337.745424 188.441036 
M 337.910542 188.539317 
L 345.505967 197.701437 
M 345.671085 197.800053 
L 349.716475 202.727917 
M 349.881593 202.826376 
L 350.707183 203.909049 
M 350.872301 204.007437 
L 351.202537 204.49928 
M 351.367654 204.597628 
L 352.771157 206.366612 
M 352.936275 206.464812 
L 353.266511 206.955681 
M 353.431629 207.053828 
L 353.844424 207.642512 
M 354.009542 207.740592 
L 356.073516 210.286991 
M 356.238634 210.384776 
L 357.229341 211.65485 
M 357.394459 211.752458 
L 357.807254 212.33782 
M 357.972372 212.435332 
L 359.706111 214.576927 
M 359.871229 214.674097 
L 360.696818 215.741716 
M 360.861936 215.838659 
L 363.503823 219.027341 
M 363.668941 219.123618 
L 365.567798 221.426559 
M 365.732916 221.522222 
L 372.58531 229.471019 
M 372.750428 229.564491 
L 374.319049 231.426338 
M 374.484167 231.51902 
L 375.639992 232.904007 
M 375.80511 232.995972 
L 377.786525 235.278409 
M 377.951643 235.368994 
L 378.446997 236.001429 
M 378.612115 236.091532 
L 379.190028 236.810052 
M 379.355146 236.899576 
L 379.8505 237.524391 
M 380.015618 237.613382 
L 382.327269 240.162992 
M 382.492387 240.249778 
L 384.226125 242.138353 
M 384.391243 242.22322 
L 386.372658 244.315358 
M 386.537776 244.397818 
L 388.766869 246.665701 
M 388.931987 246.745179 
L 393.142494 250.720127 
M 393.307612 250.793357 
L 395.289027 252.581668 
M 395.454145 252.651461 
L 397.683238 254.548681 
M 397.848356 254.614352 
L 401.398391 257.294034 
L 401.893745 257.702535 
M 402.058863 257.760235 
L 406.599607 260.790493 
L 409.241494 262.526944 
M 409.406612 262.578668 
L 413.947355 265.390936 
M 414.112473 265.439652 
L 416.589242 266.923838 
M 416.75436 266.970877 
L 418.983452 268.26683 
M 419.14857 268.31236 
L 424.184667 270.973888 
L 425.175375 271.286819 
M 425.340493 271.310762 
L 427.98238 272.085499 
M 428.147498 272.108421 
L 431.614975 273.053441 
M 431.780093 273.074372 
L 433.431272 273.501888 
M 433.59639 273.521664 
L 434.587098 273.773841 
M 434.752216 273.79286 
L 435.165011 273.905832 
M 435.330129 273.92447 
L 438.302252 274.575651 
M 438.46737 274.592211 
L 438.962723 274.690426 
L 439.127841 334.28535 
L 440.613903 334.429536 
M 440.779021 334.436595 
L 441.522052 334.504283 
M 441.687169 334.510761 
L 451.181451 335.138872 
L 452.832631 335.250641 
M 452.997749 335.255955 
L 453.080308 381.936249 
M 453.245426 381.93444 
L 454.648928 381.917198 
M 454.814046 381.916243 
L 454.979164 381.913379 
M 455.144282 381.912424 
L 461.914118 381.833639 
M 462.079235 381.832695 
L 462.904825 381.82232 
M 463.069943 381.821378 
L 464.473446 381.804437 
M 464.638564 381.803497 
L 466.619979 381.780039 
M 466.785097 381.779103 
L 470.087456 381.740807 
M 470.252574 381.739876 
L 474.050286 381.696241 
M 474.215404 381.69439 
L 474.628199 381.689765 
M 474.793317 381.688841 
L 475.701466 381.677756 
M 475.866584 381.676833 
L 476.774732 381.665767 
M 476.93985 381.664846 
L 479.334061 381.637264 
M 479.499179 381.636346 
L 483.131773 381.595186 
M 483.296891 381.594275 
L 484.452717 381.580612 
M 484.617835 381.579702 
L 484.700394 381.577882 
M 484.865512 381.576973 
L 491.222552 381.506406 
M 491.38767 381.505506 
L 492.460937 381.493818 
L 492.543496 152.667533 
L 492.626055 152.697377 
L 498.817978 154.953829 
M 498.983096 154.983366 
L 499.313332 155.130991 
M 499.47845 155.160504 
L 500.634275 155.602724 
M 500.799393 155.632174 
L 502.863367 156.396478 
M 503.028485 156.425821 
L 503.606398 156.660423 
M 503.771516 156.689731 
L 505.505255 157.333502 
M 505.670373 157.362719 
L 506.908757 157.82966 
M 507.073875 157.858811 
L 508.559937 158.411926 
M 508.725054 158.440999 
L 516.980952 161.328587 
L 518.384454 165.274195 
M 518.549572 165.485611 
L 520.778664 170.885318 
L 522.76008 175.35729 
M 522.925198 175.525668 
L 523.337992 176.519023 
M 523.50311 176.681765 
L 524.3287 178.418879 
M 524.493818 178.57198 
L 524.741495 179.176367 
M 524.906613 179.325459 
L 526.888028 182.792712 
M 527.053146 182.921017 
L 528.952003 185.652137 
L 529.447356 186.399832 
M 529.612474 186.50347 
L 531.346213 188.496901 
L 532.749715 189.928115 
M 532.914833 190.000134 
L 534.483454 191.218957 
L 535.474161 191.889496 
M 535.639279 191.935587 
L 536.052074 192.195693 
M 536.217192 192.236305 
L 536.629987 192.463551 
M 536.795105 192.49869 
L 538.281166 193.031045 
M 538.446284 193.128239 
L 540.180023 194.981465 
L 542.326556 197.197065 
L 542.82191 197.769708 
M 542.987028 197.848269 
L 543.977735 198.795973 
M 544.142853 198.863226 
L 545.133561 199.664439 
M 545.298679 199.720462 
L 546.78474 200.592582 
L 547.362653 200.897633 
M 547.527771 200.932206 
L 548.848715 201.403365 
M 549.013833 201.426662 
L 551.160366 202.054485 
M 551.325484 202.077694 
L 552.976663 202.564363 
M 553.141781 202.587504 
L 557.022053 203.745879 
L 558.673232 205.519026 
L 560.654648 207.361145 
M 560.819766 207.430814 
L 562.801181 209.089283 
M 562.966299 209.152329 
L 564.204683 210.127154 
M 564.369801 210.185974 
L 567.094247 211.987753 
L 569.653576 213.462833 
M 569.818694 213.504606 
L 571.552432 214.338371 
M 571.71755 214.367357 
L 573.451288 214.837838 
L 573.864083 214.966744 
M 574.029201 214.988218 
L 577.001324 215.759373 
L 577.166442 216.993448 
M 577.33156 217.402094 
L 579.147857 226.050826 
L 579.312975 121.762271 
L 579.560652 122.740315 
L 581.872303 133.023524 
L 582.450216 135.772657 
M 582.780452 136.782135 
L 584.761867 144.743079 
M 584.926985 145.04485 
L 586.247929 149.980364 
M 586.413047 150.25929 
L 588.477021 156.835754 
L 590.540995 162.684878 
L 592.60497 167.861427 
L 594.586385 172.250399 
L 594.668944 106.685714 
L 594.751503 106.864691 
L 594.834062 107.219854 
M 594.99918 107.396053 
L 596.980595 111.510481 
M 597.145713 111.663722 
L 599.127128 115.091161 
L 601.025985 117.941152 
L 601.356221 118.394971 
L 603.172518 126.699795 
M 603.337636 127.046162 
L 604.080667 130.442774 
M 604.245785 130.775761 
L 606.557436 139.912302 
M 606.722554 140.209616 
L 607.465585 143.11859 
M 607.630703 143.403096 
L 608.291174 145.911694 
M 608.456292 146.184675 
L 610.602826 152.885545 
L 611.676092 156.191289 
M 611.84121 156.419743 
L 613.987743 162.020294 
L 616.134277 167.015212 
L 617.290102 169.648059 
M 617.45522 169.817531 
L 619.684312 174.127221 
L 620.757579 176.174287 
M 620.922697 176.315975 
L 621.995964 178.239664 
M 622.161082 178.372927 
L 623.482025 180.559354 
M 623.647143 180.683509 
L 624.968087 182.722987 
M 625.133205 182.83887 
L 626.949502 185.385362 
M 627.11462 185.491082 
L 629.261153 188.198697 
M 629.426271 188.293761 
L 632.068158 191.155632 
L 634.792604 193.776596 
L 637.682168 196.248114 
L 640.901968 198.700652 
L 644.617122 201.236719 
L 647.671804 203.216348 
M 647.836922 203.267131 
L 654.441639 207.274624 
M 654.606757 207.324092 
L 655.680024 208.020522 
M 655.845142 208.07055 
L 657.413762 209.078949 
M 657.57888 209.129756 
L 658.569588 209.79354 
M 658.734706 209.844851 
L 659.890532 210.61873 
M 660.05565 210.6706 
L 662.44986 212.242315 
M 662.614978 212.295215 
L 663.688244 213.039139 
M 663.853362 213.092512 
L 665.091747 213.950639 
M 665.256865 214.004528 
L 665.752219 214.328488 
L 665.917337 214.977856 
M 666.082454 215.194306 
L 669.549931 224.489266 
M 669.715049 224.705098 
L 674.173234 236.542007 
M 674.338352 236.756641 
L 679.374449 250.02066 
M 679.704685 250.660188 
L 682.429131 257.892393 
M 682.594249 258.104655 
L 684.575664 263.402501 
M 684.740782 263.614061 
L 687.630346 271.210762 
M 687.795464 271.421204 
L 692.253649 282.940507 
M 692.418766 283.148874 
L 695.968802 292.274807 
M 696.13392 292.481213 
L 702.903756 309.441703 
M 703.068874 309.643869 
L 703.646787 311.259235 
M 703.811905 311.460909 
L 705.628202 316.084071 
M 705.79332 316.284403 
L 708.18753 322.267671 
M 708.352648 322.466213 
L 708.848002 323.854355 
M 709.01312 324.052425 
L 709.425915 325.2396 
M 709.591033 325.437254 
L 712.398038 332.317272 
M 712.563156 332.512752 
L 714.049217 336.215182 
M 714.214335 336.40943 
L 715.948073 340.665976 
M 716.113191 340.858544 
L 717.269017 343.736079 
M 717.434135 343.927147 
L 719.250432 348.299964 
M 719.41555 348.489245 
L 719.580668 349.056704 
M 719.745786 349.245728 
L 720.653935 351.509088 
M 720.819053 351.697292 
L 725.772591 362.710039 
L 726.598181 364.481003 
M 726.763299 364.635901 
L 727.258652 365.691817 
M 727.42377 365.838616 
L 728.744714 368.180174 
M 728.909832 368.308883 
L 729.570304 369.422338 
M 729.735422 369.541073 
L 731.386601 371.70761 
L 732.955222 373.401005 
L 733.120339 373.63611 
M 733.285457 373.712529 
L 734.68896 374.922003 
M 734.854078 374.979998 
L 736.25758 375.818574 
L 737.661083 376.404773 
M 737.826201 376.42829 
L 739.147144 376.675692 
L 740.715765 376.706123 
L 744.183242 376.695188 
M 744.34836 376.694935 
L 747.898395 376.683813 
M 748.063513 376.683561 
L 757.97059 376.653316 
M 758.135708 376.653068 
L 761.355508 376.643179 
M 761.520626 376.642932 
L 763.419482 376.637025 
M 763.5846 376.636779 
L 765.318338 376.631381 
M 765.483456 376.631136 
L 769.693964 376.618443 
M 769.859082 376.6182 
L 770.436995 376.616256 
M 770.602113 376.616013 
L 771.262584 376.613828 
M 771.427702 376.613585 
L 772.005615 376.611645 
M 772.170733 376.611403 
L 772.831205 376.609224 
M 772.996323 376.608982 
L 774.977738 376.602943 
M 775.142856 376.602701 
L 777.124271 376.596683 
M 777.289389 376.596443 
L 777.784743 376.594762 
M 777.949861 376.594522 
L 780.42663 376.587096 
M 780.591748 376.586857 
L 781.087102 376.585185 
M 781.25222 376.584946 
L 784.802256 376.574472 
M 784.967374 376.574235 
L 785.958081 376.571153 
M 786.123199 376.570916 
L 789.342999 376.561467 
M 789.508117 376.561231 
L 790.416266 376.558407 
M 790.581384 376.558172 
L 791.984886 376.553944 
M 792.150004 376.55371 
L 793.553507 376.549493 
M 793.718625 376.549259 
L 794.544214 376.546688 
M 794.709332 376.546454 
L 795.534922 376.543887 
M 795.70004 376.543653 
L 796.938425 376.539926 
M 797.103543 376.539694 
L 799.74543 376.532033 
M 799.910548 376.531801 
L 800.653578 376.529486 
M 800.818696 376.529255 
L 802.882671 376.523253 
M 803.047788 376.523022 
L 803.295465 376.522101 
M 803.460583 376.521871 
L 804.616409 376.51842 
M 804.781527 376.51819 
L 805.441999 376.516124 
M 805.607117 376.515894 
L 805.854794 376.514977 
M 806.019911 376.514747 
L 806.680383 376.512685 
M 806.845501 376.512456 
L 807.505973 376.510396 
M 807.671091 376.510167 
L 813.780455 376.493101 
M 813.945573 376.492875 
L 814.523486 376.491065 
M 814.688603 376.490838 
L 815.679311 376.487902 
M 815.844429 376.487676 
L 816.009547 376.486999 
M 816.174665 376.486774 
L 818.568875 376.480021 
M 818.733993 376.479796 
L 818.899111 376.479122 
M 819.064229 376.478898 
L 821.706116 376.471506 
M 821.871234 376.471282 
L 824.430562 376.464146 
M 824.59568 376.463924 
L 827.732921 376.45527 
M 827.898039 376.455048 
L 831.282957 376.44578 
M 831.448075 376.44556 
L 832.521341 376.442483 
M 832.686459 376.442263 
L 833.759726 376.439192 
M 833.924844 376.438973 
L 834.667875 376.436783 
M 834.832993 376.436564 
L 837.392321 376.429578 
M 837.557439 376.42936 
L 843.171449 376.414398 
M 843.336567 376.414182 
L 845.648218 376.407936 
M 845.813336 376.407721 
L 847.712192 376.402786 
L 847.712192 376.402786 
" clip-path="url(#pd54b58597e)" style="fill: none; stroke-dasharray: 7,11.55; stroke-dashoffset: 0; stroke: #008000; stroke-opacity: 0.6; stroke-width: 7"/>
   </g>
   <g id="line2d_14">
    <path d="M 134.155 230.669983 
L 135.145708 230.92152 
M 135.310826 230.940851 
L 138.117831 231.615794 
M 138.282949 231.635032 
L 139.603892 231.961674 
M 139.76901 231.980865 
L 142.493456 232.631829 
M 142.658574 232.65093 
L 143.566723 232.879942 
M 143.731841 232.89901 
L 145.217902 233.260809 
M 145.38302 233.279825 
L 145.795815 233.393871 
M 145.960933 233.412869 
L 146.373728 233.526808 
M 146.538846 233.545788 
L 152.895887 235.018459 
M 153.061005 235.037239 
L 154.21683 235.318642 
M 154.381948 235.337382 
L 154.629625 235.412317 
M 154.794743 235.431044 
L 155.290097 235.562066 
M 155.455215 235.580773 
L 156.115686 235.749026 
M 156.280804 235.767709 
L 158.344779 236.252566 
M 158.509897 236.271181 
L 163.87623 237.494229 
M 164.041348 237.512677 
L 167.673942 238.340266 
M 167.83906 238.3586 
L 168.912327 238.615018 
M 169.077445 238.633316 
L 170.31583 238.925736 
M 170.480948 238.943992 
L 173.370512 239.599557 
M 173.535629 239.617722 
L 177.003106 240.396508 
M 177.168224 240.414566 
L 177.49846 240.504819 
M 177.663578 240.522862 
L 179.727552 240.991138 
M 180.057788 241.045064 
L 181.626409 241.40402 
M 181.791527 241.421943 
L 185.754357 242.297201 
M 185.919475 242.315004 
L 187.405537 242.652797 
M 187.570655 242.670552 
L 189.469511 243.09595 
M 189.634629 243.113645 
L 190.790455 243.378788 
M 190.955573 243.396445 
L 194.505608 244.171017 
M 194.670726 244.188567 
L 200.284736 245.376503 
L 200.367295 213.035052 
L 200.449854 213.056785 
L 202.183593 213.534191 
M 202.348711 213.555857 
L 204.495244 214.13976 
M 204.660362 214.161345 
L 207.797603 215.000916 
M 207.962721 215.022386 
L 209.283664 215.38693 
M 209.448782 215.408347 
L 216.631413 217.281891 
M 216.796531 217.303054 
L 217.704679 217.556791 
M 217.869797 217.577917 
L 218.943064 217.873388 
M 219.2733 217.93663 
L 220.511684 218.273495 
M 220.84192 218.336577 
L 222.740777 218.840315 
M 222.905895 218.861269 
L 223.23613 218.965996 
M 223.401248 218.986933 
L 228.189669 220.217248 
M 228.354787 220.238017 
L 230.583879 220.818414 
M 230.914115 220.88047 
L 233.556002 221.561438 
M 233.72112 221.582026 
L 235.702535 222.095835 
M 235.867653 222.116352 
L 240.16072 223.19979 
M 240.325838 223.220158 
L 240.738632 223.34231 
M 240.90375 223.362659 
L 250.56315 225.74475 
M 250.728268 225.764776 
L 251.223622 225.904885 
M 251.38874 225.92489 
L 252.296888 226.164737 
M 252.462006 226.184707 
L 253.865509 226.543706 
M 254.030627 226.563625 
L 254.525981 226.702982 
M 254.691099 226.72288 
L 261.543493 228.384765 
M 261.708611 228.404436 
L 263.359791 228.81693 
M 263.524909 228.836543 
L 265.258647 229.267375 
M 265.423765 229.286928 
L 266.827267 229.638433 
M 266.992385 229.657936 
L 271.285452 230.687863 
M 271.45057 230.707225 
L 273.927339 231.306164 
M 274.092457 231.325443 
L 276.816903 231.979394 
M 276.982021 231.998582 
L 278.385524 232.343538 
M 278.550641 232.362677 
L 280.036703 232.725844 
M 280.201821 232.744933 
L 281.605323 233.088085 
M 281.770441 233.107125 
L 283.008826 233.411412 
M 283.173944 233.430409 
L 284.082093 233.658165 
M 284.24721 233.677128 
L 288.127482 234.584368 
M 288.2926 234.603207 
L 294.567082 236.046211 
M 294.7322 236.064853 
L 295.227554 236.176654 
L 298.282236 244.85298 
L 299.025266 247.078119 
M 299.190384 247.297818 
L 302.162507 254.880257 
L 305.299748 262.456151 
M 305.464866 262.642654 
L 307.281164 266.831681 
M 307.446282 267.0095 
L 310.666081 273.669099 
L 310.831199 274.159245 
M 310.996317 274.321926 
L 313.803322 279.794913 
M 313.96844 279.944971 
L 314.546353 281.132791 
M 314.711471 281.279689 
L 316.114974 283.863778 
M 316.280092 284.003998 
L 319.087097 288.689902 
M 319.252214 288.817442 
L 319.912686 289.949432 
M 320.077804 150.422102 
L 322.967368 155.195262 
L 323.958076 156.857101 
M 324.123194 156.982442 
L 324.288312 157.356326 
M 324.45343 157.480242 
L 325.361578 158.939437 
M 325.526696 159.05872 
L 327.177876 161.481343 
M 327.342994 161.592786 
L 329.984881 164.970771 
L 330.727912 165.951567 
M 330.893029 166.047688 
L 333.534917 169.019865 
M 333.700035 169.103877 
L 334.443065 169.924443 
M 334.608183 170.004547 
L 337.084952 172.242716 
L 337.745424 172.851976 
M 337.910542 172.917902 
L 340.222193 174.620307 
L 342.533844 176.046221 
L 344.762937 177.160386 
L 345.505967 177.508282 
M 345.671085 177.541151 
L 347.982737 178.337314 
L 349.716475 178.917193 
M 349.881593 178.94351 
L 350.707183 179.232769 
M 350.872301 179.259044 
L 351.202537 179.390366 
M 351.367654 179.41662 
L 352.771157 179.888587 
M 352.936275 179.914773 
L 353.266511 180.045655 
M 353.431629 180.071821 
L 353.844424 180.228742 
M 354.009542 180.254884 
L 354.91769 180.542205 
L 355.000249 162.818967 
L 355.082808 162.847447 
L 356.073516 163.217341 
M 356.238634 163.245768 
L 357.229341 163.614967 
M 357.394459 163.643341 
L 357.807254 163.8135 
M 357.972372 163.841847 
L 359.706111 164.464509 
M 359.871229 164.492768 
L 360.696818 164.803367 
M 360.861936 164.831581 
L 363.503823 165.760506 
M 363.668941 165.788591 
L 365.567798 166.4615 
M 365.732916 166.489491 
L 372.58531 168.827344 
M 372.750428 168.855017 
L 374.319049 169.407697 
M 374.484167 169.435292 
L 375.639992 169.848772 
M 375.80511 169.876308 
L 377.786525 170.563501 
M 377.951643 170.59094 
L 378.446997 170.782915 
M 378.612115 170.810326 
L 379.190028 171.029475 
M 379.355146 171.056852 
L 379.767941 171.193683 
L 379.8505 153.685877 
M 380.015618 153.715584 
L 382.327269 154.575358 
M 382.492387 154.604946 
L 384.226125 155.254871 
M 384.391243 155.284367 
L 386.372658 156.020491 
M 386.537776 156.049884 
L 388.766869 156.871302 
M 388.931987 156.900581 
L 393.142494 158.417693 
M 393.307612 158.446765 
L 395.289027 159.172284 
M 395.454145 159.201254 
L 397.683238 160.010839 
M 397.848356 160.039696 
L 401.893745 161.477636 
M 402.058863 161.506297 
L 409.241494 164.013391 
M 409.406612 164.041711 
L 413.947355 165.621558 
M 414.112473 165.649661 
L 416.589242 166.519005 
M 416.75436 166.546988 
L 418.983452 167.32899 
M 419.14857 167.356864 
L 425.175375 169.409202 
M 425.340493 169.436797 
L 426.083524 169.684984 
L 426.248642 284.910265 
L 427.98238 285.175596 
M 428.147498 285.187638 
L 431.614975 285.703911 
M 431.780093 285.715882 
L 433.431272 285.9669 
M 433.59639 285.978836 
L 434.587098 286.133852 
M 434.752216 286.145765 
L 435.165011 286.217211 
M 435.330129 286.229113 
L 438.302252 286.668362 
M 438.46737 286.680204 
L 440.613903 286.999319 
M 440.779021 287.011116 
L 441.522052 287.128998 
M 441.687169 287.140777 
L 452.832631 288.728128 
M 452.997749 288.739693 
L 453.080308 288.762817 
M 453.245426 288.774377 
L 454.648928 288.982191 
M 454.814046 288.993721 
L 454.979164 289.028303 
M 455.144282 289.039828 
L 458.446641 289.499532 
L 458.5292 401.038364 
L 458.611759 401.03484 
L 461.914118 400.890764 
M 462.079235 400.88726 
L 462.904825 400.848745 
M 463.069943 400.845247 
L 464.473446 400.782354 
M 464.638564 400.778864 
L 466.619979 400.691777 
M 466.785097 400.688299 
L 470.087456 400.546127 
M 470.252574 400.542669 
L 474.050286 400.380673 
M 474.215404 400.373802 
L 474.628199 400.356633 
M 474.793317 400.353201 
L 475.701466 400.312048 
M 475.866584 400.308622 
L 476.774732 400.267541 
M 476.93985 400.26412 
L 479.334061 400.161721 
M 479.499179 400.158315 
L 483.131773 400.005508 
M 483.296891 400.002123 
L 484.452717 399.951399 
M 484.617835 399.948021 
L 484.700394 399.941267 
M 484.865512 399.93789 
L 491.222552 399.675909 
M 491.38767 399.672568 
L 492.460937 399.629176 
L 496.010973 407.528969 
L 498.817978 413.549125 
M 498.983096 413.716301 
L 499.313332 414.54847 
M 499.47845 414.714189 
L 500.634275 417.173589 
M 500.799393 417.335902 
L 502.863367 421.493049 
M 503.028485 421.650697 
L 503.606398 422.906355 
M 503.771516 423.062634 
L 505.505255 426.464237 
M 505.670373 426.617237 
L 506.908757 429.046664 
M 507.073875 429.197354 
L 508.559937 432.035157 
M 508.725054 432.183192 
L 513.596034 440.687548 
L 517.971659 447.909426 
L 518.384454 448.663952 
M 518.549572 448.787716 
L 520.861223 452.038755 
L 522.76008 454.522434 
M 522.925198 454.620112 
L 523.337992 455.196438 
M 523.50311 455.290866 
L 524.3287 456.29886 
M 524.493818 456.3877 
L 524.741495 456.738408 
M 524.906613 456.824923 
L 526.888028 458.838578 
M 527.053146 458.913272 
L 529.282238 460.770659 
L 529.447356 460.959051 
M 529.612474 461.021096 
L 531.924126 462.616612 
L 532.749715 463.176233 
M 532.914833 463.225449 
L 535.474161 464.676208 
M 535.639279 464.718192 
L 536.052074 464.966601 
M 536.217192 465.007446 
L 536.629987 465.249438 
M 536.795105 465.289283 
L 538.281166 466.024406 
M 538.446284 466.061814 
L 540.675377 466.948916 
L 542.82191 467.612872 
M 542.987028 467.633159 
L 543.977735 467.872447 
M 544.142853 467.889076 
L 545.133561 468.0845 
M 545.298679 468.098038 
L 547.362653 468.388486 
M 547.527771 468.397649 
L 548.848715 468.53698 
M 549.013833 468.544348 
L 551.160366 468.711303 
M 551.325484 468.716307 
L 552.976663 468.802092 
M 553.141781 468.80526 
L 557.352289 468.853811 
L 559.581381 468.679112 
L 560.654648 468.514883 
M 560.819766 468.502293 
L 562.801181 468.188111 
M 562.966299 468.175565 
L 564.204683 467.975068 
M 564.369801 467.962551 
L 569.653576 467.152559 
M 569.818694 467.140153 
L 571.552432 466.867636 
M 571.71755 466.855268 
L 573.864083 466.52196 
M 574.029201 466.509639 
L 577.166442 466.030388 
M 577.33156 466.018132 
L 579.147857 465.748928 
L 581.129273 472.044343 
L 582.450216 476.078146 
M 582.780452 476.755585 
L 584.761867 482.021813 
M 584.926985 482.218845 
L 586.247929 485.415104 
M 586.413047 485.594273 
L 588.394462 489.612169 
L 590.293318 492.97228 
L 592.192175 495.888568 
L 594.091031 498.412828 
L 594.586385 499.012221 
L 594.834062 500.358538 
M 594.99918 500.693295 
L 596.980595 508.823762 
M 597.145713 509.1396 
L 600.117836 520.064027 
L 602.759723 529.012377 
L 603.172518 530.559356 
M 603.337636 530.81296 
L 604.080667 533.284423 
M 604.245785 533.525235 
L 606.309759 539.190406 
L 606.557436 540.035855 
M 606.722554 540.244677 
L 607.465585 542.277867 
M 607.630703 542.475746 
L 608.291174 544.212972 
M 608.456292 544.401194 
L 610.437708 548.639895 
L 611.676092 551.181263 
M 611.84121 551.332893 
L 613.822625 554.730547 
L 615.804041 557.694135 
L 617.290102 559.760224 
M 617.45522 559.862533 
L 619.436635 562.136819 
L 620.757579 563.549583 
M 620.922697 563.627867 
L 621.995964 564.670068 
M 622.161082 564.740753 
L 623.482025 565.869012 
M 623.647143 565.931172 
L 624.968087 566.919525 
M 625.133205 566.973741 
L 626.949502 568.106658 
M 627.11462 568.151115 
L 629.261153 569.209916 
M 629.426271 569.244081 
L 631.655363 570.039489 
L 633.967015 570.623163 
L 636.361225 570.994484 
L 638.837994 571.153456 
L 641.479881 571.094829 
L 644.204327 570.80972 
L 647.093891 570.277684 
L 647.671804 570.124493 
M 647.836922 570.104535 
L 650.809045 569.265935 
L 654.441639 568.093782 
M 654.606757 568.067814 
L 655.680024 567.704636 
M 655.845142 567.678721 
L 657.413762 567.161148 
M 657.57888 567.135306 
L 658.569588 566.799674 
M 658.734706 566.77388 
L 659.890532 566.387392 
M 660.05565 566.361654 
L 662.44986 565.591113 
M 662.614978 565.565482 
L 663.688244 565.207006 
M 663.853362 565.181427 
L 665.091747 564.77262 
M 665.256865 564.747099 
L 665.917337 564.517562 
M 666.082454 564.492075 
L 669.549931 563.399367 
M 669.715049 563.37403 
L 674.173234 561.985737 
M 674.338352 561.960591 
L 679.374449 560.408066 
M 679.704685 560.333271 
L 682.429131 559.487702 
M 682.594249 559.462891 
L 684.575664 558.843692 
M 684.740782 558.818968 
L 687.630346 557.931086 
M 687.795464 557.906484 
L 692.253649 556.558445 
M 692.418766 556.534028 
L 695.968802 555.46289 
M 696.13392 555.438619 
L 702.903756 553.435491 
M 703.068874 553.411493 
L 703.646787 553.219624 
M 703.811905 553.195655 
L 705.628202 552.645252 
M 705.79332 552.62136 
L 708.18753 551.906092 
M 708.352648 551.882299 
L 708.848002 551.71584 
M 709.01312 551.692073 
L 709.425915 551.549537 
M 709.591033 551.525792 
L 712.398038 550.696732 
M 712.563156 550.673102 
L 714.049217 550.22473 
M 714.214335 550.201164 
L 715.948073 549.683495 
M 716.113191 549.660001 
L 717.269017 549.307968 
M 717.434135 549.284524 
L 719.250432 548.746189 
M 719.41555 548.722821 
L 719.580668 548.652736 
M 719.745786 548.62938 
L 720.653935 548.349358 
M 720.819053 548.326043 
L 726.598181 546.67867 
M 726.763299 546.65558 
L 727.258652 546.494034 
M 727.42377 546.470969 
L 728.744714 546.079327 
M 728.909832 546.056318 
L 729.570304 545.849368 
M 729.735422 545.826389 
L 733.120339 544.864055 
M 733.285457 544.841208 
L 734.68896 544.430494 
M 734.854078 544.407706 
L 737.661083 543.612039 
M 737.826201 543.589361 
L 744.183242 541.829801 
M 744.34836 541.807362 
L 747.898395 540.823027 
M 748.063513 540.800723 
L 757.97059 538.123975 
M 758.135708 538.102034 
L 761.355508 537.226803 
M 761.520626 537.204983 
L 763.419482 536.682168 
M 763.5846 536.660421 
L 765.318338 536.182717 
M 765.483456 536.161037 
L 769.693964 535.037667 
M 769.859082 535.01614 
L 770.436995 534.844033 
M 770.602113 534.822532 
L 771.262584 534.629158 
M 771.427702 534.607687 
L 772.005615 534.436018 
M 772.170733 534.414572 
L 772.831205 534.221691 
M 772.996323 534.200275 
L 774.977738 533.665788 
M 775.142856 533.644446 
L 777.124271 533.111824 
M 777.289389 533.090556 
L 777.784743 532.941762 
M 777.949861 532.920517 
L 780.42663 532.26334 
M 780.591748 532.242186 
L 781.087102 532.09419 
M 781.25222 532.073059 
L 784.802256 531.1461 
M 784.967374 531.125096 
L 785.958081 530.852306 
M 786.123199 530.831342 
L 789.342999 529.995081 
M 789.508117 529.974232 
L 790.416266 529.724263 
M 790.581384 529.70345 
L 791.984886 529.329301 
M 792.150004 529.308541 
L 793.553507 528.935346 
M 793.718625 528.91464 
L 794.544214 528.68705 
M 794.709332 528.666377 
L 795.534922 528.439154 
M 795.70004 528.418514 
L 796.938425 528.088652 
M 797.103543 528.068059 
L 799.74543 527.390045 
M 799.910548 527.369546 
L 800.653578 527.164707 
M 800.818696 527.144238 
L 802.882671 526.613015 
M 803.047788 526.592621 
L 803.295465 526.51107 
M 803.460583 526.490689 
L 804.616409 526.185303 
M 804.781527 526.164966 
L 805.441999 525.982055 
M 805.607117 525.961745 
L 805.854794 525.880533 
M 806.019911 525.860236 
L 806.680383 525.677693 
M 806.845501 525.657424 
L 807.505973 525.475126 
M 807.671091 525.454884 
L 813.780455 523.944478 
M 813.945573 523.924442 
L 814.523486 523.76425 
M 814.688603 523.744239 
L 815.679311 523.484328 
M 815.844429 523.464354 
L 816.009547 523.404447 
M 816.174665 523.384484 
L 818.568875 522.786823 
M 818.733993 522.766942 
L 818.899111 522.707317 
M 819.064229 522.687447 
L 821.706116 522.033236 
M 821.871234 522.013456 
L 824.430562 521.381919 
M 824.59568 521.362227 
L 827.732921 520.596305 
M 827.898039 520.576719 
L 831.282957 519.756467 
M 831.448075 519.736993 
L 832.521341 519.46464 
M 832.686459 519.445205 
L 833.759726 519.1734 
M 833.924844 519.154005 
L 834.667875 518.960197 
M 834.832993 518.94083 
L 837.392321 518.322475 
M 837.557439 518.303194 
L 843.171449 516.979055 
M 843.336567 516.959955 
L 845.648218 516.407161 
M 845.813336 516.388137 
L 847.712192 515.951302 
L 847.712192 515.951302 
" clip-path="url(#pd54b58597e)" style="fill: none; stroke-dasharray: 44.8,11.2,7,11.2; stroke-dashoffset: 0; stroke: #ff0000; stroke-opacity: 0.6; stroke-width: 7"/>
   </g>
   <g id="patch_3">
    <path d="M 134.155 612.92 
L 134.155 17.64 
" style="fill: none; stroke: #000000; stroke-width: 0.8; stroke-linejoin: miter; stroke-linecap: square"/>
   </g>
   <g id="patch_4">
    <path d="M 847.629633 612.92 
L 847.629633 17.64 
" style="fill: none; stroke: #000000; stroke-width: 0.8; stroke-linejoin: miter; stroke-linecap: square"/>
   </g>
   <g id="patch_5">
    <path d="M 134.155 612.92 
L 847.629633 612.92 
" style="fill: none; stroke: #000000; stroke-width: 0.8; stroke-linejoin: miter; stroke-linecap: square"/>
   </g>
   <g id="patch_6">
    <path d="M 134.155 17.64 
L 847.629633 17.64 
" style="fill: none; stroke: #000000; stroke-width: 0.8; stroke-linejoin: miter; stroke-linecap: square"/>
   </g>
   <g id="text_12">
    <!-- 4 RMSE: 9.6 m -->
    <g transform="translate(276.849927 493.864) scale(0.1728 -0.1728)">
     <defs>
      <path id="DejaVuSans-52" d="M 2841 2188 
Q 3044 2119 3236 1894 
Q 3428 1669 3622 1275 
L 4263 0 
L 3584 0 
L 2988 1197 
Q 2756 1666 2539 1819 
Q 2322 1972 1947 1972 
L 1259 1972 
L 1259 0 
L 628 0 
L 628 4666 
L 2053 4666 
Q 2853 4666 3247 4331 
Q 3641 3997 3641 3322 
Q 3641 2881 3436 2590 
Q 3231 2300 2841 2188 
z
M 1259 4147 
L 1259 2491 
L 2053 2491 
Q 2509 2491 2742 2702 
Q 2975 2913 2975 3322 
Q 2975 3731 2742 3939 
Q 2509 4147 2053 4147 
L 1259 4147 
z
" transform="scale(0.015625)"/>
      <path id="DejaVuSans-4d" d="M 628 4666 
L 1569 4666 
L 2759 1491 
L 3956 4666 
L 4897 4666 
L 4897 0 
L 4281 0 
L 4281 4097 
L 3078 897 
L 2444 897 
L 1241 4097 
L 1241 0 
L 628 0 
L 628 4666 
z
" transform="scale(0.015625)"/>
      <path id="DejaVuSans-53" d="M 3425 4513 
L 3425 3897 
Q 3066 4069 2747 4153 
Q 2428 4238 2131 4238 
Q 1616 4238 1336 4038 
Q 1056 3838 1056 3469 
Q 1056 3159 1242 3001 
Q 1428 2844 1947 2747 
L 2328 2669 
Q 3034 2534 3370 2195 
Q 3706 1856 3706 1288 
Q 3706 609 3251 259 
Q 2797 -91 1919 -91 
Q 1588 -91 1214 -16 
Q 841 59 441 206 
L 441 856 
Q 825 641 1194 531 
Q 1563 422 1919 422 
Q 2459 422 2753 634 
Q 3047 847 3047 1241 
Q 3047 1584 2836 1778 
Q 2625 1972 2144 2069 
L 1759 2144 
Q 1053 2284 737 2584 
Q 422 2884 422 3419 
Q 422 4038 858 4394 
Q 1294 4750 2059 4750 
Q 2388 4750 2728 4690 
Q 3069 4631 3425 4513 
z
" transform="scale(0.015625)"/>
      <path id="DejaVuSans-45" d="M 628 4666 
L 3578 4666 
L 3578 4134 
L 1259 4134 
L 1259 2753 
L 3481 2753 
L 3481 2222 
L 1259 2222 
L 1259 531 
L 3634 531 
L 3634 0 
L 628 0 
L 628 4666 
z
" transform="scale(0.015625)"/>
      <path id="DejaVuSans-3a" d="M 750 794 
L 1409 794 
L 1409 0 
L 750 0 
L 750 794 
z
M 750 3309 
L 1409 3309 
L 1409 2516 
L 750 2516 
L 750 3309 
z
" transform="scale(0.015625)"/>
      <path id="DejaVuSans-36" d="M 2113 2584 
Q 1688 2584 1439 2293 
Q 1191 2003 1191 1497 
Q 1191 994 1439 701 
Q 1688 409 2113 409 
Q 2538 409 2786 701 
Q 3034 994 3034 1497 
Q 3034 2003 2786 2293 
Q 2538 2584 2113 2584 
z
M 3366 4563 
L 3366 3988 
Q 3128 4100 2886 4159 
Q 2644 4219 2406 4219 
Q 1781 4219 1451 3797 
Q 1122 3375 1075 2522 
Q 1259 2794 1537 2939 
Q 1816 3084 2150 3084 
Q 2853 3084 3261 2657 
Q 3669 2231 3669 1497 
Q 3669 778 3244 343 
Q 2819 -91 2113 -91 
Q 1303 -91 875 529 
Q 447 1150 447 2328 
Q 447 3434 972 4092 
Q 1497 4750 2381 4750 
Q 2619 4750 2861 4703 
Q 3103 4656 3366 4563 
z
" transform="scale(0.015625)"/>
     </defs>
     <use xlink:href="#DejaVuSans-34"/>
     <use xlink:href="#DejaVuSans-20" x="63.623047"/>
     <use xlink:href="#DejaVuSans-52" x="95.410156"/>
     <use xlink:href="#DejaVuSans-4d" x="164.892578"/>
     <use xlink:href="#DejaVuSans-53" x="251.171875"/>
     <use xlink:href="#DejaVuSans-45" x="314.648438"/>
     <use xlink:href="#DejaVuSans-3a" x="377.832031"/>
     <use xlink:href="#DejaVuSans-20" x="411.523438"/>
     <use xlink:href="#DejaVuSans-39" x="443.310547"/>
     <use xlink:href="#DejaVuSans-2e" x="506.933594"/>
     <use xlink:href="#DejaVuSans-36" x="538.720703"/>
     <use xlink:href="#DejaVuSans-20" x="602.34375"/>
     <use xlink:href="#DejaVuSans-6d" x="634.130859"/>
    </g>
   </g>
   <g id="text_13">
    <!-- 6 RMSE: 5.57 m -->
    <g transform="translate(276.849927 523.628) scale(0.1728 -0.1728)">
     <use xlink:href="#DejaVuSans-36"/>
     <use xlink:href="#DejaVuSans-20" x="63.623047"/>
     <use xlink:href="#DejaVuSans-52" x="95.410156"/>
     <use xlink:href="#DejaVuSans-4d" x="164.892578"/>
     <use xlink:href="#DejaVuSans-53" x="251.171875"/>
     <use xlink:href="#DejaVuSans-45" x="314.648438"/>
     <use xlink:href="#DejaVuSans-3a" x="377.832031"/>
     <use xlink:href="#DejaVuSans-20" x="411.523438"/>
     <use xlink:href="#DejaVuSans-35" x="443.310547"/>
     <use xlink:href="#DejaVuSans-2e" x="506.933594"/>
     <use xlink:href="#DejaVuSans-35" x="538.720703"/>
     <use xlink:href="#DejaVuSans-37" x="602.34375"/>
     <use xlink:href="#DejaVuSans-20" x="665.966797"/>
     <use xlink:href="#DejaVuSans-6d" x="697.753906"/>
    </g>
   </g>
   <g id="text_14">
    <!-- 7 RMSE: 8.17 m -->
    <g transform="translate(276.849927 553.392) scale(0.1728 -0.1728)">
     <use xlink:href="#DejaVuSans-37"/>
     <use xlink:href="#DejaVuSans-20" x="63.623047"/>
     <use xlink:href="#DejaVuSans-52" x="95.410156"/>
     <use xlink:href="#DejaVuSans-4d" x="164.892578"/>
     <use xlink:href="#DejaVuSans-53" x="251.171875"/>
     <use xlink:href="#DejaVuSans-45" x="314.648438"/>
     <use xlink:href="#DejaVuSans-3a" x="377.832031"/>
     <use xlink:href="#DejaVuSans-20" x="411.523438"/>
     <use xlink:href="#DejaVuSans-38" x="443.310547"/>
     <use xlink:href="#DejaVuSans-2e" x="506.933594"/>
     <use xlink:href="#DejaVuSans-31" x="538.720703"/>
     <use xlink:href="#DejaVuSans-37" x="602.34375"/>
     <use xlink:href="#DejaVuSans-20" x="665.966797"/>
     <use xlink:href="#DejaVuSans-6d" x="697.753906"/>
    </g>
   </g>
   <g id="text_15">
    <!-- 7 -->
    <g transform="translate(498.027063 464.1) scale(0.1728 -0.1728)">
     <use xlink:href="#DejaVuSans-37"/>
    </g>
   </g>
   <g id="text_16">
    <!-- 8 -->
    <g transform="translate(562.23978 464.1) scale(0.1728 -0.1728)">
     <use xlink:href="#DejaVuSans-38"/>
    </g>
   </g>
   <g id="text_17">
    <!-- 6 -->
    <g transform="translate(526.566048 523.628) scale(0.1728 -0.1728)">
     <use xlink:href="#DejaVuSans-36"/>
    </g>
   </g>
   <g id="text_18">
    <!-- 4 -->
    <g transform="translate(526.566048 583.156) scale(0.1728 -0.1728)">
     <use xlink:href="#DejaVuSans-34"/>
    </g>
   </g>
   <g id="legend_1">
    <g id="patch_7">
     <path d="M 146.251 132.9192 
L 244.1017 132.9192 
Q 247.5577 132.9192 247.5577 129.4632 
L 247.5577 29.736 
Q 247.5577 26.28 244.1017 26.28 
L 146.251 26.28 
Q 142.795 26.28 142.795 29.736 
L 142.795 129.4632 
Q 142.795 132.9192 146.251 132.9192 
z
" style="fill: #ffffff; opacity: 0.8; stroke: #cccccc; stroke-linejoin: miter"/>
    </g>
    <g id="line2d_15">
     <path d="M 149.707 40.2741 
L 166.987 40.2741 
L 184.267 40.2741 
" style="fill: none; stroke: #000000; stroke-opacity: 0.6; stroke-width: 7; stroke-linecap: square"/>
    </g>
    <g id="text_19">
     <!-- truth -->
     <g transform="translate(198.091 46.3221) scale(0.1728 -0.1728)">
      <defs>
       <path id="DejaVuSans-72" d="M 2631 2963 
Q 2534 3019 2420 3045 
Q 2306 3072 2169 3072 
Q 1681 3072 1420 2755 
Q 1159 2438 1159 1844 
L 1159 0 
L 581 0 
L 581 3500 
L 1159 3500 
L 1159 2956 
Q 1341 3275 1631 3429 
Q 1922 3584 2338 3584 
Q 2397 3584 2469 3576 
Q 2541 3569 2628 3553 
L 2631 2963 
z
" transform="scale(0.015625)"/>
       <path id="DejaVuSans-75" d="M 544 1381 
L 544 3500 
L 1119 3500 
L 1119 1403 
Q 1119 906 1312 657 
Q 1506 409 1894 409 
Q 2359 409 2629 706 
Q 2900 1003 2900 1516 
L 2900 3500 
L 3475 3500 
L 3475 0 
L 2900 0 
L 2900 538 
Q 2691 219 2414 64 
Q 2138 -91 1772 -91 
Q 1169 -91 856 284 
Q 544 659 544 1381 
z
M 1991 3584 
L 1991 3584 
z
" transform="scale(0.015625)"/>
      </defs>
      <use xlink:href="#DejaVuSans-74"/>
      <use xlink:href="#DejaVuSans-72" x="39.208984"/>
      <use xlink:href="#DejaVuSans-75" x="80.322266"/>
      <use xlink:href="#DejaVuSans-74" x="143.701172"/>
      <use xlink:href="#DejaVuSans-68" x="182.910156"/>
     </g>
    </g>
    <g id="line2d_16">
     <path d="M 149.707 65.6379 
L 166.987 65.6379 
L 184.267 65.6379 
" style="fill: none; stroke-dasharray: 25.9,11.2; stroke-dashoffset: 0; stroke: #0000ff; stroke-opacity: 0.6; stroke-width: 7"/>
    </g>
    <g id="text_20">
     <!-- 4 -->
     <g transform="translate(198.091 71.6859) scale(0.1728 -0.1728)">
      <use xlink:href="#DejaVuSans-34"/>
     </g>
    </g>
    <g id="line2d_17">
     <path d="M 149.707 91.0017 
L 166.987 91.0017 
L 184.267 91.0017 
" style="fill: none; stroke-dasharray: 7,11.55; stroke-dashoffset: 0; stroke: #008000; stroke-opacity: 0.6; stroke-width: 7"/>
    </g>
    <g id="text_21">
     <!-- 6 -->
     <g transform="translate(198.091 97.0497) scale(0.1728 -0.1728)">
      <use xlink:href="#DejaVuSans-36"/>
     </g>
    </g>
    <g id="line2d_18">
     <path d="M 149.707 116.3655 
L 166.987 116.3655 
L 184.267 116.3655 
" style="fill: none; stroke-dasharray: 44.8,11.2,7,11.2; stroke-dashoffset: 0; stroke: #ff0000; stroke-opacity: 0.6; stroke-width: 7"/>
    </g>
    <g id="text_22">
     <!-- 7 -->
     <g transform="translate(198.091 122.4135) scale(0.1728 -0.1728)">
      <use xlink:href="#DejaVuSans-37"/>
     </g>
    </g>
   </g>
  </g>
  <g id="line2d_19">
   <path d="M 512.296556 470.0528 
L 526.566048 511.7224 
" style="fill: none; stroke: #000000; stroke-opacity: 0.5; stroke-width: 2; stroke-linecap: square"/>
  </g>
  <g id="line2d_20">
   <path d="M 562.23978 464.1 
L 540.835541 511.7224 
" style="fill: none; stroke: #000000; stroke-opacity: 0.5; stroke-width: 2; stroke-linecap: square"/>
  </g>
  <g id="line2d_21">
   <path d="M 533.700795 529.5808 
L 533.700795 559.3448 
" style="fill: none; stroke: #000000; stroke-opacity: 0.5; stroke-width: 2; stroke-linecap: square"/>
  </g>
 </g>
 <defs>
  <clipPath id="pd54b58597e">
   <rect x="134.155" y="17.64" width="713.474633" height="595.28"/>
  </clipPath>
 </defs>
</svg>
