<?xml version="1.0" encoding="utf-8" standalone="no"?>
<!DOCTYPE svg PUBLIC "-//W3C//DTD SVG 1.1//EN"
  "http://www.w3.org/Graphics/SVG/1.1/DTD/svg11.dtd">
<svg xmlns:xlink="http://www.w3.org/1999/xlink" width="864pt" height="648pt" viewBox="0 0 864 648" xmlns="http://www.w3.org/2000/svg" version="1.1">
 <metadata>
  <rdf:RDF xmlns:dc="http://purl.org/dc/elements/1.1/" xmlns:cc="http://creativecommons.org/ns#" xmlns:rdf="http://www.w3.org/1999/02/22-rdf-syntax-ns#">
   <cc:Work>
    <dc:type rdf:resource="http://purl.org/dc/dcmitype/StillImage"/>
    <dc:date>2024-11-06T11:51:39.597609</dc:date>
    <dc:format>image/svg+xml</dc:format>
    <dc:creator>
     <cc:Agent>
      <dc:title>Matplotlib v3.9.2, https://matplotlib.org/</dc:title>
     </cc:Agent>
    </dc:creator>
   </cc:Work>
  </rdf:RDF>
 </metadata>
 <defs>
  <style type="text/css">*{stroke-linejoin: round; stroke-linecap: butt}</style>
 </defs>
 <g id="figure_1">
  <g id="patch_1">
   <path d="M 0 648 
L 864 648 
L 864 0 
L 0 0 
z
" style="fill: #ffffff"/>
  </g>
  <g id="axes_1">
   <g id="patch_2">
    <path d="M 117.505 612.92 
L 853.2 612.92 
L 853.2 10.8 
L 117.505 10.8 
z
" style="fill: #ffffff"/>
   </g>
   <g id="matplotlib.axis_1">
    <g id="xtick_1">
     <g id="line2d_1">
      <defs>
       <path id="m5a2c4b7357" d="M 0 0 
L 0 3.5 
" style="stroke: #000000; stroke-width: 0.8"/>
      </defs>
      <g>
       <use xlink:href="#m5a2c4b7357" x="222.569542" y="612.92" style="stroke: #000000; stroke-width: 0.8"/>
      </g>
     </g>
     <g id="text_1">
      <!-- 2020-06-22 -->
      <g transform="translate(172.357642 633.0501) scale(0.1728 -0.1728)">
       <defs>
        <path id="DejaVuSans-32" d="M 1228 531 
L 3431 531 
L 3431 0 
L 469 0 
L 469 531 
Q 828 903 1448 1529 
Q 2069 2156 2228 2338 
Q 2531 2678 2651 2914 
Q 2772 3150 2772 3378 
Q 2772 3750 2511 3984 
Q 2250 4219 1831 4219 
Q 1534 4219 1204 4116 
Q 875 4013 500 3803 
L 500 4441 
Q 881 4594 1212 4672 
Q 1544 4750 1819 4750 
Q 2544 4750 2975 4387 
Q 3406 4025 3406 3419 
Q 3406 3131 3298 2873 
Q 3191 2616 2906 2266 
Q 2828 2175 2409 1742 
Q 1991 1309 1228 531 
z
" transform="scale(0.015625)"/>
        <path id="DejaVuSans-30" d="M 2034 4250 
Q 1547 4250 1301 3770 
Q 1056 3291 1056 2328 
Q 1056 1369 1301 889 
Q 1547 409 2034 409 
Q 2525 409 2770 889 
Q 3016 1369 3016 2328 
Q 3016 3291 2770 3770 
Q 2525 4250 2034 4250 
z
M 2034 4750 
Q 2819 4750 3233 4129 
Q 3647 3509 3647 2328 
Q 3647 1150 3233 529 
Q 2819 -91 2034 -91 
Q 1250 -91 836 529 
Q 422 1150 422 2328 
Q 422 3509 836 4129 
Q 1250 4750 2034 4750 
z
" transform="scale(0.015625)"/>
        <path id="DejaVuSans-2d" d="M 313 2009 
L 1997 2009 
L 1997 1497 
L 313 1497 
L 313 2009 
z
" transform="scale(0.015625)"/>
        <path id="DejaVuSans-36" d="M 2113 2584 
Q 1688 2584 1439 2293 
Q 1191 2003 1191 1497 
Q 1191 994 1439 701 
Q 1688 409 2113 409 
Q 2538 409 2786 701 
Q 3034 994 3034 1497 
Q 3034 2003 2786 2293 
Q 2538 2584 2113 2584 
z
M 3366 4563 
L 3366 3988 
Q 3128 4100 2886 4159 
Q 2644 4219 2406 4219 
Q 1781 4219 1451 3797 
Q 1122 3375 1075 2522 
Q 1259 2794 1537 2939 
Q 1816 3084 2150 3084 
Q 2853 3084 3261 2657 
Q 3669 2231 3669 1497 
Q 3669 778 3244 343 
Q 2819 -91 2113 -91 
Q 1303 -91 875 529 
Q 447 1150 447 2328 
Q 447 3434 972 4092 
Q 1497 4750 2381 4750 
Q 2619 4750 2861 4703 
Q 3103 4656 3366 4563 
z
" transform="scale(0.015625)"/>
       </defs>
       <use xlink:href="#DejaVuSans-32"/>
       <use xlink:href="#DejaVuSans-30" x="63.623047"/>
       <use xlink:href="#DejaVuSans-32" x="127.246094"/>
       <use xlink:href="#DejaVuSans-30" x="190.869141"/>
       <use xlink:href="#DejaVuSans-2d" x="254.492188"/>
       <use xlink:href="#DejaVuSans-30" x="290.576172"/>
       <use xlink:href="#DejaVuSans-36" x="354.199219"/>
       <use xlink:href="#DejaVuSans-2d" x="417.822266"/>
       <use xlink:href="#DejaVuSans-32" x="453.90625"/>
       <use xlink:href="#DejaVuSans-32" x="517.529297"/>
      </g>
     </g>
    </g>
    <g id="xtick_2">
     <g id="line2d_2">
      <g>
       <use xlink:href="#m5a2c4b7357" x="397.677112" y="612.92" style="stroke: #000000; stroke-width: 0.8"/>
      </g>
     </g>
     <g id="text_2">
      <!-- 2020-06-27 -->
      <g transform="translate(347.465212 633.0501) scale(0.1728 -0.1728)">
       <defs>
        <path id="DejaVuSans-37" d="M 525 4666 
L 3525 4666 
L 3525 4397 
L 1831 0 
L 1172 0 
L 2766 4134 
L 525 4134 
L 525 4666 
z
" transform="scale(0.015625)"/>
       </defs>
       <use xlink:href="#DejaVuSans-32"/>
       <use xlink:href="#DejaVuSans-30" x="63.623047"/>
       <use xlink:href="#DejaVuSans-32" x="127.246094"/>
       <use xlink:href="#DejaVuSans-30" x="190.869141"/>
       <use xlink:href="#DejaVuSans-2d" x="254.492188"/>
       <use xlink:href="#DejaVuSans-30" x="290.576172"/>
       <use xlink:href="#DejaVuSans-36" x="354.199219"/>
       <use xlink:href="#DejaVuSans-2d" x="417.822266"/>
       <use xlink:href="#DejaVuSans-32" x="453.90625"/>
       <use xlink:href="#DejaVuSans-37" x="517.529297"/>
      </g>
     </g>
    </g>
    <g id="xtick_3">
     <g id="line2d_3">
      <g>
       <use xlink:href="#m5a2c4b7357" x="572.784683" y="612.92" style="stroke: #000000; stroke-width: 0.8"/>
      </g>
     </g>
     <g id="text_3">
      <!-- 2020-07-02 -->
      <g transform="translate(522.572783 633.0501) scale(0.1728 -0.1728)">
       <use xlink:href="#DejaVuSans-32"/>
       <use xlink:href="#DejaVuSans-30" x="63.623047"/>
       <use xlink:href="#DejaVuSans-32" x="127.246094"/>
       <use xlink:href="#DejaVuSans-30" x="190.869141"/>
       <use xlink:href="#DejaVuSans-2d" x="254.492188"/>
       <use xlink:href="#DejaVuSans-30" x="290.576172"/>
       <use xlink:href="#DejaVuSans-37" x="354.199219"/>
       <use xlink:href="#DejaVuSans-2d" x="417.822266"/>
       <use xlink:href="#DejaVuSans-30" x="453.90625"/>
       <use xlink:href="#DejaVuSans-32" x="517.529297"/>
      </g>
     </g>
    </g>
    <g id="xtick_4">
     <g id="line2d_4">
      <g>
       <use xlink:href="#m5a2c4b7357" x="747.892253" y="612.92" style="stroke: #000000; stroke-width: 0.8"/>
      </g>
     </g>
     <g id="text_4">
      <!-- 2020-07-07 -->
      <g transform="translate(697.680353 633.0501) scale(0.1728 -0.1728)">
       <use xlink:href="#DejaVuSans-32"/>
       <use xlink:href="#DejaVuSans-30" x="63.623047"/>
       <use xlink:href="#DejaVuSans-32" x="127.246094"/>
       <use xlink:href="#DejaVuSans-30" x="190.869141"/>
       <use xlink:href="#DejaVuSans-2d" x="254.492188"/>
       <use xlink:href="#DejaVuSans-30" x="290.576172"/>
       <use xlink:href="#DejaVuSans-37" x="354.199219"/>
       <use xlink:href="#DejaVuSans-2d" x="417.822266"/>
       <use xlink:href="#DejaVuSans-30" x="453.90625"/>
       <use xlink:href="#DejaVuSans-37" x="517.529297"/>
      </g>
     </g>
    </g>
   </g>
   <g id="matplotlib.axis_2">
    <g id="ytick_1">
     <g id="line2d_5">
      <defs>
       <path id="mc521a6b714" d="M 0 0 
L -3.5 0 
" style="stroke: #000000; stroke-width: 0.8"/>
      </defs>
      <g>
       <use xlink:href="#mc521a6b714" x="117.505" y="612.92" style="stroke: #000000; stroke-width: 0.8"/>
      </g>
     </g>
     <g id="text_5">
      <!-- −1 -->
      <g transform="translate(85.0305 619.48505) scale(0.1728 -0.1728)">
       <defs>
        <path id="DejaVuSans-2212" d="M 678 2272 
L 4684 2272 
L 4684 1741 
L 678 1741 
L 678 2272 
z
" transform="scale(0.015625)"/>
        <path id="DejaVuSans-31" d="M 794 531 
L 1825 531 
L 1825 4091 
L 703 3866 
L 703 4441 
L 1819 4666 
L 2450 4666 
L 2450 531 
L 3481 531 
L 3481 0 
L 794 0 
L 794 531 
z
" transform="scale(0.015625)"/>
       </defs>
       <use xlink:href="#DejaVuSans-2212"/>
       <use xlink:href="#DejaVuSans-31" x="83.789062"/>
      </g>
     </g>
    </g>
    <g id="ytick_2">
     <g id="line2d_6">
      <g>
       <use xlink:href="#mc521a6b714" x="117.505" y="486.157895" style="stroke: #000000; stroke-width: 0.8"/>
      </g>
     </g>
     <g id="text_6">
      <!-- 0 -->
      <g transform="translate(99.5106 492.722945) scale(0.1728 -0.1728)">
       <use xlink:href="#DejaVuSans-30"/>
      </g>
     </g>
    </g>
    <g id="ytick_3">
     <g id="line2d_7">
      <g>
       <use xlink:href="#mc521a6b714" x="117.505" y="359.395789" style="stroke: #000000; stroke-width: 0.8"/>
      </g>
     </g>
     <g id="text_7">
      <!-- 1 -->
      <g transform="translate(99.5106 365.960839) scale(0.1728 -0.1728)">
       <use xlink:href="#DejaVuSans-31"/>
      </g>
     </g>
    </g>
    <g id="ytick_4">
     <g id="line2d_8">
      <g>
       <use xlink:href="#mc521a6b714" x="117.505" y="232.633684" style="stroke: #000000; stroke-width: 0.8"/>
      </g>
     </g>
     <g id="text_8">
      <!-- 2 -->
      <g transform="translate(99.5106 239.198734) scale(0.1728 -0.1728)">
       <use xlink:href="#DejaVuSans-32"/>
      </g>
     </g>
    </g>
    <g id="ytick_5">
     <g id="line2d_9">
      <g>
       <use xlink:href="#mc521a6b714" x="117.505" y="105.871579" style="stroke: #000000; stroke-width: 0.8"/>
      </g>
     </g>
     <g id="text_9">
      <!-- 3 -->
      <g transform="translate(99.5106 112.436629) scale(0.1728 -0.1728)">
       <defs>
        <path id="DejaVuSans-33" d="M 2597 2516 
Q 3050 2419 3304 2112 
Q 3559 1806 3559 1356 
Q 3559 666 3084 287 
Q 2609 -91 1734 -91 
Q 1441 -91 1130 -33 
Q 819 25 488 141 
L 488 750 
Q 750 597 1062 519 
Q 1375 441 1716 441 
Q 2309 441 2620 675 
Q 2931 909 2931 1356 
Q 2931 1769 2642 2001 
Q 2353 2234 1838 2234 
L 1294 2234 
L 1294 2753 
L 1863 2753 
Q 2328 2753 2575 2939 
Q 2822 3125 2822 3475 
Q 2822 3834 2567 4026 
Q 2313 4219 1838 4219 
Q 1578 4219 1281 4162 
Q 984 4106 628 3988 
L 628 4550 
Q 988 4650 1302 4700 
Q 1616 4750 1894 4750 
Q 2613 4750 3031 4423 
Q 3450 4097 3450 3541 
Q 3450 3153 3228 2886 
Q 3006 2619 2597 2516 
z
" transform="scale(0.015625)"/>
       </defs>
       <use xlink:href="#DejaVuSans-33"/>
      </g>
     </g>
    </g>
    <g id="text_10">
     <!-- Node 8 -->
     <g transform="translate(24.23565 288.91648) scale(0.1728 -0.1728)">
      <defs>
       <path id="DejaVuSans-4e" d="M 628 4666 
L 1478 4666 
L 3547 763 
L 3547 4666 
L 4159 4666 
L 4159 0 
L 3309 0 
L 1241 3903 
L 1241 0 
L 628 0 
L 628 4666 
z
" transform="scale(0.015625)"/>
       <path id="DejaVuSans-6f" d="M 1959 3097 
Q 1497 3097 1228 2736 
Q 959 2375 959 1747 
Q 959 1119 1226 758 
Q 1494 397 1959 397 
Q 2419 397 2687 759 
Q 2956 1122 2956 1747 
Q 2956 2369 2687 2733 
Q 2419 3097 1959 3097 
z
M 1959 3584 
Q 2709 3584 3137 3096 
Q 3566 2609 3566 1747 
Q 3566 888 3137 398 
Q 2709 -91 1959 -91 
Q 1206 -91 779 398 
Q 353 888 353 1747 
Q 353 2609 779 3096 
Q 1206 3584 1959 3584 
z
" transform="scale(0.015625)"/>
       <path id="DejaVuSans-64" d="M 2906 2969 
L 2906 4863 
L 3481 4863 
L 3481 0 
L 2906 0 
L 2906 525 
Q 2725 213 2448 61 
Q 2172 -91 1784 -91 
Q 1150 -91 751 415 
Q 353 922 353 1747 
Q 353 2572 751 3078 
Q 1150 3584 1784 3584 
Q 2172 3584 2448 3432 
Q 2725 3281 2906 2969 
z
M 947 1747 
Q 947 1113 1208 752 
Q 1469 391 1925 391 
Q 2381 391 2643 752 
Q 2906 1113 2906 1747 
Q 2906 2381 2643 2742 
Q 2381 3103 1925 3103 
Q 1469 3103 1208 2742 
Q 947 2381 947 1747 
z
" transform="scale(0.015625)"/>
       <path id="DejaVuSans-65" d="M 3597 1894 
L 3597 1613 
L 953 1613 
Q 991 1019 1311 708 
Q 1631 397 2203 397 
Q 2534 397 2845 478 
Q 3156 559 3463 722 
L 3463 178 
Q 3153 47 2828 -22 
Q 2503 -91 2169 -91 
Q 1331 -91 842 396 
Q 353 884 353 1716 
Q 353 2575 817 3079 
Q 1281 3584 2069 3584 
Q 2775 3584 3186 3129 
Q 3597 2675 3597 1894 
z
M 3022 2063 
Q 3016 2534 2758 2815 
Q 2500 3097 2075 3097 
Q 1594 3097 1305 2825 
Q 1016 2553 972 2059 
L 3022 2063 
z
" transform="scale(0.015625)"/>
       <path id="DejaVuSans-20" transform="scale(0.015625)"/>
       <path id="DejaVuSans-38" d="M 2034 2216 
Q 1584 2216 1326 1975 
Q 1069 1734 1069 1313 
Q 1069 891 1326 650 
Q 1584 409 2034 409 
Q 2484 409 2743 651 
Q 3003 894 3003 1313 
Q 3003 1734 2745 1975 
Q 2488 2216 2034 2216 
z
M 1403 2484 
Q 997 2584 770 2862 
Q 544 3141 544 3541 
Q 544 4100 942 4425 
Q 1341 4750 2034 4750 
Q 2731 4750 3128 4425 
Q 3525 4100 3525 3541 
Q 3525 3141 3298 2862 
Q 3072 2584 2669 2484 
Q 3125 2378 3379 2068 
Q 3634 1759 3634 1313 
Q 3634 634 3220 271 
Q 2806 -91 2034 -91 
Q 1263 -91 848 271 
Q 434 634 434 1313 
Q 434 1759 690 2068 
Q 947 2378 1403 2484 
z
M 1172 3481 
Q 1172 3119 1398 2916 
Q 1625 2713 2034 2713 
Q 2441 2713 2670 2916 
Q 2900 3119 2900 3481 
Q 2900 3844 2670 4047 
Q 2441 4250 2034 4250 
Q 1625 4250 1398 4047 
Q 1172 3844 1172 3481 
z
" transform="scale(0.015625)"/>
      </defs>
      <use xlink:href="#DejaVuSans-4e"/>
      <use xlink:href="#DejaVuSans-6f" x="74.804688"/>
      <use xlink:href="#DejaVuSans-64" x="135.986328"/>
      <use xlink:href="#DejaVuSans-65" x="199.462891"/>
      <use xlink:href="#DejaVuSans-20" x="260.986328"/>
      <use xlink:href="#DejaVuSans-38" x="292.773438"/>
     </g>
     <!-- Depth (m) -->
     <g transform="translate(10.8099 308.2663) scale(0.1728 -0.1728)">
      <defs>
       <path id="DejaVuSans-44" d="M 1259 4147 
L 1259 519 
L 2022 519 
Q 2988 519 3436 956 
Q 3884 1394 3884 2338 
Q 3884 3275 3436 3711 
Q 2988 4147 2022 4147 
L 1259 4147 
z
M 628 4666 
L 1925 4666 
Q 3281 4666 3915 4102 
Q 4550 3538 4550 2338 
Q 4550 1131 3912 565 
Q 3275 0 1925 0 
L 628 0 
L 628 4666 
z
" transform="scale(0.015625)"/>
       <path id="DejaVuSans-70" d="M 1159 525 
L 1159 -1331 
L 581 -1331 
L 581 3500 
L 1159 3500 
L 1159 2969 
Q 1341 3281 1617 3432 
Q 1894 3584 2278 3584 
Q 2916 3584 3314 3078 
Q 3713 2572 3713 1747 
Q 3713 922 3314 415 
Q 2916 -91 2278 -91 
Q 1894 -91 1617 61 
Q 1341 213 1159 525 
z
M 3116 1747 
Q 3116 2381 2855 2742 
Q 2594 3103 2138 3103 
Q 1681 3103 1420 2742 
Q 1159 2381 1159 1747 
Q 1159 1113 1420 752 
Q 1681 391 2138 391 
Q 2594 391 2855 752 
Q 3116 1113 3116 1747 
z
" transform="scale(0.015625)"/>
       <path id="DejaVuSans-74" d="M 1172 4494 
L 1172 3500 
L 2356 3500 
L 2356 3053 
L 1172 3053 
L 1172 1153 
Q 1172 725 1289 603 
Q 1406 481 1766 481 
L 2356 481 
L 2356 0 
L 1766 0 
Q 1100 0 847 248 
Q 594 497 594 1153 
L 594 3053 
L 172 3053 
L 172 3500 
L 594 3500 
L 594 4494 
L 1172 4494 
z
" transform="scale(0.015625)"/>
       <path id="DejaVuSans-68" d="M 3513 2113 
L 3513 0 
L 2938 0 
L 2938 2094 
Q 2938 2591 2744 2837 
Q 2550 3084 2163 3084 
Q 1697 3084 1428 2787 
Q 1159 2491 1159 1978 
L 1159 0 
L 581 0 
L 581 4863 
L 1159 4863 
L 1159 2956 
Q 1366 3272 1645 3428 
Q 1925 3584 2291 3584 
Q 2894 3584 3203 3211 
Q 3513 2838 3513 2113 
z
" transform="scale(0.015625)"/>
       <path id="DejaVuSans-28" d="M 1984 4856 
Q 1566 4138 1362 3434 
Q 1159 2731 1159 2009 
Q 1159 1288 1364 580 
Q 1569 -128 1984 -844 
L 1484 -844 
Q 1016 -109 783 600 
Q 550 1309 550 2009 
Q 550 2706 781 3412 
Q 1013 4119 1484 4856 
L 1984 4856 
z
" transform="scale(0.015625)"/>
       <path id="DejaVuSans-6d" d="M 3328 2828 
Q 3544 3216 3844 3400 
Q 4144 3584 4550 3584 
Q 5097 3584 5394 3201 
Q 5691 2819 5691 2113 
L 5691 0 
L 5113 0 
L 5113 2094 
Q 5113 2597 4934 2840 
Q 4756 3084 4391 3084 
Q 3944 3084 3684 2787 
Q 3425 2491 3425 1978 
L 3425 0 
L 2847 0 
L 2847 2094 
Q 2847 2600 2669 2842 
Q 2491 3084 2119 3084 
Q 1678 3084 1418 2786 
Q 1159 2488 1159 1978 
L 1159 0 
L 581 0 
L 581 3500 
L 1159 3500 
L 1159 2956 
Q 1356 3278 1631 3431 
Q 1906 3584 2284 3584 
Q 2666 3584 2933 3390 
Q 3200 3197 3328 2828 
z
" transform="scale(0.015625)"/>
       <path id="DejaVuSans-29" d="M 513 4856 
L 1013 4856 
Q 1481 4119 1714 3412 
Q 1947 2706 1947 2009 
Q 1947 1309 1714 600 
Q 1481 -109 1013 -844 
L 513 -844 
Q 928 -128 1133 580 
Q 1338 1288 1338 2009 
Q 1338 2731 1133 3434 
Q 928 4138 513 4856 
z
" transform="scale(0.015625)"/>
      </defs>
      <use xlink:href="#DejaVuSans-44"/>
      <use xlink:href="#DejaVuSans-65" x="77.001953"/>
      <use xlink:href="#DejaVuSans-70" x="138.525391"/>
      <use xlink:href="#DejaVuSans-74" x="202.001953"/>
      <use xlink:href="#DejaVuSans-68" x="241.210938"/>
      <use xlink:href="#DejaVuSans-20" x="304.589844"/>
      <use xlink:href="#DejaVuSans-28" x="336.376953"/>
      <use xlink:href="#DejaVuSans-6d" x="375.390625"/>
      <use xlink:href="#DejaVuSans-29" x="472.802734"/>
     </g>
    </g>
   </g>
   <g id="line2d_10">
    <path d="M 117.383398 434.511758 
L 122.004292 434.624431 
M 122.247497 434.627439 
L 127.841211 434.758853 
M 128.084416 434.761789 
L 129.908453 434.805329 
M 130.151658 434.808238 
L 136.839794 434.957072 
M 137.082999 434.95989 
L 141.460688 435.054842 
M 141.703893 435.057573 
L 143.284726 435.092715 
M 143.527931 435.095436 
L 145.95998 435.147532 
M 146.203185 435.150219 
L 148.39203 435.196635 
M 148.635235 435.199326 
L 151.188887 435.252233 
M 151.675297 435.259437 
L 163.957147 435.495106 
M 164.200352 435.497393 
L 171.253296 435.62615 
M 171.496501 435.628379 
L 184.143159 435.844637 
M 184.386364 435.846759 
L 190.831295 435.951687 
M 191.0745 435.953759 
L 199.586674 436.085613 
M 199.829879 436.087619 
L 205.910002 436.178086 
M 206.153207 436.179858 
L 219.286275 436.362616 
M 219.52948 436.364314 
L 223.542362 436.361179 
L 223.663964 435.981149 
L 224.028772 433.691215 
L 224.271977 432.865277 
L 224.879989 429.042211 
L 225.001592 428.615206 
L 225.123194 427.017266 
M 225.366399 426.122496 
L 225.609604 425.261369 
L 225.974412 424.842333 
L 226.460821 424.790693 
L 227.190436 425.033626 
L 228.406461 425.667747 
L 229.014474 426.080374 
M 229.257679 426.156114 
L 232.29774 427.928067 
M 232.540945 427.996926 
L 234.72979 429.161459 
M 234.972995 429.225113 
L 236.918635 430.155395 
M 237.16184 430.211799 
L 241.174721 431.785371 
M 241.417926 431.831196 
L 245.187603 432.963355 
L 249.078883 433.889555 
L 250.41651 434.178025 
M 250.659715 434.201384 
L 254.915802 434.901879 
L 256.010224 435.066805 
M 256.253429 435.083317 
L 259.901503 435.472141 
M 260.144708 435.095038 
L 260.509516 432.865522 
L 260.874323 432.063737 
L 261.482336 431.567517 
L 261.72554 430.196723 
L 262.090348 428.563019 
L 262.455155 428.086875 
L 262.819963 427.965242 
L 263.306373 427.911361 
L 263.549578 426.833733 
L 263.792783 425.631249 
L 264.035988 425.015637 
L 264.279193 423.586091 
L 264.522398 422.36246 
L 264.765602 421.916652 
L 265.13041 421.742373 
L 265.61682 421.844479 
L 265.860025 421.872373 
L 266.10323 420.993853 
L 266.468037 418.297087 
L 266.711242 413.748302 
L 267.56246 390.806828 
L 267.805664 387.966844 
L 268.535279 386.062356 
L 268.778484 386.053698 
L 269.143292 386.338893 
L 269.994509 387.409205 
L 270.116112 387.743878 
M 270.359317 387.923476 
L 275.345018 395.225825 
L 280.81713 402.894106 
M 281.060335 403.05432 
L 282.27636 404.771497 
M 282.519564 404.927327 
L 285.559626 408.658044 
L 287.140459 410.491658 
L 287.262061 410.756814 
M 287.505266 410.894675 
L 288.113279 411.709534 
M 288.356483 411.85673 
L 288.964496 412.641442 
M 289.207701 412.783157 
L 289.450906 413.164879 
M 289.694111 413.304321 
L 294.801415 418.350196 
L 295.652632 419.221648 
M 295.895837 419.338277 
L 299.422309 422.24686 
L 301.246346 423.616779 
L 302.583974 424.627833 
M 303.070383 424.876013 
L 304.894421 426.116945 
M 305.137626 426.193402 
L 307.569675 427.594641 
L 308.420893 428.105149 
M 308.664098 428.168924 
L 309.393712 428.595884 
M 309.636917 428.656645 
L 311.096147 429.39798 
M 311.339352 429.453783 
L 313.041787 430.230023 
M 313.284992 430.279817 
L 316.325054 431.407813 
L 320.337936 432.646434 
M 320.58114 432.678575 
L 321.432358 432.926064 
M 321.675563 432.956173 
L 322.648383 433.215224 
M 322.891588 433.243344 
L 323.01319 433.270979 
L 323.134793 432.740686 
L 323.377998 425.391621 
L 323.98601 377.020419 
L 324.229215 375.17313 
L 324.47242 374.803711 
L 324.715625 374.867473 
L 325.202035 375.371363 
L 326.661264 377.547378 
L 326.782867 377.925947 
M 327.026072 378.123594 
L 327.512482 379.088401 
M 327.755687 379.288661 
L 330.309339 383.535396 
M 330.552544 383.733077 
L 333.349401 388.238346 
M 333.592606 388.431749 
L 337.24068 393.830688 
L 337.362283 394.166841 
M 337.605488 394.34964 
L 338.456705 395.563775 
L 338.578307 395.894247 
M 338.821512 396.073932 
L 340.64555 398.59818 
L 340.767152 398.917747 
M 341.010357 399.090981 
L 344.172021 403.389078 
M 344.415226 403.553296 
L 347.090481 406.985832 
M 347.333686 407.140929 
L 347.576891 407.563606 
M 347.820096 407.716028 
L 348.671313 408.839103 
M 348.914518 408.988818 
L 353.292207 413.742081 
L 356.089064 416.596014 
M 356.332269 416.719259 
L 357.426692 417.825072 
M 357.669897 417.943282 
L 361.196369 420.911201 
L 361.561176 421.291653 
M 361.804381 421.39432 
L 365.20925 423.859074 
L 368.006107 425.710641 
M 368.249312 425.783578 
L 371.410977 427.528015 
L 372.018989 427.891081 
M 372.262194 427.950997 
L 375.302256 429.331618 
L 376.761486 429.963652 
M 377.004691 430.011114 
L 380.287958 431.156298 
L 382.720007 431.908874 
M 382.963212 431.942424 
L 383.936032 432.229408 
M 384.179237 432.260646 
L 384.30084 432.291944 
L 384.422442 430.857601 
L 384.908852 410.020821 
L 385.152057 407.547129 
L 385.395262 406.764415 
L 385.638467 406.583856 
L 386.003274 406.664907 
L 386.611287 407.133032 
L 387.584107 408.110511 
L 391.718591 412.531583 
L 391.840193 412.409212 
L 391.961796 412.013309 
L 392.083398 410.31392 
L 392.569808 395.053075 
L 392.813013 394.16353 
L 393.056218 394.000437 
L 393.177821 393.350982 
L 393.907436 381.469723 
L 394.393845 378.470142 
L 394.515448 376.355368 
M 394.758653 374.825328 
L 394.880255 371.918869 
M 395.12346 370.727102 
L 395.488268 367.157824 
L 395.60987 364.144701 
M 395.853075 362.289668 
L 396.217883 357.682795 
L 396.461088 355.030455 
M 396.704293 354.21377 
L 397.190702 349.791354 
L 397.920317 341.280696 
L 398.406727 332.744508 
L 398.771535 323.279899 
M 399.01474 321.169045 
L 399.257945 315.233445 
M 399.50115 313.493839 
L 400.352367 302.316285 
M 400.595572 300.946125 
L 400.960379 297.402815 
L 401.325187 294.734158 
L 401.446789 292.847045 
M 401.689994 292.045499 
L 402.662814 286.54397 
L 403.392429 283.5215 
L 404.000441 281.615908 
L 404.243646 281.174375 
L 404.608454 280.686666 
L 404.973261 279.992827 
L 405.459671 279.68566 
L 406.067683 279.378779 
M 406.310888 279.273195 
L 406.918901 278.233233 
M 407.162106 278.167428 
L 408.742938 277.544412 
L 408.86454 277.631235 
M 409.107745 277.776485 
L 409.35095 277.978455 
L 409.715758 277.977747 
L 410.32377 277.822257 
L 411.053385 278.277626 
L 411.418193 278.317712 
L 411.539795 278.455359 
M 411.783 278.598699 
L 412.147807 278.688211 
L 412.512615 278.640271 
L 414.336652 280.115707 
L 414.70146 280.712305 
L 414.823062 281.126715 
M 415.066267 281.346419 
L 415.552677 282.143764 
L 415.917484 282.399815 
L 416.282292 282.78967 
L 416.647099 282.962445 
L 417.011907 283.351239 
M 417.255112 283.38668 
L 417.619919 283.818852 
L 417.984726 284.405882 
L 418.106329 284.823849 
M 418.349534 285.045984 
L 419.079149 286.623077 
M 419.322354 286.857267 
L 420.295174 288.623838 
L 420.781583 289.054587 
L 421.024788 289.420258 
L 421.146391 289.801625 
M 421.389596 289.91613 
L 421.754403 290.113823 
L 422.119211 290.625477 
L 422.240813 291.027798 
M 422.484018 291.244931 
L 422.605621 291.677687 
M 422.848826 291.906316 
L 423.213633 292.474028 
L 423.57844 292.705415 
L 423.821645 293.030707 
L 423.943248 293.417546 
M 424.186453 293.632567 
L 424.55126 294.498148 
M 424.794465 294.729365 
L 425.159273 295.63332 
M 425.402478 295.871129 
L 427.712925 300.51121 
M 427.95613 300.753509 
L 431.604204 307.721096 
L 432.820229 310.028698 
L 432.941831 310.471469 
M 433.185036 310.712476 
L 436.711508 317.339345 
L 436.833111 317.778248 
M 437.076316 318.015502 
L 439.021955 321.342516 
L 439.26516 321.452416 
L 439.873173 322.282207 
L 440.72439 323.941578 
M 440.967595 324.166799 
L 441.2108 324.603666 
L 441.332402 325.025462 
M 441.575607 325.253902 
L 441.818812 325.69508 
L 441.940415 326.11921 
M 442.18362 326.34898 
L 445.831694 332.923091 
L 446.074899 333.574877 
M 446.318104 333.804953 
L 448.020539 336.845578 
L 448.142141 337.265745 
M 448.385346 337.493956 
L 448.506949 337.913668 
M 448.750154 338.140048 
L 451.668613 343.281015 
L 451.790216 343.695602 
M 452.033421 343.919822 
L 453.614253 346.667254 
L 453.735855 347.077635 
M 453.97906 347.298672 
L 458.478352 354.698865 
L 458.964762 355.250522 
L 459.207967 355.741967 
M 459.451172 355.92605 
L 461.883221 359.461021 
L 462.004824 359.805318 
M 462.248029 359.992214 
L 462.977644 361.205703 
M 463.220849 361.391293 
L 466.017706 365.344765 
L 466.139308 365.679009 
M 466.382513 365.860512 
L 467.355333 367.367573 
M 467.598538 367.546287 
L 467.963345 368.204927 
M 468.20655 368.382259 
L 468.571358 369.03799 
M 468.814563 369.215322 
L 470.516998 371.669299 
M 470.760202 371.842308 
L 476.961929 379.829011 
L 478.542761 381.902833 
M 478.785966 382.059508 
L 481.704426 385.643202 
M 481.947631 385.794678 
L 486.81173 391.194889 
L 488.392562 392.97856 
M 488.635767 393.114827 
L 491.919034 396.518834 
M 492.162239 396.645826 
L 496.296723 400.48824 
L 498.242363 402.283687 
M 498.485568 402.387332 
L 501.768835 405.170383 
M 502.01204 405.266066 
L 503.836077 406.753725 
M 504.079282 406.844864 
L 507.727356 409.43937 
L 510.767418 411.488523 
M 511.010623 411.564601 
L 511.740238 412.084046 
M 511.983443 412.158065 
L 515.509915 414.173588 
L 516.117927 414.564138 
M 516.361132 414.629363 
L 516.847542 414.946588 
M 517.090747 415.01041 
L 519.036387 416.04331 
M 519.279592 416.102626 
L 522.927666 417.764566 
L 525.359716 418.810045 
M 525.602921 418.858629 
L 527.54856 419.639994 
M 527.791765 419.685242 
L 528.03497 419.816106 
M 528.278175 419.860649 
L 529.4942 420.327295 
M 529.737405 420.369713 
L 531.804647 421.085972 
M 532.047852 421.125062 
L 536.182336 422.33395 
L 540.560026 423.439581 
L 540.803231 423.522028 
M 541.046436 423.550739 
L 543.478485 424.111458 
M 543.72169 424.1377 
L 544.451305 424.312849 
M 544.69451 424.33837 
L 545.059317 424.435361 
M 545.302522 424.460421 
L 550.288224 425.373209 
L 558.800398 426.632718 
L 559.89482 426.786876 
M 560.138025 426.802835 
L 562.813279 427.138478 
M 563.056484 427.153234 
L 565.366931 427.424192 
M 565.610136 427.438007 
L 566.582956 427.523332 
M 566.826161 427.534426 
L 571.325453 428.027454 
M 571.568658 428.040557 
L 576.189552 428.493291 
M 576.432757 428.504929 
L 578.013589 428.653993 
M 578.256794 428.66515 
L 578.986409 428.736948 
M 579.229614 428.747875 
L 586.160955 429.296609 
M 586.40416 429.306058 
L 587.86339 429.417687 
M 588.106595 429.426852 
L 594.429924 429.850344 
M 594.673129 429.857901 
L 602.212483 430.305924 
M 602.455688 430.312712 
L 612.427091 430.83714 
M 612.670296 430.843237 
L 617.29119 431.070265 
M 617.534395 431.076072 
L 623.979326 431.374307 
M 624.222531 431.379838 
L 625.316954 431.433082 
M 625.560159 431.438619 
L 627.140991 431.512211 
M 627.384196 431.517624 
L 628.600221 431.574715 
M 628.843426 431.58014 
L 629.694643 431.621146 
M 629.937848 431.626464 
L 636.504382 431.901659 
M 636.747587 431.906786 
L 638.450021 431.979342 
M 638.693226 431.984453 
L 644.651748 432.220166 
M 644.894953 432.225064 
L 645.016555 432.234022 
M 645.25976 432.238961 
L 646.597388 432.36784 
M 646.840593 432.378636 
L 649.880655 432.454961 
L 657.420008 432.636066 
M 657.663213 432.639544 
L 660.338468 432.714131 
M 660.581673 432.717787 
L 666.783399 432.89628 
M 667.026604 432.899831 
L 671.525896 433.035088 
M 671.769101 433.038712 
L 673.106728 433.081766 
M 673.349933 433.085427 
L 680.524479 433.301121 
M 680.767684 433.304827 
L 682.348517 433.354786 
M 682.591721 433.358493 
L 688.185436 433.52489 
M 688.671845 433.535604 
L 689.88787 433.573903 
M 690.37428 433.58454 
L 691.711907 433.626085 
M 691.955112 433.629755 
L 692.80633 433.657219 
M 693.049535 433.660889 
L 693.414342 433.674447 
M 693.657547 433.678111 
L 695.603187 433.685224 
M 695.846392 433.685224 
L 697.792031 433.68522 
M 698.035236 433.685219 
L 698.643249 433.685216 
M 698.886454 433.685215 
L 700.467286 433.685212 
M 700.710491 433.685212 
L 701.561708 433.685207 
M 701.804913 433.685207 
L 707.398627 433.685191 
M 707.641832 433.685191 
L 709.465869 433.685188 
M 709.709074 433.685188 
L 709.830677 433.685187 
M 710.073882 433.685187 
L 712.870739 433.68518 
M 713.113944 433.68518 
L 722.963745 433.685156 
M 723.20695 433.685156 
L 726.368614 433.685148 
M 726.611819 433.685148 
L 726.855024 433.685147 
M 727.098229 433.685147 
L 727.706241 433.685146 
M 727.949446 433.685146 
L 731.354316 433.685138 
M 731.597521 433.685138 
L 733.178353 433.685135 
M 733.421558 433.685135 
L 736.218415 433.68513 
M 736.46162 433.685129 
L 736.826427 433.685129 
M 737.069632 433.685129 
L 740.109694 433.685122 
M 740.352899 433.685122 
L 740.960912 433.685121 
M 741.204117 433.68512 
L 743.392961 433.685115 
M 743.879371 433.685114 
L 747.77065 433.685108 
M 748.013855 433.685106 
L 756.282824 433.685093 
M 756.526029 433.685093 
L 758.593271 433.685087 
M 758.836476 433.685087 
L 759.809296 433.685086 
M 760.052501 433.685086 
L 760.660513 433.685085 
M 760.903718 433.685085 
L 774.158388 433.685066 
M 774.401593 433.685066 
L 785.224214 433.685049 
M 785.467419 433.685049 
L 786.197034 433.685048 
M 786.440239 433.685048 
L 793.979593 433.685038 
M 794.222798 433.685038 
L 797.992474 433.685033 
M 798.235679 433.685033 
L 800.059717 433.685031 
M 800.302921 433.685031 
L 802.126959 433.685029 
M 802.370164 433.685029 
L 803.464586 433.685028 
L 803.586188 431.379324 
L 804.315803 389.372193 
L 804.680611 376.600284 
M 804.923816 374.17223 
L 805.410226 367.089794 
L 806.13984 361.074021 
L 806.991058 355.472934 
L 807.59907 353.756214 
L 807.842275 353.69809 
L 807.963878 353.700575 
L 808.08548 353.429811 
M 808.328685 353.266133 
L 808.57189 353.269024 
L 808.693493 353.29491 
L 808.936698 353.029973 
L 809.179902 352.861943 
L 809.54471 353.099391 
L 809.666312 353.319508 
M 809.909517 353.303386 
L 810.274325 353.036753 
L 810.51753 353.118367 
L 810.760735 352.880467 
L 811.00394 352.705848 
L 811.247145 352.778214 
L 811.49035 352.527819 
L 811.733555 352.357056 
L 811.97676 352.430693 
L 812.219964 352.179882 
L 812.463169 352.013263 
L 812.706374 352.088012 
L 812.949579 351.832343 
L 813.557592 350.842783 
L 813.800797 350.94785 
L 814.165604 351.273607 
L 814.287207 351.140912 
M 814.530412 351.018051 
L 814.773617 351.063955 
L 815.381629 351.493975 
L 815.746436 351.251022 
L 816.111244 351.510514 
L 816.962461 352.610847 
L 818.300088 354.763034 
M 818.543293 354.931795 
L 818.664896 354.984851 
L 818.908101 354.823136 
M 819.151306 354.883767 
L 819.637716 355.363528 
L 819.759318 355.669742 
M 820.002523 355.840546 
L 820.85374 357.213626 
M 821.096945 357.400777 
L 823.7722 361.549038 
M 824.015405 361.740784 
L 826.933864 366.025129 
L 828.879504 368.846708 
L 830.825144 371.607005 
L 830.946746 371.933323 
M 831.189951 372.116693 
L 832.527579 373.973662 
L 832.649181 374.293818 
M 832.892386 374.47364 
L 835.324436 377.75797 
L 835.446038 378.067366 
M 835.689243 378.220111 
L 835.810845 378.235092 
L 836.175653 377.839884 
L 836.54046 377.957105 
L 837.270075 378.653553 
L 837.878088 379.507501 
M 838.121293 379.666964 
L 840.188535 382.240044 
L 840.310137 382.530733 
M 840.553342 382.694093 
L 849.551926 393.271713 
L 850.403143 394.313312 
M 850.646348 394.453971 
L 853.321602 397.254268 
L 853.321602 397.254268 
" clip-path="url(#pfff9ee0d9c)" style="fill: none; stroke: #000000; stroke-opacity: 0.6; stroke-width: 7; stroke-linecap: square"/>
   </g>
   <g id="line2d_11">
    <path d="M 117.383398 470.130445 
L 122.004292 470.250574 
M 122.247497 470.253643 
L 127.841211 470.39719 
M 128.084416 470.40023 
L 129.908453 470.448792 
M 130.151658 470.451822 
L 136.839794 470.62058 
M 137.082999 470.623577 
L 141.460688 470.73406 
M 141.703893 470.737035 
L 143.284726 470.778626 
M 143.527931 470.781593 
L 145.95998 470.843758 
M 146.203185 470.846712 
L 148.39203 470.902728 
M 148.635235 470.905671 
L 151.188887 470.970264 
M 151.675297 470.979051 
L 163.957147 471.274801 
M 164.200352 471.277672 
L 171.253296 471.446073 
M 171.496501 471.44891 
L 184.143159 471.74385 
M 184.386364 471.74663 
L 190.831295 471.895974 
M 191.0745 471.898725 
L 199.586674 472.092694 
M 199.829879 472.095407 
L 205.910002 472.233081 
M 206.153207 472.235767 
L 219.286275 472.525451 
M 219.52948 472.528081 
L 225.123194 472.6511 
M 225.366399 472.653705 
L 229.014474 472.734222 
M 229.257679 472.736811 
L 232.29774 472.803958 
M 232.540945 472.806533 
L 234.72979 472.85538 
M 234.972995 472.857946 
L 236.918635 472.901491 
M 237.16184 472.904048 
L 241.174721 472.990694 
M 241.417926 472.993234 
L 250.41651 473.182331 
M 250.659715 473.184834 
L 256.010224 473.296964 
M 256.253429 473.299445 
L 259.901503 473.376111 
M 260.144708 473.378577 
L 270.116112 473.581562 
M 270.359317 473.583988 
L 280.81713 473.793256 
M 281.060335 473.795641 
L 282.27636 473.821845 
M 282.519564 473.824225 
L 283.127577 473.836116 
L 283.249179 428.938346 
L 287.262061 429.312415 
M 287.505266 429.32338 
L 288.113279 429.389125 
M 288.356483 429.400075 
L 288.964496 429.465732 
M 289.207701 429.476667 
L 289.450906 429.509461 
M 289.694111 429.520387 
L 295.652632 430.064055 
M 295.895837 430.074874 
L 302.583974 430.677472 
M 303.070383 430.709571 
L 304.894421 430.88045 
M 305.137626 430.891113 
L 308.420893 431.188828 
M 308.664098 431.199431 
L 309.393712 431.273595 
M 309.636917 431.284182 
L 311.096147 431.421622 
M 311.339352 431.43218 
L 313.041787 431.590307 
M 313.284992 431.600833 
L 320.337936 432.21826 
M 320.58114 432.228664 
L 321.432358 432.311827 
M 321.675563 432.322214 
L 322.648383 432.415601 
M 322.891588 432.425967 
L 326.782867 432.766937 
M 327.026072 432.777236 
L 327.512482 432.828699 
M 327.755687 432.838986 
L 330.309339 433.064791 
M 330.552544 433.075032 
L 333.349401 433.320228 
M 333.592606 433.330419 
L 337.362283 433.655523 
M 337.605488 433.66565 
L 338.578307 433.756707 
M 338.821512 433.766815 
L 340.767152 433.938347 
M 341.010357 433.94842 
L 344.172021 434.219648 
M 344.415226 434.229666 
L 347.090481 434.459556 
M 347.333686 434.469528 
L 347.576891 434.499433 
M 347.820096 434.509397 
L 348.671313 434.589043 
M 348.914518 434.59899 
L 356.089064 435.192319 
M 356.332269 435.20215 
L 357.426692 435.300353 
M 357.669897 435.310163 
L 361.561176 435.632831 
M 361.804381 435.642577 
L 368.006107 436.146775 
M 368.249312 436.156422 
L 369.343735 436.33818 
L 372.018989 437.642407 
M 372.262194 437.698731 
L 376.761486 439.81634 
M 377.004691 439.871468 
L 382.720007 442.481281 
M 382.963212 442.534893 
L 383.936032 443.016008 
M 384.179237 443.06931 
L 394.515448 447.536484 
M 394.758653 447.587067 
L 394.880255 447.68814 
M 395.12346 447.738629 
L 395.60987 447.990646 
M 395.853075 448.04097 
L 396.461088 448.342316 
M 396.704293 448.392435 
L 398.771535 449.289315 
M 399.01474 449.338853 
L 399.257945 449.48728 
M 399.50115 449.536693 
L 400.352367 449.930875 
M 400.595572 449.980009 
L 401.446789 450.371946 
M 401.689994 450.420796 
L 406.067683 452.206062 
M 406.310888 452.253711 
L 406.918901 452.538942 
M 407.162106 452.586369 
L 408.86454 453.293976 
M 409.107745 453.340896 
L 411.539795 454.318879 
M 411.783 454.3651 
L 414.823062 455.555682 
M 415.066267 455.601044 
L 417.011907 456.367322 
M 417.255112 456.41211 
L 418.106329 456.76927 
M 418.349534 456.813771 
L 419.079149 457.124388 
M 419.322354 457.168635 
L 421.146391 457.872235 
M 421.389596 457.915939 
L 422.240813 458.264419 
M 422.484018 458.307835 
L 422.605621 458.394572 
M 422.848826 458.437892 
L 423.943248 458.869341 
M 424.186453 458.91231 
L 424.55126 459.083867 
M 424.794465 459.126676 
L 425.159273 459.297594 
M 425.402478 459.340244 
L 427.712925 460.186522 
M 427.95613 460.2285 
L 432.941831 461.962701 
M 433.185036 462.003303 
L 436.833111 463.246112 
M 437.076316 463.285691 
L 440.72439 464.496753 
M 440.967595 464.535307 
L 441.332402 464.689215 
M 441.575607 464.727614 
L 441.940415 464.880891 
M 442.18362 464.919131 
L 446.074899 466.163078 
M 446.318104 466.20023 
L 448.142141 466.790305 
M 448.385346 466.826913 
L 448.506949 466.900033 
M 448.750154 466.936545 
L 451.790216 467.874638 
M 452.033421 467.910287 
L 453.735855 468.441191 
M 453.97906 468.476329 
L 459.207967 469.980919 
M 459.451172 470.013634 
L 462.004824 470.725406 
M 462.248029 470.757398 
L 462.977644 470.980459 
M 463.220849 471.012199 
L 466.139308 471.795497 
M 466.382513 471.826421 
L 467.355333 472.103323 
M 467.598538 472.133933 
L 467.963345 472.25606 
M 468.20655 472.286513 
L 468.571358 472.408013 
M 468.814563 472.43831 
L 470.516998 472.889 
M 470.760202 472.918795 
L 478.542761 474.78846 
M 478.785966 474.816194 
L 481.704426 475.499441 
M 481.947631 475.526367 
L 488.392562 476.934279 
M 488.635767 476.9595 
L 491.919034 477.653144 
M 492.162239 477.67747 
L 498.242363 478.877284 
M 498.485568 478.900012 
L 501.768835 479.523953 
M 502.01204 479.545793 
L 503.836077 479.891086 
M 504.079282 479.912408 
L 510.767418 481.057891 
M 511.010623 481.077482 
L 511.740238 481.213769 
M 511.983443 481.233118 
L 516.117927 481.891314 
M 516.361132 481.909577 
L 516.847542 482.000443 
M 517.090747 482.018526 
L 519.036387 482.321343 
M 519.279592 482.338886 
L 525.359716 483.193926 
M 525.602921 483.209916 
L 527.54856 483.477203 
M 527.791765 483.492659 
L 528.03497 483.538848 
M 528.278175 483.554185 
L 529.4942 483.720937 
M 529.737405 483.735918 
L 531.804647 484.000533 
M 532.047852 484.014954 
L 540.803231 484.988287 
M 541.046436 485.000538 
L 543.478485 485.251082 
M 543.72169 485.262693 
L 544.451305 485.343158 
M 544.69451 485.354537 
L 545.059317 485.399763 
M 545.302522 485.410997 
L 556.00354 486.286783 
L 559.89482 486.55086 
M 560.138025 486.557154 
L 562.813279 486.658644 
M 563.056484 486.661199 
L 565.366931 486.681101 
M 565.610136 486.681 
L 566.582956 486.680092 
M 566.826161 486.679992 
L 571.325453 486.676178 
M 571.568658 486.676078 
L 576.189552 486.672195 
M 576.432757 486.672095 
L 578.013589 486.670709 
M 578.256794 486.67061 
L 578.986409 486.669918 
M 579.229614 486.669819 
L 586.160955 486.664123 
M 586.40416 486.664025 
L 587.86339 486.662758 
M 588.106595 486.66266 
L 594.429924 486.657526 
M 594.673129 486.657429 
L 602.212483 486.651395 
M 602.455688 486.6513 
L 612.427091 486.643463 
M 612.670296 486.643369 
L 617.29119 486.63973 
M 617.534395 486.639638 
L 623.979326 486.634645 
M 624.222531 486.634553 
L 625.316954 486.633635 
M 625.560159 486.633543 
L 627.140991 486.63226 
M 627.384196 486.632169 
L 628.600221 486.631163 
M 628.843426 486.631072 
L 629.694643 486.630342 
M 629.937848 486.630251 
L 636.504382 486.625266 
M 636.747587 486.625176 
L 638.450021 486.623826 
M 638.693226 486.623736 
L 644.651748 486.619264 
M 644.894953 486.619175 
L 645.016555 486.618997 
M 645.25976 486.618908 
L 646.597388 486.617842 
M 646.840593 486.617753 
L 657.420008 486.610013 
M 657.663213 486.609926 
L 660.338468 486.607924 
M 660.581673 486.607838 
L 666.783399 486.603347 
M 667.026604 486.603261 
L 671.525896 486.600008 
M 671.769101 486.599923 
L 673.106728 486.598901 
M 673.349933 486.598816 
L 680.524479 486.593742 
M 680.767684 486.593657 
L 682.348517 486.592482 
M 682.591721 486.592398 
L 688.185436 486.588477 
M 688.671845 486.588228 
L 689.88787 486.587315 
M 690.37428 486.587067 
L 691.711907 486.586075 
M 691.955112 486.585992 
L 692.80633 486.585332 
M 693.049535 486.585249 
L 693.414342 486.58492 
M 693.657547 486.584837 
L 695.603187 486.583439 
M 695.846392 486.583357 
L 697.792031 486.581964 
M 698.035236 486.581883 
L 698.643249 486.581392 
M 698.886454 486.58131 
L 700.467286 486.580168 
M 700.710491 486.580087 
L 701.561708 486.579436 
M 701.804913 486.579355 
L 707.398627 486.575551 
M 707.641832 486.57547 
L 709.465869 486.574183 
M 709.709074 486.574103 
L 709.830677 486.573942 
M 710.073882 486.573862 
L 712.870739 486.571941 
M 713.113944 486.571861 
L 722.963745 486.565364 
M 723.20695 486.565285 
L 726.368614 486.563169 
M 726.611819 486.563091 
L 726.855024 486.562856 
M 727.098229 486.562778 
L 727.706241 486.56231 
M 727.949446 486.562232 
L 731.354316 486.559976 
M 731.597521 486.559899 
L 733.178353 486.558815 
M 733.421558 486.558737 
L 736.218415 486.556886 
M 736.46162 486.556809 
L 736.826427 486.556501 
M 737.069632 486.556424 
L 740.109694 486.55443 
M 740.352899 486.554354 
L 740.960912 486.553895 
M 741.204117 486.553819 
L 743.392961 486.55237 
M 743.879371 486.552142 
L 747.77065 486.54964 
M 748.013855 486.549565 
L 756.282824 486.544386 
M 756.526029 486.544311 
L 758.593271 486.542972 
M 758.836476 486.542898 
L 759.809296 486.54223 
M 760.052501 486.542156 
L 760.660513 486.541711 
M 760.903718 486.541637 
L 774.158388 486.53358 
M 774.401593 486.533507 
L 785.224214 486.527042 
M 785.467419 486.526971 
L 786.197034 486.526473 
M 786.440239 486.526402 
L 793.979593 486.52195 
M 794.222798 486.52188 
L 797.992474 486.51964 
M 798.235679 486.51957 
L 800.059717 486.518456 
M 800.302921 486.518386 
L 802.126959 486.517275 
M 802.370164 486.517206 
L 804.680611 486.515822 
M 804.923816 486.515753 
L 808.08548 486.513894 
M 808.328685 486.513826 
L 809.666312 486.513003 
M 809.909517 486.512934 
L 814.287207 486.510409 
M 814.530412 486.510341 
L 818.300088 486.508172 
M 818.543293 486.508105 
L 818.908101 486.507834 
M 819.151306 486.507767 
L 819.759318 486.507362 
M 820.002523 486.507295 
L 820.85374 486.506756 
M 821.096945 486.506689 
L 823.7722 486.505145 
M 824.015405 486.505078 
L 830.946746 486.501215 
M 831.189951 486.501148 
L 832.649181 486.500289 
M 832.892386 486.500223 
L 835.446038 486.498773 
M 835.689243 486.498707 
L 837.878088 486.49746 
M 838.121293 486.497395 
L 840.310137 486.496153 
M 840.553342 486.496087 
L 850.403143 486.49078 
M 850.646348 486.490716 
L 853.321602 486.489306 
L 853.321602 486.489306 
" clip-path="url(#pfff9ee0d9c)" style="fill: none; stroke-dasharray: 25.9,11.2; stroke-dashoffset: 0; stroke: #0000ff; stroke-opacity: 0.6; stroke-width: 7"/>
   </g>
   <g id="line2d_12">
    <path d="M 117.383398 417.581007 
L 122.004292 418.095005 
M 122.247497 418.108134 
L 127.841211 418.722332 
M 128.084416 418.73534 
L 129.908453 418.943121 
M 130.151658 418.956086 
L 136.839794 419.678152 
M 137.082999 419.690976 
L 141.460688 420.163702 
M 141.703893 420.176432 
L 143.284726 420.354389 
M 143.527931 420.367082 
L 145.95998 420.633067 
M 146.203185 420.645706 
L 148.39203 420.885386 
M 148.635235 420.897976 
L 151.188887 421.174352 
M 151.675297 421.211948 
L 163.957147 422.477379 
M 164.200352 422.489662 
L 171.253296 423.210201 
M 171.496501 423.222343 
L 184.143159 424.484304 
M 184.386364 424.4962 
L 190.831295 425.1352 
M 191.0745 425.146971 
L 199.586674 425.976911 
M 199.829879 425.988519 
L 205.910002 426.577584 
M 206.153207 426.589076 
L 219.286275 427.828555 
M 219.52948 427.839806 
L 225.123194 428.36617 
M 225.366399 428.377317 
L 229.014474 428.721823 
M 229.257679 428.732902 
L 232.29774 429.020203 
M 232.540945 429.031225 
L 234.72979 429.240226 
M 234.972995 429.251205 
L 236.918635 429.437521 
M 237.16184 429.448462 
L 241.174721 429.819196 
M 241.417926 429.830063 
L 250.41651 430.639156 
M 250.659715 430.649865 
L 256.010224 431.129638 
M 256.253429 431.140253 
L 259.901503 431.468285 
M 260.144708 431.478835 
L 270.116112 432.347352 
M 270.359317 432.357732 
L 280.81713 433.253128 
M 281.060335 433.263333 
L 282.27636 433.375456 
M 282.519564 433.385637 
L 283.613987 433.587841 
L 287.262061 434.738195 
M 287.505266 434.77464 
L 288.113279 434.992446 
M 288.356483 435.028603 
L 288.964496 435.244678 
M 289.207701 435.280546 
L 289.450906 435.387904 
M 289.694111 435.423608 
L 295.652632 437.156679 
M 295.895837 437.190303 
L 302.583974 439.009031 
M 303.070383 439.102922 
L 304.894421 439.597642 
M 305.137626 439.628225 
L 308.420893 440.468541 
M 308.664098 440.497982 
L 309.393712 440.702972 
M 309.636917 440.732099 
L 311.096147 441.107205 
M 311.339352 441.135786 
L 313.041787 441.559838 
M 313.284992 441.587797 
L 315.109029 442.002546 
L 315.230631 431.768966 
L 320.337936 432.993055 
M 320.58114 433.020673 
L 321.432358 433.240233 
M 321.675563 433.267505 
L 322.648383 433.511234 
M 322.891588 432.832686 
L 323.134793 429.687329 
L 323.377998 418.346877 
L 323.621202 404.771774 
L 323.864407 400.471835 
L 324.229215 398.048271 
L 324.594022 397.111942 
L 324.95883 396.728332 
L 325.44524 396.590394 
L 326.174855 396.668288 
L 326.782867 396.83935 
M 327.026072 396.870485 
L 327.512482 397.029757 
M 327.755687 397.061961 
L 330.309339 397.767354 
M 330.552544 397.799026 
L 333.349401 398.54754 
M 333.592606 398.578245 
L 337.362283 399.54049 
M 337.605488 399.569928 
L 338.578307 399.833157 
M 338.821512 399.862214 
L 340.767152 400.350375 
M 341.010357 400.378749 
L 341.983177 400.604383 
L 342.104779 403.819411 
L 344.172021 404.30654 
M 344.415226 404.333247 
L 347.090481 404.937213 
M 347.333686 404.963026 
L 347.576891 405.040242 
M 347.820096 405.065907 
L 348.671313 405.269891 
M 348.914518 405.295222 
L 356.089064 406.747914 
M 356.332269 406.771013 
L 357.426692 407.000009 
M 357.669897 407.02271 
L 361.561176 407.751639 
M 361.804381 407.773118 
L 368.006107 408.84106 
M 368.249312 408.860661 
L 372.018989 409.414387 
M 372.262194 409.42919 
L 376.761486 409.989595 
M 377.004691 410.004287 
L 382.720007 410.706185 
M 382.963212 410.720739 
L 383.936032 410.851598 
M 384.179237 410.866124 
L 394.515448 412.104921 
M 394.758653 412.119205 
L 394.880255 412.147765 
M 395.12346 412.162041 
L 395.60987 412.233378 
M 395.853075 412.247638 
L 396.461088 412.333136 
M 396.704293 412.347376 
L 398.771535 412.603228 
M 399.01474 412.617416 
L 399.257945 412.659963 
M 399.50115 412.67414 
L 400.352367 412.787458 
M 400.595572 412.80161 
L 401.446789 412.914731 
M 401.689994 412.928859 
L 406.067683 413.449679 
M 406.310888 413.463704 
L 406.918901 413.547795 
M 407.162106 413.561801 
L 408.86454 413.771564 
M 409.107745 413.785526 
L 411.539795 414.07812 
M 411.783 414.092023 
L 414.823062 414.452574 
M 415.066267 414.466405 
L 417.011907 414.701128 
M 417.255112 414.714911 
L 418.106329 414.825082 
M 418.349534 414.838842 
L 419.079149 414.935083 
M 419.322354 414.948821 
L 421.146391 415.168272 
M 421.389596 415.181965 
L 422.240813 415.291416 
M 422.484018 415.305085 
L 422.605621 415.332416 
M 422.848826 415.346077 
L 423.943248 415.482548 
M 424.186453 415.49618 
L 424.55126 415.550684 
M 424.794465 415.564304 
L 425.159273 415.618755 
M 425.402478 415.632362 
L 427.712925 415.903937 
M 427.95613 415.917488 
L 432.941831 416.484288 
M 433.185036 416.497728 
L 436.833111 416.913064 
M 437.076316 416.926421 
L 440.72439 417.339201 
M 440.967595 417.352475 
L 441.2108 417.379017 
L 441.332402 189.327592 
M 441.575607 189.384403 
L 441.940415 189.612331 
M 442.18362 189.669406 
L 446.074899 191.550418 
M 446.318104 191.607245 
L 448.142141 192.514985 
M 448.385346 192.571626 
L 448.506949 192.684875 
M 448.750154 192.741483 
L 451.790216 194.209465 
M 452.033421 194.265779 
L 453.735855 195.109185 
M 453.97906 195.165326 
L 459.207967 197.624812 
M 459.451172 197.680467 
L 462.004824 198.902168 
M 462.248029 198.957577 
L 462.977644 199.345139 
M 463.220849 199.400463 
L 466.139308 200.780083 
M 466.382513 200.835129 
L 467.355333 201.330071 
M 467.598538 201.385011 
L 467.963345 201.604667 
M 468.20655 201.659554 
L 468.571358 201.878998 
M 468.814563 201.933833 
L 470.516998 202.755083 
M 470.760202 202.809749 
L 478.542761 206.340486 
M 478.785966 206.39446 
L 481.704426 207.740432 
M 481.947631 207.794136 
L 488.392562 210.678818 
M 488.635767 210.731956 
L 491.919034 212.215642 
M 492.162239 212.268483 
L 498.242363 214.949888 
M 498.485568 215.002202 
L 501.768835 216.462885 
M 502.01204 216.514906 
L 503.836077 217.345887 
M 504.079282 217.397738 
L 510.767418 220.285496 
M 511.010623 220.336781 
L 511.740238 220.695493 
M 511.983443 220.746698 
L 516.117927 222.532666 
M 516.361132 222.583516 
L 516.847542 222.837623 
M 517.090747 222.888414 
L 519.036387 223.750379 
M 519.279592 223.800994 
L 525.359716 226.369495 
M 525.602921 226.419606 
L 527.54856 227.270009 
M 527.791765 227.319945 
L 528.03497 227.469698 
M 528.278175 227.519597 
L 529.4942 228.067844 
M 529.737405 228.117627 
L 531.804647 229.012081 
M 532.047852 229.061682 
L 540.803231 232.656822 
M 541.046436 232.70572 
L 543.478485 233.730398 
M 543.72169 233.779089 
L 544.451305 234.119661 
M 544.69451 234.168277 
L 545.059317 234.362646 
M 545.302522 234.411215 
L 559.89482 240.219421 
M 560.138025 240.26686 
L 562.813279 241.355437 
M 563.056484 241.402657 
L 565.366931 242.345145 
M 565.610136 242.392174 
L 566.582956 242.815028 
M 566.826161 242.861966 
L 571.325453 244.638933 
M 571.568658 244.68552 
L 576.189552 246.495405 
M 576.432757 246.541633 
L 578.013589 247.187897 
M 578.256794 247.233992 
L 578.986409 247.556408 
M 579.229614 247.602431 
L 586.160955 250.256681 
M 586.40416 250.302184 
L 587.86339 250.892925 
M 588.106595 250.938305 
L 594.429924 253.330975 
M 594.673129 253.375885 
L 602.212483 256.18782 
M 602.455688 256.232178 
L 612.427091 259.884299 
M 612.670296 259.927945 
L 617.29119 261.623585 
M 617.534395 261.666896 
L 623.979326 263.993295 
M 624.222531 264.036149 
L 625.316954 264.464228 
M 625.560159 264.50699 
L 627.140991 265.1048 
M 627.384196 265.147439 
L 628.600221 265.615924 
M 628.843426 265.658465 
L 629.694643 265.998492 
M 629.937848 266.040959 
L 636.504382 268.364048 
M 636.747587 268.406059 
L 638.450021 269.035241 
M 638.693226 269.077122 
L 644.651748 271.160894 
M 644.894953 271.202365 
L 645.016555 271.285282 
M 645.25976 271.326729 
L 646.597388 271.823467 
M 646.840593 271.86481 
L 657.420008 275.471937 
M 657.663213 275.512577 
L 660.338468 276.445118 
M 660.581673 276.48557 
L 666.783399 278.578331 
M 667.026604 278.618371 
L 668.972244 279.257962 
L 669.093846 430.501748 
L 671.525896 430.726759 
M 671.769101 430.737452 
L 673.106728 430.865596 
M 673.349933 430.876261 
L 680.524479 431.512431 
M 680.767684 431.522972 
L 682.348517 431.670326 
M 682.591721 431.680836 
L 688.185436 432.172531 
M 688.671845 432.203765 
L 689.88787 432.318134 
M 690.37428 432.349283 
L 691.711907 432.473701 
M 691.955112 432.484056 
L 692.80633 432.566826 
M 693.049535 432.577163 
L 693.414342 432.618492 
M 693.657547 432.628819 
L 695.603187 432.804077 
M 695.846392 432.814368 
L 697.792031 432.989019 
M 698.035236 432.999275 
L 698.643249 433.060768 
M 698.886454 433.07101 
L 700.467286 433.214189 
M 700.710491 433.224402 
L 701.561708 433.306029 
M 701.804913 433.316224 
L 707.398627 433.793158 
M 707.641832 433.803259 
L 709.465869 433.964604 
M 709.709074 433.974672 
L 709.830677 433.994801 
M 710.073882 434.004863 
L 712.870739 434.245763 
M 713.113944 434.255777 
L 722.963745 435.070331 
M 723.20695 435.080186 
L 726.368614 435.345534 
M 726.611819 435.355335 
L 726.855024 435.384727 
M 727.098229 435.394521 
L 727.706241 435.453243 
M 727.949446 435.463024 
L 731.354316 435.745837 
M 731.597521 435.755561 
L 733.178353 435.8915 
M 733.421558 435.901195 
L 736.218415 436.133336 
M 736.46162 436.142986 
L 736.826427 436.181564 
M 737.069632 436.191204 
L 740.109694 436.441191 
M 740.352899 436.450781 
L 740.960912 436.508281 
M 741.204117 436.517858 
L 743.392961 436.699469 
M 743.879371 436.728083 
L 747.77065 437.041753 
M 748.013855 437.051227 
L 756.282824 437.70054 
M 756.526029 437.709887 
L 758.593271 437.877824 
M 758.836476 437.887137 
L 759.809296 437.970871 
M 760.052501 437.980165 
L 760.660513 438.035897 
M 760.903718 438.045179 
L 765.88942 438.424214 
L 766.011022 439.677128 
L 774.158388 440.282871 
M 774.401593 440.29172 
L 785.224214 441.081165 
M 785.467419 441.08986 
L 786.197034 441.150677 
M 786.440239 441.159359 
L 793.979593 441.702927 
M 794.222798 441.711502 
L 797.992474 441.985028 
M 798.235679 441.993549 
L 800.059717 442.129653 
M 800.302921 442.138146 
L 802.126959 442.273805 
M 802.370164 442.28227 
L 804.680611 442.451224 
M 804.923816 442.459654 
L 808.08548 442.686666 
M 808.328685 442.695051 
L 808.936698 442.736953 
L 809.0583 366.990324 
L 809.54471 366.667499 
L 809.666312 365.862943 
M 809.909517 365.57959 
L 810.274325 365.211559 
L 810.760735 363.985025 
L 810.882337 363.928836 
L 811.125542 363.3363 
L 811.368747 362.603462 
L 811.733555 362.223058 
L 812.219964 360.990931 
L 812.341567 360.934311 
L 812.584772 360.341538 
L 813.314387 358.003639 
L 813.679194 357.856851 
L 813.800797 357.84086 
L 814.044002 357.292024 
L 814.287207 356.478854 
M 814.530412 356.429375 
L 815.016821 356.210295 
L 815.503231 355.051572 
L 815.989641 354.965334 
L 817.084064 355.104301 
L 818.300088 355.372583 
M 818.543293 355.39767 
L 818.908101 355.498219 
M 819.151306 355.523382 
L 819.759318 355.67439 
M 820.002523 355.699552 
L 820.85374 355.900708 
M 821.096945 355.925833 
L 823.7722 356.502377 
M 824.015405 356.527386 
L 830.946746 357.969699 
M 831.189951 357.994426 
L 832.649181 358.315433 
M 832.892386 358.340092 
L 835.446038 358.8814 
M 835.689243 358.905951 
L 837.878088 359.371509 
M 838.121293 359.395965 
L 840.310137 359.85973 
M 840.553342 359.884092 
L 850.403143 361.86584 
M 850.646348 361.889815 
L 853.321602 362.416089 
L 853.321602 362.416089 
" clip-path="url(#pfff9ee0d9c)" style="fill: none; stroke-dasharray: 7,11.55; stroke-dashoffset: 0; stroke: #008000; stroke-opacity: 0.6; stroke-width: 7"/>
   </g>
   <g id="line2d_13">
    <path d="M 117.383398 535.05401 
L 119.085832 535.393564 
L 119.207435 457.146688 
L 122.004292 458.065673 
M 122.247497 458.103289 
L 127.841211 459.810865 
M 128.084416 459.845919 
L 129.908453 460.399606 
M 130.151658 460.433764 
L 136.839794 462.263245 
M 137.082999 462.294437 
L 141.460688 463.412481 
M 141.703893 463.441729 
L 143.284726 463.845878 
M 143.527931 463.874367 
L 145.95998 464.460984 
M 146.203185 464.488366 
L 148.39203 464.999119 
M 148.635235 465.025502 
L 151.188887 465.593385 
M 151.675297 465.66897 
L 159.944265 467.264233 
L 163.957147 467.978202 
M 164.200352 467.998368 
L 171.253296 469.104796 
M 171.496501 469.122147 
L 180.008674 470.222484 
L 184.143159 470.689286 
M 184.386364 470.701818 
L 190.831295 471.312782 
M 191.0745 471.322887 
L 199.586674 471.929815 
M 199.829879 471.936821 
L 205.910002 472.238155 
M 206.153207 472.242974 
L 215.638201 472.50523 
L 219.286275 472.586632 
M 219.52948 472.58925 
L 225.123194 472.711717 
M 225.366399 472.71431 
L 229.014474 472.794465 
M 229.257679 472.797043 
L 232.29774 472.863888 
M 232.540945 472.866452 
L 234.72979 472.91508 
M 234.972995 472.917634 
L 236.918635 472.960984 
M 237.16184 472.963529 
L 241.174721 473.049787 
M 241.417926 473.052315 
L 250.41651 473.240563 
M 250.659715 473.243055 
L 256.010224 473.354682 
M 256.253429 473.357152 
L 259.901503 473.433474 
M 260.144708 473.435928 
L 270.116112 473.638003 
M 270.359317 473.640418 
L 272.426559 473.681401 
L 272.548161 427.958811 
L 280.81713 428.728237 
M 281.060335 428.739314 
L 282.27636 428.861027 
M 282.519564 428.872079 
L 287.262061 429.312415 
M 287.505266 429.32338 
L 288.113279 429.389125 
M 288.356483 429.400075 
L 288.964496 429.465732 
M 289.207701 429.476667 
L 289.450906 429.509461 
M 289.694111 429.520387 
L 295.652632 430.064055 
M 295.895837 430.074874 
L 302.583974 430.677472 
M 303.070383 430.709571 
L 304.894421 430.88045 
M 305.137626 430.891113 
L 308.420893 431.188828 
M 308.664098 431.199431 
L 309.393712 431.273595 
M 309.636917 431.284182 
L 311.096147 431.421622 
M 311.339352 431.43218 
L 313.041787 431.590307 
M 313.284992 431.600833 
L 315.230631 431.849706 
L 318.757103 434.634391 
L 320.337936 436.073585 
M 320.58114 436.178914 
L 321.432358 437.0342 
M 321.675563 437.142722 
L 322.648383 438.136045 
M 322.891588 438.248289 
L 326.782867 441.93902 
M 327.026072 442.048383 
L 327.512482 442.59287 
M 327.755687 442.701303 
L 330.309339 445.048263 
M 330.552544 445.153214 
L 333.349401 447.628037 
M 333.592606 447.729348 
L 337.362283 450.897338 
M 337.605488 450.994069 
L 338.578307 451.858607 
M 338.821512 451.953999 
L 340.767152 453.555552 
M 341.010357 453.64859 
L 343.199202 455.187608 
L 344.172021 455.897182 
M 344.415226 455.975432 
L 347.090481 457.743008 
M 347.333686 457.818479 
L 347.576891 458.044215 
M 347.820096 458.119235 
L 348.671313 458.715359 
M 348.914518 458.789373 
L 354.87304 462.284281 
L 356.089064 463.034632 
M 356.332269 463.102246 
L 357.426692 463.77297 
M 357.669897 463.839504 
L 361.561176 465.981731 
M 361.804381 466.045064 
L 368.006107 469.216797 
M 368.249312 469.275534 
L 372.018989 471.114355 
M 372.262194 471.17067 
L 376.761486 473.263376 
M 377.004691 473.317213 
L 382.720007 475.828125 
M 382.963212 475.878923 
L 383.936032 476.333349 
M 384.179237 476.383535 
L 390.988976 479.071062 
L 394.515448 480.412881 
M 394.758653 480.456107 
L 394.880255 480.542223 
M 395.12346 480.5851 
L 395.60987 480.793579 
M 395.853075 480.833913 
L 396.461088 481.07166 
M 396.704293 481.110776 
L 398.771535 481.788017 
M 399.01474 481.823837 
L 399.257945 481.930631 
M 399.50115 481.966022 
L 400.352367 482.245539 
M 400.595572 482.279932 
L 401.446789 482.551159 
M 401.689994 482.584632 
L 406.067683 483.759833 
M 406.310888 483.789893 
L 406.918901 483.968387 
M 407.162106 483.997824 
L 408.86454 484.428749 
M 409.107745 484.45677 
L 411.539795 485.02503 
M 411.783 485.051132 
L 414.823062 485.699691 
M 415.066267 485.723489 
L 417.011907 486.115214 
M 417.255112 486.137508 
L 418.106329 486.31288 
M 418.349534 486.334432 
L 419.079149 486.483 
M 419.322354 486.503899 
L 421.146391 486.827296 
M 421.389596 486.846827 
L 422.240813 487.000207 
M 422.484018 487.019023 
L 422.605621 487.056419 
M 422.848826 487.074998 
L 423.943248 487.256472 
M 424.186453 487.27419 
L 424.55126 487.344282 
M 424.794465 487.361612 
L 425.159273 487.430155 
M 425.402478 487.447098 
L 427.712925 487.769921 
M 427.95613 487.785267 
L 430.023372 488.034744 
L 430.144974 185.617702 
L 432.941831 187.329032 
M 433.185036 187.399296 
L 436.833111 189.536945 
M 437.076316 189.604608 
L 438.413943 190.343645 
L 438.535545 190.233995 
L 439.021955 189.291993 
L 439.508365 189.388954 
L 440.602788 189.903694 
L 440.72439 190.031239 
M 440.967595 190.095472 
L 441.2108 190.224466 
L 441.332402 191.973113 
M 441.575607 192.847133 
L 441.818812 194.594457 
L 441.940415 196.340624 
M 442.18362 197.213223 
L 446.074899 225.799799 
M 446.318104 226.659597 
L 448.020539 238.656993 
L 448.142141 240.364861 
M 448.385346 192.571626 
L 448.506949 194.295997 
M 448.750154 195.157615 
L 451.790216 217.427382 
M 452.033421 218.278842 
L 453.614253 229.313847 
L 453.735855 231.005951 
M 453.97906 231.851445 
L 456.775917 251.195539 
L 456.89752 196.509451 
L 459.207967 213.37876 
M 459.451172 214.218393 
L 462.004824 232.598138 
M 462.248029 233.429402 
L 462.856041 237.580294 
L 462.977644 239.238119 
M 463.220849 240.066489 
L 466.139308 260.658742 
M 466.382513 261.477768 
L 467.233731 267.200944 
L 467.355333 268.832926 
M 467.598538 269.648382 
L 467.841743 271.278226 
L 467.963345 272.906646 
M 468.20655 273.720323 
L 468.449755 275.346609 
L 468.571358 276.971475 
M 468.814563 277.783375 
L 470.395395 288.305834 
L 470.516998 289.91937 
M 470.760202 290.725608 
L 478.542761 342.380558 
M 478.785966 343.163799 
L 481.704426 362.633312 
M 481.947631 363.407647 
L 488.392562 404.718883 
M 488.635767 405.474656 
L 491.919034 426.50114 
M 492.162239 427.247275 
L 498.242363 464.864407 
M 498.485568 465.593507 
L 501.768835 485.876953 
M 502.01204 486.596687 
L 503.714474 496.639281 
L 503.836077 498.068815 
M 504.079282 498.783102 
L 510.767418 538.276659 
M 511.010623 538.972915 
L 511.618636 542.449499 
L 511.740238 543.837943 
M 511.983443 544.531697 
L 516.117927 568.617001 
M 516.361132 569.299574 
L 516.72594 571.345442 
L 516.847542 572.707811 
M 517.090747 573.388534 
L 518.914784 583.562466 
L 519.036387 584.913772 
M 519.279592 585.588965 
L 525.359716 619.620014 
M 525.602921 620.279417 
L 527.426958 630.13439 
L 527.54856 631.443286 
M 527.791765 632.097285 
L 527.913368 632.750984 
L 528.03497 634.057486 
M 528.278175 634.710288 
L 529.372598 640.572068 
L 529.4942 641.871405 
M 529.737405 642.520626 
L 530.954092 649 
L 530.954092 649 
" clip-path="url(#pfff9ee0d9c)" style="fill: none; stroke-dasharray: 44.8,11.2,7,11.2; stroke-dashoffset: 0; stroke: #ff0000; stroke-opacity: 0.6; stroke-width: 7"/>
   </g>
   <g id="patch_3">
    <path d="M 117.505 612.92 
L 117.505 10.8 
" style="fill: none; stroke: #000000; stroke-width: 0.8; stroke-linejoin: miter; stroke-linecap: square"/>
   </g>
   <g id="patch_4">
    <path d="M 853.2 612.92 
L 853.2 10.8 
" style="fill: none; stroke: #000000; stroke-width: 0.8; stroke-linejoin: miter; stroke-linecap: square"/>
   </g>
   <g id="patch_5">
    <path d="M 117.505 612.92 
L 853.2 612.92 
" style="fill: none; stroke: #000000; stroke-width: 0.8; stroke-linejoin: miter; stroke-linecap: square"/>
   </g>
   <g id="patch_6">
    <path d="M 117.505 10.8 
L 853.2 10.8 
" style="fill: none; stroke: #000000; stroke-width: 0.8; stroke-linejoin: miter; stroke-linecap: square"/>
   </g>
   <g id="text_11">
    <!-- 4 RMSE: 7.4 m -->
    <g style="fill: #0000ff" transform="translate(632.4915 71.012) scale(0.1728 -0.1728)">
     <defs>
      <path id="DejaVuSans-34" d="M 2419 4116 
L 825 1625 
L 2419 1625 
L 2419 4116 
z
M 2253 4666 
L 3047 4666 
L 3047 1625 
L 3713 1625 
L 3713 1100 
L 3047 1100 
L 3047 0 
L 2419 0 
L 2419 1100 
L 313 1100 
L 313 1709 
L 2253 4666 
z
" transform="scale(0.015625)"/>
      <path id="DejaVuSans-52" d="M 2841 2188 
Q 3044 2119 3236 1894 
Q 3428 1669 3622 1275 
L 4263 0 
L 3584 0 
L 2988 1197 
Q 2756 1666 2539 1819 
Q 2322 1972 1947 1972 
L 1259 1972 
L 1259 0 
L 628 0 
L 628 4666 
L 2053 4666 
Q 2853 4666 3247 4331 
Q 3641 3997 3641 3322 
Q 3641 2881 3436 2590 
Q 3231 2300 2841 2188 
z
M 1259 4147 
L 1259 2491 
L 2053 2491 
Q 2509 2491 2742 2702 
Q 2975 2913 2975 3322 
Q 2975 3731 2742 3939 
Q 2509 4147 2053 4147 
L 1259 4147 
z
" transform="scale(0.015625)"/>
      <path id="DejaVuSans-4d" d="M 628 4666 
L 1569 4666 
L 2759 1491 
L 3956 4666 
L 4897 4666 
L 4897 0 
L 4281 0 
L 4281 4097 
L 3078 897 
L 2444 897 
L 1241 4097 
L 1241 0 
L 628 0 
L 628 4666 
z
" transform="scale(0.015625)"/>
      <path id="DejaVuSans-53" d="M 3425 4513 
L 3425 3897 
Q 3066 4069 2747 4153 
Q 2428 4238 2131 4238 
Q 1616 4238 1336 4038 
Q 1056 3838 1056 3469 
Q 1056 3159 1242 3001 
Q 1428 2844 1947 2747 
L 2328 2669 
Q 3034 2534 3370 2195 
Q 3706 1856 3706 1288 
Q 3706 609 3251 259 
Q 2797 -91 1919 -91 
Q 1588 -91 1214 -16 
Q 841 59 441 206 
L 441 856 
Q 825 641 1194 531 
Q 1563 422 1919 422 
Q 2459 422 2753 634 
Q 3047 847 3047 1241 
Q 3047 1584 2836 1778 
Q 2625 1972 2144 2069 
L 1759 2144 
Q 1053 2284 737 2584 
Q 422 2884 422 3419 
Q 422 4038 858 4394 
Q 1294 4750 2059 4750 
Q 2388 4750 2728 4690 
Q 3069 4631 3425 4513 
z
" transform="scale(0.015625)"/>
      <path id="DejaVuSans-45" d="M 628 4666 
L 3578 4666 
L 3578 4134 
L 1259 4134 
L 1259 2753 
L 3481 2753 
L 3481 2222 
L 1259 2222 
L 1259 531 
L 3634 531 
L 3634 0 
L 628 0 
L 628 4666 
z
" transform="scale(0.015625)"/>
      <path id="DejaVuSans-3a" d="M 750 794 
L 1409 794 
L 1409 0 
L 750 0 
L 750 794 
z
M 750 3309 
L 1409 3309 
L 1409 2516 
L 750 2516 
L 750 3309 
z
" transform="scale(0.015625)"/>
      <path id="DejaVuSans-2e" d="M 684 794 
L 1344 794 
L 1344 0 
L 684 0 
L 684 794 
z
" transform="scale(0.015625)"/>
     </defs>
     <use xlink:href="#DejaVuSans-34"/>
     <use xlink:href="#DejaVuSans-20" x="63.623047"/>
     <use xlink:href="#DejaVuSans-52" x="95.410156"/>
     <use xlink:href="#DejaVuSans-4d" x="164.892578"/>
     <use xlink:href="#DejaVuSans-53" x="251.171875"/>
     <use xlink:href="#DejaVuSans-45" x="314.648438"/>
     <use xlink:href="#DejaVuSans-3a" x="377.832031"/>
     <use xlink:href="#DejaVuSans-20" x="411.523438"/>
     <use xlink:href="#DejaVuSans-37" x="443.310547"/>
     <use xlink:href="#DejaVuSans-2e" x="506.933594"/>
     <use xlink:href="#DejaVuSans-34" x="538.720703"/>
     <use xlink:href="#DejaVuSans-20" x="602.34375"/>
     <use xlink:href="#DejaVuSans-6d" x="634.130859"/>
    </g>
   </g>
   <g id="text_12">
    <!-- 6 RMSE: 10.64 m -->
    <g style="fill: #008000" transform="translate(632.4915 101.118) scale(0.1728 -0.1728)">
     <use xlink:href="#DejaVuSans-36"/>
     <use xlink:href="#DejaVuSans-20" x="63.623047"/>
     <use xlink:href="#DejaVuSans-52" x="95.410156"/>
     <use xlink:href="#DejaVuSans-4d" x="164.892578"/>
     <use xlink:href="#DejaVuSans-53" x="251.171875"/>
     <use xlink:href="#DejaVuSans-45" x="314.648438"/>
     <use xlink:href="#DejaVuSans-3a" x="377.832031"/>
     <use xlink:href="#DejaVuSans-20" x="411.523438"/>
     <use xlink:href="#DejaVuSans-31" x="443.310547"/>
     <use xlink:href="#DejaVuSans-30" x="506.933594"/>
     <use xlink:href="#DejaVuSans-2e" x="570.556641"/>
     <use xlink:href="#DejaVuSans-36" x="602.34375"/>
     <use xlink:href="#DejaVuSans-34" x="665.966797"/>
     <use xlink:href="#DejaVuSans-20" x="729.589844"/>
     <use xlink:href="#DejaVuSans-6d" x="761.376953"/>
    </g>
   </g>
   <g id="text_13">
    <!-- 7 RMSE: 11.75 m -->
    <g style="fill: #ff0000" transform="translate(632.4915 131.224) scale(0.1728 -0.1728)">
     <defs>
      <path id="DejaVuSans-35" d="M 691 4666 
L 3169 4666 
L 3169 4134 
L 1269 4134 
L 1269 2991 
Q 1406 3038 1543 3061 
Q 1681 3084 1819 3084 
Q 2600 3084 3056 2656 
Q 3513 2228 3513 1497 
Q 3513 744 3044 326 
Q 2575 -91 1722 -91 
Q 1428 -91 1123 -41 
Q 819 9 494 109 
L 494 744 
Q 775 591 1075 516 
Q 1375 441 1709 441 
Q 2250 441 2565 725 
Q 2881 1009 2881 1497 
Q 2881 1984 2565 2268 
Q 2250 2553 1709 2553 
Q 1456 2553 1204 2497 
Q 953 2441 691 2322 
L 691 4666 
z
" transform="scale(0.015625)"/>
     </defs>
     <use xlink:href="#DejaVuSans-37"/>
     <use xlink:href="#DejaVuSans-20" x="63.623047"/>
     <use xlink:href="#DejaVuSans-52" x="95.410156"/>
     <use xlink:href="#DejaVuSans-4d" x="164.892578"/>
     <use xlink:href="#DejaVuSans-53" x="251.171875"/>
     <use xlink:href="#DejaVuSans-45" x="314.648438"/>
     <use xlink:href="#DejaVuSans-3a" x="377.832031"/>
     <use xlink:href="#DejaVuSans-20" x="411.523438"/>
     <use xlink:href="#DejaVuSans-31" x="443.310547"/>
     <use xlink:href="#DejaVuSans-31" x="506.933594"/>
     <use xlink:href="#DejaVuSans-2e" x="570.556641"/>
     <use xlink:href="#DejaVuSans-37" x="602.34375"/>
     <use xlink:href="#DejaVuSans-35" x="665.966797"/>
     <use xlink:href="#DejaVuSans-20" x="729.589844"/>
     <use xlink:href="#DejaVuSans-6d" x="761.376953"/>
    </g>
   </g>
   <g id="text_14">
    <!-- 7 -->
    <g style="fill: #ff0000" transform="translate(492.70945 40.906) scale(0.1728 -0.1728)">
     <use xlink:href="#DejaVuSans-37"/>
    </g>
   </g>
   <g id="text_15">
    <!-- 8 -->
    <g transform="translate(558.922 40.906) scale(0.1728 -0.1728)">
     <use xlink:href="#DejaVuSans-38"/>
    </g>
   </g>
   <g id="text_16">
    <!-- 6 -->
    <g style="fill: #008000" transform="translate(522.13725 101.118) scale(0.1728 -0.1728)">
     <use xlink:href="#DejaVuSans-36"/>
    </g>
   </g>
   <g id="text_17">
    <!-- 4 -->
    <g style="fill: #0000ff" transform="translate(522.13725 161.33) scale(0.1728 -0.1728)">
     <use xlink:href="#DejaVuSans-34"/>
    </g>
   </g>
   <g id="legend_1">
    <g id="patch_7">
     <path d="M 129.601 126.0792 
L 407.4931 126.0792 
Q 410.9491 126.0792 410.9491 122.6232 
L 410.9491 22.896 
Q 410.9491 19.44 407.4931 19.44 
L 129.601 19.44 
Q 126.145 19.44 126.145 22.896 
L 126.145 122.6232 
Q 126.145 126.0792 129.601 126.0792 
z
" style="fill: #ffffff; opacity: 0.8; stroke: #cccccc; stroke-linejoin: miter"/>
    </g>
    <g id="line2d_14">
     <path d="M 133.057 33.4341 
L 150.337 33.4341 
L 167.617 33.4341 
" style="fill: none; stroke: #000000; stroke-opacity: 0.6; stroke-width: 7; stroke-linecap: square"/>
    </g>
    <g id="text_18">
     <!-- measurement -->
     <g transform="translate(181.441 39.4821) scale(0.1728 -0.1728)">
      <defs>
       <path id="DejaVuSans-61" d="M 2194 1759 
Q 1497 1759 1228 1600 
Q 959 1441 959 1056 
Q 959 750 1161 570 
Q 1363 391 1709 391 
Q 2188 391 2477 730 
Q 2766 1069 2766 1631 
L 2766 1759 
L 2194 1759 
z
M 3341 1997 
L 3341 0 
L 2766 0 
L 2766 531 
Q 2569 213 2275 61 
Q 1981 -91 1556 -91 
Q 1019 -91 701 211 
Q 384 513 384 1019 
Q 384 1609 779 1909 
Q 1175 2209 1959 2209 
L 2766 2209 
L 2766 2266 
Q 2766 2663 2505 2880 
Q 2244 3097 1772 3097 
Q 1472 3097 1187 3025 
Q 903 2953 641 2809 
L 641 3341 
Q 956 3463 1253 3523 
Q 1550 3584 1831 3584 
Q 2591 3584 2966 3190 
Q 3341 2797 3341 1997 
z
" transform="scale(0.015625)"/>
       <path id="DejaVuSans-73" d="M 2834 3397 
L 2834 2853 
Q 2591 2978 2328 3040 
Q 2066 3103 1784 3103 
Q 1356 3103 1142 2972 
Q 928 2841 928 2578 
Q 928 2378 1081 2264 
Q 1234 2150 1697 2047 
L 1894 2003 
Q 2506 1872 2764 1633 
Q 3022 1394 3022 966 
Q 3022 478 2636 193 
Q 2250 -91 1575 -91 
Q 1294 -91 989 -36 
Q 684 19 347 128 
L 347 722 
Q 666 556 975 473 
Q 1284 391 1588 391 
Q 1994 391 2212 530 
Q 2431 669 2431 922 
Q 2431 1156 2273 1281 
Q 2116 1406 1581 1522 
L 1381 1569 
Q 847 1681 609 1914 
Q 372 2147 372 2553 
Q 372 3047 722 3315 
Q 1072 3584 1716 3584 
Q 2034 3584 2315 3537 
Q 2597 3491 2834 3397 
z
" transform="scale(0.015625)"/>
       <path id="DejaVuSans-75" d="M 544 1381 
L 544 3500 
L 1119 3500 
L 1119 1403 
Q 1119 906 1312 657 
Q 1506 409 1894 409 
Q 2359 409 2629 706 
Q 2900 1003 2900 1516 
L 2900 3500 
L 3475 3500 
L 3475 0 
L 2900 0 
L 2900 538 
Q 2691 219 2414 64 
Q 2138 -91 1772 -91 
Q 1169 -91 856 284 
Q 544 659 544 1381 
z
M 1991 3584 
L 1991 3584 
z
" transform="scale(0.015625)"/>
       <path id="DejaVuSans-72" d="M 2631 2963 
Q 2534 3019 2420 3045 
Q 2306 3072 2169 3072 
Q 1681 3072 1420 2755 
Q 1159 2438 1159 1844 
L 1159 0 
L 581 0 
L 581 3500 
L 1159 3500 
L 1159 2956 
Q 1341 3275 1631 3429 
Q 1922 3584 2338 3584 
Q 2397 3584 2469 3576 
Q 2541 3569 2628 3553 
L 2631 2963 
z
" transform="scale(0.015625)"/>
       <path id="DejaVuSans-6e" d="M 3513 2113 
L 3513 0 
L 2938 0 
L 2938 2094 
Q 2938 2591 2744 2837 
Q 2550 3084 2163 3084 
Q 1697 3084 1428 2787 
Q 1159 2491 1159 1978 
L 1159 0 
L 581 0 
L 581 3500 
L 1159 3500 
L 1159 2956 
Q 1366 3272 1645 3428 
Q 1925 3584 2291 3584 
Q 2894 3584 3203 3211 
Q 3513 2838 3513 2113 
z
" transform="scale(0.015625)"/>
      </defs>
      <use xlink:href="#DejaVuSans-6d"/>
      <use xlink:href="#DejaVuSans-65" x="97.412109"/>
      <use xlink:href="#DejaVuSans-61" x="158.935547"/>
      <use xlink:href="#DejaVuSans-73" x="220.214844"/>
      <use xlink:href="#DejaVuSans-75" x="272.314453"/>
      <use xlink:href="#DejaVuSans-72" x="335.693359"/>
      <use xlink:href="#DejaVuSans-65" x="374.556641"/>
      <use xlink:href="#DejaVuSans-6d" x="436.080078"/>
      <use xlink:href="#DejaVuSans-65" x="533.492188"/>
      <use xlink:href="#DejaVuSans-6e" x="595.015625"/>
      <use xlink:href="#DejaVuSans-74" x="658.394531"/>
     </g>
    </g>
    <g id="line2d_15">
     <path d="M 133.057 58.7979 
L 150.337 58.7979 
L 167.617 58.7979 
" style="fill: none; stroke-dasharray: 25.9,11.2; stroke-dashoffset: 0; stroke: #0000ff; stroke-opacity: 0.6; stroke-width: 7"/>
    </g>
    <g id="text_19">
     <!-- estimate maintained by 4 -->
     <g transform="translate(181.441 64.8459) scale(0.1728 -0.1728)">
      <defs>
       <path id="DejaVuSans-69" d="M 603 3500 
L 1178 3500 
L 1178 0 
L 603 0 
L 603 3500 
z
M 603 4863 
L 1178 4863 
L 1178 4134 
L 603 4134 
L 603 4863 
z
" transform="scale(0.015625)"/>
       <path id="DejaVuSans-62" d="M 3116 1747 
Q 3116 2381 2855 2742 
Q 2594 3103 2138 3103 
Q 1681 3103 1420 2742 
Q 1159 2381 1159 1747 
Q 1159 1113 1420 752 
Q 1681 391 2138 391 
Q 2594 391 2855 752 
Q 3116 1113 3116 1747 
z
M 1159 2969 
Q 1341 3281 1617 3432 
Q 1894 3584 2278 3584 
Q 2916 3584 3314 3078 
Q 3713 2572 3713 1747 
Q 3713 922 3314 415 
Q 2916 -91 2278 -91 
Q 1894 -91 1617 61 
Q 1341 213 1159 525 
L 1159 0 
L 581 0 
L 581 4863 
L 1159 4863 
L 1159 2969 
z
" transform="scale(0.015625)"/>
       <path id="DejaVuSans-79" d="M 2059 -325 
Q 1816 -950 1584 -1140 
Q 1353 -1331 966 -1331 
L 506 -1331 
L 506 -850 
L 844 -850 
Q 1081 -850 1212 -737 
Q 1344 -625 1503 -206 
L 1606 56 
L 191 3500 
L 800 3500 
L 1894 763 
L 2988 3500 
L 3597 3500 
L 2059 -325 
z
" transform="scale(0.015625)"/>
      </defs>
      <use xlink:href="#DejaVuSans-65"/>
      <use xlink:href="#DejaVuSans-73" x="61.523438"/>
      <use xlink:href="#DejaVuSans-74" x="113.623047"/>
      <use xlink:href="#DejaVuSans-69" x="152.832031"/>
      <use xlink:href="#DejaVuSans-6d" x="180.615234"/>
      <use xlink:href="#DejaVuSans-61" x="278.027344"/>
      <use xlink:href="#DejaVuSans-74" x="339.306641"/>
      <use xlink:href="#DejaVuSans-65" x="378.515625"/>
      <use xlink:href="#DejaVuSans-20" x="440.039062"/>
      <use xlink:href="#DejaVuSans-6d" x="471.826172"/>
      <use xlink:href="#DejaVuSans-61" x="569.238281"/>
      <use xlink:href="#DejaVuSans-69" x="630.517578"/>
      <use xlink:href="#DejaVuSans-6e" x="658.300781"/>
      <use xlink:href="#DejaVuSans-74" x="721.679688"/>
      <use xlink:href="#DejaVuSans-61" x="760.888672"/>
      <use xlink:href="#DejaVuSans-69" x="822.167969"/>
      <use xlink:href="#DejaVuSans-6e" x="849.951172"/>
      <use xlink:href="#DejaVuSans-65" x="913.330078"/>
      <use xlink:href="#DejaVuSans-64" x="974.853516"/>
      <use xlink:href="#DejaVuSans-20" x="1038.330078"/>
      <use xlink:href="#DejaVuSans-62" x="1070.117188"/>
      <use xlink:href="#DejaVuSans-79" x="1133.59375"/>
      <use xlink:href="#DejaVuSans-20" x="1192.773438"/>
      <use xlink:href="#DejaVuSans-34" x="1224.560547"/>
     </g>
    </g>
    <g id="line2d_16">
     <path d="M 133.057 84.1617 
L 150.337 84.1617 
L 167.617 84.1617 
" style="fill: none; stroke-dasharray: 7,11.55; stroke-dashoffset: 0; stroke: #008000; stroke-opacity: 0.6; stroke-width: 7"/>
    </g>
    <g id="text_20">
     <!-- estimate maintained by 6 -->
     <g transform="translate(181.441 90.2097) scale(0.1728 -0.1728)">
      <use xlink:href="#DejaVuSans-65"/>
      <use xlink:href="#DejaVuSans-73" x="61.523438"/>
      <use xlink:href="#DejaVuSans-74" x="113.623047"/>
      <use xlink:href="#DejaVuSans-69" x="152.832031"/>
      <use xlink:href="#DejaVuSans-6d" x="180.615234"/>
      <use xlink:href="#DejaVuSans-61" x="278.027344"/>
      <use xlink:href="#DejaVuSans-74" x="339.306641"/>
      <use xlink:href="#DejaVuSans-65" x="378.515625"/>
      <use xlink:href="#DejaVuSans-20" x="440.039062"/>
      <use xlink:href="#DejaVuSans-6d" x="471.826172"/>
      <use xlink:href="#DejaVuSans-61" x="569.238281"/>
      <use xlink:href="#DejaVuSans-69" x="630.517578"/>
      <use xlink:href="#DejaVuSans-6e" x="658.300781"/>
      <use xlink:href="#DejaVuSans-74" x="721.679688"/>
      <use xlink:href="#DejaVuSans-61" x="760.888672"/>
      <use xlink:href="#DejaVuSans-69" x="822.167969"/>
      <use xlink:href="#DejaVuSans-6e" x="849.951172"/>
      <use xlink:href="#DejaVuSans-65" x="913.330078"/>
      <use xlink:href="#DejaVuSans-64" x="974.853516"/>
      <use xlink:href="#DejaVuSans-20" x="1038.330078"/>
      <use xlink:href="#DejaVuSans-62" x="1070.117188"/>
      <use xlink:href="#DejaVuSans-79" x="1133.59375"/>
      <use xlink:href="#DejaVuSans-20" x="1192.773438"/>
      <use xlink:href="#DejaVuSans-36" x="1224.560547"/>
     </g>
    </g>
    <g id="line2d_17">
     <path d="M 133.057 109.5255 
L 150.337 109.5255 
L 167.617 109.5255 
" style="fill: none; stroke-dasharray: 44.8,11.2,7,11.2; stroke-dashoffset: 0; stroke: #ff0000; stroke-opacity: 0.6; stroke-width: 7"/>
    </g>
    <g id="text_21">
     <!-- estimate maintained by 7 -->
     <g transform="translate(181.441 115.5735) scale(0.1728 -0.1728)">
      <use xlink:href="#DejaVuSans-65"/>
      <use xlink:href="#DejaVuSans-73" x="61.523438"/>
      <use xlink:href="#DejaVuSans-74" x="113.623047"/>
      <use xlink:href="#DejaVuSans-69" x="152.832031"/>
      <use xlink:href="#DejaVuSans-6d" x="180.615234"/>
      <use xlink:href="#DejaVuSans-61" x="278.027344"/>
      <use xlink:href="#DejaVuSans-74" x="339.306641"/>
      <use xlink:href="#DejaVuSans-65" x="378.515625"/>
      <use xlink:href="#DejaVuSans-20" x="440.039062"/>
      <use xlink:href="#DejaVuSans-6d" x="471.826172"/>
      <use xlink:href="#DejaVuSans-61" x="569.238281"/>
      <use xlink:href="#DejaVuSans-69" x="630.517578"/>
      <use xlink:href="#DejaVuSans-6e" x="658.300781"/>
      <use xlink:href="#DejaVuSans-74" x="721.679688"/>
      <use xlink:href="#DejaVuSans-61" x="760.888672"/>
      <use xlink:href="#DejaVuSans-69" x="822.167969"/>
      <use xlink:href="#DejaVuSans-6e" x="849.951172"/>
      <use xlink:href="#DejaVuSans-65" x="913.330078"/>
      <use xlink:href="#DejaVuSans-64" x="974.853516"/>
      <use xlink:href="#DejaVuSans-20" x="1038.330078"/>
      <use xlink:href="#DejaVuSans-62" x="1070.117188"/>
      <use xlink:href="#DejaVuSans-79" x="1133.59375"/>
      <use xlink:href="#DejaVuSans-20" x="1192.773438"/>
      <use xlink:href="#DejaVuSans-37" x="1224.560547"/>
     </g>
    </g>
   </g>
  </g>
  <g id="line2d_18">
   <path d="M 507.42335 46.9272 
L 522.13725 89.0756 
" style="fill: none; stroke: #000000; stroke-opacity: 0.5; stroke-width: 2; stroke-linecap: square"/>
  </g>
  <g id="line2d_19">
   <path d="M 558.922 40.906 
L 536.85115 89.0756 
" style="fill: none; stroke: #000000; stroke-opacity: 0.5; stroke-width: 2; stroke-linecap: square"/>
  </g>
  <g id="line2d_20">
   <path d="M 529.4942 107.1392 
L 529.4942 137.2452 
" style="fill: none; stroke: #000000; stroke-opacity: 0.5; stroke-width: 2; stroke-linecap: square"/>
  </g>
 </g>
 <defs>
  <clipPath id="pfff9ee0d9c">
   <rect x="117.505" y="10.8" width="735.695" height="602.12"/>
  </clipPath>
 </defs>
</svg>
