<?xml version="1.0" encoding="utf-8" standalone="no"?>
<!DOCTYPE svg PUBLIC "-//W3C//DTD SVG 1.1//EN"
  "http://www.w3.org/Graphics/SVG/1.1/DTD/svg11.dtd">
<svg xmlns:xlink="http://www.w3.org/1999/xlink" width="864pt" height="648pt" viewBox="0 0 864 648" xmlns="http://www.w3.org/2000/svg" version="1.1">
 <metadata>
  <rdf:RDF xmlns:dc="http://purl.org/dc/elements/1.1/" xmlns:cc="http://creativecommons.org/ns#" xmlns:rdf="http://www.w3.org/1999/02/22-rdf-syntax-ns#">
   <cc:Work>
    <dc:type rdf:resource="http://purl.org/dc/dcmitype/StillImage"/>
    <dc:date>2024-10-29T12:55:36.048831</dc:date>
    <dc:format>image/svg+xml</dc:format>
    <dc:creator>
     <cc:Agent>
      <dc:title>Matplotlib v3.9.2, https://matplotlib.org/</dc:title>
     </cc:Agent>
    </dc:creator>
   </cc:Work>
  </rdf:RDF>
 </metadata>
 <defs>
  <style type="text/css">*{stroke-linejoin: round; stroke-linecap: butt}</style>
 </defs>
 <g id="figure_1">
  <g id="patch_1">
   <path d="M 0 648 
L 864 648 
L 864 0 
L 0 0 
z
" style="fill: #ffffff"/>
  </g>
  <g id="axes_1">
   <g id="patch_2">
    <path d="M 134.155 612.92 
L 847.629633 612.92 
L 847.629633 17.64 
L 134.155 17.64 
z
" style="fill: #ffffff"/>
   </g>
   <g id="matplotlib.axis_1">
    <g id="xtick_1">
     <g id="line2d_1">
      <defs>
       <path id="m8d6812db22" d="M 0 0 
L 0 3.5 
" style="stroke: #000000; stroke-width: 0.8"/>
      </defs>
      <g>
       <use xlink:href="#m8d6812db22" x="229.262935" y="612.92" style="stroke: #000000; stroke-width: 0.8"/>
      </g>
     </g>
     <g id="text_1">
      <!-- 2021-04-19 -->
      <g transform="translate(179.051035 633.0501) scale(0.1728 -0.1728)">
       <defs>
        <path id="DejaVuSans-32" d="M 1228 531 
L 3431 531 
L 3431 0 
L 469 0 
L 469 531 
Q 828 903 1448 1529 
Q 2069 2156 2228 2338 
Q 2531 2678 2651 2914 
Q 2772 3150 2772 3378 
Q 2772 3750 2511 3984 
Q 2250 4219 1831 4219 
Q 1534 4219 1204 4116 
Q 875 4013 500 3803 
L 500 4441 
Q 881 4594 1212 4672 
Q 1544 4750 1819 4750 
Q 2544 4750 2975 4387 
Q 3406 4025 3406 3419 
Q 3406 3131 3298 2873 
Q 3191 2616 2906 2266 
Q 2828 2175 2409 1742 
Q 1991 1309 1228 531 
z
" transform="scale(0.015625)"/>
        <path id="DejaVuSans-30" d="M 2034 4250 
Q 1547 4250 1301 3770 
Q 1056 3291 1056 2328 
Q 1056 1369 1301 889 
Q 1547 409 2034 409 
Q 2525 409 2770 889 
Q 3016 1369 3016 2328 
Q 3016 3291 2770 3770 
Q 2525 4250 2034 4250 
z
M 2034 4750 
Q 2819 4750 3233 4129 
Q 3647 3509 3647 2328 
Q 3647 1150 3233 529 
Q 2819 -91 2034 -91 
Q 1250 -91 836 529 
Q 422 1150 422 2328 
Q 422 3509 836 4129 
Q 1250 4750 2034 4750 
z
" transform="scale(0.015625)"/>
        <path id="DejaVuSans-31" d="M 794 531 
L 1825 531 
L 1825 4091 
L 703 3866 
L 703 4441 
L 1819 4666 
L 2450 4666 
L 2450 531 
L 3481 531 
L 3481 0 
L 794 0 
L 794 531 
z
" transform="scale(0.015625)"/>
        <path id="DejaVuSans-2d" d="M 313 2009 
L 1997 2009 
L 1997 1497 
L 313 1497 
L 313 2009 
z
" transform="scale(0.015625)"/>
        <path id="DejaVuSans-34" d="M 2419 4116 
L 825 1625 
L 2419 1625 
L 2419 4116 
z
M 2253 4666 
L 3047 4666 
L 3047 1625 
L 3713 1625 
L 3713 1100 
L 3047 1100 
L 3047 0 
L 2419 0 
L 2419 1100 
L 313 1100 
L 313 1709 
L 2253 4666 
z
" transform="scale(0.015625)"/>
        <path id="DejaVuSans-39" d="M 703 97 
L 703 672 
Q 941 559 1184 500 
Q 1428 441 1663 441 
Q 2288 441 2617 861 
Q 2947 1281 2994 2138 
Q 2813 1869 2534 1725 
Q 2256 1581 1919 1581 
Q 1219 1581 811 2004 
Q 403 2428 403 3163 
Q 403 3881 828 4315 
Q 1253 4750 1959 4750 
Q 2769 4750 3195 4129 
Q 3622 3509 3622 2328 
Q 3622 1225 3098 567 
Q 2575 -91 1691 -91 
Q 1453 -91 1209 -44 
Q 966 3 703 97 
z
M 1959 2075 
Q 2384 2075 2632 2365 
Q 2881 2656 2881 3163 
Q 2881 3666 2632 3958 
Q 2384 4250 1959 4250 
Q 1534 4250 1286 3958 
Q 1038 3666 1038 3163 
Q 1038 2656 1286 2365 
Q 1534 2075 1959 2075 
z
" transform="scale(0.015625)"/>
       </defs>
       <use xlink:href="#DejaVuSans-32"/>
       <use xlink:href="#DejaVuSans-30" x="63.623047"/>
       <use xlink:href="#DejaVuSans-32" x="127.246094"/>
       <use xlink:href="#DejaVuSans-31" x="190.869141"/>
       <use xlink:href="#DejaVuSans-2d" x="254.492188"/>
       <use xlink:href="#DejaVuSans-30" x="290.576172"/>
       <use xlink:href="#DejaVuSans-34" x="354.199219"/>
       <use xlink:href="#DejaVuSans-2d" x="417.822266"/>
       <use xlink:href="#DejaVuSans-31" x="453.90625"/>
       <use xlink:href="#DejaVuSans-39" x="517.529297"/>
      </g>
     </g>
    </g>
    <g id="xtick_2">
     <g id="line2d_2">
      <g>
       <use xlink:href="#m8d6812db22" x="419.478806" y="612.92" style="stroke: #000000; stroke-width: 0.8"/>
      </g>
     </g>
     <g id="text_2">
      <!-- 2021-04-27 -->
      <g transform="translate(369.266906 633.0501) scale(0.1728 -0.1728)">
       <defs>
        <path id="DejaVuSans-37" d="M 525 4666 
L 3525 4666 
L 3525 4397 
L 1831 0 
L 1172 0 
L 2766 4134 
L 525 4134 
L 525 4666 
z
" transform="scale(0.015625)"/>
       </defs>
       <use xlink:href="#DejaVuSans-32"/>
       <use xlink:href="#DejaVuSans-30" x="63.623047"/>
       <use xlink:href="#DejaVuSans-32" x="127.246094"/>
       <use xlink:href="#DejaVuSans-31" x="190.869141"/>
       <use xlink:href="#DejaVuSans-2d" x="254.492188"/>
       <use xlink:href="#DejaVuSans-30" x="290.576172"/>
       <use xlink:href="#DejaVuSans-34" x="354.199219"/>
       <use xlink:href="#DejaVuSans-2d" x="417.822266"/>
       <use xlink:href="#DejaVuSans-32" x="453.90625"/>
       <use xlink:href="#DejaVuSans-37" x="517.529297"/>
      </g>
     </g>
    </g>
    <g id="xtick_3">
     <g id="line2d_3">
      <g>
       <use xlink:href="#m8d6812db22" x="609.694677" y="612.92" style="stroke: #000000; stroke-width: 0.8"/>
      </g>
     </g>
     <g id="text_3">
      <!-- 2021-05-05 -->
      <g transform="translate(559.482777 633.0501) scale(0.1728 -0.1728)">
       <defs>
        <path id="DejaVuSans-35" d="M 691 4666 
L 3169 4666 
L 3169 4134 
L 1269 4134 
L 1269 2991 
Q 1406 3038 1543 3061 
Q 1681 3084 1819 3084 
Q 2600 3084 3056 2656 
Q 3513 2228 3513 1497 
Q 3513 744 3044 326 
Q 2575 -91 1722 -91 
Q 1428 -91 1123 -41 
Q 819 9 494 109 
L 494 744 
Q 775 591 1075 516 
Q 1375 441 1709 441 
Q 2250 441 2565 725 
Q 2881 1009 2881 1497 
Q 2881 1984 2565 2268 
Q 2250 2553 1709 2553 
Q 1456 2553 1204 2497 
Q 953 2441 691 2322 
L 691 4666 
z
" transform="scale(0.015625)"/>
       </defs>
       <use xlink:href="#DejaVuSans-32"/>
       <use xlink:href="#DejaVuSans-30" x="63.623047"/>
       <use xlink:href="#DejaVuSans-32" x="127.246094"/>
       <use xlink:href="#DejaVuSans-31" x="190.869141"/>
       <use xlink:href="#DejaVuSans-2d" x="254.492188"/>
       <use xlink:href="#DejaVuSans-30" x="290.576172"/>
       <use xlink:href="#DejaVuSans-35" x="354.199219"/>
       <use xlink:href="#DejaVuSans-2d" x="417.822266"/>
       <use xlink:href="#DejaVuSans-30" x="453.90625"/>
       <use xlink:href="#DejaVuSans-35" x="517.529297"/>
      </g>
     </g>
    </g>
    <g id="xtick_4">
     <g id="line2d_4">
      <g>
       <use xlink:href="#m8d6812db22" x="799.910548" y="612.92" style="stroke: #000000; stroke-width: 0.8"/>
      </g>
     </g>
     <g id="text_4">
      <!-- 2021-05-13 -->
      <g transform="translate(749.698648 633.0501) scale(0.1728 -0.1728)">
       <defs>
        <path id="DejaVuSans-33" d="M 2597 2516 
Q 3050 2419 3304 2112 
Q 3559 1806 3559 1356 
Q 3559 666 3084 287 
Q 2609 -91 1734 -91 
Q 1441 -91 1130 -33 
Q 819 25 488 141 
L 488 750 
Q 750 597 1062 519 
Q 1375 441 1716 441 
Q 2309 441 2620 675 
Q 2931 909 2931 1356 
Q 2931 1769 2642 2001 
Q 2353 2234 1838 2234 
L 1294 2234 
L 1294 2753 
L 1863 2753 
Q 2328 2753 2575 2939 
Q 2822 3125 2822 3475 
Q 2822 3834 2567 4026 
Q 2313 4219 1838 4219 
Q 1578 4219 1281 4162 
Q 984 4106 628 3988 
L 628 4550 
Q 988 4650 1302 4700 
Q 1616 4750 1894 4750 
Q 2613 4750 3031 4423 
Q 3450 4097 3450 3541 
Q 3450 3153 3228 2886 
Q 3006 2619 2597 2516 
z
" transform="scale(0.015625)"/>
       </defs>
       <use xlink:href="#DejaVuSans-32"/>
       <use xlink:href="#DejaVuSans-30" x="63.623047"/>
       <use xlink:href="#DejaVuSans-32" x="127.246094"/>
       <use xlink:href="#DejaVuSans-31" x="190.869141"/>
       <use xlink:href="#DejaVuSans-2d" x="254.492188"/>
       <use xlink:href="#DejaVuSans-30" x="290.576172"/>
       <use xlink:href="#DejaVuSans-35" x="354.199219"/>
       <use xlink:href="#DejaVuSans-2d" x="417.822266"/>
       <use xlink:href="#DejaVuSans-31" x="453.90625"/>
       <use xlink:href="#DejaVuSans-33" x="517.529297"/>
      </g>
     </g>
    </g>
   </g>
   <g id="matplotlib.axis_2">
    <g id="ytick_1">
     <g id="line2d_5">
      <defs>
       <path id="md9b78a1327" d="M 0 0 
L -3.5 0 
" style="stroke: #000000; stroke-width: 0.8"/>
      </defs>
      <g>
       <use xlink:href="#md9b78a1327" x="134.155" y="612.92" style="stroke: #000000; stroke-width: 0.8"/>
      </g>
     </g>
     <g id="text_5">
      <!-- −1.0 -->
      <g transform="translate(85.1943 619.48505) scale(0.1728 -0.1728)">
       <defs>
        <path id="DejaVuSans-2212" d="M 678 2272 
L 4684 2272 
L 4684 1741 
L 678 1741 
L 678 2272 
z
" transform="scale(0.015625)"/>
        <path id="DejaVuSans-2e" d="M 684 794 
L 1344 794 
L 1344 0 
L 684 0 
L 684 794 
z
" transform="scale(0.015625)"/>
       </defs>
       <use xlink:href="#DejaVuSans-2212"/>
       <use xlink:href="#DejaVuSans-31" x="83.789062"/>
       <use xlink:href="#DejaVuSans-2e" x="147.412109"/>
       <use xlink:href="#DejaVuSans-30" x="179.199219"/>
      </g>
     </g>
    </g>
    <g id="ytick_2">
     <g id="line2d_6">
      <g>
       <use xlink:href="#md9b78a1327" x="134.155" y="493.864" style="stroke: #000000; stroke-width: 0.8"/>
      </g>
     </g>
     <g id="text_6">
      <!-- −0.5 -->
      <g transform="translate(85.1943 500.42905) scale(0.1728 -0.1728)">
       <use xlink:href="#DejaVuSans-2212"/>
       <use xlink:href="#DejaVuSans-30" x="83.789062"/>
       <use xlink:href="#DejaVuSans-2e" x="147.412109"/>
       <use xlink:href="#DejaVuSans-35" x="179.199219"/>
      </g>
     </g>
    </g>
    <g id="ytick_3">
     <g id="line2d_7">
      <g>
       <use xlink:href="#md9b78a1327" x="134.155" y="374.808" style="stroke: #000000; stroke-width: 0.8"/>
      </g>
     </g>
     <g id="text_7">
      <!-- 0.0 -->
      <g transform="translate(99.6744 381.37305) scale(0.1728 -0.1728)">
       <use xlink:href="#DejaVuSans-30"/>
       <use xlink:href="#DejaVuSans-2e" x="63.623047"/>
       <use xlink:href="#DejaVuSans-30" x="95.410156"/>
      </g>
     </g>
    </g>
    <g id="ytick_4">
     <g id="line2d_8">
      <g>
       <use xlink:href="#md9b78a1327" x="134.155" y="255.752" style="stroke: #000000; stroke-width: 0.8"/>
      </g>
     </g>
     <g id="text_8">
      <!-- 0.5 -->
      <g transform="translate(99.6744 262.31705) scale(0.1728 -0.1728)">
       <use xlink:href="#DejaVuSans-30"/>
       <use xlink:href="#DejaVuSans-2e" x="63.623047"/>
       <use xlink:href="#DejaVuSans-35" x="95.410156"/>
      </g>
     </g>
    </g>
    <g id="ytick_5">
     <g id="line2d_9">
      <g>
       <use xlink:href="#md9b78a1327" x="134.155" y="136.696" style="stroke: #000000; stroke-width: 0.8"/>
      </g>
     </g>
     <g id="text_9">
      <!-- 1.0 -->
      <g transform="translate(99.6744 143.26105) scale(0.1728 -0.1728)">
       <use xlink:href="#DejaVuSans-31"/>
       <use xlink:href="#DejaVuSans-2e" x="63.623047"/>
       <use xlink:href="#DejaVuSans-30" x="95.410156"/>
      </g>
     </g>
    </g>
    <g id="ytick_6">
     <g id="line2d_10">
      <g>
       <use xlink:href="#md9b78a1327" x="134.155" y="17.64" style="stroke: #000000; stroke-width: 0.8"/>
      </g>
     </g>
     <g id="text_10">
      <!-- 1.5 -->
      <g transform="translate(99.6744 24.20505) scale(0.1728 -0.1728)">
       <use xlink:href="#DejaVuSans-31"/>
       <use xlink:href="#DejaVuSans-2e" x="63.623047"/>
       <use xlink:href="#DejaVuSans-35" x="95.410156"/>
      </g>
     </g>
    </g>
    <g id="text_11">
     <!-- Node 8 -->
     <g transform="translate(24.39945 292.33648) scale(0.1728 -0.1728)">
      <defs>
       <path id="DejaVuSans-4e" d="M 628 4666 
L 1478 4666 
L 3547 763 
L 3547 4666 
L 4159 4666 
L 4159 0 
L 3309 0 
L 1241 3903 
L 1241 0 
L 628 0 
L 628 4666 
z
" transform="scale(0.015625)"/>
       <path id="DejaVuSans-6f" d="M 1959 3097 
Q 1497 3097 1228 2736 
Q 959 2375 959 1747 
Q 959 1119 1226 758 
Q 1494 397 1959 397 
Q 2419 397 2687 759 
Q 2956 1122 2956 1747 
Q 2956 2369 2687 2733 
Q 2419 3097 1959 3097 
z
M 1959 3584 
Q 2709 3584 3137 3096 
Q 3566 2609 3566 1747 
Q 3566 888 3137 398 
Q 2709 -91 1959 -91 
Q 1206 -91 779 398 
Q 353 888 353 1747 
Q 353 2609 779 3096 
Q 1206 3584 1959 3584 
z
" transform="scale(0.015625)"/>
       <path id="DejaVuSans-64" d="M 2906 2969 
L 2906 4863 
L 3481 4863 
L 3481 0 
L 2906 0 
L 2906 525 
Q 2725 213 2448 61 
Q 2172 -91 1784 -91 
Q 1150 -91 751 415 
Q 353 922 353 1747 
Q 353 2572 751 3078 
Q 1150 3584 1784 3584 
Q 2172 3584 2448 3432 
Q 2725 3281 2906 2969 
z
M 947 1747 
Q 947 1113 1208 752 
Q 1469 391 1925 391 
Q 2381 391 2643 752 
Q 2906 1113 2906 1747 
Q 2906 2381 2643 2742 
Q 2381 3103 1925 3103 
Q 1469 3103 1208 2742 
Q 947 2381 947 1747 
z
" transform="scale(0.015625)"/>
       <path id="DejaVuSans-65" d="M 3597 1894 
L 3597 1613 
L 953 1613 
Q 991 1019 1311 708 
Q 1631 397 2203 397 
Q 2534 397 2845 478 
Q 3156 559 3463 722 
L 3463 178 
Q 3153 47 2828 -22 
Q 2503 -91 2169 -91 
Q 1331 -91 842 396 
Q 353 884 353 1716 
Q 353 2575 817 3079 
Q 1281 3584 2069 3584 
Q 2775 3584 3186 3129 
Q 3597 2675 3597 1894 
z
M 3022 2063 
Q 3016 2534 2758 2815 
Q 2500 3097 2075 3097 
Q 1594 3097 1305 2825 
Q 1016 2553 972 2059 
L 3022 2063 
z
" transform="scale(0.015625)"/>
       <path id="DejaVuSans-20" transform="scale(0.015625)"/>
       <path id="DejaVuSans-38" d="M 2034 2216 
Q 1584 2216 1326 1975 
Q 1069 1734 1069 1313 
Q 1069 891 1326 650 
Q 1584 409 2034 409 
Q 2484 409 2743 651 
Q 3003 894 3003 1313 
Q 3003 1734 2745 1975 
Q 2488 2216 2034 2216 
z
M 1403 2484 
Q 997 2584 770 2862 
Q 544 3141 544 3541 
Q 544 4100 942 4425 
Q 1341 4750 2034 4750 
Q 2731 4750 3128 4425 
Q 3525 4100 3525 3541 
Q 3525 3141 3298 2862 
Q 3072 2584 2669 2484 
Q 3125 2378 3379 2068 
Q 3634 1759 3634 1313 
Q 3634 634 3220 271 
Q 2806 -91 2034 -91 
Q 1263 -91 848 271 
Q 434 634 434 1313 
Q 434 1759 690 2068 
Q 947 2378 1403 2484 
z
M 1172 3481 
Q 1172 3119 1398 2916 
Q 1625 2713 2034 2713 
Q 2441 2713 2670 2916 
Q 2900 3119 2900 3481 
Q 2900 3844 2670 4047 
Q 2441 4250 2034 4250 
Q 1625 4250 1398 4047 
Q 1172 3844 1172 3481 
z
" transform="scale(0.015625)"/>
      </defs>
      <use xlink:href="#DejaVuSans-4e"/>
      <use xlink:href="#DejaVuSans-6f" x="74.804688"/>
      <use xlink:href="#DejaVuSans-64" x="135.986328"/>
      <use xlink:href="#DejaVuSans-65" x="199.462891"/>
      <use xlink:href="#DejaVuSans-20" x="260.986328"/>
      <use xlink:href="#DejaVuSans-38" x="292.773438"/>
     </g>
     <!-- Depth (m) -->
     <g transform="translate(10.9737 311.6863) scale(0.1728 -0.1728)">
      <defs>
       <path id="DejaVuSans-44" d="M 1259 4147 
L 1259 519 
L 2022 519 
Q 2988 519 3436 956 
Q 3884 1394 3884 2338 
Q 3884 3275 3436 3711 
Q 2988 4147 2022 4147 
L 1259 4147 
z
M 628 4666 
L 1925 4666 
Q 3281 4666 3915 4102 
Q 4550 3538 4550 2338 
Q 4550 1131 3912 565 
Q 3275 0 1925 0 
L 628 0 
L 628 4666 
z
" transform="scale(0.015625)"/>
       <path id="DejaVuSans-70" d="M 1159 525 
L 1159 -1331 
L 581 -1331 
L 581 3500 
L 1159 3500 
L 1159 2969 
Q 1341 3281 1617 3432 
Q 1894 3584 2278 3584 
Q 2916 3584 3314 3078 
Q 3713 2572 3713 1747 
Q 3713 922 3314 415 
Q 2916 -91 2278 -91 
Q 1894 -91 1617 61 
Q 1341 213 1159 525 
z
M 3116 1747 
Q 3116 2381 2855 2742 
Q 2594 3103 2138 3103 
Q 1681 3103 1420 2742 
Q 1159 2381 1159 1747 
Q 1159 1113 1420 752 
Q 1681 391 2138 391 
Q 2594 391 2855 752 
Q 3116 1113 3116 1747 
z
" transform="scale(0.015625)"/>
       <path id="DejaVuSans-74" d="M 1172 4494 
L 1172 3500 
L 2356 3500 
L 2356 3053 
L 1172 3053 
L 1172 1153 
Q 1172 725 1289 603 
Q 1406 481 1766 481 
L 2356 481 
L 2356 0 
L 1766 0 
Q 1100 0 847 248 
Q 594 497 594 1153 
L 594 3053 
L 172 3053 
L 172 3500 
L 594 3500 
L 594 4494 
L 1172 4494 
z
" transform="scale(0.015625)"/>
       <path id="DejaVuSans-68" d="M 3513 2113 
L 3513 0 
L 2938 0 
L 2938 2094 
Q 2938 2591 2744 2837 
Q 2550 3084 2163 3084 
Q 1697 3084 1428 2787 
Q 1159 2491 1159 1978 
L 1159 0 
L 581 0 
L 581 4863 
L 1159 4863 
L 1159 2956 
Q 1366 3272 1645 3428 
Q 1925 3584 2291 3584 
Q 2894 3584 3203 3211 
Q 3513 2838 3513 2113 
z
" transform="scale(0.015625)"/>
       <path id="DejaVuSans-28" d="M 1984 4856 
Q 1566 4138 1362 3434 
Q 1159 2731 1159 2009 
Q 1159 1288 1364 580 
Q 1569 -128 1984 -844 
L 1484 -844 
Q 1016 -109 783 600 
Q 550 1309 550 2009 
Q 550 2706 781 3412 
Q 1013 4119 1484 4856 
L 1984 4856 
z
" transform="scale(0.015625)"/>
       <path id="DejaVuSans-6d" d="M 3328 2828 
Q 3544 3216 3844 3400 
Q 4144 3584 4550 3584 
Q 5097 3584 5394 3201 
Q 5691 2819 5691 2113 
L 5691 0 
L 5113 0 
L 5113 2094 
Q 5113 2597 4934 2840 
Q 4756 3084 4391 3084 
Q 3944 3084 3684 2787 
Q 3425 2491 3425 1978 
L 3425 0 
L 2847 0 
L 2847 2094 
Q 2847 2600 2669 2842 
Q 2491 3084 2119 3084 
Q 1678 3084 1418 2786 
Q 1159 2488 1159 1978 
L 1159 0 
L 581 0 
L 581 3500 
L 1159 3500 
L 1159 2956 
Q 1356 3278 1631 3431 
Q 1906 3584 2284 3584 
Q 2666 3584 2933 3390 
Q 3200 3197 3328 2828 
z
" transform="scale(0.015625)"/>
       <path id="DejaVuSans-29" d="M 513 4856 
L 1013 4856 
Q 1481 4119 1714 3412 
Q 1947 2706 1947 2009 
Q 1947 1309 1714 600 
Q 1481 -109 1013 -844 
L 513 -844 
Q 928 -128 1133 580 
Q 1338 1288 1338 2009 
Q 1338 2731 1133 3434 
Q 928 4138 513 4856 
z
" transform="scale(0.015625)"/>
      </defs>
      <use xlink:href="#DejaVuSans-44"/>
      <use xlink:href="#DejaVuSans-65" x="77.001953"/>
      <use xlink:href="#DejaVuSans-70" x="138.525391"/>
      <use xlink:href="#DejaVuSans-74" x="202.001953"/>
      <use xlink:href="#DejaVuSans-68" x="241.210938"/>
      <use xlink:href="#DejaVuSans-20" x="304.589844"/>
      <use xlink:href="#DejaVuSans-28" x="336.376953"/>
      <use xlink:href="#DejaVuSans-6d" x="375.390625"/>
      <use xlink:href="#DejaVuSans-29" x="472.802734"/>
     </g>
    </g>
   </g>
   <g id="line2d_11">
    <path d="M 134.072441 215.454224 
L 134.98059 215.919678 
M 135.145708 215.961989 
L 139.108538 217.873198 
M 139.273656 217.915684 
L 140.429482 218.500032 
M 140.5946 218.542581 
L 142.245779 219.273124 
L 142.410897 218.16443 
L 142.658574 216.464028 
L 142.906251 215.924741 
L 143.236487 215.609309 
L 143.896959 211.868335 
L 144.227195 211.721931 
L 144.639989 211.834773 
L 145.465579 212.291325 
L 145.630697 211.190428 
L 145.878374 209.597176 
L 146.20861 209.00249 
L 146.291169 207.630379 
M 146.456287 206.751479 
L 146.786523 203.885257 
L 147.0342 198.843494 
L 147.281876 197.769633 
L 147.446994 197.444251 
L 147.942348 194.478202 
L 148.190025 194.380438 
L 148.437702 194.532341 
L 148.520261 194.696041 
M 148.685379 194.793362 
L 148.767938 194.996663 
M 148.933056 195.109402 
L 150.666794 197.752704 
L 153.308681 201.882156 
L 153.721476 202.624348 
M 153.886594 202.755646 
L 158.014543 208.768498 
M 158.179661 208.886589 
L 161.48202 213.25404 
M 161.647138 213.362115 
L 163.380876 215.541047 
M 163.545994 215.644861 
L 168.251855 220.832212 
L 168.499532 221.164225 
M 168.66465 221.254493 
L 173.453071 225.949555 
M 173.618188 226.030687 
L 175.92984 228.137689 
M 176.094958 228.213432 
L 179.562434 231.13924 
M 179.727552 231.209398 
L 180.305465 231.726213 
M 180.470583 231.795641 
L 181.048496 232.304989 
M 181.213614 232.373378 
L 186.414829 236.26689 
M 186.579947 236.329309 
L 187.570655 237.07725 
M 187.735773 237.139425 
L 189.964865 238.716234 
M 190.129983 238.776403 
L 190.37766 238.993926 
M 190.542778 239.053291 
L 194.010254 241.384061 
M 194.175372 241.441994 
L 194.835844 241.915564 
M 195.000962 241.973082 
L 198.633557 244.316727 
M 198.798675 244.371898 
L 199.871941 245.086927 
M 200.037059 245.142442 
L 202.43127 246.663394 
M 202.596388 246.718376 
L 204.165008 247.72213 
M 204.330126 247.7768 
L 206.3941 249.075653 
M 206.559218 249.129321 
L 207.715044 249.874741 
M 207.880162 249.92881 
L 216.301177 255.011462 
L 216.383736 255.109826 
M 216.548854 255.163588 
L 218.695387 256.513679 
M 218.860505 256.568426 
L 221.584951 258.27891 
M 221.750069 258.333991 
L 228.932699 262.790677 
L 229.015258 262.892937 
M 229.180376 262.948996 
L 235.867653 267.222904 
L 236.280448 267.539731 
M 236.445566 267.597482 
L 237.353715 268.239419 
M 237.518833 268.297599 
L 238.426981 268.942895 
M 238.592099 269.001381 
L 241.151427 270.745192 
M 241.316545 270.805075 
L 241.72934 271.130754 
M 241.894458 271.190206 
L 242.224694 271.462261 
M 242.389812 271.522657 
L 243.958432 272.62868 
M 244.12355 272.68876 
L 249.655001 276.481751 
L 249.73756 276.5952 
M 249.902678 276.657495 
L 250.315473 276.998681 
M 250.480591 277.061609 
L 252.709683 278.684109 
M 252.874801 278.748008 
L 253.370155 279.152831 
M 253.535273 279.21626 
L 254.60854 280.036693 
M 254.773658 280.100733 
L 257.167868 281.882731 
M 257.332986 281.947533 
L 258.488811 282.845885 
M 258.653929 282.911129 
L 259.809755 283.816528 
M 259.974873 283.882238 
L 262.534201 285.841506 
M 262.699319 285.908591 
L 263.937703 286.897125 
M 264.102821 286.96476 
L 265.093529 287.598741 
L 265.258647 285.141046 
L 265.506324 281.426095 
L 265.919119 278.704073 
L 266.249355 273.313288 
L 266.414473 271.180626 
L 266.744709 265.985039 
L 266.909826 264.070831 
L 267.570298 252.712387 
L 268.065652 247.799505 
L 268.313329 247.626935 
L 268.478447 245.917157 
L 268.973801 239.114418 
L 269.138919 238.930306 
L 269.304037 238.925845 
L 269.469155 237.386329 
L 269.964508 231.367161 
L 270.129626 231.286059 
L 270.212185 231.52312 
M 270.377303 231.715981 
L 270.872657 233.240605 
L 271.698247 236.339258 
L 271.780806 236.970822 
M 271.945924 237.302947 
L 272.028483 237.94091 
M 272.193601 238.268333 
L 274.340134 247.002228 
M 274.505252 247.342078 
L 278.385524 261.995854 
M 278.550641 262.298143 
L 280.532057 269.082043 
L 281.027411 270.957196 
M 281.192529 271.235682 
L 282.843708 276.447115 
L 283.008826 277.186538 
M 283.173944 277.449456 
L 284.825123 282.498647 
M 284.990241 282.741539 
L 285.815831 285.022172 
L 285.89839 253.399279 
M 286.063508 228.163312 
L 286.311185 192.404569 
L 286.558862 181.694015 
L 286.72398 180.269917 
L 286.806539 180.173152 
L 286.971657 180.425754 
L 287.384451 182.017 
L 289.035631 190.594453 
L 289.365867 192.816054 
M 289.530985 193.288284 
L 291.842636 205.768249 
L 291.925195 206.618711 
M 292.090313 207.083872 
L 293.246138 213.267009 
L 293.328697 214.108498 
M 293.493815 214.575045 
L 293.90661 216.316497 
L 294.154287 215.389415 
L 294.236846 215.419291 
L 294.484523 216.049111 
L 294.979877 218.103025 
L 296.135702 223.806819 
L 297.374087 230.574467 
M 297.539205 231.021851 
L 298.612472 236.520912 
L 298.695031 237.332346 
M 298.860148 237.775766 
L 304.226482 264.626919 
M 304.3916 265.040435 
L 309.675374 288.716534 
L 311.243994 295.433523 
M 311.409112 295.780182 
L 311.491671 296.408121 
M 311.656789 296.75513 
L 312.564938 300.520979 
M 312.730056 300.851197 
L 313.638204 304.405175 
M 313.803322 304.709359 
L 315.61962 310.342859 
L 316.692886 313.199967 
L 317.270799 314.792461 
M 317.435917 314.997086 
L 317.848712 316.101563 
M 318.01383 316.293659 
L 319.912686 320.037883 
L 320.903394 321.710434 
L 322.472014 323.901938 
L 324.205753 325.833504 
L 324.866225 326.54135 
M 325.031343 326.622389 
L 327.177876 328.36322 
L 327.508112 328.658801 
M 327.67323 328.721868 
L 330.562794 330.562757 
L 332.131414 331.492942 
M 332.296532 331.54128 
L 332.874445 331.894152 
M 333.039563 331.941249 
L 337.167511 334.073783 
M 337.332629 334.117469 
L 337.580306 334.275239 
M 337.745424 334.318334 
L 338.818691 334.873538 
M 338.983809 334.916495 
L 348.230414 339.25481 
M 348.395531 339.295837 
L 348.808326 339.517459 
M 348.973444 339.557963 
L 351.037419 340.525055 
M 351.202537 340.565146 
L 352.193244 341.04425 
M 352.358362 341.084297 
L 352.771157 341.302966 
M 352.936275 341.343309 
L 354.670013 342.149292 
M 354.835131 342.189056 
L 355.330485 342.442261 
M 355.495603 342.482186 
L 358.96308 344.04122 
M 359.128198 344.080292 
L 359.706111 344.365827 
M 359.871229 344.405312 
L 359.953788 344.07492 
L 360.118905 337.097394 
L 360.366582 328.614458 
L 360.614259 326.548704 
L 360.861936 326.167202 
L 361.027054 326.308645 
L 361.35729 327.059236 
L 362.017762 329.265527 
L 362.843352 332.279321 
L 362.925911 332.21585 
L 363.091028 326.959636 
L 363.338705 320.218499 
L 363.503823 316.017212 
L 363.7515 307.104674 
L 363.999177 305.294908 
L 364.081736 305.25711 
L 364.164295 304.898112 
L 364.57709 296.017825 
M 364.742208 295.963059 
L 364.907326 296.293424 
L 365.237562 297.79038 
L 365.732916 300.937061 
L 365.815475 302.080512 
M 365.980592 302.72603 
L 367.549213 314.426938 
M 367.714331 315.029682 
L 368.705039 321.889722 
M 368.870156 322.43121 
L 369.282951 325.297219 
M 369.448069 325.808237 
L 370.851572 332.995673 
L 372.007397 338.108249 
M 372.172515 338.439467 
L 372.832987 340.916305 
M 372.998105 341.191848 
L 374.071372 344.090046 
L 375.144638 346.31876 
L 376.217905 348.00717 
L 377.373731 349.36663 
L 378.612115 350.454721 
L 378.859792 350.696753 
M 379.02491 350.760257 
L 380.59353 351.71638 
L 381.914474 352.389382 
M 382.079592 352.428772 
L 383.895889 353.184758 
M 384.061007 353.218354 
L 387.363366 354.36086 
M 387.528484 354.389425 
L 393.390171 356.152687 
M 393.555289 356.176267 
L 397.187884 357.213122 
M 397.353002 357.235937 
L 399.334417 357.796644 
M 399.499535 357.819021 
L 401.233273 358.303969 
M 401.398391 358.326069 
L 402.636776 358.674352 
M 402.801894 358.696195 
L 404.040278 359.040714 
M 404.205396 359.062371 
L 405.196104 359.33991 
M 405.361222 359.361427 
L 408.415904 360.161088 
M 408.581022 360.182055 
L 409.324053 360.389763 
M 409.489171 360.410752 
L 410.232201 360.616998 
M 410.397319 360.63778 
L 411.057791 360.822613 
M 411.222909 360.843377 
L 413.452001 361.412585 
M 413.617119 361.432964 
L 415.598534 361.93411 
M 415.763652 361.95433 
L 416.341565 362.113008 
M 416.506683 362.133192 
L 418.240422 362.566398 
M 418.405539 362.586295 
L 422.946283 363.666271 
M 423.111401 363.685664 
L 425.505611 364.250448 
M 425.670729 364.269284 
L 427.817262 364.770132 
M 427.98238 364.790247 
L 429.63356 365.172144 
M 429.798678 365.191868 
L 430.211472 365.299137 
M 430.37659 365.318881 
L 439.540636 367.277149 
M 439.705754 367.295244 
L 441.191816 367.613001 
M 441.356934 367.6308 
L 451.511687 369.614463 
M 451.676805 369.630908 
L 452.750072 369.82948 
L 452.832631 368.278108 
L 453.245426 341.928052 
L 453.493102 340.038312 
L 453.575661 339.996368 
L 453.740779 340.329363 
L 454.153574 342.497565 
L 454.896605 347.855687 
L 455.722195 354.749343 
M 455.887313 355.390574 
L 457.125697 363.378698 
L 457.70361 366.170675 
L 458.198964 367.958815 
L 458.859436 369.593201 
M 459.024554 369.721027 
L 459.602466 370.303599 
L 459.767584 370.455824 
M 459.932702 370.503084 
L 460.92341 370.857811 
L 463.565297 371.431447 
M 463.730415 371.448013 
L 464.556005 371.612977 
M 464.721123 371.629148 
L 465.629271 371.802727 
M 465.794389 371.818208 
L 468.188599 372.236656 
M 468.353717 372.251587 
L 469.75722 372.493246 
M 469.922338 372.507859 
L 471.078163 372.704921 
M 471.243281 372.719295 
L 471.32584 372.732045 
L 471.408399 370.217836 
L 471.656076 344.6804 
M 471.821194 342.665805 
L 472.068871 340.927263 
L 472.15143 340.082886 
L 472.399107 327.389854 
L 472.564225 313.054243 
M 472.729343 310.898834 
L 472.894461 309.626234 
L 472.97702 309.625281 
L 473.059579 309.856166 
L 473.142138 309.74003 
L 473.307256 305.667505 
L 473.802609 281.188556 
M 473.967727 279.837845 
L 474.54564 269.590163 
L 474.710758 270.045135 
L 475.123553 272.86276 
L 476.114261 282.180825 
L 476.609614 286.810021 
L 476.774732 281.227785 
L 477.104968 269.5246 
L 477.352645 262.556414 
L 477.682881 246.296596 
L 478.178235 242.468944 
L 478.260794 242.554836 
L 478.343353 242.603453 
L 478.425912 242.185841 
L 478.508471 240.797981 
M 478.673589 240.633282 
L 478.838707 241.086638 
L 479.251502 243.770016 
L 480.077091 250.758513 
L 480.15965 252.20822 
M 480.324768 252.968589 
L 480.655004 255.27819 
L 480.737563 254.832722 
L 480.902681 251.075363 
L 481.150358 244.798255 
L 481.232917 244.491828 
L 481.315476 244.542583 
L 481.563153 245.436682 
L 481.645712 245.19536 
L 481.81083 243.142232 
L 482.058507 234.797443 
L 482.306184 220.518975 
M 482.471301 218.870642 
L 482.636419 217.688329 
M 482.801537 217.757106 
L 482.966655 216.916396 
L 483.131773 216.463974 
L 483.296891 217.022148 
L 483.792245 220.356029 
L 484.287599 225.012608 
M 484.452717 225.7183 
L 486.846927 246.866386 
L 486.929486 248.341256 
M 487.094604 249.110655 
L 488.580665 263.765917 
M 488.745783 264.573917 
L 489.406255 271.776236 
M 489.571373 272.61339 
L 489.901609 276.708444 
M 490.066727 277.579883 
L 491.717906 295.991588 
M 491.883024 296.981328 
L 493.203968 312.541554 
L 493.534204 317.233558 
M 493.86444 320.076529 
L 494.937706 332.585132 
M 495.102824 333.489534 
L 497.331916 354.607485 
L 498.157506 361.379505 
M 498.322624 361.955348 
L 498.405183 361.705021 
L 498.65286 343.536306 
L 498.983096 322.23581 
L 499.230773 316.761794 
L 499.643568 296.643977 
M 499.808686 295.984335 
L 499.891245 295.838276 
L 500.056362 296.295661 
L 500.386598 298.621602 
L 500.469157 300.048843 
M 500.634275 300.882972 
L 501.542424 310.605502 
L 501.707542 313.293775 
M 501.87266 314.254188 
L 504.844783 345.828024 
M 505.009901 346.633815 
L 505.422696 351.044055 
M 505.587814 351.802938 
L 506.908757 361.844274 
L 507.569229 365.641663 
L 508.229701 368.252983 
L 508.725054 369.581126 
M 508.890172 369.719695 
L 509.385526 370.253722 
L 510.045998 370.577729 
L 511.201824 370.801201 
L 511.944854 370.904903 
M 512.109972 370.91547 
L 512.687885 370.991282 
M 512.853003 371.001287 
L 513.430916 371.074866 
M 513.596034 371.08473 
L 513.92627 371.129523 
M 514.091388 371.139282 
L 518.301895 371.587483 
M 518.467013 371.5965 
L 528.37409 372.536048 
M 528.539208 372.543902 
L 528.786885 372.572308 
M 528.952003 372.580189 
L 531.263654 372.786557 
M 531.428772 372.79428 
L 535.391602 373.129625 
M 535.55672 373.136814 
L 542.078879 373.648937 
M 542.243997 373.655832 
L 544.142853 373.800695 
M 544.307971 373.806934 
L 551.242925 374.290803 
M 551.408043 374.296764 
L 557.26973 374.669349 
M 557.434848 374.674327 
L 559.911617 374.793742 
M 560.076735 374.793518 
L 565.443068 374.79368 
L 565.608186 363.237642 
L 565.855863 344.969186 
L 565.938422 343.176132 
L 566.020981 337.373015 
M 566.186099 332.117676 
L 566.846571 279.966661 
M 567.011688 273.083204 
L 567.176806 264.260757 
M 567.341924 263.415003 
L 567.424483 263.210529 
L 567.507042 262.649125 
L 567.589601 260.428121 
L 567.67216 254.559503 
M 567.837278 252.118278 
L 568.250073 244.626939 
L 568.49775 244.035022 
L 568.910545 237.113633 
L 568.993104 236.975948 
L 569.32334 234.92277 
L 569.405899 235.078316 
L 569.488458 235.179199 
L 569.653576 234.19705 
L 570.06637 230.405281 
L 570.231488 230.831995 
L 570.479165 232.124416 
L 570.561724 232.050211 
L 570.809401 231.154179 
L 570.974519 231.739343 
L 571.222196 233.128416 
L 571.304755 233.068592 
L 571.469873 231.931356 
L 571.800109 229.176332 
L 571.965227 229.395721 
L 572.130345 228.520167 
L 572.54314 224.973475 
L 572.708258 225.40862 
L 573.121052 228.103964 
L 573.946642 234.945814 
L 574.276878 238.537866 
M 574.441996 239.301845 
L 576.258293 256.772509 
M 576.423411 257.591258 
L 577.909473 272.066535 
L 578.487386 278.755193 
M 578.652503 279.652311 
L 579.230416 284.747312 
L 579.395534 282.538027 
M 579.560652 282.53052 
L 579.72577 283.165654 
L 580.138565 286.166669 
L 581.37695 298.89223 
L 581.624626 302.69619 
M 581.789744 303.728872 
L 582.532775 313.354129 
M 582.697893 314.363354 
L 585.752575 346.953071 
L 586.330488 353.004352 
M 586.495606 353.780055 
L 587.73399 363.31213 
L 588.477021 367.397672 
L 588.55958 366.473261 
L 588.807257 343.017096 
L 589.632847 241.791168 
L 589.797965 240.966602 
L 589.963083 241.39391 
L 590.293318 243.428557 
L 591.036349 249.484506 
L 592.357293 261.438789 
L 595.246857 289.803883 
L 595.411975 284.295823 
L 595.577093 279.136113 
L 595.742211 278.305719 
L 595.82477 278.414831 
L 596.072447 279.640003 
L 596.485241 282.854498 
L 597.310831 290.815791 
L 597.39339 292.452014 
M 597.558508 293.36782 
L 598.466657 303.474757 
L 598.549216 305.307439 
M 598.714334 306.317827 
L 601.769016 338.808222 
L 603.502754 353.836211 
L 604.328344 359.579927 
L 605.236492 364.272497 
L 605.814405 366.306177 
L 606.392318 367.572849 
L 606.970231 368.272302 
L 607.465585 368.583733 
L 608.291174 368.807958 
L 609.694677 368.921521 
L 609.942354 368.935195 
M 610.107472 368.938613 
L 611.676092 368.991656 
M 611.84121 368.994251 
L 613.822625 369.050597 
M 613.987743 369.052903 
L 623.234348 369.262384 
M 623.399466 369.264104 
L 623.647143 369.270442 
M 623.812261 369.272192 
L 627.775092 369.346617 
M 627.94021 369.348174 
L 629.096035 369.369359 
M 629.261153 369.370864 
L 630.004184 369.384532 
M 630.169302 369.386049 
L 634.379809 369.452958 
M 634.544927 369.454283 
L 637.021696 369.490534 
M 637.186814 369.491772 
L 637.599609 369.498388 
M 637.764727 369.499563 
L 639.91126 369.528451 
M 640.076378 369.529561 
L 640.489173 369.535652 
M 640.654291 369.536748 
L 641.727558 369.550612 
M 641.892676 369.551658 
L 643.048501 369.565934 
M 643.213619 369.56693 
L 647.506686 369.612547 
M 647.671804 369.613414 
L 647.754363 368.001419 
L 648.167158 341.984493 
L 648.414835 340.051158 
L 648.497394 339.99251 
L 648.662511 340.311867 
L 648.74507 339.907089 
L 648.910188 332.892097 
L 649.488101 299.908865 
L 649.653219 297.650788 
L 649.735778 297.45003 
L 649.818337 297.544914 
L 649.983455 297.843839 
L 650.148573 294.827234 
L 651.056722 269.778866 
L 651.22184 269.350899 
L 651.386958 267.140003 
L 651.469516 265.130137 
L 651.552075 258.532267 
M 651.717193 254.500785 
L 652.047429 243.439383 
L 652.295106 242.178472 
L 652.542783 240.2607 
L 652.625342 240.354295 
L 652.873019 241.485873 
L 653.285814 244.40776 
L 653.368373 245.723511 
M 653.533491 246.428804 
L 654.524198 254.275337 
L 654.771875 253.154326 
L 654.936993 253.616866 
L 655.349788 256.25878 
L 656.918409 269.970782 
L 658.321911 283.464686 
L 659.725414 299.006579 
M 659.890532 299.989581 
L 660.716121 310.157906 
M 660.881239 311.131678 
L 663.275449 335.492516 
L 664.596393 347.460799 
M 664.761511 348.146616 
L 665.834778 356.003731 
M 665.999896 356.524109 
L 666.165013 357.864343 
M 666.330131 358.326605 
L 667.155721 361.932118 
L 667.733634 363.697653 
L 668.476665 365.237504 
M 668.641783 365.349841 
L 669.302254 365.939737 
L 669.384813 365.988358 
L 669.467372 352.843548 
M 669.63249 321.231727 
L 669.715049 281.153688 
M 669.880167 275.798371 
L 670.127844 272.615116 
L 670.210403 272.621611 
L 670.375521 273.184919 
L 670.705757 275.316759 
L 671.448788 281.634896 
L 672.0267 287.851524 
M 672.191818 288.721969 
L 672.356936 291.133725 
M 672.522054 292.036228 
L 673.925557 307.106574 
L 674.916264 318.37548 
M 675.081382 319.279828 
L 675.659295 325.800416 
M 675.824413 326.65767 
L 677.640711 342.834404 
L 678.961654 352.305058 
L 679.126772 353.781112 
M 679.29189 354.304374 
L 680.200039 358.832461 
L 680.777951 361.21374 
M 680.943069 361.481553 
L 681.603541 363.055175 
L 682.264013 364.059466 
L 682.924485 364.636268 
L 683.667515 364.982645 
L 684.245428 365.136767 
M 684.410546 365.151172 
L 685.153577 365.238058 
M 685.318695 365.24414 
L 686.557079 365.295834 
M 686.722197 365.297831 
L 687.960582 365.318721 
M 688.1257 365.319789 
L 689.446643 365.333915 
M 689.611761 365.334713 
L 692.501325 365.358623 
M 692.666443 365.359299 
L 692.996679 365.36231 
M 693.161797 365.362927 
L 694.069946 365.370006 
M 694.235064 365.370643 
L 695.143213 365.377466 
M 695.30833 365.378085 
L 698.52813 365.399916 
M 698.693248 365.40052 
L 703.481669 365.430676 
M 703.646787 365.431209 
L 705.545643 365.442954 
M 705.710761 365.443497 
L 706.206115 365.446845 
M 706.371233 365.447407 
L 708.435207 365.459759 
M 708.600325 365.460318 
L 713.966658 365.490861 
M 714.131776 365.491404 
L 715.039925 365.496776 
M 715.205043 365.497219 
L 718.920196 365.517712 
M 719.085314 365.518156 
L 720.158581 365.524267 
M 720.323699 365.524732 
L 721.06673 365.529043 
M 721.231848 365.529516 
L 725.85515 365.553824 
M 726.020268 365.554261 
L 730.148216 365.575426 
M 730.313334 365.575864 
L 733.945929 365.594086 
M 734.111047 365.594493 
L 734.523842 365.596891 
M 734.68896 365.597296 
L 735.101755 365.599683 
M 735.266873 365.600129 
L 736.587816 365.606819 
M 736.752934 365.607226 
L 736.918052 365.608416 
M 737.08317 365.608813 
L 737.826201 365.612711 
M 737.991319 365.613156 
L 738.156437 365.614266 
M 738.321555 365.614707 
L 743.109975 365.637422 
M 743.275093 365.637852 
L 744.183242 365.642335 
M 744.34836 365.642759 
L 747.072806 365.655466 
M 747.237924 365.65588 
L 747.815836 365.658793 
M 747.980954 365.659207 
L 750.870518 365.67236 
M 751.035636 365.672767 
L 752.026344 365.677454 
M 752.191462 365.677861 
L 757.392677 365.700563 
M 757.557795 365.700952 
L 757.805472 365.702342 
M 757.97059 365.702731 
L 761.768303 365.718914 
M 761.933421 365.719247 
L 762.676451 365.722644 
M 762.841569 365.723021 
L 766.886959 365.739783 
M 767.052077 365.740104 
L 767.382313 365.74172 
M 767.547431 365.742087 
L 768.37302 365.745678 
M 768.538138 365.746042 
L 769.363728 365.749637 
M 769.528846 365.749997 
L 770.84979 365.755487 
M 771.014907 365.755804 
L 773.491677 365.765748 
M 773.656795 365.7661 
L 774.564943 365.769906 
M 774.730061 365.770254 
L 775.060297 365.771794 
M 775.225415 365.772146 
L 779.601041 365.78892 
M 779.766158 365.789264 
L 781.995251 365.797802 
M 782.160369 365.798094 
L 782.655722 365.800181 
M 782.82084 365.800517 
L 784.554579 365.807118 
M 784.719697 365.80745 
L 786.618553 365.814527 
M 786.783671 365.814853 
L 787.279025 365.816897 
M 787.444143 365.817224 
L 788.022056 365.81953 
M 788.187174 365.819853 
L 790.994179 365.829979 
M 791.159297 365.830294 
L 794.213979 365.8411 
M 794.379096 365.841365 
L 795.947717 365.846947 
M 796.112835 365.847258 
L 796.773307 365.849735 
M 796.938425 365.850047 
L 798.672163 365.856099 
M 798.837281 365.856406 
L 799.74543 365.856824 
M 799.910548 365.856813 
L 800.736137 365.856663 
M 800.901255 365.856608 
L 805.35944 365.855948 
M 805.524558 365.855893 
L 808.001327 365.855559 
M 808.166445 365.85555 
L 809.569947 365.855356 
M 809.735065 365.855303 
L 813.037424 365.854862 
M 813.202542 365.854853 
L 815.018839 365.854594 
M 815.183957 365.854585 
L 817.743285 365.854287 
M 817.908403 365.85428 
L 821.210762 365.853867 
M 821.37588 365.853859 
L 831.200398 365.852852 
M 831.530634 365.852835 
L 835.163228 365.852494 
M 835.328346 365.852489 
L 838.135351 365.852214 
M 838.300469 365.852209 
L 840.199326 365.851999 
M 840.364444 365.851994 
L 843.584244 365.851778 
M 843.749362 365.851773 
L 845.152864 365.851643 
M 845.317982 365.851638 
L 846.473808 365.851523 
M 846.638926 365.851519 
L 847.712192 365.851432 
L 847.712192 365.851432 
" clip-path="url(#pa407f426fa)" style="fill: none; stroke: #000000; stroke-opacity: 0.6; stroke-width: 7; stroke-linecap: square"/>
   </g>
   <g id="line2d_12">
    <path d="M 143.708774 649 
L 143.731841 211.168237 
L 143.8144 212.426401 
L 146.291169 251.229617 
M 146.456287 252.474901 
L 148.520261 284.711602 
M 148.685379 285.946077 
L 148.767938 288.41383 
M 148.933056 289.647109 
L 150.006323 304.518595 
L 153.721476 309.155603 
M 153.886594 309.254093 
L 158.014543 314.147771 
M 158.179661 314.241202 
L 161.48202 317.988943 
M 161.647138 318.078336 
L 163.380876 319.98082 
M 163.545994 320.064162 
L 166.600676 322.98629 
L 168.499532 324.744936 
M 168.66465 324.816346 
L 172.792599 328.235591 
L 173.453071 328.824236 
M 173.618188 328.889207 
L 175.92984 330.738737 
M 176.094958 330.8014 
L 179.562434 333.436424 
M 179.727552 333.496463 
L 180.305465 333.974996 
M 180.470583 334.034597 
L 181.048496 334.509754 
M 181.213614 334.568949 
L 186.414829 338.283162 
M 186.579947 338.340284 
L 187.570655 339.081096 
M 187.735773 339.137956 
L 189.964865 340.724508 
M 190.129983 340.781017 
L 190.37766 341.00698 
M 190.542778 341.063453 
L 194.010254 343.4898 
M 194.175372 343.546273 
L 194.835844 344.054842 
M 195.000962 344.11139 
L 198.633557 346.66941 
M 198.798675 346.726648 
L 199.871941 347.530321 
M 200.037059 347.587905 
L 202.43127 349.32823 
M 202.596388 349.386711 
L 204.165008 350.563618 
M 204.330126 350.622848 
L 206.3941 352.177047 
M 206.559218 352.237404 
L 207.715044 353.148336 
M 207.880162 353.209449 
L 213.741849 357.689193 
L 216.383736 359.87265 
M 216.548854 359.939807 
L 218.695387 361.774663 
M 218.860505 361.843414 
L 221.584951 364.213956 
M 221.750069 364.284638 
L 227.859433 369.662143 
L 229.015258 370.786565 
M 229.180376 370.861927 
L 235.702535 376.969457 
L 236.280448 377.604462 
M 236.445566 377.684046 
L 237.353715 378.642643 
M 237.518833 378.722824 
L 238.426981 379.688551 
M 238.592099 379.769323 
L 241.151427 382.377701 
M 241.316545 382.459946 
L 241.72934 382.95434 
M 241.894458 383.036892 
L 242.224694 383.450312 
M 242.389812 383.533127 
L 243.958432 385.198545 
M 244.12355 385.28227 
L 249.655001 390.988172 
L 249.73756 391.161371 
M 249.902678 391.248032 
L 250.315473 391.768859 
M 250.480591 391.855807 
L 252.709683 394.306826 
M 252.874801 394.394948 
L 253.370155 395.012923 
M 253.535273 395.101365 
L 254.60854 396.343744 
M 254.773658 396.432783 
L 257.167868 399.122321 
M 257.332986 399.21258 
L 258.488811 400.571155 
M 258.653929 400.662037 
L 259.809755 402.029923 
M 259.974873 402.121425 
L 262.534201 405.069739 
M 262.699319 405.162505 
L 263.937703 406.651927 
M 264.102821 406.745338 
L 270.129626 413.662318 
L 270.212185 413.854419 
M 270.377303 413.950518 
L 271.780806 415.686047 
M 271.945924 415.782798 
L 272.028483 415.976407 
M 272.193601 416.073264 
L 274.340134 418.701153 
M 274.505252 418.79894 
L 278.385524 423.534509 
M 278.550641 423.634072 
L 281.027411 426.739028 
M 281.192529 426.839784 
L 283.008826 429.167444 
M 283.173944 429.269092 
L 284.825123 431.412275 
M 284.990241 431.514738 
L 285.89839 432.747182 
M 286.063508 432.850126 
L 289.365867 437.102512 
M 289.530985 437.207001 
L 291.925195 440.358693 
M 292.090313 440.464316 
L 293.328697 442.159265 
M 293.493815 442.26551 
L 297.374087 447.409495 
M 297.539205 447.517575 
L 298.695031 449.143129 
M 298.860148 449.251789 
L 304.143923 456.281221 
L 304.226482 456.503269 
M 304.3916 456.614347 
L 311.161435 465.844471 
L 311.243994 466.072587 
M 311.409112 466.186698 
L 311.491671 466.415027 
M 311.656789 466.529244 
L 312.564938 467.902613 
M 312.730056 468.01729 
L 313.638204 469.39617 
M 313.803322 469.511306 
L 317.270799 474.495389 
M 317.435917 474.612069 
L 317.848712 475.31288 
M 318.01383 475.429805 
L 324.783666 485.133639 
L 324.866225 485.373171 
M 325.031343 485.492988 
L 327.508112 489.224116 
M 327.67323 489.345017 
L 332.131414 496.046582 
M 332.296532 496.169372 
L 332.874445 497.152896 
M 333.039563 497.275988 
L 337.167511 503.597907 
M 337.332629 503.722731 
L 337.580306 504.222356 
M 337.745424 504.347345 
L 338.818691 506.100662 
M 338.983809 506.226147 
L 348.147855 520.358133 
L 348.230414 520.616426 
M 348.395531 520.745621 
L 348.808326 521.521462 
M 348.973444 521.650882 
L 351.037419 525.027018 
M 351.202537 525.1573 
L 352.193244 526.853872 
M 352.358362 526.984601 
L 352.771157 527.769637 
M 352.936275 527.900587 
L 354.670013 530.78951 
M 354.835131 530.921188 
L 355.330485 531.843819 
M 355.495603 531.97575 
L 358.96308 537.678467 
M 359.128198 537.811777 
L 359.706111 538.879377 
M 359.871229 539.012968 
L 364.57709 546.813298 
M 364.742208 546.948672 
L 365.815475 548.847094 
M 365.980592 548.982924 
L 367.549213 551.705953 
M 367.714331 551.842426 
L 368.705039 553.619353 
M 368.870156 553.756254 
L 369.282951 554.5783 
M 369.448069 554.715414 
L 372.007397 559.119176 
M 372.172515 559.257296 
L 372.832987 560.501742 
M 372.998105 560.640166 
L 378.859792 570.686057 
M 379.02491 570.826681 
L 381.914474 575.909056 
M 382.079592 576.050785 
L 383.895889 579.318731 
M 384.061007 579.461171 
L 387.363366 585.326592 
M 387.528484 585.470268 
L 393.390171 595.891527 
M 393.555289 596.037325 
L 397.187884 602.627958 
M 397.353002 602.775076 
L 399.334417 606.462266 
M 399.499535 606.610124 
L 401.233273 609.870154 
M 401.398391 610.018663 
L 402.636776 612.398635 
M 402.801894 612.547623 
L 404.040278 614.935249 
M 404.205396 615.084714 
L 405.196104 617.03031 
M 405.361222 617.180167 
L 408.415904 622.895386 
M 408.581022 623.046328 
L 409.324053 624.557274 
M 409.489171 624.708521 
L 410.232201 626.222508 
M 410.397319 626.374058 
L 411.057791 627.739252 
M 411.222909 627.891078 
L 413.452001 632.15335 
M 413.617119 632.305972 
L 415.598534 636.130371 
M 415.763652 636.283701 
L 416.341565 637.511319 
M 416.506683 637.664893 
L 418.240422 641.050381 
M 418.405539 641.204578 
L 422.560716 649 
M 424.102589 649 
L 424.184667 152.568096 
L 424.267226 152.791298 
L 425.505611 156.364915 
M 425.670729 156.588414 
L 427.817262 162.629464 
M 427.98238 162.853448 
L 429.63356 167.561102 
M 429.798678 167.785464 
L 430.211472 169.131999 
M 430.37659 169.356481 
L 439.458077 194.152486 
L 439.540636 194.605189 
M 439.705754 194.831566 
L 441.191816 199.135837 
M 441.356934 199.362541 
L 451.429128 227.141933 
L 451.511687 227.599316 
M 451.676805 227.828032 
L 455.722195 239.283489 
M 455.887313 239.512991 
L 458.859436 248.015505 
M 459.024554 248.245597 
L 459.767584 250.547375 
M 459.932702 250.777638 
L 463.565297 261.155415 
M 463.730415 261.386385 
L 464.556005 263.928068 
M 464.721123 264.159222 
L 465.629271 266.934255 
M 465.794389 267.165606 
L 468.188599 274.113204 
M 468.353717 274.345025 
L 469.75722 278.520376 
M 469.922338 278.752482 
L 471.078163 282.235874 
M 471.243281 282.468216 
L 471.656076 283.862564 
M 471.821194 284.095005 
L 472.564225 286.420147 
M 472.729343 286.65273 
L 473.802609 289.910086 
M 473.967727 290.14283 
L 475.618907 294.488927 
L 477.022409 297.571203 
L 478.343353 299.97847 
L 478.508471 300.378573 
M 478.673589 300.508434 
L 479.994532 302.354072 
L 480.15965 302.652804 
M 480.324768 302.749149 
L 481.563153 304.004841 
L 482.306184 304.65168 
M 482.471301 304.708323 
L 482.636419 304.869714 
M 482.801537 304.920694 
L 483.957363 305.492169 
L 484.287599 305.634587 
M 484.452717 305.659338 
L 485.608542 305.88162 
L 486.929486 306.038872 
M 487.094604 306.048111 
L 488.580665 306.223416 
M 488.745783 306.23263 
L 489.406255 306.315502 
M 489.571373 306.324704 
L 489.901609 306.370694 
M 490.066727 306.379888 
L 491.717906 306.572685 
M 491.883024 306.581852 
L 493.534204 306.77408 
M 493.86444 306.801497 
L 494.937706 306.929296 
M 495.102824 306.938416 
L 498.157506 307.284044 
M 498.322624 307.293116 
L 499.643568 307.447148 
M 499.808686 307.456197 
L 500.469157 307.537591 
M 500.634275 307.546628 
L 501.707542 307.673027 
M 501.87266 307.682047 
L 504.844783 308.014914 
M 505.009901 308.023888 
L 505.422696 308.077703 
M 505.587814 308.086669 
L 508.725054 308.435367 
M 508.890172 308.444284 
L 511.944854 308.782244 
M 512.109972 308.791114 
L 512.687885 308.862035 
M 512.853003 308.870894 
L 513.430916 308.941729 
M 513.596034 308.950578 
L 513.92627 308.994805 
M 514.091388 309.003647 
L 518.301895 309.461789 
M 518.467013 309.470568 
L 528.37409 310.52418 
M 528.539208 310.532816 
L 528.786885 310.56735 
M 528.952003 310.57598 
L 531.263654 310.825763 
M 531.428772 310.834359 
L 535.391602 311.254144 
M 535.55672 311.262682 
L 542.078879 311.942043 
M 542.243997 311.950488 
L 544.142853 312.15285 
M 544.307971 312.161267 
L 551.242925 312.872642 
M 551.408043 312.880963 
L 557.26973 313.477136 
M 557.434848 313.485375 
L 559.911617 313.740256 
M 560.076735 313.74846 
L 566.020981 314.344406 
M 566.186099 314.35253 
L 566.846571 314.425589 
M 567.011688 314.433701 
L 567.176806 314.458031 
M 567.341924 314.466139 
L 567.67216 314.506662 
M 567.837278 314.514763 
L 574.276878 315.151341 
M 574.441996 315.159356 
L 576.258293 315.343397 
M 576.423411 315.351386 
L 578.487386 315.558722 
M 578.652503 315.566682 
L 579.395534 315.646223 
M 579.560652 315.654171 
L 581.624626 315.860451 
M 581.789744 315.86837 
L 582.532775 315.947506 
M 582.697893 315.955414 
L 586.330488 316.310166 
M 586.495606 316.318025 
L 597.39339 317.353923 
M 597.558508 317.361642 
L 598.549216 317.461892 
M 598.714334 317.469596 
L 601.686457 317.746263 
L 608.951646 361.366648 
L 609.942354 367.615927 
M 610.107472 368.084024 
L 611.676092 377.047419 
M 611.84121 377.47581 
L 613.822625 387.583316 
M 613.987743 387.963756 
L 615.969159 396.553078 
L 617.868015 403.823543 
L 619.684312 409.91379 
L 621.418051 414.950675 
L 622.986671 418.862539 
L 623.234348 419.608646 
M 623.399466 419.790984 
L 623.647143 420.503605 
M 623.812261 420.678625 
L 626.206471 425.482207 
L 627.775092 428.489883 
M 627.94021 428.633757 
L 629.096035 430.71779 
M 629.261153 430.8518 
L 630.004184 432.158179 
M 630.169302 432.285453 
L 632.233276 435.253524 
L 634.379809 438.022053 
M 634.544927 438.11632 
L 636.526343 440.204089 
L 637.021696 440.750443 
M 637.186814 440.826208 
L 637.599609 441.26885 
M 637.764727 441.340637 
L 639.663584 442.836482 
L 639.91126 443.066508 
M 640.076378 443.122632 
L 640.489173 443.4478 
M 640.654291 443.50007 
L 641.727558 444.174486 
M 641.892676 444.218581 
L 643.048501 444.815375 
M 643.213619 444.850875 
L 644.947358 445.474027 
L 646.681096 445.866749 
L 647.506686 445.982035 
M 647.671804 445.989465 
L 649.405542 446.030646 
L 651.469516 445.838426 
L 651.552075 445.819342 
M 651.717193 445.809802 
L 653.368373 445.609753 
M 653.533491 445.600241 
L 659.725414 444.881053 
M 659.890532 444.871639 
L 660.716121 444.768167 
M 660.881239 444.758768 
L 664.596393 444.327778 
M 664.761511 444.318438 
L 665.834778 444.187813 
M 665.999896 444.178492 
L 666.165013 444.150536 
M 666.330131 444.14122 
L 668.476665 443.891189 
M 668.641783 443.882398 
L 669.467372 443.792042 
M 669.63249 443.784404 
L 669.715049 443.769416 
M 669.880167 443.762065 
L 672.0267 443.599696 
M 672.191818 443.595025 
L 672.356936 443.581586 
M 672.522054 443.577298 
L 674.916264 443.493316 
M 675.081382 443.492004 
L 675.659295 443.484967 
M 675.824413 443.484519 
L 679.126772 443.548709 
M 679.29189 443.552286 
L 680.777951 443.638428 
M 680.943069 443.643917 
L 684.245428 443.951143 
M 684.410546 443.960637 
L 685.153577 444.060809 
M 685.318695 444.071349 
L 686.557079 444.252907 
M 686.722197 444.265062 
L 687.960582 444.472422 
M 688.1257 444.486187 
L 689.446643 444.734676 
M 689.611761 444.750144 
L 692.501325 445.369849 
M 692.666443 445.388806 
L 692.996679 445.485005 
M 693.161797 445.504527 
L 694.069946 445.746125 
M 694.235064 445.766869 
L 695.143213 446.023119 
M 695.30833 446.045083 
L 698.52813 447.000431 
M 698.693248 447.026232 
L 702.821197 448.43506 
L 703.481669 448.713333 
M 703.646787 448.744716 
L 705.545643 449.525701 
M 705.710761 449.559399 
L 706.206115 449.797873 
M 706.371233 449.83231 
L 708.435207 450.760075 
M 708.600325 450.797003 
L 712.810832 452.802205 
L 713.966658 453.437353 
M 714.131776 453.480428 
L 715.039925 454.004445 
M 715.205043 454.048702 
L 718.837637 456.08102 
L 718.920196 456.177414 
M 719.085314 456.225747 
L 720.158581 456.911941 
M 720.323699 456.961638 
L 721.06673 457.463615 
M 721.231848 457.514314 
L 725.690032 460.38744 
L 725.85515 460.554846 
M 726.020268 460.61083 
L 730.065658 463.465303 
L 730.148216 463.586436 
M 730.313334 463.647139 
L 733.86337 466.342818 
L 733.945929 466.472258 
M 734.111047 466.537113 
L 734.523842 466.928133 
M 734.68896 466.993618 
L 735.101755 467.388417 
M 735.266873 467.454531 
L 736.587816 468.592226 
M 736.752934 468.659958 
L 736.918052 468.86369 
M 737.08317 468.93178 
L 737.826201 469.617612 
M 737.991319 469.686688 
L 738.156437 469.894453 
M 738.321555 469.963887 
L 743.027416 474.069316 
L 743.109975 474.218625 
M 743.275093 474.293413 
L 744.183242 475.197802 
M 744.34836 475.273745 
L 747.072806 477.908571 
M 747.237924 477.987616 
L 747.815836 478.623154 
M 747.980954 478.702994 
L 750.870518 481.635985 
M 751.035636 481.719087 
L 752.026344 482.807407 
M 752.191462 482.891739 
L 757.145 488.111979 
L 757.392677 488.47118 
M 757.557795 488.561199 
L 757.805472 488.922143 
M 757.97059 489.012596 
L 761.685744 493.172996 
L 761.768303 493.361981 
M 761.933421 493.456603 
L 762.676451 494.407588 
M 762.841569 494.503162 
L 766.8044 499.192234 
L 766.886959 499.391919 
M 767.052077 499.49189 
L 767.382313 499.993036 
M 767.547431 500.093523 
L 768.37302 501.204546 
M 768.538138 501.306063 
L 769.363728 502.428407 
M 769.528846 502.530953 
L 770.84979 504.287318 
M 771.014907 504.391403 
L 773.491677 507.660378 
M 773.656795 507.767193 
L 774.564943 509.055603 
M 774.730061 509.163524 
L 775.060297 509.704399 
M 775.225415 509.812829 
L 779.518482 515.567966 
L 779.601041 515.793884 
M 779.766158 515.906969 
L 781.995251 519.107562 
M 782.160369 519.223089 
L 782.655722 520.034131 
M 782.82084 520.15033 
L 784.554579 522.727936 
M 784.719697 522.846064 
L 786.618553 525.706222 
M 786.783671 525.82644 
L 787.279025 526.6703 
M 787.444143 526.791185 
L 788.022056 527.761266 
M 788.187174 527.882901 
L 790.994179 532.192527 
M 791.159297 532.317154 
L 794.213979 537.114318 
M 794.379096 537.242171 
L 795.947717 539.816537 
M 796.112835 539.94612 
L 796.773307 541.11607 
M 796.938425 541.246476 
L 798.672163 544.136171 
M 798.837281 544.268464 
L 799.74543 545.862369 
M 799.910548 545.995726 
L 800.736137 547.468053 
M 800.901255 547.602391 
L 805.276881 554.838843 
L 805.35944 555.116382 
M 805.524558 555.255274 
L 808.001327 559.600978 
M 808.166445 559.742453 
L 809.569947 562.302748 
M 809.735065 562.44575 
L 813.037424 568.37777 
M 813.202542 568.524131 
L 815.018839 571.912395 
M 815.183957 572.060665 
L 817.743285 576.847117 
M 817.908403 576.997998 
L 821.210762 583.251915 
M 821.37588 583.406099 
L 827.81548 595.672756 
L 831.200398 602.473069 
M 831.530634 602.963997 
L 835.163228 610.410536 
M 835.328346 610.577769 
L 838.135351 616.478761 
M 838.300469 616.648724 
L 840.199326 620.750494 
M 840.364444 620.922343 
L 843.584244 627.857883 
M 843.749362 628.032807 
L 845.152864 631.1942 
M 845.317982 631.370541 
L 846.473808 634.024587 
M 846.638926 634.202117 
L 847.712192 636.516771 
L 847.712192 636.516771 
" clip-path="url(#pa407f426fa)" style="fill: none; stroke-dasharray: 25.9,11.2; stroke-dashoffset: 0; stroke: #0000ff; stroke-opacity: 0.6; stroke-width: 7"/>
   </g>
   <g id="line2d_13">
    <path d="M 295.279687 -1 
L 295.392672 119.346637 
L 297.374087 120.20327 
M 297.539205 120.237475 
L 298.695031 120.750006 
M 298.860148 120.784138 
L 304.226482 123.026744 
M 304.3916 123.06057 
L 311.243994 125.885805 
M 311.409112 125.919247 
L 311.491671 125.986117 
M 311.656789 126.019546 
L 312.564938 126.420339 
M 312.730056 126.453709 
L 313.638204 126.853802 
M 313.803322 126.887114 
L 317.270799 128.315305 
M 317.435917 128.348421 
L 317.848712 128.547021 
M 318.01383 128.580106 
L 324.866225 131.343397 
M 325.031343 131.376106 
L 327.508112 132.387904 
M 327.67323 132.420472 
L 332.131414 134.205019 
M 332.296532 134.237343 
L 332.874445 134.495782 
M 333.039563 134.528068 
L 337.167511 136.168881 
M 337.332629 136.200941 
L 337.580306 136.329141 
M 337.745424 136.36118 
L 338.818691 136.809274 
M 338.983809 136.841249 
L 348.230414 140.426839 
M 348.395531 140.458328 
L 348.808326 140.64717 
M 348.973444 140.678629 
L 351.037419 141.495079 
M 351.202537 141.526424 
L 352.193244 141.933525 
M 352.358362 141.964812 
L 352.771157 142.15244 
M 352.936275 142.183697 
L 354.670013 142.870282 
M 354.835131 142.901442 
L 355.330485 143.119447 
M 355.495603 143.150574 
L 358.96308 144.485076 
M 359.128198 144.516019 
L 359.706111 144.763416 
M 359.871229 144.794322 
L 364.57709 146.579778 
M 364.742208 146.61044 
L 365.815475 147.039274 
M 365.980592 147.069874 
L 367.549213 147.681014 
M 367.714331 147.711528 
L 368.705039 148.107836 
M 368.870156 148.138293 
L 369.282951 148.320947 
M 369.448069 148.351375 
L 372.007397 149.322914 
M 372.172515 149.353207 
L 372.832987 149.625664 
M 372.998105 149.655917 
L 378.859792 151.823462 
M 379.02491 151.853419 
L 381.914474 152.929209 
M 382.079592 152.959018 
L 383.895889 153.643517 
M 384.061007 153.67323 
L 387.363366 154.888028 
M 387.528484 154.917573 
L 393.390171 157.034464 
M 393.555289 157.063722 
L 397.187884 158.376241 
M 397.353002 158.405318 
L 399.334417 159.130976 
M 399.499535 159.159951 
L 401.233273 159.796432 
M 401.398391 159.825318 
L 402.636776 160.286971 
M 402.801894 160.315791 
L 404.040278 160.776391 
M 404.205396 160.805145 
L 405.196104 161.178604 
M 405.361222 161.207304 
L 408.415904 162.295073 
M 408.581022 162.323624 
L 409.324053 162.608918 
M 409.489171 162.637427 
L 410.232201 162.9223 
M 410.397319 162.950767 
L 411.057791 163.206791 
M 411.222909 163.235219 
L 413.452001 164.029657 
M 413.617119 164.057974 
L 415.598534 164.764678 
M 415.763652 164.792896 
L 416.341565 165.01851 
M 416.506683 165.046695 
L 418.240422 165.665801 
M 418.405539 165.693898 
L 422.946283 167.261361 
M 423.111401 167.289244 
L 424.102109 167.623553 
L 425.505611 175.485143 
M 425.670729 175.91402 
L 427.817262 187.17356 
M 427.98238 187.578643 
L 429.63356 195.886276 
M 429.798678 196.272354 
L 430.211472 198.570549 
M 430.37659 198.950533 
L 433.266154 211.698606 
L 435.9906 222.732242 
L 438.632488 232.516238 
L 439.540636 235.953058 
M 439.705754 236.233747 
L 441.191816 241.399954 
M 441.356934 241.663079 
L 443.751144 248.91212 
L 446.062795 255.211929 
L 448.209328 260.447583 
L 450.273303 264.924975 
L 451.511687 267.504353 
M 451.676805 267.658154 
L 453.575661 270.955034 
L 455.391959 273.677115 
L 455.722195 274.237054 
M 455.887313 274.346434 
L 457.621051 276.442777 
L 458.859436 277.783101 
M 459.024554 277.8595 
L 459.767584 278.575824 
M 459.932702 278.642691 
L 461.418764 279.698213 
L 462.822266 280.437656 
L 463.565297 280.755907 
M 463.730415 280.78298 
L 464.556005 281.023778 
M 464.721123 281.040488 
L 465.629271 281.199365 
M 465.794389 281.211942 
L 468.188599 281.588439 
M 468.353717 281.600963 
L 469.75722 281.826104 
M 469.922338 281.838596 
L 471.078163 282.025773 
M 471.243281 282.038238 
L 471.656076 282.112993 
M 471.821194 282.125447 
L 472.564225 282.249888 
M 472.729343 282.262323 
L 473.802609 282.436237 
M 473.967727 282.448647 
L 478.508471 283.140947 
M 478.673589 283.153263 
L 480.15965 283.386938 
M 480.324768 283.39922 
L 482.306184 283.705739 
M 482.471301 283.717978 
L 482.636419 283.754687 
M 482.801537 283.766919 
L 484.287599 283.99903 
M 484.452717 284.01123 
L 486.929486 284.388617 
M 487.094604 284.400764 
L 488.580665 284.631259 
M 488.745783 284.643374 
L 489.406255 284.752336 
M 489.571373 284.764435 
L 489.901609 284.824904 
M 490.066727 284.836993 
L 491.717906 285.090487 
M 491.883024 285.102541 
L 493.534204 285.355287 
M 493.86444 285.391335 
L 494.937706 285.559369 
M 495.102824 285.571359 
L 498.157506 286.0258 
M 498.322624 286.037728 
L 499.643568 286.240253 
M 499.808686 286.252152 
L 500.469157 286.359169 
M 500.634275 286.371052 
L 501.707542 286.537245 
M 501.87266 286.549104 
L 504.844783 286.986767 
M 505.009901 286.998565 
L 505.422696 287.069323 
M 505.587814 287.081111 
L 508.725054 287.539589 
M 508.890172 287.551313 
L 511.944854 287.995671 
M 512.109972 288.007334 
L 512.687885 288.100582 
M 512.853003 288.112231 
L 513.430916 288.205366 
M 513.596034 288.217 
L 513.92627 288.275151 
M 514.091388 288.286777 
L 518.301895 288.889154 
M 518.467013 288.900697 
L 528.37409 290.286012 
M 528.539208 290.297367 
L 528.786885 290.342773 
M 528.952003 290.354121 
L 531.263654 290.682541 
M 531.428772 290.693844 
L 535.391602 291.245787 
M 535.55672 291.257014 
L 542.078879 292.150254 
M 542.243997 292.161359 
L 544.142853 292.427428 
M 544.307971 292.438496 
L 551.242925 293.373829 
M 551.408043 293.38477 
L 557.26973 294.168633 
M 557.434848 294.179467 
L 559.911617 294.51459 
M 560.076735 294.525378 
L 566.020981 295.308942 
M 566.186099 295.319623 
L 566.846571 295.415683 
M 567.011688 295.426349 
L 567.176806 295.458339 
M 567.341924 295.468999 
L 567.67216 295.52228 
M 567.837278 295.532932 
L 574.276878 296.36992 
M 574.441996 296.380458 
L 576.258293 296.622441 
M 576.423411 296.632945 
L 578.487386 296.905555 
M 578.652503 296.916021 
L 579.147857 296.978787 
L 579.312975 121.91912 
L 579.395534 121.802609 
M 579.560652 121.835749 
L 581.624626 122.717879 
M 581.789744 122.751747 
L 582.532775 123.090173 
M 582.697893 123.123991 
L 586.330488 124.641092 
M 586.495606 124.674701 
L 597.39339 129.104737 
M 597.558508 129.137746 
L 598.549216 129.566468 
M 598.714334 129.599415 
L 609.942354 134.071643 
M 610.107472 134.103986 
L 611.676092 134.74992 
M 611.84121 134.782172 
L 613.822625 135.587045 
M 613.987743 135.619183 
L 623.234348 139.223187 
M 623.399466 139.254837 
L 623.647143 139.381396 
M 623.812261 139.413025 
L 627.775092 140.95765 
M 627.94021 140.989067 
L 629.096035 141.459819 
M 629.261153 141.491168 
L 630.004184 141.804434 
M 630.169302 141.835738 
L 634.379809 143.457734 
M 634.544927 143.488815 
L 637.021696 144.450268 
M 637.186814 144.481216 
L 637.599609 144.666816 
M 637.764727 144.697735 
L 639.91126 145.530977 
M 640.076378 145.561779 
L 640.489173 145.746509 
M 640.654291 145.777283 
L 641.727558 146.207683 
M 641.892676 146.238395 
L 643.048501 146.698578 
M 643.213619 146.729224 
L 647.506686 148.347579 
M 647.671804 148.378004 
L 651.552075 149.833577 
M 651.717193 149.863802 
L 653.368373 150.497584 
M 653.533491 150.52772 
L 659.725414 152.806213 
M 659.890532 152.836039 
L 660.716121 153.163853 
M 660.881239 153.193631 
L 664.596393 154.559072 
M 664.761511 154.588662 
L 665.834778 155.002503 
M 665.999896 155.032033 
L 666.165013 155.1206 
M 666.330131 155.150115 
L 668.476665 155.945508 
M 668.641783 155.974911 
L 669.467372 156.29809 
M 669.63249 156.327447 
L 669.715049 156.386147 
M 669.880167 156.415492 
L 672.0267 157.206302 
M 672.191818 157.235537 
L 672.356936 157.323216 
M 672.522054 157.352434 
L 674.916264 158.227167 
M 675.081382 158.256264 
L 675.659295 158.4889 
M 675.824413 158.517962 
L 679.126772 159.706145 
M 679.29189 159.735043 
L 680.777951 160.283376 
M 680.943069 160.312196 
L 684.245428 161.490523 
M 684.410546 161.519181 
L 685.153577 161.805556 
M 685.318695 161.834173 
L 686.557079 162.291511 
M 686.722197 162.320063 
L 687.960582 162.776358 
M 688.1257 162.804844 
L 689.446643 163.288519 
M 689.611761 163.316936 
L 692.501325 164.337413 
M 692.666443 164.365689 
L 692.996679 164.507013 
M 693.161797 164.535267 
L 694.069946 164.874012 
M 694.235064 164.902216 
L 695.143213 165.240369 
M 695.30833 165.268524 
L 698.52813 166.391623 
M 698.693248 166.419623 
L 703.481669 168.064994 
M 703.646787 168.09277 
L 705.545643 168.758261 
M 705.710761 168.785943 
L 706.206115 168.979615 
M 706.371233 169.007267 
L 708.435207 169.72493 
M 708.600325 169.752483 
L 713.966658 171.56278 
M 714.131776 171.590085 
L 715.039925 171.917465 
M 715.205043 171.944723 
L 718.920196 173.194632 
M 719.085314 173.221718 
L 720.158581 173.600544 
M 720.323699 173.627575 
L 721.06673 173.897693 
M 721.231848 173.924685 
L 725.85515 175.457237 
M 726.020268 175.484019 
L 730.148216 176.845154 
M 730.313334 176.87175 
L 733.945929 178.06487 
M 734.111047 178.091302 
L 734.523842 178.249819 
M 734.68896 178.276227 
L 735.101755 178.434595 
M 735.266873 178.460977 
L 736.587816 178.908933 
M 736.752934 178.935252 
L 736.918052 179.014186 
M 737.08317 179.040491 
L 737.826201 179.30334 
M 737.991319 179.329606 
L 738.156437 179.408381 
M 738.321555 179.434633 
L 743.109975 180.977242 
M 743.275093 181.003282 
L 744.183242 181.315497 
M 744.34836 181.341493 
L 747.072806 182.223255 
M 747.237924 182.249129 
L 747.815836 182.45599 
M 747.980954 182.481832 
L 750.870518 183.409835 
M 751.035636 183.435549 
L 752.026344 183.769515 
M 752.191462 183.79518 
L 757.392677 185.430622 
M 757.557795 185.456065 
L 757.805472 185.5578 
M 757.97059 185.583225 
L 761.768303 186.774368 
M 761.933421 186.79963 
L 762.676451 187.052062 
M 762.841569 187.077287 
L 766.886959 188.334202 
M 767.052077 188.359254 
L 767.382313 188.484465 
M 767.547431 188.509497 
L 768.37302 188.784628 
M 768.538138 188.80962 
L 769.363728 189.084308 
M 769.528846 189.109259 
L 770.84979 189.532922 
M 771.014907 189.557814 
L 773.491677 190.327785 
M 773.656795 190.35257 
L 774.564943 190.649724 
M 774.730061 190.674465 
L 775.060297 190.798121 
M 775.225415 190.822842 
L 779.601041 192.15287 
M 779.766158 192.177409 
L 781.995251 192.863171 
M 782.160369 192.887615 
L 782.655722 193.05863 
M 782.82084 193.083047 
L 784.554579 193.619404 
M 784.719697 193.643747 
L 786.618553 194.22698 
M 786.783671 194.25124 
L 787.279025 194.420973 
M 787.444143 194.445208 
L 788.022056 194.638967 
M 788.187174 194.663172 
L 790.994179 195.50831 
M 791.159297 195.532399 
L 794.213979 196.445366 
M 794.379096 196.469329 
L 795.947717 196.947904 
M 796.112835 196.971799 
L 796.773307 197.186711 
M 796.938425 197.210573 
L 798.672163 197.734748 
M 798.837281 197.758538 
L 799.74543 198.043761 
M 799.910548 198.067508 
L 800.736137 198.328524 
M 800.901255 198.352234 
L 805.35944 199.651366 
M 805.524558 199.674898 
L 808.001327 200.402819 
M 808.166445 200.42625 
L 809.569947 200.847468 
M 809.735065 200.870839 
L 813.037424 201.826358 
M 813.202542 201.849598 
L 815.018839 202.383249 
M 815.183957 202.406413 
L 817.743285 203.146047 
M 817.908403 203.169109 
L 821.210762 204.112002 
M 821.37588 204.134935 
L 831.200398 206.864595 
M 831.530634 206.932274 
L 835.163228 207.944195 
M 835.328346 207.966613 
L 838.135351 208.749339 
M 838.300469 208.771648 
L 840.199326 209.306179 
M 840.364444 209.328414 
L 843.584244 210.215359 
M 843.749362 210.237471 
L 845.152864 210.634991 
M 845.317982 210.657047 
L 846.473808 210.987535 
M 846.638926 211.009544 
L 847.712192 211.29539 
L 847.712192 211.29539 
" clip-path="url(#pa407f426fa)" style="fill: none; stroke-dasharray: 7,11.55; stroke-dashoffset: 0; stroke: #008000; stroke-opacity: 0.6; stroke-width: 7"/>
   </g>
   <g id="line2d_14">
    <path d="M 320.069103 649 
L 320.077804 129.405776 
L 320.160363 129.775577 
L 324.866225 150.945113 
M 325.031343 151.305333 
L 327.508112 162.392707 
M 327.67323 162.74781 
L 332.131414 182.034541 
M 332.296532 182.380796 
L 332.874445 185.145189 
M 333.039563 185.490033 
L 337.167511 202.870397 
M 337.332629 203.207153 
L 337.580306 204.552631 
M 337.745424 204.888615 
L 338.818691 209.576189 
M 338.983809 209.909861 
L 345.423409 235.465168 
L 348.230414 246.632643 
M 348.395531 246.949011 
L 348.808326 248.844073 
M 348.973444 249.159393 
L 351.037419 257.305351 
M 351.202537 257.616647 
L 352.193244 261.649996 
M 352.358362 261.959216 
L 352.771157 263.811429 
M 352.936275 264.119613 
L 354.670013 270.862341 
M 354.835131 271.167134 
L 355.330485 273.296578 
M 355.495603 273.600197 
L 358.96308 286.517475 
M 359.128198 286.814671 
L 359.706111 289.187016 
M 359.871229 289.482906 
L 364.57709 306.387785 
M 364.742208 306.674599 
L 365.815475 310.672681 
M 365.980592 310.957043 
L 367.549213 316.611309 
M 367.714331 316.892396 
L 368.705039 320.532699 
M 368.870156 320.811667 
L 369.282951 322.482338 
M 369.448069 322.760261 
L 372.007397 331.57648 
M 372.172515 331.849598 
L 372.832987 334.30124 
M 372.998105 334.572933 
L 378.859792 353.766365 
M 379.02491 354.027769 
L 379.8505 356.6339 
L 379.933059 135.973101 
L 380.015618 136.262477 
L 381.914474 143.164921 
M 382.079592 143.450762 
L 383.895889 149.986535 
M 384.061007 150.269028 
L 387.363366 161.732058 
M 387.528484 162.008749 
L 393.390171 181.571533 
M 393.555289 181.838283 
L 397.187884 193.702816 
M 397.353002 193.96339 
L 399.334417 200.434453 
M 399.499535 200.691567 
L 401.233273 206.314572 
M 401.398391 206.568643 
L 402.636776 210.615859 
M 402.801894 210.867691 
L 404.040278 214.879163 
M 404.205396 215.128766 
L 405.196104 218.361708 
M 405.361222 218.609482 
L 408.415904 227.928528 
M 408.581022 228.171239 
L 409.324053 230.591241 
M 409.489171 230.832532 
L 410.232201 233.238356 
M 410.397319 233.478231 
L 411.057791 235.631325 
M 411.222909 235.869916 
L 413.452001 242.498515 
M 413.617119 242.7334 
L 415.598534 248.564218 
M 415.763652 248.795802 
L 416.341565 250.643922 
M 416.506683 250.874368 
L 418.240422 255.912295 
M 418.405539 256.139845 
L 422.946283 268.683108 
M 423.111401 268.903548 
L 425.505611 275.209424 
M 425.670729 275.398556 
L 427.239349 278.704342 
L 427.817262 279.935949 
M 427.98238 280.083355 
L 429.468442 282.49289 
L 429.63356 282.850307 
M 429.798678 282.966688 
L 430.211472 283.636237 
M 430.37659 283.743068 
L 431.697534 285.270731 
L 433.018477 286.465461 
L 434.256862 287.294838 
L 435.495247 287.85406 
L 436.651072 288.141928 
L 439.540636 288.560617 
M 439.705754 288.572205 
L 441.191816 288.792064 
M 441.356934 288.80362 
L 451.511687 290.224601 
M 451.676805 290.235964 
L 455.722195 290.8022 
M 455.887313 290.813486 
L 458.859436 291.230003 
M 459.024554 291.241231 
L 459.767584 291.353433 
M 459.932702 291.364645 
L 463.565297 291.867625 
M 463.730415 291.878768 
L 464.556005 292.00124 
M 464.721123 292.012365 
L 465.629271 292.145747 
M 465.794389 292.156852 
L 468.188599 292.489323 
M 468.353717 292.500383 
L 469.75722 292.699196 
M 469.922338 292.710227 
L 471.078163 292.875516 
M 471.243281 292.886524 
L 471.656076 292.952537 
M 471.821194 292.963534 
L 472.564225 293.073424 
M 472.729343 293.084405 
L 473.802609 293.237981 
M 473.967727 293.24894 
L 478.508471 293.860285 
M 478.673589 293.87116 
L 480.15965 294.07751 
M 480.324768 294.088356 
L 482.306184 294.359031 
M 482.471301 294.369839 
L 482.636419 294.402255 
M 482.801537 294.413057 
L 484.287599 294.618025 
M 484.452717 294.628799 
L 486.929486 294.962054 
M 487.094604 294.972782 
L 488.580665 295.176323 
M 488.745783 295.187021 
L 489.406255 295.283241 
M 489.571373 295.293925 
L 489.901609 295.347323 
M 490.066727 295.357999 
L 491.717906 295.58185 
M 491.883024 295.592494 
L 493.534204 295.815684 
M 493.86444 295.847517 
L 494.937706 295.995901 
M 495.102824 296.00649 
L 498.157506 296.407789 
M 498.322624 296.418322 
L 499.643568 296.597164 
M 499.808686 296.607672 
L 500.469157 296.702175 
M 500.634275 296.712668 
L 501.707542 296.859427 
M 501.87266 296.869899 
L 504.844783 297.256383 
M 505.009901 297.266802 
L 505.422696 297.329285 
M 505.587814 297.339694 
L 508.725054 297.744559 
M 508.890172 297.754912 
L 511.944854 298.147308 
M 512.109972 298.157607 
L 512.687885 298.239951 
M 512.853003 298.250237 
L 513.430916 298.332481 
M 513.596034 298.342756 
L 513.92627 298.394106 
M 514.091388 298.404372 
L 518.301895 298.936309 
M 518.467013 298.946502 
L 528.37409 300.169822 
M 528.539208 300.179849 
L 528.786885 300.219945 
M 528.952003 300.229966 
L 531.263654 300.519982 
M 531.428772 300.529962 
L 535.391602 301.017363 
M 535.55672 301.027277 
L 542.078879 301.816063 
M 542.243997 301.82587 
L 544.142853 302.060826 
M 544.307971 302.070599 
L 551.242925 302.896557 
M 551.408043 302.906218 
L 557.26973 303.598418 
M 557.434848 303.607985 
L 559.911617 303.90392 
M 560.076735 303.913446 
L 566.020981 304.605382 
M 566.186099 304.614814 
L 566.846571 304.69964 
M 567.011688 304.709059 
L 567.176806 304.737308 
M 567.341924 304.746722 
L 567.67216 304.793772 
M 567.837278 304.803179 
L 574.276878 305.542292 
M 574.441996 305.551597 
L 576.258293 305.765283 
M 576.423411 305.774559 
L 578.487386 306.01529 
M 578.652503 306.024532 
L 579.147857 306.079959 
L 579.395534 307.455149 
M 579.560652 307.798408 
L 581.624626 316.682731 
M 581.789744 317.022895 
L 582.532775 320.418325 
M 582.697893 320.757247 
L 586.330488 335.88578 
M 586.495606 336.219032 
L 592.522411 360.080127 
L 597.39339 378.930582 
M 597.558508 379.239103 
L 598.549216 383.233745 
M 598.714334 383.539794 
L 604.576021 404.839893 
L 609.942354 423.898847 
M 610.107472 424.182083 
L 611.676092 429.811986 
M 611.84121 430.091741 
L 613.822625 437.031988 
M 613.987743 437.307458 
L 619.684312 455.921169 
L 623.234348 467.390451 
M 623.399466 467.647536 
L 623.647143 468.674295 
M 623.812261 468.930589 
L 627.775092 481.296216 
M 627.94021 481.544661 
L 629.096035 485.252684 
M 629.261153 485.498643 
L 630.004184 487.949724 
M 630.169302 488.193982 
L 634.379809 500.684013 
M 634.544927 500.920167 
L 637.021696 508.166048 
M 637.186814 508.39738 
L 637.599609 509.782229 
M 637.764727 510.012513 
L 639.91126 516.173895 
M 640.076378 516.400016 
L 640.489173 517.753641 
M 640.654291 517.978729 
L 641.727558 521.114491 
M 641.892676 521.337372 
L 643.048501 524.663016 
M 643.213619 524.883557 
L 647.506686 536.365 
M 647.671804 536.577748 
L 651.552075 546.601963 
M 651.717193 546.806512 
L 653.368373 551.058208 
M 653.533491 551.25865 
L 658.40447 562.788415 
L 659.725414 566.006875 
M 659.890532 566.194814 
L 660.716121 568.252259 
M 660.881239 568.43841 
L 664.596393 576.849839 
M 664.761511 577.029545 
L 665.834778 579.53209 
M 665.999896 579.709901 
L 666.165013 580.242589 
M 666.330131 580.419905 
L 668.476665 585.16142 
M 668.641783 585.335348 
L 669.467372 587.24071 
M 669.63249 587.413213 
L 669.715049 587.757822 
M 669.880167 587.929872 
L 672.0267 592.516175 
M 672.191818 592.683983 
L 672.356936 593.186568 
M 672.522054 593.353816 
L 674.916264 598.308357 
M 675.081382 598.471466 
L 675.659295 599.771738 
M 675.824413 599.933701 
L 679.126772 606.468663 
M 679.29189 606.625548 
L 680.777951 609.584416 
M 680.943069 609.739001 
L 684.245428 615.979938 
M 684.410546 616.129807 
L 685.153577 617.622373 
M 685.318695 617.771019 
L 686.557079 620.134293 
M 686.722197 620.281059 
L 687.960582 622.61431 
M 688.1257 622.759203 
L 689.446643 625.205604 
M 689.611761 625.348525 
L 692.501325 630.421122 
M 692.666443 630.56002 
L 692.996679 631.252884 
M 693.161797 631.391133 
L 694.069946 633.041704 
M 694.235064 633.178551 
L 695.143213 634.812335 
M 695.30833 634.947786 
L 698.52813 640.27823 
M 698.693248 640.40931 
L 703.481669 647.956426 
M 703.646787 648.081199 
L 704.25688 649 
L 704.25688 649 
" clip-path="url(#pa407f426fa)" style="fill: none; stroke-dasharray: 44.8,11.2,7,11.2; stroke-dashoffset: 0; stroke: #ff0000; stroke-opacity: 0.6; stroke-width: 7"/>
   </g>
   <g id="patch_3">
    <path d="M 134.155 612.92 
L 134.155 17.64 
" style="fill: none; stroke: #000000; stroke-width: 0.8; stroke-linejoin: miter; stroke-linecap: square"/>
   </g>
   <g id="patch_4">
    <path d="M 847.629633 612.92 
L 847.629633 17.64 
" style="fill: none; stroke: #000000; stroke-width: 0.8; stroke-linejoin: miter; stroke-linecap: square"/>
   </g>
   <g id="patch_5">
    <path d="M 134.155 612.92 
L 847.629633 612.92 
" style="fill: none; stroke: #000000; stroke-width: 0.8; stroke-linejoin: miter; stroke-linecap: square"/>
   </g>
   <g id="patch_6">
    <path d="M 134.155 17.64 
L 847.629633 17.64 
" style="fill: none; stroke: #000000; stroke-width: 0.8; stroke-linejoin: miter; stroke-linecap: square"/>
   </g>
   <g id="text_12">
    <!-- 4 RMSE: 32.45 m -->
    <g transform="translate(276.849927 493.864) scale(0.1728 -0.1728)">
     <defs>
      <path id="DejaVuSans-52" d="M 2841 2188 
Q 3044 2119 3236 1894 
Q 3428 1669 3622 1275 
L 4263 0 
L 3584 0 
L 2988 1197 
Q 2756 1666 2539 1819 
Q 2322 1972 1947 1972 
L 1259 1972 
L 1259 0 
L 628 0 
L 628 4666 
L 2053 4666 
Q 2853 4666 3247 4331 
Q 3641 3997 3641 3322 
Q 3641 2881 3436 2590 
Q 3231 2300 2841 2188 
z
M 1259 4147 
L 1259 2491 
L 2053 2491 
Q 2509 2491 2742 2702 
Q 2975 2913 2975 3322 
Q 2975 3731 2742 3939 
Q 2509 4147 2053 4147 
L 1259 4147 
z
" transform="scale(0.015625)"/>
      <path id="DejaVuSans-4d" d="M 628 4666 
L 1569 4666 
L 2759 1491 
L 3956 4666 
L 4897 4666 
L 4897 0 
L 4281 0 
L 4281 4097 
L 3078 897 
L 2444 897 
L 1241 4097 
L 1241 0 
L 628 0 
L 628 4666 
z
" transform="scale(0.015625)"/>
      <path id="DejaVuSans-53" d="M 3425 4513 
L 3425 3897 
Q 3066 4069 2747 4153 
Q 2428 4238 2131 4238 
Q 1616 4238 1336 4038 
Q 1056 3838 1056 3469 
Q 1056 3159 1242 3001 
Q 1428 2844 1947 2747 
L 2328 2669 
Q 3034 2534 3370 2195 
Q 3706 1856 3706 1288 
Q 3706 609 3251 259 
Q 2797 -91 1919 -91 
Q 1588 -91 1214 -16 
Q 841 59 441 206 
L 441 856 
Q 825 641 1194 531 
Q 1563 422 1919 422 
Q 2459 422 2753 634 
Q 3047 847 3047 1241 
Q 3047 1584 2836 1778 
Q 2625 1972 2144 2069 
L 1759 2144 
Q 1053 2284 737 2584 
Q 422 2884 422 3419 
Q 422 4038 858 4394 
Q 1294 4750 2059 4750 
Q 2388 4750 2728 4690 
Q 3069 4631 3425 4513 
z
" transform="scale(0.015625)"/>
      <path id="DejaVuSans-45" d="M 628 4666 
L 3578 4666 
L 3578 4134 
L 1259 4134 
L 1259 2753 
L 3481 2753 
L 3481 2222 
L 1259 2222 
L 1259 531 
L 3634 531 
L 3634 0 
L 628 0 
L 628 4666 
z
" transform="scale(0.015625)"/>
      <path id="DejaVuSans-3a" d="M 750 794 
L 1409 794 
L 1409 0 
L 750 0 
L 750 794 
z
M 750 3309 
L 1409 3309 
L 1409 2516 
L 750 2516 
L 750 3309 
z
" transform="scale(0.015625)"/>
     </defs>
     <use xlink:href="#DejaVuSans-34"/>
     <use xlink:href="#DejaVuSans-20" x="63.623047"/>
     <use xlink:href="#DejaVuSans-52" x="95.410156"/>
     <use xlink:href="#DejaVuSans-4d" x="164.892578"/>
     <use xlink:href="#DejaVuSans-53" x="251.171875"/>
     <use xlink:href="#DejaVuSans-45" x="314.648438"/>
     <use xlink:href="#DejaVuSans-3a" x="377.832031"/>
     <use xlink:href="#DejaVuSans-20" x="411.523438"/>
     <use xlink:href="#DejaVuSans-33" x="443.310547"/>
     <use xlink:href="#DejaVuSans-32" x="506.933594"/>
     <use xlink:href="#DejaVuSans-2e" x="570.556641"/>
     <use xlink:href="#DejaVuSans-34" x="602.34375"/>
     <use xlink:href="#DejaVuSans-35" x="665.966797"/>
     <use xlink:href="#DejaVuSans-20" x="729.589844"/>
     <use xlink:href="#DejaVuSans-6d" x="761.376953"/>
    </g>
   </g>
   <g id="text_13">
    <!-- 6 RMSE: 7.45 m -->
    <g transform="translate(276.849927 523.628) scale(0.1728 -0.1728)">
     <defs>
      <path id="DejaVuSans-36" d="M 2113 2584 
Q 1688 2584 1439 2293 
Q 1191 2003 1191 1497 
Q 1191 994 1439 701 
Q 1688 409 2113 409 
Q 2538 409 2786 701 
Q 3034 994 3034 1497 
Q 3034 2003 2786 2293 
Q 2538 2584 2113 2584 
z
M 3366 4563 
L 3366 3988 
Q 3128 4100 2886 4159 
Q 2644 4219 2406 4219 
Q 1781 4219 1451 3797 
Q 1122 3375 1075 2522 
Q 1259 2794 1537 2939 
Q 1816 3084 2150 3084 
Q 2853 3084 3261 2657 
Q 3669 2231 3669 1497 
Q 3669 778 3244 343 
Q 2819 -91 2113 -91 
Q 1303 -91 875 529 
Q 447 1150 447 2328 
Q 447 3434 972 4092 
Q 1497 4750 2381 4750 
Q 2619 4750 2861 4703 
Q 3103 4656 3366 4563 
z
" transform="scale(0.015625)"/>
     </defs>
     <use xlink:href="#DejaVuSans-36"/>
     <use xlink:href="#DejaVuSans-20" x="63.623047"/>
     <use xlink:href="#DejaVuSans-52" x="95.410156"/>
     <use xlink:href="#DejaVuSans-4d" x="164.892578"/>
     <use xlink:href="#DejaVuSans-53" x="251.171875"/>
     <use xlink:href="#DejaVuSans-45" x="314.648438"/>
     <use xlink:href="#DejaVuSans-3a" x="377.832031"/>
     <use xlink:href="#DejaVuSans-20" x="411.523438"/>
     <use xlink:href="#DejaVuSans-37" x="443.310547"/>
     <use xlink:href="#DejaVuSans-2e" x="506.933594"/>
     <use xlink:href="#DejaVuSans-34" x="538.720703"/>
     <use xlink:href="#DejaVuSans-35" x="602.34375"/>
     <use xlink:href="#DejaVuSans-20" x="665.966797"/>
     <use xlink:href="#DejaVuSans-6d" x="697.753906"/>
    </g>
   </g>
   <g id="text_14">
    <!-- 7 RMSE: 39.49 m -->
    <g transform="translate(276.849927 553.392) scale(0.1728 -0.1728)">
     <use xlink:href="#DejaVuSans-37"/>
     <use xlink:href="#DejaVuSans-20" x="63.623047"/>
     <use xlink:href="#DejaVuSans-52" x="95.410156"/>
     <use xlink:href="#DejaVuSans-4d" x="164.892578"/>
     <use xlink:href="#DejaVuSans-53" x="251.171875"/>
     <use xlink:href="#DejaVuSans-45" x="314.648438"/>
     <use xlink:href="#DejaVuSans-3a" x="377.832031"/>
     <use xlink:href="#DejaVuSans-20" x="411.523438"/>
     <use xlink:href="#DejaVuSans-33" x="443.310547"/>
     <use xlink:href="#DejaVuSans-39" x="506.933594"/>
     <use xlink:href="#DejaVuSans-2e" x="570.556641"/>
     <use xlink:href="#DejaVuSans-34" x="602.34375"/>
     <use xlink:href="#DejaVuSans-39" x="665.966797"/>
     <use xlink:href="#DejaVuSans-20" x="729.589844"/>
     <use xlink:href="#DejaVuSans-6d" x="761.376953"/>
    </g>
   </g>
   <g id="text_15">
    <!-- 7 -->
    <g transform="translate(498.027063 464.1) scale(0.1728 -0.1728)">
     <use xlink:href="#DejaVuSans-37"/>
    </g>
   </g>
   <g id="text_16">
    <!-- 8 -->
    <g transform="translate(562.23978 464.1) scale(0.1728 -0.1728)">
     <use xlink:href="#DejaVuSans-38"/>
    </g>
   </g>
   <g id="text_17">
    <!-- 6 -->
    <g transform="translate(526.566048 523.628) scale(0.1728 -0.1728)">
     <use xlink:href="#DejaVuSans-36"/>
    </g>
   </g>
   <g id="text_18">
    <!-- 4 -->
    <g transform="translate(526.566048 583.156) scale(0.1728 -0.1728)">
     <use xlink:href="#DejaVuSans-34"/>
    </g>
   </g>
   <g id="legend_1">
    <g id="patch_7">
     <path d="M 146.251 132.9192 
L 244.1017 132.9192 
Q 247.5577 132.9192 247.5577 129.4632 
L 247.5577 29.736 
Q 247.5577 26.28 244.1017 26.28 
L 146.251 26.28 
Q 142.795 26.28 142.795 29.736 
L 142.795 129.4632 
Q 142.795 132.9192 146.251 132.9192 
z
" style="fill: #ffffff; opacity: 0.8; stroke: #cccccc; stroke-linejoin: miter"/>
    </g>
    <g id="line2d_15">
     <path d="M 149.707 40.2741 
L 166.987 40.2741 
L 184.267 40.2741 
" style="fill: none; stroke: #000000; stroke-opacity: 0.6; stroke-width: 7; stroke-linecap: square"/>
    </g>
    <g id="text_19">
     <!-- truth -->
     <g transform="translate(198.091 46.3221) scale(0.1728 -0.1728)">
      <defs>
       <path id="DejaVuSans-72" d="M 2631 2963 
Q 2534 3019 2420 3045 
Q 2306 3072 2169 3072 
Q 1681 3072 1420 2755 
Q 1159 2438 1159 1844 
L 1159 0 
L 581 0 
L 581 3500 
L 1159 3500 
L 1159 2956 
Q 1341 3275 1631 3429 
Q 1922 3584 2338 3584 
Q 2397 3584 2469 3576 
Q 2541 3569 2628 3553 
L 2631 2963 
z
" transform="scale(0.015625)"/>
       <path id="DejaVuSans-75" d="M 544 1381 
L 544 3500 
L 1119 3500 
L 1119 1403 
Q 1119 906 1312 657 
Q 1506 409 1894 409 
Q 2359 409 2629 706 
Q 2900 1003 2900 1516 
L 2900 3500 
L 3475 3500 
L 3475 0 
L 2900 0 
L 2900 538 
Q 2691 219 2414 64 
Q 2138 -91 1772 -91 
Q 1169 -91 856 284 
Q 544 659 544 1381 
z
M 1991 3584 
L 1991 3584 
z
" transform="scale(0.015625)"/>
      </defs>
      <use xlink:href="#DejaVuSans-74"/>
      <use xlink:href="#DejaVuSans-72" x="39.208984"/>
      <use xlink:href="#DejaVuSans-75" x="80.322266"/>
      <use xlink:href="#DejaVuSans-74" x="143.701172"/>
      <use xlink:href="#DejaVuSans-68" x="182.910156"/>
     </g>
    </g>
    <g id="line2d_16">
     <path d="M 149.707 65.6379 
L 166.987 65.6379 
L 184.267 65.6379 
" style="fill: none; stroke-dasharray: 25.9,11.2; stroke-dashoffset: 0; stroke: #0000ff; stroke-opacity: 0.6; stroke-width: 7"/>
    </g>
    <g id="text_20">
     <!-- 4 -->
     <g transform="translate(198.091 71.6859) scale(0.1728 -0.1728)">
      <use xlink:href="#DejaVuSans-34"/>
     </g>
    </g>
    <g id="line2d_17">
     <path d="M 149.707 91.0017 
L 166.987 91.0017 
L 184.267 91.0017 
" style="fill: none; stroke-dasharray: 7,11.55; stroke-dashoffset: 0; stroke: #008000; stroke-opacity: 0.6; stroke-width: 7"/>
    </g>
    <g id="text_21">
     <!-- 6 -->
     <g transform="translate(198.091 97.0497) scale(0.1728 -0.1728)">
      <use xlink:href="#DejaVuSans-36"/>
     </g>
    </g>
    <g id="line2d_18">
     <path d="M 149.707 116.3655 
L 166.987 116.3655 
L 184.267 116.3655 
" style="fill: none; stroke-dasharray: 44.8,11.2,7,11.2; stroke-dashoffset: 0; stroke: #ff0000; stroke-opacity: 0.6; stroke-width: 7"/>
    </g>
    <g id="text_22">
     <!-- 7 -->
     <g transform="translate(198.091 122.4135) scale(0.1728 -0.1728)">
      <use xlink:href="#DejaVuSans-37"/>
     </g>
    </g>
   </g>
  </g>
  <g id="line2d_19">
   <path d="M 512.296556 470.0528 
L 526.566048 511.7224 
" style="fill: none; stroke: #000000; stroke-opacity: 0.5; stroke-width: 2; stroke-linecap: square"/>
  </g>
  <g id="line2d_20">
   <path d="M 562.23978 464.1 
L 540.835541 511.7224 
" style="fill: none; stroke: #000000; stroke-opacity: 0.5; stroke-width: 2; stroke-linecap: square"/>
  </g>
  <g id="line2d_21">
   <path d="M 533.700795 529.5808 
L 533.700795 559.3448 
" style="fill: none; stroke: #000000; stroke-opacity: 0.5; stroke-width: 2; stroke-linecap: square"/>
  </g>
 </g>
 <defs>
  <clipPath id="pa407f426fa">
   <rect x="134.155" y="17.64" width="713.474633" height="595.28"/>
  </clipPath>
 </defs>
</svg>
