<?xml version="1.0" encoding="utf-8" standalone="no"?>
<!DOCTYPE svg PUBLIC "-//W3C//DTD SVG 1.1//EN"
  "http://www.w3.org/Graphics/SVG/1.1/DTD/svg11.dtd">
<svg xmlns:xlink="http://www.w3.org/1999/xlink" width="864pt" height="648pt" viewBox="0 0 864 648" xmlns="http://www.w3.org/2000/svg" version="1.1">
 <metadata>
  <rdf:RDF xmlns:dc="http://purl.org/dc/elements/1.1/" xmlns:cc="http://creativecommons.org/ns#" xmlns:rdf="http://www.w3.org/1999/02/22-rdf-syntax-ns#">
   <cc:Work>
    <dc:type rdf:resource="http://purl.org/dc/dcmitype/StillImage"/>
    <dc:date>2024-10-29T14:25:11.506676</dc:date>
    <dc:format>image/svg+xml</dc:format>
    <dc:creator>
     <cc:Agent>
      <dc:title>Matplotlib v3.9.2, https://matplotlib.org/</dc:title>
     </cc:Agent>
    </dc:creator>
   </cc:Work>
  </rdf:RDF>
 </metadata>
 <defs>
  <style type="text/css">*{stroke-linejoin: round; stroke-linecap: butt}</style>
 </defs>
 <g id="figure_1">
  <g id="patch_1">
   <path d="M 0 648 
L 864 648 
L 864 0 
L 0 0 
z
" style="fill: #ffffff"/>
  </g>
  <g id="axes_1">
   <g id="patch_2">
    <path d="M 134.155 612.92 
L 847.629633 612.92 
L 847.629633 17.64 
L 134.155 17.64 
z
" style="fill: #ffffff"/>
   </g>
   <g id="matplotlib.axis_1">
    <g id="xtick_1">
     <g id="line2d_1">
      <defs>
       <path id="m24a2292e9b" d="M 0 0 
L 0 3.5 
" style="stroke: #000000; stroke-width: 0.8"/>
      </defs>
      <g>
       <use xlink:href="#m24a2292e9b" x="229.262935" y="612.92" style="stroke: #000000; stroke-width: 0.8"/>
      </g>
     </g>
     <g id="text_1">
      <!-- 2021-04-19 -->
      <g transform="translate(179.051035 633.0501) scale(0.1728 -0.1728)">
       <defs>
        <path id="DejaVuSans-32" d="M 1228 531 
L 3431 531 
L 3431 0 
L 469 0 
L 469 531 
Q 828 903 1448 1529 
Q 2069 2156 2228 2338 
Q 2531 2678 2651 2914 
Q 2772 3150 2772 3378 
Q 2772 3750 2511 3984 
Q 2250 4219 1831 4219 
Q 1534 4219 1204 4116 
Q 875 4013 500 3803 
L 500 4441 
Q 881 4594 1212 4672 
Q 1544 4750 1819 4750 
Q 2544 4750 2975 4387 
Q 3406 4025 3406 3419 
Q 3406 3131 3298 2873 
Q 3191 2616 2906 2266 
Q 2828 2175 2409 1742 
Q 1991 1309 1228 531 
z
" transform="scale(0.015625)"/>
        <path id="DejaVuSans-30" d="M 2034 4250 
Q 1547 4250 1301 3770 
Q 1056 3291 1056 2328 
Q 1056 1369 1301 889 
Q 1547 409 2034 409 
Q 2525 409 2770 889 
Q 3016 1369 3016 2328 
Q 3016 3291 2770 3770 
Q 2525 4250 2034 4250 
z
M 2034 4750 
Q 2819 4750 3233 4129 
Q 3647 3509 3647 2328 
Q 3647 1150 3233 529 
Q 2819 -91 2034 -91 
Q 1250 -91 836 529 
Q 422 1150 422 2328 
Q 422 3509 836 4129 
Q 1250 4750 2034 4750 
z
" transform="scale(0.015625)"/>
        <path id="DejaVuSans-31" d="M 794 531 
L 1825 531 
L 1825 4091 
L 703 3866 
L 703 4441 
L 1819 4666 
L 2450 4666 
L 2450 531 
L 3481 531 
L 3481 0 
L 794 0 
L 794 531 
z
" transform="scale(0.015625)"/>
        <path id="DejaVuSans-2d" d="M 313 2009 
L 1997 2009 
L 1997 1497 
L 313 1497 
L 313 2009 
z
" transform="scale(0.015625)"/>
        <path id="DejaVuSans-34" d="M 2419 4116 
L 825 1625 
L 2419 1625 
L 2419 4116 
z
M 2253 4666 
L 3047 4666 
L 3047 1625 
L 3713 1625 
L 3713 1100 
L 3047 1100 
L 3047 0 
L 2419 0 
L 2419 1100 
L 313 1100 
L 313 1709 
L 2253 4666 
z
" transform="scale(0.015625)"/>
        <path id="DejaVuSans-39" d="M 703 97 
L 703 672 
Q 941 559 1184 500 
Q 1428 441 1663 441 
Q 2288 441 2617 861 
Q 2947 1281 2994 2138 
Q 2813 1869 2534 1725 
Q 2256 1581 1919 1581 
Q 1219 1581 811 2004 
Q 403 2428 403 3163 
Q 403 3881 828 4315 
Q 1253 4750 1959 4750 
Q 2769 4750 3195 4129 
Q 3622 3509 3622 2328 
Q 3622 1225 3098 567 
Q 2575 -91 1691 -91 
Q 1453 -91 1209 -44 
Q 966 3 703 97 
z
M 1959 2075 
Q 2384 2075 2632 2365 
Q 2881 2656 2881 3163 
Q 2881 3666 2632 3958 
Q 2384 4250 1959 4250 
Q 1534 4250 1286 3958 
Q 1038 3666 1038 3163 
Q 1038 2656 1286 2365 
Q 1534 2075 1959 2075 
z
" transform="scale(0.015625)"/>
       </defs>
       <use xlink:href="#DejaVuSans-32"/>
       <use xlink:href="#DejaVuSans-30" x="63.623047"/>
       <use xlink:href="#DejaVuSans-32" x="127.246094"/>
       <use xlink:href="#DejaVuSans-31" x="190.869141"/>
       <use xlink:href="#DejaVuSans-2d" x="254.492188"/>
       <use xlink:href="#DejaVuSans-30" x="290.576172"/>
       <use xlink:href="#DejaVuSans-34" x="354.199219"/>
       <use xlink:href="#DejaVuSans-2d" x="417.822266"/>
       <use xlink:href="#DejaVuSans-31" x="453.90625"/>
       <use xlink:href="#DejaVuSans-39" x="517.529297"/>
      </g>
     </g>
    </g>
    <g id="xtick_2">
     <g id="line2d_2">
      <g>
       <use xlink:href="#m24a2292e9b" x="419.478806" y="612.92" style="stroke: #000000; stroke-width: 0.8"/>
      </g>
     </g>
     <g id="text_2">
      <!-- 2021-04-27 -->
      <g transform="translate(369.266906 633.0501) scale(0.1728 -0.1728)">
       <defs>
        <path id="DejaVuSans-37" d="M 525 4666 
L 3525 4666 
L 3525 4397 
L 1831 0 
L 1172 0 
L 2766 4134 
L 525 4134 
L 525 4666 
z
" transform="scale(0.015625)"/>
       </defs>
       <use xlink:href="#DejaVuSans-32"/>
       <use xlink:href="#DejaVuSans-30" x="63.623047"/>
       <use xlink:href="#DejaVuSans-32" x="127.246094"/>
       <use xlink:href="#DejaVuSans-31" x="190.869141"/>
       <use xlink:href="#DejaVuSans-2d" x="254.492188"/>
       <use xlink:href="#DejaVuSans-30" x="290.576172"/>
       <use xlink:href="#DejaVuSans-34" x="354.199219"/>
       <use xlink:href="#DejaVuSans-2d" x="417.822266"/>
       <use xlink:href="#DejaVuSans-32" x="453.90625"/>
       <use xlink:href="#DejaVuSans-37" x="517.529297"/>
      </g>
     </g>
    </g>
    <g id="xtick_3">
     <g id="line2d_3">
      <g>
       <use xlink:href="#m24a2292e9b" x="609.694677" y="612.92" style="stroke: #000000; stroke-width: 0.8"/>
      </g>
     </g>
     <g id="text_3">
      <!-- 2021-05-05 -->
      <g transform="translate(559.482777 633.0501) scale(0.1728 -0.1728)">
       <defs>
        <path id="DejaVuSans-35" d="M 691 4666 
L 3169 4666 
L 3169 4134 
L 1269 4134 
L 1269 2991 
Q 1406 3038 1543 3061 
Q 1681 3084 1819 3084 
Q 2600 3084 3056 2656 
Q 3513 2228 3513 1497 
Q 3513 744 3044 326 
Q 2575 -91 1722 -91 
Q 1428 -91 1123 -41 
Q 819 9 494 109 
L 494 744 
Q 775 591 1075 516 
Q 1375 441 1709 441 
Q 2250 441 2565 725 
Q 2881 1009 2881 1497 
Q 2881 1984 2565 2268 
Q 2250 2553 1709 2553 
Q 1456 2553 1204 2497 
Q 953 2441 691 2322 
L 691 4666 
z
" transform="scale(0.015625)"/>
       </defs>
       <use xlink:href="#DejaVuSans-32"/>
       <use xlink:href="#DejaVuSans-30" x="63.623047"/>
       <use xlink:href="#DejaVuSans-32" x="127.246094"/>
       <use xlink:href="#DejaVuSans-31" x="190.869141"/>
       <use xlink:href="#DejaVuSans-2d" x="254.492188"/>
       <use xlink:href="#DejaVuSans-30" x="290.576172"/>
       <use xlink:href="#DejaVuSans-35" x="354.199219"/>
       <use xlink:href="#DejaVuSans-2d" x="417.822266"/>
       <use xlink:href="#DejaVuSans-30" x="453.90625"/>
       <use xlink:href="#DejaVuSans-35" x="517.529297"/>
      </g>
     </g>
    </g>
    <g id="xtick_4">
     <g id="line2d_4">
      <g>
       <use xlink:href="#m24a2292e9b" x="799.910548" y="612.92" style="stroke: #000000; stroke-width: 0.8"/>
      </g>
     </g>
     <g id="text_4">
      <!-- 2021-05-13 -->
      <g transform="translate(749.698648 633.0501) scale(0.1728 -0.1728)">
       <defs>
        <path id="DejaVuSans-33" d="M 2597 2516 
Q 3050 2419 3304 2112 
Q 3559 1806 3559 1356 
Q 3559 666 3084 287 
Q 2609 -91 1734 -91 
Q 1441 -91 1130 -33 
Q 819 25 488 141 
L 488 750 
Q 750 597 1062 519 
Q 1375 441 1716 441 
Q 2309 441 2620 675 
Q 2931 909 2931 1356 
Q 2931 1769 2642 2001 
Q 2353 2234 1838 2234 
L 1294 2234 
L 1294 2753 
L 1863 2753 
Q 2328 2753 2575 2939 
Q 2822 3125 2822 3475 
Q 2822 3834 2567 4026 
Q 2313 4219 1838 4219 
Q 1578 4219 1281 4162 
Q 984 4106 628 3988 
L 628 4550 
Q 988 4650 1302 4700 
Q 1616 4750 1894 4750 
Q 2613 4750 3031 4423 
Q 3450 4097 3450 3541 
Q 3450 3153 3228 2886 
Q 3006 2619 2597 2516 
z
" transform="scale(0.015625)"/>
       </defs>
       <use xlink:href="#DejaVuSans-32"/>
       <use xlink:href="#DejaVuSans-30" x="63.623047"/>
       <use xlink:href="#DejaVuSans-32" x="127.246094"/>
       <use xlink:href="#DejaVuSans-31" x="190.869141"/>
       <use xlink:href="#DejaVuSans-2d" x="254.492188"/>
       <use xlink:href="#DejaVuSans-30" x="290.576172"/>
       <use xlink:href="#DejaVuSans-35" x="354.199219"/>
       <use xlink:href="#DejaVuSans-2d" x="417.822266"/>
       <use xlink:href="#DejaVuSans-31" x="453.90625"/>
       <use xlink:href="#DejaVuSans-33" x="517.529297"/>
      </g>
     </g>
    </g>
   </g>
   <g id="matplotlib.axis_2">
    <g id="ytick_1">
     <g id="line2d_5">
      <defs>
       <path id="m3096010efa" d="M 0 0 
L -3.5 0 
" style="stroke: #000000; stroke-width: 0.8"/>
      </defs>
      <g>
       <use xlink:href="#m3096010efa" x="134.155" y="612.92" style="stroke: #000000; stroke-width: 0.8"/>
      </g>
     </g>
     <g id="text_5">
      <!-- −1.0 -->
      <g transform="translate(85.1943 619.48505) scale(0.1728 -0.1728)">
       <defs>
        <path id="DejaVuSans-2212" d="M 678 2272 
L 4684 2272 
L 4684 1741 
L 678 1741 
L 678 2272 
z
" transform="scale(0.015625)"/>
        <path id="DejaVuSans-2e" d="M 684 794 
L 1344 794 
L 1344 0 
L 684 0 
L 684 794 
z
" transform="scale(0.015625)"/>
       </defs>
       <use xlink:href="#DejaVuSans-2212"/>
       <use xlink:href="#DejaVuSans-31" x="83.789062"/>
       <use xlink:href="#DejaVuSans-2e" x="147.412109"/>
       <use xlink:href="#DejaVuSans-30" x="179.199219"/>
      </g>
     </g>
    </g>
    <g id="ytick_2">
     <g id="line2d_6">
      <g>
       <use xlink:href="#m3096010efa" x="134.155" y="493.864" style="stroke: #000000; stroke-width: 0.8"/>
      </g>
     </g>
     <g id="text_6">
      <!-- −0.5 -->
      <g transform="translate(85.1943 500.42905) scale(0.1728 -0.1728)">
       <use xlink:href="#DejaVuSans-2212"/>
       <use xlink:href="#DejaVuSans-30" x="83.789062"/>
       <use xlink:href="#DejaVuSans-2e" x="147.412109"/>
       <use xlink:href="#DejaVuSans-35" x="179.199219"/>
      </g>
     </g>
    </g>
    <g id="ytick_3">
     <g id="line2d_7">
      <g>
       <use xlink:href="#m3096010efa" x="134.155" y="374.808" style="stroke: #000000; stroke-width: 0.8"/>
      </g>
     </g>
     <g id="text_7">
      <!-- 0.0 -->
      <g transform="translate(99.6744 381.37305) scale(0.1728 -0.1728)">
       <use xlink:href="#DejaVuSans-30"/>
       <use xlink:href="#DejaVuSans-2e" x="63.623047"/>
       <use xlink:href="#DejaVuSans-30" x="95.410156"/>
      </g>
     </g>
    </g>
    <g id="ytick_4">
     <g id="line2d_8">
      <g>
       <use xlink:href="#m3096010efa" x="134.155" y="255.752" style="stroke: #000000; stroke-width: 0.8"/>
      </g>
     </g>
     <g id="text_8">
      <!-- 0.5 -->
      <g transform="translate(99.6744 262.31705) scale(0.1728 -0.1728)">
       <use xlink:href="#DejaVuSans-30"/>
       <use xlink:href="#DejaVuSans-2e" x="63.623047"/>
       <use xlink:href="#DejaVuSans-35" x="95.410156"/>
      </g>
     </g>
    </g>
    <g id="ytick_5">
     <g id="line2d_9">
      <g>
       <use xlink:href="#m3096010efa" x="134.155" y="136.696" style="stroke: #000000; stroke-width: 0.8"/>
      </g>
     </g>
     <g id="text_9">
      <!-- 1.0 -->
      <g transform="translate(99.6744 143.26105) scale(0.1728 -0.1728)">
       <use xlink:href="#DejaVuSans-31"/>
       <use xlink:href="#DejaVuSans-2e" x="63.623047"/>
       <use xlink:href="#DejaVuSans-30" x="95.410156"/>
      </g>
     </g>
    </g>
    <g id="ytick_6">
     <g id="line2d_10">
      <g>
       <use xlink:href="#m3096010efa" x="134.155" y="17.64" style="stroke: #000000; stroke-width: 0.8"/>
      </g>
     </g>
     <g id="text_10">
      <!-- 1.5 -->
      <g transform="translate(99.6744 24.20505) scale(0.1728 -0.1728)">
       <use xlink:href="#DejaVuSans-31"/>
       <use xlink:href="#DejaVuSans-2e" x="63.623047"/>
       <use xlink:href="#DejaVuSans-35" x="95.410156"/>
      </g>
     </g>
    </g>
    <g id="text_11">
     <!-- Node 8 -->
     <g transform="translate(24.39945 292.33648) scale(0.1728 -0.1728)">
      <defs>
       <path id="DejaVuSans-4e" d="M 628 4666 
L 1478 4666 
L 3547 763 
L 3547 4666 
L 4159 4666 
L 4159 0 
L 3309 0 
L 1241 3903 
L 1241 0 
L 628 0 
L 628 4666 
z
" transform="scale(0.015625)"/>
       <path id="DejaVuSans-6f" d="M 1959 3097 
Q 1497 3097 1228 2736 
Q 959 2375 959 1747 
Q 959 1119 1226 758 
Q 1494 397 1959 397 
Q 2419 397 2687 759 
Q 2956 1122 2956 1747 
Q 2956 2369 2687 2733 
Q 2419 3097 1959 3097 
z
M 1959 3584 
Q 2709 3584 3137 3096 
Q 3566 2609 3566 1747 
Q 3566 888 3137 398 
Q 2709 -91 1959 -91 
Q 1206 -91 779 398 
Q 353 888 353 1747 
Q 353 2609 779 3096 
Q 1206 3584 1959 3584 
z
" transform="scale(0.015625)"/>
       <path id="DejaVuSans-64" d="M 2906 2969 
L 2906 4863 
L 3481 4863 
L 3481 0 
L 2906 0 
L 2906 525 
Q 2725 213 2448 61 
Q 2172 -91 1784 -91 
Q 1150 -91 751 415 
Q 353 922 353 1747 
Q 353 2572 751 3078 
Q 1150 3584 1784 3584 
Q 2172 3584 2448 3432 
Q 2725 3281 2906 2969 
z
M 947 1747 
Q 947 1113 1208 752 
Q 1469 391 1925 391 
Q 2381 391 2643 752 
Q 2906 1113 2906 1747 
Q 2906 2381 2643 2742 
Q 2381 3103 1925 3103 
Q 1469 3103 1208 2742 
Q 947 2381 947 1747 
z
" transform="scale(0.015625)"/>
       <path id="DejaVuSans-65" d="M 3597 1894 
L 3597 1613 
L 953 1613 
Q 991 1019 1311 708 
Q 1631 397 2203 397 
Q 2534 397 2845 478 
Q 3156 559 3463 722 
L 3463 178 
Q 3153 47 2828 -22 
Q 2503 -91 2169 -91 
Q 1331 -91 842 396 
Q 353 884 353 1716 
Q 353 2575 817 3079 
Q 1281 3584 2069 3584 
Q 2775 3584 3186 3129 
Q 3597 2675 3597 1894 
z
M 3022 2063 
Q 3016 2534 2758 2815 
Q 2500 3097 2075 3097 
Q 1594 3097 1305 2825 
Q 1016 2553 972 2059 
L 3022 2063 
z
" transform="scale(0.015625)"/>
       <path id="DejaVuSans-20" transform="scale(0.015625)"/>
       <path id="DejaVuSans-38" d="M 2034 2216 
Q 1584 2216 1326 1975 
Q 1069 1734 1069 1313 
Q 1069 891 1326 650 
Q 1584 409 2034 409 
Q 2484 409 2743 651 
Q 3003 894 3003 1313 
Q 3003 1734 2745 1975 
Q 2488 2216 2034 2216 
z
M 1403 2484 
Q 997 2584 770 2862 
Q 544 3141 544 3541 
Q 544 4100 942 4425 
Q 1341 4750 2034 4750 
Q 2731 4750 3128 4425 
Q 3525 4100 3525 3541 
Q 3525 3141 3298 2862 
Q 3072 2584 2669 2484 
Q 3125 2378 3379 2068 
Q 3634 1759 3634 1313 
Q 3634 634 3220 271 
Q 2806 -91 2034 -91 
Q 1263 -91 848 271 
Q 434 634 434 1313 
Q 434 1759 690 2068 
Q 947 2378 1403 2484 
z
M 1172 3481 
Q 1172 3119 1398 2916 
Q 1625 2713 2034 2713 
Q 2441 2713 2670 2916 
Q 2900 3119 2900 3481 
Q 2900 3844 2670 4047 
Q 2441 4250 2034 4250 
Q 1625 4250 1398 4047 
Q 1172 3844 1172 3481 
z
" transform="scale(0.015625)"/>
      </defs>
      <use xlink:href="#DejaVuSans-4e"/>
      <use xlink:href="#DejaVuSans-6f" x="74.804688"/>
      <use xlink:href="#DejaVuSans-64" x="135.986328"/>
      <use xlink:href="#DejaVuSans-65" x="199.462891"/>
      <use xlink:href="#DejaVuSans-20" x="260.986328"/>
      <use xlink:href="#DejaVuSans-38" x="292.773438"/>
     </g>
     <!-- Depth (m) -->
     <g transform="translate(10.9737 311.6863) scale(0.1728 -0.1728)">
      <defs>
       <path id="DejaVuSans-44" d="M 1259 4147 
L 1259 519 
L 2022 519 
Q 2988 519 3436 956 
Q 3884 1394 3884 2338 
Q 3884 3275 3436 3711 
Q 2988 4147 2022 4147 
L 1259 4147 
z
M 628 4666 
L 1925 4666 
Q 3281 4666 3915 4102 
Q 4550 3538 4550 2338 
Q 4550 1131 3912 565 
Q 3275 0 1925 0 
L 628 0 
L 628 4666 
z
" transform="scale(0.015625)"/>
       <path id="DejaVuSans-70" d="M 1159 525 
L 1159 -1331 
L 581 -1331 
L 581 3500 
L 1159 3500 
L 1159 2969 
Q 1341 3281 1617 3432 
Q 1894 3584 2278 3584 
Q 2916 3584 3314 3078 
Q 3713 2572 3713 1747 
Q 3713 922 3314 415 
Q 2916 -91 2278 -91 
Q 1894 -91 1617 61 
Q 1341 213 1159 525 
z
M 3116 1747 
Q 3116 2381 2855 2742 
Q 2594 3103 2138 3103 
Q 1681 3103 1420 2742 
Q 1159 2381 1159 1747 
Q 1159 1113 1420 752 
Q 1681 391 2138 391 
Q 2594 391 2855 752 
Q 3116 1113 3116 1747 
z
" transform="scale(0.015625)"/>
       <path id="DejaVuSans-74" d="M 1172 4494 
L 1172 3500 
L 2356 3500 
L 2356 3053 
L 1172 3053 
L 1172 1153 
Q 1172 725 1289 603 
Q 1406 481 1766 481 
L 2356 481 
L 2356 0 
L 1766 0 
Q 1100 0 847 248 
Q 594 497 594 1153 
L 594 3053 
L 172 3053 
L 172 3500 
L 594 3500 
L 594 4494 
L 1172 4494 
z
" transform="scale(0.015625)"/>
       <path id="DejaVuSans-68" d="M 3513 2113 
L 3513 0 
L 2938 0 
L 2938 2094 
Q 2938 2591 2744 2837 
Q 2550 3084 2163 3084 
Q 1697 3084 1428 2787 
Q 1159 2491 1159 1978 
L 1159 0 
L 581 0 
L 581 4863 
L 1159 4863 
L 1159 2956 
Q 1366 3272 1645 3428 
Q 1925 3584 2291 3584 
Q 2894 3584 3203 3211 
Q 3513 2838 3513 2113 
z
" transform="scale(0.015625)"/>
       <path id="DejaVuSans-28" d="M 1984 4856 
Q 1566 4138 1362 3434 
Q 1159 2731 1159 2009 
Q 1159 1288 1364 580 
Q 1569 -128 1984 -844 
L 1484 -844 
Q 1016 -109 783 600 
Q 550 1309 550 2009 
Q 550 2706 781 3412 
Q 1013 4119 1484 4856 
L 1984 4856 
z
" transform="scale(0.015625)"/>
       <path id="DejaVuSans-6d" d="M 3328 2828 
Q 3544 3216 3844 3400 
Q 4144 3584 4550 3584 
Q 5097 3584 5394 3201 
Q 5691 2819 5691 2113 
L 5691 0 
L 5113 0 
L 5113 2094 
Q 5113 2597 4934 2840 
Q 4756 3084 4391 3084 
Q 3944 3084 3684 2787 
Q 3425 2491 3425 1978 
L 3425 0 
L 2847 0 
L 2847 2094 
Q 2847 2600 2669 2842 
Q 2491 3084 2119 3084 
Q 1678 3084 1418 2786 
Q 1159 2488 1159 1978 
L 1159 0 
L 581 0 
L 581 3500 
L 1159 3500 
L 1159 2956 
Q 1356 3278 1631 3431 
Q 1906 3584 2284 3584 
Q 2666 3584 2933 3390 
Q 3200 3197 3328 2828 
z
" transform="scale(0.015625)"/>
       <path id="DejaVuSans-29" d="M 513 4856 
L 1013 4856 
Q 1481 4119 1714 3412 
Q 1947 2706 1947 2009 
Q 1947 1309 1714 600 
Q 1481 -109 1013 -844 
L 513 -844 
Q 928 -128 1133 580 
Q 1338 1288 1338 2009 
Q 1338 2731 1133 3434 
Q 928 4138 513 4856 
z
" transform="scale(0.015625)"/>
      </defs>
      <use xlink:href="#DejaVuSans-44"/>
      <use xlink:href="#DejaVuSans-65" x="77.001953"/>
      <use xlink:href="#DejaVuSans-70" x="138.525391"/>
      <use xlink:href="#DejaVuSans-74" x="202.001953"/>
      <use xlink:href="#DejaVuSans-68" x="241.210938"/>
      <use xlink:href="#DejaVuSans-20" x="304.589844"/>
      <use xlink:href="#DejaVuSans-28" x="336.376953"/>
      <use xlink:href="#DejaVuSans-6d" x="375.390625"/>
      <use xlink:href="#DejaVuSans-29" x="472.802734"/>
     </g>
    </g>
   </g>
   <g id="line2d_11">
    <path d="M 134.072441 243.127072 
L 134.320118 243.22722 
M 134.485236 243.253276 
L 134.567795 243.303413 
M 134.732913 243.329634 
L 135.475944 243.583953 
M 135.641061 243.61033 
L 136.136415 243.788923 
M 136.301533 243.815448 
L 136.796887 243.994545 
M 136.962005 244.02126 
L 137.870154 244.330094 
M 138.035272 244.356857 
L 142.245779 245.618399 
L 142.410897 244.194419 
L 142.658574 241.958862 
L 142.98881 241.121772 
L 143.236487 240.771512 
L 143.896959 236.068387 
L 144.227195 235.855006 
L 144.639989 235.942095 
L 145.300461 236.352063 
L 145.465579 236.389161 
L 145.630697 235.026201 
L 145.878374 232.815864 
M 146.043492 232.644104 
L 146.20861 232.315003 
L 146.703964 227.813614 
L 147.199318 218.960377 
L 147.281876 218.828519 
M 147.446994 218.616708 
L 147.529553 217.087033 
M 147.694671 216.12116 
L 147.942348 215.15975 
L 148.190025 215.069492 
L 148.437702 215.259972 
L 148.520261 215.458558 
M 148.685379 215.580581 
L 149.015615 216.221368 
M 149.180733 216.370952 
L 150.088882 217.996486 
L 150.171441 218.294563 
M 150.336558 218.455906 
L 152.235415 222.063625 
M 152.400533 222.217881 
L 154.299389 225.633781 
M 154.464507 225.777385 
L 154.877302 226.589455 
M 155.04242 226.731013 
L 155.455215 227.525147 
M 155.620333 227.662732 
L 157.188953 230.21361 
M 157.354071 230.341931 
L 159.087809 232.847663 
L 159.418045 233.412247 
M 159.583163 233.529298 
L 160.491312 234.851982 
M 160.65643 234.964571 
L 162.637845 237.448563 
L 164.289025 239.45285 
M 164.454143 239.54761 
L 166.352999 241.573261 
L 167.261148 242.559718 
M 167.426266 242.642902 
L 169.407681 244.489211 
L 171.471655 246.249051 
L 172.544922 247.161405 
M 172.71004 247.227518 
L 174.856573 248.856939 
M 175.021691 248.916329 
L 177.168224 250.338391 
L 180.71826 252.460414 
M 180.883378 252.507015 
L 185.176444 254.667921 
M 185.341562 254.707031 
L 187.900891 255.841012 
M 188.066009 255.876221 
L 190.212542 256.749669 
M 190.37766 256.78216 
L 192.77187 257.676183 
M 192.936988 257.706329 
L 193.184665 257.818573 
M 193.349783 257.848166 
L 194.588167 258.28945 
M 194.753285 258.317799 
L 195.000962 258.424114 
M 195.16608 258.452088 
L 199.128911 259.688071 
M 199.294029 259.712949 
L 199.541706 259.80688 
M 199.706824 259.831667 
L 201.440562 260.338092 
M 201.60568 260.361842 
L 202.513829 260.627996 
M 202.678946 260.651072 
L 203.834772 260.975081 
M 203.99989 260.997501 
L 204.495244 261.144909 
M 204.660362 261.167115 
L 206.311541 261.59984 
M 206.476659 261.621299 
L 208.458075 262.116464 
M 208.623192 262.136878 
L 211.925551 262.908906 
M 212.090669 262.928194 
L 212.998818 263.144713 
M 213.163936 263.163996 
L 213.576731 263.269991 
M 213.741849 263.289055 
L 218.777946 264.349136 
M 218.943064 264.365976 
L 219.108182 264.414982 
M 219.2733 264.431697 
L 220.016331 264.594444 
M 220.181448 264.611073 
L 221.337274 264.851688 
M 221.502392 264.868126 
L 222.245423 265.025999 
M 222.410541 265.042283 
L 222.658218 265.104568 
M 222.823336 265.120697 
L 224.639633 265.476119 
M 224.804751 265.491969 
L 225.7129 265.673635 
M 225.878018 265.689321 
L 228.024551 266.090771 
M 228.189669 266.106172 
L 228.932699 266.251642 
M 229.262935 266.296014 
L 232.235058 266.823344 
M 232.400176 266.838145 
L 233.308325 267.004802 
M 233.473443 267.019399 
L 234.711827 267.239069 
M 234.876945 267.253547 
L 235.702535 267.40239 
M 235.867653 267.416745 
L 237.518833 267.697639 
M 237.68395 267.711798 
L 238.922335 267.922127 
M 239.087453 267.936108 
L 240.738632 268.208056 
M 240.90375 268.221761 
L 243.050284 268.564783 
M 243.215402 268.578187 
L 247.921263 269.291427 
M 248.086381 269.304354 
L 253.039919 270.02054 
M 253.205037 270.032944 
L 253.865509 270.13498 
M 254.030627 270.147308 
L 254.691099 270.248609 
M 254.856217 270.260854 
L 258.736488 270.793281 
M 258.901606 270.804216 
L 265.01097 271.590675 
L 265.093529 271.507818 
L 265.258647 269.456385 
L 265.341206 267.150424 
M 265.506324 266.51204 
L 265.919119 264.066512 
L 266.166796 259.480064 
M 266.331914 258.813067 
L 267.900534 236.880297 
L 268.148211 236.193264 
L 268.313329 236.000441 
L 268.478447 234.347563 
L 268.973801 227.894887 
L 269.138919 227.618097 
L 269.221478 227.612912 
L 269.304037 227.481752 
L 269.469155 226.076534 
L 269.964508 220.233074 
L 270.129626 220.047641 
L 270.294744 220.154219 
L 270.707539 220.927904 
L 271.698247 223.511199 
L 273.514544 228.808715 
M 273.679662 229.049022 
L 276.569226 236.610553 
L 279.789026 244.224368 
M 279.954144 244.412544 
L 282.596031 249.681165 
L 284.494887 253.177642 
M 284.660005 253.326219 
L 285.815831 255.177939 
L 285.89839 249.763192 
L 286.311185 178.214181 
L 286.558862 168.733941 
L 286.72398 167.297836 
L 286.889098 167.157147 
L 286.971657 167.262238 
L 287.054216 167.640224 
M 287.219333 167.902912 
L 287.962364 170.625967 
L 293.90661 194.070906 
L 294.236846 193.096485 
L 294.401964 193.283776 
L 294.814759 194.359889 
L 294.979877 195.136129 
M 295.144995 195.413676 
L 296.30082 199.508697 
L 296.383379 200.080472 
M 296.548497 200.381239 
L 300.015974 212.503921 
L 304.556718 226.728196 
L 304.639277 227.195629 
M 304.804394 227.441282 
L 305.547425 229.780368 
M 305.712543 230.018755 
L 306.950928 233.605487 
M 307.116046 233.831666 
L 309.014902 238.665988 
L 310.335846 241.789761 
L 310.418405 242.162236 
M 310.583522 242.357826 
L 312.39982 246.319699 
L 312.812615 247.327878 
M 312.977733 247.502534 
L 314.216117 250.077979 
M 314.381235 250.240281 
L 315.949856 253.065842 
L 317.353358 255.506101 
M 317.518476 255.64108 
L 318.921979 257.753401 
L 321.976661 261.743724 
L 324.948784 264.923994 
L 327.838348 267.440496 
L 329.902322 268.993082 
M 330.06744 269.051922 
L 331.63606 270.080824 
M 331.801178 270.132082 
L 331.883737 270.22498 
M 332.048855 270.275796 
L 334.938419 271.799349 
M 335.103537 271.83954 
L 335.846568 272.201854 
M 336.011686 272.239938 
L 337.167511 272.740863 
M 337.332629 272.775394 
L 339.809398 273.673517 
M 339.974516 273.701732 
L 343.607111 274.720026 
L 346.248998 275.334787 
M 346.414116 275.353214 
L 351.119978 276.190302 
L 351.450213 276.253244 
M 351.615331 276.26681 
L 354.422336 276.669093 
M 354.587454 276.679811 
L 358.96308 277.202753 
M 359.128198 277.211655 
L 359.78867 277.289625 
M 359.953788 277.207343 
L 360.118905 275.001455 
L 360.366582 271.695793 
L 360.696818 270.485036 
L 360.779377 270.253528 
M 360.944495 270.178647 
L 361.274731 270.060037 
L 361.439849 270.079872 
M 361.604967 270.09939 
L 362.347998 270.422954 
L 362.925911 270.647956 
L 363.091028 268.604722 
L 363.338705 265.644117 
L 363.503823 263.712157 
L 363.834059 258.846699 
L 363.916618 258.219985 
M 364.081736 258.056551 
L 364.164295 257.741292 
L 364.742208 252.411613 
L 364.989885 252.264855 
L 365.237562 252.414948 
L 365.485239 252.701745 
L 365.567798 252.921538 
M 365.732916 253.046058 
L 367.053859 255.298492 
L 368.127126 257.329376 
M 368.292244 257.473193 
L 369.695746 259.942122 
M 369.860864 260.076055 
L 371.75972 262.932051 
L 371.924838 263.273793 
M 372.089956 263.390856 
L 373.741136 265.648177 
M 373.906254 265.751464 
L 375.062079 267.191097 
M 375.227197 267.285196 
L 375.392315 267.553704 
M 375.557433 267.645418 
L 377.208613 269.321815 
L 380.510971 272.119985 
M 380.676089 272.181247 
L 380.758648 272.296079 
M 380.923766 272.356137 
L 381.666797 272.911113 
M 381.831915 272.96687 
L 383.152859 273.819899 
M 383.317977 273.869028 
L 383.565653 274.052324 
M 383.730771 274.0998 
L 384.969156 274.78291 
M 385.134274 274.824958 
L 387.198248 275.742535 
L 388.931987 276.42155 
M 389.097105 276.451523 
L 389.922694 276.750057 
M 390.087812 276.777638 
L 393.885525 277.799995 
L 394.050643 277.855519 
M 394.215761 277.875092 
L 397.353002 278.506315 
M 397.51812 278.521477 
L 402.801894 279.275895 
L 405.52634 279.58159 
M 405.691458 279.590564 
L 407.425196 279.762888 
M 407.590314 279.771027 
L 409.241494 279.920613 
M 409.406612 279.928108 
L 410.31476 280.007744 
M 410.479878 280.014887 
L 410.892673 280.052972 
M 411.057791 280.059946 
L 413.617119 280.252612 
M 413.782237 280.258923 
L 414.525268 280.314819 
M 414.690386 280.320941 
L 416.836919 280.465059 
M 417.002037 280.470262 
L 423.19396 280.833012 
M 423.359078 280.837516 
L 424.927698 280.924886 
M 425.092816 280.929598 
L 426.248642 280.96822 
M 426.41376 280.968211 
L 426.826555 280.968157 
M 427.321908 280.968111 
L 429.716119 280.967861 
M 429.881237 280.967855 
L 430.706826 280.967769 
M 430.871944 280.967764 
L 431.367298 280.967709 
M 431.532416 280.967703 
L 433.018477 280.967565 
M 433.183595 280.967555 
L 435.908041 280.96733 
M 436.073159 280.967325 
L 442.595318 280.966871 
M 442.925554 280.966855 
L 443.998821 280.966786 
M 444.163939 280.966782 
L 444.906969 280.96673 
M 445.072087 280.966726 
L 452.832631 280.873932 
L 452.997749 278.439615 
L 453.245426 274.961549 
L 453.493102 273.68806 
L 453.823338 272.985452 
L 454.236133 272.631575 
L 454.814046 272.490425 
L 454.979164 272.486253 
M 455.144282 272.489411 
L 456.382666 272.677618 
L 456.960579 272.826612 
M 457.125697 272.847223 
L 460.428056 273.678893 
M 460.593174 273.699245 
L 463.730415 274.399071 
M 463.895533 274.416336 
L 464.968799 274.638312 
M 465.299035 274.684864 
L 467.032774 275.003126 
M 467.197892 275.01745 
L 470.004897 275.464087 
M 470.170015 275.476463 
L 470.500251 275.534549 
M 470.665369 275.546793 
L 471.243281 275.637187 
M 471.408399 275.552965 
L 471.573517 273.374429 
L 471.821194 269.790975 
M 471.986312 269.440323 
L 472.15143 268.765727 
L 472.316548 266.143492 
L 472.811902 256.103145 
L 472.894461 255.445187 
M 473.059579 255.263465 
L 473.142138 254.029534 
M 473.307256 252.53003 
L 473.554933 243.702452 
L 473.802609 238.424964 
L 474.050286 234.95718 
L 474.54564 227.643861 
L 474.710758 227.130434 
M 474.875876 227.097404 
L 475.123553 227.194381 
L 475.618907 227.77496 
L 476.527056 229.235052 
L 476.609614 229.141435 
L 476.774732 225.699165 
L 477.270086 213.201438 
M 477.435204 209.647537 
L 477.682881 201.545199 
L 478.59103 194.82811 
L 478.756148 194.306088 
L 478.921266 194.296139 
L 479.168943 194.63911 
L 479.746855 196.020128 
L 480.077091 197.144251 
M 480.242209 197.381982 
L 480.572445 198.136373 
M 480.737563 197.639658 
L 480.902681 194.969911 
L 481.150358 190.307585 
L 481.315476 189.738108 
L 481.563153 189.677334 
L 481.728271 188.653143 
L 481.81083 187.689475 
L 481.893389 184.07977 
M 482.058507 181.456262 
L 482.471301 169.52163 
L 482.718978 168.098969 
L 482.884096 167.520263 
L 483.131773 166.214384 
L 483.296891 166.223588 
L 483.544568 166.701698 
L 484.122481 168.44767 
L 484.20504 169.00295 
M 484.370158 169.286498 
L 486.434132 176.602417 
L 488.663224 184.625282 
M 488.828342 184.907958 
L 489.81905 188.507099 
M 489.984168 188.78146 
L 490.727199 191.488494 
M 490.892317 191.757218 
L 491.470229 193.881292 
M 491.635347 194.14647 
L 494.194675 202.054184 
L 496.671445 209.183548 
L 497.331916 211.223876 
M 497.497034 211.453384 
L 498.405183 213.837161 
L 498.487742 213.670931 
L 498.65286 212.276005 
L 499.065655 208.308311 
L 499.230773 207.390728 
L 499.808686 201.46118 
L 499.973803 201.362268 
L 500.22148 201.633705 
L 500.716834 202.714744 
L 501.377306 204.47134 
L 501.459865 204.913352 
M 501.624983 205.144274 
L 503.358721 210.197881 
M 503.523839 210.429907 
L 505.422696 215.7334 
M 505.587814 215.953641 
L 507.569229 221.139008 
M 507.734347 221.345004 
L 508.229701 222.725409 
M 508.394819 222.927157 
L 509.468085 225.601888 
M 509.633203 225.792879 
L 510.954147 228.882373 
M 511.119265 229.064595 
L 513.183239 233.306095 
L 513.92627 234.887714 
M 514.091388 235.047984 
L 514.173947 235.354785 
M 514.339065 235.513377 
L 516.155362 238.914943 
M 516.32048 239.060132 
L 518.054218 241.916466 
L 520.943782 246.261408 
M 521.1089 246.377785 
L 522.099608 247.785069 
M 522.264726 247.896427 
L 524.658936 250.843601 
M 524.824054 250.941138 
L 527.135705 253.421112 
M 527.300823 253.506301 
L 529.612474 255.532623 
L 530.7683 255.627032 
L 533.16251 256.149635 
M 533.327628 256.168755 
L 535.639279 256.686396 
M 535.804397 256.705859 
L 536.299751 256.830855 
M 536.464869 256.850426 
L 538.116048 257.229965 
M 538.281166 257.249487 
L 539.684669 257.576127 
M 539.849787 257.595683 
L 540.510259 257.758634 
M 540.675377 257.778231 
L 540.923053 257.849923 
M 541.088171 257.86972 
L 541.831202 258.050678 
M 541.99632 258.070491 
L 546.619622 259.105573 
M 546.78474 259.125103 
L 553.637135 260.620772 
M 553.802253 260.639809 
L 555.040638 260.917427 
M 555.205756 260.936598 
L 565.443068 263.01722 
L 565.525627 262.952873 
L 565.690745 261.224144 
L 565.938422 258.477278 
L 566.10354 256.660479 
L 566.681453 243.18187 
L 566.92913 231.457888 
L 567.176806 222.362622 
L 567.424483 219.603073 
L 567.589601 217.290322 
L 568.002396 207.885408 
L 568.332632 203.646524 
L 568.49775 202.906873 
L 568.993104 196.32201 
L 569.405899 193.624126 
L 569.488458 193.443771 
L 569.736135 191.381925 
L 570.06637 188.265992 
L 570.231488 188.080921 
L 570.479165 188.292817 
L 570.644283 187.421794 
L 570.89196 186.577667 
L 571.057078 186.702057 
L 571.222196 186.900116 
L 571.387314 186.101887 
L 571.882668 182.458049 
L 571.965227 182.295978 
L 572.212904 180.475504 
L 572.54314 177.706116 
L 572.708258 177.619859 
L 572.955934 178.037955 
L 573.533847 179.761873 
L 573.616406 180.308664 
M 573.781524 180.612357 
L 575.267586 185.883268 
L 575.350145 186.463398 
M 575.515263 186.779755 
L 576.340852 189.981563 
M 576.50597 190.294425 
L 578.15715 196.270025 
M 578.322268 196.576758 
L 579.147857 199.278435 
L 579.230416 199.221883 
L 579.560652 197.997333 
L 579.643211 198.093462 
M 579.808329 198.227166 
L 580.221124 199.166288 
L 580.716478 200.572902 
L 580.799037 201.06756 
M 580.964155 201.343706 
L 586.825842 218.826515 
L 587.73399 221.50742 
M 587.899108 221.72854 
L 588.55958 223.423237 
L 588.642139 223.240989 
L 588.807257 221.374927 
L 589.054934 212.721085 
L 589.38517 185.972026 
M 589.550288 183.16766 
L 589.715406 181.388221 
L 589.880524 181.071568 
L 590.045642 181.223434 
L 590.375877 181.995514 
L 590.458436 182.479342 
M 590.623554 182.764685 
L 592.109616 187.892851 
L 593.430559 192.576694 
L 594.586385 196.867088 
M 594.751503 197.153707 
L 595.246857 198.683434 
L 595.411975 196.460282 
L 595.494534 194.336173 
M 595.659652 193.971168 
L 595.82477 193.831866 
L 595.989888 194.013408 
L 596.402682 194.982969 
L 597.310831 197.777046 
L 600.61319 208.42342 
L 600.695749 208.928608 
M 600.860867 209.206881 
L 601.108544 210.207915 
M 601.273662 210.480616 
L 604.906256 221.055409 
L 606.144641 224.39801 
L 606.722554 226.109013 
M 606.887672 226.339381 
L 607.217908 227.372447 
M 607.383026 227.596524 
L 608.208615 229.829307 
M 608.373733 230.045002 
L 611.263297 236.648037 
L 612.584241 239.567617 
M 612.749359 239.747218 
L 615.06101 244.289066 
M 615.226128 244.448945 
L 615.721482 245.453905 
M 615.8866 245.609837 
L 617.124984 247.802434 
M 617.290102 247.947582 
L 619.766871 251.662299 
L 622.078523 254.784482 
M 622.243641 254.894384 
L 624.142497 257.145613 
M 624.307615 257.242353 
L 625.298322 258.341967 
M 625.46344 258.431445 
L 627.857651 260.697356 
M 628.022769 260.77307 
L 630.416979 262.634056 
L 630.994892 263.096463 
M 631.160009 263.158092 
L 633.719338 264.767299 
L 636.196107 266.122255 
M 636.361225 266.166064 
L 639.250789 267.441065 
L 642.470589 268.614132 
L 645.772947 269.625077 
M 645.938065 269.647485 
L 647.754363 270.028001 
L 647.919481 268.066041 
L 648.167158 265.129606 
L 648.497394 263.911531 
M 648.662511 263.822224 
L 648.74507 263.569821 
L 648.910188 261.360043 
L 649.653219 245.905387 
L 650.066014 244.169452 
L 650.148573 243.005138 
L 650.231132 240.060188 
M 650.39625 238.283134 
L 651.056722 226.380921 
L 651.304399 224.805374 
L 651.469516 222.015249 
L 652.212547 204.291833 
L 652.460224 201.390242 
M 652.625342 201.174766 
L 652.79046 201.123035 
L 653.038137 201.438178 
L 653.533491 202.583456 
L 653.61605 203.002652 
M 653.781168 203.24263 
L 654.028845 204.142818 
M 654.193963 204.39323 
L 654.441639 205.022873 
L 654.524198 204.867542 
L 654.854434 203.344222 
L 655.019552 203.363955 
L 655.267229 203.723988 
L 655.845142 205.075319 
L 656.340496 206.639875 
M 656.505614 206.88373 
L 658.074234 211.302002 
L 658.156793 211.750049 
M 658.321911 211.996645 
L 659.560296 215.599885 
M 659.725414 215.836476 
L 660.138209 217.143054 
M 660.303326 217.375341 
L 661.954506 221.815823 
M 662.119624 222.035766 
L 664.596393 228.109214 
M 664.761511 228.308771 
L 664.926629 228.85331 
M 665.091747 229.052441 
L 668.228988 235.614232 
L 669.467372 237.982301 
L 669.549931 236.682222 
L 669.962726 211.663264 
L 670.210403 210.535402 
L 670.375521 210.502113 
L 670.623198 210.808471 
L 671.201111 212.060787 
L 671.28367 212.464591 
M 671.448788 212.682731 
L 676.732562 226.412638 
L 678.301182 230.26316 
M 678.4663 230.46334 
L 679.29189 232.468514 
M 679.457008 232.661632 
L 682.51169 239.036342 
M 682.676808 239.206328 
L 682.924485 239.81248 
M 683.089603 239.979526 
L 686.226844 245.498469 
M 686.391962 245.641883 
L 689.116408 249.646766 
L 690.685028 251.787312 
M 690.850146 251.900695 
L 693.244356 254.661469 
L 695.473448 256.910791 
L 697.950218 259.081011 
L 702.325843 262.219131 
M 702.490961 262.269629 
L 704.389817 263.402588 
M 704.554935 263.447575 
L 705.215407 263.834953 
M 705.380525 263.87712 
L 708.022412 265.117481 
L 708.930561 265.530839 
M 709.095679 265.564602 
L 710.829417 266.262672 
M 710.994535 266.292933 
L 712.563156 266.86469 
M 712.728273 266.892175 
L 715.700396 267.819046 
M 715.865514 267.842776 
L 719.993463 268.884038 
L 721.149289 269.159475 
M 721.314407 269.178763 
L 724.534206 269.844685 
M 724.699324 269.861615 
L 726.102827 270.133385 
M 726.267945 270.149342 
L 726.515622 270.206734 
M 726.68074 270.222563 
L 728.414478 270.531316 
M 728.579596 270.546222 
L 731.881955 271.07706 
M 732.047073 271.090594 
L 736.835493 271.774637 
M 737.000611 271.786723 
L 739.312262 272.095266 
M 739.47738 272.106779 
L 743.275093 272.577634 
M 743.440211 272.588388 
L 750.787959 273.41137 
M 750.953077 273.420126 
L 761.355508 274.452918 
M 761.520626 274.460729 
L 765.070662 274.790252 
M 765.235779 274.797754 
L 766.309046 274.899732 
M 766.474164 274.907049 
L 766.969518 274.957549 
M 767.134636 274.96491 
L 769.281169 275.156791 
M 769.446287 275.163988 
L 772.831205 275.453655 
M 772.996323 275.460612 
L 773.739354 275.527879 
M 773.904471 275.534679 
L 774.234707 275.56809 
M 774.399825 275.574957 
L 775.968446 275.707199 
M 776.133564 275.713859 
L 778.85801 275.933705 
M 779.023128 275.94016 
L 782.325487 276.196942 
M 782.490605 276.203334 
L 782.655722 276.221545 
M 782.82084 276.22778 
L 783.398753 276.276586 
M 783.563871 276.282868 
L 790.333707 276.770899 
M 790.498825 276.776726 
L 793.718625 276.999856 
M 793.883743 277.005483 
L 798.09425 277.284348 
M 798.259368 277.289725 
L 800.901255 277.55522 
M 801.066373 277.569516 
L 802.552435 277.819468 
M 802.717553 277.832235 
L 807.010619 278.388426 
L 807.836209 278.486984 
M 808.001327 278.495982 
L 809.157152 278.621769 
M 809.32227 278.630231 
L 809.404829 278.645917 
M 809.569947 278.654217 
L 815.596752 279.159802 
M 815.76187 279.165982 
L 822.779383 279.612848 
M 822.944501 279.617694 
L 823.439854 279.64958 
M 823.604972 279.654302 
L 824.760798 279.721111 
M 824.925916 279.725677 
L 825.42127 279.755976 
M 825.586388 279.760524 
L 826.907331 279.832466 
M 827.072449 279.83681 
L 834.585316 280.192238 
M 834.750434 280.195989 
L 837.805116 280.32927 
M 837.970234 280.33287 
L 846.886602 280.682965 
M 847.05172 280.686152 
L 847.712192 280.710077 
L 847.712192 280.710077 
" clip-path="url(#pd09bb02a4a)" style="fill: none; stroke: #000000; stroke-opacity: 0.6; stroke-width: 7; stroke-linecap: square"/>
   </g>
   <g id="line2d_12">
    <path d="M 134.072441 389.691751 
L 134.320118 389.68027 
M 134.485236 389.677402 
L 134.567795 389.671666 
M 134.732913 389.668799 
L 135.475944 389.640159 
M 135.641061 389.637298 
L 136.136415 389.617286 
M 136.301533 389.61443 
L 136.796887 389.594449 
M 136.962005 389.591597 
L 137.870154 389.557414 
M 138.035272 389.554569 
L 143.649282 389.36239 
L 143.8144 247.459144 
L 144.309754 247.470848 
L 145.713256 247.850234 
L 145.878374 247.92341 
M 146.043492 247.947831 
L 147.281876 248.338601 
M 147.446994 248.362995 
L 147.529553 248.411769 
M 147.694671 248.436149 
L 148.520261 248.704024 
M 148.685379 248.728348 
L 149.015615 248.849899 
M 149.180733 248.874195 
L 150.006323 249.18194 
L 150.171441 249.449681 
M 150.336558 249.538878 
L 152.235415 251.670942 
M 152.400533 251.759405 
L 154.299389 253.873364 
M 154.464507 253.96106 
L 154.877302 254.486585 
M 155.04242 254.574063 
L 155.455215 255.098272 
M 155.620333 255.18553 
L 157.188953 256.924016 
M 157.354071 257.010604 
L 159.418045 259.250477 
M 159.583163 259.336183 
L 160.491312 260.362062 
M 160.65643 260.447335 
L 164.289025 264.14515 
M 164.454143 264.22228 
L 167.261148 266.785512 
M 167.426266 266.855024 
L 170.646065 269.418479 
L 172.544922 270.863344 
M 172.71004 270.921513 
L 174.856573 272.434143 
M 175.021691 272.488091 
L 178.654286 274.726473 
L 180.71826 275.934262 
M 180.883378 275.979143 
L 184.928768 278.047142 
L 185.176444 278.20527 
M 185.341562 278.244565 
L 187.900891 279.453946 
M 188.066009 279.490294 
L 190.212542 280.440759 
M 190.37766 280.474853 
L 192.77187 281.463297 
M 192.936988 281.495141 
L 193.184665 281.621835 
M 193.349783 281.653339 
L 194.588167 282.148419 
M 194.753285 282.178812 
L 195.000962 282.299755 
M 195.16608 282.329834 
L 199.128911 283.732229 
M 199.294029 283.759485 
L 199.541706 283.868002 
M 199.706824 283.895006 
L 201.440562 284.476856 
M 201.60568 284.502767 
L 202.513829 284.810243 
M 202.678946 284.835584 
L 203.834772 285.210722 
M 203.99989 285.235408 
L 204.495244 285.407124 
M 204.660362 285.431502 
L 206.311541 285.93502 
M 206.476659 285.958613 
L 208.458075 286.538024 
M 208.623192 286.560805 
L 211.842992 287.425952 
L 211.925551 264.917487 
M 212.090669 264.943357 
L 212.998818 265.251345 
M 213.163936 265.276807 
L 213.576731 265.428916 
M 213.741849 265.454157 
L 218.777946 266.956914 
M 218.943064 266.98014 
L 219.108182 267.049622 
M 219.2733 267.072718 
L 220.016331 267.301888 
M 220.181448 267.324626 
L 221.337274 267.661774 
M 221.502392 267.683989 
L 222.245423 267.904329 
M 222.410541 267.926182 
L 222.658218 268.013264 
M 222.823336 268.034952 
L 224.639633 268.52483 
M 224.804751 268.545732 
L 225.7129 268.793955 
M 225.878018 268.814423 
L 228.024551 269.365059 
M 228.189669 269.385398 
L 228.932699 269.588571 
M 229.262935 269.649447 
L 232.235058 270.397356 
M 232.400176 270.417496 
L 233.308325 270.65887 
M 233.473443 270.67896 
L 234.711827 270.999862 
M 234.876945 271.019886 
L 235.702535 271.23989 
M 235.867653 271.259868 
L 237.518833 271.678501 
M 237.68395 271.698394 
L 238.922335 272.016155 
M 239.087453 272.035982 
L 240.738632 272.451478 
M 240.90375 272.471221 
L 243.050284 273.00286 
M 243.215402 273.022497 
L 247.921263 274.154998 
M 248.086381 274.174413 
L 253.039919 275.351671 
M 253.205037 275.370855 
L 253.865509 275.543346 
M 254.030627 275.562493 
L 254.691099 275.734651 
M 254.856217 275.753761 
L 258.736488 276.666732 
M 258.901606 276.685663 
L 265.341206 278.169689 
M 265.506324 278.188329 
L 266.166796 278.355933 
M 266.331914 278.374537 
L 273.514544 279.997771 
M 273.679662 280.016059 
L 279.789026 281.377649 
M 279.954144 281.395671 
L 284.494887 282.399362 
M 284.660005 282.417187 
L 287.054216 282.950332 
M 287.219333 282.968051 
L 294.979877 284.635811 
M 295.144995 284.653204 
L 296.383379 284.931041 
M 296.548497 284.948377 
L 304.639277 286.648229 
M 304.804394 286.665234 
L 305.547425 286.835105 
M 305.712543 286.852074 
L 306.950928 287.123135 
M 307.116046 287.140049 
L 310.418405 287.830702 
M 310.583522 287.847479 
L 312.812615 288.315925 
M 312.977733 288.332608 
L 314.216117 288.599106 
M 314.381235 288.615735 
L 317.353358 289.228753 
M 317.518476 289.24526 
L 329.902322 291.701684 
M 330.06744 291.717714 
L 331.63606 292.037673 
M 331.801178 292.053639 
L 331.883737 292.085561 
M 332.048855 292.101517 
L 334.938419 292.6739 
M 335.103537 292.689743 
L 335.846568 292.848003 
M 336.011686 292.863813 
L 337.167511 293.100586 
M 337.332629 293.116347 
L 339.809398 293.603418 
M 339.974516 293.619082 
L 346.248998 294.816147 
M 346.414116 294.831576 
L 351.450213 295.782424 
M 351.615331 295.797667 
L 354.422336 296.329332 
M 354.587454 296.34447 
L 358.96308 297.157587 
M 359.128198 297.172565 
L 359.78867 297.307237 
M 359.953788 297.322186 
L 360.779377 297.486437 
M 360.944495 297.501351 
L 361.439849 297.605673 
M 361.604967 297.620564 
L 363.916618 298.051172 
M 364.081736 298.065978 
L 365.567798 298.346743 
M 365.732916 298.361491 
L 368.127126 298.802629 
M 368.292244 298.81729 
L 369.695746 299.080699 
M 369.860864 299.095306 
L 371.924838 299.474102 
M 372.089956 299.488633 
L 373.741136 299.793141 
M 373.906254 299.80761 
L 375.062079 300.02432 
M 375.227197 300.038745 
L 375.392315 300.082003 
M 375.557433 300.096417 
L 380.510971 300.970428 
M 380.676089 300.98467 
L 380.758648 301.013147 
M 380.923766 301.027382 
L 381.666797 301.169573 
M 381.831915 301.183778 
L 383.152859 301.424829 
M 383.317977 301.438984 
L 383.565653 301.495576 
M 383.730771 301.509717 
L 384.969156 301.735606 
M 385.134274 301.749701 
L 388.931987 302.409106 
M 389.097105 302.423071 
L 389.922694 302.576508 
M 390.087812 302.590441 
L 394.050643 303.269863 
M 394.215761 303.283662 
L 397.353002 303.819752 
M 397.51812 303.833445 
L 405.52634 305.162618 
M 405.691458 305.176052 
L 407.425196 305.470943 
M 407.590314 305.484318 
L 409.241494 305.764585 
M 409.406612 305.777903 
L 410.31476 305.937516 
M 410.479878 305.950801 
L 410.892673 306.030454 
M 411.057791 306.04372 
L 413.617119 306.4669 
M 413.782237 306.480082 
L 414.525268 306.611765 
M 414.690386 306.62492 
L 416.836919 306.97913 
M 417.002037 306.992214 
L 423.19396 307.979212 
M 423.359078 307.992103 
L 424.102109 308.108006 
L 424.184667 229.886217 
L 424.267226 229.914171 
L 424.927698 230.165514 
M 425.092816 230.193414 
L 426.248642 230.61127 
M 426.41376 230.639084 
L 426.826555 230.805857 
M 427.321908 230.944686 
L 429.716119 231.774856 
M 429.881237 231.802445 
L 430.706826 232.105581 
M 430.871944 232.133106 
L 431.367298 232.325639 
M 431.532416 232.353122 
L 433.018477 232.874301 
M 433.183595 232.901679 
L 435.908041 233.829382 
M 436.073159 233.856575 
L 442.595318 236.015136 
M 442.925554 236.095436 
L 443.998821 236.469554 
M 444.163939 236.496238 
L 444.906969 236.762797 
M 445.072087 236.789424 
L 454.979164 239.973737 
M 455.144282 239.999746 
L 456.960579 240.596551 
M 457.125697 240.622439 
L 460.428056 241.679561 
M 460.593174 241.70524 
L 463.730415 242.702873 
M 463.895533 242.728355 
L 464.968799 243.084584 
M 465.299035 243.160793 
L 467.032774 243.718319 
M 467.197892 243.743605 
L 470.004897 244.625545 
M 470.170015 244.650656 
L 470.500251 244.776138 
M 470.665369 244.80122 
L 471.243281 245.0017 
M 471.408399 245.026739 
L 471.821194 245.176867 
M 471.986312 245.201872 
L 472.894461 245.50155 
M 473.059579 245.526492 
L 473.142138 245.576362 
M 473.307256 245.601289 
L 474.710758 246.049163 
M 474.875876 246.073999 
L 477.270086 246.816865 
M 477.435204 246.841553 
L 480.077091 247.653598 
M 480.242209 247.678125 
L 480.572445 247.800688 
M 480.737563 247.825186 
L 481.893389 248.192096 
M 482.058507 248.216519 
L 484.20504 248.874161 
M 484.370158 248.898452 
L 488.663224 250.179213 
M 488.828342 250.203253 
L 489.81905 250.515346 
M 489.984168 250.539321 
L 490.727199 250.778815 
M 490.892317 250.802739 
L 491.470229 250.993965 
M 491.635347 251.017848 
L 497.331916 252.678225 
M 497.497034 252.701783 
L 501.459865 253.850557 
M 501.624983 253.873888 
L 503.358721 254.386044 
M 503.523839 254.409272 
L 505.422696 254.965406 
M 505.587814 254.988523 
L 507.569229 255.564987 
M 507.734347 255.587988 
L 508.229701 255.748869 
M 508.394819 255.771834 
L 509.468085 256.092884 
M 509.633203 256.115783 
L 510.954147 256.50439 
M 511.119265 256.52721 
L 513.92627 257.323129 
M 514.091388 257.34579 
L 514.173947 257.3911 
M 514.339065 257.413749 
L 516.155362 257.933462 
M 516.32048 257.956005 
L 516.980952 258.1362 
L 517.063511 180.548098 
L 517.14607 180.585569 
L 520.943782 182.338567 
M 521.1089 182.375693 
L 522.099608 182.857672 
M 522.264726 182.894697 
L 524.658936 184.002142 
M 524.824054 184.038946 
L 527.135705 185.103196 
M 527.300823 185.139788 
L 533.16251 187.755959 
M 533.327628 187.79204 
L 535.639279 188.835351 
M 535.804397 188.871224 
L 536.299751 189.122136 
M 536.464869 189.157953 
L 538.116048 189.908515 
M 538.281166 189.94418 
L 539.684669 190.58498 
M 539.849787 190.620515 
L 540.510259 190.940019 
M 540.675377 190.975486 
L 540.923053 191.117283 
M 541.088171 191.152715 
L 541.831202 191.50666 
M 541.99632 191.542017 
L 546.619622 193.546133 
M 546.78474 193.581097 
L 553.637135 196.494091 
M 553.802253 196.528486 
L 555.040638 197.077904 
M 555.205756 197.112187 
L 556.939494 197.830591 
L 557.104612 284.654591 
L 571.222196 287.705582 
L 573.616406 291.943349 
M 573.781524 292.083433 
L 575.350145 294.869134 
M 575.515263 295.00762 
L 576.340852 296.525941 
M 576.50597 296.663513 
L 578.15715 299.534946 
M 578.322268 299.670844 
L 579.643211 301.96949 
M 579.808329 302.104022 
L 580.799037 303.846019 
M 580.964155 303.979486 
L 586.908401 313.377079 
L 587.73399 314.730633 
M 587.899108 314.851433 
L 589.38517 317.079904 
M 589.550288 317.193861 
L 590.458436 318.53849 
M 590.623554 318.648765 
L 594.256149 323.305087 
L 594.586385 323.817607 
M 594.751503 323.919881 
L 595.494534 324.939098 
M 595.659652 325.040674 
L 600.695749 331.214826 
M 600.860867 331.312401 
L 601.108544 331.702057 
M 601.273662 331.799311 
L 601.769016 332.513608 
L 606.722554 346.322989 
M 606.887672 346.546735 
L 607.217908 347.664178 
M 607.383026 347.887408 
L 608.208615 350.337252 
M 608.373733 350.559447 
L 611.345856 358.246749 
L 612.584241 361.330574 
M 612.749359 361.516403 
L 614.895892 366.071592 
L 615.06101 366.563671 
M 615.226128 366.726189 
L 615.721482 367.842852 
M 615.8866 367.9994 
L 617.124984 370.404591 
M 617.290102 370.548766 
L 619.354077 373.924297 
L 621.418051 376.873255 
L 622.078523 377.834044 
M 622.243641 377.937568 
L 624.142497 380.236902 
M 624.307615 380.326333 
L 625.298322 381.454468 
M 625.46344 381.538624 
L 627.857651 383.894099 
M 628.022769 383.967092 
L 630.416979 385.93465 
L 630.994892 386.427792 
M 631.160009 386.487959 
L 633.55422 388.093692 
L 635.94843 389.437797 
L 636.196107 389.603309 
M 636.361225 389.643946 
L 638.755435 390.695694 
L 641.149645 391.509064 
L 643.543855 392.093221 
L 645.772947 392.447667 
M 645.938065 392.456609 
L 648.414835 392.608584 
L 648.497394 392.610833 
M 648.662511 392.611596 
L 650.231132 392.578356 
M 650.39625 392.574929 
L 652.460224 392.486039 
M 652.625342 392.482629 
L 653.61605 392.43836 
M 653.781168 392.43496 
L 654.028845 392.421363 
M 654.193963 392.417966 
L 656.340496 392.326482 
M 656.505614 392.323103 
L 658.156793 392.252292 
M 658.321911 392.248927 
L 659.560296 392.195178 
M 659.725414 392.191824 
L 660.138209 392.171714 
M 660.303326 392.168365 
L 661.954506 392.098179 
M 662.119624 392.094844 
L 664.596393 391.991774 
M 664.761511 391.98846 
L 664.926629 391.97852 
M 665.091747 391.975208 
L 665.752219 391.948735 
L 665.834778 206.728419 
L 665.917337 206.76084 
L 671.28367 208.886848 
M 671.448788 208.918853 
L 678.301182 211.585312 
M 678.4663 211.616796 
L 679.29189 211.96272 
M 679.457008 211.994131 
L 682.51169 213.183279 
M 682.676808 213.214455 
L 682.924485 213.339098 
M 683.089603 213.370243 
L 686.226844 214.580253 
M 686.391962 214.611159 
L 690.685028 216.240692 
M 690.850146 216.271278 
L 702.325843 220.495612 
M 702.490961 220.525378 
L 704.389817 221.238026 
M 704.554935 221.267648 
L 705.215407 221.53399 
M 705.380525 221.563555 
L 708.930561 222.858786 
M 709.095679 222.888095 
L 710.829417 223.531476 
M 710.994535 223.560655 
L 712.563156 224.14307 
M 712.728273 224.172131 
L 715.700396 225.243485 
M 715.865514 225.272334 
L 721.149289 227.135665 
M 721.314407 227.164149 
L 724.28653 228.185941 
L 724.534206 229.166103 
M 724.699324 229.410825 
L 726.102827 233.794121 
M 726.267945 234.036435 
L 726.515622 235.004427 
M 726.68074 235.24611 
L 728.414478 240.531218 
M 728.579596 240.770002 
L 731.881955 250.452176 
M 732.047073 250.6857 
L 736.835493 264.243679 
M 737.000611 264.469762 
L 739.312262 270.972642 
M 739.47738 271.195037 
L 743.275093 281.509801 
M 743.440211 281.726341 
L 749.384457 296.99983 
L 750.787959 300.720979 
M 750.953077 300.926576 
L 756.814764 315.221071 
L 761.355508 326.078007 
M 761.520626 326.268565 
L 765.070662 334.538781 
M 765.235779 334.724151 
L 766.309046 337.307297 
M 766.474164 337.490949 
L 766.969518 338.773315 
M 767.134636 338.956053 
L 769.281169 343.846939 
M 769.446287 344.026492 
L 772.831205 351.465653 
M 772.996323 351.640354 
L 773.739354 353.381193 
M 773.904471 353.55466 
L 774.234707 354.420318 
M 774.399825 354.593114 
L 775.968446 358.025581 
M 776.133564 358.196034 
L 778.85801 363.92539 
M 779.023128 364.091964 
L 782.325487 370.826748 
M 782.490605 370.988708 
L 782.655722 371.473934 
M 782.82084 371.635457 
L 783.398753 372.923717 
M 783.563871 373.084259 
L 789.095322 383.593722 
L 790.333707 386.031982 
M 790.498825 386.183464 
L 793.718625 392.155526 
M 793.883743 392.302654 
L 798.09425 399.808326 
M 798.259368 399.94989 
L 800.901255 404.56299 
M 801.066373 404.701016 
L 802.552435 407.303911 
M 802.717553 407.439875 
L 807.836209 415.799365 
M 808.001327 415.9288 
L 809.157152 417.858196 
M 809.32227 417.986015 
L 809.404829 418.241351 
M 809.569947 418.368868 
L 814.853721 426.321706 
L 815.596752 427.527534 
M 815.76187 427.647574 
L 820.963085 435.01215 
L 822.779383 437.604467 
M 822.944501 437.716016 
L 823.439854 438.494165 
M 823.604972 438.604943 
L 824.760798 440.255093 
M 824.925916 440.364335 
L 825.42127 441.12635 
M 825.586388 441.234826 
L 826.907331 443.064321 
M 827.072449 443.17108 
L 832.191105 449.605407 
L 834.585316 452.589341 
M 834.750434 452.687363 
L 837.805116 456.343758 
M 837.970234 456.438184 
L 843.006331 462.025673 
L 846.886602 466.186246 
M 847.05172 466.270736 
L 847.712192 466.943458 
L 847.712192 466.943458 
" clip-path="url(#pd09bb02a4a)" style="fill: none; stroke-dasharray: 25.9,11.2; stroke-dashoffset: 0; stroke: #0000ff; stroke-opacity: 0.6; stroke-width: 7"/>
   </g>
   <g id="line2d_13">
    <path d="M 134.072441 308.860462 
L 134.320118 308.91133 
M 134.485236 308.924041 
L 134.567795 308.949455 
M 134.732913 308.962158 
L 135.475944 309.089058 
M 135.641061 309.101735 
L 136.136415 309.190402 
M 136.301533 309.203059 
L 136.796887 309.29159 
M 136.962005 309.304227 
L 137.870154 309.455687 
M 138.035272 309.468292 
L 144.474871 310.556171 
L 145.878374 310.980962 
M 146.043492 311.004528 
L 147.281876 311.381026 
M 147.446994 311.404519 
L 147.529553 311.451492 
M 147.694671 311.474971 
L 148.520261 311.732918 
M 148.685379 311.756338 
L 149.015615 311.873355 
M 149.180733 311.896743 
L 150.171441 312.197986 
M 150.336558 312.220154 
L 152.235415 312.682218 
M 152.400533 312.698563 
L 154.299389 313.024716 
M 154.464507 313.036633 
L 154.877302 313.108089 
M 155.04242 313.119991 
L 155.455215 313.19135 
M 155.620333 313.203235 
L 157.188953 313.440459 
M 157.354071 313.452297 
L 159.418045 313.759263 
M 159.583163 313.771039 
L 160.491312 313.91217 
M 160.65643 313.923916 
L 164.289025 314.450157 
M 164.454143 314.461799 
L 167.261148 314.867873 
M 167.426266 314.879434 
L 172.544922 315.603353 
M 172.71004 315.614773 
L 174.856573 315.922281 
M 175.021691 315.93364 
L 180.71826 316.723312 
M 180.883378 316.734516 
L 185.176444 317.325244 
M 185.341562 317.336332 
L 187.900891 317.690016 
M 188.066009 317.701033 
L 190.212542 317.997703 
M 190.37766 318.008662 
L 192.77187 318.336425 
M 192.936988 318.347318 
L 193.184665 318.390868 
M 193.349783 318.40175 
L 194.588167 318.575582 
M 194.753285 318.586428 
L 195.000962 318.629794 
M 195.16608 318.64063 
L 199.128911 319.169052 
M 199.294029 319.179785 
L 199.541706 319.222693 
M 199.706824 319.233415 
L 201.440562 319.468773 
M 201.60568 319.479447 
L 202.513829 319.607379 
M 202.678946 319.618027 
L 203.834772 319.777495 
M 203.99989 319.78811 
L 204.495244 319.862357 
M 204.660362 319.872955 
L 206.311541 320.095051 
M 206.476659 320.105605 
L 208.458075 320.368784 
M 208.623192 320.379285 
L 211.925551 320.812607 
M 212.090669 320.827506 
L 212.998818 321.002623 
M 213.163936 321.016918 
L 213.576731 321.101742 
M 213.741849 321.115723 
L 218.777946 321.899206 
M 218.943064 321.910561 
L 219.108182 321.944393 
M 219.2733 321.955593 
L 220.016331 322.065502 
M 220.181448 322.076286 
L 221.337274 322.233613 
M 221.502392 322.243811 
L 222.245423 322.345137 
M 222.410541 322.355257 
L 222.658218 322.395715 
M 222.823336 322.405825 
L 223.071012 322.436143 
L 223.153571 267.742386 
L 223.23613 267.763037 
L 224.639633 268.134091 
M 224.804751 268.154667 
L 225.7129 268.401274 
M 225.878018 268.421799 
L 228.024551 268.974474 
M 228.189669 268.994889 
L 228.932699 269.198814 
M 229.262935 269.259915 
L 232.235058 270.010595 
M 232.400176 270.03081 
L 233.308325 270.273078 
M 233.473443 270.293242 
L 234.711827 270.615334 
M 234.876945 270.635431 
L 235.702535 270.856251 
M 235.867653 270.876302 
L 237.518833 271.296486 
M 237.68395 271.316452 
L 238.922335 271.63539 
M 239.087453 271.655291 
L 240.738632 272.072326 
M 240.90375 272.092143 
L 243.050284 272.625751 
M 243.215402 272.645461 
L 247.921263 273.782156 
M 248.086381 273.801643 
L 253.039919 274.983262 
M 253.205037 275.002517 
L 253.865509 275.175647 
M 254.030627 275.194865 
L 254.691099 275.367661 
M 254.856217 275.386842 
L 258.736488 276.303194 
M 258.901606 276.322195 
L 265.341206 277.811718 
M 265.506324 277.830428 
L 266.166796 277.998652 
M 266.331914 278.017326 
L 273.514544 279.646572 
M 273.679662 279.664928 
L 279.789026 281.031562 
M 279.954144 281.04965 
L 284.494887 282.05706 
M 284.660005 282.07495 
L 287.054216 282.610071 
M 287.219333 282.627855 
L 294.979877 284.301792 
M 295.144995 284.31925 
L 295.227554 284.336704 
L 295.310113 193.418084 
L 295.392672 193.450776 
L 296.383379 193.897342 
M 296.548497 193.932172 
L 304.639277 197.353526 
M 304.804394 197.387755 
L 305.547425 197.729684 
M 305.712543 197.763841 
L 306.950928 198.309452 
M 307.116046 198.343496 
L 310.418405 199.733694 
M 310.583522 199.767464 
L 312.812615 200.710387 
M 312.977733 200.743968 
L 314.216117 201.280395 
M 314.381235 201.313867 
L 317.353358 202.547793 
M 317.518476 202.581021 
L 329.902322 207.525492 
M 330.06744 207.557759 
L 331.63606 208.201796 
M 331.801178 208.233932 
L 331.883737 208.298187 
M 332.048855 208.330305 
L 334.938419 209.48244 
M 335.103537 209.514329 
L 335.846568 209.832888 
M 336.011686 209.86471 
L 337.167511 210.341305 
M 337.332629 210.373029 
L 339.809398 211.353443 
M 339.974516 211.384972 
L 346.248998 213.794512 
M 346.414116 213.82557 
L 351.450213 215.739505 
M 351.615331 215.770188 
L 354.422336 216.840363 
M 354.587454 216.870833 
L 358.96308 218.507535 
M 359.128198 218.537684 
L 359.78867 218.808762 
M 359.953788 218.838853 
L 360.779377 219.169467 
M 360.944495 219.199489 
L 361.439849 219.409474 
M 361.604967 219.439449 
L 363.916618 220.306209 
M 364.081736 220.33601 
L 365.567798 220.901155 
M 365.732916 220.930842 
L 368.127126 221.818797 
M 368.292244 221.848307 
L 369.695746 222.378516 
M 369.860864 222.407918 
L 371.924838 223.170386 
M 372.089956 223.199636 
L 373.741136 223.812571 
M 373.906254 223.841697 
L 375.062079 224.277906 
M 375.227197 224.306942 
L 375.392315 224.394015 
M 375.557433 224.423029 
L 380.510971 226.182301 
M 380.676089 226.21097 
L 380.758648 226.26829 
M 380.923766 226.296942 
L 381.666797 226.583156 
M 381.831915 226.611747 
L 383.152859 227.096953 
M 383.317977 227.125445 
L 383.565653 227.239358 
M 383.730771 227.267823 
L 384.969156 227.722509 
M 385.134274 227.75088 
L 388.931987 229.078178 
M 389.097105 229.106288 
L 389.922694 229.415138 
M 390.087812 229.443183 
L 394.050643 230.810774 
M 394.215761 230.838549 
L 397.353002 231.91763 
M 397.51812 231.945192 
L 405.52634 234.620651 
M 405.691458 234.647691 
L 407.425196 235.24127 
M 407.590314 235.268191 
L 409.241494 235.832334 
M 409.406612 235.859142 
L 410.31476 236.180423 
M 410.479878 236.207163 
L 410.892673 236.367494 
M 411.057791 236.394197 
L 413.617119 237.246005 
M 413.782237 237.272539 
L 414.525268 237.537601 
M 414.690386 237.564079 
L 416.836919 238.27706 
M 417.002037 238.303396 
L 423.19396 240.290098 
M 423.359078 240.316045 
L 424.102109 240.549345 
L 424.927698 242.497328 
M 425.092816 242.67381 
L 426.248642 245.309035 
M 426.41376 245.483918 
L 426.826555 246.531126 
M 427.321908 247.401061 
L 429.716119 252.568494 
M 429.881237 252.739205 
L 430.706826 254.610485 
M 430.871944 254.780008 
L 431.367298 255.963903 
M 431.532416 256.132635 
L 433.018477 259.319819 
M 433.183595 259.486581 
L 435.908041 265.098028 
M 436.073159 265.261355 
L 438.962723 270.916282 
L 439.127841 300.274578 
L 442.595318 306.810816 
M 442.925554 307.260232 
L 443.998821 309.346165 
M 444.163939 309.494446 
L 444.906969 310.972028 
M 445.072087 311.119263 
L 450.768656 321.050149 
L 454.979164 328.238968 
M 455.144282 328.374745 
L 456.960579 331.472018 
M 457.125697 331.605571 
L 460.428056 337.001888 
M 460.593174 337.131575 
L 463.730415 342.118061 
M 463.895533 342.244096 
L 464.968799 343.999047 
M 465.299035 344.372794 
L 467.032774 347.088717 
M 467.197892 347.211129 
L 470.004897 351.438864 
M 470.170015 351.558041 
L 470.500251 352.152583 
M 470.665369 352.271223 
L 471.243281 353.217123 
M 471.408399 353.334958 
L 471.821194 354.040092 
M 471.986312 354.157302 
L 472.894461 355.556847 
M 473.059579 355.672894 
L 473.142138 355.904721 
M 473.307256 356.0205 
L 474.710758 358.08918 
M 474.875876 358.203259 
L 477.270086 361.584551 
M 477.435204 361.695895 
L 480.077091 365.320776 
M 480.242209 365.429129 
L 480.572445 365.969582 
M 480.737563 366.077409 
L 481.893389 367.684229 
M 482.058507 367.790647 
L 484.20504 370.630724 
M 484.370158 370.734697 
L 488.663224 376.122268 
M 488.828342 376.22161 
L 489.81905 377.505304 
M 489.984168 377.603454 
L 490.727199 378.58029 
M 490.892317 378.677507 
L 491.470229 379.452195 
M 491.635347 379.548651 
L 492.460937 380.508556 
L 492.543496 181.620686 
L 492.626055 181.75451 
L 497.331916 189.360034 
M 497.497034 189.488482 
L 501.459865 195.671739 
M 501.624983 195.795678 
L 503.358721 198.499753 
M 503.523839 198.62164 
L 505.422696 201.520309 
M 505.587814 201.639979 
L 507.569229 204.603063 
M 507.734347 204.720441 
L 508.229701 205.539634 
M 508.394819 205.656311 
L 509.468085 207.280586 
M 509.633203 207.395949 
L 510.954147 209.343782 
M 511.119265 209.457576 
L 513.92627 213.385739 
M 514.091388 213.496416 
L 514.173947 213.717511 
M 514.339065 213.827929 
L 516.155362 216.343818 
M 516.32048 216.452175 
L 517.063511 217.609702 
L 520.943782 231.579303 
M 521.1089 231.867615 
L 522.099608 235.605556 
M 522.264726 235.892311 
L 524.658936 244.44319 
M 524.824054 244.726492 
L 527.135705 252.893746 
M 527.300823 253.173702 
L 533.16251 273.036878 
M 533.327628 273.308674 
L 535.639279 281.142074 
M 535.804397 281.410512 
L 536.299751 283.286445 
M 536.464869 283.553987 
L 538.116048 289.146515 
M 538.281166 289.411594 
L 539.684669 294.163866 
M 539.849787 294.426818 
L 540.510259 296.788339 
M 540.675377 297.05017 
L 540.923053 298.096376 
M 541.088171 298.357647 
L 541.831202 300.964201 
M 541.99632 301.22424 
L 546.619622 315.861409 
M 546.78474 316.114955 
L 553.389458 336.036317 
L 553.637135 337.013613 
M 553.802253 337.257658 
L 555.040638 341.147197 
M 555.205756 341.389345 
L 557.022053 346.45416 
L 573.616406 347.537789 
M 573.781524 347.543049 
L 575.350145 347.64804 
M 575.515263 347.653278 
L 576.340852 347.710839 
M 576.50597 347.716066 
L 578.15715 347.825596 
M 578.322268 347.830801 
L 579.147857 347.882792 
L 579.312975 220.658988 
L 579.560652 220.316987 
L 579.643211 220.266243 
M 579.808329 220.258976 
L 580.386242 220.360791 
L 580.799037 220.522333 
M 580.964155 220.551017 
L 587.73399 222.997537 
M 587.899108 223.02682 
L 589.38517 223.58212 
M 589.550288 223.611289 
L 590.458436 223.960891 
M 590.623554 223.989987 
L 594.586385 225.408882 
M 594.751503 225.437699 
L 595.494534 225.72557 
M 595.659652 225.754326 
L 600.695749 227.526439 
M 600.860867 227.554849 
L 601.108544 227.66843 
M 601.273662 227.696812 
L 606.722554 229.585971 
M 606.887672 229.613983 
L 607.217908 229.753962 
M 607.383026 229.781941 
L 608.208615 230.08936 
M 608.373733 230.117274 
L 612.584241 231.561447 
M 612.749359 231.589078 
L 615.06101 232.388058 
M 615.226128 232.41553 
L 615.721482 232.607681 
M 615.8866 232.63511 
L 617.124984 233.073256 
M 617.290102 233.100595 
L 622.078523 234.704309 
M 622.243641 234.731334 
L 624.142497 235.378363 
M 624.307615 235.405258 
L 625.298322 235.754416 
M 625.46344 235.781238 
L 627.857651 236.583498 
M 628.022769 236.61016 
L 630.994892 237.593052 
M 631.160009 237.619519 
L 636.196107 239.250566 
M 636.361225 239.276714 
L 645.772947 242.250301 
M 645.938065 242.27587 
L 648.497394 243.091481 
M 648.662511 243.116888 
L 650.231132 243.623996 
M 650.39625 243.6493 
L 652.460224 244.305496 
M 652.625342 244.330668 
L 653.61605 244.657471 
M 653.781168 244.682576 
L 654.028845 244.782946 
M 654.193963 244.808027 
L 656.340496 245.483376 
M 656.505614 245.508321 
L 658.156793 246.031065 
M 658.321911 246.055905 
L 659.560296 246.45269 
M 659.725414 246.477449 
L 660.138209 246.625899 
M 660.303326 246.650624 
L 661.954506 247.16875 
M 662.119624 247.193371 
L 664.596393 247.95425 
M 664.761511 247.978719 
L 664.926629 248.052097 
M 665.091747 248.076547 
L 665.752219 248.271977 
L 671.28367 263.849104 
M 671.448788 264.074433 
L 677.805828 281.099994 
L 678.301182 282.616057 
M 678.4663 282.832206 
L 679.29189 285.202757 
M 679.457008 285.417617 
L 682.51169 293.502738 
M 682.676808 293.713414 
L 682.924485 294.555046 
M 683.089603 294.765186 
L 686.226844 302.877292 
M 686.391962 303.08316 
L 690.685028 313.841907 
M 690.850146 314.042035 
L 696.95951 328.558289 
L 702.325843 341.019769 
M 702.490961 341.20508 
L 704.389817 345.621332 
M 704.554935 345.804044 
L 705.215407 347.443778 
M 705.380525 347.625452 
L 708.930561 355.5167 
M 709.095679 355.693724 
L 710.829417 359.562218 
M 710.994535 359.736876 
L 712.563156 363.208511 
M 712.728273 363.381017 
L 715.700396 369.691896 
M 715.865514 369.860516 
L 721.149289 380.601318 
M 721.314407 380.763216 
L 724.534206 387.148711 
M 724.699324 387.302509 
L 726.102827 389.918465 
M 726.267945 390.055369 
L 726.515622 390.594161 
M 726.68074 390.726657 
L 728.414478 393.420088 
M 728.579596 393.532507 
L 730.313334 395.69435 
L 731.881955 397.403662 
M 732.047073 397.480265 
L 733.615693 398.776911 
L 735.101755 399.729535 
L 736.587816 400.417436 
L 736.835493 400.534707 
M 737.000611 400.562014 
L 738.404114 400.903826 
L 739.312262 401.006944 
M 739.47738 401.010414 
L 741.046001 400.956588 
L 743.275093 400.815729 
M 743.440211 400.810713 
L 750.787959 400.363156 
M 750.953077 400.358226 
L 761.355508 399.739867 
M 761.520626 399.735058 
L 765.070662 399.524373 
M 765.235779 399.519605 
L 766.309046 399.452956 
M 766.474164 399.448202 
L 766.969518 399.414952 
M 767.134636 399.410205 
L 769.281169 399.282397 
M 769.446287 399.277676 
L 772.831205 399.08022 
M 772.996323 399.075538 
L 773.739354 399.028769 
M 773.904471 399.024097 
L 774.234707 399.000751 
M 774.399825 398.996084 
L 775.968446 398.902942 
M 776.133564 398.898294 
L 778.85801 398.740806 
M 779.023128 398.736189 
L 782.325487 398.547682 
M 782.490605 398.543103 
L 782.655722 398.52937 
M 782.82084 398.524795 
L 783.398753 398.488222 
M 783.563871 398.483654 
L 790.333707 398.107592 
M 790.498825 398.103098 
L 793.718625 397.924036 
M 793.883743 397.919578 
L 798.09425 397.688898 
M 798.259368 397.684485 
L 800.901255 397.539316 
M 801.066373 397.534932 
L 802.552435 397.451784 
M 802.717553 397.447416 
L 807.836209 397.173939 
M 808.001327 397.169625 
L 809.157152 397.105012 
M 809.32227 397.100711 
L 809.404829 397.092112 
M 809.569947 397.087813 
L 815.596752 396.772023 
M 815.76187 396.767786 
L 822.779383 396.406476 
M 822.944501 396.40231 
L 823.439854 396.373169 
M 823.604972 396.36901 
L 824.760798 396.30671 
M 824.925916 396.302563 
L 825.42127 396.273558 
M 825.586388 396.269417 
L 826.907331 396.199151 
M 827.072449 396.195025 
L 834.585316 395.818805 
M 834.750434 395.814752 
L 837.805116 395.661324 
M 837.970234 395.657302 
L 846.886602 395.22348 
M 847.05172 395.219542 
L 847.712192 395.188066 
L 847.712192 395.188066 
" clip-path="url(#pd09bb02a4a)" style="fill: none; stroke-dasharray: 7,11.55; stroke-dashoffset: 0; stroke: #008000; stroke-opacity: 0.6; stroke-width: 7"/>
   </g>
   <g id="line2d_14">
    <path d="M 134.072441 351.707418 
L 134.320118 351.725237 
M 134.485236 351.729689 
L 134.567795 351.738591 
M 134.732913 351.743041 
L 135.475944 351.787493 
M 135.641061 351.791933 
L 136.136415 351.822992 
M 136.301533 351.827426 
L 136.796887 351.858437 
M 136.962005 351.862864 
L 137.870154 351.915918 
M 138.035272 351.920334 
L 145.878374 352.340295 
M 146.043492 352.344629 
L 147.281876 352.413856 
M 147.446994 352.418175 
L 147.529553 352.426812 
M 147.694671 352.431129 
L 148.520261 352.478563 
M 148.685379 352.48287 
L 149.015615 352.504393 
M 149.180733 352.508695 
L 150.171441 352.564547 
M 150.336558 352.568838 
L 152.235415 352.671563 
M 152.400533 352.675833 
L 154.299389 352.778064 
M 154.464507 352.782313 
L 154.877302 352.807792 
M 155.04242 352.812036 
L 155.455215 352.83748 
M 155.620333 352.841718 
L 157.188953 352.926304 
M 157.354071 352.930525 
L 159.418045 353.03998 
M 159.583163 353.044179 
L 160.491312 353.094501 
M 160.65643 353.09869 
L 164.289025 353.28633 
M 164.454143 353.290482 
L 167.261148 353.435274 
M 167.426266 353.439397 
L 172.544922 353.697523 
M 172.71004 353.701595 
L 174.856573 353.811243 
M 175.021691 353.815293 
L 180.71826 354.096864 
M 180.883378 354.100859 
L 185.176444 354.311494 
M 185.341562 354.315447 
L 187.900891 354.44156 
M 188.066009 354.445488 
L 190.212542 354.551271 
M 190.37766 354.555179 
L 192.77187 354.672049 
M 192.936988 354.675933 
L 193.184665 354.691461 
M 193.349783 354.695341 
L 194.588167 354.757324 
M 194.753285 354.761192 
L 195.000962 354.776655 
M 195.16608 354.780519 
L 199.128911 354.968937 
M 199.294029 354.972764 
L 199.541706 354.988063 
M 199.706824 354.991886 
L 200.284736 355.018627 
L 200.367295 261.60841 
L 200.449854 261.630245 
L 201.440562 261.913718 
M 201.60568 261.935494 
L 202.513829 262.196481 
M 202.678946 262.218202 
L 203.834772 262.543525 
M 203.99989 262.565179 
L 204.495244 262.716645 
M 204.660362 262.738267 
L 206.311541 263.191352 
M 206.476659 263.212882 
L 208.458075 263.749777 
M 208.623192 263.771199 
L 211.925551 264.645954 
M 212.090669 264.667203 
L 212.998818 264.921873 
M 213.163936 264.943069 
L 213.576731 265.070159 
M 213.741849 265.091326 
L 218.777946 266.395758 
M 218.943064 266.41667 
L 219.108182 266.479381 
M 219.2733 266.500276 
L 220.016331 266.70901 
M 220.181448 266.729861 
L 221.337274 267.042147 
M 221.502392 267.062934 
L 222.245423 267.270583 
M 222.410541 267.291326 
L 222.658218 267.374258 
M 222.823336 267.394981 
L 224.639633 267.870506 
M 224.804751 267.891133 
L 225.7129 268.138349 
M 225.878018 268.158924 
L 228.024551 268.712965 
M 228.189669 268.73343 
L 228.932699 268.93786 
M 229.262935 268.999112 
L 232.235058 269.751647 
M 232.400176 269.771911 
L 233.308325 270.014778 
M 233.473443 270.034992 
L 234.711827 270.357879 
M 234.876945 270.378027 
L 235.702535 270.599391 
M 235.867653 270.619492 
L 237.518833 271.040715 
M 237.68395 271.06073 
L 238.922335 271.380457 
M 239.087453 271.400407 
L 240.738632 271.818472 
M 240.90375 271.838338 
L 243.050284 272.373264 
M 243.215402 272.393023 
L 247.921263 273.532527 
M 248.086381 273.552062 
L 253.039919 274.7366 
M 253.205037 274.755903 
L 253.865509 274.929461 
M 254.030627 274.948726 
L 254.691099 275.121949 
M 254.856217 275.141178 
L 258.736488 276.059794 
M 258.901606 276.078842 
L 265.341206 277.572046 
M 265.506324 277.590802 
L 266.166796 277.759442 
M 266.331914 277.778161 
L 273.514544 279.411434 
M 273.679662 279.429835 
L 279.789026 280.799845 
M 279.954144 280.817979 
L 284.494887 281.827877 
M 284.660005 281.845812 
L 287.054216 282.382255 
M 287.219333 282.400083 
L 294.979877 284.078156 
M 295.144995 284.095657 
L 295.227554 284.113155 
L 296.383379 287.15715 
M 296.548497 287.359025 
L 301.502036 299.169079 
L 304.639277 306.531844 
M 304.804394 306.717449 
L 305.547425 308.564822 
M 305.712543 308.748695 
L 306.950928 311.66938 
M 307.116046 311.850598 
L 310.418405 319.147811 
M 310.583522 319.322581 
L 312.812615 324.15485 
M 312.977733 324.325254 
L 314.216117 327.031464 
M 314.381235 327.19934 
L 317.353358 333.307339 
M 317.518476 333.469643 
L 319.995245 338.271562 
L 320.077804 203.607893 
L 320.160363 203.791591 
L 325.19646 214.719733 
L 329.902322 224.612764 
M 330.06744 224.77915 
L 331.63606 228.077392 
M 331.801178 228.240835 
L 331.883737 228.567302 
M 332.048855 228.730326 
L 334.938419 234.506798 
M 335.103537 234.664701 
L 335.846568 236.236183 
M 336.011686 236.392578 
L 337.167511 238.7221 
M 337.332629 238.876312 
L 339.809398 243.589629 
M 339.974516 243.739512 
L 344.845496 252.346291 
L 346.248998 254.880432 
M 346.414116 255.019973 
L 351.202537 262.891171 
L 351.450213 263.418029 
M 351.615331 263.549424 
L 354.422336 268.068032 
M 354.587454 268.194852 
L 354.91769 268.700872 
L 355.000249 217.023097 
L 355.082808 217.159153 
L 358.96308 223.540261 
M 359.128198 223.670101 
L 359.78867 224.833017 
M 359.953788 224.961602 
L 360.779377 226.367749 
M 360.944495 226.494823 
L 361.439849 227.380818 
M 361.604967 227.506884 
L 363.916618 231.108226 
M 364.081736 231.230509 
L 365.567798 233.529256 
M 365.732916 233.648965 
L 368.127126 237.181586 
M 368.292244 237.297397 
L 369.695746 239.360736 
M 369.860864 239.47419 
L 371.924838 242.38088 
M 372.089956 242.491026 
L 373.741136 244.776084 
M 373.906254 244.883568 
L 375.062079 246.481423 
M 375.227197 246.586989 
L 375.392315 246.902971 
M 375.557433 247.00806 
L 379.8505 252.309137 
L 379.933059 214.099334 
L 380.015618 214.205413 
L 380.510971 214.944673 
M 380.676089 215.049812 
L 380.758648 215.259737 
M 380.923766 215.364524 
L 381.666797 216.405955 
M 381.831915 216.509455 
L 383.152859 218.251169 
M 383.317977 218.352579 
L 383.565653 218.757061 
M 383.730771 218.857893 
L 384.969156 220.455529 
M 385.134274 220.554404 
L 388.931987 225.072999 
M 389.097105 225.166422 
L 389.922694 226.186658 
M 390.087812 226.278734 
L 394.050643 230.654095 
M 394.215761 230.740623 
L 397.353002 234.029907 
M 397.51812 234.112071 
L 401.976304 238.389164 
L 405.52634 241.645003 
M 405.691458 241.716635 
L 407.425196 243.266193 
M 407.590314 243.335432 
L 409.241494 244.765586 
M 409.406612 244.832554 
L 410.31476 245.628171 
M 410.479878 245.693807 
L 410.892673 246.08547 
M 411.057791 246.15039 
L 413.617119 248.174136 
M 413.782237 248.235707 
L 414.525268 248.845876 
M 414.690386 248.906339 
L 416.836919 250.500997 
M 417.002037 250.558661 
L 421.295103 253.420968 
L 423.19396 254.652699 
M 423.359078 254.702808 
L 424.927698 255.648928 
M 425.092816 255.690542 
L 426.083524 256.140909 
L 426.248642 295.149422 
M 426.41376 295.784552 
L 426.743996 297.22546 
L 426.826555 297.5728 
M 427.321908 297.997602 
L 427.899821 298.212707 
L 429.716119 298.574116 
M 429.881237 298.588836 
L 430.706826 298.75045 
M 430.871944 298.765121 
L 431.367298 298.867739 
M 431.532416 298.882387 
L 433.018477 299.160166 
M 433.183595 299.174757 
L 435.908041 299.669205 
M 436.073159 299.683698 
L 442.595318 300.834168 
M 442.925554 300.876966 
L 443.998821 301.076364 
M 444.163939 301.090586 
L 444.906969 301.232656 
M 445.072087 301.246848 
L 454.979164 302.944024 
M 455.144282 302.957886 
L 456.960579 303.275971 
M 457.125697 303.289769 
L 458.446641 303.510172 
L 458.5292 300.399583 
L 458.611759 300.413936 
L 460.428056 300.743283 
M 460.593174 300.75757 
L 463.730415 301.312593 
M 463.895533 301.32677 
L 464.968799 301.524954 
M 465.299035 301.567353 
L 467.032774 301.877527 
M 467.197892 301.891594 
L 470.004897 302.382253 
M 470.170015 302.396223 
L 470.500251 302.466034 
M 470.665369 302.479988 
L 471.243281 302.591523 
M 471.408399 302.605453 
L 471.821194 302.688976 
M 471.986312 302.702887 
L 472.894461 302.86961 
M 473.059579 302.883486 
L 473.142138 302.911231 
M 473.307256 302.925099 
L 474.710758 303.174269 
M 474.875876 303.188087 
L 477.270086 303.601373 
M 477.435204 303.615108 
L 480.077091 304.066881 
M 480.242209 304.080526 
L 480.572445 304.148713 
M 480.737563 304.162343 
L 481.893389 304.366469 
M 482.058507 304.380057 
L 484.20504 304.745929 
M 484.370158 304.759444 
L 488.663224 305.471982 
M 488.828342 305.485357 
L 489.81905 305.658987 
M 489.984168 305.672325 
L 490.727199 305.805565 
M 490.892317 305.818875 
L 491.470229 305.925262 
M 491.635347 305.938549 
L 492.460937 306.071276 
L 495.598178 315.107227 
L 497.331916 320.000371 
M 497.497034 320.216964 
L 500.386598 327.483259 
L 501.459865 330.220529 
M 501.624983 330.412406 
L 503.358721 334.51223 
M 503.523839 334.693107 
L 505.422696 338.89329 
M 505.587814 339.062477 
L 507.569229 343.143201 
M 507.734347 343.300522 
L 508.229701 344.389185 
M 508.394819 344.542915 
L 509.468085 346.648391 
M 509.633203 346.79546 
L 510.954147 349.22857 
M 511.119265 349.367773 
L 513.761152 353.595931 
L 513.92627 353.970079 
M 514.091388 354.093957 
L 514.173947 354.34046 
M 514.339065 354.463086 
L 516.155362 357.169271 
M 516.32048 357.282006 
L 518.219336 359.683677 
L 519.705398 361.187517 
L 520.943782 362.239986 
M 521.1089 362.296942 
L 522.099608 362.943469 
M 522.264726 362.986 
L 523.585669 363.527389 
L 524.658936 363.787624 
M 524.824054 363.798635 
L 526.310115 363.871632 
L 527.135705 363.894815 
M 527.300823 363.89692 
L 533.16251 364.047421 
M 533.327628 364.049496 
L 535.639279 364.109515 
M 535.804397 364.111579 
L 536.299751 364.126013 
M 536.464869 364.128073 
L 538.116048 364.171251 
M 538.281166 364.173303 
L 539.684669 364.210166 
M 539.849787 364.21221 
L 540.510259 364.230591 
M 540.675377 364.232631 
L 540.923053 364.240788 
M 541.088171 364.242826 
L 541.831202 364.263188 
M 541.99632 364.265222 
L 546.619622 364.380513 
M 546.78474 364.382524 
L 553.637135 364.550101 
M 553.802253 364.552079 
L 555.040638 364.583686 
M 555.205756 364.585658 
L 573.616406 365.017973 
M 573.781524 365.019862 
L 575.350145 365.057553 
M 575.515263 365.059434 
L 576.340852 365.080099 
M 576.50597 365.081975 
L 578.15715 365.121296 
M 578.322268 365.123165 
L 579.230416 365.238316 
L 579.643211 365.817272 
M 579.808329 365.913688 
L 580.799037 367.157251 
M 580.964155 367.252037 
L 585.174662 371.914321 
L 587.73399 374.670622 
M 587.899108 374.754696 
L 589.38517 376.327597 
M 589.550288 376.408778 
L 590.458436 377.371773 
M 590.623554 377.451162 
L 594.586385 381.184516 
M 594.751503 381.257553 
L 595.494534 381.981088 
M 595.659652 382.052758 
L 599.622482 385.343895 
L 600.695749 386.250971 
M 600.860867 386.314865 
L 601.108544 386.569252 
M 601.273662 386.632551 
L 605.319051 389.590531 
L 606.722554 390.607542 
M 606.887672 390.662963 
L 607.217908 390.938377 
M 607.383026 390.993121 
L 608.208615 391.587894 
M 608.373733 391.641292 
L 612.419123 394.12242 
L 612.584241 394.265804 
M 612.749359 394.313382 
L 615.06101 395.646492 
M 615.226128 395.690863 
L 615.721482 395.998491 
M 615.8866 396.042015 
L 617.124984 396.72411 
M 617.290102 396.76585 
L 621.335492 398.684418 
L 622.078523 399.045786 
M 622.243641 399.081366 
L 624.142497 399.905127 
M 624.307615 399.938199 
L 625.298322 400.359086 
M 625.46344 400.390768 
L 627.857651 401.29543 
M 628.022769 401.324068 
L 630.994892 402.315543 
M 631.160009 402.340511 
L 635.205399 403.447554 
L 636.196107 403.70334 
M 636.361225 403.722364 
L 640.489173 404.555812 
L 644.617122 405.161722 
L 645.772947 405.299842 
M 645.938065 405.30834 
L 648.497394 405.533715 
M 648.662511 405.539303 
L 650.231132 405.631235 
M 650.39625 405.63482 
L 652.460224 405.691319 
M 652.625342 405.6921 
L 653.61605 405.692901 
M 653.781168 405.692252 
L 654.028845 405.688691 
M 654.193963 405.687561 
L 656.340496 405.621185 
M 656.505614 405.617407 
L 658.156793 405.516589 
M 658.321911 405.510771 
L 659.560296 405.416165 
M 659.725414 405.410261 
L 660.138209 405.374861 
M 660.303326 405.368965 
L 661.954506 405.245411 
M 662.119624 405.239539 
L 664.596393 405.058097 
M 664.761511 405.052262 
L 664.926629 405.034764 
M 665.091747 405.028933 
L 671.28367 404.589095 
M 671.448788 404.58335 
L 678.301182 404.104749 
M 678.4663 404.099098 
L 679.29189 404.037008 
M 679.457008 404.03137 
L 682.51169 403.817931 
M 682.676808 403.812335 
L 682.924485 403.789963 
M 683.089603 403.784373 
L 686.226844 403.567189 
M 686.391962 403.561641 
L 690.685028 403.269157 
M 690.850146 403.263667 
L 702.325843 402.505444 
M 702.490961 402.500102 
L 704.389817 402.372189 
M 704.554935 402.366872 
L 705.215407 402.319066 
M 705.380525 402.31376 
L 708.930561 402.081279 
M 709.095679 402.076019 
L 710.829417 401.960539 
M 710.994535 401.955301 
L 712.563156 401.850764 
M 712.728273 401.845548 
L 715.700396 401.653251 
M 715.865514 401.648073 
L 721.149289 401.313625 
M 721.314407 401.308512 
L 724.534206 401.104812 
M 724.699324 401.09974 
L 726.102827 401.008604 
M 726.267945 401.00355 
L 726.515622 400.983344 
M 726.68074 400.978295 
L 728.414478 400.867464 
M 728.579596 400.862438 
L 731.881955 400.657179 
M 732.047073 400.652193 
L 736.835493 400.359712 
M 737.000611 400.354784 
L 739.312262 400.212265 
M 739.47738 400.207365 
L 743.275093 399.978117 
M 743.440211 399.973262 
L 750.787959 399.540119 
M 750.953077 399.535349 
L 761.355508 398.936904 
M 761.520626 398.93225 
L 765.070662 398.72835 
M 765.235779 398.723736 
L 766.309046 398.659234 
M 766.474164 398.654633 
L 766.969518 398.622453 
M 767.134636 398.61786 
L 769.281169 398.494168 
M 769.446287 398.489599 
L 772.831205 398.298502 
M 772.996323 398.293971 
L 773.739354 398.248708 
M 773.904471 398.244186 
L 774.234707 398.221592 
M 774.399825 398.217076 
L 775.968446 398.126934 
M 776.133564 398.122436 
L 778.85801 397.970019 
M 779.023128 397.965551 
L 782.325487 397.783115 
M 782.490605 397.778683 
L 782.655722 397.765393 
M 782.82084 397.760965 
L 783.398753 397.72557 
M 783.563871 397.721149 
L 790.333707 397.357199 
M 790.498825 397.352849 
L 793.718625 397.179555 
M 793.883743 397.17524 
L 798.09425 396.95199 
M 798.259368 396.947718 
L 800.901255 396.807225 
M 801.066373 396.802982 
L 802.552435 396.722512 
M 802.717553 396.718285 
L 807.836209 396.453615 
M 808.001327 396.44944 
L 809.157152 396.386908 
M 809.32227 396.382746 
L 809.404829 396.374423 
M 809.569947 396.370263 
L 815.596752 396.064644 
M 815.76187 396.060543 
L 822.779383 395.710869 
M 822.944501 395.706837 
L 823.439854 395.678635 
M 823.604972 395.67461 
L 824.760798 395.614317 
M 824.925916 395.610303 
L 825.42127 395.582232 
M 825.586388 395.578225 
L 826.907331 395.510221 
M 827.072449 395.506228 
L 834.585316 395.142125 
M 834.750434 395.138203 
L 837.805116 394.989716 
M 837.970234 394.985824 
L 846.886602 394.565973 
M 847.05172 394.562162 
L 847.712192 394.5317 
L 847.712192 394.5317 
" clip-path="url(#pd09bb02a4a)" style="fill: none; stroke-dasharray: 44.8,11.2,7,11.2; stroke-dashoffset: 0; stroke: #ff0000; stroke-opacity: 0.6; stroke-width: 7"/>
   </g>
   <g id="patch_3">
    <path d="M 134.155 612.92 
L 134.155 17.64 
" style="fill: none; stroke: #000000; stroke-width: 0.8; stroke-linejoin: miter; stroke-linecap: square"/>
   </g>
   <g id="patch_4">
    <path d="M 847.629633 612.92 
L 847.629633 17.64 
" style="fill: none; stroke: #000000; stroke-width: 0.8; stroke-linejoin: miter; stroke-linecap: square"/>
   </g>
   <g id="patch_5">
    <path d="M 134.155 612.92 
L 847.629633 612.92 
" style="fill: none; stroke: #000000; stroke-width: 0.8; stroke-linejoin: miter; stroke-linecap: square"/>
   </g>
   <g id="patch_6">
    <path d="M 134.155 17.64 
L 847.629633 17.64 
" style="fill: none; stroke: #000000; stroke-width: 0.8; stroke-linejoin: miter; stroke-linecap: square"/>
   </g>
   <g id="text_12">
    <!-- 4 RMSE: 8.26 m -->
    <g transform="translate(276.849927 493.864) scale(0.1728 -0.1728)">
     <defs>
      <path id="DejaVuSans-52" d="M 2841 2188 
Q 3044 2119 3236 1894 
Q 3428 1669 3622 1275 
L 4263 0 
L 3584 0 
L 2988 1197 
Q 2756 1666 2539 1819 
Q 2322 1972 1947 1972 
L 1259 1972 
L 1259 0 
L 628 0 
L 628 4666 
L 2053 4666 
Q 2853 4666 3247 4331 
Q 3641 3997 3641 3322 
Q 3641 2881 3436 2590 
Q 3231 2300 2841 2188 
z
M 1259 4147 
L 1259 2491 
L 2053 2491 
Q 2509 2491 2742 2702 
Q 2975 2913 2975 3322 
Q 2975 3731 2742 3939 
Q 2509 4147 2053 4147 
L 1259 4147 
z
" transform="scale(0.015625)"/>
      <path id="DejaVuSans-4d" d="M 628 4666 
L 1569 4666 
L 2759 1491 
L 3956 4666 
L 4897 4666 
L 4897 0 
L 4281 0 
L 4281 4097 
L 3078 897 
L 2444 897 
L 1241 4097 
L 1241 0 
L 628 0 
L 628 4666 
z
" transform="scale(0.015625)"/>
      <path id="DejaVuSans-53" d="M 3425 4513 
L 3425 3897 
Q 3066 4069 2747 4153 
Q 2428 4238 2131 4238 
Q 1616 4238 1336 4038 
Q 1056 3838 1056 3469 
Q 1056 3159 1242 3001 
Q 1428 2844 1947 2747 
L 2328 2669 
Q 3034 2534 3370 2195 
Q 3706 1856 3706 1288 
Q 3706 609 3251 259 
Q 2797 -91 1919 -91 
Q 1588 -91 1214 -16 
Q 841 59 441 206 
L 441 856 
Q 825 641 1194 531 
Q 1563 422 1919 422 
Q 2459 422 2753 634 
Q 3047 847 3047 1241 
Q 3047 1584 2836 1778 
Q 2625 1972 2144 2069 
L 1759 2144 
Q 1053 2284 737 2584 
Q 422 2884 422 3419 
Q 422 4038 858 4394 
Q 1294 4750 2059 4750 
Q 2388 4750 2728 4690 
Q 3069 4631 3425 4513 
z
" transform="scale(0.015625)"/>
      <path id="DejaVuSans-45" d="M 628 4666 
L 3578 4666 
L 3578 4134 
L 1259 4134 
L 1259 2753 
L 3481 2753 
L 3481 2222 
L 1259 2222 
L 1259 531 
L 3634 531 
L 3634 0 
L 628 0 
L 628 4666 
z
" transform="scale(0.015625)"/>
      <path id="DejaVuSans-3a" d="M 750 794 
L 1409 794 
L 1409 0 
L 750 0 
L 750 794 
z
M 750 3309 
L 1409 3309 
L 1409 2516 
L 750 2516 
L 750 3309 
z
" transform="scale(0.015625)"/>
      <path id="DejaVuSans-36" d="M 2113 2584 
Q 1688 2584 1439 2293 
Q 1191 2003 1191 1497 
Q 1191 994 1439 701 
Q 1688 409 2113 409 
Q 2538 409 2786 701 
Q 3034 994 3034 1497 
Q 3034 2003 2786 2293 
Q 2538 2584 2113 2584 
z
M 3366 4563 
L 3366 3988 
Q 3128 4100 2886 4159 
Q 2644 4219 2406 4219 
Q 1781 4219 1451 3797 
Q 1122 3375 1075 2522 
Q 1259 2794 1537 2939 
Q 1816 3084 2150 3084 
Q 2853 3084 3261 2657 
Q 3669 2231 3669 1497 
Q 3669 778 3244 343 
Q 2819 -91 2113 -91 
Q 1303 -91 875 529 
Q 447 1150 447 2328 
Q 447 3434 972 4092 
Q 1497 4750 2381 4750 
Q 2619 4750 2861 4703 
Q 3103 4656 3366 4563 
z
" transform="scale(0.015625)"/>
     </defs>
     <use xlink:href="#DejaVuSans-34"/>
     <use xlink:href="#DejaVuSans-20" x="63.623047"/>
     <use xlink:href="#DejaVuSans-52" x="95.410156"/>
     <use xlink:href="#DejaVuSans-4d" x="164.892578"/>
     <use xlink:href="#DejaVuSans-53" x="251.171875"/>
     <use xlink:href="#DejaVuSans-45" x="314.648438"/>
     <use xlink:href="#DejaVuSans-3a" x="377.832031"/>
     <use xlink:href="#DejaVuSans-20" x="411.523438"/>
     <use xlink:href="#DejaVuSans-38" x="443.310547"/>
     <use xlink:href="#DejaVuSans-2e" x="506.933594"/>
     <use xlink:href="#DejaVuSans-32" x="538.720703"/>
     <use xlink:href="#DejaVuSans-36" x="602.34375"/>
     <use xlink:href="#DejaVuSans-20" x="665.966797"/>
     <use xlink:href="#DejaVuSans-6d" x="697.753906"/>
    </g>
   </g>
   <g id="text_13">
    <!-- 6 RMSE: 4.82 m -->
    <g transform="translate(276.849927 523.628) scale(0.1728 -0.1728)">
     <use xlink:href="#DejaVuSans-36"/>
     <use xlink:href="#DejaVuSans-20" x="63.623047"/>
     <use xlink:href="#DejaVuSans-52" x="95.410156"/>
     <use xlink:href="#DejaVuSans-4d" x="164.892578"/>
     <use xlink:href="#DejaVuSans-53" x="251.171875"/>
     <use xlink:href="#DejaVuSans-45" x="314.648438"/>
     <use xlink:href="#DejaVuSans-3a" x="377.832031"/>
     <use xlink:href="#DejaVuSans-20" x="411.523438"/>
     <use xlink:href="#DejaVuSans-34" x="443.310547"/>
     <use xlink:href="#DejaVuSans-2e" x="506.933594"/>
     <use xlink:href="#DejaVuSans-38" x="538.720703"/>
     <use xlink:href="#DejaVuSans-32" x="602.34375"/>
     <use xlink:href="#DejaVuSans-20" x="665.966797"/>
     <use xlink:href="#DejaVuSans-6d" x="697.753906"/>
    </g>
   </g>
   <g id="text_14">
    <!-- 7 RMSE: 14.28 m -->
    <g transform="translate(276.849927 553.392) scale(0.1728 -0.1728)">
     <use xlink:href="#DejaVuSans-37"/>
     <use xlink:href="#DejaVuSans-20" x="63.623047"/>
     <use xlink:href="#DejaVuSans-52" x="95.410156"/>
     <use xlink:href="#DejaVuSans-4d" x="164.892578"/>
     <use xlink:href="#DejaVuSans-53" x="251.171875"/>
     <use xlink:href="#DejaVuSans-45" x="314.648438"/>
     <use xlink:href="#DejaVuSans-3a" x="377.832031"/>
     <use xlink:href="#DejaVuSans-20" x="411.523438"/>
     <use xlink:href="#DejaVuSans-31" x="443.310547"/>
     <use xlink:href="#DejaVuSans-34" x="506.933594"/>
     <use xlink:href="#DejaVuSans-2e" x="570.556641"/>
     <use xlink:href="#DejaVuSans-32" x="602.34375"/>
     <use xlink:href="#DejaVuSans-38" x="665.966797"/>
     <use xlink:href="#DejaVuSans-20" x="729.589844"/>
     <use xlink:href="#DejaVuSans-6d" x="761.376953"/>
    </g>
   </g>
   <g id="text_15">
    <!-- 7 -->
    <g transform="translate(498.027063 464.1) scale(0.1728 -0.1728)">
     <use xlink:href="#DejaVuSans-37"/>
    </g>
   </g>
   <g id="text_16">
    <!-- 8 -->
    <g transform="translate(562.23978 464.1) scale(0.1728 -0.1728)">
     <use xlink:href="#DejaVuSans-38"/>
    </g>
   </g>
   <g id="text_17">
    <!-- 6 -->
    <g transform="translate(526.566048 523.628) scale(0.1728 -0.1728)">
     <use xlink:href="#DejaVuSans-36"/>
    </g>
   </g>
   <g id="text_18">
    <!-- 4 -->
    <g transform="translate(526.566048 583.156) scale(0.1728 -0.1728)">
     <use xlink:href="#DejaVuSans-34"/>
    </g>
   </g>
   <g id="legend_1">
    <g id="patch_7">
     <path d="M 146.251 132.9192 
L 244.1017 132.9192 
Q 247.5577 132.9192 247.5577 129.4632 
L 247.5577 29.736 
Q 247.5577 26.28 244.1017 26.28 
L 146.251 26.28 
Q 142.795 26.28 142.795 29.736 
L 142.795 129.4632 
Q 142.795 132.9192 146.251 132.9192 
z
" style="fill: #ffffff; opacity: 0.8; stroke: #cccccc; stroke-linejoin: miter"/>
    </g>
    <g id="line2d_15">
     <path d="M 149.707 40.2741 
L 166.987 40.2741 
L 184.267 40.2741 
" style="fill: none; stroke: #000000; stroke-opacity: 0.6; stroke-width: 7; stroke-linecap: square"/>
    </g>
    <g id="text_19">
     <!-- truth -->
     <g transform="translate(198.091 46.3221) scale(0.1728 -0.1728)">
      <defs>
       <path id="DejaVuSans-72" d="M 2631 2963 
Q 2534 3019 2420 3045 
Q 2306 3072 2169 3072 
Q 1681 3072 1420 2755 
Q 1159 2438 1159 1844 
L 1159 0 
L 581 0 
L 581 3500 
L 1159 3500 
L 1159 2956 
Q 1341 3275 1631 3429 
Q 1922 3584 2338 3584 
Q 2397 3584 2469 3576 
Q 2541 3569 2628 3553 
L 2631 2963 
z
" transform="scale(0.015625)"/>
       <path id="DejaVuSans-75" d="M 544 1381 
L 544 3500 
L 1119 3500 
L 1119 1403 
Q 1119 906 1312 657 
Q 1506 409 1894 409 
Q 2359 409 2629 706 
Q 2900 1003 2900 1516 
L 2900 3500 
L 3475 3500 
L 3475 0 
L 2900 0 
L 2900 538 
Q 2691 219 2414 64 
Q 2138 -91 1772 -91 
Q 1169 -91 856 284 
Q 544 659 544 1381 
z
M 1991 3584 
L 1991 3584 
z
" transform="scale(0.015625)"/>
      </defs>
      <use xlink:href="#DejaVuSans-74"/>
      <use xlink:href="#DejaVuSans-72" x="39.208984"/>
      <use xlink:href="#DejaVuSans-75" x="80.322266"/>
      <use xlink:href="#DejaVuSans-74" x="143.701172"/>
      <use xlink:href="#DejaVuSans-68" x="182.910156"/>
     </g>
    </g>
    <g id="line2d_16">
     <path d="M 149.707 65.6379 
L 166.987 65.6379 
L 184.267 65.6379 
" style="fill: none; stroke-dasharray: 25.9,11.2; stroke-dashoffset: 0; stroke: #0000ff; stroke-opacity: 0.6; stroke-width: 7"/>
    </g>
    <g id="text_20">
     <!-- 4 -->
     <g transform="translate(198.091 71.6859) scale(0.1728 -0.1728)">
      <use xlink:href="#DejaVuSans-34"/>
     </g>
    </g>
    <g id="line2d_17">
     <path d="M 149.707 91.0017 
L 166.987 91.0017 
L 184.267 91.0017 
" style="fill: none; stroke-dasharray: 7,11.55; stroke-dashoffset: 0; stroke: #008000; stroke-opacity: 0.6; stroke-width: 7"/>
    </g>
    <g id="text_21">
     <!-- 6 -->
     <g transform="translate(198.091 97.0497) scale(0.1728 -0.1728)">
      <use xlink:href="#DejaVuSans-36"/>
     </g>
    </g>
    <g id="line2d_18">
     <path d="M 149.707 116.3655 
L 166.987 116.3655 
L 184.267 116.3655 
" style="fill: none; stroke-dasharray: 44.8,11.2,7,11.2; stroke-dashoffset: 0; stroke: #ff0000; stroke-opacity: 0.6; stroke-width: 7"/>
    </g>
    <g id="text_22">
     <!-- 7 -->
     <g transform="translate(198.091 122.4135) scale(0.1728 -0.1728)">
      <use xlink:href="#DejaVuSans-37"/>
     </g>
    </g>
   </g>
  </g>
  <g id="line2d_19">
   <path d="M 512.296556 470.0528 
L 526.566048 511.7224 
" style="fill: none; stroke: #000000; stroke-opacity: 0.5; stroke-width: 2; stroke-linecap: square"/>
  </g>
  <g id="line2d_20">
   <path d="M 562.23978 464.1 
L 540.835541 511.7224 
" style="fill: none; stroke: #000000; stroke-opacity: 0.5; stroke-width: 2; stroke-linecap: square"/>
  </g>
  <g id="line2d_21">
   <path d="M 533.700795 529.5808 
L 533.700795 559.3448 
" style="fill: none; stroke: #000000; stroke-opacity: 0.5; stroke-width: 2; stroke-linecap: square"/>
  </g>
 </g>
 <defs>
  <clipPath id="pd09bb02a4a">
   <rect x="134.155" y="17.64" width="713.474633" height="595.28"/>
  </clipPath>
 </defs>
</svg>
