<?xml version="1.0" encoding="utf-8" standalone="no"?>
<!DOCTYPE svg PUBLIC "-//W3C//DTD SVG 1.1//EN"
  "http://www.w3.org/Graphics/SVG/1.1/DTD/svg11.dtd">
<svg xmlns:xlink="http://www.w3.org/1999/xlink" width="864pt" height="648pt" viewBox="0 0 864 648" xmlns="http://www.w3.org/2000/svg" version="1.1">
 <metadata>
  <rdf:RDF xmlns:dc="http://purl.org/dc/elements/1.1/" xmlns:cc="http://creativecommons.org/ns#" xmlns:rdf="http://www.w3.org/1999/02/22-rdf-syntax-ns#">
   <cc:Work>
    <dc:type rdf:resource="http://purl.org/dc/dcmitype/StillImage"/>
    <dc:date>2024-10-29T13:11:42.060982</dc:date>
    <dc:format>image/svg+xml</dc:format>
    <dc:creator>
     <cc:Agent>
      <dc:title>Matplotlib v3.9.2, https://matplotlib.org/</dc:title>
     </cc:Agent>
    </dc:creator>
   </cc:Work>
  </rdf:RDF>
 </metadata>
 <defs>
  <style type="text/css">*{stroke-linejoin: round; stroke-linecap: butt}</style>
 </defs>
 <g id="figure_1">
  <g id="patch_1">
   <path d="M 0 648 
L 864 648 
L 864 0 
L 0 0 
z
" style="fill: #ffffff"/>
  </g>
  <g id="axes_1">
   <g id="patch_2">
    <path d="M 134.155 612.92 
L 847.629633 612.92 
L 847.629633 17.64 
L 134.155 17.64 
z
" style="fill: #ffffff"/>
   </g>
   <g id="matplotlib.axis_1">
    <g id="xtick_1">
     <g id="line2d_1">
      <defs>
       <path id="m20ed77331c" d="M 0 0 
L 0 3.5 
" style="stroke: #000000; stroke-width: 0.8"/>
      </defs>
      <g>
       <use xlink:href="#m20ed77331c" x="229.262935" y="612.92" style="stroke: #000000; stroke-width: 0.8"/>
      </g>
     </g>
     <g id="text_1">
      <!-- 2021-04-19 -->
      <g transform="translate(179.051035 633.0501) scale(0.1728 -0.1728)">
       <defs>
        <path id="DejaVuSans-32" d="M 1228 531 
L 3431 531 
L 3431 0 
L 469 0 
L 469 531 
Q 828 903 1448 1529 
Q 2069 2156 2228 2338 
Q 2531 2678 2651 2914 
Q 2772 3150 2772 3378 
Q 2772 3750 2511 3984 
Q 2250 4219 1831 4219 
Q 1534 4219 1204 4116 
Q 875 4013 500 3803 
L 500 4441 
Q 881 4594 1212 4672 
Q 1544 4750 1819 4750 
Q 2544 4750 2975 4387 
Q 3406 4025 3406 3419 
Q 3406 3131 3298 2873 
Q 3191 2616 2906 2266 
Q 2828 2175 2409 1742 
Q 1991 1309 1228 531 
z
" transform="scale(0.015625)"/>
        <path id="DejaVuSans-30" d="M 2034 4250 
Q 1547 4250 1301 3770 
Q 1056 3291 1056 2328 
Q 1056 1369 1301 889 
Q 1547 409 2034 409 
Q 2525 409 2770 889 
Q 3016 1369 3016 2328 
Q 3016 3291 2770 3770 
Q 2525 4250 2034 4250 
z
M 2034 4750 
Q 2819 4750 3233 4129 
Q 3647 3509 3647 2328 
Q 3647 1150 3233 529 
Q 2819 -91 2034 -91 
Q 1250 -91 836 529 
Q 422 1150 422 2328 
Q 422 3509 836 4129 
Q 1250 4750 2034 4750 
z
" transform="scale(0.015625)"/>
        <path id="DejaVuSans-31" d="M 794 531 
L 1825 531 
L 1825 4091 
L 703 3866 
L 703 4441 
L 1819 4666 
L 2450 4666 
L 2450 531 
L 3481 531 
L 3481 0 
L 794 0 
L 794 531 
z
" transform="scale(0.015625)"/>
        <path id="DejaVuSans-2d" d="M 313 2009 
L 1997 2009 
L 1997 1497 
L 313 1497 
L 313 2009 
z
" transform="scale(0.015625)"/>
        <path id="DejaVuSans-34" d="M 2419 4116 
L 825 1625 
L 2419 1625 
L 2419 4116 
z
M 2253 4666 
L 3047 4666 
L 3047 1625 
L 3713 1625 
L 3713 1100 
L 3047 1100 
L 3047 0 
L 2419 0 
L 2419 1100 
L 313 1100 
L 313 1709 
L 2253 4666 
z
" transform="scale(0.015625)"/>
        <path id="DejaVuSans-39" d="M 703 97 
L 703 672 
Q 941 559 1184 500 
Q 1428 441 1663 441 
Q 2288 441 2617 861 
Q 2947 1281 2994 2138 
Q 2813 1869 2534 1725 
Q 2256 1581 1919 1581 
Q 1219 1581 811 2004 
Q 403 2428 403 3163 
Q 403 3881 828 4315 
Q 1253 4750 1959 4750 
Q 2769 4750 3195 4129 
Q 3622 3509 3622 2328 
Q 3622 1225 3098 567 
Q 2575 -91 1691 -91 
Q 1453 -91 1209 -44 
Q 966 3 703 97 
z
M 1959 2075 
Q 2384 2075 2632 2365 
Q 2881 2656 2881 3163 
Q 2881 3666 2632 3958 
Q 2384 4250 1959 4250 
Q 1534 4250 1286 3958 
Q 1038 3666 1038 3163 
Q 1038 2656 1286 2365 
Q 1534 2075 1959 2075 
z
" transform="scale(0.015625)"/>
       </defs>
       <use xlink:href="#DejaVuSans-32"/>
       <use xlink:href="#DejaVuSans-30" x="63.623047"/>
       <use xlink:href="#DejaVuSans-32" x="127.246094"/>
       <use xlink:href="#DejaVuSans-31" x="190.869141"/>
       <use xlink:href="#DejaVuSans-2d" x="254.492188"/>
       <use xlink:href="#DejaVuSans-30" x="290.576172"/>
       <use xlink:href="#DejaVuSans-34" x="354.199219"/>
       <use xlink:href="#DejaVuSans-2d" x="417.822266"/>
       <use xlink:href="#DejaVuSans-31" x="453.90625"/>
       <use xlink:href="#DejaVuSans-39" x="517.529297"/>
      </g>
     </g>
    </g>
    <g id="xtick_2">
     <g id="line2d_2">
      <g>
       <use xlink:href="#m20ed77331c" x="419.478806" y="612.92" style="stroke: #000000; stroke-width: 0.8"/>
      </g>
     </g>
     <g id="text_2">
      <!-- 2021-04-27 -->
      <g transform="translate(369.266906 633.0501) scale(0.1728 -0.1728)">
       <defs>
        <path id="DejaVuSans-37" d="M 525 4666 
L 3525 4666 
L 3525 4397 
L 1831 0 
L 1172 0 
L 2766 4134 
L 525 4134 
L 525 4666 
z
" transform="scale(0.015625)"/>
       </defs>
       <use xlink:href="#DejaVuSans-32"/>
       <use xlink:href="#DejaVuSans-30" x="63.623047"/>
       <use xlink:href="#DejaVuSans-32" x="127.246094"/>
       <use xlink:href="#DejaVuSans-31" x="190.869141"/>
       <use xlink:href="#DejaVuSans-2d" x="254.492188"/>
       <use xlink:href="#DejaVuSans-30" x="290.576172"/>
       <use xlink:href="#DejaVuSans-34" x="354.199219"/>
       <use xlink:href="#DejaVuSans-2d" x="417.822266"/>
       <use xlink:href="#DejaVuSans-32" x="453.90625"/>
       <use xlink:href="#DejaVuSans-37" x="517.529297"/>
      </g>
     </g>
    </g>
    <g id="xtick_3">
     <g id="line2d_3">
      <g>
       <use xlink:href="#m20ed77331c" x="609.694677" y="612.92" style="stroke: #000000; stroke-width: 0.8"/>
      </g>
     </g>
     <g id="text_3">
      <!-- 2021-05-05 -->
      <g transform="translate(559.482777 633.0501) scale(0.1728 -0.1728)">
       <defs>
        <path id="DejaVuSans-35" d="M 691 4666 
L 3169 4666 
L 3169 4134 
L 1269 4134 
L 1269 2991 
Q 1406 3038 1543 3061 
Q 1681 3084 1819 3084 
Q 2600 3084 3056 2656 
Q 3513 2228 3513 1497 
Q 3513 744 3044 326 
Q 2575 -91 1722 -91 
Q 1428 -91 1123 -41 
Q 819 9 494 109 
L 494 744 
Q 775 591 1075 516 
Q 1375 441 1709 441 
Q 2250 441 2565 725 
Q 2881 1009 2881 1497 
Q 2881 1984 2565 2268 
Q 2250 2553 1709 2553 
Q 1456 2553 1204 2497 
Q 953 2441 691 2322 
L 691 4666 
z
" transform="scale(0.015625)"/>
       </defs>
       <use xlink:href="#DejaVuSans-32"/>
       <use xlink:href="#DejaVuSans-30" x="63.623047"/>
       <use xlink:href="#DejaVuSans-32" x="127.246094"/>
       <use xlink:href="#DejaVuSans-31" x="190.869141"/>
       <use xlink:href="#DejaVuSans-2d" x="254.492188"/>
       <use xlink:href="#DejaVuSans-30" x="290.576172"/>
       <use xlink:href="#DejaVuSans-35" x="354.199219"/>
       <use xlink:href="#DejaVuSans-2d" x="417.822266"/>
       <use xlink:href="#DejaVuSans-30" x="453.90625"/>
       <use xlink:href="#DejaVuSans-35" x="517.529297"/>
      </g>
     </g>
    </g>
    <g id="xtick_4">
     <g id="line2d_4">
      <g>
       <use xlink:href="#m20ed77331c" x="799.910548" y="612.92" style="stroke: #000000; stroke-width: 0.8"/>
      </g>
     </g>
     <g id="text_4">
      <!-- 2021-05-13 -->
      <g transform="translate(749.698648 633.0501) scale(0.1728 -0.1728)">
       <defs>
        <path id="DejaVuSans-33" d="M 2597 2516 
Q 3050 2419 3304 2112 
Q 3559 1806 3559 1356 
Q 3559 666 3084 287 
Q 2609 -91 1734 -91 
Q 1441 -91 1130 -33 
Q 819 25 488 141 
L 488 750 
Q 750 597 1062 519 
Q 1375 441 1716 441 
Q 2309 441 2620 675 
Q 2931 909 2931 1356 
Q 2931 1769 2642 2001 
Q 2353 2234 1838 2234 
L 1294 2234 
L 1294 2753 
L 1863 2753 
Q 2328 2753 2575 2939 
Q 2822 3125 2822 3475 
Q 2822 3834 2567 4026 
Q 2313 4219 1838 4219 
Q 1578 4219 1281 4162 
Q 984 4106 628 3988 
L 628 4550 
Q 988 4650 1302 4700 
Q 1616 4750 1894 4750 
Q 2613 4750 3031 4423 
Q 3450 4097 3450 3541 
Q 3450 3153 3228 2886 
Q 3006 2619 2597 2516 
z
" transform="scale(0.015625)"/>
       </defs>
       <use xlink:href="#DejaVuSans-32"/>
       <use xlink:href="#DejaVuSans-30" x="63.623047"/>
       <use xlink:href="#DejaVuSans-32" x="127.246094"/>
       <use xlink:href="#DejaVuSans-31" x="190.869141"/>
       <use xlink:href="#DejaVuSans-2d" x="254.492188"/>
       <use xlink:href="#DejaVuSans-30" x="290.576172"/>
       <use xlink:href="#DejaVuSans-35" x="354.199219"/>
       <use xlink:href="#DejaVuSans-2d" x="417.822266"/>
       <use xlink:href="#DejaVuSans-31" x="453.90625"/>
       <use xlink:href="#DejaVuSans-33" x="517.529297"/>
      </g>
     </g>
    </g>
   </g>
   <g id="matplotlib.axis_2">
    <g id="ytick_1">
     <g id="line2d_5">
      <defs>
       <path id="m70b7447135" d="M 0 0 
L -3.5 0 
" style="stroke: #000000; stroke-width: 0.8"/>
      </defs>
      <g>
       <use xlink:href="#m70b7447135" x="134.155" y="612.92" style="stroke: #000000; stroke-width: 0.8"/>
      </g>
     </g>
     <g id="text_5">
      <!-- −1.0 -->
      <g transform="translate(85.1943 619.48505) scale(0.1728 -0.1728)">
       <defs>
        <path id="DejaVuSans-2212" d="M 678 2272 
L 4684 2272 
L 4684 1741 
L 678 1741 
L 678 2272 
z
" transform="scale(0.015625)"/>
        <path id="DejaVuSans-2e" d="M 684 794 
L 1344 794 
L 1344 0 
L 684 0 
L 684 794 
z
" transform="scale(0.015625)"/>
       </defs>
       <use xlink:href="#DejaVuSans-2212"/>
       <use xlink:href="#DejaVuSans-31" x="83.789062"/>
       <use xlink:href="#DejaVuSans-2e" x="147.412109"/>
       <use xlink:href="#DejaVuSans-30" x="179.199219"/>
      </g>
     </g>
    </g>
    <g id="ytick_2">
     <g id="line2d_6">
      <g>
       <use xlink:href="#m70b7447135" x="134.155" y="493.864" style="stroke: #000000; stroke-width: 0.8"/>
      </g>
     </g>
     <g id="text_6">
      <!-- −0.5 -->
      <g transform="translate(85.1943 500.42905) scale(0.1728 -0.1728)">
       <use xlink:href="#DejaVuSans-2212"/>
       <use xlink:href="#DejaVuSans-30" x="83.789062"/>
       <use xlink:href="#DejaVuSans-2e" x="147.412109"/>
       <use xlink:href="#DejaVuSans-35" x="179.199219"/>
      </g>
     </g>
    </g>
    <g id="ytick_3">
     <g id="line2d_7">
      <g>
       <use xlink:href="#m70b7447135" x="134.155" y="374.808" style="stroke: #000000; stroke-width: 0.8"/>
      </g>
     </g>
     <g id="text_7">
      <!-- 0.0 -->
      <g transform="translate(99.6744 381.37305) scale(0.1728 -0.1728)">
       <use xlink:href="#DejaVuSans-30"/>
       <use xlink:href="#DejaVuSans-2e" x="63.623047"/>
       <use xlink:href="#DejaVuSans-30" x="95.410156"/>
      </g>
     </g>
    </g>
    <g id="ytick_4">
     <g id="line2d_8">
      <g>
       <use xlink:href="#m70b7447135" x="134.155" y="255.752" style="stroke: #000000; stroke-width: 0.8"/>
      </g>
     </g>
     <g id="text_8">
      <!-- 0.5 -->
      <g transform="translate(99.6744 262.31705) scale(0.1728 -0.1728)">
       <use xlink:href="#DejaVuSans-30"/>
       <use xlink:href="#DejaVuSans-2e" x="63.623047"/>
       <use xlink:href="#DejaVuSans-35" x="95.410156"/>
      </g>
     </g>
    </g>
    <g id="ytick_5">
     <g id="line2d_9">
      <g>
       <use xlink:href="#m70b7447135" x="134.155" y="136.696" style="stroke: #000000; stroke-width: 0.8"/>
      </g>
     </g>
     <g id="text_9">
      <!-- 1.0 -->
      <g transform="translate(99.6744 143.26105) scale(0.1728 -0.1728)">
       <use xlink:href="#DejaVuSans-31"/>
       <use xlink:href="#DejaVuSans-2e" x="63.623047"/>
       <use xlink:href="#DejaVuSans-30" x="95.410156"/>
      </g>
     </g>
    </g>
    <g id="ytick_6">
     <g id="line2d_10">
      <g>
       <use xlink:href="#m70b7447135" x="134.155" y="17.64" style="stroke: #000000; stroke-width: 0.8"/>
      </g>
     </g>
     <g id="text_10">
      <!-- 1.5 -->
      <g transform="translate(99.6744 24.20505) scale(0.1728 -0.1728)">
       <use xlink:href="#DejaVuSans-31"/>
       <use xlink:href="#DejaVuSans-2e" x="63.623047"/>
       <use xlink:href="#DejaVuSans-35" x="95.410156"/>
      </g>
     </g>
    </g>
    <g id="text_11">
     <!-- Node 8 -->
     <g transform="translate(24.39945 292.33648) scale(0.1728 -0.1728)">
      <defs>
       <path id="DejaVuSans-4e" d="M 628 4666 
L 1478 4666 
L 3547 763 
L 3547 4666 
L 4159 4666 
L 4159 0 
L 3309 0 
L 1241 3903 
L 1241 0 
L 628 0 
L 628 4666 
z
" transform="scale(0.015625)"/>
       <path id="DejaVuSans-6f" d="M 1959 3097 
Q 1497 3097 1228 2736 
Q 959 2375 959 1747 
Q 959 1119 1226 758 
Q 1494 397 1959 397 
Q 2419 397 2687 759 
Q 2956 1122 2956 1747 
Q 2956 2369 2687 2733 
Q 2419 3097 1959 3097 
z
M 1959 3584 
Q 2709 3584 3137 3096 
Q 3566 2609 3566 1747 
Q 3566 888 3137 398 
Q 2709 -91 1959 -91 
Q 1206 -91 779 398 
Q 353 888 353 1747 
Q 353 2609 779 3096 
Q 1206 3584 1959 3584 
z
" transform="scale(0.015625)"/>
       <path id="DejaVuSans-64" d="M 2906 2969 
L 2906 4863 
L 3481 4863 
L 3481 0 
L 2906 0 
L 2906 525 
Q 2725 213 2448 61 
Q 2172 -91 1784 -91 
Q 1150 -91 751 415 
Q 353 922 353 1747 
Q 353 2572 751 3078 
Q 1150 3584 1784 3584 
Q 2172 3584 2448 3432 
Q 2725 3281 2906 2969 
z
M 947 1747 
Q 947 1113 1208 752 
Q 1469 391 1925 391 
Q 2381 391 2643 752 
Q 2906 1113 2906 1747 
Q 2906 2381 2643 2742 
Q 2381 3103 1925 3103 
Q 1469 3103 1208 2742 
Q 947 2381 947 1747 
z
" transform="scale(0.015625)"/>
       <path id="DejaVuSans-65" d="M 3597 1894 
L 3597 1613 
L 953 1613 
Q 991 1019 1311 708 
Q 1631 397 2203 397 
Q 2534 397 2845 478 
Q 3156 559 3463 722 
L 3463 178 
Q 3153 47 2828 -22 
Q 2503 -91 2169 -91 
Q 1331 -91 842 396 
Q 353 884 353 1716 
Q 353 2575 817 3079 
Q 1281 3584 2069 3584 
Q 2775 3584 3186 3129 
Q 3597 2675 3597 1894 
z
M 3022 2063 
Q 3016 2534 2758 2815 
Q 2500 3097 2075 3097 
Q 1594 3097 1305 2825 
Q 1016 2553 972 2059 
L 3022 2063 
z
" transform="scale(0.015625)"/>
       <path id="DejaVuSans-20" transform="scale(0.015625)"/>
       <path id="DejaVuSans-38" d="M 2034 2216 
Q 1584 2216 1326 1975 
Q 1069 1734 1069 1313 
Q 1069 891 1326 650 
Q 1584 409 2034 409 
Q 2484 409 2743 651 
Q 3003 894 3003 1313 
Q 3003 1734 2745 1975 
Q 2488 2216 2034 2216 
z
M 1403 2484 
Q 997 2584 770 2862 
Q 544 3141 544 3541 
Q 544 4100 942 4425 
Q 1341 4750 2034 4750 
Q 2731 4750 3128 4425 
Q 3525 4100 3525 3541 
Q 3525 3141 3298 2862 
Q 3072 2584 2669 2484 
Q 3125 2378 3379 2068 
Q 3634 1759 3634 1313 
Q 3634 634 3220 271 
Q 2806 -91 2034 -91 
Q 1263 -91 848 271 
Q 434 634 434 1313 
Q 434 1759 690 2068 
Q 947 2378 1403 2484 
z
M 1172 3481 
Q 1172 3119 1398 2916 
Q 1625 2713 2034 2713 
Q 2441 2713 2670 2916 
Q 2900 3119 2900 3481 
Q 2900 3844 2670 4047 
Q 2441 4250 2034 4250 
Q 1625 4250 1398 4047 
Q 1172 3844 1172 3481 
z
" transform="scale(0.015625)"/>
      </defs>
      <use xlink:href="#DejaVuSans-4e"/>
      <use xlink:href="#DejaVuSans-6f" x="74.804688"/>
      <use xlink:href="#DejaVuSans-64" x="135.986328"/>
      <use xlink:href="#DejaVuSans-65" x="199.462891"/>
      <use xlink:href="#DejaVuSans-20" x="260.986328"/>
      <use xlink:href="#DejaVuSans-38" x="292.773438"/>
     </g>
     <!-- Depth (m) -->
     <g transform="translate(10.9737 311.6863) scale(0.1728 -0.1728)">
      <defs>
       <path id="DejaVuSans-44" d="M 1259 4147 
L 1259 519 
L 2022 519 
Q 2988 519 3436 956 
Q 3884 1394 3884 2338 
Q 3884 3275 3436 3711 
Q 2988 4147 2022 4147 
L 1259 4147 
z
M 628 4666 
L 1925 4666 
Q 3281 4666 3915 4102 
Q 4550 3538 4550 2338 
Q 4550 1131 3912 565 
Q 3275 0 1925 0 
L 628 0 
L 628 4666 
z
" transform="scale(0.015625)"/>
       <path id="DejaVuSans-70" d="M 1159 525 
L 1159 -1331 
L 581 -1331 
L 581 3500 
L 1159 3500 
L 1159 2969 
Q 1341 3281 1617 3432 
Q 1894 3584 2278 3584 
Q 2916 3584 3314 3078 
Q 3713 2572 3713 1747 
Q 3713 922 3314 415 
Q 2916 -91 2278 -91 
Q 1894 -91 1617 61 
Q 1341 213 1159 525 
z
M 3116 1747 
Q 3116 2381 2855 2742 
Q 2594 3103 2138 3103 
Q 1681 3103 1420 2742 
Q 1159 2381 1159 1747 
Q 1159 1113 1420 752 
Q 1681 391 2138 391 
Q 2594 391 2855 752 
Q 3116 1113 3116 1747 
z
" transform="scale(0.015625)"/>
       <path id="DejaVuSans-74" d="M 1172 4494 
L 1172 3500 
L 2356 3500 
L 2356 3053 
L 1172 3053 
L 1172 1153 
Q 1172 725 1289 603 
Q 1406 481 1766 481 
L 2356 481 
L 2356 0 
L 1766 0 
Q 1100 0 847 248 
Q 594 497 594 1153 
L 594 3053 
L 172 3053 
L 172 3500 
L 594 3500 
L 594 4494 
L 1172 4494 
z
" transform="scale(0.015625)"/>
       <path id="DejaVuSans-68" d="M 3513 2113 
L 3513 0 
L 2938 0 
L 2938 2094 
Q 2938 2591 2744 2837 
Q 2550 3084 2163 3084 
Q 1697 3084 1428 2787 
Q 1159 2491 1159 1978 
L 1159 0 
L 581 0 
L 581 4863 
L 1159 4863 
L 1159 2956 
Q 1366 3272 1645 3428 
Q 1925 3584 2291 3584 
Q 2894 3584 3203 3211 
Q 3513 2838 3513 2113 
z
" transform="scale(0.015625)"/>
       <path id="DejaVuSans-28" d="M 1984 4856 
Q 1566 4138 1362 3434 
Q 1159 2731 1159 2009 
Q 1159 1288 1364 580 
Q 1569 -128 1984 -844 
L 1484 -844 
Q 1016 -109 783 600 
Q 550 1309 550 2009 
Q 550 2706 781 3412 
Q 1013 4119 1484 4856 
L 1984 4856 
z
" transform="scale(0.015625)"/>
       <path id="DejaVuSans-6d" d="M 3328 2828 
Q 3544 3216 3844 3400 
Q 4144 3584 4550 3584 
Q 5097 3584 5394 3201 
Q 5691 2819 5691 2113 
L 5691 0 
L 5113 0 
L 5113 2094 
Q 5113 2597 4934 2840 
Q 4756 3084 4391 3084 
Q 3944 3084 3684 2787 
Q 3425 2491 3425 1978 
L 3425 0 
L 2847 0 
L 2847 2094 
Q 2847 2600 2669 2842 
Q 2491 3084 2119 3084 
Q 1678 3084 1418 2786 
Q 1159 2488 1159 1978 
L 1159 0 
L 581 0 
L 581 3500 
L 1159 3500 
L 1159 2956 
Q 1356 3278 1631 3431 
Q 1906 3584 2284 3584 
Q 2666 3584 2933 3390 
Q 3200 3197 3328 2828 
z
" transform="scale(0.015625)"/>
       <path id="DejaVuSans-29" d="M 513 4856 
L 1013 4856 
Q 1481 4119 1714 3412 
Q 1947 2706 1947 2009 
Q 1947 1309 1714 600 
Q 1481 -109 1013 -844 
L 513 -844 
Q 928 -128 1133 580 
Q 1338 1288 1338 2009 
Q 1338 2731 1133 3434 
Q 928 4138 513 4856 
z
" transform="scale(0.015625)"/>
      </defs>
      <use xlink:href="#DejaVuSans-44"/>
      <use xlink:href="#DejaVuSans-65" x="77.001953"/>
      <use xlink:href="#DejaVuSans-70" x="138.525391"/>
      <use xlink:href="#DejaVuSans-74" x="202.001953"/>
      <use xlink:href="#DejaVuSans-68" x="241.210938"/>
      <use xlink:href="#DejaVuSans-20" x="304.589844"/>
      <use xlink:href="#DejaVuSans-28" x="336.376953"/>
      <use xlink:href="#DejaVuSans-6d" x="375.390625"/>
      <use xlink:href="#DejaVuSans-29" x="472.802734"/>
     </g>
    </g>
   </g>
   <g id="line2d_11">
    <path d="M 134.155 200.418143 
L 134.567795 200.894249 
M 134.732913 200.976002 
L 136.54921 202.711486 
M 136.714328 202.786492 
L 138.530625 204.378661 
M 138.695743 204.447476 
L 139.521333 205.159101 
M 139.686451 205.224896 
L 140.099246 205.59869 
M 140.264364 205.662603 
L 141.089954 206.326322 
M 141.255072 206.38743 
L 142.245779 207.035505 
L 142.410897 206.092293 
L 142.658574 204.565525 
L 142.906251 204.125425 
L 143.236487 203.897051 
L 143.896959 200.591298 
L 144.227195 200.508375 
L 144.722548 200.716098 
L 145.465579 201.185 
L 145.630697 200.184146 
L 145.795815 198.766247 
M 145.960933 198.575037 
L 146.20861 198.223099 
L 146.373728 196.923771 
L 146.621405 195.362633 
L 146.703964 194.859653 
L 147.199318 188.016023 
L 147.529553 187.017359 
L 147.859789 184.88387 
L 148.107466 184.643661 
L 148.355143 184.726512 
L 148.767938 185.121239 
L 148.850497 185.31744 
M 149.015615 185.424595 
L 151.492384 188.908069 
L 151.574943 189.139086 
M 151.740061 189.259571 
L 152.730769 190.742169 
M 152.895887 190.859095 
L 154.464507 193.036461 
M 154.629625 193.146058 
L 156.61104 195.589476 
L 157.188953 196.357494 
M 157.354071 196.456339 
L 158.757574 198.113849 
M 158.922692 198.206498 
L 159.748281 199.166407 
M 159.913399 199.255414 
L 160.326194 199.760683 
M 160.491312 199.847588 
L 162.555286 201.850757 
L 163.298317 202.597042 
M 163.463435 202.673569 
L 163.87623 203.10746 
M 164.041348 203.181967 
L 166.105322 204.899715 
L 168.912327 207.043346 
M 169.077445 207.102986 
L 169.49024 207.440471 
M 169.655358 207.498555 
L 171.554214 208.775782 
M 171.719332 208.828663 
L 172.297245 209.226088 
M 172.462363 209.277173 
L 173.948424 210.173012 
M 174.113542 210.220151 
L 176.094958 211.299675 
M 176.260076 211.342498 
L 177.49846 211.977294 
M 177.663578 212.017332 
L 178.901963 212.6116 
M 179.067081 212.649166 
L 181.874086 213.795357 
L 186.827624 215.483615 
L 187.900891 215.823282 
M 188.066009 215.848071 
L 189.634629 216.303003 
M 189.799747 216.325829 
L 193.349783 217.213673 
M 193.514901 217.233179 
L 195.909111 217.760436 
M 196.074229 217.77791 
L 197.973085 218.160312 
M 198.138203 218.17637 
L 204.577803 219.239163 
M 204.742921 219.251674 
L 204.990598 219.298023 
M 205.155716 219.31032 
L 208.292957 219.739421 
M 208.458075 219.750349 
L 209.531341 219.892639 
M 209.696459 219.90318 
L 211.26508 220.097126 
M 211.430197 220.107116 
L 211.925551 220.17217 
M 212.090669 220.181906 
L 213.246495 220.317856 
M 213.411613 220.327307 
L 214.897674 220.492329 
M 215.062792 220.501329 
L 217.044208 220.707643 
M 217.209326 220.716143 
L 217.539561 220.755623 
M 217.704679 220.764027 
L 218.034915 220.803024 
M 218.200033 220.811318 
L 218.777946 220.873048 
M 218.943064 220.881195 
L 219.025623 220.896105 
M 219.190741 220.904206 
L 219.2733 220.919056 
M 219.438418 220.927116 
L 219.520977 220.941846 
M 219.686095 220.949862 
L 219.768654 220.96451 
M 219.933772 220.972505 
L 221.584951 221.126831 
M 221.750069 221.134489 
L 226.125694 221.506811 
M 226.290812 221.513836 
L 227.529197 221.617883 
M 227.694315 221.624745 
L 234.051356 222.103825 
M 234.216474 222.110086 
L 234.381592 222.127316 
M 234.54671 222.133562 
L 236.94092 222.306536 
M 237.106038 222.312616 
L 238.261863 222.397202 
M 238.426981 222.403225 
L 240.490956 222.547767 
M 240.656073 222.553642 
L 240.821191 222.569843 
M 240.986309 222.575708 
L 241.481663 222.613792 
M 241.646781 222.619617 
L 243.710755 222.760659 
M 243.875873 222.766406 
L 245.114258 222.852031 
M 245.279376 222.857776 
L 248.251499 223.053745 
M 248.416617 223.059385 
L 248.664294 223.08006 
M 248.829412 223.085712 
L 249.985237 223.163954 
M 250.150355 223.169565 
L 251.718976 223.273464 
M 251.884094 223.279039 
L 252.214329 223.304618 
M 252.379447 223.310194 
L 256.589955 223.578186 
M 256.755073 223.583713 
L 257.085309 223.608998 
M 257.250427 223.614518 
L 259.231842 223.742245 
M 259.39696 223.747772 
L 259.809755 223.77806 
M 259.974873 223.783563 
L 265.093529 224.046351 
L 265.258647 222.850334 
L 265.423765 220.96056 
M 265.588883 220.648479 
L 265.83656 220.013294 
L 266.497032 213.923642 
L 266.744709 211.806128 
L 266.909826 210.569613 
L 267.40518 203.369305 
M 267.570298 202.941729 
L 268.065652 199.1864 
L 268.23077 198.987824 
L 268.313329 198.353802 
M 268.478447 197.488182 
L 268.973801 192.358282 
L 269.05636 192.044566 
M 269.221478 191.984978 
L 269.304037 191.836454 
L 269.469155 190.626943 
L 269.964508 185.833957 
L 270.212185 185.550729 
L 270.459862 185.653727 
L 270.790098 186.003928 
L 270.872657 186.218212 
M 271.037775 186.341139 
L 271.533129 187.08703 
L 271.615688 187.339012 
M 271.780806 187.477961 
L 272.771513 189.205055 
M 272.936631 189.347021 
L 273.266867 190.00473 
M 273.431985 190.138106 
L 275.000606 192.731416 
M 275.330842 193.115343 
L 275.49596 193.484016 
M 275.661077 193.612811 
L 277.559934 196.377338 
L 278.055288 197.169317 
M 278.220406 197.287002 
L 278.963436 198.393612 
M 279.293672 198.724697 
L 280.449498 200.30521 
M 280.614616 200.412916 
L 284.494887 204.952877 
M 284.660005 205.044518 
L 284.907682 205.383672 
M 285.0728 205.473658 
L 285.815831 206.223815 
L 285.89839 202.396014 
L 286.311185 147.660483 
L 286.558862 139.335635 
L 286.806539 137.730768 
M 286.971657 137.763501 
L 287.219333 138.121075 
L 287.797246 139.491108 
L 288.540277 141.532641 
L 288.622836 141.984022 
M 288.787954 142.230728 
L 290.191456 146.186176 
L 290.274015 146.636554 
M 290.439133 146.881711 
L 292.33799 152.302231 
M 292.503108 152.538378 
L 293.576374 155.586821 
M 293.741492 155.816696 
L 293.824051 155.99179 
L 293.90661 155.646627 
M 294.071728 155.253228 
L 294.236846 155.025835 
L 294.401964 155.10728 
L 294.7322 155.616434 
L 295.475231 157.245966 
L 297.704323 162.641301 
L 297.786882 163.028002 
M 297.952 163.238558 
L 298.447354 164.597365 
M 298.612472 164.80407 
L 298.77759 165.373772 
M 298.942707 165.579017 
L 299.438061 166.906607 
M 299.603179 167.109691 
L 303.400892 175.372056 
L 304.309041 177.375678 
M 304.474159 177.551921 
L 307.528841 183.475996 
M 307.693958 183.634779 
L 308.519548 185.224249 
M 308.684666 185.377871 
L 311.739348 190.38589 
L 314.959148 195.077691 
L 315.702179 196.187742 
M 315.867297 196.305613 
L 316.36265 197.052888 
M 316.527768 197.167734 
L 319.004538 200.292542 
M 319.169656 200.395847 
L 319.665009 201.048843 
M 319.830127 201.149654 
L 320.40804 201.875142 
M 320.573158 201.97242 
L 322.719691 204.285157 
M 322.884809 204.373471 
L 324.370871 205.864862 
M 324.535989 205.947027 
L 326.187168 207.474567 
M 326.352286 207.550488 
L 329.489527 210.029342 
L 330.480235 210.794635 
M 330.645353 210.857225 
L 331.718619 211.637376 
M 331.883737 211.696459 
L 333.122122 212.535587 
M 333.28724 212.590961 
L 336.589599 214.478781 
L 338.488455 215.475808 
M 338.653573 215.519003 
L 341.130342 216.673943 
M 341.29546 216.709072 
L 343.441993 217.57779 
L 347.074588 218.863672 
L 351.119978 220.071257 
L 353.679306 220.75021 
M 353.844424 220.77218 
L 355.74328 221.232499 
M 355.908398 221.252717 
L 357.559577 221.625025 
M 357.724695 221.64238 
L 359.953788 222.034656 
L 360.118905 220.836504 
L 360.201464 219.447207 
M 360.366582 219.046317 
L 360.696818 218.303485 
L 361.027054 218.072419 
L 361.604967 218.025839 
L 362.347998 218.200038 
M 362.513116 218.224113 
L 362.925911 218.284592 
L 363.091028 217.092176 
L 363.338705 215.314789 
L 363.503823 214.143148 
L 363.834059 210.989694 
L 363.916618 210.546779 
M 364.081736 210.417078 
L 364.164295 210.199464 
L 364.742208 206.513875 
L 364.824767 206.360212 
M 364.989885 206.32345 
L 365.320121 206.3543 
L 365.898033 206.687017 
L 367.218977 207.780097 
L 367.631772 208.208121 
M 367.79689 208.281192 
L 371.099249 211.124658 
M 371.264367 211.19038 
L 373.576018 212.984708 
M 373.741136 213.044005 
L 375.474874 214.279541 
M 375.639992 214.333632 
L 376.383023 214.860659 
M 376.548141 214.912522 
L 379.355146 216.558859 
L 380.841207 217.385338 
M 381.006325 217.427674 
L 384.061007 218.876905 
L 384.556361 219.124718 
M 384.721479 219.160678 
L 385.134274 219.369362 
M 385.299392 219.40445 
L 386.207541 219.806918 
M 386.372658 219.839958 
L 387.776161 220.408968 
M 387.941279 220.439794 
L 389.757576 221.111166 
M 389.922694 221.139413 
L 390.25293 221.27729 
M 390.418048 221.305174 
L 391.656433 221.728964 
M 391.821551 221.755177 
L 392.977376 222.129785 
M 393.142494 222.154357 
L 396.775089 223.166979 
M 396.940207 223.188326 
L 397.930914 223.452711 
M 398.096032 223.472933 
L 401.976304 224.361415 
M 402.141422 224.378897 
L 403.379807 224.64785 
M 403.544925 224.664762 
L 404.370514 224.842296 
M 404.535632 224.85851 
L 405.030986 224.968595 
M 405.196104 224.984464 
L 406.021694 225.153323 
M 406.186812 225.168941 
L 407.260078 225.376826 
M 407.425196 225.39174 
L 407.590314 225.43514 
M 407.755432 225.450064 
L 410.31476 225.897023 
M 410.479878 225.910963 
L 411.470586 226.083673 
M 411.635704 226.097243 
L 416.176447 226.797824 
M 416.341565 226.810188 
L 417.992745 227.057377 
M 418.157863 227.069292 
L 418.240422 227.092173 
M 418.405539 227.104036 
L 422.203252 227.633857 
M 422.36837 227.6452 
L 427.404467 228.312285 
M 427.569585 228.323786 
L 434.504539 229.206039 
M 434.669657 229.217065 
L 438.054575 229.645848 
M 438.219693 229.656963 
L 438.549929 229.707027 
M 438.715046 229.718152 
L 439.705754 229.849596 
M 439.870872 229.860748 
L 442.925554 230.246185 
M 443.090672 230.257405 
L 450.768656 231.214655 
M 450.933774 231.225014 
L 452.502395 231.43033 
M 452.667513 231.440703 
L 452.832631 231.412798 
L 452.997749 230.131523 
L 453.245426 228.117823 
L 453.575661 227.321714 
L 453.905897 227.052397 
L 454.401251 226.969856 
L 455.144282 227.084871 
L 455.226841 227.124671 
M 455.391959 227.147088 
L 456.300107 227.453923 
M 456.465225 227.48194 
L 462.904825 229.677499 
M 463.069943 229.703526 
L 463.565297 229.880952 
M 463.730415 229.906352 
L 464.225769 230.080224 
M 464.390887 230.1053 
L 465.464153 230.443296 
M 465.629271 230.467282 
L 466.702538 230.792939 
M 466.867656 230.816351 
L 467.280451 230.951783 
M 467.445569 230.974665 
L 471.32584 231.975516 
L 471.408399 231.932894 
L 471.490958 231.564881 
L 471.821194 228.659251 
L 472.233989 227.009988 
L 472.811902 218.843004 
M 472.97702 218.61166 
L 473.142138 218.218116 
L 473.307256 216.674016 
L 473.554933 210.337366 
L 473.802609 206.399663 
L 474.050286 203.871762 
L 474.54564 198.266656 
L 474.793317 197.926623 
L 474.875876 197.958983 
M 475.040994 198.014833 
L 475.536348 198.597459 
L 476.361938 199.89864 
L 476.527056 200.172158 
L 476.609614 200.111004 
L 476.774732 197.481821 
L 477.187527 190.109985 
L 477.352645 187.223534 
L 477.435204 181.269042 
M 477.600322 178.615955 
L 477.847999 176.345668 
L 478.095676 173.786466 
M 478.260794 173.603196 
L 478.425912 172.948804 
L 478.673589 171.341091 
L 478.838707 171.159879 
L 479.003825 171.262697 
L 479.334061 171.788248 
L 480.324768 174.08284 
L 480.572445 174.635658 
L 480.655004 174.521691 
L 480.820122 173.281042 
L 481.232917 167.397667 
L 481.398035 167.192946 
L 481.563153 167.177573 
L 481.728271 166.323312 
L 481.893389 163.88129 
L 481.975948 162.211377 
L 482.058507 157.440875 
M 482.223625 154.469896 
L 482.471301 149.316865 
L 482.718978 147.949729 
L 482.884096 147.429939 
L 483.131773 146.214171 
L 483.296891 146.19574 
L 483.544568 146.587884 
L 484.20504 148.316665 
L 484.535276 149.535092 
M 484.700394 149.791069 
L 487.012045 157.076378 
M 487.177163 157.332291 
L 489.241137 163.648603 
M 489.406255 163.893046 
L 491.635347 170.134577 
L 493.203968 174.532546 
M 493.369086 174.754441 
L 494.277234 177.295652 
M 494.442352 177.511347 
L 495.763296 180.991396 
M 495.928414 181.198564 
L 496.176091 181.990786 
M 496.341209 182.207619 
L 496.671445 183.174545 
M 496.836563 183.386123 
L 497.331916 184.726582 
M 497.497034 184.93438 
L 498.405183 186.966045 
L 498.487742 186.843207 
L 498.65286 185.696907 
L 499.065655 182.393972 
L 499.230773 181.614694 
L 499.808686 176.611178 
L 499.973803 176.508745 
L 500.22148 176.728509 
L 500.386598 177.136082 
M 500.551716 177.305256 
L 501.459865 179.296553 
L 503.44128 183.962401 
L 505.009901 187.710229 
M 505.175019 187.908484 
L 507.073875 192.181136 
M 507.238993 192.367711 
L 509.220408 196.537696 
M 509.385526 196.712235 
L 512.770444 202.952519 
L 516.32048 208.852875 
M 516.485598 208.988382 
L 518.879808 212.54738 
M 519.044926 212.66987 
L 522.512403 217.086269 
L 523.833346 218.694906 
M 523.998464 218.794918 
L 526.970587 221.896703 
L 529.612474 224.405691 
M 529.777592 224.483598 
L 530.933418 225.520213 
M 531.098536 225.593727 
L 532.667156 226.887822 
M 532.832274 226.955965 
L 536.134633 229.278533 
L 536.795105 229.753343 
M 536.960223 229.810255 
L 537.703254 230.317379 
M 537.868371 230.372105 
L 540.097464 231.703123 
M 540.262582 231.752578 
L 541.088171 232.236849 
M 541.253289 232.284305 
L 544.060294 233.713388 
M 544.225412 233.755476 
L 545.133561 234.204701 
M 545.298679 234.245051 
L 548.270802 235.530606 
M 548.43592 235.566502 
L 550.995248 236.565505 
M 551.160366 236.598169 
L 552.068515 236.947536 
M 552.233633 236.979083 
L 557.434848 238.655939 
L 558.508114 238.994216 
M 558.673232 239.020434 
L 560.324412 239.50979 
M 560.48953 239.534889 
L 562.223268 240.026108 
M 562.388386 240.050186 
L 563.544212 240.373134 
M 563.70933 240.396591 
L 565.525627 240.804387 
L 565.608186 240.393932 
L 565.938422 237.272032 
L 566.10354 235.782779 
L 566.186099 233.046959 
M 566.351217 231.315007 
L 566.598894 226.308171 
L 566.681453 222.423469 
M 566.846571 218.674984 
L 567.176806 206.371287 
L 567.424483 203.90518 
L 567.507042 203.297067 
L 567.589601 199.765901 
M 567.754719 197.621789 
L 568.167514 190.75845 
L 568.415191 189.023869 
L 568.49775 188.541195 
L 568.993104 182.352997 
L 569.240781 179.939481 
M 569.405899 179.769608 
L 569.571017 179.124979 
L 570.231488 174.403307 
L 570.479165 174.512688 
L 570.644283 173.685246 
L 570.89196 172.811274 
L 571.057078 172.870279 
L 571.222196 173.001384 
L 571.387314 172.219944 
L 571.882668 168.699616 
L 572.047786 168.130859 
L 572.625699 163.977232 
L 572.790816 164.026231 
L 573.121052 164.631608 
L 573.368729 165.464498 
M 573.533847 165.697912 
L 573.616406 166.158343 
M 573.781524 166.402352 
L 576.753647 175.52002 
M 576.918765 175.769357 
L 577.001324 176.247605 
M 577.166442 176.495673 
L 578.652503 180.992322 
M 578.817621 181.231257 
L 579.147857 182.118225 
L 579.230416 182.052256 
L 579.560652 180.890001 
L 579.72577 180.944392 
L 579.973447 181.301976 
L 580.056006 181.624004 
M 580.221124 181.80697 
L 580.881596 183.399847 
L 580.964155 183.817229 
M 581.129273 184.035965 
L 583.936278 191.496627 
M 584.101396 191.712821 
L 586.082811 196.568363 
L 587.899108 200.788149 
L 588.55958 202.213786 
L 588.642139 202.056116 
L 588.807257 200.467892 
L 589.054934 192.950816 
L 589.550288 166.55466 
L 589.797965 164.655796 
L 589.963083 164.591778 
L 590.21076 164.943176 
L 590.706113 166.162792 
L 590.788672 166.619986 
M 590.95379 166.863024 
L 591.614262 169.071143 
M 591.77938 169.327242 
L 594.916621 178.735992 
L 595.164298 179.548946 
M 595.329416 178.911346 
L 595.577093 175.62993 
L 595.742211 175.184824 
L 595.907329 175.210803 
L 596.237564 175.744382 
L 596.732918 176.934612 
L 596.815477 177.364016 
M 596.980595 177.59114 
L 598.714334 182.644347 
M 598.879452 182.8802 
L 600.200395 186.735929 
M 600.365513 186.96633 
L 602.512046 192.626987 
L 603.83299 196.148348 
M 603.998108 196.35739 
L 605.814405 200.893838 
M 605.979523 201.090669 
L 607.630703 205.000207 
M 607.79582 205.187404 
L 608.126056 206.079506 
M 608.291174 206.263788 
L 608.869087 207.666315 
M 609.034205 207.845502 
L 610.850502 211.547649 
L 611.428415 212.839216 
M 611.593533 213.004908 
L 613.49239 216.554349 
L 614.813333 218.863853 
L 614.895892 219.143934 
M 615.06101 219.290218 
L 616.794748 222.147877 
L 617.702897 223.560399 
L 617.785456 223.811525 
M 617.950574 223.94269 
L 619.684312 226.501733 
L 620.179666 227.300804 
M 620.344784 227.420412 
L 622.161082 229.848357 
L 623.647143 231.795114 
M 623.812261 231.899076 
L 625.545999 233.912712 
L 626.454148 234.993466 
M 626.619266 235.086272 
L 627.197179 235.779891 
M 627.527415 236.040706 
L 629.178594 237.763124 
M 629.343712 237.84607 
L 631.242568 239.600113 
L 632.233276 240.523465 
M 632.563512 240.736176 
L 633.636779 241.682712 
M 633.801897 241.751875 
L 635.040281 242.780136 
M 635.205399 242.846039 
L 636.77402 244.05695 
M 636.939137 244.118719 
L 639.16823 245.69171 
M 639.498466 245.855857 
L 641.810117 247.295563 
L 642.222912 247.589987 
M 642.38803 247.640963 
L 642.718265 247.880337 
M 642.883383 247.93075 
L 645.442712 249.360456 
L 647.754363 250.49484 
L 647.836922 250.055434 
L 648.167158 246.710902 
L 648.414835 245.972128 
L 648.74507 245.52978 
L 648.910188 243.631781 
L 649.735778 230.389145 
L 649.983455 229.86726 
L 650.148573 228.199199 
L 650.478809 222.52326 
L 650.561368 219.570522 
M 650.726486 218.056083 
L 651.056722 213.337185 
L 651.304399 211.868405 
L 651.469516 209.548446 
L 652.212547 193.308658 
L 652.625342 190.520013 
L 652.79046 190.510339 
L 653.038137 190.873887 
L 653.698609 192.502333 
L 654.359081 194.57141 
M 654.524198 194.454586 
L 654.771875 193.120913 
M 654.936993 193.11712 
L 655.18467 193.422034 
L 655.597465 194.346512 
L 656.423055 196.60785 
L 657.083527 198.520435 
L 657.166086 198.97992 
M 657.331203 199.221569 
L 657.743998 200.654111 
M 657.909116 200.895827 
L 660.79868 209.011751 
L 665.66966 221.476051 
M 665.834778 221.672092 
L 665.999896 222.24214 
M 666.165013 222.437071 
L 666.660367 223.748525 
M 666.825485 223.939134 
L 667.320839 225.222067 
M 667.485957 225.408675 
L 669.219695 229.274381 
M 669.384813 229.449124 
L 669.467372 229.623378 
L 669.549931 228.420522 
L 669.962726 204.856222 
L 670.210403 203.828158 
L 670.292962 203.788928 
L 670.375521 203.892104 
M 670.540639 204.003827 
L 671.035993 205.034151 
L 672.356936 208.564807 
L 672.439495 209.007146 
M 672.604613 209.238856 
L 673.182526 211.059534 
M 673.347644 211.29271 
L 675.824413 217.921616 
L 676.650003 220.247214 
M 676.815121 220.461338 
L 678.796536 225.496426 
M 678.961654 225.697282 
L 680.943069 230.208187 
L 681.438423 231.467734 
M 681.603541 231.650954 
L 682.016336 232.701942 
M 682.181454 232.881087 
L 682.594249 233.910454 
M 682.759367 234.086037 
L 684.658223 237.876961 
L 685.153577 238.957727 
M 685.318695 239.116366 
L 685.979167 240.482134 
M 686.144285 240.636463 
L 687.382669 242.960189 
M 687.547787 243.106357 
L 689.446643 246.228971 
L 691.3455 249.110296 
L 693.244356 251.766631 
L 693.822269 252.632756 
M 693.987387 252.743852 
L 695.968802 255.212355 
L 697.372305 256.824664 
L 697.454864 257.004314 
M 697.619982 257.098896 
L 698.197894 257.815647 
M 698.363012 257.907089 
L 700.509546 260.178765 
M 700.674664 260.261829 
L 701.004899 260.655492 
M 701.170017 260.736704 
L 701.74793 261.352037 
M 701.913048 261.430703 
L 702.243284 261.804373 
M 702.408402 261.881422 
L 702.738638 262.247636 
M 702.903756 262.323115 
L 705.215407 264.336097 
M 705.380525 264.404541 
L 705.710761 264.730101 
M 705.875879 264.797364 
L 706.453792 265.307309 
M 706.61891 265.372396 
L 706.949145 265.683442 
M 707.114263 265.747828 
L 707.444499 266.0529 
M 707.609617 266.116134 
L 710.086386 267.866365 
L 711.985243 269.163904 
M 712.150361 269.218422 
L 713.884099 270.3418 
M 714.049217 270.393418 
L 717.103899 272.168495 
L 719.828345 273.693734 
M 719.993463 273.737848 
L 720.571376 274.085124 
M 720.736494 274.12871 
L 721.231848 274.428884 
M 721.396966 274.472057 
L 722.305114 274.98014 
M 722.470232 275.022865 
L 727.093535 277.348249 
M 727.258652 277.388221 
L 728.744714 278.13877 
M 728.909832 278.178225 
L 733.780811 280.497416 
M 733.945929 280.536029 
L 741.046001 283.828417 
M 741.211119 283.866603 
L 742.201826 284.355578 
M 742.366944 284.393778 
L 745.999539 286.087702 
M 746.164657 286.126015 
L 746.494893 286.313935 
M 746.660011 286.352281 
L 757.310118 291.287233 
M 757.475236 291.326359 
L 760.282241 292.669865 
M 760.447359 292.709181 
L 765.235779 294.992357 
M 765.400897 295.03213 
L 769.941641 297.220708 
M 770.106759 297.26092 
L 770.354436 297.417217 
M 770.519554 297.457496 
L 776.298682 300.265316 
M 776.4638 300.306072 
L 780.591748 302.34321 
M 780.756866 302.384297 
L 785.710404 304.809635 
M 785.875522 304.850246 
L 790.994179 307.336812 
M 791.159297 307.377331 
L 793.553507 308.559393 
M 793.718625 308.599913 
L 795.782599 309.6255 
M 795.947717 309.666196 
L 798.259368 310.812167 
M 798.424486 310.852934 
L 804.53385 313.831445 
M 804.698968 313.872501 
L 805.111763 314.110418 
M 805.276881 314.151546 
L 805.689676 314.389653 
M 805.854794 314.430723 
L 806.845501 314.948564 
M 807.010619 314.989712 
L 807.423414 315.22834 
M 807.588532 315.269501 
L 810.808332 316.869454 
M 810.97345 316.910799 
L 812.211834 317.551307 
M 812.376952 317.592801 
L 814.110691 318.475382 
M 814.275809 318.516918 
L 816.009547 319.400666 
M 816.174665 319.442341 
L 817.082814 319.92436 
M 817.247932 319.966027 
L 817.330491 320.045412 
M 817.495609 320.087041 
L 822.531706 322.589527 
M 822.696824 322.631408 
L 830.457367 326.482262 
M 830.622485 326.524384 
L 837.062085 329.737328 
M 837.227203 329.779655 
L 837.309762 329.859725 
M 837.47488 329.902067 
L 843.419126 332.877414 
M 843.584244 332.919819 
L 844.987746 333.653071 
M 845.152864 333.695608 
L 847.712192 334.960093 
L 847.712192 334.960093 
" clip-path="url(#pc0f0cbda08)" style="fill: none; stroke: #000000; stroke-opacity: 0.6; stroke-width: 7; stroke-linecap: square"/>
   </g>
   <g id="line2d_12">
    <path d="M 424.175935 649 
L 424.184667 321.167412 
L 424.267226 321.174618 
L 427.404467 321.454917 
M 427.569585 321.462085 
L 434.504539 322.067846 
M 434.669657 322.074931 
L 438.054575 322.371664 
M 438.219693 322.378709 
L 438.549929 322.413918 
M 438.715046 322.420957 
L 439.705754 322.512378 
M 439.870872 322.519404 
L 442.925554 322.785686 
M 443.090672 322.792675 
L 450.768656 323.445472 
M 450.933774 323.452372 
L 452.502395 323.590186 
M 452.667513 323.597067 
L 455.226841 323.816771 
M 455.391959 323.823622 
L 456.300107 323.905756 
M 456.465225 323.912595 
L 462.904825 324.44995 
M 463.069943 324.456716 
L 463.565297 324.504048 
M 463.730415 324.510807 
L 464.225769 324.558089 
M 464.390887 324.56484 
L 465.464153 324.659258 
M 465.629271 324.665995 
L 466.702538 324.760223 
M 466.867656 324.766947 
L 467.280451 324.807271 
M 467.445569 324.813988 
L 472.811902 325.255352 
M 472.97702 325.262009 
L 474.875876 325.421515 
M 475.040994 325.42815 
L 477.435204 325.626785 
M 477.600322 325.633392 
L 478.095676 325.679619 
M 478.260794 325.686219 
L 482.058507 325.995434 
M 482.223625 326.001992 
L 484.535276 326.191786 
M 484.700394 326.198318 
L 487.012045 326.387349 
M 487.177163 326.393854 
L 489.241137 326.562683 
M 489.406255 326.569164 
L 493.203968 326.872821 
M 493.369086 326.879261 
L 494.277234 326.956473 
M 494.442352 326.962902 
L 495.763296 327.072058 
M 495.928414 327.078471 
L 496.176091 327.104116 
M 496.341209 327.110524 
L 496.671445 327.142556 
M 496.836563 327.14896 
L 497.331916 327.193762 
M 497.497034 327.200159 
L 500.386598 327.429874 
M 500.551716 327.436239 
L 505.009901 327.785007 
M 505.175019 327.791325 
L 507.073875 327.942688 
M 507.238993 327.948985 
L 509.220408 328.106116 
M 509.385526 328.11239 
L 516.32048 328.642635 
M 516.485598 328.648837 
L 518.879808 328.834516 
M 519.044926 328.840692 
L 523.833346 329.203636 
M 523.998464 329.209763 
L 529.612474 329.630532 
M 529.777592 329.636602 
L 530.933418 329.727546 
M 531.098536 329.733603 
L 532.667156 329.854561 
M 532.832274 329.8606 
L 536.795105 330.155538 
M 536.960223 330.161537 
L 537.703254 330.221482 
M 537.868371 330.227472 
L 540.097464 330.394868 
M 540.262582 330.400835 
L 541.088171 330.466417 
M 541.253289 330.472374 
L 544.060294 330.680372 
M 544.225412 330.6863 
L 545.133561 330.757379 
M 545.298679 330.763297 
L 548.270802 330.981709 
M 548.43592 330.987596 
L 550.995248 331.175594 
M 551.160366 331.181456 
L 552.068515 331.251737 
M 552.233633 331.257589 
L 558.508114 331.705815 
M 558.673232 331.711605 
L 560.324412 331.83303 
M 560.48953 331.838803 
L 562.223268 331.965626 
M 562.388386 331.971382 
L 563.544212 332.057626 
M 563.70933 332.063369 
L 566.186099 332.241032 
M 566.351217 332.246751 
L 566.681453 332.275333 
M 566.846571 332.281048 
L 567.589601 332.338147 
M 567.754719 332.343853 
L 569.240781 332.452116 
M 569.405899 332.457806 
L 573.368729 332.735701 
M 573.533847 332.741354 
L 573.616406 332.752656 
M 573.781524 332.758306 
L 576.753647 332.966824 
M 576.918765 332.972446 
L 577.001324 332.983686 
M 577.166442 332.989305 
L 578.652503 333.095922 
M 578.817621 333.101526 
L 580.056006 333.191086 
M 580.221124 333.196678 
L 580.964155 333.252548 
M 581.129273 333.25813 
L 583.936278 333.453059 
M 584.101396 333.458615 
L 590.788672 333.91167 
M 590.95379 333.917165 
L 591.614262 333.96658 
M 591.77938 333.972067 
L 595.164298 334.201854 
M 595.329416 334.20731 
L 596.815477 334.310822 
M 596.980595 334.316263 
L 598.714334 334.435773 
M 598.879452 334.441197 
L 600.200395 334.533292 
M 600.365513 334.538703 
L 601.686457 334.625177 
L 603.83299 352.561189 
M 603.998108 353.222395 
L 605.814405 368.369944 
M 605.979523 369.02592 
L 607.630703 382.751316 
M 607.79582 383.402524 
L 608.126056 386.655323 
M 608.291174 387.305235 
L 608.869087 392.496762 
M 609.034205 393.144733 
L 611.428415 411.572521 
M 611.593533 412.146771 
L 613.657507 425.677897 
L 614.895892 433.518417 
M 615.06101 433.987545 
L 616.959866 444.10817 
L 617.785456 448.500239 
M 617.950574 448.885298 
L 619.684312 456.42955 
L 620.179666 458.716336 
M 620.344784 459.033793 
L 621.995964 464.902332 
L 623.482025 469.409624 
L 623.647143 470.090294 
M 623.812261 470.31399 
L 625.958794 475.794264 
L 626.454148 477.160722 
M 626.619266 477.352208 
L 627.197179 478.850817 
M 627.527415 479.397617 
L 629.178594 482.996359 
M 629.343712 483.157836 
L 631.325127 486.770289 
L 632.233276 488.399334 
M 632.563512 488.787269 
L 633.636779 490.49647 
M 633.801897 490.61222 
L 635.040281 492.350573 
M 635.205399 492.45216 
L 636.77402 494.311671 
M 636.939137 494.396098 
L 638.590317 495.915943 
L 639.16823 496.434758 
M 639.498466 496.616314 
L 641.067086 497.603071 
L 642.222912 498.18539 
M 642.38803 498.218107 
L 642.718265 498.370323 
M 642.883383 498.398497 
L 644.369445 498.777226 
L 645.772947 498.913956 
L 647.17645 498.839387 
L 649.157865 498.465999 
L 650.561368 498.167303 
M 650.726486 498.15073 
L 654.359081 497.407245 
M 654.524198 497.390774 
L 654.771875 497.324913 
M 654.936993 497.308453 
L 657.166086 496.848474 
M 657.331203 496.832078 
L 657.743998 496.73375 
M 657.909116 496.717369 
L 665.66966 495.171223 
M 665.834778 495.155053 
L 665.999896 495.106554 
M 666.165013 495.090392 
L 666.660367 494.977321 
M 666.825485 494.961176 
L 667.320839 494.848226 
M 667.485957 494.832099 
L 669.219695 494.47785 
M 669.384813 494.461773 
L 670.375521 494.252964 
M 670.540639 494.236917 
L 672.439495 493.852432 
M 672.604613 493.836438 
L 673.182526 493.708569 
M 673.347644 493.692595 
L 676.650003 493.039506 
M 676.815121 493.023622 
L 678.796536 492.627212 
M 678.961654 492.611384 
L 681.438423 492.121747 
M 681.603541 492.105986 
L 682.016336 492.011466 
M 682.181454 491.99572 
L 682.594249 491.901288 
M 682.759367 491.885557 
L 685.153577 491.414603 
M 685.318695 491.398937 
L 685.979167 491.25804 
M 686.144285 491.242395 
L 687.382669 490.992365 
M 687.547787 490.976756 
L 693.822269 489.781133 
M 693.987387 489.765687 
L 697.454864 489.103453 
M 697.619982 489.088098 
L 698.197894 488.96533 
M 698.363012 488.949993 
L 700.509546 488.536679 
M 700.674664 488.5214 
L 701.004899 488.445035 
M 701.170017 488.429768 
L 701.74793 488.307707 
M 701.913048 488.292459 
L 702.243284 488.216247 
M 702.408402 488.201011 
L 702.738638 488.124861 
M 702.903756 488.109637 
L 705.215407 487.669035 
M 705.380525 487.653872 
L 705.710761 487.57809 
M 705.875879 487.56294 
L 706.453792 487.44181 
M 706.61891 487.426678 
L 706.949145 487.351048 
M 707.114263 487.335928 
L 707.444499 487.260359 
M 707.609617 487.245252 
L 711.985243 486.432443 
M 712.150361 486.417447 
L 713.884099 486.088034 
M 714.049217 486.073084 
L 719.828345 485.016738 
M 719.993463 485.001932 
L 720.571376 484.883554 
M 720.736494 484.868765 
L 721.231848 484.765302 
M 721.396966 484.75053 
L 722.305114 484.573415 
M 722.470232 484.558668 
L 727.093535 483.721373 
M 727.258652 483.70674 
L 728.744714 483.429101 
M 728.909832 483.414508 
L 733.780811 482.542508 
M 733.945929 482.528035 
L 741.046001 481.276224 
M 741.211119 481.261921 
L 742.201826 481.076147 
M 742.366944 481.06187 
L 745.999539 480.421393 
M 746.164657 480.407204 
L 746.494893 480.336288 
M 746.660011 480.322111 
L 757.310118 478.495167 
M 757.475236 478.481237 
L 760.282241 477.99486 
M 760.447359 477.980997 
L 765.235779 477.166375 
M 765.400897 477.152623 
L 769.941641 476.385476 
M 770.106759 476.371829 
L 770.354436 476.317261 
M 770.519554 476.303623 
L 776.298682 475.340028 
M 776.4638 475.326522 
L 780.591748 474.640105 
M 780.756866 474.626693 
L 785.710404 473.811948 
M 785.875522 473.798647 
L 790.994179 472.964281 
M 791.159297 472.951094 
L 793.553507 472.556306 
M 793.718625 472.543173 
L 795.782599 472.202354 
M 795.947717 472.189269 
L 798.259368 471.810577 
M 798.424486 471.797545 
L 804.53385 470.825115 
M 804.698968 470.812215 
L 805.111763 470.734854 
M 805.276881 470.721966 
L 805.689676 470.644677 
M 805.854794 470.631802 
L 806.845501 470.464579 
M 807.010619 470.451728 
L 807.423414 470.374657 
M 807.588532 470.361817 
L 810.808332 469.849664 
M 810.97345 469.836895 
L 812.211834 469.632831 
M 812.376952 469.620091 
L 814.110691 469.340256 
M 814.275809 469.327555 
L 816.009547 469.048583 
M 816.174665 469.035922 
L 817.082814 468.884123 
M 817.247932 468.871484 
L 817.330491 468.846211 
M 817.495609 468.833577 
L 822.531706 468.053588 
M 822.696824 468.041061 
L 830.457367 466.858609 
M 830.622485 466.846242 
L 837.062085 465.8745 
M 837.227203 465.862265 
L 837.309762 465.837801 
M 837.47488 465.825572 
L 843.419126 464.937233 
M 843.584244 464.925124 
L 844.987746 464.707447 
M 845.152864 464.695369 
L 847.712192 464.321762 
L 847.712192 464.321762 
" clip-path="url(#pc0f0cbda08)" style="fill: none; stroke-dasharray: 25.9,11.2; stroke-dashoffset: 0; stroke: #0000ff; stroke-opacity: 0.6; stroke-width: 7"/>
   </g>
   <g id="line2d_13">
    <path d="M 134.155 49.216972 
L 134.567795 49.479338 
M 134.732913 49.523045 
L 136.54921 50.526688 
M 136.714328 50.570255 
L 138.530625 51.570667 
M 138.695743 51.614093 
L 139.521333 52.091396 
M 139.686451 52.134752 
L 140.099246 52.394766 
M 140.264364 52.438082 
L 141.089954 52.914167 
M 141.255072 52.957413 
L 145.795815 55.369917 
M 145.960933 55.412833 
L 148.850497 56.953964 
M 149.015615 56.996667 
L 151.574943 58.360134 
M 151.740061 58.402648 
L 152.730769 58.95481 
M 152.895887 58.997244 
L 154.464507 59.844729 
M 154.629625 59.887043 
L 157.188953 61.23811 
M 157.354071 61.280238 
L 158.757574 62.037562 
M 158.922692 62.079582 
L 159.748281 62.541429 
M 159.913399 62.583381 
L 160.326194 62.834976 
M 160.491312 62.876889 
L 163.298317 64.340294 
M 163.463435 64.382004 
L 163.87623 64.63215 
M 164.041348 64.673821 
L 168.912327 67.163883 
M 169.077445 67.205214 
L 169.49024 67.453085 
M 169.655358 67.494377 
L 171.554214 68.483731 
M 171.719332 68.524885 
L 172.297245 68.853917 
M 172.462363 68.895021 
L 173.948424 69.674951 
M 174.113542 69.715945 
L 176.094958 70.739003 
M 176.260076 70.779854 
L 177.49846 71.432723 
M 177.663578 71.47348 
L 178.901963 72.124859 
M 179.067081 72.165524 
L 187.900891 76.525309 
M 188.066009 76.565383 
L 189.634629 77.365723 
M 189.799747 77.405684 
L 193.349783 79.158646 
M 193.514901 79.198366 
L 195.909111 80.38748 
M 196.074229 80.427034 
L 197.973085 81.374753 
M 198.138203 81.414175 
L 204.577803 84.511836 
M 204.742921 84.550836 
L 204.990598 84.706786 
M 205.155716 84.745761 
L 208.292957 86.261683 
M 208.458075 86.300449 
L 209.531341 86.842619 
M 209.696459 86.881306 
L 211.26508 87.653964 
M 211.430197 87.692542 
L 211.925551 87.962446 
M 212.090669 88.000983 
L 213.246495 88.578416 
M 213.411613 88.616871 
L 214.897674 89.34652 
M 215.062792 89.384871 
L 217.044208 90.341974 
M 217.209326 90.380191 
L 217.539561 90.5712 
M 217.704679 90.609387 
L 218.034915 90.800242 
M 218.200033 90.838398 
L 218.777946 91.143459 
M 218.943064 91.181569 
L 219.025623 91.257773 
M 219.190741 91.295867 
L 219.2733 91.37204 
M 219.438418 91.410119 
L 219.520977 91.486261 
M 219.686095 91.524325 
L 219.768654 91.600437 
M 219.933772 91.638485 
L 221.584951 92.436318 
M 221.750069 92.474254 
L 226.125694 94.515242 
M 226.290812 94.552899 
L 227.529197 95.154717 
M 227.694315 95.192288 
L 234.051356 98.107305 
M 234.216474 98.144479 
L 234.381592 98.255971 
M 234.54671 98.293125 
L 236.94092 99.405429 
M 237.106038 99.442428 
L 238.261863 99.996827 
M 238.426981 100.033747 
L 240.490956 100.991932 
M 240.656073 101.028719 
L 240.821191 101.139049 
M 240.986309 101.175815 
L 241.481663 101.433044 
M 241.646781 101.469771 
L 243.710755 102.422949 
M 243.875873 102.459544 
L 245.114258 103.044383 
M 245.279376 103.080894 
L 248.251499 104.428349 
M 248.416617 104.464674 
L 248.664294 104.609924 
M 248.829412 104.646224 
L 249.985237 105.190146 
M 250.150355 105.226368 
L 251.718976 105.949797 
M 251.884094 105.985917 
L 252.214329 106.166446 
M 252.379447 106.202538 
L 256.589955 108.072619 
M 256.755073 108.108454 
L 257.085309 108.287558 
M 257.250427 108.323365 
L 259.231842 109.216961 
M 259.39696 109.252643 
L 259.809755 109.466631 
M 259.974873 109.502279 
L 265.423765 111.879813 
M 265.588883 111.915137 
L 267.40518 112.726274 
M 267.570298 112.761484 
L 268.313329 113.113324 
M 268.478447 113.148482 
L 269.05636 113.429576 
M 269.221478 113.464691 
L 270.872657 114.201029 
M 271.037775 114.236041 
L 271.615688 114.515966 
M 271.780806 114.550936 
L 272.771513 115.005113 
M 272.936631 115.040017 
L 273.266867 115.214466 
M 273.431985 115.249341 
L 275.000606 115.945873 
M 275.330842 116.050191 
L 275.49596 116.154468 
M 275.661077 116.189217 
L 278.055288 117.229532 
M 278.220406 117.264137 
L 278.963436 117.609932 
M 279.293672 117.713579 
L 280.449498 118.231192 
M 280.614616 118.265663 
L 284.494887 119.914809 
M 284.660005 119.949053 
L 284.907682 120.085984 
M 285.0728 120.120205 
L 286.806539 120.871911 
M 286.971657 120.906027 
L 288.622836 121.621398 
M 288.787954 121.655413 
L 290.274015 122.30083 
M 290.439133 122.334753 
L 292.33799 123.147556 
M 292.503108 123.181366 
L 293.576374 123.654228 
M 293.741492 123.68797 
L 293.90661 123.789169 
M 294.071728 123.822892 
L 297.786882 125.369296 
M 297.952 125.402808 
L 298.447354 125.637262 
M 298.612472 125.670738 
L 298.77759 125.771137 
M 298.942707 125.804594 
L 299.438061 126.038671 
M 299.603179 126.072092 
L 304.309041 128.002878 
M 304.474159 128.036035 
L 307.528841 129.29273 
M 307.693958 129.325714 
L 308.519548 129.68825 
M 308.684666 129.721181 
L 315.702179 132.536777 
M 315.867297 132.569326 
L 316.36265 132.797043 
M 316.527768 132.829556 
L 319.004538 133.835313 
M 319.169656 133.867687 
L 319.665009 134.094184 
M 319.830127 134.126523 
L 320.40804 134.385081 
M 320.573158 134.417381 
L 322.719691 135.287848 
M 322.884809 135.320027 
L 324.370871 135.930606 
M 324.535989 135.962698 
L 326.187168 136.635647 
M 326.352286 136.667645 
L 330.480235 138.293848 
M 330.645353 138.325623 
L 331.718619 138.770026 
M 331.883737 138.801737 
L 333.122122 139.308535 
M 333.28724 139.340174 
L 338.488455 141.356238 
M 338.653573 141.387601 
L 341.130342 142.357787 
M 341.29546 142.389016 
L 353.679306 147.056783 
M 353.844424 147.087381 
L 355.74328 147.820496 
M 355.908398 147.850991 
L 357.559577 148.490444 
M 357.724695 148.52085 
L 360.201464 149.461387 
M 360.366582 149.491662 
L 362.347998 150.24721 
M 362.513116 150.277379 
L 363.916618 150.819731 
M 364.081736 150.849824 
L 364.824767 151.150524 
M 364.989885 151.180572 
L 367.631772 152.169888 
M 367.79689 152.199799 
L 371.099249 153.42269 
M 371.264367 153.452433 
L 373.576018 154.313231 
M 373.741136 154.342854 
L 375.474874 154.993552 
M 375.639992 155.023083 
L 376.383023 155.31818 
M 376.548141 155.347668 
L 380.841207 156.904871 
M 381.006325 156.934145 
L 384.556361 158.218347 
M 384.721479 158.247446 
L 385.134274 158.421953 
M 385.299392 158.451024 
L 386.207541 158.79957 
M 386.372658 158.828591 
L 387.776161 159.350288 
M 387.941279 159.379234 
L 389.757576 160.043924 
M 389.922694 160.072777 
L 390.25293 160.216984 
M 390.418048 160.245814 
L 391.656433 160.706563 
M 391.821551 160.735327 
L 392.977376 161.166324 
M 393.142494 161.195026 
L 396.775089 162.482642 
M 396.940207 162.511167 
L 397.930914 162.881649 
M 398.096032 162.91012 
L 401.976304 164.272276 
M 402.141422 164.300561 
L 403.379807 164.752604 
M 403.544925 164.780824 
L 404.370514 165.090998 
M 404.535632 165.119173 
L 405.030986 165.316292 
M 405.196104 165.344437 
L 406.021694 165.653779 
M 406.186812 165.681878 
L 407.260078 166.074872 
M 407.425196 166.102915 
L 407.590314 166.187021 
M 407.755432 166.215049 
L 410.31476 167.109949 
M 410.479878 167.137853 
L 411.470586 167.50026 
M 411.635704 167.528112 
L 416.176447 169.081825 
M 416.341565 169.109464 
L 417.992745 169.689022 
M 418.157863 169.716579 
L 418.240422 169.771682 
M 418.405539 169.799228 
L 422.203252 171.089729 
M 422.36837 171.117098 
L 427.404467 172.806816 
M 427.569585 172.833955 
L 434.504539 175.127438 
M 434.669657 175.154264 
L 438.054575 176.277732 
M 438.219693 176.304404 
L 438.549929 176.43771 
M 438.715046 176.464361 
L 439.705754 176.810492 
M 439.870872 176.837093 
L 442.925554 177.845266 
M 443.090672 177.871728 
L 450.768656 180.343296 
M 450.933774 180.369422 
L 452.502395 180.891202 
M 452.667513 180.917254 
L 455.226841 181.74908 
M 455.391959 181.775017 
L 456.300107 182.085989 
M 456.465225 182.111881 
L 462.904825 184.146372 
M 463.069943 184.171987 
L 463.565297 184.351195 
M 463.730415 184.376782 
L 464.225769 184.555798 
M 464.390887 184.581358 
L 465.464153 184.938836 
M 465.629271 184.964344 
L 466.702538 185.321103 
M 466.867656 185.34656 
L 467.280451 185.49923 
M 467.445569 185.524664 
L 472.811902 187.195719 
M 472.97702 187.220924 
L 474.875876 187.824834 
M 475.040994 187.849955 
L 477.435204 188.602009 
M 477.600322 188.627026 
L 478.095676 188.802046 
M 478.260794 188.827035 
L 482.058507 189.997759 
M 482.223625 190.022587 
L 484.535276 190.741173 
M 484.700394 190.765902 
L 487.012045 191.481597 
M 487.177163 191.506226 
L 489.241137 192.145431 
M 489.406255 192.169972 
L 493.203968 193.319652 
M 493.369086 193.344034 
L 494.277234 193.636369 
M 494.442352 193.660709 
L 495.763296 194.073988 
M 495.928414 194.098269 
L 496.176091 194.195361 
M 496.341209 194.219626 
L 496.671445 194.340901 
M 496.836563 194.365147 
L 497.331916 194.534773 
M 497.497034 194.558992 
L 500.386598 195.428721 
M 500.551716 195.45282 
L 505.009901 196.773299 
M 505.175019 196.797218 
L 507.073875 197.370299 
M 507.238993 197.394137 
L 509.220408 197.989055 
M 509.385526 198.01281 
L 516.32048 200.020379 
M 516.485598 200.043861 
L 518.879808 200.746864 
M 519.044926 200.770249 
L 523.833346 202.144398 
M 523.998464 202.167595 
L 529.612474 203.760679 
M 529.777592 203.783658 
L 530.933418 204.127985 
M 531.098536 204.150915 
L 532.667156 204.608877 
M 532.832274 204.631743 
L 536.795105 205.748413 
M 536.960223 205.771126 
L 537.703254 205.998085 
M 537.868371 206.020764 
L 540.097464 206.654546 
M 540.262582 206.677137 
L 541.088171 206.925437 
M 541.253289 206.947992 
L 544.060294 207.735497 
M 544.225412 207.757942 
L 545.133561 208.027056 
M 545.298679 208.049463 
L 548.270802 208.876394 
M 548.43592 208.898687 
L 550.995248 209.610467 
M 551.160366 209.632661 
L 552.068515 209.898755 
M 552.233633 209.92091 
L 558.508114 211.617947 
M 558.673232 211.639871 
L 560.324412 212.099599 
M 560.48953 212.121459 
L 562.223268 212.601624 
M 562.388386 212.623416 
L 563.544212 212.949945 
M 563.70933 212.971691 
L 566.186099 213.644345 
M 566.351217 213.665997 
L 566.681453 213.774213 
M 566.846571 213.795848 
L 567.589601 214.012033 
M 567.754719 214.033635 
L 569.240781 214.443532 
M 569.405899 214.465077 
L 573.368729 215.517222 
M 573.533847 215.538622 
L 573.616406 215.581414 
M 573.781524 215.602806 
L 576.753647 216.392281 
M 576.918765 216.413564 
L 577.001324 216.456121 
M 577.166442 216.477395 
L 578.652503 216.881062 
M 578.817621 216.902279 
L 579.147857 216.987118 
L 579.312975 118.57611 
L 579.478093 118.460498 
L 580.056006 118.735007 
M 580.221124 118.769409 
L 580.964155 119.113183 
M 581.129273 119.147535 
L 583.936278 120.34695 
M 584.101396 120.381136 
L 590.788672 123.168831 
M 590.95379 123.202638 
L 591.614262 123.506697 
M 591.77938 123.540459 
L 595.164298 124.954361 
M 595.329416 124.987929 
L 596.815477 125.624849 
M 596.980595 125.658326 
L 598.714334 126.393686 
M 598.879452 126.42706 
L 600.200395 126.99373 
M 600.365513 127.027023 
L 603.83299 128.454407 
M 603.998108 128.487504 
L 605.814405 129.247509 
M 605.979523 129.280499 
L 607.630703 129.972275 
M 607.79582 130.005168 
L 608.126056 130.169567 
M 608.291174 130.202434 
L 608.869087 130.465207 
M 609.034205 130.498034 
L 611.428415 131.480791 
M 611.593533 131.513481 
L 614.895892 132.850013 
M 615.06101 132.882519 
L 617.785456 133.985143 
M 617.950574 134.017497 
L 620.179666 134.921645 
M 620.344784 134.953873 
L 623.647143 136.271504 
M 623.812261 136.303551 
L 626.454148 137.358683 
M 626.619266 137.390583 
L 627.197179 137.645635 
M 627.527415 137.741208 
L 629.178594 138.409146 
M 629.343712 138.440906 
L 632.233276 139.581413 
M 632.563512 139.676207 
L 633.636779 140.118072 
M 633.801897 140.149602 
L 635.040281 140.653506 
M 635.205399 140.684964 
L 636.77402 141.313239 
M 636.939137 141.344608 
L 639.16823 142.221243 
M 639.498466 142.314973 
L 642.222912 143.374606 
M 642.38803 143.405699 
L 642.718265 143.561099 
M 642.883383 143.592166 
L 650.561368 146.493946 
M 650.726486 146.524619 
L 654.359081 147.900666 
M 654.524198 147.93115 
L 654.771875 148.053047 
M 654.936993 148.083511 
L 657.166086 148.934842 
M 657.331203 148.965187 
L 657.743998 149.147175 
M 657.909116 149.177491 
L 665.66966 152.039107 
M 665.834778 152.069036 
L 665.999896 152.158797 
M 666.165013 152.188709 
L 666.660367 152.397983 
M 666.825485 152.427863 
L 667.320839 152.636912 
M 667.485957 152.666761 
L 669.219695 153.322406 
M 669.384813 153.352162 
L 670.375521 153.738626 
M 670.540639 153.768326 
L 672.439495 154.479933 
M 672.604613 154.509534 
L 673.182526 154.746195 
M 673.347644 154.775759 
L 676.650003 155.9845 
M 676.815121 156.013898 
L 678.796536 156.747576 
M 678.961654 156.776871 
L 681.438423 157.683093 
M 681.603541 157.712264 
L 682.016336 157.887202 
M 682.181454 157.916345 
L 682.594249 158.091119 
M 682.759367 158.120235 
L 685.153577 158.991879 
M 685.318695 159.020873 
L 685.979167 159.281647 
M 686.144285 159.310603 
L 687.382669 159.773361 
M 687.547787 159.80225 
L 693.822269 162.015114 
M 693.987387 162.043703 
L 697.454864 163.269368 
M 697.619982 163.297788 
L 698.197894 163.525008 
M 698.363012 163.553393 
L 700.509546 164.318357 
M 700.674664 164.346636 
L 701.004899 164.487972 
M 701.170017 164.516228 
L 701.74793 164.742139 
M 701.913048 164.770361 
L 702.243284 164.911413 
M 702.408402 164.939612 
L 702.738638 165.080551 
M 702.903756 165.108727 
L 705.215407 165.924197 
M 705.380525 165.95226 
L 705.710761 166.092518 
M 705.875879 166.120559 
L 706.453792 166.344746 
M 706.61891 166.372753 
L 706.949145 166.512729 
M 707.114263 166.540713 
L 707.444499 166.680576 
M 707.609617 166.708537 
L 711.985243 168.212887 
M 712.150361 168.240643 
L 713.884099 168.850322 
M 714.049217 168.877991 
L 719.828345 170.833082 
M 719.993463 170.860485 
L 720.571376 171.079581 
M 720.736494 171.106951 
L 721.231848 171.298441 
M 721.396966 171.325782 
L 722.305114 171.653587 
M 722.470232 171.680881 
L 727.093535 173.230551 
M 727.258652 173.257633 
L 728.744714 173.771489 
M 728.909832 173.798498 
L 733.780811 175.412399 
M 733.945929 175.439188 
L 741.046001 177.756045 
M 741.211119 177.782518 
L 742.201826 178.126349 
M 742.366944 178.152773 
L 745.999539 179.338171 
M 746.164657 179.364432 
L 746.494893 179.495684 
M 746.660011 179.521923 
L 757.310118 182.903241 
M 757.475236 182.929023 
L 760.282241 183.829211 
M 760.447359 183.854869 
L 765.235779 185.362576 
M 765.400897 185.388028 
L 769.941641 186.807868 
M 770.106759 186.833126 
L 770.354436 186.934121 
M 770.519554 186.959362 
L 776.298682 188.742788 
M 776.4638 188.767785 
L 780.591748 190.038209 
M 780.756866 190.063032 
L 785.710404 191.570967 
M 785.875522 191.595584 
L 790.994179 193.139833 
M 791.159297 193.16424 
L 793.553507 193.894917 
M 793.718625 193.919222 
L 795.782599 194.550012 
M 795.947717 194.57423 
L 798.259368 195.275115 
M 798.424486 195.299235 
L 804.53385 197.099014 
M 804.698968 197.122888 
L 805.111763 197.26607 
M 805.276881 197.289922 
L 805.689676 197.432968 
M 805.854794 197.456798 
L 806.845501 197.766296 
M 807.010619 197.790081 
L 807.423414 197.932724 
M 807.588532 197.956487 
L 810.808332 198.904383 
M 810.97345 198.928016 
L 812.211834 199.305699 
M 812.376952 199.329278 
L 814.110691 199.847199 
M 814.275809 199.870705 
L 816.009547 200.387028 
M 816.174665 200.410461 
L 817.082814 200.691412 
M 817.247932 200.714804 
L 817.330491 200.761579 
M 817.495609 200.784962 
L 822.531706 202.22857 
M 822.696824 202.251756 
L 830.457367 204.440244 
M 830.622485 204.463132 
L 837.062085 206.261638 
M 837.227203 206.284282 
L 837.309762 206.32956 
M 837.47488 206.352195 
L 843.419126 207.996337 
M 843.584244 208.018748 
L 844.987746 208.421626 
M 845.152864 208.44398 
L 847.712192 209.135454 
L 847.712192 209.135454 
" clip-path="url(#pc0f0cbda08)" style="fill: none; stroke-dasharray: 7,11.55; stroke-dashoffset: 0; stroke: #008000; stroke-opacity: 0.6; stroke-width: 7"/>
   </g>
   <g id="line2d_14">
    <path d="M 0 0 
" clip-path="url(#pc0f0cbda08)" style="fill: none; stroke-dasharray: 44.8,11.2,7,11.2; stroke-dashoffset: 0; stroke: #ff0000; stroke-opacity: 0.6; stroke-width: 7"/>
   </g>
   <g id="patch_3">
    <path d="M 134.155 612.92 
L 134.155 17.64 
" style="fill: none; stroke: #000000; stroke-width: 0.8; stroke-linejoin: miter; stroke-linecap: square"/>
   </g>
   <g id="patch_4">
    <path d="M 847.629633 612.92 
L 847.629633 17.64 
" style="fill: none; stroke: #000000; stroke-width: 0.8; stroke-linejoin: miter; stroke-linecap: square"/>
   </g>
   <g id="patch_5">
    <path d="M 134.155 612.92 
L 847.629633 612.92 
" style="fill: none; stroke: #000000; stroke-width: 0.8; stroke-linejoin: miter; stroke-linecap: square"/>
   </g>
   <g id="patch_6">
    <path d="M 134.155 17.64 
L 847.629633 17.64 
" style="fill: none; stroke: #000000; stroke-width: 0.8; stroke-linejoin: miter; stroke-linecap: square"/>
   </g>
   <g id="text_12">
    <!-- 4 RMSE: 40.72 m -->
    <g transform="translate(276.849927 493.864) scale(0.1728 -0.1728)">
     <defs>
      <path id="DejaVuSans-52" d="M 2841 2188 
Q 3044 2119 3236 1894 
Q 3428 1669 3622 1275 
L 4263 0 
L 3584 0 
L 2988 1197 
Q 2756 1666 2539 1819 
Q 2322 1972 1947 1972 
L 1259 1972 
L 1259 0 
L 628 0 
L 628 4666 
L 2053 4666 
Q 2853 4666 3247 4331 
Q 3641 3997 3641 3322 
Q 3641 2881 3436 2590 
Q 3231 2300 2841 2188 
z
M 1259 4147 
L 1259 2491 
L 2053 2491 
Q 2509 2491 2742 2702 
Q 2975 2913 2975 3322 
Q 2975 3731 2742 3939 
Q 2509 4147 2053 4147 
L 1259 4147 
z
" transform="scale(0.015625)"/>
      <path id="DejaVuSans-4d" d="M 628 4666 
L 1569 4666 
L 2759 1491 
L 3956 4666 
L 4897 4666 
L 4897 0 
L 4281 0 
L 4281 4097 
L 3078 897 
L 2444 897 
L 1241 4097 
L 1241 0 
L 628 0 
L 628 4666 
z
" transform="scale(0.015625)"/>
      <path id="DejaVuSans-53" d="M 3425 4513 
L 3425 3897 
Q 3066 4069 2747 4153 
Q 2428 4238 2131 4238 
Q 1616 4238 1336 4038 
Q 1056 3838 1056 3469 
Q 1056 3159 1242 3001 
Q 1428 2844 1947 2747 
L 2328 2669 
Q 3034 2534 3370 2195 
Q 3706 1856 3706 1288 
Q 3706 609 3251 259 
Q 2797 -91 1919 -91 
Q 1588 -91 1214 -16 
Q 841 59 441 206 
L 441 856 
Q 825 641 1194 531 
Q 1563 422 1919 422 
Q 2459 422 2753 634 
Q 3047 847 3047 1241 
Q 3047 1584 2836 1778 
Q 2625 1972 2144 2069 
L 1759 2144 
Q 1053 2284 737 2584 
Q 422 2884 422 3419 
Q 422 4038 858 4394 
Q 1294 4750 2059 4750 
Q 2388 4750 2728 4690 
Q 3069 4631 3425 4513 
z
" transform="scale(0.015625)"/>
      <path id="DejaVuSans-45" d="M 628 4666 
L 3578 4666 
L 3578 4134 
L 1259 4134 
L 1259 2753 
L 3481 2753 
L 3481 2222 
L 1259 2222 
L 1259 531 
L 3634 531 
L 3634 0 
L 628 0 
L 628 4666 
z
" transform="scale(0.015625)"/>
      <path id="DejaVuSans-3a" d="M 750 794 
L 1409 794 
L 1409 0 
L 750 0 
L 750 794 
z
M 750 3309 
L 1409 3309 
L 1409 2516 
L 750 2516 
L 750 3309 
z
" transform="scale(0.015625)"/>
     </defs>
     <use xlink:href="#DejaVuSans-34"/>
     <use xlink:href="#DejaVuSans-20" x="63.623047"/>
     <use xlink:href="#DejaVuSans-52" x="95.410156"/>
     <use xlink:href="#DejaVuSans-4d" x="164.892578"/>
     <use xlink:href="#DejaVuSans-53" x="251.171875"/>
     <use xlink:href="#DejaVuSans-45" x="314.648438"/>
     <use xlink:href="#DejaVuSans-3a" x="377.832031"/>
     <use xlink:href="#DejaVuSans-20" x="411.523438"/>
     <use xlink:href="#DejaVuSans-34" x="443.310547"/>
     <use xlink:href="#DejaVuSans-30" x="506.933594"/>
     <use xlink:href="#DejaVuSans-2e" x="570.556641"/>
     <use xlink:href="#DejaVuSans-37" x="602.34375"/>
     <use xlink:href="#DejaVuSans-32" x="665.966797"/>
     <use xlink:href="#DejaVuSans-20" x="729.589844"/>
     <use xlink:href="#DejaVuSans-6d" x="761.376953"/>
    </g>
   </g>
   <g id="text_13">
    <!-- 6 RMSE: 646.56 m -->
    <g transform="translate(276.849927 523.628) scale(0.1728 -0.1728)">
     <defs>
      <path id="DejaVuSans-36" d="M 2113 2584 
Q 1688 2584 1439 2293 
Q 1191 2003 1191 1497 
Q 1191 994 1439 701 
Q 1688 409 2113 409 
Q 2538 409 2786 701 
Q 3034 994 3034 1497 
Q 3034 2003 2786 2293 
Q 2538 2584 2113 2584 
z
M 3366 4563 
L 3366 3988 
Q 3128 4100 2886 4159 
Q 2644 4219 2406 4219 
Q 1781 4219 1451 3797 
Q 1122 3375 1075 2522 
Q 1259 2794 1537 2939 
Q 1816 3084 2150 3084 
Q 2853 3084 3261 2657 
Q 3669 2231 3669 1497 
Q 3669 778 3244 343 
Q 2819 -91 2113 -91 
Q 1303 -91 875 529 
Q 447 1150 447 2328 
Q 447 3434 972 4092 
Q 1497 4750 2381 4750 
Q 2619 4750 2861 4703 
Q 3103 4656 3366 4563 
z
" transform="scale(0.015625)"/>
     </defs>
     <use xlink:href="#DejaVuSans-36"/>
     <use xlink:href="#DejaVuSans-20" x="63.623047"/>
     <use xlink:href="#DejaVuSans-52" x="95.410156"/>
     <use xlink:href="#DejaVuSans-4d" x="164.892578"/>
     <use xlink:href="#DejaVuSans-53" x="251.171875"/>
     <use xlink:href="#DejaVuSans-45" x="314.648438"/>
     <use xlink:href="#DejaVuSans-3a" x="377.832031"/>
     <use xlink:href="#DejaVuSans-20" x="411.523438"/>
     <use xlink:href="#DejaVuSans-36" x="443.310547"/>
     <use xlink:href="#DejaVuSans-34" x="506.933594"/>
     <use xlink:href="#DejaVuSans-36" x="570.556641"/>
     <use xlink:href="#DejaVuSans-2e" x="634.179688"/>
     <use xlink:href="#DejaVuSans-35" x="665.966797"/>
     <use xlink:href="#DejaVuSans-36" x="729.589844"/>
     <use xlink:href="#DejaVuSans-20" x="793.212891"/>
     <use xlink:href="#DejaVuSans-6d" x="825"/>
    </g>
   </g>
   <g id="text_14">
    <!-- 7 RMSE: 17.02 m -->
    <g transform="translate(276.849927 553.392) scale(0.1728 -0.1728)">
     <use xlink:href="#DejaVuSans-37"/>
     <use xlink:href="#DejaVuSans-20" x="63.623047"/>
     <use xlink:href="#DejaVuSans-52" x="95.410156"/>
     <use xlink:href="#DejaVuSans-4d" x="164.892578"/>
     <use xlink:href="#DejaVuSans-53" x="251.171875"/>
     <use xlink:href="#DejaVuSans-45" x="314.648438"/>
     <use xlink:href="#DejaVuSans-3a" x="377.832031"/>
     <use xlink:href="#DejaVuSans-20" x="411.523438"/>
     <use xlink:href="#DejaVuSans-31" x="443.310547"/>
     <use xlink:href="#DejaVuSans-37" x="506.933594"/>
     <use xlink:href="#DejaVuSans-2e" x="570.556641"/>
     <use xlink:href="#DejaVuSans-30" x="602.34375"/>
     <use xlink:href="#DejaVuSans-32" x="665.966797"/>
     <use xlink:href="#DejaVuSans-20" x="729.589844"/>
     <use xlink:href="#DejaVuSans-6d" x="761.376953"/>
    </g>
   </g>
   <g id="text_15">
    <!-- 7 -->
    <g transform="translate(498.027063 464.1) scale(0.1728 -0.1728)">
     <use xlink:href="#DejaVuSans-37"/>
    </g>
   </g>
   <g id="text_16">
    <!-- 8 -->
    <g transform="translate(562.23978 464.1) scale(0.1728 -0.1728)">
     <use xlink:href="#DejaVuSans-38"/>
    </g>
   </g>
   <g id="text_17">
    <!-- 6 -->
    <g transform="translate(526.566048 523.628) scale(0.1728 -0.1728)">
     <use xlink:href="#DejaVuSans-36"/>
    </g>
   </g>
   <g id="text_18">
    <!-- 4 -->
    <g transform="translate(526.566048 583.156) scale(0.1728 -0.1728)">
     <use xlink:href="#DejaVuSans-34"/>
    </g>
   </g>
   <g id="legend_1">
    <g id="patch_7">
     <path d="M 146.251 132.9192 
L 244.1017 132.9192 
Q 247.5577 132.9192 247.5577 129.4632 
L 247.5577 29.736 
Q 247.5577 26.28 244.1017 26.28 
L 146.251 26.28 
Q 142.795 26.28 142.795 29.736 
L 142.795 129.4632 
Q 142.795 132.9192 146.251 132.9192 
z
" style="fill: #ffffff; opacity: 0.8; stroke: #cccccc; stroke-linejoin: miter"/>
    </g>
    <g id="line2d_15">
     <path d="M 149.707 40.2741 
L 166.987 40.2741 
L 184.267 40.2741 
" style="fill: none; stroke: #000000; stroke-opacity: 0.6; stroke-width: 7; stroke-linecap: square"/>
    </g>
    <g id="text_19">
     <!-- truth -->
     <g transform="translate(198.091 46.3221) scale(0.1728 -0.1728)">
      <defs>
       <path id="DejaVuSans-72" d="M 2631 2963 
Q 2534 3019 2420 3045 
Q 2306 3072 2169 3072 
Q 1681 3072 1420 2755 
Q 1159 2438 1159 1844 
L 1159 0 
L 581 0 
L 581 3500 
L 1159 3500 
L 1159 2956 
Q 1341 3275 1631 3429 
Q 1922 3584 2338 3584 
Q 2397 3584 2469 3576 
Q 2541 3569 2628 3553 
L 2631 2963 
z
" transform="scale(0.015625)"/>
       <path id="DejaVuSans-75" d="M 544 1381 
L 544 3500 
L 1119 3500 
L 1119 1403 
Q 1119 906 1312 657 
Q 1506 409 1894 409 
Q 2359 409 2629 706 
Q 2900 1003 2900 1516 
L 2900 3500 
L 3475 3500 
L 3475 0 
L 2900 0 
L 2900 538 
Q 2691 219 2414 64 
Q 2138 -91 1772 -91 
Q 1169 -91 856 284 
Q 544 659 544 1381 
z
M 1991 3584 
L 1991 3584 
z
" transform="scale(0.015625)"/>
      </defs>
      <use xlink:href="#DejaVuSans-74"/>
      <use xlink:href="#DejaVuSans-72" x="39.208984"/>
      <use xlink:href="#DejaVuSans-75" x="80.322266"/>
      <use xlink:href="#DejaVuSans-74" x="143.701172"/>
      <use xlink:href="#DejaVuSans-68" x="182.910156"/>
     </g>
    </g>
    <g id="line2d_16">
     <path d="M 149.707 65.6379 
L 166.987 65.6379 
L 184.267 65.6379 
" style="fill: none; stroke-dasharray: 25.9,11.2; stroke-dashoffset: 0; stroke: #0000ff; stroke-opacity: 0.6; stroke-width: 7"/>
    </g>
    <g id="text_20">
     <!-- 4 -->
     <g transform="translate(198.091 71.6859) scale(0.1728 -0.1728)">
      <use xlink:href="#DejaVuSans-34"/>
     </g>
    </g>
    <g id="line2d_17">
     <path d="M 149.707 91.0017 
L 166.987 91.0017 
L 184.267 91.0017 
" style="fill: none; stroke-dasharray: 7,11.55; stroke-dashoffset: 0; stroke: #008000; stroke-opacity: 0.6; stroke-width: 7"/>
    </g>
    <g id="text_21">
     <!-- 6 -->
     <g transform="translate(198.091 97.0497) scale(0.1728 -0.1728)">
      <use xlink:href="#DejaVuSans-36"/>
     </g>
    </g>
    <g id="line2d_18">
     <path d="M 149.707 116.3655 
L 166.987 116.3655 
L 184.267 116.3655 
" style="fill: none; stroke-dasharray: 44.8,11.2,7,11.2; stroke-dashoffset: 0; stroke: #ff0000; stroke-opacity: 0.6; stroke-width: 7"/>
    </g>
    <g id="text_22">
     <!-- 7 -->
     <g transform="translate(198.091 122.4135) scale(0.1728 -0.1728)">
      <use xlink:href="#DejaVuSans-37"/>
     </g>
    </g>
   </g>
  </g>
  <g id="line2d_19">
   <path d="M 512.296556 470.0528 
L 526.566048 511.7224 
" style="fill: none; stroke: #000000; stroke-opacity: 0.5; stroke-width: 2; stroke-linecap: square"/>
  </g>
  <g id="line2d_20">
   <path d="M 562.23978 464.1 
L 540.835541 511.7224 
" style="fill: none; stroke: #000000; stroke-opacity: 0.5; stroke-width: 2; stroke-linecap: square"/>
  </g>
  <g id="line2d_21">
   <path d="M 533.700795 529.5808 
L 533.700795 559.3448 
" style="fill: none; stroke: #000000; stroke-opacity: 0.5; stroke-width: 2; stroke-linecap: square"/>
  </g>
 </g>
 <defs>
  <clipPath id="pc0f0cbda08">
   <rect x="134.155" y="17.64" width="713.474633" height="595.28"/>
  </clipPath>
 </defs>
</svg>
