<?xml version="1.0" encoding="utf-8" standalone="no"?>
<!DOCTYPE svg PUBLIC "-//W3C//DTD SVG 1.1//EN"
  "http://www.w3.org/Graphics/SVG/1.1/DTD/svg11.dtd">
<svg xmlns:xlink="http://www.w3.org/1999/xlink" width="864pt" height="648pt" viewBox="0 0 864 648" xmlns="http://www.w3.org/2000/svg" version="1.1">
 <metadata>
  <rdf:RDF xmlns:dc="http://purl.org/dc/elements/1.1/" xmlns:cc="http://creativecommons.org/ns#" xmlns:rdf="http://www.w3.org/1999/02/22-rdf-syntax-ns#">
   <cc:Work>
    <dc:type rdf:resource="http://purl.org/dc/dcmitype/StillImage"/>
    <dc:date>2024-10-26T10:22:19.353328</dc:date>
    <dc:format>image/svg+xml</dc:format>
    <dc:creator>
     <cc:Agent>
      <dc:title>Matplotlib v3.9.2, https://matplotlib.org/</dc:title>
     </cc:Agent>
    </dc:creator>
   </cc:Work>
  </rdf:RDF>
 </metadata>
 <defs>
  <style type="text/css">*{stroke-linejoin: round; stroke-linecap: butt}</style>
 </defs>
 <g id="figure_1">
  <g id="patch_1">
   <path d="M 0 648 
L 864 648 
L 864 0 
L 0 0 
z
" style="fill: #ffffff"/>
  </g>
  <g id="axes_1">
   <g id="patch_2">
    <path d="M 134.155 612.92 
L 847.629633 612.92 
L 847.629633 17.64 
L 134.155 17.64 
z
" style="fill: #ffffff"/>
   </g>
   <g id="matplotlib.axis_1">
    <g id="xtick_1">
     <g id="line2d_1">
      <defs>
       <path id="mbf6e98b735" d="M 0 0 
L 0 3.5 
" style="stroke: #000000; stroke-width: 0.8"/>
      </defs>
      <g>
       <use xlink:href="#mbf6e98b735" x="229.262935" y="612.92" style="stroke: #000000; stroke-width: 0.8"/>
      </g>
     </g>
     <g id="text_1">
      <!-- 2021-04-19 -->
      <g transform="translate(179.051035 633.0501) scale(0.1728 -0.1728)">
       <defs>
        <path id="DejaVuSans-32" d="M 1228 531 
L 3431 531 
L 3431 0 
L 469 0 
L 469 531 
Q 828 903 1448 1529 
Q 2069 2156 2228 2338 
Q 2531 2678 2651 2914 
Q 2772 3150 2772 3378 
Q 2772 3750 2511 3984 
Q 2250 4219 1831 4219 
Q 1534 4219 1204 4116 
Q 875 4013 500 3803 
L 500 4441 
Q 881 4594 1212 4672 
Q 1544 4750 1819 4750 
Q 2544 4750 2975 4387 
Q 3406 4025 3406 3419 
Q 3406 3131 3298 2873 
Q 3191 2616 2906 2266 
Q 2828 2175 2409 1742 
Q 1991 1309 1228 531 
z
" transform="scale(0.015625)"/>
        <path id="DejaVuSans-30" d="M 2034 4250 
Q 1547 4250 1301 3770 
Q 1056 3291 1056 2328 
Q 1056 1369 1301 889 
Q 1547 409 2034 409 
Q 2525 409 2770 889 
Q 3016 1369 3016 2328 
Q 3016 3291 2770 3770 
Q 2525 4250 2034 4250 
z
M 2034 4750 
Q 2819 4750 3233 4129 
Q 3647 3509 3647 2328 
Q 3647 1150 3233 529 
Q 2819 -91 2034 -91 
Q 1250 -91 836 529 
Q 422 1150 422 2328 
Q 422 3509 836 4129 
Q 1250 4750 2034 4750 
z
" transform="scale(0.015625)"/>
        <path id="DejaVuSans-31" d="M 794 531 
L 1825 531 
L 1825 4091 
L 703 3866 
L 703 4441 
L 1819 4666 
L 2450 4666 
L 2450 531 
L 3481 531 
L 3481 0 
L 794 0 
L 794 531 
z
" transform="scale(0.015625)"/>
        <path id="DejaVuSans-2d" d="M 313 2009 
L 1997 2009 
L 1997 1497 
L 313 1497 
L 313 2009 
z
" transform="scale(0.015625)"/>
        <path id="DejaVuSans-34" d="M 2419 4116 
L 825 1625 
L 2419 1625 
L 2419 4116 
z
M 2253 4666 
L 3047 4666 
L 3047 1625 
L 3713 1625 
L 3713 1100 
L 3047 1100 
L 3047 0 
L 2419 0 
L 2419 1100 
L 313 1100 
L 313 1709 
L 2253 4666 
z
" transform="scale(0.015625)"/>
        <path id="DejaVuSans-39" d="M 703 97 
L 703 672 
Q 941 559 1184 500 
Q 1428 441 1663 441 
Q 2288 441 2617 861 
Q 2947 1281 2994 2138 
Q 2813 1869 2534 1725 
Q 2256 1581 1919 1581 
Q 1219 1581 811 2004 
Q 403 2428 403 3163 
Q 403 3881 828 4315 
Q 1253 4750 1959 4750 
Q 2769 4750 3195 4129 
Q 3622 3509 3622 2328 
Q 3622 1225 3098 567 
Q 2575 -91 1691 -91 
Q 1453 -91 1209 -44 
Q 966 3 703 97 
z
M 1959 2075 
Q 2384 2075 2632 2365 
Q 2881 2656 2881 3163 
Q 2881 3666 2632 3958 
Q 2384 4250 1959 4250 
Q 1534 4250 1286 3958 
Q 1038 3666 1038 3163 
Q 1038 2656 1286 2365 
Q 1534 2075 1959 2075 
z
" transform="scale(0.015625)"/>
       </defs>
       <use xlink:href="#DejaVuSans-32"/>
       <use xlink:href="#DejaVuSans-30" x="63.623047"/>
       <use xlink:href="#DejaVuSans-32" x="127.246094"/>
       <use xlink:href="#DejaVuSans-31" x="190.869141"/>
       <use xlink:href="#DejaVuSans-2d" x="254.492188"/>
       <use xlink:href="#DejaVuSans-30" x="290.576172"/>
       <use xlink:href="#DejaVuSans-34" x="354.199219"/>
       <use xlink:href="#DejaVuSans-2d" x="417.822266"/>
       <use xlink:href="#DejaVuSans-31" x="453.90625"/>
       <use xlink:href="#DejaVuSans-39" x="517.529297"/>
      </g>
     </g>
    </g>
    <g id="xtick_2">
     <g id="line2d_2">
      <g>
       <use xlink:href="#mbf6e98b735" x="419.478806" y="612.92" style="stroke: #000000; stroke-width: 0.8"/>
      </g>
     </g>
     <g id="text_2">
      <!-- 2021-04-27 -->
      <g transform="translate(369.266906 633.0501) scale(0.1728 -0.1728)">
       <defs>
        <path id="DejaVuSans-37" d="M 525 4666 
L 3525 4666 
L 3525 4397 
L 1831 0 
L 1172 0 
L 2766 4134 
L 525 4134 
L 525 4666 
z
" transform="scale(0.015625)"/>
       </defs>
       <use xlink:href="#DejaVuSans-32"/>
       <use xlink:href="#DejaVuSans-30" x="63.623047"/>
       <use xlink:href="#DejaVuSans-32" x="127.246094"/>
       <use xlink:href="#DejaVuSans-31" x="190.869141"/>
       <use xlink:href="#DejaVuSans-2d" x="254.492188"/>
       <use xlink:href="#DejaVuSans-30" x="290.576172"/>
       <use xlink:href="#DejaVuSans-34" x="354.199219"/>
       <use xlink:href="#DejaVuSans-2d" x="417.822266"/>
       <use xlink:href="#DejaVuSans-32" x="453.90625"/>
       <use xlink:href="#DejaVuSans-37" x="517.529297"/>
      </g>
     </g>
    </g>
    <g id="xtick_3">
     <g id="line2d_3">
      <g>
       <use xlink:href="#mbf6e98b735" x="609.694677" y="612.92" style="stroke: #000000; stroke-width: 0.8"/>
      </g>
     </g>
     <g id="text_3">
      <!-- 2021-05-05 -->
      <g transform="translate(559.482777 633.0501) scale(0.1728 -0.1728)">
       <defs>
        <path id="DejaVuSans-35" d="M 691 4666 
L 3169 4666 
L 3169 4134 
L 1269 4134 
L 1269 2991 
Q 1406 3038 1543 3061 
Q 1681 3084 1819 3084 
Q 2600 3084 3056 2656 
Q 3513 2228 3513 1497 
Q 3513 744 3044 326 
Q 2575 -91 1722 -91 
Q 1428 -91 1123 -41 
Q 819 9 494 109 
L 494 744 
Q 775 591 1075 516 
Q 1375 441 1709 441 
Q 2250 441 2565 725 
Q 2881 1009 2881 1497 
Q 2881 1984 2565 2268 
Q 2250 2553 1709 2553 
Q 1456 2553 1204 2497 
Q 953 2441 691 2322 
L 691 4666 
z
" transform="scale(0.015625)"/>
       </defs>
       <use xlink:href="#DejaVuSans-32"/>
       <use xlink:href="#DejaVuSans-30" x="63.623047"/>
       <use xlink:href="#DejaVuSans-32" x="127.246094"/>
       <use xlink:href="#DejaVuSans-31" x="190.869141"/>
       <use xlink:href="#DejaVuSans-2d" x="254.492188"/>
       <use xlink:href="#DejaVuSans-30" x="290.576172"/>
       <use xlink:href="#DejaVuSans-35" x="354.199219"/>
       <use xlink:href="#DejaVuSans-2d" x="417.822266"/>
       <use xlink:href="#DejaVuSans-30" x="453.90625"/>
       <use xlink:href="#DejaVuSans-35" x="517.529297"/>
      </g>
     </g>
    </g>
    <g id="xtick_4">
     <g id="line2d_4">
      <g>
       <use xlink:href="#mbf6e98b735" x="799.910548" y="612.92" style="stroke: #000000; stroke-width: 0.8"/>
      </g>
     </g>
     <g id="text_4">
      <!-- 2021-05-13 -->
      <g transform="translate(749.698648 633.0501) scale(0.1728 -0.1728)">
       <defs>
        <path id="DejaVuSans-33" d="M 2597 2516 
Q 3050 2419 3304 2112 
Q 3559 1806 3559 1356 
Q 3559 666 3084 287 
Q 2609 -91 1734 -91 
Q 1441 -91 1130 -33 
Q 819 25 488 141 
L 488 750 
Q 750 597 1062 519 
Q 1375 441 1716 441 
Q 2309 441 2620 675 
Q 2931 909 2931 1356 
Q 2931 1769 2642 2001 
Q 2353 2234 1838 2234 
L 1294 2234 
L 1294 2753 
L 1863 2753 
Q 2328 2753 2575 2939 
Q 2822 3125 2822 3475 
Q 2822 3834 2567 4026 
Q 2313 4219 1838 4219 
Q 1578 4219 1281 4162 
Q 984 4106 628 3988 
L 628 4550 
Q 988 4650 1302 4700 
Q 1616 4750 1894 4750 
Q 2613 4750 3031 4423 
Q 3450 4097 3450 3541 
Q 3450 3153 3228 2886 
Q 3006 2619 2597 2516 
z
" transform="scale(0.015625)"/>
       </defs>
       <use xlink:href="#DejaVuSans-32"/>
       <use xlink:href="#DejaVuSans-30" x="63.623047"/>
       <use xlink:href="#DejaVuSans-32" x="127.246094"/>
       <use xlink:href="#DejaVuSans-31" x="190.869141"/>
       <use xlink:href="#DejaVuSans-2d" x="254.492188"/>
       <use xlink:href="#DejaVuSans-30" x="290.576172"/>
       <use xlink:href="#DejaVuSans-35" x="354.199219"/>
       <use xlink:href="#DejaVuSans-2d" x="417.822266"/>
       <use xlink:href="#DejaVuSans-31" x="453.90625"/>
       <use xlink:href="#DejaVuSans-33" x="517.529297"/>
      </g>
     </g>
    </g>
   </g>
   <g id="matplotlib.axis_2">
    <g id="ytick_1">
     <g id="line2d_5">
      <defs>
       <path id="meaaa7445f0" d="M 0 0 
L -3.5 0 
" style="stroke: #000000; stroke-width: 0.8"/>
      </defs>
      <g>
       <use xlink:href="#meaaa7445f0" x="134.155" y="612.92" style="stroke: #000000; stroke-width: 0.8"/>
      </g>
     </g>
     <g id="text_5">
      <!-- −1.0 -->
      <g transform="translate(85.1943 619.48505) scale(0.1728 -0.1728)">
       <defs>
        <path id="DejaVuSans-2212" d="M 678 2272 
L 4684 2272 
L 4684 1741 
L 678 1741 
L 678 2272 
z
" transform="scale(0.015625)"/>
        <path id="DejaVuSans-2e" d="M 684 794 
L 1344 794 
L 1344 0 
L 684 0 
L 684 794 
z
" transform="scale(0.015625)"/>
       </defs>
       <use xlink:href="#DejaVuSans-2212"/>
       <use xlink:href="#DejaVuSans-31" x="83.789062"/>
       <use xlink:href="#DejaVuSans-2e" x="147.412109"/>
       <use xlink:href="#DejaVuSans-30" x="179.199219"/>
      </g>
     </g>
    </g>
    <g id="ytick_2">
     <g id="line2d_6">
      <g>
       <use xlink:href="#meaaa7445f0" x="134.155" y="493.864" style="stroke: #000000; stroke-width: 0.8"/>
      </g>
     </g>
     <g id="text_6">
      <!-- −0.5 -->
      <g transform="translate(85.1943 500.42905) scale(0.1728 -0.1728)">
       <use xlink:href="#DejaVuSans-2212"/>
       <use xlink:href="#DejaVuSans-30" x="83.789062"/>
       <use xlink:href="#DejaVuSans-2e" x="147.412109"/>
       <use xlink:href="#DejaVuSans-35" x="179.199219"/>
      </g>
     </g>
    </g>
    <g id="ytick_3">
     <g id="line2d_7">
      <g>
       <use xlink:href="#meaaa7445f0" x="134.155" y="374.808" style="stroke: #000000; stroke-width: 0.8"/>
      </g>
     </g>
     <g id="text_7">
      <!-- 0.0 -->
      <g transform="translate(99.6744 381.37305) scale(0.1728 -0.1728)">
       <use xlink:href="#DejaVuSans-30"/>
       <use xlink:href="#DejaVuSans-2e" x="63.623047"/>
       <use xlink:href="#DejaVuSans-30" x="95.410156"/>
      </g>
     </g>
    </g>
    <g id="ytick_4">
     <g id="line2d_8">
      <g>
       <use xlink:href="#meaaa7445f0" x="134.155" y="255.752" style="stroke: #000000; stroke-width: 0.8"/>
      </g>
     </g>
     <g id="text_8">
      <!-- 0.5 -->
      <g transform="translate(99.6744 262.31705) scale(0.1728 -0.1728)">
       <use xlink:href="#DejaVuSans-30"/>
       <use xlink:href="#DejaVuSans-2e" x="63.623047"/>
       <use xlink:href="#DejaVuSans-35" x="95.410156"/>
      </g>
     </g>
    </g>
    <g id="ytick_5">
     <g id="line2d_9">
      <g>
       <use xlink:href="#meaaa7445f0" x="134.155" y="136.696" style="stroke: #000000; stroke-width: 0.8"/>
      </g>
     </g>
     <g id="text_9">
      <!-- 1.0 -->
      <g transform="translate(99.6744 143.26105) scale(0.1728 -0.1728)">
       <use xlink:href="#DejaVuSans-31"/>
       <use xlink:href="#DejaVuSans-2e" x="63.623047"/>
       <use xlink:href="#DejaVuSans-30" x="95.410156"/>
      </g>
     </g>
    </g>
    <g id="ytick_6">
     <g id="line2d_10">
      <g>
       <use xlink:href="#meaaa7445f0" x="134.155" y="17.64" style="stroke: #000000; stroke-width: 0.8"/>
      </g>
     </g>
     <g id="text_10">
      <!-- 1.5 -->
      <g transform="translate(99.6744 24.20505) scale(0.1728 -0.1728)">
       <use xlink:href="#DejaVuSans-31"/>
       <use xlink:href="#DejaVuSans-2e" x="63.623047"/>
       <use xlink:href="#DejaVuSans-35" x="95.410156"/>
      </g>
     </g>
    </g>
    <g id="text_11">
     <!-- Node 8 -->
     <g transform="translate(24.39945 292.33648) scale(0.1728 -0.1728)">
      <defs>
       <path id="DejaVuSans-4e" d="M 628 4666 
L 1478 4666 
L 3547 763 
L 3547 4666 
L 4159 4666 
L 4159 0 
L 3309 0 
L 1241 3903 
L 1241 0 
L 628 0 
L 628 4666 
z
" transform="scale(0.015625)"/>
       <path id="DejaVuSans-6f" d="M 1959 3097 
Q 1497 3097 1228 2736 
Q 959 2375 959 1747 
Q 959 1119 1226 758 
Q 1494 397 1959 397 
Q 2419 397 2687 759 
Q 2956 1122 2956 1747 
Q 2956 2369 2687 2733 
Q 2419 3097 1959 3097 
z
M 1959 3584 
Q 2709 3584 3137 3096 
Q 3566 2609 3566 1747 
Q 3566 888 3137 398 
Q 2709 -91 1959 -91 
Q 1206 -91 779 398 
Q 353 888 353 1747 
Q 353 2609 779 3096 
Q 1206 3584 1959 3584 
z
" transform="scale(0.015625)"/>
       <path id="DejaVuSans-64" d="M 2906 2969 
L 2906 4863 
L 3481 4863 
L 3481 0 
L 2906 0 
L 2906 525 
Q 2725 213 2448 61 
Q 2172 -91 1784 -91 
Q 1150 -91 751 415 
Q 353 922 353 1747 
Q 353 2572 751 3078 
Q 1150 3584 1784 3584 
Q 2172 3584 2448 3432 
Q 2725 3281 2906 2969 
z
M 947 1747 
Q 947 1113 1208 752 
Q 1469 391 1925 391 
Q 2381 391 2643 752 
Q 2906 1113 2906 1747 
Q 2906 2381 2643 2742 
Q 2381 3103 1925 3103 
Q 1469 3103 1208 2742 
Q 947 2381 947 1747 
z
" transform="scale(0.015625)"/>
       <path id="DejaVuSans-65" d="M 3597 1894 
L 3597 1613 
L 953 1613 
Q 991 1019 1311 708 
Q 1631 397 2203 397 
Q 2534 397 2845 478 
Q 3156 559 3463 722 
L 3463 178 
Q 3153 47 2828 -22 
Q 2503 -91 2169 -91 
Q 1331 -91 842 396 
Q 353 884 353 1716 
Q 353 2575 817 3079 
Q 1281 3584 2069 3584 
Q 2775 3584 3186 3129 
Q 3597 2675 3597 1894 
z
M 3022 2063 
Q 3016 2534 2758 2815 
Q 2500 3097 2075 3097 
Q 1594 3097 1305 2825 
Q 1016 2553 972 2059 
L 3022 2063 
z
" transform="scale(0.015625)"/>
       <path id="DejaVuSans-20" transform="scale(0.015625)"/>
       <path id="DejaVuSans-38" d="M 2034 2216 
Q 1584 2216 1326 1975 
Q 1069 1734 1069 1313 
Q 1069 891 1326 650 
Q 1584 409 2034 409 
Q 2484 409 2743 651 
Q 3003 894 3003 1313 
Q 3003 1734 2745 1975 
Q 2488 2216 2034 2216 
z
M 1403 2484 
Q 997 2584 770 2862 
Q 544 3141 544 3541 
Q 544 4100 942 4425 
Q 1341 4750 2034 4750 
Q 2731 4750 3128 4425 
Q 3525 4100 3525 3541 
Q 3525 3141 3298 2862 
Q 3072 2584 2669 2484 
Q 3125 2378 3379 2068 
Q 3634 1759 3634 1313 
Q 3634 634 3220 271 
Q 2806 -91 2034 -91 
Q 1263 -91 848 271 
Q 434 634 434 1313 
Q 434 1759 690 2068 
Q 947 2378 1403 2484 
z
M 1172 3481 
Q 1172 3119 1398 2916 
Q 1625 2713 2034 2713 
Q 2441 2713 2670 2916 
Q 2900 3119 2900 3481 
Q 2900 3844 2670 4047 
Q 2441 4250 2034 4250 
Q 1625 4250 1398 4047 
Q 1172 3844 1172 3481 
z
" transform="scale(0.015625)"/>
      </defs>
      <use xlink:href="#DejaVuSans-4e"/>
      <use xlink:href="#DejaVuSans-6f" x="74.804688"/>
      <use xlink:href="#DejaVuSans-64" x="135.986328"/>
      <use xlink:href="#DejaVuSans-65" x="199.462891"/>
      <use xlink:href="#DejaVuSans-20" x="260.986328"/>
      <use xlink:href="#DejaVuSans-38" x="292.773438"/>
     </g>
     <!-- Depth (m) -->
     <g transform="translate(10.9737 311.6863) scale(0.1728 -0.1728)">
      <defs>
       <path id="DejaVuSans-44" d="M 1259 4147 
L 1259 519 
L 2022 519 
Q 2988 519 3436 956 
Q 3884 1394 3884 2338 
Q 3884 3275 3436 3711 
Q 2988 4147 2022 4147 
L 1259 4147 
z
M 628 4666 
L 1925 4666 
Q 3281 4666 3915 4102 
Q 4550 3538 4550 2338 
Q 4550 1131 3912 565 
Q 3275 0 1925 0 
L 628 0 
L 628 4666 
z
" transform="scale(0.015625)"/>
       <path id="DejaVuSans-70" d="M 1159 525 
L 1159 -1331 
L 581 -1331 
L 581 3500 
L 1159 3500 
L 1159 2969 
Q 1341 3281 1617 3432 
Q 1894 3584 2278 3584 
Q 2916 3584 3314 3078 
Q 3713 2572 3713 1747 
Q 3713 922 3314 415 
Q 2916 -91 2278 -91 
Q 1894 -91 1617 61 
Q 1341 213 1159 525 
z
M 3116 1747 
Q 3116 2381 2855 2742 
Q 2594 3103 2138 3103 
Q 1681 3103 1420 2742 
Q 1159 2381 1159 1747 
Q 1159 1113 1420 752 
Q 1681 391 2138 391 
Q 2594 391 2855 752 
Q 3116 1113 3116 1747 
z
" transform="scale(0.015625)"/>
       <path id="DejaVuSans-74" d="M 1172 4494 
L 1172 3500 
L 2356 3500 
L 2356 3053 
L 1172 3053 
L 1172 1153 
Q 1172 725 1289 603 
Q 1406 481 1766 481 
L 2356 481 
L 2356 0 
L 1766 0 
Q 1100 0 847 248 
Q 594 497 594 1153 
L 594 3053 
L 172 3053 
L 172 3500 
L 594 3500 
L 594 4494 
L 1172 4494 
z
" transform="scale(0.015625)"/>
       <path id="DejaVuSans-68" d="M 3513 2113 
L 3513 0 
L 2938 0 
L 2938 2094 
Q 2938 2591 2744 2837 
Q 2550 3084 2163 3084 
Q 1697 3084 1428 2787 
Q 1159 2491 1159 1978 
L 1159 0 
L 581 0 
L 581 4863 
L 1159 4863 
L 1159 2956 
Q 1366 3272 1645 3428 
Q 1925 3584 2291 3584 
Q 2894 3584 3203 3211 
Q 3513 2838 3513 2113 
z
" transform="scale(0.015625)"/>
       <path id="DejaVuSans-28" d="M 1984 4856 
Q 1566 4138 1362 3434 
Q 1159 2731 1159 2009 
Q 1159 1288 1364 580 
Q 1569 -128 1984 -844 
L 1484 -844 
Q 1016 -109 783 600 
Q 550 1309 550 2009 
Q 550 2706 781 3412 
Q 1013 4119 1484 4856 
L 1984 4856 
z
" transform="scale(0.015625)"/>
       <path id="DejaVuSans-6d" d="M 3328 2828 
Q 3544 3216 3844 3400 
Q 4144 3584 4550 3584 
Q 5097 3584 5394 3201 
Q 5691 2819 5691 2113 
L 5691 0 
L 5113 0 
L 5113 2094 
Q 5113 2597 4934 2840 
Q 4756 3084 4391 3084 
Q 3944 3084 3684 2787 
Q 3425 2491 3425 1978 
L 3425 0 
L 2847 0 
L 2847 2094 
Q 2847 2600 2669 2842 
Q 2491 3084 2119 3084 
Q 1678 3084 1418 2786 
Q 1159 2488 1159 1978 
L 1159 0 
L 581 0 
L 581 3500 
L 1159 3500 
L 1159 2956 
Q 1356 3278 1631 3431 
Q 1906 3584 2284 3584 
Q 2666 3584 2933 3390 
Q 3200 3197 3328 2828 
z
" transform="scale(0.015625)"/>
       <path id="DejaVuSans-29" d="M 513 4856 
L 1013 4856 
Q 1481 4119 1714 3412 
Q 1947 2706 1947 2009 
Q 1947 1309 1714 600 
Q 1481 -109 1013 -844 
L 513 -844 
Q 928 -128 1133 580 
Q 1338 1288 1338 2009 
Q 1338 2731 1133 3434 
Q 928 4138 513 4856 
z
" transform="scale(0.015625)"/>
      </defs>
      <use xlink:href="#DejaVuSans-44"/>
      <use xlink:href="#DejaVuSans-65" x="77.001953"/>
      <use xlink:href="#DejaVuSans-70" x="138.525391"/>
      <use xlink:href="#DejaVuSans-74" x="202.001953"/>
      <use xlink:href="#DejaVuSans-68" x="241.210938"/>
      <use xlink:href="#DejaVuSans-20" x="304.589844"/>
      <use xlink:href="#DejaVuSans-28" x="336.376953"/>
      <use xlink:href="#DejaVuSans-6d" x="375.390625"/>
      <use xlink:href="#DejaVuSans-29" x="472.802734"/>
     </g>
    </g>
   </g>
   <g id="line2d_11">
    <path d="M 134.072441 198.245958 
L 141.502748 199.841297 
M 141.667866 199.860112 
L 142.245779 199.937342 
L 142.410897 198.968791 
L 142.493456 197.761304 
M 142.658574 197.410019 
L 142.98881 196.807451 
L 143.236487 196.539598 
L 143.401605 195.302038 
L 143.484164 194.008746 
M 143.649282 193.647566 
L 143.979518 193.068279 
L 144.309754 192.929832 
L 144.805107 192.983014 
L 145.217902 193.150681 
M 145.713256 191.480969 
L 145.960933 190.523752 
L 146.20861 190.115579 
L 146.703964 186.717175 
L 147.199318 180.112876 
L 147.529553 179.110234 
L 147.859789 176.975378 
L 148.107466 176.668919 
L 148.355143 176.681347 
L 148.850497 177.019868 
L 150.088882 178.317101 
L 150.501676 178.87657 
M 150.666794 178.97307 
L 151.740061 180.288376 
M 151.905179 180.384821 
L 152.235415 180.848155 
M 152.400533 180.943911 
L 152.64821 181.31095 
M 152.813328 181.407473 
L 153.061005 181.770052 
M 153.226122 181.864126 
L 155.537774 184.355534 
L 158.179661 187.100375 
M 158.344779 187.184535 
L 158.922692 187.817559 
M 159.087809 187.900035 
L 162.555286 191.129108 
M 162.720404 191.204565 
L 163.628553 192.04875 
M 163.793671 192.123167 
L 164.784378 193.010414 
M 164.949496 193.082001 
L 166.683235 194.528934 
M 166.848353 194.597024 
L 167.178589 194.91281 
M 167.343707 194.980148 
L 167.673942 195.291882 
M 167.83906 195.35816 
L 169.737917 196.819774 
M 169.903035 196.882928 
L 175.351927 200.589892 
M 175.517045 200.644736 
L 178.736845 202.619398 
M 178.901963 202.670557 
L 179.067081 202.808658 
M 179.232199 202.858943 
L 181.708968 204.268731 
M 181.874086 204.315897 
L 182.039204 204.444821 
M 182.204322 204.492074 
L 183.772942 205.347566 
M 183.93806 205.392549 
L 186.662506 206.773999 
M 186.827624 206.816109 
L 189.717188 208.184871 
M 189.882306 208.224348 
L 195.578875 210.647782 
M 195.743993 210.682823 
L 195.99167 210.810349 
M 196.156788 210.845555 
L 196.899818 211.163411 
M 197.064936 211.198009 
L 197.395172 211.353404 
M 197.56029 211.387244 
L 199.294029 212.065038 
M 199.459147 212.097748 
L 201.275444 212.779905 
M 201.440562 212.811323 
L 201.770798 212.953765 
M 201.935916 212.985156 
L 204.990598 214.054467 
M 205.155716 214.084798 
L 206.146423 214.443391 
M 206.311541 214.473615 
L 207.302249 214.832049 
M 207.467367 214.862418 
L 207.962721 215.054491 
M 208.127839 215.084612 
L 210.604608 215.950711 
M 210.769726 215.9812 
L 211.26508 216.176871 
M 211.430197 216.207859 
L 214.319761 217.235533 
M 214.484879 217.266847 
L 216.548854 218.020731 
M 216.713972 218.051792 
L 218.117474 218.578937 
M 218.282592 218.610145 
L 221.502392 219.796142 
M 221.66751 219.827886 
L 221.915187 219.945509 
M 222.080305 219.977364 
L 223.153571 220.394589 
M 223.318689 220.426402 
L 226.703607 221.687131 
M 226.868725 221.719066 
L 230.914115 223.222989 
M 231.079233 223.254878 
L 231.492028 223.433607 
M 231.657146 223.465205 
L 233.968797 224.334108 
M 234.133915 224.36583 
L 237.271156 225.528169 
M 237.436274 225.559462 
L 237.849068 225.73617 
M 238.014186 225.767675 
L 242.059576 227.240338 
M 242.224694 227.271212 
L 242.472371 227.386605 
M 242.637489 227.417327 
L 242.885166 227.532698 
M 243.050284 227.563392 
L 243.297961 227.678562 
M 243.463078 227.709276 
L 243.710755 227.824201 
M 243.875873 227.854905 
L 246.022407 228.635174 
M 246.187525 228.665865 
L 246.682878 228.865399 
M 246.847996 228.895746 
L 256.17716 232.094683 
M 256.342278 232.124007 
L 260.057432 233.367297 
M 260.22255 233.395698 
L 261.130698 233.714177 
M 261.295816 233.74239 
L 262.781878 234.243339 
M 262.946996 234.271365 
L 263.607468 234.505929 
M 263.772586 234.534083 
L 265.093529 234.895246 
L 265.258647 233.588161 
L 265.506324 231.576892 
L 265.919119 229.958457 
L 266.249355 226.693827 
L 266.414473 225.346199 
L 266.497032 223.090112 
M 266.66215 222.355064 
L 266.909826 220.630871 
L 267.735416 209.848363 
M 267.900534 209.244757 
L 267.983093 208.727617 
M 268.148211 208.605816 
L 268.313329 208.408444 
L 268.561006 206.026724 
L 268.891242 202.00894 
L 269.138919 201.385202 
L 269.304037 201.2351 
L 269.469155 199.976072 
L 269.964508 195.019512 
L 270.129626 194.797975 
L 270.377303 194.88618 
L 270.872657 195.575035 
L 272.441278 198.617079 
L 272.688954 199.270226 
M 272.854072 199.445216 
L 273.597103 201.085096 
M 273.762221 201.249576 
L 275.661077 204.929904 
L 275.991313 205.688789 
M 276.156431 205.843896 
L 278.302965 209.696336 
L 279.128554 211.096955 
L 279.211113 211.368214 
M 279.376231 211.50858 
L 280.862293 214.049142 
M 281.027411 214.182321 
L 281.605323 215.205559 
M 281.770441 215.33535 
L 281.853 215.584632 
M 282.018118 215.713614 
L 283.008826 217.308026 
M 283.173944 217.433429 
L 283.421621 217.905938 
M 283.586739 218.028182 
L 285.403036 220.546477 
L 285.815831 221.096308 
L 285.89839 216.968891 
L 286.311185 157.729503 
L 286.558862 149.067718 
L 286.806539 147.562137 
L 286.971657 147.585338 
L 287.136775 147.849579 
L 287.219333 148.2286 
M 287.384451 148.452518 
L 288.705395 152.588099 
L 291.099605 160.397047 
L 292.998461 166.429823 
L 293.90661 168.891184 
L 294.236846 167.986038 
L 294.401964 168.119222 
L 294.7322 168.73517 
L 295.310113 170.236668 
L 295.392672 170.67385 
M 295.55779 170.918057 
L 297.456646 176.342536 
L 298.199677 178.671966 
M 298.364795 178.91515 
L 299.933415 183.455668 
M 300.098533 183.692174 
L 300.924123 186.104981 
M 301.089241 186.333684 
L 306.042779 198.74434 
M 306.207897 198.945922 
L 308.436989 204.045563 
M 308.602107 204.230669 
L 312.730056 212.437328 
L 312.977733 213.039759 
M 313.142851 213.199043 
L 314.876589 216.399048 
M 315.041707 216.54798 
L 318.674302 222.325955 
L 319.252214 223.279186 
M 319.417332 223.404716 
L 320.573158 225.130236 
M 320.738276 225.248495 
L 321.23363 226.016993 
M 321.398748 226.133297 
L 325.113901 230.761661 
M 325.279019 230.859965 
L 329.489527 235.265612 
L 333.122122 238.659809 
M 333.28724 238.736098 
L 337.993101 242.514442 
L 338.736132 243.119387 
M 338.90125 243.183602 
L 339.561722 243.716258 
M 339.726839 243.779501 
L 343.524552 246.400449 
M 343.68967 246.457142 
L 345.258291 247.489077 
M 345.423409 247.543648 
L 347.157147 248.627844 
M 347.322265 248.679958 
L 347.487383 248.820498 
M 347.652501 248.871752 
L 348.147855 249.201222 
M 348.312973 249.251547 
L 348.808326 249.575985 
M 348.973444 249.625444 
L 349.468798 249.944928 
M 349.633916 249.993711 
L 351.532772 251.062189 
M 351.69789 251.109466 
L 353.34907 252.003764 
M 353.514188 252.049226 
L 354.257218 252.460805 
M 354.422336 252.50551 
L 355.74328 253.190182 
M 355.908398 253.233039 
L 356.238634 253.428219 
M 356.403752 253.471067 
L 359.375875 254.884441 
M 359.540993 254.924949 
L 359.871229 255.071206 
L 359.953788 254.563001 
M 360.118905 253.394569 
L 360.366582 250.992332 
L 360.614259 250.226328 
L 360.944495 249.906508 
L 361.274731 249.880888 
L 361.852644 250.101878 
L 362.595675 250.564614 
L 362.678234 250.677734 
M 362.843352 250.740759 
L 362.925911 250.70397 
L 363.091028 249.171716 
L 363.338705 246.847484 
L 363.503823 245.268539 
L 363.834059 241.345628 
L 364.246854 239.71146 
L 364.57709 236.407466 
L 364.824767 235.890105 
L 365.072444 235.867079 
L 365.320121 236.111337 
M 365.485239 236.205239 
L 366.228269 237.195958 
L 368.292244 240.354826 
L 368.787597 241.231546 
M 368.952715 241.365345 
L 370.769013 244.123233 
M 370.934131 244.248338 
L 371.264367 244.813138 
M 371.429485 244.936941 
L 371.842279 245.600709 
M 372.007397 245.720108 
L 373.493459 247.749453 
M 373.658577 247.862559 
L 374.153931 248.567106 
M 374.319049 248.675919 
L 374.731843 249.263844 
M 374.896961 249.370966 
L 377.786525 252.585424 
L 380.510971 255.329825 
M 380.676089 255.412638 
L 383.648212 257.960955 
L 384.63892 258.796876 
M 384.804038 258.866318 
L 387.363366 260.770105 
M 387.528484 260.832247 
L 389.179663 261.968777 
M 389.344781 262.025938 
L 391.243638 263.231609 
M 391.408756 263.28512 
L 395.04135 265.276567 
L 396.032058 265.819369 
M 396.197176 265.864143 
L 398.508827 267.002535 
M 398.673945 267.040469 
L 403.049571 268.925787 
L 403.214689 269.022426 
M 403.544925 269.121824 
L 405.52634 269.92444 
M 405.691458 269.955853 
L 407.425196 270.628342 
M 407.590314 270.658417 
L 408.828699 271.129256 
M 408.993817 271.158404 
L 410.232201 271.615307 
M 410.397319 271.643677 
L 411.388027 272.005179 
M 411.553145 272.032869 
L 415.433416 273.303948 
M 415.598534 273.329724 
L 422.038134 275.221806 
L 422.285811 275.312557 
M 422.450929 275.335846 
L 425.918406 276.258059 
M 426.083524 276.258048 
L 426.41376 276.258005 
M 426.578878 276.257994 
L 428.395175 276.257815 
M 428.560293 276.257804 
L 429.303324 276.257728 
M 429.468442 276.257718 
L 431.449857 276.25754 
M 431.614975 276.257535 
L 433.018477 276.257412 
M 433.183595 276.257408 
L 433.761508 276.257354 
M 433.926626 276.25735 
L 438.880164 276.256992 
M 439.045282 276.256988 
L 442.512759 276.256772 
M 442.677877 276.256769 
L 444.494175 276.256664 
M 444.659292 276.256656 
L 444.741851 276.25665 
M 444.906969 276.256642 
L 450.273303 276.256377 
M 450.43842 276.256374 
L 452.832631 276.154163 
L 452.91519 275.509945 
L 453.245426 270.603693 
L 453.575661 269.154982 
L 453.988456 268.433103 
L 454.153574 268.207498 
M 454.318692 268.145168 
L 454.814046 267.867615 
M 454.979164 267.839828 
L 455.969872 267.63742 
L 456.13499 267.608224 
M 456.300107 267.598984 
L 457.455933 267.507413 
M 457.621051 267.503063 
L 461.749 267.404228 
L 462.161794 267.399103 
M 462.326912 267.398271 
L 463.31762 267.389309 
M 463.482738 267.388682 
L 463.895533 267.385332 
M 464.060651 267.384779 
L 468.188599 267.366711 
M 468.353717 267.366462 
L 468.683953 267.365338 
M 468.849071 267.365108 
L 470.995604 267.36012 
M 471.160722 267.359954 
L 471.408399 267.273846 
L 471.573517 265.330671 
L 471.821194 262.36791 
L 472.233989 259.798588 
L 472.894461 248.013387 
L 473.142138 246.979131 
L 473.307256 244.695633 
L 473.554933 236.381688 
L 473.802609 231.017881 
L 474.050286 227.508055 
L 474.54564 219.72253 
L 474.875876 218.601553 
L 475.288671 218.09156 
L 475.784025 217.825529 
L 476.527056 217.645486 
L 476.609614 217.388458 
L 476.774732 214.075541 
L 477.187527 204.960323 
L 477.352645 201.481188 
L 477.76544 189.555575 
L 478.013117 186.981854 
L 478.260794 185.319871 
L 478.425912 184.354659 
L 478.756148 182.040603 
L 478.838707 181.805269 
M 479.003825 181.766041 
L 479.251502 181.828296 
L 479.499179 182.102548 
M 479.664296 182.19179 
L 480.077091 182.782549 
M 480.242209 182.891892 
L 480.572445 183.269195 
L 480.737563 182.522467 
L 480.902681 179.781272 
L 481.150358 175.398115 
L 481.398035 174.491235 
L 481.563153 174.286825 
L 481.728271 173.202038 
L 481.975948 168.562708 
L 482.471301 153.916095 
M 482.636419 153.415849 
L 482.884096 152.469433 
L 483.131773 151.006905 
L 483.296891 150.845786 
L 483.544568 151.028249 
L 484.039922 151.875105 
L 484.782953 153.656875 
M 484.948071 153.858558 
L 485.525983 155.342646 
M 485.691101 155.549237 
L 486.846927 158.344522 
M 487.012045 158.546809 
L 489.81905 164.86001 
M 489.984168 165.035966 
L 493.121409 171.464416 
L 494.60747 174.323704 
L 495.598178 176.332432 
M 495.763296 176.487527 
L 498.322624 181.064765 
L 498.405183 181.039413 
M 498.570301 180.5648 
L 499.313332 174.060019 
M 499.47845 173.07019 
L 499.726127 170.810091 
L 499.973803 170.415487 
L 500.22148 170.530724 
L 500.551716 170.958088 
L 500.634275 171.207292 
M 500.799393 171.346474 
L 501.212188 172.224996 
M 501.377306 172.379657 
L 502.533132 174.735414 
M 502.69825 174.895879 
L 503.771516 177.096754 
M 503.936634 177.254747 
L 505.918049 181.062093 
M 506.083167 181.213307 
L 508.642496 185.678167 
L 509.05529 186.494936 
M 509.220408 186.634855 
L 511.697177 190.608358 
L 514.008829 194.064619 
L 514.091388 194.295659 
M 514.256506 194.417758 
L 516.650716 197.744235 
L 517.228629 198.608631 
M 517.393747 198.720055 
L 518.962367 200.822662 
M 519.127485 200.929066 
L 519.622839 201.635436 
M 519.787957 201.74007 
L 521.93449 204.265826 
L 522.264726 204.72492 
M 522.429844 204.82236 
L 522.594962 205.093082 
M 522.76008 205.189538 
L 527.713618 210.256779 
L 529.282238 211.773321 
M 529.447356 211.852351 
L 529.94271 212.132797 
L 531.015977 212.722695 
M 531.181095 212.767468 
L 533.492746 213.938994 
M 533.657864 213.981386 
L 534.731131 214.521061 
M 534.896248 214.562316 
L 541.583525 217.430296 
L 541.831202 217.558749 
M 541.99632 217.594369 
L 545.21612 218.852996 
M 545.381238 218.886327 
L 550.00454 220.546176 
M 550.169658 220.576788 
L 553.719694 221.764218 
M 553.884812 221.793044 
L 557.352289 222.885332 
M 557.517407 222.912575 
L 563.626771 224.681953 
M 563.791889 224.70674 
L 565.525627 225.121244 
L 565.608186 224.760946 
L 565.773304 222.490053 
M 565.938422 222.057157 
L 566.10354 220.729764 
L 566.186099 219.604101 
L 566.268658 216.93182 
M 566.433776 215.325115 
L 566.764012 208.813005 
L 567.176806 194.339431 
L 567.424483 191.970267 
L 567.589601 189.991874 
L 568.002396 181.982413 
L 568.332632 178.265347 
L 568.49775 177.565499 
L 568.993104 171.638048 
L 569.488458 168.516034 
M 569.653576 167.807594 
L 570.148929 164.014487 
L 570.314047 163.964995 
L 570.479165 164.01128 
L 570.561724 163.231852 
M 570.726842 162.693713 
L 570.89196 162.331107 
L 571.057078 162.356686 
L 571.222196 162.4492 
L 571.387314 161.674335 
L 571.882668 158.293745 
L 572.047786 157.73497 
L 572.708258 153.669407 
L 572.873375 153.800845 
L 573.28617 154.575184 
L 573.864083 156.189653 
M 574.029201 156.407282 
L 575.432704 160.358256 
M 575.597822 160.58176 
L 578.404827 167.871734 
L 579.147857 169.688193 
L 579.230416 169.607663 
L 579.478093 168.514556 
M 579.643211 168.50299 
L 579.890888 168.734183 
L 580.303683 169.448772 
L 580.55136 170.140779 
M 580.716478 170.326236 
L 582.94557 175.642957 
M 583.110688 175.837079 
L 583.77116 177.523355 
M 583.936278 177.715384 
L 584.596749 179.369901 
M 584.761867 179.558425 
L 586.825842 184.001653 
L 588.55958 187.498578 
L 588.642139 187.348274 
L 588.807257 185.893578 
L 589.054934 179.153678 
L 589.550288 154.6196 
L 589.797965 152.706476 
M 589.963083 152.709606 
L 590.21076 153.012595 
L 590.458436 153.688823 
M 590.623554 153.88727 
L 591.118908 155.365059 
M 591.284026 155.589975 
L 593.843354 162.762329 
M 594.008472 162.986089 
L 594.834062 165.390003 
M 594.99918 165.615744 
L 595.081739 166.037794 
M 595.246857 166.128132 
L 595.411975 164.245369 
L 595.659652 162.171083 
L 595.82477 162.014256 
L 595.989888 162.130802 
L 596.402682 162.851976 
L 597.145713 164.590103 
L 597.228272 164.982219 
M 597.39339 165.189215 
L 600.530631 173.2169 
M 600.695749 173.418318 
L 601.356221 175.200925 
M 601.521339 175.399217 
L 602.18181 177.144592 
M 602.346928 177.338226 
L 604.988815 183.441658 
M 605.153933 183.621326 
L 606.2272 186.065332 
M 606.392318 186.238787 
L 608.869087 191.19751 
L 610.024913 193.524059 
M 610.190031 193.678461 
L 612.006328 197.071137 
M 612.171446 197.216377 
L 612.501682 197.921712 
M 612.6668 198.064208 
L 614.317979 200.918927 
M 614.483097 201.052613 
L 616.051718 203.605601 
M 616.216836 203.730933 
L 618.445928 206.938751 
L 619.354077 208.270763 
M 619.519194 208.382474 
L 621.913405 211.403083 
L 624.225056 214.056488 
L 625.711117 215.710993 
M 625.876235 215.797061 
L 628.022769 217.890353 
L 628.765799 218.64219 
M 628.930917 218.718051 
L 629.343712 219.154349 
M 629.50883 219.228535 
L 631.820481 221.142983 
L 634.049573 222.816508 
L 635.618194 223.941774 
M 635.783312 223.998025 
L 635.865871 224.104245 
M 636.030989 224.159732 
L 638.425199 225.632685 
L 640.901968 226.99318 
L 643.461296 228.245937 
L 643.708973 228.39427 
M 643.874091 228.433092 
L 644.864799 228.904559 
M 645.029917 228.941258 
L 647.671804 230.006922 
L 647.754363 229.982881 
L 647.919481 228.701393 
L 648.167158 226.856552 
L 648.414835 226.226582 
L 648.662511 225.986732 
L 648.74507 225.293843 
M 648.910188 224.281901 
L 648.992747 221.703934 
M 649.157865 220.179848 
L 649.57066 213.574424 
L 649.818337 212.662437 
L 649.983455 212.323526 
L 650.231132 209.785118 
L 651.139281 196.831172 
M 651.304399 196.094104 
L 651.469516 193.845196 
L 652.212547 178.710161 
L 652.707901 175.772769 
L 652.873019 175.765801 
L 653.203255 176.101498 
L 653.61605 176.77135 
L 653.698609 177.064361 
M 653.863727 177.231276 
L 654.441639 178.290171 
L 654.524198 178.117495 
L 654.854434 176.711032 
L 655.019552 176.660077 
L 655.267229 176.858461 
L 655.845142 177.762025 
L 657.000968 179.990594 
L 657.083527 180.302138 
M 657.248645 180.466329 
L 659.477737 184.984999 
M 659.642855 185.143234 
L 660.79868 187.455246 
M 660.963798 187.60784 
L 663.523126 192.100519 
L 664.183598 193.334204 
M 664.348716 193.471204 
L 665.504542 195.450445 
M 665.66966 195.581463 
L 666.330131 196.723279 
M 666.495249 196.849404 
L 668.88946 200.429199 
M 669.054577 200.552439 
L 669.467372 201.110664 
L 669.549931 200.232572 
L 669.962726 180.465395 
L 670.210403 179.470671 
L 670.375521 179.389288 
L 670.623198 179.560481 
L 671.118552 180.280435 
L 672.356936 182.561502 
L 673.925557 185.568107 
L 676.650003 190.64869 
M 676.815121 190.799232 
L 679.539567 195.419786 
M 679.704685 195.555792 
L 680.11748 196.315977 
M 680.282598 196.450136 
L 681.273305 198.051384 
M 681.438423 198.179706 
L 681.851218 198.891136 
M 682.016336 199.015441 
L 682.594249 199.943749 
M 682.759367 200.06414 
L 683.33728 200.96598 
M 683.502398 201.083246 
L 687.465228 206.031911 
L 689.611761 208.471252 
M 689.776879 208.562113 
L 692.996679 211.755508 
M 693.326915 211.981095 
L 694.069946 212.696479 
M 694.400182 212.911275 
L 696.95951 215.008716 
M 697.124628 215.073065 
L 697.867659 215.672582 
M 698.032777 215.734793 
L 701.582812 218.103873 
M 701.74793 218.155856 
L 704.637494 219.79415 
M 704.802612 219.838768 
L 709.01312 221.768489 
L 710.994535 222.57184 
M 711.159653 222.604203 
L 713.306186 223.375139 
M 713.471304 223.403474 
L 715.039925 223.916741 
M 715.205043 223.94296 
L 718.012048 224.737018 
M 718.177166 224.758564 
L 718.58996 224.882023 
M 718.755078 224.902868 
L 722.470232 225.732857 
L 725.359796 226.286183 
M 725.524914 226.300936 
L 727.506329 226.635603 
M 727.671447 226.648839 
L 729.07495 226.86683 
M 729.240068 226.878884 
L 731.138924 227.143122 
M 731.304042 227.153948 
L 732.047073 227.255431 
M 732.212191 227.265737 
L 733.285457 227.400089 
M 733.450575 227.40975 
L 735.349432 227.621019 
M 735.51455 227.629785 
L 735.844786 227.670534 
M 736.009903 227.678982 
L 736.175021 227.702817 
M 736.340139 227.711137 
L 736.505257 227.734553 
M 736.670375 227.74273 
L 736.835493 227.765739 
M 737.000611 227.773792 
L 737.165729 227.796397 
M 737.330847 227.804281 
L 737.661083 227.841358 
M 737.826201 227.84914 
L 739.890175 228.029717 
M 740.220411 228.049661 
L 741.293678 228.13734 
M 741.623914 228.155859 
L 743.440211 228.287173 
M 743.605329 228.292846 
L 744.34836 228.345605 
M 744.513478 228.351073 
L 746.577452 228.477742 
M 746.74257 228.482621 
L 747.155365 228.509566 
M 747.320483 228.514262 
L 751.613549 228.725796 
M 751.778667 228.729571 
L 753.429847 228.800935 
M 753.594964 228.804356 
L 757.145 228.935615 
M 757.310118 228.938496 
L 761.025272 229.053764 
M 761.19039 229.056197 
L 763.254364 229.113166 
M 763.419482 229.115379 
L 765.318338 229.163506 
M 765.483456 229.165564 
L 766.721841 229.195476 
M 766.886959 229.197427 
L 766.969518 229.200939 
M 767.134636 229.202858 
L 769.116051 229.246258 
M 769.281169 229.248049 
L 769.611405 229.256224 
M 769.776523 229.25798 
L 770.602113 229.275642 
M 770.767231 229.27734 
L 771.59282 229.294416 
M 771.757938 229.296062 
L 778.197538 229.405591 
M 778.362656 229.40693 
L 781.004543 229.446902 
M 781.169661 229.448143 
L 785.462728 229.507046 
M 785.627845 229.50819 
L 787.361584 229.530981 
M 787.526702 229.53208 
L 788.352292 229.543124 
M 788.517409 229.544195 
L 789.673235 229.558978 
M 789.838353 229.560026 
L 790.663943 229.570638 
M 790.829061 229.571675 
L 799.084958 229.761526 
L 799.993107 231.038607 
M 800.158224 231.149862 
L 800.818696 232.055182 
M 800.983814 232.161364 
L 801.231491 232.546003 
M 801.396609 232.650907 
L 804.038496 235.517949 
L 805.689676 237.164555 
M 805.854794 237.245543 
L 806.185029 237.605923 
M 806.350147 237.683453 
L 808.992034 239.807018 
L 809.157152 239.985853 
M 809.32227 240.050339 
L 811.799039 241.753941 
M 811.964157 241.809003 
L 812.954865 242.436584 
M 813.119983 242.487498 
L 814.110691 243.069097 
M 814.275809 243.116379 
L 815.349075 243.694725 
M 815.514193 243.738206 
L 816.009547 244.007775 
M 816.174665 244.049043 
L 817.330491 244.593297 
M 817.495609 244.630998 
L 817.990962 244.866808 
M 818.15608 244.903287 
L 821.37588 246.064425 
L 821.871234 246.245052 
M 822.036352 246.27264 
L 822.696824 246.493216 
M 822.861942 246.519509 
L 824.513121 246.990892 
M 824.678239 247.014076 
L 827.81548 247.746483 
M 827.980598 247.764629 
L 828.971306 247.971534 
M 829.136424 247.988421 
L 831.943429 248.471072 
M 832.108547 248.484707 
L 833.842285 248.738516 
M 834.007403 248.750288 
L 836.153936 249.018324 
M 836.319054 249.028407 
L 842.015623 249.544501 
L 847.299397 249.87308 
M 847.464515 249.877679 
L 847.712192 249.889617 
L 847.712192 249.889617 
" clip-path="url(#pcf48e784fc)" style="fill: none; stroke: #000000; stroke-opacity: 0.6; stroke-width: 7; stroke-linecap: square"/>
   </g>
   <g id="line2d_12">
    <path d="M 134.072441 469.15924 
L 141.502748 467.77587 
M 141.667866 467.760781 
L 142.493456 467.594968 
M 142.658574 467.579909 
L 143.484164 467.414418 
M 143.649282 467.399388 
L 143.731841 193.422957 
L 143.8144 193.452395 
L 145.217902 193.981476 
M 145.713256 194.128169 
L 150.006323 195.748656 
L 150.501676 196.661655 
M 150.666794 196.791554 
L 151.740061 198.596561 
M 151.905179 198.724523 
L 152.235415 199.362399 
M 152.400533 199.489588 
L 152.64821 199.997061 
M 152.813328 200.123608 
L 153.061005 200.628514 
M 153.226122 200.75442 
L 157.849425 207.601893 
L 158.179661 208.193981 
M 158.344779 208.312021 
L 158.922692 209.251827 
M 159.087809 209.368739 
L 162.555286 214.258158 
M 162.720404 214.365707 
L 163.628553 215.621682 
M 163.793671 215.723567 
L 164.784378 217.011792 
M 164.949496 217.108209 
L 166.683235 219.141784 
M 166.848353 219.230496 
L 167.178589 219.66957 
M 167.343707 219.756504 
L 167.673942 220.18691 
M 167.83906 220.272154 
L 169.737917 222.240641 
M 169.903035 222.319648 
L 173.122835 225.239696 
L 175.351927 227.168199 
M 175.517045 227.234805 
L 178.736845 229.784546 
M 178.901963 229.845603 
L 179.067081 230.028036 
M 179.232199 230.088603 
L 181.708968 231.908285 
M 181.874086 231.965194 
L 182.039204 232.135278 
M 182.204322 232.191759 
L 183.772942 233.299663 
M 183.93806 233.353999 
L 186.662506 235.145128 
M 186.827624 235.196219 
L 189.717188 236.979602 
M 189.882306 237.027653 
L 194.835844 239.778364 
L 195.578875 240.213403 
M 195.743993 240.256568 
L 195.99167 240.428616 
M 196.156788 240.471477 
L 196.899818 240.896821 
M 197.064936 240.939033 
L 197.395172 241.149228 
M 197.56029 241.191096 
L 199.294029 242.098155 
M 199.459147 242.138764 
L 201.275444 243.05873 
M 201.440562 243.098129 
L 201.770798 243.294385 
M 201.935916 243.33349 
L 204.990598 244.785035 
M 205.155716 244.822367 
L 206.146423 245.303868 
M 206.311541 245.340619 
L 207.302249 245.814765 
M 207.467367 245.850965 
L 207.962721 246.103302 
M 208.127839 246.1392 
L 210.604608 247.234454 
M 210.769726 247.269245 
L 211.26508 247.511889 
M 211.430197 247.546427 
L 211.925551 247.753016 
L 212.00811 218.870794 
L 212.090669 218.909783 
L 214.319761 219.989759 
M 214.484879 220.027934 
L 216.548854 221.011979 
M 216.713972 221.049521 
L 218.117474 221.721812 
M 218.282592 221.758981 
L 221.502392 223.232863 
M 221.66751 223.269439 
L 221.915187 223.415634 
M 222.080305 223.452158 
L 223.153571 223.962529 
M 223.318689 223.998925 
L 226.703607 225.523195 
M 226.868725 225.559439 
L 230.914115 227.37586 
M 231.079233 227.412351 
L 231.492028 227.631501 
M 231.657146 227.66806 
L 233.968797 228.732126 
M 234.133915 228.768944 
L 237.271156 230.210368 
M 237.436274 230.247456 
L 237.849068 230.470103 
M 238.014186 230.50723 
L 242.059576 232.35524 
M 242.224694 232.37836 
L 242.472371 232.470803 
M 242.637489 232.493904 
L 242.885166 232.586272 
M 243.050284 232.609354 
L 243.297961 232.701647 
M 243.463078 232.724711 
L 243.710755 232.816928 
M 243.875873 232.839974 
L 246.022407 233.460779 
M 246.187525 233.48372 
L 246.682878 233.6442 
M 246.847996 233.667111 
L 256.17716 236.25472 
M 256.342278 236.277208 
L 260.057432 237.307681 
M 260.22255 237.329997 
L 261.130698 237.59751 
M 261.295816 237.619779 
L 262.781878 238.042208 
M 262.946996 238.064405 
L 263.607468 238.264016 
M 263.772586 238.286177 
L 266.497032 239.037517 
M 266.66215 239.059552 
L 267.735416 239.423271 
M 267.900534 239.449778 
L 267.983093 239.502739 
M 268.148211 239.529191 
L 272.688954 240.976985 
M 272.854072 241.002241 
L 273.597103 241.253556 
M 273.762221 241.278552 
L 275.991313 241.968863 
M 276.156431 241.993211 
L 279.211113 242.904559 
M 279.376231 242.928176 
L 280.862293 243.373299 
M 281.027411 243.396536 
L 281.605323 243.574937 
M 281.770441 243.596236 
L 281.853 243.638824 
M 282.018118 243.660113 
L 283.008826 243.936552 
M 283.173944 243.957792 
L 283.421621 244.042719 
M 283.586739 244.063942 
L 287.219333 245.015428 
M 287.384451 245.036493 
L 295.392672 247.084393 
M 295.55779 247.105123 
L 298.199677 247.787312 
M 298.364795 247.807927 
L 299.933415 248.219534 
M 300.098533 248.240079 
L 300.924123 248.465857 
M 301.089241 248.486362 
L 306.042779 249.730912 
M 306.207897 249.751212 
L 308.436989 250.318275 
M 308.602107 250.33848 
L 312.977733 251.424675 
M 313.142851 251.4447 
L 314.876589 251.88443 
M 315.041707 251.904381 
L 319.252214 252.937355 
M 319.417332 252.957134 
L 320.573158 253.253443 
M 320.738276 253.273171 
L 321.23363 253.411179 
M 321.398748 253.430882 
L 325.113901 254.333756 
M 325.279019 254.353309 
L 333.122122 256.21569 
M 333.28724 256.234938 
L 338.736132 257.517429 
M 338.90125 257.536465 
L 339.561722 257.707652 
M 339.726839 257.726657 
L 343.524552 258.616438 
M 343.68967 258.635296 
L 345.258291 259.011811 
M 345.423409 259.030604 
L 347.157147 259.443294 
M 347.322265 259.462018 
L 347.487383 259.518171 
M 347.652501 259.536882 
L 348.147855 259.667778 
M 348.312973 259.686465 
L 348.808326 259.817191 
M 348.973444 259.835854 
L 349.468798 259.96641 
M 349.633916 259.985048 
L 351.532772 260.431472 
M 351.69789 260.450035 
L 353.34907 260.839169 
M 353.514188 260.857666 
L 354.257218 261.042472 
M 354.422336 261.060936 
L 355.74328 261.374368 
M 355.908398 261.392778 
L 356.238634 261.484784 
M 356.403752 261.503177 
L 359.375875 262.181598 
M 359.540993 262.199877 
L 359.953788 262.30949 
M 360.118905 262.327749 
L 362.678234 262.910458 
M 362.843352 262.928619 
L 365.320121 263.490148 
M 365.485239 263.508215 
L 368.787597 264.246437 
M 368.952715 264.264381 
L 370.769013 264.676292 
M 370.934131 264.694167 
L 371.264367 264.783495 
M 371.429485 264.801352 
L 371.842279 264.908432 
M 372.007397 264.926269 
L 373.493459 265.264616 
M 373.658577 265.282395 
L 374.153931 265.406766 
M 374.319049 265.424522 
L 374.731843 265.530996 
M 374.896961 265.548732 
L 380.510971 266.765564 
M 380.676089 266.783099 
L 384.63892 267.638849 
M 384.804038 267.656242 
L 387.363366 268.211347 
M 387.528484 268.228647 
L 389.179663 268.591312 
M 389.344781 268.608551 
L 391.243638 269.021447 
M 391.408756 269.038616 
L 396.032058 270.012664 
M 396.197176 270.029672 
L 398.508827 270.521712 
M 398.673945 270.538638 
L 403.214689 271.482102 
M 403.544925 271.532403 
L 405.52634 271.950628 
M 405.691458 271.967322 
L 407.425196 272.333899 
M 407.590314 272.35053 
L 408.828699 272.616268 
M 408.993817 272.632853 
L 410.232201 272.897858 
M 410.397319 272.914398 
L 411.388027 273.129174 
M 411.553145 273.145676 
L 415.433416 273.934652 
M 415.598534 273.951023 
L 422.285811 275.284501 
M 422.450929 275.300654 
L 424.102109 275.623156 
L 424.184667 164.912876 
L 424.267226 164.946942 
L 425.918406 165.66105 
M 426.083524 165.694994 
L 426.41376 165.864634 
M 426.578878 165.898546 
L 428.395175 166.676991 
M 428.560293 166.710771 
L 429.303324 167.048266 
M 429.468442 167.081985 
L 431.449857 167.923192 
M 431.614975 167.956769 
L 433.018477 168.56023 
M 433.183595 168.593704 
L 433.761508 168.8613 
M 433.926626 168.894725 
L 438.880164 170.92343 
M 439.045282 170.95652 
L 442.512759 172.374338 
M 442.677877 172.407193 
L 444.494175 173.161386 
M 444.659292 173.194113 
L 444.741851 173.259552 
M 444.906969 173.292263 
L 450.273303 175.439508 
M 450.43842 175.471866 
L 454.153574 176.954645 
M 454.318692 176.986756 
L 454.814046 177.211391 
M 454.979164 177.243461 
L 456.13499 177.723885 
M 456.300107 177.755871 
L 457.455933 178.235049 
M 457.621051 178.266953 
L 462.161794 180.045322 
M 462.326912 180.076932 
L 463.31762 180.487394 
M 463.482738 180.518932 
L 463.895533 180.708054 
M 464.060651 180.739556 
L 468.188599 182.339415 
M 468.353717 182.370652 
L 468.683953 182.526764 
M 468.849071 182.557972 
L 470.995604 183.398654 
M 471.160722 183.429719 
L 478.838707 186.327493 
M 479.003825 186.358083 
L 479.499179 186.572076 
M 479.664296 186.602627 
L 480.077091 186.785827 
M 480.242209 186.816343 
L 482.471301 187.668781 
M 482.636419 187.699154 
L 484.782953 188.517354 
M 484.948071 188.547589 
L 485.525983 188.789292 
M 485.691101 188.819482 
L 486.846927 189.271756 
M 487.012045 189.301869 
L 489.81905 190.352732 
M 489.984168 190.382669 
L 495.598178 192.436633 
M 495.763296 192.466232 
L 498.405183 193.440302 
M 498.570301 193.469738 
L 499.313332 193.76569 
M 499.47845 193.795489 
L 500.634275 194.247052 
M 500.799393 194.277472 
L 501.212188 194.460828 
M 501.377306 194.491527 
L 502.533132 194.956757 
M 502.69825 194.988087 
L 503.771516 195.430794 
M 503.936634 195.462705 
L 505.918049 196.272828 
M 506.083167 196.30572 
L 509.05529 197.548296 
M 509.220408 197.582557 
L 514.091388 199.700346 
M 514.256506 199.736645 
L 516.980952 200.952034 
L 517.063511 144.226624 
L 517.14607 144.273218 
L 517.228629 144.366492 
M 517.393747 144.413172 
L 518.962367 145.352653 
M 519.127485 145.399918 
L 519.622839 145.731536 
M 519.787957 145.779018 
L 522.264726 147.264104 
M 522.429844 147.312425 
L 522.594962 147.457541 
M 522.76008 147.505964 
L 529.282238 151.457556 
M 529.447356 151.507871 
L 531.015977 152.514194 
M 531.181095 152.56473 
L 533.492746 154.039093 
M 533.657864 154.09023 
L 534.731131 154.808146 
M 534.896248 154.859567 
L 541.831202 159.293221 
M 541.99632 159.34606 
L 545.21612 161.470809 
M 545.381238 161.524194 
L 550.00454 164.585914 
M 550.169658 164.63993 
L 553.719694 167.025368 
M 553.884812 167.079765 
L 556.939494 169.097221 
L 557.104612 222.198575 
L 557.352289 222.382836 
M 557.517407 222.428919 
L 563.544212 225.879356 
L 563.626771 225.973128 
M 563.791889 226.019965 
L 565.773304 227.18009 
M 565.938422 227.226058 
L 566.268658 227.455333 
M 566.433776 227.501066 
L 569.488458 229.207168 
M 569.653576 229.251239 
L 570.561724 229.776876 
M 570.726842 229.820421 
L 571.139637 230.037551 
L 573.864083 240.687345 
M 574.029201 240.998373 
L 575.432704 246.575638 
M 575.597822 246.884307 
L 579.478093 261.5549 
M 579.643211 261.857511 
L 580.55136 265.479137 
M 580.716478 265.780132 
L 582.94557 274.157656 
M 583.110688 274.455056 
L 583.77116 277.126071 
M 583.936278 277.422231 
L 584.596749 280.082083 
M 584.761867 280.377002 
L 588.229344 292.368636 
L 589.797965 297.513167 
M 589.963083 297.76049 
L 590.458436 299.466893 
M 590.623554 299.707184 
L 591.118908 301.365606 
M 591.284026 301.59922 
L 593.843354 308.676205 
M 594.008472 308.885833 
L 594.834062 311.150055 
M 594.99918 311.352198 
L 595.081739 311.754701 
M 595.246857 311.955071 
L 597.228272 316.786773 
M 597.39339 316.973441 
L 600.365513 323.409452 
L 600.530631 323.923642 
M 600.695749 324.094372 
L 601.356221 325.616564 
M 601.521339 325.784155 
L 601.769016 326.432457 
L 602.18181 328.309242 
M 602.346928 328.620858 
L 604.988815 338.735847 
M 605.153933 339.037784 
L 606.2272 343.240793 
M 606.392318 343.539379 
L 610.024913 356.739361 
M 610.190031 357.019366 
L 612.006328 363.150047 
M 612.171446 363.403372 
L 612.501682 364.653791 
M 612.6668 364.900648 
L 614.317979 369.84079 
M 614.483097 370.064603 
L 616.051718 374.328819 
M 616.216836 374.531585 
L 618.28081 379.28746 
L 619.354077 381.694611 
M 619.519194 381.859701 
L 621.50061 385.554835 
L 623.399466 388.62941 
L 625.711117 392.000682 
M 625.876235 392.110174 
L 628.270445 395.099041 
L 628.765799 395.767728 
M 628.930917 395.861617 
L 629.343712 396.416425 
M 629.50883 396.507479 
L 631.90304 398.979414 
L 634.29725 401.136973 
L 635.618194 402.257736 
M 635.783312 402.32043 
L 635.865871 402.444749 
M 636.030989 402.506377 
L 638.34264 404.090169 
L 640.654291 405.408144 
L 642.965942 406.471656 
L 643.708973 406.791884 
M 643.874091 406.822216 
L 644.864799 407.188886 
M 645.029917 407.214981 
L 647.341568 407.825747 
L 648.74507 408.098853 
M 648.910188 408.111331 
L 648.992747 408.135439 
M 649.157865 408.147069 
L 651.139281 408.349848 
M 651.304399 408.354397 
L 653.698609 408.391198 
M 653.863727 408.38956 
L 657.083527 408.226799 
M 657.248645 408.221375 
L 659.477737 408.069864 
M 659.642855 408.064465 
L 660.79868 407.983594 
M 660.963798 407.97821 
L 664.183598 407.76355 
M 664.348716 407.758201 
L 665.504542 407.678244 
M 665.66966 407.672971 
L 665.752219 407.667709 
L 665.834778 177.445624 
L 665.917337 177.477746 
L 666.330131 177.670555 
M 666.495249 177.702702 
L 668.88946 178.668162 
M 669.054577 178.700363 
L 676.650003 181.685092 
M 676.815121 181.717008 
L 679.539567 182.798828 
M 679.704685 182.830541 
L 680.11748 183.020681 
M 680.282598 183.052348 
L 681.273305 183.463392 
M 681.438423 183.494961 
L 681.851218 183.684223 
M 682.016336 183.71574 
L 682.594249 183.967608 
M 682.759367 183.999057 
L 683.33728 184.250362 
M 683.502398 184.281738 
L 689.611761 186.609097 
M 689.776879 186.639747 
L 692.996679 187.858321 
M 693.326915 187.949332 
L 694.069946 188.252381 
M 694.400182 188.3432 
L 696.95951 189.30919 
M 697.124628 189.339296 
L 697.867659 189.640091 
M 698.032777 189.670144 
L 701.582812 190.987645 
M 701.74793 191.017479 
L 704.637494 192.088283 
M 704.802612 192.117939 
L 710.994535 194.357719 
M 711.159653 194.387006 
L 713.306186 195.175961 
M 713.471304 195.205116 
L 715.039925 195.787207 
M 715.205043 195.816262 
L 718.012048 196.830222 
M 718.177166 196.859108 
L 718.58996 197.032324 
M 718.755078 197.061177 
L 724.28653 198.983694 
L 725.359796 202.686145 
M 725.524914 202.949819 
L 727.506329 209.507638 
M 727.671447 209.768589 
L 729.07495 214.447751 
M 729.240068 214.706707 
L 731.138924 220.89011 
M 731.304042 221.146437 
L 732.047073 223.703906 
M 732.212191 223.959074 
L 733.285457 227.520337 
M 733.450575 227.773922 
L 735.349432 233.828228 
M 735.51455 234.079168 
L 735.844786 235.332278 
M 736.009903 235.582582 
L 736.175021 236.332858 
M 736.340139 236.582738 
L 736.505257 237.331742 
M 736.670375 237.581198 
L 736.835493 238.328928 
M 737.000611 238.57796 
L 737.165729 239.324416 
M 737.330847 239.573023 
L 737.661083 240.814462 
M 737.826201 241.062431 
L 739.890175 247.472284 
M 740.220411 248.207249 
L 741.293678 251.624392 
M 741.623914 252.353913 
L 743.440211 257.914928 
M 743.605329 258.155427 
L 744.34836 260.554514 
M 744.513478 260.793832 
L 746.577452 266.97841 
M 746.74257 267.214827 
L 747.155365 268.631064 
M 747.320483 268.866727 
L 751.613549 281.202313 
M 751.778667 281.432137 
L 753.429847 286.233387 
M 753.594964 286.460822 
L 757.145 296.36016 
M 757.310118 296.58269 
L 761.025272 306.700662 
M 761.19039 306.91804 
L 763.254364 312.531229 
M 763.419482 312.745633 
L 765.318338 317.858234 
M 765.483456 318.069878 
L 766.721841 321.44113 
M 766.886959 321.650892 
L 766.969518 322.070083 
M 767.134636 322.279513 
L 769.116051 327.479187 
M 769.281169 327.68573 
L 769.611405 328.716777 
M 769.776523 328.922653 
L 770.602113 331.179938 
M 770.767231 331.384478 
L 771.59282 333.627056 
M 771.757938 333.830258 
L 777.784743 348.361782 
L 778.197538 349.529556 
M 778.362656 349.723791 
L 781.004543 356.070306 
M 781.169661 356.260705 
L 785.462728 366.189817 
M 785.627845 366.374094 
L 787.361584 370.399407 
M 787.526702 370.581066 
L 788.352292 372.571785 
M 788.517409 372.752075 
L 789.673235 375.442715 
M 789.838353 375.621177 
L 790.663943 377.576704 
M 790.829061 377.753792 
L 796.443071 389.52648 
L 799.993107 396.860024 
M 800.158224 397.02409 
L 800.818696 398.495456 
M 800.983814 398.658361 
L 801.231491 399.308819 
M 801.396609 399.471143 
L 805.689676 407.907895 
M 805.854794 408.063936 
L 806.185029 408.842395 
M 806.350147 408.997737 
L 809.157152 414.361328 
M 809.32227 414.512477 
L 811.799039 419.140265 
M 811.964157 419.287685 
L 812.954865 421.193545 
M 813.119983 421.339335 
L 814.110691 423.224035 
M 814.275809 423.3682 
L 815.349075 425.374327 
M 815.514193 425.516753 
L 816.009547 426.510498 
M 816.174665 426.651999 
L 817.330491 428.760671 
M 817.495609 428.900327 
L 817.990962 429.874699 
M 818.15608 430.013435 
L 821.871234 436.271586 
M 822.036352 436.404954 
L 822.696824 437.600168 
M 822.861942 437.732403 
L 824.513121 440.48325 
M 824.678239 440.613003 
L 827.81548 445.585957 
M 827.980598 445.711236 
L 828.971306 447.329758 
M 829.136424 447.453483 
L 831.943429 451.714335 
M 832.108547 451.834094 
L 833.842285 454.441121 
M 834.007403 454.558368 
L 836.153936 457.682977 
M 836.319054 457.797187 
L 841.190033 464.345561 
L 846.061013 470.524495 
L 847.299397 472.137289 
M 847.464515 472.237205 
L 847.712192 472.53633 
L 847.712192 472.53633 
" clip-path="url(#pcf48e784fc)" style="fill: none; stroke-dasharray: 25.9,11.2; stroke-dashoffset: 0; stroke: #0000ff; stroke-opacity: 0.6; stroke-width: 7"/>
   </g>
   <g id="line2d_13">
    <path d="M 134.072441 202.520569 
L 141.502748 205.046634 
M 141.667866 205.074186 
L 142.493456 205.376965 
M 142.658574 205.404464 
L 143.484164 205.706654 
M 143.649282 205.734099 
L 145.217902 206.927805 
M 145.713256 207.21919 
L 149.841205 209.982617 
L 150.501676 210.437025 
M 150.666794 210.48494 
L 151.740061 211.103721 
M 151.905179 211.144302 
L 152.235415 211.3402 
M 152.400533 211.377995 
L 152.64821 211.524649 
M 152.813328 211.560192 
L 153.061005 211.697957 
M 153.226122 211.731308 
L 155.372656 212.471505 
L 158.179661 213.391116 
M 158.344779 213.417314 
L 158.922692 213.626744 
M 159.087809 213.652904 
L 162.555286 214.773762 
M 162.720404 214.799735 
L 163.628553 215.111089 
M 163.793671 215.137007 
L 164.784378 215.473569 
M 164.949496 215.499429 
L 166.683235 216.067286 
M 166.848353 216.09305 
L 167.178589 216.221805 
M 167.343707 216.247543 
L 167.673942 216.376173 
M 167.83906 216.401887 
L 169.737917 217.017759 
M 169.903035 217.043368 
L 175.351927 218.749757 
M 175.517045 218.775085 
L 178.736845 219.784849 
M 178.901963 219.810009 
L 179.067081 219.885465 
M 179.232199 219.910609 
L 181.708968 220.688048 
M 181.874086 220.713062 
L 182.039204 220.788079 
M 182.204322 220.813076 
L 183.772942 221.312172 
M 183.93806 221.337085 
L 186.662506 222.181702 
M 186.827624 222.206473 
L 189.717188 223.095564 
M 189.882306 223.120187 
L 195.578875 224.833894 
M 195.743993 224.858235 
L 195.99167 224.955559 
M 196.156788 224.97988 
L 196.899818 225.222873 
M 197.064936 225.24715 
L 197.395172 225.368479 
M 197.56029 225.392733 
L 199.294029 225.925326 
M 199.459147 225.94949 
L 201.275444 226.504172 
M 201.440562 226.528241 
L 201.770798 226.648531 
M 201.935916 226.672577 
L 204.990598 227.583448 
M 205.155716 227.607342 
L 206.146423 227.917618 
M 206.311541 227.941458 
L 207.302249 228.25103 
M 207.467367 228.274816 
L 207.962721 228.441211 
M 208.127839 228.464966 
L 210.604608 229.199471 
M 210.769726 229.223103 
L 211.26508 229.388421 
M 211.430197 229.412023 
L 212.668582 229.877908 
L 214.319761 230.625125 
M 214.484879 230.660369 
L 216.548854 231.566007 
M 216.713972 231.60043 
L 218.117474 232.21485 
M 218.282592 232.248696 
L 221.502392 233.577606 
M 221.66751 233.610201 
L 221.915187 233.740271 
M 222.080305 233.77271 
L 223.071012 234.15956 
L 223.153571 223.583635 
M 223.318689 223.617333 
L 226.703607 225.003456 
M 226.868725 225.03575 
L 230.914115 226.605991 
M 231.079233 226.636474 
L 231.492028 226.81858 
M 231.657146 226.848799 
L 233.968797 227.708151 
M 234.133915 227.737186 
L 237.271156 228.836961 
M 237.436274 228.864305 
L 237.849068 229.027445 
M 238.014186 229.054481 
L 242.059576 230.348501 
M 242.224694 230.373289 
L 242.472371 230.47243 
M 242.637489 230.497216 
L 242.885166 230.596366 
M 243.050284 230.621159 
L 243.297961 230.720356 
M 243.463078 230.745164 
L 243.710755 230.844446 
M 243.875873 230.869281 
L 246.022407 231.543391 
M 246.187525 231.568538 
L 246.682878 231.745036 
M 246.847996 231.77032 
L 254.856217 234.33838 
L 256.17716 234.815617 
M 256.342278 234.843953 
L 260.057432 236.178682 
M 260.22255 236.208368 
L 261.130698 236.566782 
M 261.295816 236.59683 
L 262.781878 237.17296 
M 262.946996 237.203555 
L 263.607468 237.480111 
M 263.772586 237.510973 
L 266.497032 238.575619 
M 266.66215 238.607338 
L 267.735416 239.051683 
M 267.900534 239.083408 
L 267.983093 239.146864 
M 268.148211 239.178592 
L 272.688954 240.952005 
M 272.854072 240.983658 
L 273.597103 241.300104 
M 273.762221 241.331698 
L 275.991313 242.215405 
M 276.156431 242.247036 
L 279.211113 243.458366 
M 279.376231 243.490509 
L 280.862293 244.103986 
M 281.027411 244.136423 
L 281.605323 244.396536 
M 281.770441 244.429143 
L 281.853 244.494424 
M 282.018118 244.527097 
L 283.008826 244.953857 
M 283.173944 244.986838 
L 283.421621 245.118978 
M 283.586739 245.152067 
L 287.219333 246.662834 
M 287.384451 246.696875 
L 295.227554 250.013305 
L 295.310113 123.502101 
L 295.392672 123.614618 
M 295.55779 123.670893 
L 298.199677 125.534034 
M 298.364795 125.590667 
L 299.933415 126.725276 
M 300.098533 126.782101 
L 300.924123 127.40773 
M 301.089241 127.464654 
L 306.042779 130.950491 
M 306.207897 131.007826 
L 308.436989 132.615138 
M 308.602107 132.672604 
L 312.977733 135.78043 
M 313.142851 135.838046 
L 314.876589 137.1059 
M 315.041707 137.16354 
L 319.252214 140.160583 
M 319.417332 140.218195 
L 320.573158 141.082147 
M 320.738276 141.139728 
L 321.23363 141.542724 
M 321.398748 141.600285 
L 325.113901 144.244637 
M 325.279019 144.302033 
L 333.122122 149.785798 
M 333.28724 149.842587 
L 338.736132 153.627274 
M 338.90125 153.683432 
L 339.561722 154.18838 
M 339.726839 154.244432 
L 343.524552 156.866015 
M 343.68967 156.921506 
L 345.258291 158.028667 
M 345.423409 158.083889 
L 347.157147 159.295367 
M 347.322265 159.350277 
L 347.487383 159.514921 
M 347.652501 159.569775 
L 348.147855 159.953351 
M 348.312973 160.008091 
L 348.808326 160.390863 
M 348.973444 160.445487 
L 349.468798 160.827441 
M 349.633916 160.881946 
L 351.532772 162.185537 
M 351.69789 162.23966 
L 353.34907 163.372574 
M 353.514188 163.426344 
L 354.257218 163.963141 
M 354.422336 164.016729 
L 355.74328 164.925139 
M 355.908398 164.978421 
L 356.238634 165.244569 
M 356.403752 165.297746 
L 359.375875 167.252735 
M 359.540993 167.305225 
L 359.953788 167.619769 
M 360.118905 167.672122 
L 362.678234 169.336543 
M 362.843352 169.388226 
L 365.320121 170.978738 
M 365.485239 171.029671 
L 368.787597 173.099268 
M 368.952715 173.149288 
L 370.769013 174.293595 
M 370.934131 174.343078 
L 371.264367 174.590149 
M 371.429485 174.639495 
L 371.842279 174.935088 
M 372.007397 174.984273 
L 373.493459 175.914378 
M 373.658577 175.963097 
L 374.153931 176.303466 
M 374.319049 176.351995 
L 374.731843 176.642669 
M 374.896961 176.691031 
L 380.510971 179.968201 
M 380.676089 180.0148 
L 384.63892 182.265826 
M 384.804038 182.311095 
L 387.363366 183.745186 
M 387.528484 183.789542 
L 389.179663 184.714494 
M 389.344781 184.758226 
L 391.243638 185.79913 
M 391.408756 185.842138 
L 396.032058 188.244292 
M 396.197176 188.285557 
L 398.508827 189.46873 
M 398.673945 189.50906 
L 403.214689 191.716467 
M 403.544925 191.831846 
L 405.52634 192.781731 
M 405.691458 192.819292 
L 407.425196 193.637092 
M 407.590314 193.673874 
L 408.828699 194.257723 
M 408.993817 194.29392 
L 410.232201 194.868369 
M 410.397319 194.903976 
L 411.388027 195.363675 
M 411.553145 195.39879 
L 415.433416 197.042366 
M 415.598534 197.075724 
L 422.285811 199.684902 
M 422.450929 199.715156 
L 424.102109 200.312156 
L 425.918406 207.169835 
M 426.083524 207.466759 
L 426.41376 208.949747 
M 426.578878 209.246016 
L 428.395175 216.02864 
M 428.560293 216.32212 
L 429.303324 219.250158 
M 429.468442 219.542278 
L 431.449857 226.803511 
M 431.614975 227.092254 
L 433.018477 232.266587 
M 433.183595 232.552756 
L 433.761508 234.837146 
M 433.926626 235.122072 
L 438.880164 252.236105 
M 439.045282 281.701211 
L 442.512759 293.236403 
M 442.677877 293.501517 
L 444.494175 299.559624 
M 444.659292 299.821302 
L 444.741851 300.344228 
M 444.906969 300.605477 
L 450.273303 317.531549 
M 450.43842 317.783217 
L 454.153574 329.205391 
M 454.318692 329.450327 
L 454.814046 331.160876 
M 454.979164 331.404669 
L 456.13499 335.044461 
M 456.300107 335.285975 
L 457.455933 338.891613 
M 457.621051 339.130852 
L 462.161794 352.30188 
M 462.326912 352.533042 
L 463.31762 355.525282 
M 463.482738 355.754465 
L 463.895533 357.126601 
M 464.060651 357.354796 
L 468.188599 368.805862 
M 468.353717 369.026733 
L 468.683953 370.128983 
M 468.849071 370.349012 
L 470.995604 376.236718 
M 471.160722 376.452809 
L 476.527056 390.181516 
L 478.838707 396.108149 
M 479.003825 396.310286 
L 479.499179 397.721137 
M 479.664296 397.922113 
L 480.077091 399.125014 
M 480.242209 399.325007 
L 482.471301 404.861894 
M 482.636419 405.057269 
L 484.782953 410.277099 
M 484.948071 410.468482 
L 485.525983 411.994631 
M 485.691101 412.184787 
L 486.846927 415.020815 
M 487.012045 415.208799 
L 489.81905 421.703339 
M 489.984168 421.88648 
L 492.460937 427.318685 
L 492.543496 149.794744 
L 492.626055 150.018695 
L 495.598178 158.206746 
M 495.763296 158.425401 
L 498.405183 165.563429 
M 498.570301 165.777385 
L 499.313332 167.908895 
M 499.47845 168.121234 
L 500.634275 171.288842 
M 500.799393 171.498874 
L 501.212188 172.756082 
M 501.377306 172.965119 
L 502.533132 176.083539 
M 502.69825 176.290287 
L 503.771516 179.169585 
M 503.936634 179.374161 
L 505.918049 184.440888 
M 506.083167 184.641636 
L 509.05529 191.963768 
M 509.220408 192.158783 
L 514.091388 203.575902 
M 514.256506 203.761395 
L 517.14607 210.371363 
L 517.228629 210.949481 
M 517.393747 211.238385 
L 518.962367 216.992211 
M 519.127485 217.278594 
L 519.622839 219.27947 
M 519.787957 219.564752 
L 522.264726 228.332216 
M 522.429844 228.612398 
L 522.594962 229.451888 
M 522.76008 229.731364 
L 528.043854 247.218308 
L 529.282238 251.45891 
M 529.447356 251.72213 
L 531.015977 256.941283 
M 531.181095 257.199965 
L 533.492746 264.606493 
M 533.657864 264.858589 
L 534.731131 268.364683 
M 534.896248 268.613455 
L 539.519551 282.188437 
L 541.831202 288.941778 
M 541.99632 289.171272 
L 545.21612 298.165935 
M 545.381238 298.386169 
L 549.756863 309.734756 
L 550.00454 310.565445 
M 550.169658 310.772551 
L 553.719694 319.661099 
M 553.884812 319.85802 
L 556.939494 326.985137 
L 557.352289 327.166436 
M 557.517407 327.19631 
L 561.23256 328.419179 
L 563.626771 329.084215 
M 563.791889 329.104448 
L 565.773304 329.57319 
M 565.938422 329.590513 
L 566.268658 329.67545 
M 566.433776 329.692081 
L 569.488458 330.23716 
M 569.653576 330.249352 
L 570.561724 330.387608 
M 570.726842 330.398496 
L 573.698965 330.677155 
L 573.864083 330.698639 
M 574.029201 330.705798 
L 575.432704 330.83446 
M 575.597822 330.841597 
L 579.147857 331.14739 
L 579.312975 134.550029 
L 579.395534 134.423233 
L 579.478093 134.483325 
M 579.643211 134.522302 
L 580.55136 134.989863 
M 580.716478 135.028785 
L 582.94557 136.116052 
M 583.110688 136.154791 
L 583.77116 136.503165 
M 583.936278 136.541842 
L 584.596749 136.889651 
M 584.761867 136.928265 
L 589.797965 139.310138 
M 589.963083 139.348359 
L 590.458436 139.615734 
M 590.623554 139.653905 
L 591.118908 139.920933 
M 591.284026 139.959055 
L 593.843354 141.175701 
M 594.008472 141.213619 
L 594.834062 141.630316 
M 594.99918 141.668161 
L 595.081739 141.743832 
M 595.246857 141.781658 
L 597.228272 142.725321 
M 597.39339 142.762988 
L 600.530631 144.22724 
M 600.695749 144.264663 
L 601.356221 144.601199 
M 601.521339 144.638561 
L 602.18181 144.974551 
M 602.346928 145.011853 
L 604.988815 146.239425 
M 605.153933 146.276521 
L 606.2272 146.795242 
M 606.392318 146.832248 
L 610.024913 148.491335 
M 610.190031 148.528066 
L 612.006328 149.371238 
M 612.171446 149.407826 
L 612.501682 149.590679 
M 612.6668 149.627231 
L 614.317979 150.393469 
M 614.483097 150.429892 
L 616.051718 151.157099 
M 616.216836 151.193398 
L 619.354077 152.604452 
M 619.519194 152.640516 
L 625.711117 155.36429 
M 625.876235 155.399905 
L 628.765799 156.678226 
M 628.930917 156.713628 
L 629.343712 156.925922 
M 629.50883 156.961284 
L 635.618194 159.597156 
M 635.783312 159.632085 
L 635.865871 159.701925 
M 636.030989 159.736837 
L 643.708973 162.993359 
M 643.874091 163.027736 
L 644.864799 163.474136 
M 645.029917 163.508435 
L 648.74507 165.080205 
M 648.910188 165.114244 
L 648.992747 165.182305 
M 649.157865 165.216327 
L 651.139281 166.065089 
M 651.304399 166.098968 
L 653.698609 167.112782 
M 653.863727 167.146491 
L 657.083527 168.490369 
M 657.248645 168.523854 
L 659.477737 169.459239 
M 659.642855 169.492567 
L 660.79868 169.991839 
M 660.963798 170.02508 
L 664.183598 171.350329 
M 664.348716 171.383351 
L 665.504542 171.878025 
M 665.66966 171.91096 
L 665.752219 171.94389 
L 666.330131 173.711715 
M 666.495249 173.932437 
L 668.88946 180.525484 
M 669.054577 180.744275 
L 676.650003 200.789748 
M 676.815121 201.002005 
L 679.539567 208.176559 
M 679.704685 208.386331 
L 680.11748 209.643461 
M 680.282598 209.852733 
L 681.273305 212.566772 
M 681.438423 212.775044 
L 681.851218 214.023174 
M 682.016336 214.230945 
L 682.594249 215.890542 
M 682.759367 216.097669 
L 683.33728 217.752114 
M 683.502398 217.958597 
L 689.611761 233.241106 
M 689.776879 233.442162 
L 692.996679 241.426222 
M 693.326915 242.020447 
L 694.069946 243.996575 
M 694.400182 244.588026 
L 696.95951 250.856887 
M 697.124628 251.05161 
L 697.867659 252.994909 
M 698.032777 253.188845 
L 701.582812 261.651032 
M 701.74793 261.841738 
L 704.637494 268.6592 
M 704.802612 268.847241 
L 710.994535 282.926764 
M 711.159653 283.109233 
L 713.306186 288.008467 
M 713.471304 288.188904 
L 715.039925 291.78237 
M 715.205043 291.961264 
L 718.012048 298.16453 
M 718.177166 298.340083 
L 718.58996 299.391614 
M 718.755078 299.566586 
L 725.02956 312.607151 
L 725.359796 313.398233 
M 725.524914 313.553509 
L 727.341211 316.723735 
L 727.506329 317.119884 
M 727.671447 317.25002 
L 729.07495 319.430028 
M 729.240068 319.54217 
L 730.891247 321.589118 
L 731.138924 321.954076 
M 731.304042 322.043019 
L 732.047073 322.882161 
M 732.212191 322.961065 
L 733.285457 323.970794 
M 733.450575 324.03617 
L 734.936637 325.060616 
L 735.349432 325.338437 
M 735.51455 325.381669 
L 735.844786 325.584707 
M 736.009903 325.622696 
L 736.175021 325.73144 
M 736.340139 325.765948 
L 736.505257 325.864269 
M 736.670375 325.89531 
L 736.835493 325.983243 
M 737.000611 326.010827 
L 737.165729 326.088407 
M 737.330847 326.112546 
L 737.661083 326.22036 
M 737.826201 326.239351 
L 739.229703 326.440062 
L 739.890175 326.510667 
M 740.220411 326.534179 
L 741.293678 326.643751 
M 741.623914 326.667198 
L 743.440211 326.846582 
M 743.605329 326.854366 
L 744.34836 326.932138 
M 744.513478 326.939908 
L 746.577452 327.141492 
M 746.74257 327.149229 
L 747.155365 327.19562 
M 747.320483 327.203347 
L 751.613549 327.611114 
M 751.778667 327.618774 
L 753.429847 327.779348 
M 753.594964 327.78698 
L 757.145 328.121597 
M 757.310118 328.129174 
L 761.025272 328.476399 
M 761.19039 328.483918 
L 763.254364 328.679 
M 763.419482 328.686487 
L 765.318338 328.865804 
M 765.483456 328.873261 
L 766.721841 328.992399 
M 766.886959 328.999835 
L 766.969518 329.014703 
M 767.134636 329.022135 
L 769.116051 329.207549 
M 769.281169 329.21495 
L 769.611405 329.251937 
M 769.776523 329.259331 
L 770.602113 329.340583 
M 770.767231 329.347962 
L 771.59282 329.429056 
M 771.757938 329.436421 
L 778.197538 330.014493 
M 778.362656 330.021763 
L 781.004543 330.261012 
M 781.169661 330.268241 
L 785.462728 330.649755 
M 785.627845 330.656922 
L 787.361584 330.814299 
M 787.526702 330.821439 
L 788.352292 330.899904 
M 788.517409 330.907031 
L 789.673235 331.013786 
M 789.838353 331.020894 
L 790.663943 331.099003 
M 790.829061 331.106097 
L 799.993107 331.893378 
M 800.158224 331.900343 
L 800.818696 331.962978 
M 800.983814 331.969931 
L 801.231491 331.997735 
M 801.396609 332.004683 
L 805.689676 332.371323 
M 805.854794 332.37821 
L 806.185029 332.412631 
M 806.350147 332.419512 
L 809.157152 332.659636 
M 809.32227 332.666476 
L 811.799039 332.877987 
M 811.964157 332.884792 
L 812.954865 332.97316 
M 813.119983 332.97995 
L 814.110691 333.068117 
M 814.275809 333.074891 
L 815.349075 333.169617 
M 815.514193 333.176375 
L 816.009547 333.223649 
M 816.174665 333.230398 
L 817.330491 333.331504 
M 817.495609 333.338236 
L 817.990962 333.385326 
M 818.15608 333.392049 
L 821.871234 333.700125 
M 822.036352 333.706797 
L 822.696824 333.766795 
M 822.861942 333.773455 
L 824.513121 333.913086 
M 824.678239 333.919724 
L 827.81548 334.177737 
M 827.980598 334.184331 
L 828.971306 334.26996 
M 829.136424 334.276539 
L 831.943429 334.506143 
M 832.108547 334.512684 
L 833.842285 334.656318 
M 834.007403 334.662834 
L 836.153936 334.838383 
M 836.319054 334.84487 
L 847.299397 335.704681 
M 847.464515 335.711027 
L 847.712192 335.730061 
L 847.712192 335.730061 
" clip-path="url(#pcf48e784fc)" style="fill: none; stroke-dasharray: 7,11.55; stroke-dashoffset: 0; stroke: #008000; stroke-opacity: 0.6; stroke-width: 7"/>
   </g>
   <g id="line2d_14">
    <path d="M 134.072441 299.418744 
L 138.282949 300.175171 
L 141.502748 300.659127 
M 141.667866 300.671162 
L 142.493456 300.803411 
M 142.658574 300.815422 
L 143.484164 300.947413 
M 143.649282 300.959401 
L 145.217902 301.198743 
M 145.713256 301.258458 
L 150.501676 301.95944 
M 150.666794 301.971263 
L 151.740061 302.136588 
M 151.905179 302.148383 
L 152.235415 302.207327 
M 152.400533 302.21911 
L 152.64821 302.266223 
M 152.813328 302.277996 
L 153.061005 302.325071 
M 153.226122 302.336835 
L 158.179661 303.050838 
M 158.344779 303.062484 
L 158.922692 303.155585 
M 159.087809 303.167214 
L 162.555286 303.665487 
M 162.720404 303.677033 
L 163.628553 303.815444 
M 163.793671 303.826966 
L 164.784378 303.976583 
M 164.949496 303.988079 
L 166.683235 304.240518 
M 166.848353 304.251971 
L 167.178589 304.309208 
M 167.343707 304.32065 
L 167.673942 304.377832 
M 167.83906 304.389263 
L 169.737917 304.663046 
M 169.903035 304.67443 
L 175.351927 305.432998 
M 175.517045 305.444257 
L 178.736845 305.893144 
M 178.901963 305.904328 
L 179.067081 305.937872 
M 179.232199 305.94905 
L 181.708968 306.294657 
M 181.874086 306.305777 
L 182.039204 306.339125 
M 182.204322 306.350237 
L 183.772942 306.572109 
M 183.93806 306.583183 
L 186.662506 306.958654 
M 186.827624 306.969666 
L 189.717188 307.364907 
M 189.882306 307.375853 
L 195.578875 308.137674 
M 195.743993 308.148495 
L 195.99167 308.19176 
M 196.156788 308.202572 
L 196.899818 308.310593 
M 197.064936 308.321386 
L 197.395172 308.375322 
M 197.56029 308.386104 
L 199.294029 308.622866 
M 199.459147 308.633607 
L 200.284736 308.74093 
L 200.367295 212.829123 
L 200.449854 212.855413 
L 201.275444 213.144311 
M 201.440562 213.170549 
L 201.770798 213.301675 
M 201.935916 213.327888 
L 204.990598 214.320814 
M 205.155716 214.346861 
L 206.146423 214.685087 
M 206.311541 214.711075 
L 207.302249 215.048534 
M 207.467367 215.074463 
L 207.962721 215.255848 
M 208.127839 215.281743 
L 210.604608 216.082415 
M 210.769726 216.108176 
L 211.26508 216.288387 
M 211.430197 216.314114 
L 214.319761 217.237535 
M 214.484879 217.263109 
L 216.548854 217.926568 
M 216.713972 217.95203 
L 218.117474 218.409637 
M 218.282592 218.43502 
L 221.502392 219.446985 
M 221.66751 219.4722 
L 221.915187 219.573019 
M 222.080305 219.598214 
L 223.153571 219.950509 
M 223.318689 219.975642 
L 226.703607 221.027566 
M 226.868725 221.052525 
L 230.914115 222.295299 
M 231.079233 222.320052 
L 231.492028 222.468484 
M 231.657146 222.493209 
L 233.968797 223.208481 
M 234.133915 223.233086 
L 237.271156 224.189555 
M 237.436274 224.214 
L 237.849068 224.360589 
M 238.014186 224.385006 
L 242.059576 225.600845 
M 242.224694 225.625061 
L 242.472371 225.721887 
M 242.637489 225.746084 
L 242.885166 225.842831 
M 243.050284 225.867008 
L 243.297961 225.963677 
M 243.463078 225.987834 
L 243.710755 226.084424 
M 243.875873 226.108562 
L 246.022407 226.758804 
M 246.187525 226.782832 
L 246.682878 226.950921 
M 246.847996 226.974918 
L 256.17716 229.685219 
M 256.342278 229.708772 
L 260.057432 230.788106 
M 260.22255 230.81148 
L 261.130698 231.091677 
M 261.295816 231.115002 
L 262.781878 231.55746 
M 262.946996 231.58071 
L 263.607468 231.789786 
M 263.772586 231.812998 
L 266.497032 232.599962 
M 266.66215 232.623042 
L 267.735416 232.945773 
M 267.900534 232.968797 
L 267.983093 233.014835 
M 268.148211 233.037848 
L 272.688954 234.320631 
M 272.854072 234.343432 
L 273.597103 234.571239 
M 273.762221 234.594 
L 275.991313 235.229793 
M 276.156431 235.252446 
L 279.211113 236.11056 
M 279.376231 236.133071 
L 280.862293 236.560078 
M 281.027411 236.582515 
L 281.605323 236.761885 
M 281.770441 236.78429 
L 281.853 236.829088 
M 282.018118 236.851482 
L 283.008826 237.142273 
M 283.173944 237.164616 
L 283.421621 237.253952 
M 283.586739 237.276277 
L 287.219333 238.27716 
M 287.384451 238.299319 
L 295.227554 240.388099 
L 295.392672 241.346277 
M 295.55779 241.665004 
L 298.199677 252.013631 
M 298.364795 252.322018 
L 299.933415 258.425419 
M 300.098533 258.727394 
L 300.924123 262.029324 
M 301.089241 262.327712 
L 305.547425 278.015621 
L 306.042779 279.9903 
M 306.207897 280.271328 
L 308.436989 288.033123 
M 308.602107 288.306548 
L 312.977733 302.692469 
M 313.142851 302.951942 
L 314.876589 308.597415 
M 315.041707 308.851177 
L 319.252214 321.708573 
M 319.417332 321.949364 
L 319.995245 323.628108 
L 320.077804 135.445996 
L 320.160363 135.715186 
L 320.573158 137.325152 
M 320.738276 137.592618 
L 321.23363 139.457995 
M 321.398748 139.723495 
L 325.113901 151.672599 
M 325.279019 151.926656 
L 329.819763 165.52954 
L 333.122122 175.201725 
M 333.28724 175.432709 
L 337.662865 187.34353 
L 338.736132 190.381994 
M 338.90125 190.597316 
L 339.561722 192.524977 
M 339.726839 192.738026 
L 343.524552 202.497011 
M 343.68967 202.699273 
L 345.258291 206.697882 
M 345.423409 206.895487 
L 347.157147 211.186979 
M 347.322265 211.379517 
L 347.487383 211.955818 
M 347.652501 212.14748 
L 348.147855 213.482996 
M 348.312973 213.672911 
L 348.808326 214.996215 
M 348.973444 215.184389 
L 349.468798 216.495525 
M 349.633916 216.681964 
L 351.532772 221.091947 
M 351.69789 221.273017 
L 353.34907 225.026297 
M 353.514188 225.20269 
L 354.257218 226.954994 
M 354.422336 227.129065 
L 354.91769 228.169073 
L 355.000249 151.328711 
L 355.082808 151.5136 
L 355.74328 153.168087 
M 355.908398 153.350865 
L 356.238634 154.261592 
M 356.403752 154.443107 
L 359.375875 161.012332 
M 359.540993 161.185937 
L 359.953788 162.223239 
M 360.118905 162.395403 
L 362.678234 167.796299 
M 362.843352 167.961709 
L 365.320121 172.987174 
M 365.485239 173.145958 
L 368.787597 179.482835 
M 368.952715 179.633221 
L 370.769013 183.03815 
M 370.934131 183.183859 
L 371.264367 183.909509 
M 371.429485 184.054061 
L 371.842279 184.917341 
M 372.007397 185.06055 
L 373.493459 187.745321 
M 373.658577 187.88473 
L 374.153931 188.855313 
M 374.319049 188.993217 
L 374.731843 189.816702 
M 374.896961 189.953296 
L 378.859792 196.29256 
L 379.8505 197.810689 
L 379.933059 145.83418 
L 380.015618 145.967783 
L 380.510971 146.897952 
M 380.676089 147.030115 
L 384.63892 153.290092 
M 384.804038 153.413501 
L 387.363366 157.272821 
M 387.528484 157.390647 
L 389.179663 159.826638 
M 389.344781 159.940825 
L 391.243638 162.632475 
M 391.408756 162.742609 
L 395.371586 167.843072 
L 396.032058 168.75955 
M 396.197176 168.860619 
L 398.508827 171.72601 
M 398.673945 171.822576 
L 402.636776 176.286518 
L 403.214689 176.998514 
M 403.544925 177.263201 
L 405.52634 179.420566 
M 405.691458 179.505081 
L 407.425196 181.330421 
M 407.590314 181.411858 
L 408.828699 182.697003 
M 408.993817 182.776214 
L 410.232201 184.026106 
M 410.397319 184.103136 
L 411.388027 185.093044 
M 411.553145 185.168311 
L 415.433416 188.637108 
M 415.598534 188.706435 
L 419.726483 192.026371 
L 422.285811 194.006073 
M 422.450929 194.066185 
L 425.175375 195.910362 
L 425.918406 196.30981 
M 426.083524 196.34449 
L 426.248642 279.332886 
L 426.41376 279.385131 
M 426.578878 279.400648 
L 428.395175 279.756158 
M 428.560293 279.771585 
L 429.303324 279.925716 
M 429.468442 279.941116 
L 431.449857 280.325289 
M 431.614975 280.340623 
L 433.018477 280.616219 
M 433.183595 280.631506 
L 433.761508 280.753716 
M 433.926626 280.76898 
L 438.880164 281.695474 
M 439.045282 281.710587 
L 442.512759 282.358093 
M 442.677877 282.373098 
L 444.494175 282.717532 
M 444.659292 282.732478 
L 444.741851 282.762363 
M 444.906969 282.777302 
L 450.273303 283.757933 
M 450.43842 283.77271 
L 454.153574 284.449884 
M 454.318692 284.464549 
L 454.814046 284.567138 
M 454.979164 284.581784 
L 456.13499 284.80119 
M 456.300107 284.815798 
L 457.455933 285.034635 
M 457.621051 285.049205 
L 458.446641 285.194777 
L 458.5292 281.060569 
L 458.611759 281.075784 
L 462.161794 281.742813 
M 462.326912 281.757917 
L 463.31762 281.954052 
M 463.482738 281.969122 
L 463.895533 282.059492 
M 464.060651 282.074545 
L 468.188599 282.83902 
M 468.353717 282.853946 
L 468.683953 282.928542 
M 468.849071 282.943454 
L 470.995604 283.345165 
M 471.160722 283.360009 
L 478.838707 284.744678 
M 479.003825 284.759296 
L 479.499179 284.86155 
M 479.664296 284.876148 
L 480.077091 284.963688 
M 480.242209 284.97827 
L 482.471301 285.385598 
M 482.636419 285.400111 
L 484.782953 285.791079 
M 484.948071 285.805527 
L 485.525983 285.921022 
M 485.691101 285.935448 
L 486.846927 286.151562 
M 487.012045 286.165951 
L 489.81905 286.668094 
M 489.984168 286.682399 
L 492.460937 287.110474 
L 494.690029 292.979496 
L 495.598178 295.387866 
M 495.763296 295.583074 
L 497.909829 300.366564 
L 498.405183 301.559796 
M 498.570301 301.727032 
L 499.313332 303.355184 
M 499.47845 303.513587 
L 500.634275 305.794837 
M 500.799393 305.940655 
L 501.212188 306.799293 
M 501.377306 306.939698 
L 502.533132 308.954047 
M 502.69825 309.082267 
L 503.771516 310.798608 
M 503.936634 310.915613 
L 505.918049 313.601727 
M 506.083167 313.699689 
L 507.899465 315.672789 
L 509.05529 316.820375 
M 509.220408 316.891238 
L 510.871588 318.161782 
L 512.522767 319.156073 
L 514.091388 319.87901 
M 514.256506 319.908125 
L 515.825126 320.335758 
L 517.228629 320.537143 
M 517.393747 320.545951 
L 518.962367 320.721814 
M 519.127485 320.730592 
L 519.622839 320.791999 
M 519.787957 320.800766 
L 522.264726 321.071832 
M 522.429844 321.080553 
L 522.594962 321.106709 
M 522.76008 321.115424 
L 529.282238 321.808117 
M 529.447356 321.816719 
L 531.015977 321.988463 
M 531.181095 321.997036 
L 533.492746 322.245036 
M 533.657864 322.253567 
L 534.731131 322.372855 
M 534.896248 322.381366 
L 541.831202 323.099708 
M 541.99632 323.1081 
L 545.21612 323.442675 
M 545.381238 323.451011 
L 550.00454 323.923966 
M 550.169658 323.932225 
L 553.719694 324.294273 
M 553.884812 324.302472 
L 557.352289 324.653745 
M 557.517407 324.661885 
L 563.626771 325.268637 
M 563.791889 325.276677 
L 565.773304 325.477259 
M 565.938422 325.485265 
L 566.268658 325.525277 
M 566.433776 325.533276 
L 569.488458 325.836262 
M 569.653576 325.84421 
L 570.561724 325.939486 
M 570.726842 325.947418 
L 573.864083 326.255738 
M 574.029201 326.263618 
L 575.432704 326.40524 
M 575.597822 326.413096 
L 579.147857 326.74969 
L 579.478093 328.08481 
M 579.643211 328.351316 
L 580.55136 331.538207 
M 580.716478 331.80286 
L 582.94557 339.156594 
M 583.110688 339.4172 
L 583.77116 341.756247 
M 583.936278 342.015423 
L 584.596749 344.34145 
M 584.761867 344.599162 
L 589.797965 360.268765 
M 589.963083 360.515658 
L 590.458436 362.238662 
M 590.623554 362.484076 
L 591.118908 364.197029 
M 591.284026 364.441028 
L 593.843354 372.155169 
M 594.008472 372.393302 
L 594.834062 375.001087 
M 594.99918 375.237106 
L 595.081739 375.708618 
M 595.246857 375.944109 
L 597.228272 381.77139 
M 597.39339 382.002117 
L 600.530631 390.863322 
M 600.695749 391.087045 
L 601.356221 393.092781 
M 601.521339 393.31478 
L 602.18181 395.305056 
M 602.346928 395.525341 
L 604.988815 402.699141 
M 605.153933 402.91364 
L 606.2272 405.898851 
M 606.392318 406.110813 
L 610.024913 415.475271 
M 610.190031 415.679531 
L 612.006328 420.33193 
M 612.171446 420.532234 
L 612.501682 421.531298 
M 612.6668 421.730621 
L 614.317979 425.878789 
M 614.483097 426.074537 
L 616.051718 429.955715 
M 616.216836 430.148091 
L 619.354077 437.527064 
M 619.519194 437.71312 
L 624.472733 448.59339 
L 625.711117 451.401979 
M 625.876235 451.576235 
L 628.765799 457.74995 
M 628.930917 457.918692 
L 629.343712 458.928042 
M 629.50883 459.09575 
L 634.379809 468.7321 
L 635.618194 471.258747 
M 635.783312 471.41545 
L 635.865871 471.728428 
M 636.030989 471.884704 
L 640.819409 480.707554 
L 643.708973 485.948571 
M 643.874091 486.091617 
L 644.864799 487.938819 
M 645.029917 488.07996 
L 648.74507 494.426635 
M 648.910188 494.561431 
L 648.992747 494.830589 
M 649.157865 494.964956 
L 651.139281 498.2767 
M 651.304399 498.407207 
L 653.698609 502.250854 
M 653.863727 502.376632 
L 657.083527 507.291576 
M 657.248645 507.411572 
L 659.477737 510.715273 
M 659.642855 510.831269 
L 660.79868 512.554847 
M 660.963798 512.668665 
L 664.183598 517.111366 
M 664.348716 517.219706 
L 665.504542 518.829041 
M 665.66966 518.935282 
L 666.330131 519.86278 
M 666.495249 519.962166 
L 668.311547 521.966104 
L 668.88946 522.608925 
M 669.054577 522.686073 
L 670.705757 524.077622 
L 672.356936 525.179459 
L 673.925557 525.958296 
L 675.411618 526.455427 
L 676.650003 526.700499 
M 676.815121 526.709664 
L 678.301182 526.750838 
L 679.539567 526.590553 
M 679.704685 526.574384 
L 680.11748 526.462181 
M 680.282598 526.44095 
L 681.273305 526.127581 
M 681.438423 526.103022 
L 681.851218 525.955751 
M 682.016336 525.93122 
L 682.594249 525.735113 
M 682.759367 525.710618 
L 683.33728 525.514798 
M 683.502398 525.490338 
L 689.611761 523.667132 
M 689.776879 523.642972 
L 692.996679 522.679789 
M 693.326915 522.607803 
L 694.069946 522.368099 
M 694.400182 522.296264 
L 696.95951 521.532194 
M 697.124628 521.508381 
L 697.867659 521.270461 
M 698.032777 521.24669 
L 701.582812 520.204585 
M 701.74793 520.180987 
L 704.637494 519.334012 
M 704.802612 519.310555 
L 710.994535 517.538953 
M 711.159653 517.515788 
L 713.306186 516.891747 
M 713.471304 516.868687 
L 715.039925 516.40827 
M 715.205043 516.385288 
L 718.012048 515.583275 
M 718.177166 515.560427 
L 718.58996 515.423418 
M 718.755078 515.400596 
L 725.359796 513.564276 
M 725.524914 513.541756 
L 727.506329 512.979939 
M 727.671447 512.957514 
L 729.07495 512.554481 
M 729.240068 512.532125 
L 731.138924 511.996663 
M 731.304042 511.974398 
L 732.047073 511.75194 
M 732.212191 511.729714 
L 733.285457 511.418929 
M 733.450575 511.396757 
L 735.349432 510.865709 
M 735.51455 510.843627 
L 735.844786 510.73327 
M 736.009903 510.71121 
L 736.175021 510.645049 
M 736.340139 510.623003 
L 736.505257 510.556886 
M 736.670375 510.534854 
L 736.835493 510.468779 
M 737.000611 510.446761 
L 737.165729 510.38073 
M 737.330847 510.358726 
L 737.661083 510.248763 
M 737.826201 510.226781 
L 739.890175 509.6565 
M 740.220411 509.590853 
L 741.293678 509.284923 
M 741.623914 509.219457 
L 743.440211 508.718608 
M 743.605329 508.696874 
L 744.34836 508.479732 
M 744.513478 508.458037 
L 746.577452 507.895204 
M 746.74257 507.873604 
L 747.155365 507.744078 
M 747.320483 507.722502 
L 751.613549 506.583999 
M 751.778667 506.562611 
L 753.429847 506.114281 
M 753.594964 506.09297 
L 757.145 505.158704 
M 757.310118 505.137548 
L 761.025272 504.168081 
M 761.19039 504.147086 
L 763.254364 503.602407 
M 763.419482 503.581504 
L 765.318338 503.080842 
M 765.483456 503.060023 
L 766.721841 502.727384 
M 766.886959 502.706623 
L 766.969518 502.66511 
M 767.134636 502.644359 
L 769.116051 502.126673 
M 769.281169 502.106009 
L 769.611405 502.002741 
M 769.776523 501.982097 
L 770.602113 501.755238 
M 770.767231 501.734634 
L 771.59282 501.508217 
M 771.757938 501.487653 
L 778.197538 499.873646 
M 778.362656 499.853348 
L 781.004543 499.185355 
M 781.169661 499.165169 
L 785.462728 498.099965 
M 785.627845 498.079955 
L 787.361584 497.64055 
M 787.526702 497.620614 
L 788.352292 497.401535 
M 788.517409 497.381638 
L 789.673235 497.083572 
M 789.838353 497.063727 
L 790.663943 496.845641 
M 790.829061 496.825835 
L 799.993107 494.627708 
M 800.158224 494.608262 
L 800.818696 494.433383 
M 800.983814 494.413968 
L 801.231491 494.336339 
M 801.396609 494.31694 
L 805.689676 493.293264 
M 805.854794 493.274034 
L 806.185029 493.17793 
M 806.350147 493.158719 
L 809.157152 492.48828 
M 809.32227 492.469181 
L 811.799039 491.878632 
M 811.964157 491.859632 
L 812.954865 491.612905 
M 813.119983 491.593948 
L 814.110691 491.347782 
M 814.275809 491.328867 
L 815.349075 491.064388 
M 815.514193 491.04552 
L 816.009547 490.913527 
M 816.174665 490.894683 
L 817.330491 490.612392 
M 817.495609 490.593597 
L 817.990962 490.462117 
M 818.15608 490.443346 
L 821.871234 489.583183 
M 822.036352 489.564555 
L 822.696824 489.397039 
M 822.861942 489.378441 
L 824.513121 488.988585 
M 824.678239 488.970053 
L 827.81548 488.249667 
M 827.980598 488.231256 
L 828.971306 487.992177 
M 829.136424 487.973808 
L 831.943429 487.332741 
M 832.108547 487.314478 
L 833.842285 486.913447 
M 834.007403 486.895253 
L 836.153936 486.405111 
M 836.319054 486.386999 
L 847.299397 483.986366 
M 847.464515 483.968647 
L 847.712192 483.915505 
L 847.712192 483.915505 
" clip-path="url(#pcf48e784fc)" style="fill: none; stroke-dasharray: 44.8,11.2,7,11.2; stroke-dashoffset: 0; stroke: #ff0000; stroke-opacity: 0.6; stroke-width: 7"/>
   </g>
   <g id="patch_3">
    <path d="M 134.155 612.92 
L 134.155 17.64 
" style="fill: none; stroke: #000000; stroke-width: 0.8; stroke-linejoin: miter; stroke-linecap: square"/>
   </g>
   <g id="patch_4">
    <path d="M 847.629633 612.92 
L 847.629633 17.64 
" style="fill: none; stroke: #000000; stroke-width: 0.8; stroke-linejoin: miter; stroke-linecap: square"/>
   </g>
   <g id="patch_5">
    <path d="M 134.155 612.92 
L 847.629633 612.92 
" style="fill: none; stroke: #000000; stroke-width: 0.8; stroke-linejoin: miter; stroke-linecap: square"/>
   </g>
   <g id="patch_6">
    <path d="M 134.155 17.64 
L 847.629633 17.64 
" style="fill: none; stroke: #000000; stroke-width: 0.8; stroke-linejoin: miter; stroke-linecap: square"/>
   </g>
   <g id="text_12">
    <!-- 4 RMSE: 11.33 m -->
    <g transform="translate(276.849927 493.864) scale(0.1728 -0.1728)">
     <defs>
      <path id="DejaVuSans-52" d="M 2841 2188 
Q 3044 2119 3236 1894 
Q 3428 1669 3622 1275 
L 4263 0 
L 3584 0 
L 2988 1197 
Q 2756 1666 2539 1819 
Q 2322 1972 1947 1972 
L 1259 1972 
L 1259 0 
L 628 0 
L 628 4666 
L 2053 4666 
Q 2853 4666 3247 4331 
Q 3641 3997 3641 3322 
Q 3641 2881 3436 2590 
Q 3231 2300 2841 2188 
z
M 1259 4147 
L 1259 2491 
L 2053 2491 
Q 2509 2491 2742 2702 
Q 2975 2913 2975 3322 
Q 2975 3731 2742 3939 
Q 2509 4147 2053 4147 
L 1259 4147 
z
" transform="scale(0.015625)"/>
      <path id="DejaVuSans-4d" d="M 628 4666 
L 1569 4666 
L 2759 1491 
L 3956 4666 
L 4897 4666 
L 4897 0 
L 4281 0 
L 4281 4097 
L 3078 897 
L 2444 897 
L 1241 4097 
L 1241 0 
L 628 0 
L 628 4666 
z
" transform="scale(0.015625)"/>
      <path id="DejaVuSans-53" d="M 3425 4513 
L 3425 3897 
Q 3066 4069 2747 4153 
Q 2428 4238 2131 4238 
Q 1616 4238 1336 4038 
Q 1056 3838 1056 3469 
Q 1056 3159 1242 3001 
Q 1428 2844 1947 2747 
L 2328 2669 
Q 3034 2534 3370 2195 
Q 3706 1856 3706 1288 
Q 3706 609 3251 259 
Q 2797 -91 1919 -91 
Q 1588 -91 1214 -16 
Q 841 59 441 206 
L 441 856 
Q 825 641 1194 531 
Q 1563 422 1919 422 
Q 2459 422 2753 634 
Q 3047 847 3047 1241 
Q 3047 1584 2836 1778 
Q 2625 1972 2144 2069 
L 1759 2144 
Q 1053 2284 737 2584 
Q 422 2884 422 3419 
Q 422 4038 858 4394 
Q 1294 4750 2059 4750 
Q 2388 4750 2728 4690 
Q 3069 4631 3425 4513 
z
" transform="scale(0.015625)"/>
      <path id="DejaVuSans-45" d="M 628 4666 
L 3578 4666 
L 3578 4134 
L 1259 4134 
L 1259 2753 
L 3481 2753 
L 3481 2222 
L 1259 2222 
L 1259 531 
L 3634 531 
L 3634 0 
L 628 0 
L 628 4666 
z
" transform="scale(0.015625)"/>
      <path id="DejaVuSans-3a" d="M 750 794 
L 1409 794 
L 1409 0 
L 750 0 
L 750 794 
z
M 750 3309 
L 1409 3309 
L 1409 2516 
L 750 2516 
L 750 3309 
z
" transform="scale(0.015625)"/>
     </defs>
     <use xlink:href="#DejaVuSans-34"/>
     <use xlink:href="#DejaVuSans-20" x="63.623047"/>
     <use xlink:href="#DejaVuSans-52" x="95.410156"/>
     <use xlink:href="#DejaVuSans-4d" x="164.892578"/>
     <use xlink:href="#DejaVuSans-53" x="251.171875"/>
     <use xlink:href="#DejaVuSans-45" x="314.648438"/>
     <use xlink:href="#DejaVuSans-3a" x="377.832031"/>
     <use xlink:href="#DejaVuSans-20" x="411.523438"/>
     <use xlink:href="#DejaVuSans-31" x="443.310547"/>
     <use xlink:href="#DejaVuSans-31" x="506.933594"/>
     <use xlink:href="#DejaVuSans-2e" x="570.556641"/>
     <use xlink:href="#DejaVuSans-33" x="602.34375"/>
     <use xlink:href="#DejaVuSans-33" x="665.966797"/>
     <use xlink:href="#DejaVuSans-20" x="729.589844"/>
     <use xlink:href="#DejaVuSans-6d" x="761.376953"/>
    </g>
   </g>
   <g id="text_13">
    <!-- 6 RMSE: 7.93 m -->
    <g transform="translate(276.849927 523.628) scale(0.1728 -0.1728)">
     <defs>
      <path id="DejaVuSans-36" d="M 2113 2584 
Q 1688 2584 1439 2293 
Q 1191 2003 1191 1497 
Q 1191 994 1439 701 
Q 1688 409 2113 409 
Q 2538 409 2786 701 
Q 3034 994 3034 1497 
Q 3034 2003 2786 2293 
Q 2538 2584 2113 2584 
z
M 3366 4563 
L 3366 3988 
Q 3128 4100 2886 4159 
Q 2644 4219 2406 4219 
Q 1781 4219 1451 3797 
Q 1122 3375 1075 2522 
Q 1259 2794 1537 2939 
Q 1816 3084 2150 3084 
Q 2853 3084 3261 2657 
Q 3669 2231 3669 1497 
Q 3669 778 3244 343 
Q 2819 -91 2113 -91 
Q 1303 -91 875 529 
Q 447 1150 447 2328 
Q 447 3434 972 4092 
Q 1497 4750 2381 4750 
Q 2619 4750 2861 4703 
Q 3103 4656 3366 4563 
z
" transform="scale(0.015625)"/>
     </defs>
     <use xlink:href="#DejaVuSans-36"/>
     <use xlink:href="#DejaVuSans-20" x="63.623047"/>
     <use xlink:href="#DejaVuSans-52" x="95.410156"/>
     <use xlink:href="#DejaVuSans-4d" x="164.892578"/>
     <use xlink:href="#DejaVuSans-53" x="251.171875"/>
     <use xlink:href="#DejaVuSans-45" x="314.648438"/>
     <use xlink:href="#DejaVuSans-3a" x="377.832031"/>
     <use xlink:href="#DejaVuSans-20" x="411.523438"/>
     <use xlink:href="#DejaVuSans-37" x="443.310547"/>
     <use xlink:href="#DejaVuSans-2e" x="506.933594"/>
     <use xlink:href="#DejaVuSans-39" x="538.720703"/>
     <use xlink:href="#DejaVuSans-33" x="602.34375"/>
     <use xlink:href="#DejaVuSans-20" x="665.966797"/>
     <use xlink:href="#DejaVuSans-6d" x="697.753906"/>
    </g>
   </g>
   <g id="text_14">
    <!-- 7 RMSE: 22.74 m -->
    <g transform="translate(276.849927 553.392) scale(0.1728 -0.1728)">
     <use xlink:href="#DejaVuSans-37"/>
     <use xlink:href="#DejaVuSans-20" x="63.623047"/>
     <use xlink:href="#DejaVuSans-52" x="95.410156"/>
     <use xlink:href="#DejaVuSans-4d" x="164.892578"/>
     <use xlink:href="#DejaVuSans-53" x="251.171875"/>
     <use xlink:href="#DejaVuSans-45" x="314.648438"/>
     <use xlink:href="#DejaVuSans-3a" x="377.832031"/>
     <use xlink:href="#DejaVuSans-20" x="411.523438"/>
     <use xlink:href="#DejaVuSans-32" x="443.310547"/>
     <use xlink:href="#DejaVuSans-32" x="506.933594"/>
     <use xlink:href="#DejaVuSans-2e" x="570.556641"/>
     <use xlink:href="#DejaVuSans-37" x="602.34375"/>
     <use xlink:href="#DejaVuSans-34" x="665.966797"/>
     <use xlink:href="#DejaVuSans-20" x="729.589844"/>
     <use xlink:href="#DejaVuSans-6d" x="761.376953"/>
    </g>
   </g>
   <g id="text_15">
    <!-- 7 -->
    <g transform="translate(498.027063 464.1) scale(0.1728 -0.1728)">
     <use xlink:href="#DejaVuSans-37"/>
    </g>
   </g>
   <g id="text_16">
    <!-- 8 -->
    <g transform="translate(562.23978 464.1) scale(0.1728 -0.1728)">
     <use xlink:href="#DejaVuSans-38"/>
    </g>
   </g>
   <g id="text_17">
    <!-- 6 -->
    <g transform="translate(526.566048 523.628) scale(0.1728 -0.1728)">
     <use xlink:href="#DejaVuSans-36"/>
    </g>
   </g>
   <g id="text_18">
    <!-- 4 -->
    <g transform="translate(526.566048 583.156) scale(0.1728 -0.1728)">
     <use xlink:href="#DejaVuSans-34"/>
    </g>
   </g>
   <g id="legend_1">
    <g id="patch_7">
     <path d="M 146.251 132.9192 
L 244.1017 132.9192 
Q 247.5577 132.9192 247.5577 129.4632 
L 247.5577 29.736 
Q 247.5577 26.28 244.1017 26.28 
L 146.251 26.28 
Q 142.795 26.28 142.795 29.736 
L 142.795 129.4632 
Q 142.795 132.9192 146.251 132.9192 
z
" style="fill: #ffffff; opacity: 0.8; stroke: #cccccc; stroke-linejoin: miter"/>
    </g>
    <g id="line2d_15">
     <path d="M 149.707 40.2741 
L 166.987 40.2741 
L 184.267 40.2741 
" style="fill: none; stroke: #000000; stroke-opacity: 0.6; stroke-width: 7; stroke-linecap: square"/>
    </g>
    <g id="text_19">
     <!-- truth -->
     <g transform="translate(198.091 46.3221) scale(0.1728 -0.1728)">
      <defs>
       <path id="DejaVuSans-72" d="M 2631 2963 
Q 2534 3019 2420 3045 
Q 2306 3072 2169 3072 
Q 1681 3072 1420 2755 
Q 1159 2438 1159 1844 
L 1159 0 
L 581 0 
L 581 3500 
L 1159 3500 
L 1159 2956 
Q 1341 3275 1631 3429 
Q 1922 3584 2338 3584 
Q 2397 3584 2469 3576 
Q 2541 3569 2628 3553 
L 2631 2963 
z
" transform="scale(0.015625)"/>
       <path id="DejaVuSans-75" d="M 544 1381 
L 544 3500 
L 1119 3500 
L 1119 1403 
Q 1119 906 1312 657 
Q 1506 409 1894 409 
Q 2359 409 2629 706 
Q 2900 1003 2900 1516 
L 2900 3500 
L 3475 3500 
L 3475 0 
L 2900 0 
L 2900 538 
Q 2691 219 2414 64 
Q 2138 -91 1772 -91 
Q 1169 -91 856 284 
Q 544 659 544 1381 
z
M 1991 3584 
L 1991 3584 
z
" transform="scale(0.015625)"/>
      </defs>
      <use xlink:href="#DejaVuSans-74"/>
      <use xlink:href="#DejaVuSans-72" x="39.208984"/>
      <use xlink:href="#DejaVuSans-75" x="80.322266"/>
      <use xlink:href="#DejaVuSans-74" x="143.701172"/>
      <use xlink:href="#DejaVuSans-68" x="182.910156"/>
     </g>
    </g>
    <g id="line2d_16">
     <path d="M 149.707 65.6379 
L 166.987 65.6379 
L 184.267 65.6379 
" style="fill: none; stroke-dasharray: 25.9,11.2; stroke-dashoffset: 0; stroke: #0000ff; stroke-opacity: 0.6; stroke-width: 7"/>
    </g>
    <g id="text_20">
     <!-- 4 -->
     <g transform="translate(198.091 71.6859) scale(0.1728 -0.1728)">
      <use xlink:href="#DejaVuSans-34"/>
     </g>
    </g>
    <g id="line2d_17">
     <path d="M 149.707 91.0017 
L 166.987 91.0017 
L 184.267 91.0017 
" style="fill: none; stroke-dasharray: 7,11.55; stroke-dashoffset: 0; stroke: #008000; stroke-opacity: 0.6; stroke-width: 7"/>
    </g>
    <g id="text_21">
     <!-- 6 -->
     <g transform="translate(198.091 97.0497) scale(0.1728 -0.1728)">
      <use xlink:href="#DejaVuSans-36"/>
     </g>
    </g>
    <g id="line2d_18">
     <path d="M 149.707 116.3655 
L 166.987 116.3655 
L 184.267 116.3655 
" style="fill: none; stroke-dasharray: 44.8,11.2,7,11.2; stroke-dashoffset: 0; stroke: #ff0000; stroke-opacity: 0.6; stroke-width: 7"/>
    </g>
    <g id="text_22">
     <!-- 7 -->
     <g transform="translate(198.091 122.4135) scale(0.1728 -0.1728)">
      <use xlink:href="#DejaVuSans-37"/>
     </g>
    </g>
   </g>
  </g>
  <g id="line2d_19">
   <path d="M 512.296556 470.0528 
L 526.566048 511.7224 
" style="fill: none; stroke: #000000; stroke-opacity: 0.5; stroke-width: 2; stroke-linecap: square"/>
  </g>
  <g id="line2d_20">
   <path d="M 562.23978 464.1 
L 540.835541 511.7224 
" style="fill: none; stroke: #000000; stroke-opacity: 0.5; stroke-width: 2; stroke-linecap: square"/>
  </g>
  <g id="line2d_21">
   <path d="M 533.700795 529.5808 
L 533.700795 559.3448 
" style="fill: none; stroke: #000000; stroke-opacity: 0.5; stroke-width: 2; stroke-linecap: square"/>
  </g>
 </g>
 <defs>
  <clipPath id="pcf48e784fc">
   <rect x="134.155" y="17.64" width="713.474633" height="595.28"/>
  </clipPath>
 </defs>
</svg>
